<?xml version="1.0" encoding="utf-8"?>
<!-- Generator: Adobe Illustrator 17.1.0, SVG Export Plug-In . SVG Version: 6.00 Build 0)  -->
<!DOCTYPE svg PUBLIC "-//W3C//DTD SVG 1.1//EN" "http://www.w3.org/Graphics/SVG/1.1/DTD/svg11.dtd">
<svg version="1.1" id="Layer_1" xmlns="http://www.w3.org/2000/svg" xmlns:xlink="http://www.w3.org/1999/xlink" x="0px" y="0px"
	 viewBox="0 0 1089.178 548.376" enable-background="new 0 0 1089.178 548.376" xml:space="preserve">
<text transform="matrix(0.9529 0.3031 -0.3031 0.9529 212.7575 281.8619)" fill="#FFFFFF" stroke="#FFFFFF" stroke-width="8" stroke-miterlimit="10" font-family="'Arizonia-Regular'" font-size="200">C </text>
<g>
	<path fill="#FFFFFF" stroke="#FFFFFF" stroke-width="14" stroke-miterlimit="10" d="M256.989,224.615l15.422,7.769
		c20.796,6.615,54.593,7.237,101.396,1.843c46.8-5.383,91.653-16.282,134.567-32.685c42.903-16.405,67.673-35.002,74.287-55.795
		c4.27-13.422,0.623-24.846-10.935-34.247c-11.567-9.404-25.141-16.584-40.739-21.546c-50.692-16.126-109.903-18.974-177.626-8.562
		c-67.726,10.422-129.092,28.59-184.087,54.499c-74.142,35.09-118.862,76.678-134.158,124.764
		c-6.615,20.793-7.202,40.642-1.765,59.545c5.438,18.903,15.439,35.445,30.02,49.62c27.396,26.369,61.241,45.958,101.535,58.775
		c18.198,5.789,41.128,10.937,68.801,15.445c48.537,6.384,91.303,8.058,128.294,5.034c36.979-3.018,76.207-12.722,117.686-29.11
		c2.001-0.314,3.226-0.405,3.664-0.267c2.162,0.688,2.938,2.009,2.318,3.958s-2.216,3.946-4.769,5.996
		c-43.657,24.752-98.069,39.052-163.22,42.89c-65.162,3.836-123.081-2.301-173.772-18.427
		C78.916,433.44,36.238,398.867,15.867,350.415c-11.021-26.873-11.764-55.262-2.255-85.153
		c18.464-58.045,68.132-105.45,149.014-142.22c60.724-27.43,129.132-45.974,205.209-55.65c76.073-9.667,142.708-5.408,199.9,12.784
		c35.096,11.164,59.704,28.295,73.827,51.392c7.954,13.979,9.523,28.555,4.701,43.713c-6.753,21.23-24.263,39.151-52.53,53.772
		c-28.269,14.62-59.875,24.725-94.807,30.306c-34.944,5.588-69.084,8.681-102.429,9.276c-33.359,0.604-56.162-0.445-68.416-3.158
		c-12.267-2.706-21.537-5.062-27.813-7.059c-6.285-2-12.605-4.245-18.965-6.749c-21.846-9.331-31.592-17.675-29.248-25.046
		C252.745,224.461,254.39,223.788,256.989,224.615z"/>
</g>
<text transform="matrix(1 0 0 1 92.1011 363.4715)" fill="#FFFFFF" font-family="'Arizonia-Regular'" font-size="165">oriander </text>
<text transform="matrix(1 0 0 1 508.8191 436.5244)"><tspan x="0" y="0" fill="#FFFFFF" stroke="#FFFFFF" stroke-width="6" stroke-miterlimit="10" font-family="'Arizonia-Regular'" font-size="311" letter-spacing="80">T</tspan><tspan x="215.522" y="0" fill="#FFFFFF" stroke="#FFFFFF" stroke-width="4" font-family="'Arizonia-Regular'" font-size="304">hai</tspan></text>
<circle fill="#FFFFFF" stroke="#FFFFFF" stroke-width="2.5521" stroke-miterlimit="10" cx="1058.221" cy="326.896" r="15.234"/>
</svg>
