<?xml version="1.0" encoding="utf-8"?>
<!-- Generator: Adobe Illustrator 17.1.0, SVG Export Plug-In . SVG Version: 6.00 Build 0)  -->
<!DOCTYPE svg PUBLIC "-//W3C//DTD SVG 1.1//EN" "http://www.w3.org/Graphics/SVG/1.1/DTD/svg11.dtd">
<svg version="1.1" id="Layer_1" xmlns="http://www.w3.org/2000/svg" xmlns:xlink="http://www.w3.org/1999/xlink" x="0px" y="0px"
	 viewBox="0 0 3600 3600" enable-background="new 0 0 3600 3600" xml:space="preserve">
<text transform="matrix(0.953 0.3031 -0.3031 0.953 703.216 1825.3656)" fill="#FFFFFF" font-family="'Arizonia-Regular'" font-size="661.012">C </text>
<text transform="matrix(0.953 0.3031 -0.3031 0.953 703.216 1825.3656)" fill="none" stroke="#FFFFFF" stroke-width="8" stroke-miterlimit="10" font-family="'Arizonia-Regular'" font-size="661.012">C </text>
<ellipse transform="matrix(-0.5459 -0.8379 0.8379 -0.5459 95.9572 3623.3062)" fill="#CCCC64" cx="1029.9" cy="1785.6" rx="818.8" ry="1044.3"/>
<ellipse transform="matrix(0.2249 -0.9744 0.9744 0.2249 -90.583 4168.0396)" fill="#CCCC64" cx="2574.5" cy="2141" rx="502.3" ry="968.5"/>
<g>
	<path fill="#FFFFFF" stroke="#FFFFFF" stroke-width="14" stroke-miterlimit="10" d="M849.4,1636.1l51,25.7
		c68.7,21.9,180.4,23.9,335.1,6.1c154.7-17.8,302.9-53.8,444.8-108c141.8-54.2,223.7-115.7,245.5-184.4
		c14.1-44.4,2.1-82.1-36.1-113.2c-38.2-31.1-83.1-54.8-134.7-71.2c-167.5-53.3-363.3-62.7-587.1-28.3
		c-223.9,34.4-426.7,94.5-608.5,180.1c-245.1,116-392.9,253.4-443.4,412.4c-21.9,68.7-23.8,134.3-5.8,196.8
		c18,62.5,51,117.2,99.2,164c90.6,87.2,202.4,151.9,335.6,194.3c60.1,19.1,135.9,36.1,227.4,51c160.4,21.1,301.8,26.6,424,16.6
		c122.2-10,251.9-42,389-96.2c6.6-1,10.7-1.3,12.1-0.9c7.1,2.3,9.7,6.6,7.7,13.1c-2,6.4-7.3,13-15.8,19.8
		c-144.3,81.8-324.1,129.1-539.5,141.8c-215.4,12.7-406.8-7.6-574.4-60.9c-214.8-68.3-355.9-182.6-423.2-342.8
		c-36.4-88.8-38.9-182.7-7.5-281.5c61-191.9,225.2-348.5,492.5-470.1c200.7-90.7,426.8-152,678.3-183.9
		c251.4-32,471.7-17.9,660.7,42.3c116,36.9,197.3,93.5,244,169.9c26.3,46.2,31.5,94.4,15.5,144.5c-22.3,70.2-80.2,129.4-173.6,177.7
		c-93.4,48.3-197.9,81.7-313.4,100.2c-115.5,18.5-228.3,28.7-338.6,30.7c-110.3,2-185.6-1.5-226.1-10.4
		c-40.5-8.9-71.2-16.7-91.9-23.3c-20.8-6.6-41.7-14-62.7-22.3c-72.2-30.8-104.4-58.4-96.7-82.8
		C835.4,1635.6,840.8,1633.4,849.4,1636.1z"/>
</g>
<g enable-background="new    ">
	<path fill="#FFFFFF" d="M400.9,2085.8c-24.4,12.4-45.6,18.5-63.8,18.5c-15.3,0-25.6-5.1-31.1-15.3c-2.9-5.1-4.4-10.9-4.4-17.5
		c0-14.9,3.5-29.4,10.4-43.6c-4.7,4.7-9.3,8.5-13.6,11.5c-3.6,3.3-5.5,2.9-5.5-1.1c0-2.5,3.2-6.5,9.5-12
		c6.4-5.5,16.1-14.6,29.2-27.5c13.1-12.9,23.5-22.6,31.1-29.2c22.2-18.5,45.6-27.8,70.4-27.8c9.1,0,18.4,2.4,27.8,7.1
		c13.8,6.5,20.7,18.5,20.7,36c0,21.1-10.5,42.7-31.6,64.9c-8.4,9.5-20,18.9-34.9,28.4c29.8-4.7,61.4-22.7,94.9-54
		c1.8-1.4,3.5-2.1,4.9-1.9c1.4,0.2,2.2,1,2.2,2.5c0,1.5-0.7,2.9-2.2,4.4c-40,37.8-77.3,56.7-111.8,56.7
		C402.4,2085.8,401.7,2085.8,400.9,2085.8z M453.8,2028.6c9.1-13.8,13.6-25.5,13.6-35.2c0-9.6-4.2-17-12.5-22.1
		c-4.7-4-10.2-6-16.4-6c-22.2,0-42.6,8.7-61.4,26.2c-18.7,17.5-31.2,36-37.4,55.6c-2.5,6.9-3.8,14.1-3.8,21.5
		c0,7.5,2.8,12.7,8.5,15.8c5.6,3.1,11.9,4.6,18.8,4.6c6.9,0,16.9-3.5,30-10.4c-0.7,0-1.8-0.4-3.3-1.1c-4.4-2.2-6.5-5.1-6.5-8.7
		c0-12.7,7.1-25.6,21.3-38.7c10.2-9.1,20.5-13.6,31.1-13.6C446.4,2016.6,452.4,2020.6,453.8,2028.6z"/>
	<path fill="#FFFFFF" d="M658.4,1986c-16,18.5-29,35.5-39,51c-10,15.5-15,26.4-15,32.7c0,6.4,3.7,9.5,11.2,9.5
		c7.4,0,22.7-7.4,45.8-22.4c23.1-14.9,44.4-31.6,64.1-50.2c1.8-1.8,3.5-2.5,4.9-2.2c1.4,0.4,2.2,1.3,2.2,2.7c0,1.5-0.7,3.1-2.2,4.9
		c-46.9,42.9-82.7,69.8-107.4,80.7c-10.9,4.4-18.7,6.5-23.5,6.5c-17.5,0-29.4-2.9-35.7-8.7c-6.4-5.8-9.5-12.2-9.5-19.1
		c0-13.8,2.7-24.4,8.2-31.6c17.8-25.1,32-46.4,42.5-63.8c3.3-5.1,2.6-8.6-1.9-10.6c-4.6-2-10.2-3-16.9-3c-6.7,0-10.3-0.2-10.6-0.5
		c-24.4,32.7-48.5,58.5-72.5,77.4c-2.9,2.5-4.5,2.5-4.9,0c0-2.9,2-6.4,6-10.4c25.4-21.8,46.4-44.9,62.7-69.3c-3.3-2.2-4.9-5.2-4.9-9
		s0.3-8.5,0.8-13.9c0.5-5.5,3.4-12.7,8.5-21.8c8.7-15.3,17.8-22.9,27.3-22.9c8,0,12,4.4,12,13.1c0,12-5.6,25.1-16.9,39.3
		c-5.5,6.5-10.5,11.3-15.3,14.2c13.4-4.4,33.1-6.5,58.9-6.5c12.7,0,21.8,4.7,27.3,14.2c0.7,1.5,1.1,3.6,1.1,6.5
		C665.4,1975.9,663.1,1980.2,658.4,1986z"/>
	<path fill="#FFFFFF" d="M808.3,1957.7c-14.9,15.3-27.4,34.6-37.4,58.1c-10,23.5-15,39.9-15,49.4c0,9.5,3.7,14.2,11.2,14.2
		c7.4,0,19.8-5.5,37.1-16.4c17.3-10.9,37-26.4,59.2-46.4c4.7-4.4,7.1-3.8,7.1,1.6c0,0.7-0.4,1.5-1.1,2.2
		c-17.5,15.3-32.2,27.8-44.2,37.6s-26.3,19.2-42.8,28.1c-16.5,8.9-30.1,13.4-40.6,13.4c-13.1,0-22.8-2.9-29.2-8.7
		c-6.4-5.8-9.5-12.2-9.5-19.1c0-13.1,2.4-23.5,7.1-31.1c4.7-7.6,12.7-18.2,24-31.6c-4,3.3-10.3,8.7-18.8,16.4
		c-8.5,7.6-14.5,12.7-17.7,15.3c-3.3,2.5-4.9,1.8-4.9-2.2c0-2.5,2.9-6.2,8.7-10.9c5.8-4.7,18.4-16.7,37.9-36
		c19.4-19.3,32.7-30.7,39.8-34.4c7.1-3.6,12.9-5.5,17.5-5.5c4.5,0,7.9,0.6,10.1,1.9C808.9,1954.9,809.4,1956.2,808.3,1957.7z
		 M815.4,1928.8c-4-3.3-5.6-8-4.9-14.2c0.7-6.2,4-12.7,9.8-19.6c5.8-6.9,13.6-10.4,23.5-10.4c2.9,0,6,1.4,9.3,4.1s4.5,7.3,3.8,13.6
		c-0.7,6.4-3.6,12.4-8.7,18c-5.1,5.6-10.8,9.3-17.2,10.9C824.6,1932.9,819.4,1932,815.4,1928.8z"/>
	<path fill="#FFFFFF" d="M1053.7,2011.1c-4,4.7-8.1,9.8-12.3,15.3c-4.2,5.5-9.5,12.9-15.8,22.4c-6.4,9.5-9.5,17.5-9.5,24
		c0,6.5,2.8,9.8,8.5,9.8c5.6,0,14.8-3.5,27.5-10.4c25.4-14.5,53.6-36.4,84.5-65.4c3.6-3.6,6-4.2,7.1-1.6c0,0.4,0,1.1,0,2.2
		s-0.7,2.4-2.2,3.8c-62.5,58.9-108,88.3-136.3,88.3c-8.4,0-15.4-2.8-21-8.5c-5.6-5.6-8.5-12.3-8.5-19.9s3.3-19.3,9.8-34.9
		c-16.4,20.4-33.9,36.1-52.6,47.2c-18.7,11.1-33.4,16.6-43.9,16.6c-10.5,0-19.5-3.2-27-9.5c-7.5-6.4-11.2-14.3-11.2-23.7
		c0-26.9,12-53.3,36-79.1c18.2-19.3,40.7-32.9,67.6-40.9c12-4,23.7-6,35.2-6c11.5,0,22.5,3.2,33.3,9.5c10.7,6.4,17.5,13.9,20.5,22.6
		c10.9,0,18.7,4,23.5,12c0.7,1.1,1.1,2.9,1.1,5.5c0,2.5-1.4,5.5-4.1,8.7C1061.1,2002.4,1057.7,2006.4,1053.7,2011.1z M1013.9,1957.1
		c-7.6,0-16.7,2.4-27.3,7.1c-18.5,8-36.2,21.8-52.9,41.4c-26.5,31.3-39.8,54.2-39.8,68.7c0,7.6,3.1,11.5,9.3,11.5
		c5.1,0,13.5-3.3,25.4-9.8c11.8-6.5,27.4-19.4,46.6-38.7c1.1-1.1,5.3-5.1,12.5-12c7.3-6.9,13.4-12.9,18.5-18
		c17.1-17.8,25.6-30.6,25.6-38.4C1031.9,1961,1025.9,1957.1,1013.9,1957.1z"/>
	<path fill="#FFFFFF" d="M1262.1,1972.9c5.1-5.8,7.6-10.4,7.6-13.6s-3.4-4.9-10.1-4.9c-6.7,0-17.4,6.4-31.9,19.1
		c-13.5,11.6-29.7,31.1-48.8,58.4c-19.1,27.3-32.9,45.7-41.4,55.4c-8.5,9.6-16.1,14.5-22.6,14.5c-0.7,0-1.4,0-2.2,0
		c-9.5,0-18.7-3.8-27.8-11.5c2.2-3.3,7.5-10.4,15.8-21.3c18.5-22.5,34.7-44.4,48.5-65.4c-15.6,15.6-28.9,27.8-39.8,36.5
		c-3.6,2.9-5.7,3.1-6.3,0.5c-0.5-2.5,0.3-4.8,2.5-6.8c2.2-2,5.8-5.3,10.9-9.8c5.1-4.5,8.5-7.5,10.1-9c1.6-1.4,4.7-4.3,9.3-8.5
		c4.5-4.2,7.9-7.5,10.1-10.1c10.2-12,17.6-22.2,22.4-30.5c1.8-4.4,2.6-8.6,2.5-12.8c-0.2-4.2-1.1-6.9-2.7-8.2
		c-1.6-1.3-2.3-2.8-1.9-4.6c0-2.9,1.4-4.4,4.4-4.4c1.4,0,3.1,0.4,4.9,1.1c11.3,5.1,16.9,15.2,16.9,30.3c0,15.1-3.3,31.2-9.8,48.3
		c14.2-18.5,24.9-31.8,32.2-39.8c18.9-21.1,37.4-31.6,55.6-31.6c17.8,0,28.4,7.6,31.6,22.9c0.4,2.2,0.5,5.5,0.5,10.1
		c0,4.5-1.7,10.6-5.2,18.3c-3.5,7.6-11.5,20.2-24.3,37.6c-12.7,17.5-20.1,28.5-22.1,33c-2,4.5-2.6,7.9-1.9,10.1
		c0.7,2.2,2.4,3.5,4.9,3.8c4.4,0.7,11.8-2.2,22.4-8.7c14.9-10.5,34.2-26.7,57.8-48.5c4-4,6-3.6,6,1.1c0,1.8-0.9,3.6-2.7,5.5
		c-35.3,32.7-61.4,53.1-78.5,61.1c-20,10.2-35.6,11.8-46.9,4.9c-6.9-4.4-10.4-10.4-10.4-18.3c0-7.8,1.4-15.7,4.4-23.7
		C1212.4,2034.6,1231.1,2007.8,1262.1,1972.9z"/>
	<path fill="#FFFFFF" d="M1489.5,2070c-6.9,18.9-10.4,34.4-10.4,46.4s2.5,21.1,7.6,27.3c1.1,1.4,1.3,2.5,0.5,3
		c-0.7,0.5-1.3,0.8-1.6,0.8c-0.4,0-0.9-0.2-1.6-0.5c-11.6-9.5-17.5-23.5-17.5-42.3s3.8-40.3,11.5-64.6
		c-14.9,19.3-29.6,35.1-44.2,47.4c-17.5,14.5-35.3,21.8-53.4,21.8c-11.6,0-22.5-3.9-32.7-11.7c-10.2-7.8-15.3-20.6-15.3-38.4
		c-0.4-8.7,1.3-18.7,4.9-30c-7.3,6.5-11.9,10.5-13.9,12c-2,1.5-3.4,1.5-4.1,0c-0.7-1.4-1.1-2.8-1.1-4.1c0-1.3,1.2-2.9,3.5-4.9
		c2.4-2,15-15.4,37.9-40.1c13.4-14.9,29.4-26.5,48-34.9c18.5-8.4,36.2-12.5,52.9-12.5c15.3,0,26.5,2.6,33.5,7.9
		c7.1,5.3,10.6,11.9,10.6,19.9c13.1-27.6,27.2-53.9,42.3-78.8c15.1-24.9,26.8-42.1,35.2-51.5c9.1-10.2,20.5-15.3,34.4-15.3
		c13.8,0,25.1,3.8,33.8,11.5c-7.6,4.7-22.5,20.4-44.7,46.9c-22.2,26.5-43.8,55-64.9,85.3C1519.6,2000.8,1502.6,2034,1489.5,2070z
		 M1493.8,1966.9c0-7.3-4.6-10.9-13.6-10.9c-4.7,0-10.9,1.5-18.5,4.4c-17.1,6.5-34,19.3-50.7,38.2c-20.7,23.6-31.1,46.2-31.1,67.6
		c0,12.7,4.2,20.4,12.5,22.9c1.8,0.7,3.6,1.1,5.5,1.1c14.9,0,37.1-14.9,66.5-44.7c8-7.6,14.7-15.8,20.2-24.5
		c2.9-8.4,6.7-18,11.5-28.9c-3.3,2.2-5.9,2.5-7.9,0.8c-2-1.6-1.6-5.3,1.4-10.9C1492.4,1976.3,1493.8,1971.3,1493.8,1966.9z"/>
	<path fill="#FFFFFF" d="M1673.3,2010c19.3-10.5,28.9-21.3,28.9-32.2s-6.5-16.4-19.6-16.4c-6.2,0-12.7,1.6-19.6,4.9
		c-15.3,6.9-30,18.9-44.2,36c-17.5,21.1-26.2,40.7-26.2,58.9c0,6.9,1.9,13.4,5.7,19.4c3.8,6,10.6,9,20.5,9c17.1,0,38.7-9,64.9-27
		c26.2-18,48.7-36.1,67.6-54.3c4.4-4.4,6.5-4.5,6.5-0.5c0,2.5-1.1,4.7-3.3,6.5c-13.5,12.4-22.5,20.6-27,24.8
		c-4.6,4.2-13.5,11.6-27,22.4c-13.5,10.7-24.4,18.3-32.7,22.6c-25.8,13.4-47.7,20.2-65.7,20.2s-32.2-4.1-42.5-12.3
		c-10.4-8.2-15.5-19.5-15.5-34.1c0-30.9,13.8-57.5,41.4-79.9c27.6-22.4,56.5-33.5,86.7-33.5c20.4,0,34,4.4,40.9,13.1
		c2.9,4.4,4.4,9,4.4,13.9s-1.6,10.3-4.9,16.1c-6.5,11.3-18.8,21.2-36.8,29.7c-18,8.5-35,12.8-51,12.8c-6.2,0-9.5-0.5-10.1-1.6
		s-0.1-1.9,1.4-2.5c1.4-0.5,3.5-0.8,6-0.8C1636.5,2025.3,1653.6,2020.2,1673.3,2010z"/>
	<path fill="#FFFFFF" d="M1882.7,1986c-16,18.5-29,35.5-39,51c-10,15.5-15,26.4-15,32.7c0,6.4,3.7,9.5,11.2,9.5
		c7.4,0,22.7-7.4,45.8-22.4c23.1-14.9,44.4-31.6,64.1-50.2c1.8-1.8,3.5-2.5,4.9-2.2c1.4,0.4,2.2,1.3,2.2,2.7c0,1.5-0.7,3.1-2.2,4.9
		c-46.9,42.9-82.7,69.8-107.4,80.7c-10.9,4.4-18.7,6.5-23.5,6.5c-17.5,0-29.4-2.9-35.7-8.7c-6.4-5.8-9.5-12.2-9.5-19.1
		c0-13.8,2.7-24.4,8.2-31.6c17.8-25.1,32-46.4,42.5-63.8c3.3-5.1,2.6-8.6-1.9-10.6c-4.6-2-10.2-3-16.9-3c-6.7,0-10.3-0.2-10.6-0.5
		c-24.4,32.7-48.5,58.5-72.5,77.4c-2.9,2.5-4.5,2.5-4.9,0c0-2.9,2-6.4,6-10.4c25.4-21.8,46.4-44.9,62.7-69.3c-3.3-2.2-4.9-5.2-4.9-9
		s0.3-8.5,0.8-13.9c0.5-5.5,3.4-12.7,8.5-21.8c8.7-15.3,17.8-22.9,27.3-22.9c8,0,12,4.4,12,13.1c0,12-5.6,25.1-16.9,39.3
		c-5.5,6.5-10.5,11.3-15.3,14.2c13.4-4.4,33.1-6.5,58.9-6.5c12.7,0,21.8,4.7,27.3,14.2c0.7,1.5,1.1,3.6,1.1,6.5
		C1889.8,1975.9,1887.4,1980.2,1882.7,1986z"/>
</g>
<g enable-background="new    ">
	<path fill="#FFFFFF" d="M2566.9,1815.4c0-32.2-37.7-54.5-113.1-66.8c-43.9-6.8-94.1-10.3-150.6-10.3s-118.7,3.4-186.6,10.3
		c-168.6,17.1-292,41.8-370.1,74c-62.4,24.7-78.8,51.8-49.3,81.2c3.4,3.4,2.7,5.1-2.1,5.1s-8.9-1.7-12.3-5.1
		c-11.6-11.7-17.5-25.2-17.5-40.6s3.3-30.2,9.8-44.2c6.5-14,18.3-28.6,35.5-43.7s37.7-27.4,61.7-37c73.3-28.8,158.7-49.3,256-61.7
		c56.9-6.8,106.9-10.3,150.1-10.3c124,0,226.8,15.8,308.4,47.3c53.5,21.2,87,43.9,100.8,67.8c7.5,12.3,11.3,24.7,11.3,37
		c0,12.3-3.8,25-11.3,38c-8.9,12.3-18.5,19.5-28.8,21.6s-15.1,0.3-14.4-5.1c1.4-6.2,5.5-14.7,12.3-25.7
		C2563.4,1836.3,2566.9,1825.6,2566.9,1815.4z M1962.4,2284.1c-4.8,30.8-7.2,52.1-7.2,63.7c0,38.4,12,60.6,36,66.8
		c3.4,1.4,7.2,2.1,11.3,2.1l27.8-11.3c5.5-4.8,8.2-5.5,8.2-2c0,3.4-2.1,6.5-6.2,9.2c-11,9.6-25.4,14.4-43.2,14.4
		c-3.4,0-6.9,0-10.3,0c-61-4.8-91.5-39.8-91.5-104.9c0-35.6,7.9-76.1,23.6-121.3c15.8-45.2,39-91.3,69.9-138.3s98-143.1,201.5-288.4
		c8.2-11,14.5-16.5,19-16.5c4.5,0,7.7,1,9.8,3.1c2,2.1,3.1,4.1,3.1,6.2s-0.3,3.8-1,5.1C2067.3,1989.4,1983.7,2160.1,1962.4,2284.1z"
		/>
</g>
<g enable-background="new    ">
	<path fill="none" stroke="#FFFFFF" stroke-width="6" stroke-miterlimit="10" d="M2566.9,1815.4c0-32.2-37.7-54.5-113.1-66.8
		c-43.9-6.8-94.1-10.3-150.6-10.3s-118.7,3.4-186.6,10.3c-168.6,17.1-292,41.8-370.1,74c-62.4,24.7-78.8,51.8-49.3,81.2
		c3.4,3.4,2.7,5.1-2.1,5.1s-8.9-1.7-12.3-5.1c-11.6-11.7-17.5-25.2-17.5-40.6s3.3-30.2,9.8-44.2c6.5-14,18.3-28.6,35.5-43.7
		s37.7-27.4,61.7-37c73.3-28.8,158.7-49.3,256-61.7c56.9-6.8,106.9-10.3,150.1-10.3c124,0,226.8,15.8,308.4,47.3
		c53.5,21.2,87,43.9,100.8,67.8c7.5,12.3,11.3,24.7,11.3,37c0,12.3-3.8,25-11.3,38c-8.9,12.3-18.5,19.5-28.8,21.6
		s-15.1,0.3-14.4-5.1c1.4-6.2,5.5-14.7,12.3-25.7C2563.4,1836.3,2566.9,1825.6,2566.9,1815.4z M1962.4,2284.1
		c-4.8,30.8-7.2,52.1-7.2,63.7c0,38.4,12,60.6,36,66.8c3.4,1.4,7.2,2.1,11.3,2.1l27.8-11.3c5.5-4.8,8.2-5.5,8.2-2
		c0,3.4-2.1,6.5-6.2,9.2c-11,9.6-25.4,14.4-43.2,14.4c-3.4,0-6.9,0-10.3,0c-61-4.8-91.5-39.8-91.5-104.9c0-35.6,7.9-76.1,23.6-121.3
		c15.8-45.2,39-91.3,69.9-138.3s98-143.1,201.5-288.4c8.2-11,14.5-16.5,19-16.5c4.5,0,7.7,1,9.8,3.1c2,2.1,3.1,4.1,3.1,6.2
		s-0.3,3.8-1,5.1C2067.3,1989.4,1983.7,2160.1,1962.4,2284.1z"/>
</g>
<g enable-background="new    ">
	<path fill="#FFFFFF" d="M2671.5,2091.3c0-8.7-6.4-13.1-19.1-13.1c-22.8,0-50.6,16.1-83.4,48.2c-8,8-22.6,24.8-43.7,50.2
		c-21.1,25.5-41.7,54.6-61.8,87.4l-25.1,55.3l3-10.1c-1.3,2.7-2.7,6.7-4,12.1c-3.3,8-13.1,14.8-29.1,20.1c-3.3,1.3-6.4,2-9,2
		c-6.7,0-7.4-5-2-15.1c2.7-6.7,12-30.6,28.1-71.8s29.1-74.2,39.2-99c-26.1,28.8-50.6,52.3-73.4,70.3c-6.7,5.4-11.4,6-14.1,2
		c-0.7-0.7-1-2-1-4c0-2,3-5.7,9-11.1c40.9-35.5,73-68.3,96.5-98.5c17.4-40.9,49.4-97.7,96-170.3s94.3-132.8,143.2-180.4
		c32.8-32.8,68.3-54.9,106.5-66.3c17.4-5.3,33.7-8,48.7-8c15.1,0,29.1,4.2,42.2,12.6s19.6,24,19.6,46.7c0,30.2-10.1,60.7-30.2,91.5
		s-55.6,65.2-106.5,103c-50.9,37.9-98.2,66.2-141.7,84.9c-8,3.4-12.7,2.9-14.1-1.5c-1.3-4.3,2-8.2,10.1-11.6
		c38.8-17.4,82.6-44.9,131.1-82.4c48.6-37.5,81.1-69.5,97.5-96c16.4-26.5,24.6-47.9,24.6-64.3c0-16.4-7-24.6-21.1-24.6
		c-16.1,0-41.5,13.4-76.4,40.2c-51.6,41.5-105.7,99.5-162.3,173.9c-56.6,74.4-105.4,149.4-146.2,225.1
		c18.8-26.8,35.8-48.9,51.3-66.3c37.5-42.2,74-63.3,109.5-63.3c33.5,0,53.3,14.8,59.3,44.2c0.7,4,1,9.7,1,17.1s-2.5,18.2-7.5,32.7
		s-19.1,40.9-42.2,79.4c-23.1,38.5-34.7,61.8-34.7,69.8c0,8,2.7,12.1,8,12.1c7.4,0,18.4-4.7,33.2-14.1
		c37.5-23.4,86.4-63,146.7-118.6c8-8,11.9-9.4,11.5-4c-0.3,5.4-2.5,10.4-6.5,15.1c-49.6,50.9-100.8,93.5-153.8,127.6
		c-24.8,16.1-47.2,24.1-67.3,24.1c-5.4,0-10.4-0.7-15.1-2c-26.1-5.4-39.2-19.9-39.2-43.7s9.4-50.4,28.1-79.9
		c3.3-4.7,15.8-20.4,37.2-47.2C2655.1,2131.5,2671.5,2104.7,2671.5,2091.3z"/>
	<path fill="#FFFFFF" d="M3166.9,2181.8c-7.4,8.7-14.9,18.1-22.6,28.1s-17.4,23.8-29.1,41.2c-11.7,17.4-17.6,32.2-17.6,44.2
		s5.2,18.1,15.6,18.1c10.4,0,27.3-6.4,50.8-19.1c46.9-26.8,98.8-67,155.8-120.6c6.7-6.7,11-7.7,13.1-3c0,0.7,0,2,0,4s-1.3,4.3-4,7
		c-115.2,108.5-199,162.8-251.2,162.8c-15.4,0-28.3-5.2-38.7-15.6c-10.4-10.4-15.6-22.6-15.6-36.7c0-14.1,6-35.5,18.1-64.3
		c-30.2,37.5-62.5,66.5-97,86.9s-61.5,30.7-80.9,30.7c-19.4,0-36-5.9-49.8-17.6c-13.8-11.7-20.6-26.3-20.6-43.7
		c0-49.6,22.1-98.1,66.3-145.7c33.5-35.5,75-60.6,124.6-75.4c22.1-7.4,43.7-11.1,64.8-11.1c21.1,0,41.5,5.9,61.3,17.6
		c19.8,11.7,32.3,25.6,37.7,41.7c20.1,0,34.5,7.4,43.2,22.1c1.3,2,2,5.4,2,10.1s-2.5,10-7.5,16.1S3174.2,2173.1,3166.9,2181.8z
		 M3093.5,2082.3c-14.1,0-30.8,4.4-50.2,13.1c-34.2,14.8-66.7,40.2-97.5,76.4c-48.9,57.6-73.4,99.8-73.4,126.6
		c0,14.1,5.7,21.1,17.1,21.1c9.4,0,25-6,46.7-18.1c21.8-12.1,50.4-35.8,85.9-71.4c2-2,9.7-9.4,23.1-22.1
		c13.4-12.7,24.8-23.8,34.2-33.2c31.5-32.8,47.2-56.4,47.2-70.8S3115.6,2082.3,3093.5,2082.3z"/>
	<path fill="#FFFFFF" d="M3472.3,2083.3c-27.5,28.2-50.4,63.8-68.8,107s-27.6,73.5-27.6,91s6.9,26.1,20.6,26.1s36.5-10,68.3-30.1
		c31.8-20.1,68.2-48.6,109-85.4c8.7-8,13.1-7,13.1,3c0,1.3-0.7,2.7-2,4c-32.2,28.2-59.3,51.3-81.4,69.4s-48.4,35.3-78.9,51.8
		c-30.5,16.4-55.4,24.6-74.9,24.6c-24.1,0-42-5.4-53.8-16.1c-11.7-10.7-17.6-22.5-17.6-35.2c0-24.1,4.3-43.2,13.1-57.3
		c8.7-14.1,23.4-33.5,44.2-58.3c-7.4,6-18.9,16.1-34.7,30.2c-15.8,14.1-26.6,23.5-32.7,28.1c-6,4.7-9,3.4-9-4
		c0-4.7,5.4-11.4,16.1-20.1c10.7-8.7,34-30.8,69.8-66.3c35.8-35.5,60.3-56.6,73.4-63.3c13.1-6.7,23.8-10,32.2-10s14.6,1.2,18.6,3.5
		S3474.3,2080.6,3472.3,2083.3z M3485.3,2030c-7.4-6-10.4-14.7-9-26.1s7.4-23.5,18.1-36.2s25.1-19.1,43.2-19.1
		c5.4,0,11.1,2.5,17.1,7.5s8.4,13.4,7,25.1s-6.7,22.8-16.1,33.2c-9.4,10.4-19.9,17.1-31.7,20.1S3492.7,2036.1,3485.3,2030z"/>
</g>
<g enable-background="new    ">
	<path fill="none" stroke="#FFFFFF" stroke-width="4" d="M2671.5,2091.3c0-8.7-6.4-13.1-19.1-13.1c-22.8,0-50.6,16.1-83.4,48.2
		c-8,8-22.6,24.8-43.7,50.2c-21.1,25.5-41.7,54.6-61.8,87.4l-25.1,55.3l3-10.1c-1.3,2.7-2.7,6.7-4,12.1c-3.3,8-13.1,14.8-29.1,20.1
		c-3.3,1.3-6.4,2-9,2c-6.7,0-7.4-5-2-15.1c2.7-6.7,12-30.6,28.1-71.8s29.1-74.2,39.2-99c-26.1,28.8-50.6,52.3-73.4,70.3
		c-6.7,5.4-11.4,6-14.1,2c-0.7-0.7-1-2-1-4c0-2,3-5.7,9-11.1c40.9-35.5,73-68.3,96.5-98.5c17.4-40.9,49.4-97.7,96-170.3
		s94.3-132.8,143.2-180.4c32.8-32.8,68.3-54.9,106.5-66.3c17.4-5.3,33.7-8,48.7-8c15.1,0,29.1,4.2,42.2,12.6s19.6,24,19.6,46.7
		c0,30.2-10.1,60.7-30.2,91.5s-55.6,65.2-106.5,103c-50.9,37.9-98.2,66.2-141.7,84.9c-8,3.4-12.7,2.9-14.1-1.5
		c-1.3-4.3,2-8.2,10.1-11.6c38.8-17.4,82.6-44.9,131.1-82.4c48.6-37.5,81.1-69.5,97.5-96c16.4-26.5,24.6-47.9,24.6-64.3
		c0-16.4-7-24.6-21.1-24.6c-16.1,0-41.5,13.4-76.4,40.2c-51.6,41.5-105.7,99.5-162.3,173.9c-56.6,74.4-105.4,149.4-146.2,225.1
		c18.8-26.8,35.8-48.9,51.3-66.3c37.5-42.2,74-63.3,109.5-63.3c33.5,0,53.3,14.8,59.3,44.2c0.7,4,1,9.7,1,17.1s-2.5,18.2-7.5,32.7
		s-19.1,40.9-42.2,79.4c-23.1,38.5-34.7,61.8-34.7,69.8c0,8,2.7,12.1,8,12.1c7.4,0,18.4-4.7,33.2-14.1
		c37.5-23.4,86.4-63,146.7-118.6c8-8,11.9-9.4,11.5-4c-0.3,5.4-2.5,10.4-6.5,15.1c-49.6,50.9-100.8,93.5-153.8,127.6
		c-24.8,16.1-47.2,24.1-67.3,24.1c-5.4,0-10.4-0.7-15.1-2c-26.1-5.4-39.2-19.9-39.2-43.7s9.4-50.4,28.1-79.9
		c3.3-4.7,15.8-20.4,37.2-47.2C2655.1,2131.5,2671.5,2104.7,2671.5,2091.3z"/>
	<path fill="none" stroke="#FFFFFF" stroke-width="4" d="M3166.9,2181.8c-7.4,8.7-14.9,18.1-22.6,28.1s-17.4,23.8-29.1,41.2
		c-11.7,17.4-17.6,32.2-17.6,44.2s5.2,18.1,15.6,18.1c10.4,0,27.3-6.4,50.8-19.1c46.9-26.8,98.8-67,155.8-120.6
		c6.7-6.7,11-7.7,13.1-3c0,0.7,0,2,0,4s-1.3,4.3-4,7c-115.2,108.5-199,162.8-251.2,162.8c-15.4,0-28.3-5.2-38.7-15.6
		c-10.4-10.4-15.6-22.6-15.6-36.7c0-14.1,6-35.5,18.1-64.3c-30.2,37.5-62.5,66.5-97,86.9s-61.5,30.7-80.9,30.7
		c-19.4,0-36-5.9-49.8-17.6c-13.8-11.7-20.6-26.3-20.6-43.7c0-49.6,22.1-98.1,66.3-145.7c33.5-35.5,75-60.6,124.6-75.4
		c22.1-7.4,43.7-11.1,64.8-11.1c21.1,0,41.5,5.9,61.3,17.6c19.8,11.7,32.3,25.6,37.7,41.7c20.1,0,34.5,7.4,43.2,22.1
		c1.3,2,2,5.4,2,10.1s-2.5,10-7.5,16.1S3174.2,2173.1,3166.9,2181.8z M3093.5,2082.3c-14.1,0-30.8,4.4-50.2,13.1
		c-34.2,14.8-66.7,40.2-97.5,76.4c-48.9,57.6-73.4,99.8-73.4,126.6c0,14.1,5.7,21.1,17.1,21.1c9.4,0,25-6,46.7-18.1
		c21.8-12.1,50.4-35.8,85.9-71.4c2-2,9.7-9.4,23.1-22.1c13.4-12.7,24.8-23.8,34.2-33.2c31.5-32.8,47.2-56.4,47.2-70.8
		S3115.6,2082.3,3093.5,2082.3z"/>
	<path fill="none" stroke="#FFFFFF" stroke-width="4" d="M3472.3,2083.3c-27.5,28.2-50.4,63.8-68.8,107s-27.6,73.5-27.6,91
		s6.9,26.1,20.6,26.1s36.5-10,68.3-30.1c31.8-20.1,68.2-48.6,109-85.4c8.7-8,13.1-7,13.1,3c0,1.3-0.7,2.7-2,4
		c-32.2,28.2-59.3,51.3-81.4,69.4s-48.4,35.3-78.9,51.8c-30.5,16.4-55.4,24.6-74.9,24.6c-24.1,0-42-5.4-53.8-16.1
		c-11.7-10.7-17.6-22.5-17.6-35.2c0-24.1,4.3-43.2,13.1-57.3c8.7-14.1,23.4-33.5,44.2-58.3c-7.4,6-18.9,16.1-34.7,30.2
		c-15.8,14.1-26.6,23.5-32.7,28.1c-6,4.7-9,3.4-9-4c0-4.7,5.4-11.4,16.1-20.1c10.7-8.7,34-30.8,69.8-66.3
		c35.8-35.5,60.3-56.6,73.4-63.3c13.1-6.7,23.8-10,32.2-10s14.6,1.2,18.6,3.5S3474.3,2080.6,3472.3,2083.3z M3485.3,2030
		c-7.4-6-10.4-14.7-9-26.1s7.4-23.5,18.1-36.2s25.1-19.1,43.2-19.1c5.4,0,11.1,2.5,17.1,7.5s8.4,13.4,7,25.1s-6.7,22.8-16.1,33.2
		c-9.4,10.4-19.9,17.1-31.7,20.1S3492.7,2036.1,3485.3,2030z"/>
</g>
<circle fill="#FFFFFF" stroke="#FFFFFF" stroke-width="2.5521" stroke-miterlimit="10" cx="3497.7" cy="1974.2" r="50.4"/>
</svg>
