<?xml version="1.0" encoding="utf-8"?>
<!-- Generator: Adobe Illustrator 17.1.0, SVG Export Plug-In . SVG Version: 6.00 Build 0)  -->
<!DOCTYPE svg PUBLIC "-//W3C//DTD SVG 1.1//EN" "http://www.w3.org/Graphics/SVG/1.1/DTD/svg11.dtd">
<svg version="1.1" id="Layer_1" xmlns="http://www.w3.org/2000/svg" xmlns:xlink="http://www.w3.org/1999/xlink" x="0px" y="0px"
	 viewBox="0 0 3600 3600" enable-background="new 0 0 3600 3600" xml:space="preserve">
<text transform="matrix(0.953 0.3031 -0.3031 0.953 703.216 1825.3656)" fill="#FFFFFF" font-family="'Arizonia-Regular'" font-size="661.012">C </text>
<text transform="matrix(0.953 0.3031 -0.3031 0.953 703.216 1825.3656)" fill="none" stroke="#FFFFFF" stroke-width="8" stroke-miterlimit="10" font-family="'Arizonia-Regular'" font-size="661.012">C </text>
<ellipse transform="matrix(-0.5459 -0.8379 0.8379 -0.5459 95.9572 3623.3062)" fill="#CCCC64" cx="1029.9" cy="1785.6" rx="818.8" ry="1044.3"/>
<ellipse transform="matrix(0.2249 -0.9744 0.9744 0.2249 -90.583 4168.0396)" fill="#CCCC64" cx="2574.5" cy="2141" rx="502.3" ry="968.5"/>
<g>
	<path fill="#FFFFFF" stroke="#FFFFFF" stroke-width="14" stroke-miterlimit="10" d="M849.4,1636.1l51,25.7
		c68.7,21.9,180.4,23.9,335.1,6.1c154.7-17.8,302.9-53.8,444.8-108c141.8-54.2,223.7-115.7,245.5-184.4
		c14.1-44.4,2.1-82.1-36.1-113.2c-38.2-31.1-83.1-54.8-134.7-71.2c-167.5-53.3-363.3-62.7-587.1-28.3
		c-223.9,34.4-426.7,94.5-608.5,180.1c-245.1,116-392.9,253.4-443.4,412.4c-21.9,68.7-23.8,134.3-5.8,196.8
		c18,62.5,51,117.2,99.2,164c90.6,87.2,202.4,151.9,335.6,194.3c60.1,19.1,135.9,36.1,227.4,51c160.4,21.1,301.8,26.6,424,16.6
		c122.2-10,251.9-42,389-96.2c6.6-1,10.7-1.3,12.1-0.9c7.1,2.3,9.7,6.6,7.7,13.1c-2,6.4-7.3,13-15.8,19.8
		c-144.3,81.8-324.1,129.1-539.5,141.8c-215.4,12.7-406.8-7.6-574.4-60.9c-214.8-68.3-355.9-182.6-423.2-342.8
		c-36.4-88.8-38.9-182.7-7.5-281.5c61-191.9,225.2-348.5,492.5-470.1c200.7-90.7,426.8-152,678.3-183.9
		c251.4-32,471.7-17.9,660.7,42.3c116,36.9,197.3,93.5,244,169.9c26.3,46.2,31.5,94.4,15.5,144.5c-22.3,70.2-80.2,129.4-173.6,177.7
		c-93.4,48.3-197.9,81.7-313.4,100.2c-115.5,18.5-228.3,28.7-338.6,30.7c-110.3,2-185.6-1.5-226.1-10.4
		c-40.5-8.9-71.2-16.7-91.9-23.3c-20.8-6.6-41.7-14-62.7-22.3c-72.2-30.8-104.4-58.4-96.7-82.8
		C835.4,1635.6,840.8,1633.4,849.4,1636.1z"/>
</g>
<text transform="matrix(1 0 0 1 304.416 2095.1045)" fill="#FFFFFF" font-family="'Arizonia-Regular'" font-size="545.3654">oriander </text>
<text transform="matrix(1 0 0 1 1681.7711 2336.5618)" fill="#FFFFFF" font-family="'Arizonia-Regular'" font-size="1027.9312" letter-spacing="264">T</text>
<text transform="matrix(1 0 0 1 1681.7711 2336.5618)" fill="none" stroke="#FFFFFF" stroke-width="6" stroke-miterlimit="10" font-family="'Arizonia-Regular'" font-size="1027.9312" letter-spacing="264">T</text>
<text transform="matrix(1 0 0 1 2394.1243 2336.5618)" fill="#FFFFFF" font-family="'Arizonia-Regular'" font-size="1004.7944">hai</text>
<text transform="matrix(1 0 0 1 2394.1243 2336.5618)" fill="none" stroke="#FFFFFF" stroke-width="4" font-family="'Arizonia-Regular'" font-size="1004.7944">hai</text>
<circle fill="#FFFFFF" stroke="#FFFFFF" stroke-width="2.5521" stroke-miterlimit="10" cx="3497.7" cy="1974.2" r="50.4"/>
</svg>
