<?xml version="1.0" encoding="utf-8"?>
<!-- Generator: Adobe Illustrator 17.1.0, SVG Export Plug-In . SVG Version: 6.00 Build 0)  -->
<!DOCTYPE svg PUBLIC "-//W3C//DTD SVG 1.1//EN" "http://www.w3.org/Graphics/SVG/1.1/DTD/svg11.dtd">
<svg version="1.1" id="Layer_1" xmlns="http://www.w3.org/2000/svg" xmlns:xlink="http://www.w3.org/1999/xlink" x="0px" y="0px"
	 viewBox="16 1784.3 3598.2 1796.8" enable-background="new 16 1784.3 3598.2 1796.8" xml:space="preserve">
<g enable-background="new    ">
	<path fill="#FFFFFF" d="M993.2,2586.3l15.1,7.6c20.3,6.5,53.3,7.1,99,1.8c45.7-5.3,89.5-15.9,131.4-31.9
		c41.9-16,66.1-34.2,72.5-54.5c4.2-13.1,0.6-24.3-10.7-33.4c-11.3-9.2-24.5-16.2-39.8-21c-49.5-15.7-107.3-18.5-173.4-8.3
		c-66.1,10.2-126,27.9-179.7,53.2c-72.4,34.3-116,74.9-131,121.8c-6.5,20.3-7,39.7-1.7,58.1c5.3,18.5,15.1,34.6,29.3,48.4
		c26.7,25.7,59.8,44.9,99.1,57.4c17.8,5.7,40.1,10.7,67.2,15.1c47.4,6.2,89.1,7.9,125.2,4.9c36.1-3,74.4-12.4,114.9-28.4
		c2-0.3,3.1-0.4,3.6-0.3c2.1,0.7,2.9,2,2.3,3.9c-0.6,1.9-2.2,3.9-4.7,5.9c-42.6,24.2-95.7,38.1-159.3,41.9
		c-63.6,3.8-120.1-2.2-169.6-18c-63.4-20.2-105.1-53.9-125-101.2c-10.8-26.2-11.5-54-2.2-83.1c18-56.7,66.5-103,145.5-138.9
		c59.3-26.8,126.1-44.9,200.3-54.4c74.3-9.4,139.3-5.3,195.1,12.5c34.3,10.9,58.3,27.6,72.1,50.2c7.8,13.6,9.3,27.9,4.6,42.7
		c-6.6,20.7-23.7,38.2-51.3,52.5s-58.4,24.1-92.5,29.6c-34.1,5.5-67.4,8.5-100,9.1c-32.6,0.6-54.8-0.4-66.8-3.1
		c-12-2.6-21-4.9-27.2-6.9c-6.1-2-12.3-4.1-18.5-6.6c-21.3-9.1-30.8-17.3-28.6-24.4C989,2586.2,990.6,2585.5,993.2,2586.3z"/>
</g>
<g enable-background="new    ">
	<path fill="none" stroke="#FFFFFF" stroke-width="8" stroke-miterlimit="10" d="M993.2,2586.3l15.1,7.6c20.3,6.5,53.3,7.1,99,1.8
		c45.7-5.3,89.5-15.9,131.4-31.9c41.9-16,66.1-34.2,72.5-54.5c4.2-13.1,0.6-24.3-10.7-33.4c-11.3-9.2-24.5-16.2-39.8-21
		c-49.5-15.7-107.3-18.5-173.4-8.3c-66.1,10.2-126,27.9-179.7,53.2c-72.4,34.3-116,74.9-131,121.8c-6.5,20.3-7,39.7-1.7,58.1
		c5.3,18.5,15.1,34.6,29.3,48.4c26.7,25.7,59.8,44.9,99.1,57.4c17.8,5.7,40.1,10.7,67.2,15.1c47.4,6.2,89.1,7.9,125.2,4.9
		c36.1-3,74.4-12.4,114.9-28.4c2-0.3,3.1-0.4,3.6-0.3c2.1,0.7,2.9,2,2.3,3.9c-0.6,1.9-2.2,3.9-4.7,5.9
		c-42.6,24.2-95.7,38.1-159.3,41.9c-63.6,3.8-120.1-2.2-169.6-18c-63.4-20.2-105.1-53.9-125-101.2c-10.8-26.2-11.5-54-2.2-83.1
		c18-56.7,66.5-103,145.5-138.9c59.3-26.8,126.1-44.9,200.3-54.4c74.3-9.4,139.3-5.3,195.1,12.5c34.3,10.9,58.3,27.6,72.1,50.2
		c7.8,13.6,9.3,27.9,4.6,42.7c-6.6,20.7-23.7,38.2-51.3,52.5s-58.4,24.1-92.5,29.6c-34.1,5.5-67.4,8.5-100,9.1
		c-32.6,0.6-54.8-0.4-66.8-3.1c-12-2.6-21-4.9-27.2-6.9c-6.1-2-12.3-4.1-18.5-6.6c-21.3-9.1-30.8-17.3-28.6-24.4
		C989,2586.2,990.6,2585.5,993.2,2586.3z"/>
</g>
<ellipse transform="matrix(-0.8379 0.5459 -0.5459 -0.8379 3370.4429 4364.2529)" fill="#CCCC64" cx="1037.1" cy="2682.7" rx="1051.8" ry="824.7"/>
<ellipse transform="matrix(-0.9744 -0.2249 0.2249 -0.9744 4435.3555 6586.3281)" fill="#CCCC64" cx="2592.8" cy="3040.6" rx="975.4" ry="505.9"/>
<g>
	<path fill="#FFFFFF" stroke="#FFFFFF" stroke-width="14" stroke-miterlimit="10" d="M855.3,2532.1l51.4,25.9
		c69.2,22.1,181.7,24.1,337.5,6.1s305.1-54.2,448-108.8c142.8-54.6,225.3-116.5,247.2-185.7c14.2-44.7,2.1-82.7-36.4-114
		c-38.5-31.3-83.7-55.2-135.7-71.7c-168.7-53.7-365.9-63.1-591.3-28.5c-225.5,34.6-429.7,95.2-612.8,181.4
		c-246.8,116.8-395.7,255.2-446.6,415.3c-22.1,69.2-24,135.3-5.8,198.2s51.4,118,99.9,165.2c91.2,87.8,203.8,153,338,195.7
		c60.5,19.2,136.9,36.4,229,51.4c161.5,21.2,303.9,26.8,427,16.7s253.7-42.3,391.8-96.9c6.6-1,10.8-1.3,12.2-0.9
		c7.2,2.3,9.8,6.6,7.8,13.2c-2,6.4-7.4,13.1-15.9,19.9c-145.3,82.4-326.4,130-543.3,142.8c-216.9,12.8-409.7-7.7-578.5-61.3
		c-216.3-68.8-358.4-183.9-426.2-345.2c-36.7-89.4-39.2-184-7.6-283.5c61.4-193.3,226.8-351,496-473.4
		c202.1-91.3,429.8-153.1,683.1-185.2c253.2-32.2,475.1-18,665.4,42.6c116.8,37.2,198.7,94.2,245.7,171.1
		c26.5,46.5,31.7,95.1,15.6,145.5c-22.5,70.7-80.8,130.3-174.8,179c-94.1,48.6-199.3,82.3-315.6,100.9
		c-116.3,18.6-229.9,28.9-341,30.9c-111.1,2-186.9-1.5-227.7-10.5c-40.8-9-71.7-16.8-92.6-23.5c-20.9-6.6-42-14.1-63.1-22.5
		c-72.7-31-105.1-58.8-97.4-83.4C841.2,2531.6,846.7,2529.4,855.3,2532.1z"/>
</g>
<g enable-background="new    ">
	<path fill="#FFFFFF" d="M403.7,2985c-24.5,12.4-46,18.7-64.3,18.7c-15.4,0-25.8-5.1-31.3-15.4c-2.9-5.1-4.4-11-4.4-17.6
		c0-15,3.5-29.7,10.4-43.9c-4.8,4.8-9.3,8.6-13.7,11.5c-3.7,3.3-5.5,2.9-5.5-1.1c0-2.6,3.2-6.6,9.6-12.1
		c6.4-5.5,16.2-14.7,29.4-27.7c13.2-13,23.6-22.8,31.3-29.4c22.3-18.7,45.9-28,70.9-28c9.1,0,18.5,2.4,28,7.1
		c13.9,6.6,20.9,18.7,20.9,36.2c0,21.2-10.6,43-31.9,65.4c-8.4,9.5-20.1,19-35.2,28.6c30-4.8,61.9-22.9,95.6-54.4
		c1.8-1.5,3.5-2.1,4.9-1.9c1.5,0.2,2.2,1,2.2,2.5c0,1.5-0.7,2.9-2.2,4.4c-40.3,38.1-77.8,57.1-112.6,57.1
		C405.1,2985,404.4,2985,403.7,2985z M457,2927.4c9.1-13.9,13.7-25.7,13.7-35.4c0-9.7-4.2-17.1-12.6-22.2c-4.8-4-10.3-6-16.5-6
		c-22.3,0-42.9,8.8-61.8,26.4c-18.9,17.6-31.4,36.2-37.6,56c-2.6,7-3.8,14.2-3.8,21.7c0,7.5,2.8,12.8,8.5,15.9
		c5.7,3.1,12,4.7,18.9,4.7c7,0,17-3.5,30.2-10.4c-0.7,0-1.8-0.4-3.3-1.1c-4.4-2.2-6.6-5.1-6.6-8.8c0-12.8,7.1-25.8,21.4-39
		c10.2-9.1,20.7-13.7,31.3-13.7C449.4,2915.3,455.5,2919.3,457,2927.4z"/>
	<path fill="#FFFFFF" d="M662.9,2884.5c-16.1,18.7-29.2,35.8-39.3,51.4c-10.1,15.6-15.1,26.6-15.1,33c0,6.4,3.8,9.6,11.3,9.6
		c7.5,0,22.9-7.5,46.1-22.5c23.2-15,44.8-31.9,64.5-50.5c1.8-1.8,3.5-2.6,4.9-2.2c1.5,0.4,2.2,1.3,2.2,2.7c0,1.5-0.7,3.1-2.2,4.9
		c-47.2,43.2-83.3,70.3-108.2,81.3c-11,4.4-18.9,6.6-23.6,6.6c-17.6,0-29.6-2.9-36-8.8c-6.4-5.9-9.6-12.3-9.6-19.2
		c0-13.9,2.7-24.5,8.2-31.9c17.9-25.3,32.2-46.7,42.8-64.3c3.3-5.1,2.7-8.7-1.9-10.7c-4.6-2-10.3-3-17-3c-6.8,0-10.3-0.2-10.7-0.5
		c-24.5,33-48.9,59-73,78c-2.9,2.6-4.6,2.6-4.9,0c0-2.9,2-6.4,6-10.4c25.6-22,46.7-45.2,63.2-69.8c-3.3-2.2-4.9-5.2-4.9-9.1
		s0.3-8.5,0.8-14c0.5-5.5,3.4-12.8,8.5-22c8.8-15.4,17.9-23.1,27.5-23.1c8,0,12.1,4.4,12.1,13.2c0,12.1-5.7,25.3-17,39.5
		c-5.5,6.6-10.6,11.4-15.4,14.3c13.5-4.4,33.3-6.6,59.3-6.6c12.8,0,22,4.8,27.5,14.3c0.7,1.5,1.1,3.7,1.1,6.6
		C670.1,2874.3,667.7,2878.7,662.9,2884.5z"/>
	<path fill="#FFFFFF" d="M814,2856c-15,15.4-27.6,34.9-37.6,58.5c-10.1,23.6-15.1,40.2-15.1,49.7c0,9.5,3.8,14.3,11.3,14.3
		c7.5,0,20-5.5,37.3-16.5c17.4-11,37.3-26.5,59.6-46.7c4.8-4.4,7.1-3.8,7.1,1.6c0,0.7-0.4,1.5-1.1,2.2c-17.6,15.4-32.4,28-44.5,37.9
		c-12.1,9.9-26.5,19.3-43.1,28.3c-16.7,9-30.3,13.5-40.9,13.5c-13.2,0-23-2.9-29.4-8.8c-6.4-5.9-9.6-12.3-9.6-19.2
		c0-13.2,2.4-23.6,7.1-31.3c4.8-7.7,12.8-18.3,24.2-31.9c-4,3.3-10.4,8.8-18.9,16.5c-8.6,7.7-14.6,12.8-17.9,15.4
		c-3.3,2.6-4.9,1.8-4.9-2.2c0-2.6,2.9-6.2,8.8-11c5.9-4.8,18.6-16.8,38.2-36.2c19.6-19.4,33-30.9,40.1-34.6c7.1-3.7,13-5.5,17.6-5.5
		c4.6,0,8,0.6,10.2,1.9C814.5,2853.1,815,2854.5,814,2856z M821.1,2826.9c-4-3.3-5.7-8-4.9-14.3c0.7-6.2,4-12.8,9.9-19.8
		c5.9-7,13.7-10.4,23.6-10.4c2.9,0,6,1.4,9.3,4.1s4.6,7.3,3.8,13.7c-0.7,6.4-3.7,12.5-8.8,18.1c-5.1,5.7-10.9,9.3-17.3,11
		C830.3,2831,825.1,2830.2,821.1,2826.9z"/>
	<path fill="#FFFFFF" d="M1061.1,2909.8c-4,4.8-8.2,9.9-12.4,15.4c-4.2,5.5-9.5,13-15.9,22.5c-6.4,9.5-9.6,17.6-9.6,24.2
		s2.8,9.9,8.5,9.9c5.7,0,14.9-3.5,27.7-10.4c25.6-14.6,54-36.6,85.1-65.9c3.7-3.7,6-4.2,7.1-1.6c0,0.4,0,1.1,0,2.2s-0.7,2.4-2.2,3.8
		c-63,59.3-108.7,89-137.3,89c-8.4,0-15.5-2.8-21.1-8.5c-5.7-5.7-8.5-12.4-8.5-20c0-7.7,3.3-19.4,9.9-35.2
		c-16.5,20.5-34.1,36.3-53,47.5c-18.9,11.2-33.6,16.8-44.2,16.8c-10.6,0-19.7-3.2-27.2-9.6c-7.5-6.4-11.3-14.4-11.3-23.9
		c0-27.1,12.1-53.6,36.2-79.6c18.3-19.4,41-33.1,68.1-41.2c12.1-4,23.9-6,35.4-6c11.5,0,22.7,3.2,33.5,9.6
		c10.8,6.4,17.7,14,20.6,22.8c11,0,18.9,4,23.6,12.1c0.7,1.1,1.1,2.9,1.1,5.5c0,2.6-1.4,5.5-4.1,8.8
		C1068.5,2901,1065.1,2905,1061.1,2909.8z M1021,2855.4c-7.7,0-16.8,2.4-27.5,7.1c-18.7,8.1-36.4,22-53.3,41.7
		c-26.7,31.5-40.1,54.6-40.1,69.2c0,7.7,3.1,11.5,9.3,11.5c5.1,0,13.6-3.3,25.5-9.9c11.9-6.6,27.5-19.6,47-39
		c1.1-1.1,5.3-5.1,12.6-12.1c7.3-7,13.5-13,18.7-18.1c17.2-17.9,25.8-30.8,25.8-38.7C1039.1,2859.4,1033.1,2855.4,1021,2855.4z"/>
	<path fill="#FFFFFF" d="M1270.9,2871.3c5.1-5.9,7.7-10.4,7.7-13.7c0-3.3-3.4-4.9-10.2-4.9c-6.8,0-17.5,6.4-32.1,19.2
		c-13.6,11.7-29.9,31.3-49.2,58.8c-19.2,27.5-33.1,46.1-41.7,55.7c-8.6,9.7-16.2,14.6-22.8,14.6c-0.7,0-1.5,0-2.2,0
		c-9.5,0-18.9-3.8-28-11.5c2.2-3.3,7.5-10.4,15.9-21.4c18.7-22.7,35-44.7,48.9-65.9c-15.7,15.7-29.1,28-40.1,36.8
		c-3.7,2.9-5.8,3.1-6.3,0.5c-0.5-2.6,0.3-4.8,2.5-6.9c2.2-2,5.9-5.3,11-9.9c5.1-4.6,8.5-7.6,10.2-9.1c1.6-1.5,4.8-4.3,9.3-8.5
		c4.6-4.2,8-7.6,10.2-10.2c10.2-12.1,17.8-22.3,22.5-30.8c1.8-4.4,2.7-8.7,2.5-12.9c-0.2-4.2-1.1-7-2.7-8.2
		c-1.6-1.3-2.3-2.8-1.9-4.7c0-2.9,1.5-4.4,4.4-4.4c1.5,0,3.1,0.4,4.9,1.1c11.3,5.1,17,15.3,17,30.5c0,15.2-3.3,31.4-9.9,48.6
		c14.3-18.7,25.1-32,32.4-40.1c19-21.2,37.7-31.9,56-31.9c17.9,0,28.6,7.7,31.9,23.1c0.4,2.2,0.5,5.6,0.5,10.2
		c0,4.6-1.7,10.7-5.2,18.4c-3.5,7.7-11.6,20.3-24.4,37.9c-12.8,17.6-20.2,28.7-22.2,33.2c-2,4.6-2.7,8-1.9,10.2
		c0.7,2.2,2.4,3.5,4.9,3.8c4.4,0.7,11.9-2.2,22.5-8.8c15-10.6,34.4-26.9,58.2-48.9c4-4,6-3.7,6,1.1c0,1.8-0.9,3.7-2.7,5.5
		c-35.5,33-61.9,53.5-79.1,61.5c-20.1,10.2-35.9,11.9-47.2,4.9c-7-4.4-10.4-10.5-10.4-18.4c0-7.9,1.5-15.8,4.4-23.9
		C1220.9,2933.4,1239.8,2906.5,1270.9,2871.3z"/>
	<path fill="#FFFFFF" d="M1499.9,2969.1c-7,19-10.4,34.6-10.4,46.7c0,12.1,2.6,21.2,7.7,27.5c1.1,1.5,1.3,2.5,0.5,3
		c-0.7,0.5-1.3,0.8-1.6,0.8c-0.4,0-0.9-0.2-1.6-0.5c-11.7-9.5-17.6-23.7-17.6-42.6s3.8-40.5,11.5-65.1c-15,19.4-29.8,35.3-44.5,47.8
		c-17.6,14.6-35.5,22-53.8,22c-11.7,0-22.7-3.9-33-11.8c-10.3-7.9-15.4-20.8-15.4-38.7c-0.4-8.8,1.3-18.9,4.9-30.2
		c-7.3,6.6-12,10.6-14,12.1c-2,1.5-3.4,1.5-4.1,0c-0.7-1.5-1.1-2.8-1.1-4.1c0-1.3,1.2-2.9,3.6-4.9c2.4-2,15.1-15.5,38.2-40.4
		c13.5-15,29.7-26.7,48.3-35.2c18.7-8.4,36.4-12.6,53.3-12.6c15.4,0,26.6,2.7,33.8,8c7.1,5.3,10.7,12,10.7,20
		c13.2-27.8,27.4-54.3,42.6-79.4c15.2-25.1,27-42.4,35.4-51.9c9.1-10.2,20.7-15.4,34.6-15.4c13.9,0,25.3,3.8,34.1,11.5
		c-7.7,4.8-22.7,20.5-45,47.2c-22.3,26.7-44.1,55.4-65.4,86C1530.3,2899.5,1513.1,2932.9,1499.9,2969.1z M1504.3,2865.3
		c0-7.3-4.6-11-13.7-11c-4.8,0-11,1.5-18.7,4.4c-17.2,6.6-34.2,19.4-51.1,38.4c-20.9,23.8-31.3,46.5-31.3,68.1
		c0,12.8,4.2,20.5,12.6,23.1c1.8,0.7,3.7,1.1,5.5,1.1c15,0,37.3-15,67-45c8-7.7,14.8-15.9,20.3-24.7c2.9-8.4,6.8-18.1,11.5-29.1
		c-3.3,2.2-6,2.5-8,0.8c-2-1.6-1.6-5.3,1.4-11C1502.9,2874.7,1504.3,2869.7,1504.3,2865.3z"/>
	<path fill="#FFFFFF" d="M1685,2908.7c19.4-10.6,29.1-21.4,29.1-32.4c0-11-6.6-16.5-19.8-16.5c-6.2,0-12.8,1.6-19.8,4.9
		c-15.4,7-30.2,19-44.5,36.2c-17.6,21.2-26.4,41-26.4,59.3c0,7,1.9,13.5,5.8,19.5c3.8,6,10.7,9.1,20.6,9.1c17.2,0,39-9.1,65.4-27.2
		c26.4-18.1,49.1-36.3,68.1-54.6c4.4-4.4,6.6-4.6,6.6-0.5c0,2.6-1.1,4.8-3.3,6.6c-13.6,12.5-22.6,20.8-27.2,25
		c-4.6,4.2-13.6,11.7-27.2,22.5c-13.6,10.8-24.5,18.4-33,22.8c-26,13.5-48.1,20.3-66.2,20.3c-18.1,0-32.4-4.1-42.8-12.4
		c-10.4-8.2-15.7-19.7-15.7-34.3c0-31.1,13.9-57.9,41.7-80.5c27.8-22.5,56.9-33.8,87.3-33.8c20.5,0,34.2,4.4,41.2,13.2
		c2.9,4.4,4.4,9.1,4.4,14c0,4.9-1.6,10.3-4.9,16.2c-6.6,11.4-18.9,21.3-37.1,29.9c-18.1,8.6-35.2,12.9-51.4,12.9
		c-6.2,0-9.6-0.5-10.2-1.6c-0.5-1.1-0.1-1.9,1.4-2.5c1.5-0.5,3.5-0.8,6-0.8C1648,2924.1,1665.3,2919,1685,2908.7z"/>
	<path fill="#FFFFFF" d="M1895.9,2884.5c-16.1,18.7-29.2,35.8-39.3,51.4c-10.1,15.6-15.1,26.6-15.1,33c0,6.4,3.8,9.6,11.3,9.6
		c7.5,0,22.9-7.5,46.1-22.5c23.2-15,44.8-31.9,64.5-50.5c1.8-1.8,3.5-2.6,4.9-2.2c1.5,0.4,2.2,1.3,2.2,2.7c0,1.5-0.7,3.1-2.2,4.9
		c-47.2,43.2-83.3,70.3-108.2,81.3c-11,4.4-18.9,6.6-23.6,6.6c-17.6,0-29.6-2.9-36-8.8c-6.4-5.9-9.6-12.3-9.6-19.2
		c0-13.9,2.7-24.5,8.2-31.9c17.9-25.3,32.2-46.7,42.8-64.3c3.3-5.1,2.7-8.7-1.9-10.7c-4.6-2-10.3-3-17-3c-6.8,0-10.4-0.2-10.7-0.5
		c-24.5,33-48.9,59-73,78c-2.9,2.6-4.6,2.6-4.9,0c0-2.9,2-6.4,6-10.4c25.6-22,46.7-45.2,63.2-69.8c-3.3-2.2-4.9-5.2-4.9-9.1
		s0.3-8.5,0.8-14c0.5-5.5,3.4-12.8,8.5-22c8.8-15.4,17.9-23.1,27.5-23.1c8,0,12.1,4.4,12.1,13.2c0,12.1-5.7,25.3-17,39.5
		c-5.5,6.6-10.6,11.4-15.4,14.3c13.5-4.4,33.3-6.6,59.3-6.6c12.8,0,22,4.8,27.5,14.3c0.7,1.5,1.1,3.7,1.1,6.6
		C1903.1,2874.3,1900.7,2878.7,1895.9,2884.5z"/>
</g>
<g enable-background="new    ">
	<path fill="#FFFFFF" d="M2584.7,2712.8c0-32.4-38-54.8-113.8-67.3c-44.2-6.9-94.7-10.4-151.6-10.4c-56.9,0-119.5,3.5-187.9,10.4
		c-169.8,17.2-293.9,42.1-372.6,74.5c-62.8,24.8-79.3,52.1-49.7,81.8c3.5,3.5,2.8,5.2-2.1,5.2c-4.8,0-9-1.7-12.4-5.2
		c-11.7-11.7-17.6-25.3-17.6-40.9s3.3-30.4,9.8-44.5c6.6-14.1,18.5-28.8,35.7-44c17.2-15.2,38-27.6,62.1-37.3
		c73.8-29,159.7-49.7,257.7-62.1c57.3-6.9,107.6-10.3,151.1-10.3c124.9,0,228.4,15.9,310.5,47.6c53.8,21.4,87.6,44.2,101.4,68.3
		c7.6,12.4,11.4,24.9,11.4,37.3c0,12.4-3.8,25.2-11.4,38.3c-9,12.4-18.6,19.7-29,21.7c-10.3,2.1-15.2,0.4-14.5-5.2
		c1.4-6.2,5.5-14.8,12.4-25.9C2581.3,2733.9,2584.7,2723.2,2584.7,2712.8z M1976.2,3184.8c-4.8,31.1-7.2,52.5-7.2,64.2
		c0,38.6,12.1,61,36.2,67.3c3.4,1.4,7.2,2.1,11.4,2.1l27.9-11.4c5.5-4.8,8.3-5.5,8.3-2.1c0,3.4-2.1,6.5-6.2,9.3
		c-11,9.7-25.5,14.5-43.5,14.5c-3.5,0-6.9,0-10.4,0c-61.4-4.8-92.1-40-92.1-105.6c0-35.9,7.9-76.6,23.8-122.1
		c15.9-45.5,39.3-91.9,70.4-139.2c31-47.2,98.7-144,202.9-290.3c8.3-11,14.7-16.6,19.1-16.6s7.8,1,9.8,3.1s3.1,4.1,3.1,6.2
		c0,2.1-0.3,3.8-1,5.2C2081.7,2888.1,1997.5,3059.9,1976.2,3184.8z"/>
</g>
<g enable-background="new    ">
	<path fill="none" stroke="#FFFFFF" stroke-width="6" stroke-miterlimit="10" d="M2584.7,2712.8c0-32.4-38-54.8-113.8-67.3
		c-44.2-6.9-94.7-10.4-151.6-10.4c-56.9,0-119.5,3.5-187.9,10.4c-169.8,17.2-293.9,42.1-372.6,74.5c-62.8,24.8-79.3,52.1-49.7,81.8
		c3.5,3.5,2.8,5.2-2.1,5.2c-4.8,0-9-1.7-12.4-5.2c-11.7-11.7-17.6-25.3-17.6-40.9s3.3-30.4,9.8-44.5c6.6-14.1,18.5-28.8,35.7-44
		c17.2-15.2,38-27.6,62.1-37.3c73.8-29,159.7-49.7,257.7-62.1c57.3-6.9,107.6-10.3,151.1-10.3c124.9,0,228.4,15.9,310.5,47.6
		c53.8,21.4,87.6,44.2,101.4,68.3c7.6,12.4,11.4,24.9,11.4,37.3c0,12.4-3.8,25.2-11.4,38.3c-9,12.4-18.6,19.7-29,21.7
		c-10.3,2.1-15.2,0.4-14.5-5.2c1.4-6.2,5.5-14.8,12.4-25.9C2581.3,2733.9,2584.7,2723.2,2584.7,2712.8z M1976.2,3184.8
		c-4.8,31.1-7.2,52.5-7.2,64.2c0,38.6,12.1,61,36.2,67.3c3.4,1.4,7.2,2.1,11.4,2.1l27.9-11.4c5.5-4.8,8.3-5.5,8.3-2.1
		c0,3.4-2.1,6.5-6.2,9.3c-11,9.7-25.5,14.5-43.5,14.5c-3.5,0-6.9,0-10.4,0c-61.4-4.8-92.1-40-92.1-105.6c0-35.9,7.9-76.6,23.8-122.1
		c15.9-45.5,39.3-91.9,70.4-139.2c31-47.2,98.7-144,202.9-290.3c8.3-11,14.7-16.6,19.1-16.6s7.8,1,9.8,3.1s3.1,4.1,3.1,6.2
		c0,2.1-0.3,3.8-1,5.2C2081.7,2888.1,1997.5,3059.9,1976.2,3184.8z"/>
</g>
<g enable-background="new    ">
	<path fill="#FFFFFF" d="M2690.3,2990.6c0-8.8-6.4-13.2-19.2-13.2c-23,0-51,16.2-84,48.6c-8.1,8.1-22.8,25-44,50.6
		c-21.2,25.6-42,55-62.2,88l-25.3,55.7l3-10.1c-1.3,2.7-2.7,6.8-4,12.1c-3.4,8.1-13.2,14.9-29.3,20.2c-3.4,1.3-6.4,2-9.1,2
		c-6.8,0-7.4-5.1-2-15.2c2.7-6.8,12.1-30.9,28.3-72.4c16.2-41.5,29.3-74.7,39.5-99.7c-26.3,29-50.9,52.6-73.9,70.8
		c-6.8,5.4-11.5,6.1-14.2,2c-0.7-0.7-1-2-1-4s3-5.7,9.1-11.1c41.2-35.8,73.5-68.8,97.2-99.2c17.5-41.2,49.8-98.3,96.6-171.5
		s95-133.8,144.2-181.7c33-33.1,68.8-55.3,107.3-66.8c17.5-5.4,33.9-8.1,49.1-8.1s29.4,4.2,42.5,12.7s19.7,24.1,19.7,47
		c0,30.4-10.1,61.1-30.4,92.1c-20.2,31-56,65.6-107.3,103.7s-98.8,66.6-142.7,85.5c-8.1,3.4-12.8,2.9-14.2-1.5
		c-1.3-4.4,2-8.3,10.1-11.6c39.1-17.5,83.1-45.2,132.1-83c48.9-37.8,81.6-70,98.2-96.6s24.8-48.2,24.8-64.8s-7.1-24.8-21.2-24.8
		c-16.2,0-41.8,13.5-76.9,40.5c-52,41.8-106.4,100.2-163.4,175.1c-57,74.9-106.1,150.5-147.2,226.7c18.9-27,36.1-49.2,51.6-66.8
		c37.8-42.5,74.5-63.8,110.3-63.8c33.7,0,53.6,14.8,59.7,44.5c0.7,4,1,9.8,1,17.2s-2.5,18.4-7.6,32.9s-19.2,41.2-42.5,80
		s-34.9,62.2-34.9,70.3s2.7,12.1,8.1,12.1c7.4,0,18.5-4.7,33.4-14.2c37.8-23.6,87-63.4,147.8-119.4c8.1-8.1,12-9.4,11.6-4
		c-0.3,5.4-2.5,10.5-6.6,15.2c-49.9,51.3-101.5,94.1-154.8,128.5c-25,16.2-47.6,24.3-67.8,24.3c-5.4,0-10.5-0.7-15.2-2
		c-26.3-5.4-39.5-20.1-39.5-44c0-23.9,9.4-50.8,28.3-80.5c3.4-4.7,15.9-20.6,37.5-47.6C2673.8,3031.1,2690.3,3004.1,2690.3,2990.6z"
		/>
	<path fill="#FFFFFF" d="M3189.2,3081.7c-7.4,8.8-15,18.2-22.8,28.3s-17.5,24-29.3,41.5c-11.8,17.5-17.7,32.4-17.7,44.5
		s5.2,18.2,15.7,18.2c10.5,0,27.5-6.4,51.1-19.2c47.2-27,99.5-67.5,156.9-121.4c6.7-6.8,11.1-7.8,13.2-3c0,0.7,0,2,0,4.1
		s-1.4,4.4-4,7.1c-116.1,109.3-200.4,163.9-253,163.9c-15.5,0-28.5-5.2-39-15.7c-10.5-10.5-15.7-22.8-15.7-36.9
		c0-14.2,6.1-35.8,18.2-64.8c-30.4,37.8-62.9,67-97.7,87.5s-61.9,30.9-81.5,30.9s-36.3-5.9-50.1-17.7c-13.8-11.8-20.8-26.5-20.8-44
		c0-49.9,22.3-98.8,66.8-146.7c33.7-35.8,75.5-61.1,125.5-75.9c22.2-7.4,44-11.1,65.3-11.1s41.8,5.9,61.7,17.7s32.5,25.8,38,42
		c20.2,0,34.7,7.4,43.5,22.3c1.3,2,2,5.4,2,10.1s-2.5,10.1-7.6,16.2C3202.9,3065.5,3196.6,3072.9,3189.2,3081.7z M3115.3,2981.5
		c-14.2,0-31,4.4-50.6,13.2c-34.4,14.8-67.1,40.5-98.2,76.9c-49.2,58-73.9,100.5-73.9,127.5c0,14.2,5.7,21.2,17.2,21.2
		c9.4,0,25.1-6.1,47.1-18.2c21.9-12.1,50.8-36.1,86.5-71.8c2-2,9.8-9.5,23.3-22.3c13.5-12.8,25-24,34.4-33.4
		c31.7-33,47.6-56.8,47.6-71.3S3137.6,2981.5,3115.3,2981.5z"/>
	<path fill="#FFFFFF" d="M3496.8,2982.5c-27.7,28.3-50.8,64.3-69.3,107.8s-27.8,74-27.8,91.6c0,17.5,6.9,26.3,20.8,26.3
		c13.8,0,36.8-10.1,68.8-30.4c32-20.2,68.7-48.9,109.8-86c8.8-8.1,13.2-7.1,13.2,3c0,1.3-0.7,2.7-2,4c-32.4,28.3-59.7,51.6-82,69.8
		c-22.3,18.2-48.8,35.6-79.4,52.1c-30.7,16.5-55.8,24.8-75.4,24.8c-24.3,0-42.3-5.4-54.1-16.2s-17.7-22.6-17.7-35.4
		c0-24.3,4.4-43.5,13.2-57.7c8.8-14.2,23.6-33.7,44.5-58.7c-7.4,6.1-19.1,16.2-34.9,30.4c-15.9,14.2-26.8,23.6-32.9,28.3
		c-6.1,4.7-9.1,3.4-9.1-4.1c0-4.7,5.4-11.5,16.2-20.2c10.8-8.8,34.2-31,70.3-66.8c36.1-35.8,60.7-57,73.9-63.8s23.9-10.1,32.4-10.1
		s14.7,1.2,18.7,3.5S3498.8,2979.8,3496.8,2982.5z M3510,2928.9c-7.4-6.1-10.5-14.8-9.1-26.3s7.4-23.6,18.2-36.4
		c10.8-12.8,25.3-19.2,43.5-19.2c5.4,0,11.1,2.5,17.2,7.6c6.1,5.1,8.4,13.5,7.1,25.3s-6.8,22.9-16.2,33.4
		c-9.5,10.5-20.1,17.2-31.9,20.2C3527,2936.5,3517.4,2935,3510,2928.9z"/>
</g>
<g enable-background="new    ">
	<path fill="none" stroke="#FFFFFF" stroke-width="4" d="M2690.3,2990.6c0-8.8-6.4-13.2-19.2-13.2c-23,0-51,16.2-84,48.6
		c-8.1,8.1-22.8,25-44,50.6c-21.2,25.6-42,55-62.2,88l-25.3,55.7l3-10.1c-1.3,2.7-2.7,6.8-4,12.1c-3.4,8.1-13.2,14.9-29.3,20.2
		c-3.4,1.3-6.4,2-9.1,2c-6.8,0-7.4-5.1-2-15.2c2.7-6.8,12.1-30.9,28.3-72.4c16.2-41.5,29.3-74.7,39.5-99.7
		c-26.3,29-50.9,52.6-73.9,70.8c-6.8,5.4-11.5,6.1-14.2,2c-0.7-0.7-1-2-1-4s3-5.7,9.1-11.1c41.2-35.8,73.5-68.8,97.2-99.2
		c17.5-41.2,49.8-98.3,96.6-171.5s95-133.8,144.2-181.7c33-33.1,68.8-55.3,107.3-66.8c17.5-5.4,33.9-8.1,49.1-8.1
		s29.4,4.2,42.5,12.7s19.7,24.1,19.7,47c0,30.4-10.1,61.1-30.4,92.1c-20.2,31-56,65.6-107.3,103.7s-98.8,66.6-142.7,85.5
		c-8.1,3.4-12.8,2.9-14.2-1.5c-1.3-4.4,2-8.3,10.1-11.6c39.1-17.5,83.1-45.2,132.1-83c48.9-37.8,81.6-70,98.2-96.6
		s24.8-48.2,24.8-64.8s-7.1-24.8-21.2-24.8c-16.2,0-41.8,13.5-76.9,40.5c-52,41.8-106.4,100.2-163.4,175.1
		c-57,74.9-106.1,150.5-147.2,226.7c18.9-27,36.1-49.2,51.6-66.8c37.8-42.5,74.5-63.8,110.3-63.8c33.7,0,53.6,14.8,59.7,44.5
		c0.7,4,1,9.8,1,17.2s-2.5,18.4-7.6,32.9s-19.2,41.2-42.5,80s-34.9,62.2-34.9,70.3s2.7,12.1,8.1,12.1c7.4,0,18.5-4.7,33.4-14.2
		c37.8-23.6,87-63.4,147.8-119.4c8.1-8.1,12-9.4,11.6-4c-0.3,5.4-2.5,10.5-6.6,15.2c-49.9,51.3-101.5,94.1-154.8,128.5
		c-25,16.2-47.6,24.3-67.8,24.3c-5.4,0-10.5-0.7-15.2-2c-26.3-5.4-39.5-20.1-39.5-44c0-23.9,9.4-50.8,28.3-80.5
		c3.4-4.7,15.9-20.6,37.5-47.6C2673.8,3031.1,2690.3,3004.1,2690.3,2990.6z"/>
	<path fill="none" stroke="#FFFFFF" stroke-width="4" d="M3189.2,3081.7c-7.4,8.8-15,18.2-22.8,28.3s-17.5,24-29.3,41.5
		c-11.8,17.5-17.7,32.4-17.7,44.5s5.2,18.2,15.7,18.2c10.5,0,27.5-6.4,51.1-19.2c47.2-27,99.5-67.5,156.9-121.4
		c6.7-6.8,11.1-7.8,13.2-3c0,0.7,0,2,0,4.1s-1.4,4.4-4,7.1c-116.1,109.3-200.4,163.9-253,163.9c-15.5,0-28.5-5.2-39-15.7
		c-10.5-10.5-15.7-22.8-15.7-36.9c0-14.2,6.1-35.8,18.2-64.8c-30.4,37.8-62.9,67-97.7,87.5s-61.9,30.9-81.5,30.9
		s-36.3-5.9-50.1-17.7c-13.8-11.8-20.8-26.5-20.8-44c0-49.9,22.3-98.8,66.8-146.7c33.7-35.8,75.5-61.1,125.5-75.9
		c22.2-7.4,44-11.1,65.3-11.1s41.8,5.9,61.7,17.7s32.5,25.8,38,42c20.2,0,34.7,7.4,43.5,22.3c1.3,2,2,5.4,2,10.1s-2.5,10.1-7.6,16.2
		C3202.9,3065.5,3196.6,3072.9,3189.2,3081.7z M3115.3,2981.5c-14.2,0-31,4.4-50.6,13.2c-34.4,14.8-67.1,40.5-98.2,76.9
		c-49.2,58-73.9,100.5-73.9,127.5c0,14.2,5.7,21.2,17.2,21.2c9.4,0,25.1-6.1,47.1-18.2c21.9-12.1,50.8-36.1,86.5-71.8
		c2-2,9.8-9.5,23.3-22.3c13.5-12.8,25-24,34.4-33.4c31.7-33,47.6-56.8,47.6-71.3S3137.6,2981.5,3115.3,2981.5z"/>
	<path fill="none" stroke="#FFFFFF" stroke-width="4" d="M3496.8,2982.5c-27.7,28.3-50.8,64.3-69.3,107.8s-27.8,74-27.8,91.6
		c0,17.5,6.9,26.3,20.8,26.3c13.8,0,36.8-10.1,68.8-30.4c32-20.2,68.7-48.9,109.8-86c8.8-8.1,13.2-7.1,13.2,3c0,1.3-0.7,2.7-2,4
		c-32.4,28.3-59.7,51.6-82,69.8c-22.3,18.2-48.8,35.6-79.4,52.1c-30.7,16.5-55.8,24.8-75.4,24.8c-24.3,0-42.3-5.4-54.1-16.2
		s-17.7-22.6-17.7-35.4c0-24.3,4.4-43.5,13.2-57.7c8.8-14.2,23.6-33.7,44.5-58.7c-7.4,6.1-19.1,16.2-34.9,30.4
		c-15.9,14.2-26.8,23.6-32.9,28.3c-6.1,4.7-9.1,3.4-9.1-4.1c0-4.7,5.4-11.5,16.2-20.2c10.8-8.8,34.2-31,70.3-66.8
		c36.1-35.8,60.7-57,73.9-63.8s23.9-10.1,32.4-10.1s14.7,1.2,18.7,3.5S3498.8,2979.8,3496.8,2982.5z M3510,2928.9
		c-7.4-6.1-10.5-14.8-9.1-26.3s7.4-23.6,18.2-36.4c10.8-12.8,25.3-19.2,43.5-19.2c5.4,0,11.1,2.5,17.2,7.6
		c6.1,5.1,8.4,13.5,7.1,25.3s-6.8,22.9-16.2,33.4c-9.5,10.5-20.1,17.2-31.9,20.2C3527,2936.5,3517.4,2935,3510,2928.9z"/>
</g>
<circle fill="#FFFFFF" stroke="#FFFFFF" stroke-width="2.5521" stroke-miterlimit="10" cx="3522.4" cy="2872.6" r="50.8"/>
</svg>
