<?xml version="1.0" encoding="utf-8"?>
<!-- Generator: Adobe Illustrator 17.1.0, SVG Export Plug-In . SVG Version: 6.00 Build 0)  -->
<!DOCTYPE svg PUBLIC "-//W3C//DTD SVG 1.1//EN" "http://www.w3.org/Graphics/SVG/1.1/DTD/svg11.dtd">
<svg version="1.1" id="Layer_1" xmlns="http://www.w3.org/2000/svg" xmlns:xlink="http://www.w3.org/1999/xlink" x="0px" y="0px"
	 viewBox="74.6 53.7 388.6 392.6" enable-background="new 74.6 53.7 388.6 392.6" xml:space="preserve">
<g>
	<circle fill="#FFFFFF" cx="275.3" cy="248.7" r="179.2"/>
	<g>
		<g>
			<g>
				<g>
					<g>
						<path fill="#FFFFFF" d="M458.5,220.2c0.5,2.6,0,5-0.5,4c1.6,5.2,0.6,5.4,2.4,5.9c1.2,3.4,0.2,7.2-0.8,3.3c0,0,0.5,2.5,0.9,4.9
							c0.4,2.5,0.7,5,0.7,5s0-1.5,0.1-3c0.1-1.5,0-3,0-3c1.7,1.6-0.2,9.6,1.7,11.4c0,0-0.1-2.7-0.2-5.4c-0.1-1.4-0.1-2.7-0.2-3.7
							c0-1-0.1-1.7-0.1-1.7l0.5,0.5c-0.7-2.4-0.9-7.3-0.8-9c0.3,0.2,0.7,0,0.8,1.9c-0.6-6.6-1.5-7.4-2.3-7.9c-0.9-0.5-1.5-0.7-2.7-6
							C458.4,218.2,458.5,219,458.5,220.2z"/>
						<path fill="#FFFFFF" d="M460.1,208.5l-2.9-4.1c0,0-0.1-0.5-0.2-1.2c-0.1-0.7-0.3-1.7-0.5-2.6c-0.4-1.9-0.8-3.8-0.8-3.8
							c-0.7,0.1-2.7-5.1-2.2-1.3c0.3,0.7,0.9,2,1.2,3.2c-0.8-0.2-1.7-2.6-2.4-4.6c-0.8-2-1.6-3.6-1.9-2.3c2.2,5.6,2,6.6,4.2,9.8
							c1.2,5.4,1.8,9.3,1.7,12c0.5,1.6,1.4,1.6,1.9,3.7c-0.1-0.4-0.2-0.9-0.3-1.4l2.1-0.6c-0.8-1.6-0.8-3.3-1.3-5.2
							c0,0,0.3,0.5,0.7,1.3c0.4,0.8,0.9,1.8,1.4,2.9c1,2.1,2,4.3,2,4.3c0.7-1.6,0.4-4.6-0.1-7.6c-0.6-3-1.4-6.1-1.4-7.9
							C460.5,207.7,459.6,199.8,460.1,208.5z"/>
						<path fill="#FFFFFF" d="M458.2,217.3c0,0.1,0,0.2,0,0.2C458.2,217.4,458.2,217.3,458.2,217.3z"/>
						<path fill="#FFFFFF" d="M133.8,348.6c1.1,1.4,1.8,1.5,2.1,1.6c0,0-0.7-1-1.8-2.5c-0.5-0.8-1.2-1.6-1.8-2.6c-0.6-1-1.3-2-2-3.1
							c-1.3-2.1-2.7-4.2-3.6-5.8c-0.9-1.6-1.5-2.7-1.5-2.7c-0.2,0.8,2.1,6.1-0.1,3c0.3,1.8,3.6,6,4.6,6.2l-1.5-0.8
							c3.3,3.3,3.4,7.1,1.2,4.9l0.2,0.3c0,0,2.7,2,5.4,4c1.3,1,2.7,1.9,3.8,2.6s1.7,1.2,1.7,1.2C137.8,351.2,137,353.1,133.8,348.6z
							"/>
						<path fill="#FFFFFF" d="M448.2,278c-0.3,2.6-0.1,3,0.1,2.7C448.3,279.8,448.3,278.9,448.2,278z"/>
						<path fill="#FFFFFF" d="M143,356.7c0,0,0.8,0.6,1.8,1.1c0.9,0.5,1.8,1.1,1.8,1.1C145.3,357.9,144,357.2,143,356.7z"/>
						<path fill="#FFFFFF" d="M110.3,344.4c-0.1,0-0.1,0-0.2,0.2l1.6,1.4c0,0,0,0,0,0C111.2,345.3,110.8,344.9,110.3,344.4z"/>
						<path fill="#FFFFFF" d="M216.1,403.6c0.4,0.1,0.7,0.2,1.2,0.4C216.9,403.9,216.5,403.7,216.1,403.6z"/>
						<path fill="#FFFFFF" d="M81.6,290.9c0,0,0.9,2.4,1.8,4.8c0.8,2.4,1.9,4.7,1.9,4.7c-0.9-1.1,0.6,3.5-0.7,1.6
							c0.3,0.7,1.5,4.1,1.5,3.1l-0.6-2c3.2,4.6,2.8,1.4,6.8,9.2c-0.4-2.7-1-4.5-1.7-6c-0.7-1.5-1.4-2.6-2.2-3.9
							c-0.4-0.9-0.7-1.7-0.9-2.4c0,0-0.3-0.5-0.7-1.1c-0.4-0.7-1-1.6-1.5-2.6c-1.1-1.9-2.1-3.8-2.1-3.8L81.6,290.9z"/>
						<path fill="#FFFFFF" d="M393.4,391.5l0,0.2C393.4,391.5,393.4,391.5,393.4,391.5z"/>
						<path fill="#FFFFFF" d="M393.4,392.3l0-0.7C393.2,392.2,391.8,393.6,393.4,392.3z"/>
						<path fill="#FFFFFF" d="M141.3,356.3c0.3-0.1,0.9,0,1.8,0.4l-2.6-1.7C140.7,355.3,141,355.8,141.3,356.3z"/>
						<path fill="#FFFFFF" d="M134.1,353.3l-4.6-6l-2.3-1.8C129,347.7,131.3,350.3,134.1,353.3z"/>
						<path fill="#FFFFFF" d="M206.2,398.3c13.5,5.8-4.2,0.4,1.8,3.6c3.9,1.5,5.6,1,8.1,1.7c-5.6-1.8-4.9-2.4-4.3-3
							c0.7-0.7,1.3-1.2-4.1-3.4c1.1-0.5,3.2,0,5.4,0.7c2.3,0.7,4.7,1.7,6.4,2.7c1.8,1.5,0.8,1.5-0.9,1.2c-1.7-0.3-3.9-0.9-4.7-0.3
							c4.5,1.4,3.8,0.9,6,0.7c3.4,1.3,7.1,2.1,10.5,2.7c1.7,0.3,3.2,0.7,4.6,1.2c1.4,0.4,2.6,1,3.5,1.8c5.2,0.9,5.1-0.1,8.2-0.5
							c0.4-0.8-1.4-1.4-3.6-2c-2.2-0.7-4.6-1.4-5.4-2.3c0.3,0.2,1,0.7,0.8,0.9c0,0-1.1-0.3-2.1-0.7c-1.1-0.3-2.1-0.7-2.1-0.7
							c3.9,1.7-1,1.6-3.3,1.1c-1.6-0.4-4.8-1.3-4.2-1.6c0,0,0.6,0.1,1.3,0.2c0.6,0.1,1.3,0.2,1.3,0.2c-1.5-0.7-3.3-0.9-5.1-1.3
							c-1.8-0.3-3.7-0.7-5.1-1.7c0-0.4,1.3-0.2,1.5-0.3c-4-0.2-7.5-1.5-13-3.2l3.7-0.3c-5,0.1-14.1-5.1-19.7-9.7
							c0.5,0.7,1.7,1.6,0.7,1.4c-3.8-1.8-5.8-4.6-3.7-4.4c-1.1-0.2-2.4-0.9-3.8-1.9c-1.4-1-2.9-2.3-4.5-3.6
							c-1.6-1.3-3.1-2.7-4.7-3.8c-1.6-1.1-3-2.1-4.4-2.7c0,0-1.6-0.6-4-1.6c-2.4-0.9-5.5-2.4-8.7-3.8c-3.1-1.6-6.3-3.2-8.6-4.5
							c-2.3-1.3-3.8-2.2-3.8-2.2c0.8,0.6,1.7,1.3,2.5,2.1c0.4,2.9,1.5,3.8-2.5,1.5c3.4,2.7,3.3,0.5,7.8,5.2
							c-2.3-1.3-4.1-0.4,0.1,4.1c3.1,2.4,6,4.4,9,6.1c2.9,1.7,5.9,3.1,8.8,4.3c5.8,2.5,11.8,4.5,18.2,7.1c-0.1,0.6,2.3,2.3,5.2,4.1
							c3,1.7,6.6,3.6,8.9,4.8c-2.4,0.3-6.1-1.2-9.9-2.9c2.2,1.3,6.2,3.4,9.1,4.9L206.2,398.3z"/>
						<path fill="#FFFFFF" d="M174.2,384c0.2,0.3,0.5,0.6,0.8,0.9C174.9,384.7,174.7,384.4,174.2,384z"/>
						<path fill="#FFFFFF" d="M193.6,394.6c-0.1,0-0.1,0.1-0.1,0.1c0.4,0.2,0.8,0.4,1.2,0.6C194.3,395,193.9,394.7,193.6,394.6z"/>
						<path fill="#FFFFFF" d="M141.4,360.8c-0.9-0.5-1.4-0.9-2.3-1.5c0.4,0.4,1,0.9,1.5,1.3C141.3,361.1,141.6,361.3,141.4,360.8z"
							/>
						<path fill="#FFFFFF" d="M141.1,357.1l0.7,0.1c-0.2-0.3-0.4-0.6-0.5-0.9C141,356.3,140.9,356.6,141.1,357.1z"/>
						<path fill="#FFFFFF" d="M259.1,423.8l1.5-0.2C259.7,423.6,259.3,423.6,259.1,423.8z"/>
						<path fill="#FFFFFF" d="M220.6,406.4c-4.9-1.6-1.2,1.6-8.1-1.1l2,0.9c-5.3-1.1-13.7-5.4-19.3-8.3c0.9-0.3-2.9-2.6-1.7-3.3
							c-1.9-1-3.8-1.9-5.6-2.6c-1.7-0.8-3.3-1.4-4.5-1.5c-2.1-1.7-5.9-3.3-8.4-5.6c0.8,1.4-5.3-1,2,3.2c-0.6-0.3-0.3,0.1-0.9-0.2
							c3.8,4,6.6,3.7,10.5,6.2c2,2.1-4.4-1.5-2.3,0.1c2.6,1.4,6.5,3.7,9.8,5.6c3.4,1.7,6.2,2.8,6.6,1.6c3.8,1.7,4.2,2.3,5.1,3.3
							c1.8,0.1,4,0.8,6.5,1.7c2.5,0.9,5.1,2.1,7.6,3c4.9,2,9.3,3.2,9.7,1.5c-1.2-0.3-2.7-0.7-4.4-1.1c-1.7-0.5-3.5-0.9-5.3-1.1
							L220.6,406.4z"/>
						<path fill="#FFFFFF" d="M147.6,367.5c0.2,0.2,0.5,0.6,0.7,0.8C148.1,368.1,147.8,367.8,147.6,367.5z"/>
						<path fill="#FFFFFF" d="M121.2,306.4l2.9,1.2c1.2,2.8,2.2,5,3.2,7.1c1,2,1.7,3.9,2.6,5.6c0.8,1.8,1.7,3.5,2.6,5.3
							c0.9,1.8,2.1,3.8,3.4,6c0.1,0.8-0.7-0.2-1.1-0.7c3.9,6.3,9.8,15.6,14.1,19.1c1.3,1.9,5,6.9,2.9,5.6c0.9,0.7,1.9,1.6,2.7,2.7
							c-0.4,0.8-2.1-2.1-2.7-1.7c0.7,0.8,0.8,1.3,1.1,1.3c-1.7-0.9-0.8,3.2-6.3-3.1c-0.6-3.7,3.9,4.3,4.3,1.4
							c-1.8-2.1-2.2-1.3-2.5-1.3c-2.2-2.7-1.7-3-1.2-3.2c-1.3-0.7-3.4-4.6-5.2-5.6c-4.1-5.5,1.5-0.6-1.1-4.2c0,0-0.8-0.2-1.6-0.4
							c-0.8-0.2-1.6-0.5-1.6-0.5l-3.7-6.5c-3-4.5-3.6-3.7-4.3-3c-0.7,0.6-1.7,1.2-5.2-4.1c0.9,0.5,1.1-0.6,0.9-2.5
							c-0.3-1.9-0.9-4.5-1.9-7.3c0.7,1.6,2.1,3.6,3.5,5.8c1.4,2.2,2.8,4.5,3.6,6.5c-1.7-6.2,4.4,7.3,4.4,3.6
							c-2.3-2.2-5-6.5-6.3-10.3l0.8,1.1c-1.8-3.8-5.1-5.8-6.7-11.5c-1.1-2.7-0.4-2.4,0.3-2.1C122,308.5,120.8,306.6,121.2,306.4z
							 M123.9,312.1c0,0,0.3,0.9,0.7,1.8c0.3,0.9,0.7,1.8,0.7,1.8C125.3,314.7,124.6,313.4,123.9,312.1z"/>
						<path fill="#FFFFFF" d="M436.9,150.9c0.2,0.4,0.4,0.9,0.5,1.3C437.4,151.9,437.1,151.4,436.9,150.9z"/>
						<path fill="#FFFFFF" d="M109.2,157.1l1.3-2.2C110,155.7,109.6,156.4,109.2,157.1z"/>
						<path fill="#FFFFFF" d="M139.8,106.2l2.5-3.1C141.2,104.3,140.5,105.3,139.8,106.2z"/>
						<path fill="#FFFFFF" d="M419,126l-0.1-0.1c-0.2-0.1-0.3-0.2-0.5-0.4L419,126z"/>
						<path fill="#FFFFFF" d="M247.6,59c0.6,0.1,1.3,0.2,2.2,0.2C249.6,59,248.8,59,247.6,59z"/>
						<path fill="#FFFFFF" d="M139.4,106.8c0.1-0.1,0.1-0.1,0.2-0.1c0.1-0.1,0.2-0.3,0.3-0.4L139.4,106.8z"/>
						<path fill="#FFFFFF" d="M92.6,178.1c-0.1,0.6-0.3,1.1-0.4,1.7C92.5,179,92.6,178.5,92.6,178.1z"/>
						<path fill="#FFFFFF" d="M99.6,176.8c-0.2,0.6-0.3,1.1-0.4,1.6L99.6,176.8z"/>
						<path fill="#FFFFFF" d="M82.1,265l0.6,3.5C82.5,266.8,82.3,265.7,82.1,265z"/>
						<path fill="#FFFFFF" d="M95,185c0,0.2,0,0.4,0.1,0.6C95.2,185.2,95.1,184.9,95,185z"/>
						<path fill="#FFFFFF" d="M441.4,173.1c0-0.1-0.1-0.1-0.1-0.2l-0.3,0L441.4,173.1z"/>
						<path fill="#FFFFFF" d="M447.5,179.4c0.4,0.9,0.8,1.8,1.3,2.7C448.4,181.1,447.9,180.1,447.5,179.4z"/>
						<path fill="#FFFFFF" d="M298.2,61.9c0.9,0.4,3,1.1,1.9,1.3C301.9,62.9,301.9,61.8,298.2,61.9z"/>
						<path fill="#FFFFFF" d="M422.5,165.1c0.5,0.3,1,0.7,1.5,1.2C423.2,165.3,422.4,164.6,422.5,165.1z"/>
						<path fill="#FFFFFF" d="M424,166.2c0.4,0.4,0.9,0.9,1.3,1.2C424.9,167,424.4,166.6,424,166.2z"/>
						<path fill="#FFFFFF" d="M275,77.9c-0.2-0.1-0.5-0.3-1-0.3C274.1,78,274.5,78,275,77.9z"/>
						<path fill="#FFFFFF" d="M449.4,184.5c0.7,0.3,5.9,12.4,2.6,1.8c1.6-0.1,3.1,6.5,4.2,9.3c-0.2-2.2,1.3,0.8,1.6,0
							c-0.6-1.4-1.4-3-2.2-5.3c0.3-1.3,2,2.1,2.5,5c-0.2-3.7,2.4,4.1,1.7-1c-3.7-10.3-7.1-17.4-12.3-23.4c0.7,1.4,1.5,2.8,2.2,4.2
							c0.7,1.4,1.3,2.9,1.9,4.3c0.6,1.4,1.2,2.9,1.7,4.2c0.4,1.4,0.8,2.7,1,4l-2-1.6c-0.3-2.9-1.2-5-2.1-7.1c-0.9-2.1-1.9-4.1-3-6.7
							c0,0,0.3,0.7,0.7,1.8c0.4,1.1,0.9,2.6,1.4,4.1c1,3,2,5.9,2,5.9c0.8,5.9-0.6,2.2-2.5-1.9C449.2,183.2,449.5,184.2,449.4,184.5z
							"/>
						<path fill="#FFFFFF" d="M435.4,181.4l0,0.2c0.1,0.1,0.2,0.3,0.3,0.4L435.4,181.4z"/>
						<path fill="#FFFFFF" d="M109.3,262.2l0.6,0.9C109.6,262.3,109.4,262.1,109.3,262.2z"/>
						<path fill="#FFFFFF" d="M438.5,172.3L438.5,172.3C438.4,172.3,438.4,172.2,438.5,172.3z"/>
						<path fill="#FFFFFF" d="M109.2,238.5c0,0,0.1,0.1,0.1,0.1C109.3,238.5,109.2,238.5,109.2,238.5z"/>
						<path fill="#FFFFFF" d="M80.6,229.3c-0.1,0-0.1,0.1-0.2,0.2C80.4,230,80.5,229.8,80.6,229.3z"/>
						<path fill="#FFFFFF" d="M109.1,238.4c0,0,0.1,0,0.1,0C109.1,238.4,109.1,238.4,109.1,238.4z"/>
						<path fill="#FFFFFF" d="M150.3,131.4c0,0-0.4,0.1-1,0.4C149.2,132,149.5,131.9,150.3,131.4z"/>
						<path fill="#FFFFFF" d="M133.8,148.3c-0.1,0.1-0.2,0.2-0.4,0.3L133.8,148.3z"/>
						<path fill="#FFFFFF" d="M292.7,55.1c-1.3-0.1-2.3-0.2-3.1-0.2C290.5,55.1,291.5,55.1,292.7,55.1z"/>
						<path fill="#FFFFFF" d="M109.3,238.6c0.1,0.3,0.3,0.6,0.4,1.2C109.5,239.1,109.4,238.8,109.3,238.6z"/>
						<path fill="#FFFFFF" d="M173.3,102.4c-0.2,0.2-0.3,0.4-0.5,0.6l0.4-0.2L173.3,102.4z"/>
						<path fill="#FFFFFF" d="M184.5,96.3c-0.3,0.3-0.4,0.6-0.5,0.8c1.8-1.4,4.6-3,6.9-4.4c2.4-1.3,4.4-2.6,4.5-3.5
							c-0.7,0.4-2.9,1.3-4.8,1.9c-1.9,0.7-3.6,1.2-3.2,0.5c-2.6,1.9-7.2,3.4-8.5,4.6c4.8-2.2,1.1,0.7-1.6,3c-2.9,1.4-0.1-1.3-2.6,0
							l-6,4.4l5.4-3.6l-0.8,2.3c0.2-0.2,0.3-0.3,0.5-0.5c4.3-3.4,4.8-3,5.3-2.7C179.6,99.5,180,99.6,184.5,96.3z"/>
						<path fill="#FFFFFF" d="M184,97.2c-0.5,0.4-1,0.8-1.3,1.2C183.5,97.8,183.8,97.5,184,97.2z"/>
						<path fill="#FFFFFF" d="M224.8,81.5c0.5-0.2,1.1-0.4,1.8-0.7C226.2,80.9,225.5,81.3,224.8,81.5z"/>
						<path fill="#FFFFFF" d="M124.5,340.7c0.2-0.4-2.1-6.2-3-5.6c0.8,1.7,1.7,3.3,2.5,5L124.5,340.7z"/>
						<path fill="#FFFFFF" d="M343.3,81.2c-0.7-0.3-1.3-0.6-2-0.8c-0.2,0-0.3,0-0.4,0C341.2,80.7,342.6,81,343.3,81.2z"/>
						<path fill="#FFFFFF" d="M188.9,90.3c-0.9,0.7-1.3,1.1-1.5,1.4C188,91.2,188.6,90.8,188.9,90.3z"/>
						<path fill="#FFFFFF" d="M342.7,83.7c0.7,0.6,1.8,1.5,1.8,2c1.7,0.8,3.1,0.8,4.8,1.4C347.3,86.3,345.2,85.1,342.7,83.7z"/>
						<path fill="#FFFFFF" d="M349.5,87l-0.2,0C349.4,87,349.4,87,349.5,87z"/>
						<path fill="#FFFFFF" d="M126.1,344.1c0.3,0.4,0.7,0.8,1.1,1.3l-0.7-0.6c0.7,1.3,1.3,2.6,2.1,3.8c0.4,0.4,0.7,0.8,1.2,1.4
							c-0.2-0.2-0.4-0.3-0.6-0.4c0.2,0.4,0.5,0.8,0.7,1.2c2.8,2.3,8.7,8.5,10.8,9.9c2.5,2.1,5.2,5,6.9,6.8c-1.6-1.6-3.7-3.9-3.6-2.8
							c1.3,2,2,3.7,3.3,5.5c1.3,1.8,3,3.8,6.5,6c0,0-0.9-0.8-1.7-1.6c-0.9-0.8-1.7-1.7-1.7-1.7s0.6,0.4,1.5,0.9
							c0.9,0.5,2.1,1.2,3.2,1.9c1.2,0.7,2.3,1.4,3.2,1.9c0.9,0.5,1.5,0.8,1.5,0.8c1.1,1.6-0.1,0.9-1.8-0.2c-1.6-1.1-3.7-2.8-4.5-3
							c6.7,4.9,10.2,11.6,14.5,12.4c-0.3,1.3-0.9,3.6,3.7,6.7c-2.4-3.4,3.2,1.2,1.4-1.9c1.9,0.5,4.8,3.9,5.5,3.3l-0.7,0.1
							c3.4,3.3,6.2,4.8,8.7,5.4c2.4,0.7,4.4,0.7,6.4,1.2c2.5,1.2,4.7,2.2,6.6,3.2c2,0.9,3.7,1.8,5.4,2.6c1.7,0.9,3.3,1.6,5.1,2.3
							c1.8,0.7,3.6,1.5,5.8,2.2c0,0.9,1.7,3.8,5.2,4.9c1.9-0.4,10,1.3,11.2,0.1c-6.1-2.3-5.4-0.3-9.3-1c-2.6-2.4,0.2-1.5-3.7-3.7
							c3.1,1.9,15.5,3.8,19,5.9l-1.4-0.1c2.9,1.2,4.5,2.5,6.8,3.6c1.1,0.6,2.4,1.1,4,1.4c1.7,0.3,3.7,0.4,6.4,0.2
							c0,0,1.3-0.1,2.5-0.1c1.3,0,2.5-0.2,2.5-0.2c-0.2,0.1-0.3,0.3-0.4,0.4c8.1,0.8,5.8,2.3,14.9,1.3c-0.7,0.1-0.3,0.2-1,0.3
							c2.6,0.5,5.2,0.2,7.6-0.2c2.4-0.4,4.7-0.9,6.6-1.3c2.4,1-0.5,1.2-1.9,2.2c9.2,0,18.7-3.5,23.9-6c0,0,0.4,0,0.9-0.1
							c0.6,0,1.3-0.1,2-0.2c1.4-0.2,2.9-0.3,2.9-0.3c-3.2,1.3-7.2,3.2-6,3.8c3.2-0.8,2.4-1.2,6.9-2c-0.6,0.9-2.3,2-4.3,3.4
							c9.6-0.9,1.5-3.1,8.5-2.3c2.9-0.8,4.3-2.3,4.3-3.3c0,0,1.4-0.1,2.8-0.2c1.4-0.1,2.8-0.2,2.8-0.2c0.2-1.3,6.5-3.3,10.5-5.2
							c0.3-0.7-3.7,0.2-5.1,1.1c0-0.9,4.1-3,6.8-4.1c1,1,5.4-1.1,9.2-2.9c3.8-1.9,7.1-3.6,6.2-1.5c2.9-1.6,6-3.7,9.2-5.7
							c3.1-2.1,6.3-4.3,9.3-6.5c3-2.3,5.8-4.4,8.2-6.6c1.2-1.1,2.3-2.1,3.3-3c1-1,1.8-1.9,2.6-2.7c1.3-0.7,3.1-2,4.3-2.7
							c1.2-0.8,1.8-1,0.9,0.7c1.9-1.9,3.6-3.6,5-5.3c1.4-1.7,2.6-3.4,3.8-5c1.2-1.6,2.4-3.3,3.7-5c1.3-1.8,2.9-3.4,4.6-5.5
							c0.4-0.2-0.3,0.7-1.1,1.7c-0.8,1-1.5,2.1-1.1,2.2c3.7-5.9,8.9-9.1,14.3-18.6c-0.9,1.6-0.8,2.3-0.7,2.6
							c-0.4-0.1,1.7-4.2,2.9-6.7c1-1.2-0.9,1.9-0.1,1.3c6-8.6,9.6-17.2,12.5-25.9c2.9-8.7,4.9-17.6,7.3-27.6
							c-1.3,5.7-0.5,8.2,0.1,8.5c0,0,0.4-1.4,0.8-2.8c0.4-1.4,0.7-2.8,0.7-2.8c-0.3-2.4,0.8-6.6,0.8-10.3c0.4-0.4,1-2.1,1.1-0.2
							c1.9-5.5,1.6-10.1,1.3-14.9c-0.2-2.4-0.5-4.9-0.6-7.6c-0.2-2.8-0.3-5.7,0-9.2c0,0,0.7,4.2,1.4,8.5c0.5,4.3,1,8.6,1,8.6
							l1.4-4.1c0,0,0.2,1.9,0.4,3.8c0.3,1.9,0.3,3.9,0.3,3.9c1.5-4.5-0.5-8.6,0.8-9c0.3,1,0,3.3,0.6,3.4c0.8-4.4,0-4.8-0.2-8.1
							c0.6,2.2,0.8,4.9,1,7.9c0.2,3,0,6.3-0.2,9.6c-0.5,6.6-1.6,13.1-2.4,17.7c-0.1,1.5-0.3-1.4-0.5-1.7c-0.4,1.9-0.9,3.3-1.4,4.8
							c-0.5,1.6-1.1,3.2-1.6,5.6c0.2,3.1,1.4-2,2.1-4.2c0.8,0.5,0.4,1.7-0.2,4.3c-1.2,0.2-4.7,13.7-7.5,16.2c-2.3,6.6-1.6,6.3-0.7,6
							c0.9-0.3,1.7-0.7-1.4,5.5c0,0-0.8,0.8-1.5,1.6c-0.8,0.8-1.6,1.5-1.6,1.5c-2.5,7.7-7.1,17.1-12.5,24.4l1.1-1.6
							c0.2-1.4-1.3,0.1-2.1,0.7c-2.2,2.6-3.8,5.4-5.6,7.8c-1.7,2.4-3.2,4.5-5.1,5.6c-3.7,7-12.2,17.1-18.7,23.5
							c-1.5,0.1,0.5-2.1,3-4.8c2.5-2.8,5.6-6,6.4-7.7c0,0-0.3,0.4-0.9,0.9c-0.6,0.5-1.3,1.2-2,1.9c-1.5,1.4-2.9,2.8-2.9,2.8
							c3.6-3.5,4.6-5.3,5.9-8.2c-2.5,2.5-4,4.2-5.4,6.1c-1.4,1.9-2.7,3.8-5.1,6.2c0.1-0.7-0.8-0.4-3.2,1.7l0.1,1.5
							c-0.1,0-0.4,0.1-1.2,0.7c0,0-2.3,2-4.5,4c-1.1,1-2.3,2-3.2,2.7c-0.9,0.7-1.5,1.2-1.5,1.2c2.4-1.1,3.2-0.2,5.6-2.2
							c-1.3,0.1,0.7-1.6,3.2-3.5c-1.7,2.3,2.8-1.4,3.2-0.8c-2.5,2-5.2,4.2-7.8,6.2c-2.6,1.9-5,3.8-6.6,5.1l-1.8-0.2
							c-2.6,1.5-5.1,3.3-7.5,4.8c-2.4,1.5-4.6,2.8-6.5,3.7l0.8-1.2c-3.2,1.6-6.4,3.3-9.4,4.8c-3.2,1.4-6.2,2.8-9.4,3.5
							c-5.4,3.6-12.7,7.4-17.4,10.1c-1.2,1-5.9,2.1-11.2,2.8c-5.3,0.9-11.1,1.5-14.6,3.2c-0.5,0,4.8-1.9,7.1-2.9
							c-4.8,0.7-8.3,3.1-10.1,1.7c5.4-0.4,5.2-0.9,4.3-1.1c-0.9-0.3-2.6-0.5-0.3-1.2c-2.5,0.4-5.1,0.8-7.3,1.2
							c-2.2,0.5-4.2,0.8-5.4,1.2c8.2-0.8-2.7,2.5,5.5,0.9c-3.1,1.1-6.9,1.8-10.9,2.3c-4,0.5-8.2,0.5-12.1,0.3c0.1-0.7-0.9-1-3.8-1.3
							l-2.3,0.9c-3.6-0.3,7-0.9-0.2-1.5c-1.9,0.4-4.2,0.4-6.7,0.2c-2.5-0.2-5.2-0.3-7.7-0.8c-2.5-0.3-4.9-0.6-6.9-0.7
							c-2-0.1-3.6,0-4.5,0.6c-2.7-1.1,0-0.9,2.4-0.8c2.4,0.1,4.4,0,0.3-1.4c5.1-0.3,11.7,1.8,13.5,0.3c-4.9,0.1-1.6-1.4-4.7-1.8
							l-5.4,0.2l1.2,0.2c-2.3,0.1-4.9-0.1-7.7-0.5c-1.4-0.2-2.8-0.4-4.3-0.6c-1.5-0.3-3-0.6-4.5-1c-1.5-0.3-3-0.7-4.6-1.1
							c-1.5-0.4-3-0.9-4.5-1.3c-1.5-0.4-3-0.8-4.5-1.3c-1.4-0.5-2.9-0.9-4.3-1.4c-9.8-1.7-17.1-2.3-27.7-8c1.8,0.4-0.3-0.9-2-2.1
							c-1.6-1.2-2.7-2.3,1-1.2c-4.4-3.3-9.6-5.3-10-4.8c4.1,2.7,1.4,1,4.7,3.4c-1.4-0.4-3.5-1.3-5.4-2.5c-1.9-1.2-3.8-2.5-4.7-3.5
							c1,0.7,0.7,0.3,1,0.3c-4.6-3.6-2.8-0.8-6.4-3c-0.2-0.8-2.1-2.3-4.2-3.8c-2.1-1.6-4.4-3.4-5.8-4.8c0,0-1.4-0.5-2.7-1.2
							c-1.3-0.6-2.6-1.2-2.6-1.2c3,1.2-3.8-3.8-3.8-5.1c-3.4-2.2-6.8-3.5-10.8-8.2c2.1,1.4-3.3-4.6-2.5-5.4
							c-1.5-2.1-3.1-3.9-4.7-5.5c-1.6-1.6-3.1-3.1-4.7-4.6c-1.6-1.4-3.1-3-4.5-4.7c-1.4-1.7-2.8-3.6-3.8-5.9c0.4,0.1,2,1.4,0.7-1.2
							c-1.4-1.8-3.6-5.1-4.9-7.2l0.1,0.1c0,0-0.1-0.1-0.1-0.1c-0.6-1-1.1-1.6-1.4-1.5c-1.5-1.6-2.8-2.7-4.2-4.3
							c-1.4-1.6-3-3.7-5.3-7.3c-0.8,1.1,2.8,7.2,4.6,9.7l2.4,1.7c-0.2,1.5,0.8,3.1,1.9,4.6c1.2,1.4,2.4,2.7,2.7,3.6
							c-1.1-0.8-2.5-2.1-3.8-3.9c-1.3-1.8-2.8-3.9-4.2-6.1c-2.8-4.6-5.6-9.7-7.9-13.4c0.5,5.6,5.7,16.3,11.3,24.8c0,0-0.4-1-0.9-2.1
							c-0.5-1-0.8-2.1-0.8-2.1s0.6,1.2,1.4,2.3c0.7,1.1,1.4,2.2,1.4,2.2s-0.4-1.3-0.8-2.5c-0.4-1.2-0.8-2.5-0.8-2.5
							c1.2,2.2,2.5,4.2,3.8,6.1c1.3,1.9,2.5,3.7,3.8,5.6c-3.1-4.3-2.7-7.1-1.3-4.4c2.3,5.5,4.2,4.6,6.7,8.3
							c-1.4-2.1-3.2-4.7-1.4-3.4c1.9,4,3.7,6.3,5.2,8.5c1.5,2.3,3.1,4.3,5.2,7.8c0.5-1.1,2.1,0.9,4,2.9c1.9,2,4,4.3,5,4.1l-2.4-2.8
							c0,0,1.6,1.2,3.2,2.4c1.6,1.2,3.2,2.3,3.2,2.3c4.1,6.2-5.8-3.2,1.4,5.3c7.5,7,8.7,5.2,15.1,10c-1.4-0.3-3.5-1.3-5.9-2.7
							c-2.4-1.4-4.9-3.4-7.4-5.5l2.6,3c-2.1-0.8-8.7-7-11.8-10.3c3.1,2.2,2.6,1.5,1-0.2c-1.5-1.7-3.9-4.3-4.7-5.9
							c-1.3,0.3,2.1,3.7-2.4,0.2c1.8,1.9,2.9,3,4.1,4.3c1.2,1.2,2.4,2.7,4.7,5.2c-2.6-2.6-4.5-4.4-6.2-5.7c-1.7-1.3-3.2-2.1-4.5-3
							c-1.4-0.8-2.7-1.7-4.2-2.9c-1.5-1.3-3.1-3-4.9-5.7c4.1,4.4,0-2.7,0-3.6c-1.9-2-5.3-6.6-6.9-8.3l-0.2,2.7
							c-2.5-2.8-3.3-5.4-4.2-8c-0.5-1.3-1-2.6-1.8-4c-0.7-1.4-1.7-2.9-3.2-4.6c-1.4-0.5,3.5,6.8,2.6,5.5c-3.4-4.9-5.2-8.6-6.3-12.4
							c-0.6-1.9-1.1-3.8-1.6-5.8c-0.5-2.1-1-4.3-1.8-6.8c-0.7-0.3-1.7,0.2-3.9-2.8c1.4,0.7,0.8-2,3.1,1.5c-1-3.4-3.1-7-4.6-9.7
							c1,3.5,0.4,2.9-0.6,1.4c-1-1.6-2.2-4.3-2.8-4.8c-1.1-3.7,1.3,0.8,2.3,2.9c-0.7-3-0.5-6.8-2.5-8c0.5-0.2,1.8,1.6,3.3,4.1
							c0.7,1.2,1.5,2.7,2.2,4.1c0.8,1.4,1.5,2.8,2.1,4.1l-1.2-3.5c1.4,2.2,1.5,2.7,2.7,6.2c-0.6-3.7,0.4-3.7,1.4-3.2
							c0,0.5-0.3-0.2-0.3,0.3c0.8,2.9,2,4.8,2.2,4c2.3,1.9-0.7-4.1-0.8-6.2c-0.6-1.4-1.3-2.7-1.9-4.1c0,0-2.3-3.3-4.6-6.5
							c-2.2-3.3-4.3-6.8-4.3-6.8c-1.2-3.1-1.5-5.5-1.8-7.7c-0.2-2.2-0.3-4.2-0.3-6.8l-1.4-1.1c-1-5.7-1.2-11.2,0.8-7.7
							c-0.4,0.3-0.2,1,0,2.2c0.2,0.1,0.4,0.4,0.5,0.7c0.1,0.1,0.2,0.2,0.3,0.2c-1.3-6-2-9.8-2.1-10.1c3.1,10.1,2.3,0.2,4.6,1.7
							c0,0-0.1-0.6-0.3-1.6c-0.2-0.9-0.4-2.2-0.6-3.5c-0.4-2.6-0.8-5.1-0.8-5.1c-0.2,6.3-1.1,0.2-1.5-2c1.2-0.7-0.3-8.3-0.1-12
							l0.3,0.3c0.5-3.4,0.5-9.3,0.6-13.5c-0.4,0.2-2.1-5.4-2.8-8.2c-1.3,7.3-1.3,2.9-2.1,3.4c0.1-0.8,0.3-2.1,0.2-2.3
							c-0.2-1.1-0.6,1.4-1.1,1.6c0,4-0.2,8,0,11.4c0.2,3.4,0.6,6.3,1.4,7.9c0.8-2.4-0.6-4.1-0.1-6.8c0.5,2,0.7,4.2,0.7,6.7
							c0.1,2.5,0.1,5.4,0.2,8.6l-1,2.2l1,6.5c-0.7-2.7-1.8-0.9-2.3-7.8c-1,0.9,0.7,6.8,0.7,11.1c0,0,0.4,0.5,0.8,1
							c0.4,0.5,0.8,1,0.8,1c-0.9-0.8,0.1,8.3-1.7,2c0,0-0.2-0.6-0.4-1.6c-0.2-1-0.5-2.3-0.8-3.6c-0.5-2.6-1-5.2-1-5.2l-0.7,3
							c0,0-0.2-2.2-0.5-4.5c-0.1-1.1-0.2-2.2-0.2-3.1c0-0.8-0.1-1.4-0.1-1.4l0.8,2.1c-1.3-14.4,2.4-4.3,1.1-18.7
							c-1.3-4.6-1.3-9.5,0.3-18.3c-0.4,6.4,1.1,0.8,1.7,3.3c1.4-6.4,0.6-8.7,0.6-12.2c1.2-1.5,2-2.5,0.9,3.2c1.7,1,1-7.6,3.1-7.7
							c2-9.3,1.8-13.3,1.8-17.8c0.2-4.4,0.7-9.3,6.2-19.4l0.3,1.1c4.9-13.6,9.8-20.5,16.5-32c0,0,0.5-0.5,1.1-1.2
							c0.7-0.7,1.7-1.6,2.6-2.6c1.9-1.8,3.8-3.7,3.8-3.7c-1.1,2.1-3.5,8-1.1,6.1c-2.3,1.5-3.9,3.5-5.5,5.6c-1.6,2.1-3.1,4.3-4.9,6.5
							c0.2,0.7,1.6-1,2.3-1.7c-1.6,2.8-3.3,3.8-5,7.8c0.4,0,3.2-3.8,1.6-0.7c0,0-1,1.1-1.9,2.3c-0.9,1.2-1.9,2.3-1.9,2.3
							c-1.6,3.6-1.3,4.8-1.3,6.1c0.1,1.3-0.1,2.6-2.2,6.7c-0.3-2-0.3-5.8,1-9.2c-1,1.9-0.6,0.5-0.1-0.9c0.5-1.4,0.9-2.9-0.2-1.3
							c-0.7,3.1-1.5,5.2-2.5,7.5c-1.1,2.3-2.2,4.8-3.2,8.8c0.1-1-0.1-1.3,0.6-3.2c0,0-1.2,2.7-2.5,5.4c-1.2,2.7-2.3,5.5-2.3,5.5
							c0.9-1.2,0.4,1.2-0.2,3.8c-0.5,2.6-0.9,5.5-0.1,5.2c1-3,1.7-5,2.2-6.5c0.5-1.6,0.9-2.7,1.3-3.8c0.7-2.3,1.7-4.8,4.7-11.2
							c-1.2,3.9-1.9,9.1-1.3,11.8c-0.1,0.1-0.2,0.3-0.4,0.7c0.6,2.5,1.6,0.5,3.9,1.3c0.2-3.3,1.1-5.7,2.1-8.3c1-2.6,2.3-5.2,3.4-8.8
							c-0.6-1.8-3.4,3.2-4.4,6.8c0,0,0.1-0.4,0.3-1c0.1-0.6,0.4-1.4,0.6-2.2c0.5-1.6,1-3.2,1-3.2l0,1.4c0,0,0.5-0.9,1.1-2.3
							c0.7-1.4,1.6-3.3,2.6-5.1c1-1.8,2-3.7,2.8-5c0.7-1.4,1.3-2.3,1.3-2.3c-1.5,2.8-1.2,4.1-1.5,5.8c1-1.9,2.2-3.6,3.7-5.4
							c-1.3-0.2-1.9-0.9-0.9-2.7c5.6-9.2,10.1-13.3,13.5-15.7c0.2-0.3,0.4-0.7,0.6-1.1c-2.2,0.6,2.7-7.4,3.9-10.8
							c0.9,1,4.2-3.7,6.8-5.6c0-2.2-3-2-6.5,0.1c-3.8,6.5-1.6,4-2.3,8c0,0-1.5,2.5-3.1,5c-1.4,2.6-2.9,5.1-2.9,5.1l0.5-2.8
							c-3.9,4.4-5.5,10-6.6,8.8c0.4-1.6,1.4-3.4,2.5-5.1c1.1-1.7,2.2-3.5,2.7-5l-2.7,2.8c2.8-6.5,3.1-2.1,7.4-9.3
							c-2.9,1.6,0.4-0.7,1.9-4c-1.3,0.8-3.5,3.8-5.4,6.1c-1.9,2.3-3.4,4.2-3.6,2.4c0.8-2.1,3.7-4.6,6.5-7.3c2.8-2.7,5.8-5.4,6.8-8.4
							v0.4c6-6.1,7.2-9.1,9-11.9c3.1-2.1,6.2-6.1,9.2-8.8l0.3,0.6c0,0,1-1,2.1-1.9c1.1-0.9,2.1-1.8,2.1-1.8
							c-1.4,2.5-5.1,4.1-8.6,7.4l1.3,0.5c-2.6,1.2-4.1,3-5.3,4.9c-1.2,1.9-2.1,3.8-3.2,5.7c1.8-2.6,5-5.5,7.7-8.2
							c2.8-2.5,5-4.8,4.8-6.2c0,0,0.9-0.4,1.9-0.8c0.9-0.4,1.9-0.7,1.9-0.7l1.2-1.5c2.8-1,1.4,1.9-2.7,5.6c-0.9,0.4-1.4,0.6-1.3,0.2
							c-1.5,2.1-2.8,4.2-7.4,8.3l1.9-2.7c-5.7,5.1-10.1,10.6-11,13.3c7.8-7.8,15.8-14.9,23.9-21.3c0.7-4.1,2.7-7.5,2.5-10.5
							c5.4-4.7,13.7-10,19.5-12.2l-0.3,0.7c2.7-1.3,5.2-2.6,7.1-3.9c3.1-0.8-1.3,2.2,0.8,1.5c0,0,0.5-0.3,1.3-0.8
							c0.8-0.5,1.9-1.2,3-1.8c2.2-1.3,4.5-2.5,4.5-2.5c-0.1,0.7-2,1.9-4.4,3.1c-2.4,1.2-5.2,2.8-6.9,3.7c0.6-0.4,1.9-1.3,1.4-1.2
							c-4.5,1.6-11,7.8-13.7,7.4c-1.8,1.5,3.3-3.6-3.3,0.6c-4.8,2.3-5.3,4.5-5.5,5.3c0.3,0.5,7.3-3.8,5.3-1.5c3.3-2.2,4.2-3.9,9-5.9
							c-3.5,2-7.3,6.1-9.6,6.4c-5.9,5.4-3,7.3,0,5.4c-1.3-0.4,11.2-8.6,2-4.2c3.2-3.6,10.4-7.9,15.4-11.3l-0.1,0.3
							c0,0,1.6-0.9,3.3-1.8c1.6-1,3.3-1.8,3.3-1.8c-0.8,0.7-2.7,2-2.5,2.6c0,0,0.5-0.4,1.3-1c0.8-0.6,1.9-1.3,3-2
							c2.2-1.5,4.4-3,4.4-3c-2.4,1.8-1.5,1.6,0.3,0.9c1.9-0.7,4.7-1.7,6-2c0.7-1.3,4.2-3.5,0.4-2.6c-4.4,0.9-2.2,1.4-5.9,3l4.7-3.6
							l0.5,0c0,0,0.7-0.6,1.4-1.2c0.7-0.6,1.4-1.2,1.4-1.2c7.4-2.4-2.2,3.9,6.8-0.5l-1.8-1.3c2.8-0.9,5.8-1.6,8.9-2.3
							c1.6-0.3,3.1-0.7,4.7-0.9c1.6-0.3,3.1-0.5,4.7-0.7c1.5-0.3,3-0.5,4.5-0.7c1.5-0.2,2.9-0.4,4.2-0.6c2.7-0.4,5.1-0.9,7.1-1.3
							c-2.1,1.3-2.8,3,0.4,3.6c-1.7,0-4.3,0.5-7.1,1c-1.4,0.3-2.8,0.5-4.2,0.8c-1.4,0.3-2.7,0.7-3.9,1c-0.5,0,0.9-0.9,3.1-1.9
							c2.2-0.9,5.3-1.8,8-2.1c-1.5-1.2-4.9-0.2-7.9,0.8c-3,1.1-5.8,2.2-6.4,0.8c-13.8,2.6-9.2,5.3-20.9,7.5c0.3,1.3-2.9,1.8-3,3.1
							c3.9,0.5,14.6-5.3,22.2-6.5c-0.7,0.3-2.1,0.9-2.3,1.2c5.3-1.1,7.4-1.7,10.9-3.1l-0.5,0c6.2-2.5,4.2,0.2,8.1,0.1
							c1.4-0.5,6.8-0.8,5.8-1.7c0,0,1.8,0.1,3.5,0.2c1.8,0.1,3.5,0.2,3.5,0.2l-0.5-1.4c3.9-0.4,4.8,0.5,8.3-0.7l0.1-1.3
							c0,0-2.5,0.1-4.9,0.1c-1.2,0-2.5,0.1-3.4,0.1c-0.9,0-1.5,0.1-1.5,0.1c4.9-0.9,1.3-1.4,6.8-2.1c-6.1,1.9,4.4,0.3,5.1,1.6l4-0.8
							l-1,0.4c3.2,0.6,3.8-0.7,7.5-0.4c-4.4-0.8-7.3-1.6-12.8-0.4c4-0.9,12.1-2,14.2-1.9c4.3-0.4,7.3,0.6,11.3,1.1
							c-3.9,0-3.3,1-3.6,1.8c-0.3,0.8-1.6,1.3-9.2,0.7c0.3-0.3,1.5-0.2,2,0c-2-1.8-9.2,0.2-12.4,0.9c0.9,0.9-2.5,1.3,3.3,1.7
							c-1.9-0.5,4.8-2.4,10.4-1.4l-1,2c0,0,2,0.1,4,0.2c2,0.1,4,0.3,4,0.3l-0.8,0c2.9,1.6,8.5,0.3,13.8,1.9
							c4.1-0.5,18.9,3.2,12.9-0.2c4.6,2.4,9.2,1.6,14.5,2.9c0,0-1.6-0.7-3.2-1.3c-1.6-0.7-3.2-1.3-3.2-1.3c8.2,0.6,5.7,1,12.6,0.5
							c0.5,0.8,1.7,1.7,0.3,1.8c10.4,3.3,24.4,10.1,30.7,11.8c3.4,1.8,5,3.5,7,5.2c2,1.7,4.3,3.6,9.1,6.1c1,0.5,0.9-0.2,1.3-0.4
							c0.3-0.2,1.2,0,3.9,2.3c0.3,0.4-6.5-2.7,0.1,1.7c1.4,0.5,2.7,1.3,4,2.2c1.3,1,2.6,2.1,3.9,3.3c2.7,2.3,5.3,5,8.5,6.9
							c2.6,2.9,7.5,7.5,5.6,7.4c-4.1-4.5-10.9-9.9-12.3-10.3c1.2-0.1-2.9-3.3,1-0.9c-6.7-6.4-5.1-3.2-11.5-8.5
							c-0.8,0.1,2.7,3.6,4.3,4.3c-0.9,1.3-13.7-8.7-8.9-2.8c7,5.1,11.3,3.9,16,10.1c-3-1.2-6.2-4.8-10.3-5.7c0,0,0.3,0.3,0.7,0.7
							c0.4,0.4,1,1,1.5,1.5c1.1,1.1,2.2,2.2,2.2,2.2s1.1,0.4,2.2,0.9c1.1,0.4,2.1,0.9,2.1,0.9l-0.4,0c7.2,8.3,8.8,5.3,16.5,11.7
							c-3.1-5,3.1-1.1,0.5-4.8c4.9,4.7,8.1,8.5,6.8,9.7c-4.7-4.2-5.2-3.9-5.6-3.6c-0.4,0.3-0.7,0.7-5.3-2.8c0.9,1.8-3.6-0.2,0.9,4.8
							c6.1,4.6-0.5-2.6,5.1,2.5c0.2,0.4,0.4,0.9,0,0.8c3,2,2.4,3.3,5.9,5.8l-0.9-0.5c2.5,4.6,4.5,3.7,6.4,7.9
							c-0.1-2.2,2.6,1.8,4.9,3.6c-2.2-4-2.2-7.2-8.1-14.2c-1.5-0.2-1.5,0.7-4.3-1.8l3.9,4.4c-1-0.9-1.8-1.4-2.7-2.2l-3.3-4.6
							c5.2,4.9,3.9,1.8,6.7,3.4c3.9,5.4,3.7,4.1,6,7.6c-1.3,0.5,5.5,11.8,8.6,18.7c-0.6-1-1.4-2.3-1.8-3c-3.7-4.1,1,3.8,0.7,4.2
							l2.6,3.1c-0.5-0.6-1.3-1.3-0.6,0.3c2.9,4.5,4,3.5,6.7,8.2c-0.5,0.7-3.7-2.7-2.6,0.4c-0.1,0.7-0.1,2,0.4,3.9
							c0.4,1.9,1.2,4.5,3,7.5c0.5,0.3,1.4,1.9,2.3,3.9c-0.2-0.3-0.3-0.6-0.4-0.7l0.9,4.7c-2.7-3.2-2.3-7.7-5.3-10.8l-1.3,0.2
							c-1.2-2.8-3.7-6.3-5.1-7.6c1.9,4.2,2.7,4.9,5,9.6c-0.5,1-2.5-2.1-2.8-2.5l1,0.4c-0.7-3.1-2.2-4.9-3.7-7
							c-1.5-2.1-3.2-4.1-5.1-7.5c-0.5-1-0.1-0.5,0.2-0.4c-4.2-4.7-6.1-10.7-11-14.6l1.7,1.2c-0.7-0.7-1.6-1.7-2.6-2.7
							c-1-1-2.3-2.1-3.6-3.3c-2.5-2.4-5.6-5-8.7-7.5l-0.4,0.3c0.3,0.8-1.6-1.4-2.5-2.6h0c-1.6-1.2-3.1-2.4-4.6-3.5
							c-1.5-1.1-2.9-2.1-4.2-2.9c0.5,0.9,1.2,2,2.2,3c1.3,0.4,5.8,5.9,6.2,4.3c1.7,2.9,6,6.2,7.2,8.4c-1.1-2-0.3-1.6,0.8-0.7
							c1.1,0.9,2.6,2.4,3.2,2.5c0.1,0.9,1.2,2.1,2,3.3c0.8,1.1,1.4,2.1,0.8,2.2c0.3,0.9-0.6-2.3-2.4-3.3c-1.9-1.5-0.7,0.3,0.3,2
							c1,1.7,1.8,3.4-0.2,1.3c5,5.4,9.9,13.7,14.5,19.8l-1.7-3.9c1.7,2.9,5.4,10,5.2,10.8c-1.3-2.2-2.5-4.8-4.3-7.5
							c-1.1,0.4,3.5,6.8,3,7.5c0,0,0.4,0.5,1,1.1c0.5,0.7,1.3,1.7,2,2.6c1.5,1.9,2.9,3.8,2.9,3.8l-1.6-3.8c1.8,2,4.4,10.3,6.1,16.4
							c-1.4-1.4-2.2-3.7-3.1-6.3c-0.9-2.6-1.8-5.7-3.5-8.5c-2.6-4.1-0.4,3.4-2.6-0.5c0.1,1.3,1.4,3.9,2.3,5l0.3,1.8
							c-1.4-1.6-3.1-4.4-4.8-7.4c-1.7-3.1-3.7-6.2-5.7-8.5c0.4,0.4,0.8,0.7,1,0.8c-1.7-4.3-3.9-8.4-6.8-11.8
							c0.8,2.3,1.7,2.8,2.5,3.9c-0.2,0.3-2.7-3.1-3.9-4.2c1.8,3.7-0.4,1.2,0.8,3.5c-1.8-2-2.8-4-4.5-6.7c-0.5-1.7,1.5,0.7,2-0.1
							c-2.4-2.4-1.6-4.9-5.4-8.3c3.8,5.4-2.5-0.3-4.3-1.7l0.6,0.9c-2-1-3.1-2.3-3.4-4c2.1,1.7,3.4,4,3.7,2.8c-1.1-1.4-2.3-2.7-3.8-4
							l1.7,0.9c0,0-1.5-1.6-3-3.3c-1.4-1.7-3-3.2-3-3.2c-1.6-0.4-4-1.3-5.8-1.3c-0.9-2-3.5-3.5-5.1-4.7l0.9,0.4
							c-1.1-1.6-3.4-3.7-5.5-5.3c-2.1-1.7-4.1-2.8-4.6-2.8c-0.4-0.5,0.5-0.3,1.9,0.2c1.4,0.5,3.1,1.3,4.5,1.9
							c2.8,1.1,3.9,0.8-3.8-5.2c-5.9-4.6-5.1-1-9-2.8c0,0,0.3-0.1,0.1-0.4c-2.5-2-3.3-1.5-5.7-2.6c1.4,1.3,3.6,3,4.5,3.2
							c-0.7,0.1-2-0.8-3.5-2c-1.5-1.1-3.2-2.2-4.4-2.5c3.5,0.4-4.9-3.8-2.4-3.2c-2.5-2-5.4-3.7-8.1-4.7c-2.8-1-5.3-1.7-7-1.9
							c-3.1-3.5-6.9-2.9-13.1-6.2c1,0.4,2.9,0.9,4.2,1.6c4.2,0.3-6.5-3.3-0.4-2.1c-1.3-0.3-0.3,0.6,1,0.9c2.3,0.7,4.5,1.2,4.2,0.4
							c0,0-1.2-0.9-2.4-1.6c-1.3-0.8-2.5-1.6-2.5-1.6l2,0.5c0,0-1.9-1.2-3.8-2.3c-1-0.6-1.9-1.2-2.7-1.6c-0.8-0.4-1.2-0.7-1.2-0.7
							c-0.3,0.2,0.4,0.7,0.7,1c-9.5-4.1-21.2-6.2-30.1-7.7c-0.6,0.8-2.2,1-4.5,1.1c-2.3,0.1-5.2-0.3-8.3-0.3
							c-3.1-0.1-6.3-0.4-9.3-0.2c-2.9,0.1-5.5,0.3-7.3,0.9c1.9-1.1,3-2.8,1.8-3.5c1.6-0.1,5-1.4,8.7-1.1c0.6,0.6,5.1,1.6,2.1,2
							c10.2,0.4-1.3-1.6,1.8-2.7c-11.5-0.4-18.1,1.9-25.1,3.2l-0.2-0.4c0,0-1.3,0.3-2.6,0.6c-1.3,0.3-2.6,0.6-2.6,0.6
							c2.2-0.1,3.3,0.4,3.1,0.8c-0.2,0.5-1.6,0.8-4.4,0.9l0.7-0.2c-1.6-0.2-4.1,0.1-6.7,0.6c-2.6,0.6-5.4,1.3-7.9,1.7
							c0,0-0.8,0.4-1.5,0.9c-0.8,0.5-1.5,0.9-1.5,0.9c-4.8,1-5.6-1.1-7.5-1.8c-3.8,1-6.7,2.2-9.2,3.7c-2.5,1.4-4.7,2.8-7,4.4
							c-1.3,0.1-4.8,1-7.1,1.8c-2.4,0.7-3.8,1-1.2-0.8c-6.2,3.7-2.7,7.4-14.4,10.7l2.3-2.3c-5,2.9-10.7,6.9-15.5,10.8
							c-1.2,1-2.4,1.9-3.5,2.8c-1.1,0.9-2.1,1.8-3.1,2.6c-1.9,1.5-3.5,2.7-4.7,3.4c0.6-2.6-2.7-0.9-6.6,1.4c-3.8,2.4-8.2,5.5-10,5.2
							c0.9,0.1-2,3.5-2.1,4.2c-1,0.4-2.3,1.4-2.9,3.1c1.7-1.5,1.8-0.4,2.1,0.2c0.3,0.6,0.6,0.6,3.1-3c-0.8,2.3-1.7,4.8-3.2,7.6
							c-1.6,2.8-3.5,6-6.5,9.7l-1-0.9l4.9-5.7c-1.3,0,1.3-3,2-4.4c-2.5,2.5-3.7,3.6-4.4,4c-0.7,0.4-0.8,0-1-0.4
							c-0.2-0.7-0.4-1.4-4.9,4.4c-0.1,1.7,0.1,0.7-1.8,4c1-1.5,0.4-2.3-1.2,0.1l-0.7,2.8c-2.3,1.5-1.5-0.5-0.4-2.4
							c1.1-2,2.3-4,0.3-2.6c2.3-5.3,8.4-13.4,5.9-13c-6.5,7-2.9,8.5-9.2,16.1l-1.2,0.5c-1.5,3.2-0.8,4.3-1.2,6.2
							c-0.4-0.1-1.2,0.5-2.4,2.3c-1.5,5.8-2.9,9.4-3.6,14.9c1.3-3.3,2.3-5.5,3.3-7.3c1-1.7,1.9-2.9,2.8-4.2
							c1.8-2.5,3.7-4.9,7.2-11.2c-0.9,2.1-5.9,10.9-4.5,12.4l-1.1-0.8c-1.8,4.3-3.3,8.7-6.2,13.7c0,0,0.2-0.9,0.4-1.8
							c0.2-0.9,0.5-1.7,0.5-1.7c-1.3,3.6-3,6.4-4.5,9c-1.4,2.7-2.7,5.2-2.7,8.4c0.8-2,1.5-3.6,1.8-4.9c-1,3.9-2.6,8.5-4.2,12.5
							c0,0-0.1,2.3-0.2,4.6c0,1.1-0.1,2.3-0.1,3.1c0,0.8,0,1.4,0,1.4c-0.6-0.2-1.9,5.2-2.3,2.3c-0.6,1.5-1,2.8-1.2,4.1
							c-0.2,1.2-0.2,2.3-0.2,3.4c0.1,2.1,0.3,3.8,0.2,5.6c-1.1,3.1-1.1,1.7-1-0.6c0.2-2.3,0.5-5.5-0.3-6c-0.5,2.2-1.1,4.5-1.4,6.7
							c-0.3,2.2-0.5,4.4-0.7,6.5c-0.2,4.2,0,7.9,0.4,10.5c0.3-1.8,0.7-2.7,1-2.6c-0.5,0.2-0.5,3.9-0.6,5.9l0.8,1.4
							c-0.7,3.3-1.2,2.9-1.7,0c-0.3,3.3,1.5,7,0.3,10.4c-0.5-2.7-0.8-5.9-0.7-8.7c0.1-2.8,0.2-5.3-0.1-6.8c0.3,5.8-0.5,8.7-0.9,12
							c-0.3,1.7-0.6,3.4-0.6,5.7c0,2.3,0.2,5.1,0.8,8.7c-0.4,0.2-1.5-2.2-1.1,0.7c1.2,6.6,2,1.5,3.2,3.4c-1.2-4.9-0.8-7.3,0-10.3
							l0.8,1.3c-0.3,0.2-0.2,3.4-0.4,4.3l1.5,0.7c-1.6-0.2-2.2,5-1,8.8c0.4-4.1,0.7-3.1,2.2-4.4c1.1,2.6,1.1,4.2,0.9,5.8
							c-0.1,1.7-0.3,3.5,1.3,6.3c-0.7-0.3-2-5.6-1.5-0.9c0.8,3.8,1.9,3,2.8,5.4c-1.9-2.5-2.7-1.6-4.9-4.4c-1.5-6.8-0.5-2.8-2.3-9.4
							l-0.1,5.9c-1.3-5.8-2.2-4-2.8-4.4c0.5,10.4,3.3,7.3,4.4,13.7c1.6,2.9-1.2-6,0.8-1.4c1.2,6,1.1,1.2,3.5,7.6l-0.9-0.9
							c-0.2,2.2,1.3,4,2.2,6.2c1.3,2.3,3.3-4.1,6.9,5.8c-0.5-0.3-0.8-0.4-1-0.4c0,0-0.9-0.3-2.2-0.9c-1.3-0.6-3-1.4-4.7-2.2
							c-1.7-0.9-3.5-1.7-4.8-2.4c-1.3-0.7-2.1-1.1-2.1-1.1c3.3,11,8.1,23.4,14,35.3c-0.1,1.9-1.8,0.1-3.3-2.2
							c-1.5-2.3-3-4.9-3.2-4.3c0,0-0.6-1.4-1.2-2.9c-0.5-1.5-1.1-2.9-1.1-2.9c0.8,0,6,11.5,4.9,5.8c-5.4-9.4-6.3-14.3-11.4-23.4
							c-1.1,3.8,4.9,12.7,6.3,19.4c-1-2.7-2.3-4.7-3.4-6.8c1.1,3,2.4,6,3.6,9.2c1.5,3.1,2.8,6.4,4.5,9.6l1.3,1.2
							c-2.3-4.3-3.5-7.5-3.7-7.9c2.7,5.9,6.7,9.9,8.1,9.5l-0.5-1l1.6,1.8C124.7,341.5,125.4,342.8,126.1,344.1z M447.6,291.2
							c0.1,0.4,0.2,0.8,0.3,1C447.7,292,447.5,292.2,447.6,291.2z M94.7,224.1c-1.5,8.6-2.3,17.4-2.5,25.9c0.7-3.8,1.7-7.3,2.3-10
							c0.8-2.7,1.6-4.6,2.1-5.2c1.2-1.3,1.1,2.3,0.9,14.7l0.3,1.6c0.1-1.6,0.3-3.8,0.4-6.2s0.1-5.1,0.2-7.7c-0.4-2.1-1.4-6.7-2-10.8
							c-0.4-2.1-0.7-4-0.9-5.4c-0.2-1.4-0.4-2.3-0.5-2.3c-1.2,1.4-0.5,3.8-1.1,6.5L94.7,224.1z M100.7,218.9
							c1.2-4.7,0.3-3.7-0.2-4.6c-0.2,1.7-0.4,3.4-0.7,5C100.2,218.7,100.4,218.5,100.7,218.9z M99.9,214.5c-0.1,0.5-0.2,1-0.3,1.2
							L99.9,214.5z M105.8,307.8c-0.1-0.2-0.1-0.3-0.2-0.5c0.3,1.1,0.7,2.2,1,3.4C106.6,310.3,106.3,309.4,105.8,307.8z M104.3,298
							l-1.4-0.8c0.3,1,0.5,2.1,0.8,3.2C104,299.9,104.4,299.4,104.3,298z M102,266.7c-1.5-1.8-2.1-8.4-3.7-8.7
							c-0.4-0.4-0.5,1-0.5,2.6c0.1,1.8,0.2,3.6,0.3,5.6c0.2,0,0.5,0.4,0.8,1.1c0-2,0.3-3.3,1.3-2.6c-1.7,5.2,2,4.3,2.1,9.7
							C103.6,275.8,102.6,268.2,102,266.7z M387.6,110.2c0,0.2,0.2,0.8,0.5,1.6l-3.5-1.8c-1.3-1.1-2.4-2.3-3.5-3.4
							c-1.1-1.1-2.2-2.2-3.3-3.2c-2.2-2.1-4.6-3.7-7.8-4.6c-2.1-2-2.9-3.7-3.8-5.1c1.2,0.8,2.3,1.5,3.2,2.2
							c8.2,3.4,9.5,5.6,10.6,7.3c0.5,0.9,0.9,1.7,2,2.8C382.9,107.2,384.5,108.5,387.6,110.2z M318.1,72.8c0.7,0.1,1-0.1,1-0.1
							c-15.8-0.9-28.3-1.1-36.6-1.6c0.8,0.6,3,1.2,5.4,1.8c2.4,0.6,5.1,1.1,6.8,1.6c0,0-0.8,0.2-1.6,0.4c-0.8,0.3-1.6,0.5-1.6,0.5
							l-1.8-1.2l-5.4,0.8c1.4,1,5.7,1.1,8.4,2c0.2-0.2,9.5-0.7,12.2-0.9c0,0-1.8-0.6-3.6-1.1c-1.8-0.5-3.6-0.9-3.6-0.9
							c1.9,0.5,11.6,1.8,15.5,2.4c0.1-0.3-1.4-1.1-3.1-1.6c-1.7-0.5-3.6-0.7-4.2-0.1c-0.6-1.1,7.1,0.3,2.4-1.6
							c3-0.1,6.7,0.9,10.2,1.8c3.5,1,6.7,2.3,8.7,3.1l0.2,1.8c4.3,2.1,3.6-0.8,8.7,1.8c-6.6-1.9,0.5,2-4.7,0.4
							c1.4,1.2-0.5,1.6,4.6,3.3c5-0.3,4.8,3.2,9.4,3.3c2.3,1.8-3.3-0.1,1.7,2.5c3.2,0.8,4.7,1,5.6,0.9c0.9-0.1,1.2-0.7,1.7-1.3
							c-2.6-1.6-4.4-1.8-6-2c-1.6-0.2-3.1-0.3-5.3-1.5c0,0,2.5,0.4,5,0.8c1.3,0.2,2.5,0.4,3.5,0.6c1,0.2,1.6,0.3,1.6,0.3
							c-1.5-1.2-2.7-1.7-3.8-2.1c1.9,0.7,3.6,1,5.1,1.2c0.9,0.1,1.7,0.2,2.4,0.3c-1.3-0.7-2.5-1.3-3.6-1.9c-1.2-0.6-2.2-1.1-3.2-1.5
							c-1.9-0.9-3.2-1.7-3.4-2.2l1-0.4c-1.6-1.5-4.9-2.2-6.5-2.2c-4.8-1.9-10-2.3-10.8-3.7l2.1,0c-3-0.9-4.7-1.3-6.6-1.8
							C324,74.4,322,73.6,318.1,72.8z M131.5,136c2.3-0.7,4.5-1.5,7.7-3.7c3.1-2.2,7-6,13.2-12.3l-0.9,1.1c1.9-1.2,3.5-2.7,5.1-4.2
							c1.6-1.5,3.1-3.2,4.6-4.9c3.2-3.3,6.6-6.8,11.6-9c-3.7,3.9-3.5,3.6-6.5,9.1l3.9-4c-0.3,2.1,3.7-1.7,7-4l-1.9,3.5
							c-1.1,0.5-3,1.6-4.5,2.6c-1.5,1.1-2.6,2.1-2.4,2.2c0.5-0.5-1.5,0.3-4.1,1.8c-2.5,1.5-5.6,3.7-7.4,5.6c1.2,0.5,9.2-7.1,6.8-2.3
							c2.7-3.5,4-2.8,7.3-5.9c-2.9,3.3,0.2,2-1.8,4.6c0,0,1.4-1.2,2.7-2.4c1.3-1.2,2.8-2.4,2.8-2.4c0.3,0.1-7.8,7.2-2.2,4.7
							c1.8-2.4,8.7-6.1,8-7.3l0.4,0.2c4.7-2.7,1-2.9,7-5.8c-0.3-0.6-1.6-0.3-3.6,1.1c-1.5,1.4-1.4,2.2-4.7,4.7
							c-1.1,0.1,0-0.6,0.9-1.3c0.9-0.7,1.7-1.3,0-1.3c-1.7,0.1-8.6,7-7.3,3.6l4.7-3c-0.7-1.2,2.7-3.3,2.1-4.2
							c2.6-2.3,6.1-2.8,8.6-5.4c0.8-1.5-2.2-1.6,3.3-3.8c1.3-0.1,2.9-0.6,4.8-1.3c1.8-0.7,3.9-1.6,6-2.4c4.1-1.8,8.3-3.7,10.6-4.7
							c0,0,0.9-0.6,1.9-1.2c1-0.5,1.9-1.1,1.9-1.1c-0.7-0.8-7.8,3.1-5.6,1.1c0,0,1.6-0.7,3.2-1.4c1.6-0.6,3.2-1.3,3.2-1.3l-0.3,0.7
							c2.2-0.6,4.2-1.9,6.1-2.8c-1.8,1.5-6.6,2.8-5.2,3.8c3.1-0.7,3.7-0.5,6.5-1.6c-0.6,0.3-1.1,0.5-0.9,0.7
							c6.4-1.2,5.6-3.2,7.1-4.1c3-1.6,1.3-1.7-1.1-1.4c-2.4,0.3-5.5,0.8-5.3,0.1c0,0,1.2-0.4,2.9-0.9c0.9-0.3,1.9-0.6,3-1
							c1.1-0.3,2.3-0.6,3.5-0.9c4.7-1.4,9.5-2.3,9.5-2.3c-1.6,0.7-3.1,1.5-2.4,1.9c4.8-0.2,0.3,1,6.8-0.2c-0.4-0.9,1.7-1.5,4.4-2
							c1.4-0.3,2.9-0.6,4.3-0.8c1.5-0.3,2.9-0.5,4.1-0.9c2.3,0.6,2.7,0.7-2.1,1.1c0.7,1.2,7.1,0.1,9.4,0.2c1.3-0.3,3.6-0.6,5-0.9
							c-1.9-0.5-1.2-1.4,3.1-1.9l0.2-0.3c-3.5-0.1-7.9-0.5-12.1-0.4c-4.1,0.1-7.9,0.3-10,1.3l1.2-0.8c-4.1,0-8.4,1-12.1,2.2
							c-3.7,1-6.9,2-8.9,1.3c0.1-1-1.6,0.2-1.8-1.1c0,0-1.4,0.6-2.8,1.2c-1.4,0.7-2.8,1.3-2.8,1.3l1-0.9c0,0-2.4,0.8-4.9,1.5
							c-2.4,0.7-4.8,1.7-4.8,1.7l0.2-0.3c-2.1,1.3-3.9,2.5-5.6,3.6c-1.6,1.2-3,2.2-4.3,3.1c0.2,0.5,0.6,0.6-0.8,1.6
							c-1.4,0.8-2.5,1.3-3.5,1.7v0l0,0c-2.3,0.8-4.1,0.8-7,1.7c0,0,2.1-1,4.2-2c1.1-0.5,2.1-1,2.9-1.4c0.8-0.4,1.3-0.6,1.3-0.6
							c0.3-1.2-0.8-1.9-5.3-0.6c1.7-0.8,2.1-1.8-0.1-1c-0.1,0.3-5.4,3.1-3,2.9c-4,2.1-9.4,4.3-15.2,7.3c-2.9,1.4-5.8,3.3-8.7,5.1
							c-2.8,2-5.5,4.1-8,6.5c3.6-3.3,1.9-2.4,0.2-1.6c-1.6,0.9-3.1,1.8,1.2-1.6c-3.6,1.6-4.6,3-5.6,4.4c-1,1.5-1.9,3-4.9,5.5
							c-0.9,0,3.2-2.7,4-4.6c-5.3,3.8-9,7.9-12.4,12.2c-1.8,2.1-3.4,4.2-5.1,6.4c-1.8,2.1-3.6,4.3-5.7,6.6l-1.3-0.4
							C134.5,131.5,133,133.7,131.5,136z M118.9,157.1c-1,2.1-2.2,4.3-3.2,6.5c0.1-0.2,0.2-0.4,0.4-0.6l-2.4,6.8
							c2.4-3.7,4.9-5.6,2.7,0.1c-0.2-0.7-1.6,0.6-0.9-1.4c-1.3,1.6-3,4.4-4,6.7c-1,2.2-1.5,3.8-0.2,3.1c1.6-7.8,2.8-0.7,4.2-6.8
							c-0.3,3.5-2.1,6.2-2.8,9.2c0.3-3.3-2.4-0.2-4.6,4.2c-0.6,2-2.6,7.4-3.3,10.9c1.5-0.8,1.1,2.2,3.2-3.1c-0.2,1-0.5,2.3-0.9,3.8
							c-0.4,1.5-0.9,3.1-1.7,4.7c0.2-1.4,0.8-3.9,0.3-3.8c-1.6,1.9-2.3,4.6-3.2,6c-0.3,1.2-0.5,2.4-0.7,3.6c0.2-0.3,0.4-0.6,0.6-0.8
							l0.1,4.1c0.7-5.3,1.1-2.3,1.7-2.1c-1.3-0.4-0.9,3.3-1.3,5l2.2-3.5c0.1,1-0.5,2.6-0.9,3.8c-0.4,1.3-0.6,2.2,0.1,1.8
							c1-4,1.9-6.7,2.4-9.4c0.7-2.7,1.3-5.3,2.1-8.9l-1.9,2.6c0.7-4.2,1.8-5.3,2.7-6.4c1-1.2,1.9-2.5,3.7-6.8c0.4-4.1,5.5-13,3.8-14
							c0,1.3,4.2-4.5,5-7.7c0.1-2,1.4-5.4,2.6-8c1.2-2.5,2-4.3,0.7-3.1c-1.7,2.5-2.8,6.4-5,7.9l2.6-5.2l-2.8,2.8
							C121.5,157.3,120.6,157,118.9,157.1z M86.7,286.5c0,0.1,0,0.2,0,0.2L86.7,286.5L86.7,286.5z"/>
						<path fill="#FFFFFF" d="M442.7,176.3c1.2,1.3,2.6,5.4,3.2,4.2c-0.5,0.3-1.2-1.5-1.8-3C443.4,176.1,442.8,175,442.7,176.3z"/>
						<path fill="#FFFFFF" d="M443.7,181.4c0.3,0.2,0.6-0.2,1.4,1.6l-2.2-4.7L443.7,181.4z"/>
						<path fill="#FFFFFF" d="M438.8,188.8c1.6,2.2,2.5,3.6,3.8,7.4c-2,2.2-2.8-6.1-5.7-6.9c1.1,3.5,2.3,5.6,3.6,7.5
							c1.2,2,2.3,3.8,3.3,6.7c0.1-1.6-0.4-5.4-1.5-8.8C441.1,191.4,439.8,188.5,438.8,188.8z"/>
						<path fill="#FFFFFF" d="M434.6,186.9c0,0,0.5,0.9,1,1.8c0.5,0.9,1,1.8,1,1.8l0-0.4c0,0-0.5-0.9-1-1.8c-0.5-0.9-1-1.8-1-1.8
							V186.9z"/>
						<path fill="#FFFFFF" d="M398.4,99.6c0.2-0.9-2.5-2-3.9-2.8C395.4,97.6,396.7,98.9,398.4,99.6z"/>
						<path fill="#FFFFFF" d="M414.4,384.1c0,0,1.5-1.6,3.7-4c2.2-2.5,4.9-5.8,7.6-9.2c2.6-3.5,5.3-6.9,7-9.7c1.8-2.7,3-4.5,3-4.5
							C430.2,365,424.9,372.5,414.4,384.1z"/>
						<path fill="#FFFFFF" d="M292.8,61.5c4.6,0,7.9,0,11.3-0.1c3.3,0.1,6.8,0.2,11.4,1c-2.9-1.1-5.5-1.5-7.7-1.8
							c-2.3-0.3-4.3-0.3-6.2-0.2c-3.9,0.1-7.4,0.3-12.5-0.9L292.8,61.5z"/>
						<path fill="#FFFFFF" d="M296.7,55.4c1.4,1.6-7.3,1.1-6.1,2.4c6.3,0.1,3-1.3,8.7-0.4L296.7,55.4z"/>
						<polygon fill="#FFFFFF" points="330,88.5 327.4,88.5 329.4,88.8 						"/>
						<polygon fill="#FFFFFF" points="254.2,56.8 255.2,56.3 250.5,56.4 						"/>
						<path fill="#FFFFFF" d="M256.2,55.8l-1,0.4L256.2,55.8z"/>
						<polygon fill="#FFFFFF" points="326,90.6 329.3,92.1 331.2,92 						"/>
						<path fill="#FFFFFF" d="M295.9,75.8l3.4-0.1C298.6,75.7,294.1,74.5,295.9,75.8z"/>
						<polygon fill="#FFFFFF" points="226,61.3 221.7,63.1 222.2,63.1 226.4,61.3 						"/>
						<path fill="#FFFFFF" d="M269.5,78.9c2.3,1.1-6.6,0.5-1.8,1.4C271.8,80,270.1,79.4,269.5,78.9z"/>
						<path fill="#FFFFFF" d="M219.4,79.8c-0.5,0.2-1.1,0.4-1.6,0.7C218.4,80.2,218.9,80,219.4,79.8z"/>
						<path fill="#FFFFFF" d="M219.4,79.8c1.7-0.6,3.6-0.8,4.7-1.4C221.7,78.5,221,79,219.4,79.8z"/>
						<path fill="#FFFFFF" d="M200,87.8l1.5-0.6c-1.3,1.2-0.6,0.8,0.6-0.2c1.6-0.8,1.3-1.1,1.4-1.4c0.3-0.3,0.5-0.6,0.8-0.9
							c-0.4,0.4-0.8,0.7-1.2,1C200.7,86.8,199.2,87.6,200,87.8z"/>
						<path fill="#FFFFFF" d="M123.6,122.4c4.8-4.9,6.1-6,6.5-5.2c4.6-4.5,2.8-4.8,5.2-7.9c-2.5,2.7-4,4.3-5.7,6
							C128,117.1,126.3,119,123.6,122.4z"/>
						<path fill="#FFFFFF" d="M135.3,109.4c0.6-0.6,1.1-1.1,1.8-1.8C136.3,108.3,135.8,108.8,135.3,109.4z"/>
						<path fill="#FFFFFF" d="M225.7,88.4c0,0-0.8,0.6-1.5,1.2c-0.7,0.6-1.5,1.2-1.5,1.2l1.2-0.6c0,0,0.4-0.5,0.9-0.9
							C225.3,88.9,225.7,88.4,225.7,88.4z"/>
						<path fill="#FFFFFF" d="M116.9,130.1c0.8-1,2.1-2.6,2.9-3.2C119.3,126.1,116.1,131.1,116.9,130.1z"/>
						<path fill="#FFFFFF" d="M146.8,122.6c0.8-0.1,3.4-3.1,4.8-4C149.8,120.1,147.2,120.2,146.8,122.6z"/>
						<path fill="#FFFFFF" d="M109.2,148.3c0.7-1,2.3-2.3,2.5-1.2C112.2,145.3,112.1,142.4,109.2,148.3z"/>
						<path fill="#FFFFFF" d="M139,130.9l0.8-0.5c0,0,0.6-0.9,1.2-1.8c0.6-0.9,1.2-1.8,1.2-1.8s-0.8,1-1.6,2
							C139.8,129.9,139,130.9,139,130.9z"/>
						<path fill="#FFFFFF" d="M158.8,129.4c2.5-3.9-7,3.1-2-3c-7.9,6.3,1.6,0.5-3.7,5.7C156.3,129.2,158.8,128.8,158.8,129.4z"/>
						<path fill="#FFFFFF" d="M153.1,132.1c-0.5,0.4-1,0.9-1.5,1.4C152.2,133,152.6,132.5,153.1,132.1z"/>
						<path fill="#FFFFFF" d="M112.5,182.2c0.1-0.7,0.2-1.2,0.2-1.6C112.6,181.2,112.5,181.7,112.5,182.2z"/>
						<path fill="#FFFFFF" d="M138.8,150.7c0,0,0.7-1.6,1.3-3.2c0.7-1.6,1.4-3.2,1.4-3.2c-2.1,4.1-8.4,13.5-6.6,13.8
							c2.2-2.9,4.4-6.6,4.9-8.5L138.8,150.7z"/>
						<path fill="#FFFFFF" d="M80.5,216.2l0-3.5l-0.9,4.2C80,215.8,80.8,218.1,80.5,216.2z"/>
						<path fill="#FFFFFF" d="M79.4,217.7l0.2-0.8C79.5,217.1,79.4,217.4,79.4,217.7z"/>
						<path fill="#FFFFFF" d="M117.3,169.8c1.1-2,1.9-3.6,2.6-5.6C119.2,164.9,116.4,169.8,117.3,169.8z"/>
						<path fill="#FFFFFF" d="M80.4,240.1c0,0-0.1-1.4,0-2.8c0-1.4,0.1-2.8,0.1-2.8s-0.1,1.5-0.2,3c-0.1,0.8-0.1,1.5-0.1,2.1
							s0,0.9,0,0.9L80.4,240.1z"/>
						<path fill="#FFFFFF" d="M78.2,266.2l-0.2,1c0,0,0.2,1.2,0.5,2.3c0.3,1.1,0.6,2.3,0.6,2.3l0.2-1c0,0-0.3-1.1-0.6-2.3
							C78.4,267.3,78.2,266.2,78.2,266.2z"/>
						<path fill="#FFFFFF" d="M110,234.6c0.3-3.2-0.7-5.8-1.1-5c0,0,0,0.4-0.1,1c-0.1,0.6-0.2,1.4-0.2,2.1c-0.1,1.6-0.2,3.1-0.2,3.1
							c1.4-1.5,0-1.7,0.8-5.3c0,0,0.2,1,0.4,2.1C109.7,233.6,110,234.6,110,234.6z"/>
						<path fill="#FFFFFF" d="M181.8,420.4c-1.8-0.1-8.6-4.5-8.4-5.4c1.1,0.3,5,2.1,2.9,0.3c0,0-1.6-0.3-3.2-0.7
							c-1.6-0.4-3.2-0.8-3.2-0.8c-6.3-5.6,6.8,1.3,10.8,2.4c-3.6-2.2-6.1-3.3-8.6-4.6c-2.5-1.3-5.2-2.5-8.8-5.2
							c2.1,1.7,3.1,3.1,4.1,4.3c-0.3,0.7-2.1-0.2-4.4-1.9c-2.3-1.6-5.2-3.8-7.6-5.7c2.7,2.9,0.6,1.9-2,0.7c-0.4-0.3-0.8-0.4-1-0.5
							c-0.3-0.2-0.6-0.3-0.9-0.4l0.6,0.5c-0.1,0.1-0.1,0.3,0.1,0.9c4.3,2.9,6.8,6.2,9.5,8.1c-0.6-2,1.7-0.3,4.8,1.8
							c3.1,2.1,6.9,4.9,9,5.5l4.3,2.2l1.6,0.9c0.2,0.4-0.4,0.5-3-0.5c2.2,0.8,9,4.4,8.7,3.4c0,0,1,0.5,2.4,1.2
							c1.5,0.7,3.5,1.6,5.5,2.5c2,0.9,4,1.8,5.5,2.4c1.5,0.6,2.5,1,2.5,1c0.5,0.3,0.9,0.6,1.2,0.9c0.6,0.1,0.8,0,0.7-0.1
							c0,0,1.1,0.4,3,1.2c2,0.7,4.8,1.6,8.2,2.8c6.8,2,16,4.6,25.4,6.1c4.7,0.9,9.4,1.3,13.8,1.9c4.4,0.3,8.6,0.7,12.1,0.8
							c3.6,0.1,6.5,0.1,8.6,0.2c2.1-0.1,3.3-0.1,3.3-0.1c-3.7,0-7-0.7-10.8-1.1c5.8-1.4-6.3-0.5-4.5-2c2.6-0.3,6.3-0.2,8.5,0.3
							c0.8-0.7-2.3-1.5-1.9-2.4c-4.6-0.5-7.3-0.1-10.1,0.4c-2.7,0.5-5.5,1.1-10,0.2c0.5-0.9,3.4-1.3-2.6-1.9h1.5
							c-4.8,0-6.6-1.1-7.9-1.6c-1.3-0.6-2.3-0.9-5.5-0.2l0.4-1.3c-2.2,0-5.4-0.5-8.6-1.1c-3.2-0.7-6.4-1.6-8.7-2.1l0.3-0.2
							c-13.2-2.8-7.3-1.8-21.5-6.9c0,0,0.4,0.1,1.1,0.2c0.6,0.1,1.5,0.3,2.4,0.4c1.8,0.3,3.5,0.6,3.5,0.6c-4.6-2.4-6.3-1.4-9.6-3.1
							c0.3-0.1,0-1.3,3.2-0.1c0,0-1.1-0.3-2.7-0.8c-1.6-0.5-3.8-1.1-6-1.9c-2.2-0.8-4.3-1.6-5.9-2.2c-1.6-0.6-2.7-1.1-2.7-1.1
							C176.9,417,181.4,419.6,181.8,420.4z"/>
						<path fill="#FFFFFF" d="M163.2,406.4c-0.8-0.6-1.6-1.3-2.7-2C161.4,405.2,162.3,405.9,163.2,406.4z"/>
						<path fill="#FFFFFF" d="M284.2,446.1l-5.3,0.2C280.6,446.3,282.3,446.2,284.2,446.1z"/>
						<path fill="#FFFFFF" d="M141,392c1.9,2.7-2.4-1-3.2-1c0,0,2.1,2,4.2,4c2.2,1.9,4.4,3.8,4.4,3.8c0.3-0.4,1.5-0.1,1.7-0.6
							c0,0-1.8-1.5-3.6-3c-0.9-0.8-1.8-1.5-2.4-2.2C141.4,392.4,141,392,141,392z"/>
						<path fill="#FFFFFF" d="M148.3,401.7c0.5,0,1.7,0.5,2.9,1.1c0,0-1.3-0.9-2.5-2c-1.2-1-2.4-2.1-2.4-2.1
							C146.2,399.1,146.5,399.8,148.3,401.7z"/>
						<path fill="#FFFFFF" d="M164.8,380.2l1.4,1.1l2.4,1.4c0,0-0.9-0.6-1.9-1.2C165.7,380.9,164.8,380.2,164.8,380.2z"/>
						<path fill="#FFFFFF" d="M186.3,398.3c-1.5-1.7-5.2-3.5-6.5-4C183.8,396.8,181.9,396,186.3,398.3z"/>
						<polygon fill="#FFFFFF" points="185.8,388.3 189.7,390.3 189.4,389.9 						"/>
						<path fill="#FFFFFF" d="M321.9,435.4c0.8-0.2,1.6-0.4,2.4-0.7C323.2,435,322.5,435.2,321.9,435.4z"/>
						<path fill="#FFFFFF" d="M279.3,442.3c12.1,1.2-7.9,1.4-4.1,3.2l6.6-0.8l-0.6,0.5c0,0,2-0.1,4.1-0.2c2-0.2,4-0.4,4-0.4
							c-1.7-0.7-3-0.7-2.7-1.6c10.7-0.5,3.5,1,11.5,1.2c0,0,3-0.4,6-0.8c3-0.5,6-1.1,6-1.1l-0.9,0.4c1-0.2,1.4-0.4,1.8-0.6
							c0,0,10.1-1.9,19.8-5c2.5-0.7,4.9-1.6,7.1-2.4c2.3-0.8,4.4-1.5,6.1-2.3c3.5-1.4,5.9-2.4,5.9-2.4c6.6-3.5-4.4,0,0.1-3.3
							c-7.8,3.3-20.1,6.3-20.3,8.1c0.2-0.3,0.6-0.9-1.1-0.7l-4.3,2.8l4.7-0.8c-1.1,0.7-2.9,1.5-5,2.2c-2.2,0.7-4.7,1.3-7.1,1.9
							c-4.9,1.1-9.7,1.5-11.2,1.3c8.9-2.2,4.1-2.8,16.6-4.7c-0.7-0.3-3.1-0.6-0.4-1.5C307.7,439.4,294.5,440.4,279.3,442.3z"/>
						<path fill="#FFFFFF" d="M411.8,384.8l0,0.2C412,384.7,412,384.6,411.8,384.8z"/>
						<path fill="#FFFFFF" d="M408.1,388c0,0-1,1.6-2,3.1c-1,1.6-2.1,3.1-2.1,3.1s2.1-1.8,4.1-3.8c2-2,4-3.9,4-3.9l-0.3-1.5
							c-0.5,0.9-2.9,4.1-4.3,4.8L408.1,388z"/>
						<path fill="#FFFFFF" d="M398.3,400.5c4.2-4.1,2.9-5.1,0.1-3.5c3.6-4,3.2-0.6,4.9-4.2c-0.8-0.7-5.3,4.1-6.3,5.1L398.3,400.5z"
							/>
						<polygon fill="#FFFFFF" points="361.7,423.1 362.9,421.8 359.2,423.5 						"/>
						<path fill="#FFFFFF" d="M362.9,421.8l3.6-1.7c-0.5-0.3-0.9-0.5-1.6-0.5L362.9,421.8z"/>
						<path fill="#FFFFFF" d="M375.9,415.4c1.5-0.8,3.1-1.8,5.1-3c0,0-1.3,0.7-2.5,1.5C377.1,414.6,375.9,415.4,375.9,415.4z"/>
						<path fill="#FFFFFF" d="M371.7,417.3l0.2,0.1l3.9-2.1C374.4,416,373,416.7,371.7,417.3z"/>
						<path fill="#FFFFFF" d="M366.5,420.2c1.1,0.6,2.3,1.2,7.2-1.9l-1.8-0.8c0,0-1.3,0.7-2.7,1.4
							C367.9,419.5,366.5,420.2,366.5,420.2z"/>
						<polygon fill="#FFFFFF" points="213.2,404.1 217,405 216.7,404.8 212.8,403.9 						"/>
						<path fill="#FFFFFF" d="M234.6,412.1c1,0,1.8,0,2.5,0C236,411.9,235.2,411.9,234.6,412.1z"/>
						<path fill="#FFFFFF" d="M252.3,408.4c4.3,1.6-6.4,0.6,1.9,2.1c0.6,1-3.5,1.9-7.3,0.6c0.5-0.8,3.9,0.1,1.7-1.2
							c-2.8,0.6-3.6-0.3-3,1.2c-4.6,0.1-5.2,0.8-8.4,1c5.4,0.9,16.6,4,23.7,2.8c3.9-1.3,1.8-3.8,2-6.1c-0.3-0.3-2.8-0.6-5.2-0.9
							C255,407.6,252.5,407.6,252.3,408.4z"/>
						<path fill="#FFFFFF" d="M245.8,404.9c-2-0.5-2.6-0.5-3.9-0.6C242,405.2,244.1,404.6,245.8,404.9z"/>
						<path fill="#FFFFFF" d="M294.4,424.5c0.4-0.4,4.4-1.3,3.5-1.8c0,0-1.5,0.3-3,0.6c-1.5,0.3-3.1,0.5-3.1,0.5
							C293.2,423.8,293.8,424.1,294.4,424.5z"/>
						<path fill="#FFFFFF" d="M289.1,424.2l2.7-0.4C291.1,423.8,290.2,423.9,289.1,424.2z"/>
						<path fill="#FFFFFF" d="M294.7,424.6c-0.1-0.1-0.2-0.1-0.3-0.2C294.3,424.6,294.3,424.6,294.7,424.6z"/>
						<path fill="#FFFFFF" d="M390,406.6c0.3,0.6,2.6-1.5,3.7-2.6C392.7,404.7,391.1,405.6,390,406.6z"/>
						<path fill="#FFFFFF" d="M456.2,315.1l1.3-2.4C456.9,313.5,456.6,313.9,456.2,315.1z"/>
						<path fill="#FFFFFF" d="M448.4,272.8c-0.1-0.1-0.2-0.3-0.3-0.5C448.2,272.5,448.3,272.7,448.4,272.8z"/>
						<path fill="#FFFFFF" d="M448.2,272.2c-0.3-1.7,1.2-6.7,0.4-8.6l0.2,0.3l-0.2-3.4c-0.1,1.6-0.2,4.1-0.4,6.4
							C448,269.1,447.9,271.3,448.2,272.2z"/>
					</g>
				</g>
			</g>
		</g>
	</g>
</g>
<g>
	<g id="m4eySa_1_">
		<g>
			<g>
				<g>
					<path fill="#CCCC66" d="M426.3,214.3c3.1,0.4,6.2,0.9,9.3,1.2c7.6,0.8,15.3,0.9,23,0.5c0,0.1,0,0.2,0,0.2
						c-2.1,2.1-4.2,4.2-6.6,6c-6.9,5.1-14.7,8.1-23,9.7c-4.8,0.9-9.5,1.4-14.4,1.5c-0.9,0-1.2,0.3-1.4,1.2c-1.6,5.8-3.5,11.4-5.8,17
						c-0.1,0.3-0.3,0.6-0.5,1c-0.6,0.1-1.2,0.5-1.7,0.8c-68.5,34.3-137,68.5-205.5,102.8c-0.6,0.3-1.2,0.7-1.8,1
						c-12.8-1.7-25.4-4.6-37.7-8.8c-0.2-0.1-0.4-0.2-0.7-0.3c-0.3-0.6,0.1-0.8,0.4-1.1c0.4-0.3,0.9-0.5,1.4-0.8
						c87.4-43.7,174.9-87.4,262.3-131.2C424.5,214.6,425.3,214.1,426.3,214.3z"/>
					<path fill="#CCCC66" d="M343.2,92.7c1,0.6,1,1.5,0.5,2.5c-0.7,1.4-1.8,2.6-3,3.6c-2,1.8-4.2,3.4-6.5,4.9
						c0.6,0.3,1.1-0.1,1.5-0.2c5.5-1.8,11.1-3.5,16.9-4.1c2.2-0.2,4.3-0.4,6.5,0.1c2.8,0.6,3.4,2.4,1.6,4.5c-2,2.4-4.7,4-7.5,5.3
						c-6.8,3.4-14,5.5-21.4,7.3c-0.5,0.1-0.9,0.2-1.4,0.4c2.4,0.4,4.8,0.2,7.1,0.8c-0.7,0.5-1.5,0.9-2.3,1.3
						c-18.7,9.4-37.5,18.7-56.2,28.1c-0.7,0.4-1.4,1-2.3,0.4c1.8-3.9,4-7.5,6.2-11.2c7.8-13,17.2-24.7,28.3-35
						c1.9-1.8,3.9-3.6,6.2-4.9c0.5-0.3,1.1-0.7,1.7-0.3c0.6,0.5,0.4,1.2,0.2,1.8c-0.4,1.8-1.2,3.4-1.9,5c-0.3,0.6-0.5,1.1-0.9,1.9
						c0.8-0.3,1.3-0.7,1.7-1.1c5.4-4.3,11.3-7.8,17.9-9.9c1-0.3,2.2-0.4,3.1-1.1C340.6,92.7,341.9,92.7,343.2,92.7z"/>
					<path fill="#CCCC66" d="M228.5,359.1c-1.2,0-2.4,0-3.6,0c-0.1-0.2,0-0.3,0.1-0.4c1.1-0.3,2.3-0.3,3.4,0
						C228.6,358.8,228.6,359,228.5,359.1z"/>
					<path fill="#CCCC66" d="M228.5,359.1c0-0.1,0-0.1,0-0.2c0.8-0.6,1.7-0.4,2.5-0.2c0.1,0.1,0.2,0.2,0.1,0.4
						C230.3,359.1,229.4,359.1,228.5,359.1z"/>
					<path fill="#CCCC66" d="M224.9,358.9c0,0.1,0,0.1,0,0.2c-0.8,0-1.6,0-2.4,0c-0.1-0.2,0-0.3,0.1-0.4
						C223.4,358.5,224.2,358.3,224.9,358.9z"/>
					<path fill="#CCCC66" d="M231.2,359.1c0-0.1,0-0.1,0-0.2c0.7-0.6,1.4-0.6,2.2,0c0,0.1,0,0.1,0,0.2
						C232.6,359.1,231.9,359.1,231.2,359.1z"/>
					<path fill="#CCCC66" d="M222.5,358.9c0,0.1,0,0.1,0,0.2c-0.6,0-1.3,0-1.9,0c0-0.1,0-0.1,0-0.2
						C221.2,358.4,221.9,358.4,222.5,358.9z"/>
					<path fill="#CCCC66" d="M409,180.5c0.8,3.2,1.6,6.4,2.1,9.7c0.1,0.6,0.6,1.3,1.5,1.5c4.2,0.9,8.4,1.5,12.7,2
						c0.2,0,0.5,0.1,0.7,0.2c0.2,0.6-0.3,0.8-0.6,1c-0.4,0.2-0.8,0.4-1.2,0.6C331,242,237.8,288.6,144.6,335.2
						c-1.8,0.9-3.5,1.8-5.3,2.6c-0.6,0.3-1.1,0.7-1.3,1.3c-7.2-3.5-14.1-7.5-20.7-12c-4.3-2.9-8.4-5.9-12.3-9.3
						c-0.4-0.8,0.2-1.1,0.8-1.3c2.1-1.1,4.2-2.1,6.2-3.1c3.4-1.7,6.8-3.4,10.2-5.1c0.4-0.2,0.8-0.5,1.2-0.4c3.5,0.5,7,1.2,10.6,1.5
						c5.8,0.5,11.5,0.6,17.3,0.2c9-0.6,17.6-2.4,26.1-5.4c8.3-2.9,16-7,23.3-12c4.9-3.4,9.6-7.2,13.9-11.4c0.4-0.4,0.9-0.8,1.6-1.5
						c-1.1-0.1-2-0.1-2.8-0.1c-0.4-0.2-1.1,0.2-1.2-0.3c-0.1-0.6,0.5-0.8,1-1.1c0.8-0.4,1.6-0.8,2.4-1.2
						c56.1-28.1,112.3-56.1,168.4-84.2c7.7-3.9,15.5-7.7,23.2-11.6C407.7,180.5,408.3,180,409,180.5z"/>
					<path fill="#CCCC66" d="M222.5,358.9c-0.6,0-1.3,0-1.9,0c-3.4-0.1-6.8-0.2-10.1-0.6c-0.5-0.2-1,0-1.5-0.2c-0.5,0-0.9,0-1.4-0.1
						c-0.5-0.2-1,0.1-1.5-0.2c-0.4,0-0.8,0-1.2-0.1c-0.4-0.2-0.9,0-1.3-0.2c-1.9,0-3.8-0.3-5.8-0.6c0.1-0.8,0.8-0.8,1.3-1.1
						c21.1-10.6,42.3-21.1,63.4-31.7c47.6-23.8,95.3-47.6,142.9-71.4c0.4-0.2,0.8-0.8,1.5-0.3c-4.3,10.9-9.9,21.1-16.7,30.7
						c-12.7,18-28.7,32.6-47.5,44C325,338,306,345.8,286.1,351.1c-11.6,3.1-23.4,5.3-35.4,6.6c-5.8,0.6-11.5,1-17.3,1.2
						c-0.7,0-1.4,0-2.2,0c-0.9,0-1.8,0-2.7,0c-1.2,0-2.4,0-3.6,0C224.1,358.9,223.3,358.9,222.5,358.9z"/>
					<path fill="#CCCC66" d="M138,339.1c-0.5-0.9,0.2-1.1,0.7-1.4c8.3-4.1,16.5-8.3,24.8-12.4c86.9-43.5,173.9-86.9,260.8-130.4
						c0.6-0.3,1.3-0.5,1.6-1.2c3,0.1,5.9,0.3,8.9,0.3c7.1-0.1,14.1-1,20.9-3.1c0.3-0.1,0.6-0.2,1-0.3c-0.3,2.7-1.6,4.9-3.3,6.8
						c-3.3,3.6-7.5,5.8-11.9,7.6c-7.1,2.9-14.5,4.6-22,6.1c-0.8,0.1-1.6,0.2-2.5,0.8c3.1,1.2,6.2,1.5,9.2,2.3
						c-0.7,0.1-1.4,0.4-2,0.8c-87.8,43.9-175.5,87.8-263.3,131.7c-0.6,0.3-1.3,0.4-1.4,1.3c-3.9-1.2-7.7-2.7-11.4-4.3
						C144.7,342.3,141.3,340.9,138,339.1z"/>
					<path fill="#CCCC66" d="M370,128.4c4.7,2.6,9,5.8,13,9.3c2.3,2,4.5,4,6.4,6.4c-0.8,0.5-1.7,0.8-2.5,1.2
						c-65.8,32.9-131.5,65.8-197.3,98.7c-0.6,0.3-1.2,0.7-1.8,0.9c-9.1-1.8-17.2-5.4-23.7-12.3c-0.2-0.2-0.3-0.4-0.4-0.6
						c-0.1-0.5,0.2-0.6,0.5-0.8c0.3-0.2,0.6-0.3,1-0.5c29.8-14.9,59.6-29.8,89.4-44.7c0.3-0.2,0.6-0.4,1-0.3c1.3,0.8,2.3,2,3.3,3.1
						c0.7,0.8,0.9,0.5,1.2-0.3c0.6-2,1.3-3.9,2-5.9c0.4-0.7,1.1-0.9,1.8-1.2c34.6-17.3,69.3-34.6,103.9-51.9
						C368.5,128.9,369.1,128.3,370,128.4z"/>
					<path fill="#CCCC66" d="M409,180.5c-0.6-0.1-1.1,0.2-1.6,0.5c-6.3,3.2-12.7,6.3-19,9.5c-58.2,29.1-116.4,58.2-174.6,87.3
						c-0.5,0.3-1.1,0.4-1.5,1c0.3,0.4,0.8,0,1,0.4c-7.2-0.4-13.9-1.9-19.5-6.9c-2-1.8-3.5-4-4-6.8c0.7-0.6,1.5-0.8,2.2-1.2
						c68.9-34.5,137.8-68.9,206.7-103.4c0.6-0.3,1.2-0.8,2-0.7c2.7,4.7,4.8,9.7,6.5,14.8C408,176.8,408.5,178.7,409,180.5z"/>
					<path fill="#CCCC66" d="M400.8,160.3c-37.5,18.7-74.9,37.5-112.4,56.2c-32.3,16.1-64.6,32.3-96.9,48.4c-0.5,0.3-1,0.6-1.7,0.6
						c-0.9-3-0.3-5.7,1.1-8.4c2.3-4.5,6.1-7.5,10.3-10c0.3-0.2,0.6-0.3,0.9-0.5c0,0,0-0.1,0.1-0.2c-1.3-0.4-2.5-0.1-3.8-0.3
						c-0.6-0.2-1.2,0.1-1.8-0.2c-1.2,0-2.4,0-3.6-0.3c-0.4-0.2-0.9,0-1.3-0.2c-1.5,0-2.9-0.3-4.3-0.7c0.2-0.6,0.8-0.7,1.3-1
						c48.8-24.4,97.6-48.8,146.4-73.2c17.3-8.7,34.7-17.3,52-26c0.6-0.3,1.2-0.7,1.9-0.6C393.9,149,397.7,154.3,400.8,160.3z"/>
					<path fill="#CCCC66" d="M370,128.4c-0.6,0.3-1.1,0.7-1.7,1c-35.4,17.7-70.8,35.4-106.2,53.1c1.7-5.3,3.7-10.4,5.8-15.6
						c2.6-6.3,5.4-12.5,8.5-18.6c0.1-0.3,0.3-0.6,0.5-0.8c0.6,0.1,1.2-0.1,1.7-0.4c19-9.5,38.1-19.1,57.2-28.6
						c0.6-0.3,1.2-0.9,2-0.8c5.3,0.4,10.4,1.6,15.4,3.2C359,122.8,364.7,125.2,370,128.4z"/>
					<path fill="#CCCC66" d="M255.6,185.6c-0.5,0.3-1,0.6-1.6,0.9c-29.7,14.8-59.3,29.7-89,44.5c-0.5,0.3-1.1,0.3-1.4,0.9
						c-2.3-2.4-4.2-5.1-5.7-8c-0.7-1.4-0.4-2.3,1-3.5c3.7-3.3,8-5.4,12.7-6.6c3.3-0.9,6.7-1.4,10.4-1.8c-6.2-1.9-12-4-17.4-7.1
						c-0.5-0.4-0.2-0.8,0.1-1.1c0.4-0.3,0.9-0.5,1.4-0.8c22-11,43.9-22,65.9-32.9c0.8-0.4,1.5-0.8,2.2-1.3c5.3,3.3,10.3,7,15,11
						c1.9,1.6,3.8,3.3,5.6,4.9C255.1,185,255.5,185.2,255.6,185.6z"/>
					<path fill="#CCCC66" d="M164.6,134.7c4.5,1.6,8.8,3.5,13.1,5.3c7.6,3.2,15.2,6.6,22.6,10.1c0.5,0.2,1,0.3,1.3,0.8
						c-0.2,0.8-0.9,0.9-1.5,1.2c-11.4,5.7-22.9,11.5-34.3,17.2c-7.3,3.6-14.5,7.3-21.8,10.9c-0.5,0.3-1,0.8-1.7,0.4
						c-0.8-1.6-1.2-3.3-1.6-5c-0.4-1.4,0-2,1.4-2.4c4.2-1.3,8.4-2,12.8-2.4c2.4-0.3,4.9-0.4,7.6-0.7c-0.7-0.4-1.1-0.7-1.5-1
						c-6.9-4.3-13.2-9.4-18.4-15.6c-1.4-1.7-2.8-3.4-3.9-5.3c-0.3-0.5,0.1-0.7,0.4-1c0.3-0.2,0.7-0.4,1.1-0.6
						c7.7-3.9,15.4-7.7,23.1-11.6C163.8,134.7,164.1,134.4,164.6,134.7z"/>
					<path fill="#CCCC66" d="M142.4,180.5c0.4-0.2,0.9-0.3,1.3-0.5c5.8-2.9,11.7-5.8,17.6-8.8c13-6.5,25.9-13,38.9-19.4
						c0.5-0.3,1-0.6,1.5-0.9c4.3,2.2,8.8,4.1,13.1,6.5c1.7,1,3.4,1.9,5.1,2.9c-0.3,0.7-1,0.8-1.6,1.1
						c-21.1,10.6-42.3,21.2-63.4,31.7c-1.1,0.6-2.3,1.1-3.3,2C147.4,190.9,144.3,186.1,142.4,180.5z"/>
					<path fill="#CCCC66" d="M151.5,195.1c0.2-0.8,0.9-1.2,1.6-1.5c22.3-11.1,44.5-22.2,66.8-33.4c4.9,2.6,9.7,5.5,14.2,8.6
						c0,0.8-0.7,0.9-1.2,1.2c-17.8,8.9-35.6,17.8-53.4,26.7c-4.7,2.3-9.3,4.7-14,7c-0.5,0.2-1.3,0.3-1,1.2
						C159.7,202.3,155.3,199.2,151.5,195.1z"/>
					<path fill="#CCCC66" d="M164.6,134.7c-2.4,1.2-4.7,2.4-7.1,3.5c-5.9,2.9-11.8,5.9-17.7,8.8c-0.4,0.2-1.1,0.3-1.1,1
						c-3-4.3-5-9.1-6.2-14.3c-0.6-2.7-1.1-5.3-1.2-8.1c-0.1-3.3,0.8-3.9,3.8-2.7c4,1.5,7.9,3.2,11.9,4.7c5.5,2.2,11.1,4.3,16.6,6.5
						C163.9,134.3,164.3,134.5,164.6,134.7z"/>
					<path fill="#CCCC66" d="M123.4,307.9c-2.5,1.5-5.1,2.6-7.7,3.9c-3.3,1.7-6.6,3.3-9.9,4.9c-0.5,0.2-1,0.4-0.9,1.1
						c-4.2-3.3-8.1-6.9-11.9-10.7c-6.8-6.7-12.9-13.9-18.4-21.6c0.5-0.2,0.8,0.2,1.1,0.4c12.2,9.2,25.6,16,40.4,20.1
						C118.5,306.8,121,307.3,123.4,307.9z"/>
					<path fill="#CCCC66" d="M196.9,245.9c0.6,0,1.2-0.2,1.8,0.2C198,246.2,197.4,246.2,196.9,245.9z"/>
					<path fill="#CCCC66" d="M208.9,358.2c0.5,0,1.1-0.2,1.5,0.2C209.9,358.4,209.4,358.4,208.9,358.2z"/>
					<path fill="#CCCC66" d="M206,357.9c0.5,0,1-0.2,1.5,0.2C207,358.1,206.5,358.2,206,357.9z"/>
					<path fill="#CCCC66" d="M203.6,357.7c0.4,0,0.9-0.2,1.3,0.2C204.4,357.9,204,357.9,203.6,357.7z"/>
					<path fill="#CCCC66" d="M192,245.5c0.4,0,0.9-0.2,1.3,0.2C192.9,245.7,192.4,245.7,192,245.5z"/>
				</g>
			</g>
		</g>
	</g>
</g>
</svg>
