<?xml version="1.0" encoding="utf-8"?>
<!-- Generator: Adobe Illustrator 17.1.0, SVG Export Plug-In . SVG Version: 6.00 Build 0)  -->
<!DOCTYPE svg PUBLIC "-//W3C//DTD SVG 1.1//EN" "http://www.w3.org/Graphics/SVG/1.1/DTD/svg11.dtd">
<svg version="1.1" id="Layer_1" xmlns="http://www.w3.org/2000/svg" xmlns:xlink="http://www.w3.org/1999/xlink" x="0px" y="0px"
	 viewBox="58.9 53.7 486.6 475.9" enable-background="new 58.9 53.7 486.6 475.9" xml:space="preserve">
<g>
	<circle fill="#FFFFFF" cx="288.6" cy="284.8" r="217.1"/>
	<g>
		<g>
			<g>
				<g>
					<g>
						<path fill="#FFFFFF" d="M521.1,255.7c0.6,3.1,0,6-0.6,4.9c2,6.3,0.7,6.5,2.9,7.2c1.4,4.1,0.2,8.6-1,3.9c0,0,0.6,3,1.2,5.9
							c0.5,3,0.9,5.9,0.9,5.9s0-1.9,0.1-3.6c0.1-1.9,0-3.6,0-3.6c2.1,1.9-0.2,11.6,2.1,13.9c0,0-0.1-3.3-0.2-6.5
							c-0.1-1.6-0.1-3.3-0.2-4.5c0-1.3-0.1-2.1-0.1-2.1l0.7,0.6c-0.9-2.9-1-8.7-0.9-10.9c0.3,0.3,0.8,0,1,2.3
							c-0.7-7.9-1.7-8.9-2.7-9.5c-1-0.6-1.9-0.9-3.3-7.2C520.8,253.3,521,254.4,521.1,255.7z"/>
						<path fill="#FFFFFF" d="M522.9,241.6l-3.5-4.9c0,0-0.1-0.6-0.2-1.4c-0.1-0.8-0.3-2-0.6-3.1c-0.5-2.3-0.9-4.5-0.9-4.5
							c-0.8,0.1-3.3-6.2-2.7-1.6c0.3,0.8,1,2.4,1.4,3.8c-0.9-0.2-2-3.1-2.9-5.6c-0.9-2.5-1.9-4.3-2.3-2.8c2.7,6.7,2.4,7.9,5,11.9
							c1.4,6.5,2.2,11.4,2.1,14.5c0.6,1.9,1.6,2,2.3,4.4c-0.1-0.6-0.2-1-0.3-1.6l2.4-0.7c-0.9-2-0.9-3.9-1.5-6.3
							c0,0,0.3,0.6,0.8,1.5s1,2.2,1.6,3.5c1.3,2.6,2.4,5.1,2.4,5.1c0.9-2,0.5-5.6-0.1-9.2c-0.7-3.6-1.7-7.3-1.6-9.5
							C523.4,240.7,522.2,230.9,522.9,241.6z"/>
						<path fill="#FFFFFF" d="M520.6,252.3c0,0.1,0,0.2,0,0.2S520.6,252.4,520.6,252.3z"/>
						<path fill="#FFFFFF" d="M127.6,411.2c1.3,1.7,2.1,1.9,2.6,2c0,0-0.9-1.2-2.2-3c-0.7-0.9-1.4-2-2.2-3.1
							c-0.8-1.2-1.5-2.4-2.3-3.7c-1.6-2.6-3.3-5-4.3-7c-1.2-2-1.9-3.3-1.9-3.3c-0.2,0.9,2.6,7.4-0.1,3.6c0.3,2.2,4.3,7.2,5.6,7.4
							l-1.9-0.9c4.1,3.9,4.1,8.5,1.4,5.9l0.2,0.3c0,0,3.3,2.4,6.5,4.9c1.6,1.2,3.3,2.3,4.5,3.1c1.3,0.8,2.1,1.4,2.1,1.4
							C132.5,414.5,131.6,416.8,127.6,411.2z"/>
						<path fill="#FFFFFF" d="M508.4,325.8c-0.3,3.1-0.1,3.6,0.1,3.3C508.5,328,508.5,326.8,508.4,325.8z"/>
						<path fill="#FFFFFF" d="M138.8,421.1c0,0,1,0.7,2.1,1.3c1.1,0.6,2.1,1.3,2.1,1.3C141.6,422.5,139.9,421.7,138.8,421.1z"/>
						<path fill="#FFFFFF" d="M99.2,406.2c-0.1,0-0.2,0-0.2,0.2l1.9,1.6l0,0C100.3,407.4,99.7,406.8,99.2,406.2z"/>
						<path fill="#FFFFFF" d="M227.4,477.9c0.5,0.1,0.9,0.2,1.4,0.5C228.4,478.2,227.9,478,227.4,477.9z"/>
						<path fill="#FFFFFF" d="M64.4,341.4c0,0,1,2.9,2.1,5.8c1,2.9,2.2,5.7,2.2,5.7c-1.2-1.4,0.7,4.2-0.8,2c0.3,0.8,1.9,5,1.9,3.7
							l-0.7-2.3c3.8,5.6,3.4,1.6,8.2,11.1c-0.5-3.3-1.2-5.5-2-7.2s-1.7-3.1-2.7-4.6c-0.5-1-0.8-2-1.2-2.9c0,0-0.3-0.6-0.8-1.4
							c-0.6-0.8-1.2-2-1.9-3.1c-1.3-2.3-2.6-4.5-2.6-4.5L64.4,341.4z"/>
						<path fill="#FFFFFF" d="M442.1,463.3v0.2C442.2,463.3,442.2,463.3,442.1,463.3z"/>
						<path fill="#FFFFFF" d="M442.2,464.3v-0.8C441.8,464.1,440.2,465.9,442.2,464.3z"/>
						<path fill="#FFFFFF" d="M136.7,420.5c0.3-0.1,1.2,0,2.1,0.5l-3.1-2.1C136,419.5,136.4,420,136.7,420.5z"/>
						<path fill="#FFFFFF" d="M128,416.9l-5.6-7.2l-2.7-2.2C121.9,410.2,124.7,413.3,128,416.9z"/>
						<path fill="#FFFFFF" d="M215.4,471.5c16.4,7-5,0.5,2.2,4.4c4.6,1.9,6.9,1.2,9.9,2.1c-6.7-2.1-5.9-2.8-5.1-3.6
							c0.8-0.8,1.6-1.5-4.9-4.1c1.4-0.6,3.8,0,6.6,0.8c2.8,0.8,5.7,2.1,7.8,3.3c2.2,1.9,0.9,1.9-1,1.5c-1.9-0.4-4.8-1-5.7-0.3
							c5.5,1.7,4.5,1.2,7.2,0.8c4.1,1.6,8.6,2.6,12.8,3.3c2,0.3,3.9,0.9,5.6,1.4c1.6,0.5,3.1,1.2,4.3,2.2c6.3,1,6.2-0.2,10-0.6
							c0.6-1-1.7-1.7-4.3-2.4c-2.6-0.8-5.6-1.7-6.5-2.8c0.5,0.3,1.3,0.8,0.9,1c0,0-1.3-0.5-2.6-0.8s-2.6-0.9-2.6-0.9
							c4.8,2.1-1.3,2-3.9,1.3c-2-0.5-5.8-1.5-5.1-2c0,0,0.8,0.1,1.5,0.2c0.8,0.1,1.5,0.2,1.5,0.2c-1.7-0.8-3.9-1.2-6.2-1.5
							c-2.2-0.3-4.4-0.8-6.2-2.1c0-0.6,1.5-0.2,1.9-0.5c-4.8-0.2-9.1-1.9-15.8-3.8l4.5-0.3c-6,0.1-17.2-6.2-23.8-11.8
							c0.6,0.8,2,1.9,0.9,1.7c-4.6-2.2-7-5.6-4.4-5.2c-1.3-0.3-2.9-1-4.5-2.3c-1.7-1.3-3.6-2.8-5.5-4.3c-2-1.5-3.7-3.3-5.6-4.6
							c-1.9-1.4-3.6-2.6-5.2-3.3c0,0-2-0.7-4.8-1.9c-2.9-1.2-6.6-2.9-10.6-4.6c-3.7-1.9-7.5-3.8-10.4-5.3c-2.8-1.6-4.6-2.7-4.6-2.7
							c1,0.7,2,1.6,3,2.6c0.6,3.5,1.7,4.6-3,1.9c4.1,3.3,4.1,0.7,9.3,6.2c-2.7-1.5-5-0.6,0.1,5c3.7,2.9,7.2,5.3,11,7.3
							c3.5,2.1,7.1,3.7,10.8,5.2c7.1,3,14.3,5.3,22,8.6c-0.1,0.8,2.7,2.7,6.3,4.9c3.6,2.1,7.9,4.3,10.8,5.8
							c-2.9,0.3-7.3-1.4-11.9-3.5c2.7,1.6,7.4,4.1,11.1,5.9L215.4,471.5z"/>
						<path fill="#FFFFFF" d="M176.6,454.3c0.2,0.3,0.6,0.7,0.9,1C177.4,455,177.2,454.7,176.6,454.3z"/>
						<path fill="#FFFFFF" d="M200.2,467c-0.1,0-0.1,0.1-0.1,0.1c0.5,0.2,0.9,0.5,1.4,0.7C201,467.5,200.4,467.2,200.2,467z"/>
						<path fill="#FFFFFF" d="M136.9,426.2c-1-0.6-1.7-1.2-2.7-1.7c0.6,0.5,1.2,1,1.9,1.6C136.7,426.5,137,426.6,136.9,426.2z"/>
						<path fill="#FFFFFF" d="M136.5,421.5l0.8,0.1c-0.2-0.3-0.5-0.7-0.7-1C136.4,420.6,136.2,421,136.5,421.5z"/>
						<path fill="#FFFFFF" d="M279.5,502.4l1.9-0.2C280.2,502.2,279.7,502.3,279.5,502.4z"/>
						<path fill="#FFFFFF" d="M232.9,481.3c-5.9-1.9-1.5,2-9.9-1.3l2.4,1c-6.4-1.3-16.6-6.5-23.3-10.1c1.2-0.3-3.5-3.1-2.1-3.9
							c-2.3-1.2-4.6-2.3-6.7-3.3c-2.1-0.9-3.9-1.6-5.5-1.9c-2.6-2.1-7.2-3.9-10.3-6.7c0.9,1.6-6.5-1.2,2.3,3.8
							c-0.7-0.3-0.5,0.1-1.2-0.3c4.6,4.8,8,4.4,12.8,7.4c2.4,2.6-5.3-1.9-2.8,0.1c3.1,1.6,7.8,4.4,11.9,6.7c4.1,2.1,7.4,3.4,7.9,2
							c4.6,2,5,2.8,6.2,3.9c2.2,0.1,4.9,0.9,7.9,2c3,1,6.2,2.6,9.2,3.6c5.9,2.4,11.2,3.8,11.8,1.9c-1.4-0.3-3.3-0.8-5.2-1.3
							c-2-0.6-4.2-1-6.4-1.4L232.9,481.3z"/>
						<path fill="#FFFFFF" d="M144.5,434.2c0.2,0.3,0.7,0.7,0.8,0.9C145,434.9,144.7,434.5,144.5,434.2z"/>
						<path fill="#FFFFFF" d="M112.4,360.2l3.5,1.4c1.4,3.3,2.7,6,3.8,8.5c1.1,2.5,2,4.6,3.1,6.7c1,2.1,2,4.2,3.1,6.4
							c1.2,2.2,2.6,4.5,4.1,7.2c0.1,1-0.8-0.2-1.3-0.8c4.8,7.5,11.9,18.9,17.2,23.1c1.6,2.3,6,8.4,3.5,6.7c1,0.9,2.3,2,3.3,3.3
							c-0.5,0.9-2.6-2.6-3.3-2.1c0.8,1,0.9,1.5,1.4,1.5c-2-1-0.9,3.9-7.5-3.7c-0.7-4.4,4.8,5.1,5.2,1.7c-2.1-2.6-2.7-1.6-3-1.6
							c-2.7-3.3-2.1-3.6-1.5-3.8c-1.5-0.8-4.1-5.6-6.3-6.7c-4.9-6.6,1.7-0.7-1.3-5.1c0,0-0.9-0.2-2-0.6c-0.9-0.2-2-0.6-2-0.6
							l-4.3-7.9c-3.6-5.3-4.3-4.4-5.2-3.7c-0.8,0.7-2.1,1.5-6.3-4.9c1,0.6,1.4-0.7,1-3c-0.2-2.2-1.2-5.5-2.3-8.7
							c0.9,1.9,2.4,4.4,4.3,7c1.7,2.6,3.4,5.5,4.4,7.9c-2-7.4,5.3,8.8,5.3,4.3c-2.7-2.7-6-7.9-7.5-12.5l0.9,1.3
							c-2.1-4.5-6.2-7-8.1-13.9c-1.4-3.3-0.5-2.9,0.3-2.6C113.4,362.6,112,360.4,112.4,360.2z M115.7,367.1c0,0,0.3,1,0.8,2.2
							c0.5,1,0.8,2.2,0.8,2.2C117.3,370.3,116.6,368.7,115.7,367.1z"/>
						<path fill="#FFFFFF" d="M494.8,171.9c0.2,0.5,0.5,1,0.6,1.5C495.4,173,495.1,172.5,494.8,171.9z"/>
						<path fill="#FFFFFF" d="M97.8,179.4l1.6-2.7C98.8,177.7,98.3,178.6,97.8,179.4z"/>
						<path fill="#FFFFFF" d="M135,117.8l3-3.7C136.7,115.3,135.8,116.6,135,117.8z"/>
						<path fill="#FFFFFF" d="M473.1,141.7l-0.1-0.1c-0.2-0.1-0.3-0.2-0.6-0.5L473.1,141.7z"/>
						<path fill="#FFFFFF" d="M265.5,60.6c0.7,0.1,1.5,0.2,2.7,0.2C267.9,60.6,267,60.6,265.5,60.6z"/>
						<path fill="#FFFFFF" d="M134.4,118.5c0.1-0.1,0.1-0.1,0.2-0.1c0.1-0.1,0.2-0.3,0.3-0.5L134.4,118.5z"/>
						<path fill="#FFFFFF" d="M77.8,204.7c-0.2,0.7-0.3,1.3-0.5,2C77.6,205.9,77.8,205.3,77.8,204.7z"/>
						<path fill="#FFFFFF" d="M86.2,203.2c-0.2,0.7-0.3,1.4-0.5,1.9L86.2,203.2z"/>
						<path fill="#FFFFFF" d="M65,310l0.7,4.3C65.5,312.2,65.2,311,65,310z"/>
						<path fill="#FFFFFF" d="M80.7,213.2c0,0.2,0.1,0.6,0.1,0.7C80.9,213.4,80.8,213,80.7,213.2z"/>
						<path fill="#FFFFFF" d="M500.3,198.7c0-0.1-0.1-0.2-0.1-0.2h-0.3L500.3,198.7z"/>
						<path fill="#FFFFFF" d="M507.6,206.3c0.5,1,1,2.2,1.5,3.3C508.8,208.4,508.1,207.3,507.6,206.3z"/>
						<path fill="#FFFFFF" d="M326.9,64c1,0.5,3.6,1.3,2.3,1.5C331.3,65.2,331.3,64,326.9,64z"/>
						<path fill="#FFFFFF" d="M477.4,188.9c0.6,0.3,1.2,0.9,1.7,1.4C478.1,189.3,477.3,188.3,477.4,188.9z"/>
						<path fill="#FFFFFF" d="M479.2,190.3c0.5,0.5,1,1,1.5,1.5C480.2,191.2,479.8,190.8,479.2,190.3z"/>
						<path fill="#FFFFFF" d="M298.8,83.5c-0.2-0.1-0.6-0.3-1.2-0.3C297.7,83.5,298.2,83.6,298.8,83.5z"/>
						<path fill="#FFFFFF" d="M509.9,212.6c0.8,0.3,7.1,15.1,3.1,2.2c1.9-0.1,3.7,7.8,5,11.2c-0.2-2.7,1.5,0.9,2,0
							c-0.7-1.6-1.7-3.6-2.6-6.4c0.3-1.5,2.4,2.6,3,6c-0.2-4.4,2.9,4.9,2-1.3c-4.4-12.5-8.5-21.1-15-28.2c0.9,1.6,1.7,3.4,2.7,5
							c0.8,1.7,1.6,3.5,2.3,5.2c0.7,1.7,1.4,3.5,2,5.1c0.5,1.6,0.9,3.3,1.3,4.8l-2.3-1.9c-0.3-3.5-1.4-6-2.4-8.6c-1-2.6-2.3-5-3.6-8
							c0,0,0.3,0.9,0.8,2.2c0.6,1.3,1.2,3.1,1.7,4.9c1.2,3.6,2.3,7.2,2.3,7.2c0.9,7.2-0.7,2.7-3-2.3
							C509.7,211,510,212.1,509.9,212.6z"/>
						<path fill="#FFFFFF" d="M493,208.8v0.2c0.1,0.1,0.2,0.3,0.3,0.5L493,208.8z"/>
						<path fill="#FFFFFF" d="M98.1,306.6l0.7,1C98.4,306.7,98.2,306.5,98.1,306.6z"/>
						<path fill="#FFFFFF" d="M496.7,197.9L496.7,197.9C496.7,197.7,496.7,197.7,496.7,197.9z"/>
						<path fill="#FFFFFF" d="M97.8,277.9l0.1,0.1C97.9,277.9,97.9,277.9,97.8,277.9z"/>
						<path fill="#FFFFFF" d="M63.3,266.8c-0.1,0-0.1,0.1-0.2,0.2C63,267.7,63.1,267.4,63.3,266.8z"/>
						<path fill="#FFFFFF" d="M97.7,277.9h0.1C97.8,277.9,97.7,277.8,97.7,277.9z"/>
						<path fill="#FFFFFF" d="M147.6,148.1c0,0-0.5,0.1-1.2,0.5C146.3,148.9,146.7,148.8,147.6,148.1z"/>
						<path fill="#FFFFFF" d="M127.8,168.6c-0.1,0.1-0.2,0.2-0.5,0.3L127.8,168.6z"/>
						<path fill="#FFFFFF" d="M320.1,55.7c-1.6-0.1-2.8-0.2-3.8-0.2C317.6,55.7,318.8,55.9,320.1,55.7z"/>
						<path fill="#FFFFFF" d="M97.9,278c0.1,0.3,0.2,0.7,0.5,1.4C98.3,278.7,98.1,278.3,97.9,278z"/>
						<path fill="#FFFFFF" d="M175.6,113.1c-0.2,0.2-0.5,0.5-0.6,0.7l0.5-0.2L175.6,113.1z"/>
						<path fill="#FFFFFF" d="M189.1,105.7c-0.3,0.5-0.5,0.7-0.6,0.9c2.2-1.6,5.6-3.6,8.4-5.3c2.9-1.6,5.2-3.1,5.5-4.2
							c-0.8,0.5-3.5,1.5-5.8,2.3s-4.3,1.4-3.8,0.6c-3.1,2.2-8.7,4.1-10.3,5.6c5.8-2.6,1.4,0.9-1.9,3.6c-3.5,1.6-0.1-1.5-3.1,0
							l-7.2,5.3l6.5-4.3l-0.9,2.8c0.2-0.2,0.3-0.3,0.6-0.6c5.2-4.1,5.8-3.6,6.4-3.3C183.2,109.5,183.7,109.7,189.1,105.7z"/>
						<path fill="#FFFFFF" d="M188.4,106.8c-0.7,0.5-1.2,1-1.5,1.4C188,107.5,188.2,107.1,188.4,106.8z"/>
						<path fill="#FFFFFF" d="M237.9,87.8c0.6-0.2,1.3-0.5,2.1-0.9C239.7,87.1,238.7,87.5,237.9,87.8z"/>
						<path fill="#FFFFFF" d="M116.4,401.7c0.2-0.5-2.6-7.4-3.6-6.7c1,2,2,4.1,3,6L116.4,401.7z"/>
						<path fill="#FFFFFF" d="M381.4,87.4c-0.8-0.3-1.6-0.7-2.4-0.9c-0.2,0-0.3,0-0.6,0C378.9,86.7,380.6,87.2,381.4,87.4z"/>
						<path fill="#FFFFFF" d="M194.4,98.4c-1.2,0.9-1.6,1.4-1.7,1.7C193.3,99.6,194,99,194.4,98.4z"/>
						<path fill="#FFFFFF" d="M380.7,90.3c0.9,0.7,2.1,1.9,2.1,2.4c2,0.9,3.7,0.9,5.8,1.6C386.3,93.6,383.7,92,380.7,90.3z"/>
						<path fill="#FFFFFF" d="M388.8,94.5h-0.2C388.8,94.4,388.8,94.4,388.8,94.5z"/>
						<path fill="#FFFFFF" d="M118.4,405.9c0.5,0.5,0.9,1,1.3,1.5l-0.8-0.7c0.8,1.5,1.6,3.1,2.6,4.5c0.5,0.5,0.9,0.9,1.4,1.6
							c-0.2-0.2-0.5-0.3-0.7-0.5c0.2,0.5,0.6,0.9,0.8,1.4c3.4,2.7,10.6,10.3,13.1,12.1c3,2.6,6.3,6,8.4,8.2c-2-2-4.4-4.6-4.3-3.3
							c1.5,2.4,2.4,4.4,3.9,6.6c1.5,2.2,3.6,4.5,7.9,7.2c0,0-1-0.9-2.1-2c-1-0.9-2.1-2-2.1-2s0.7,0.5,1.7,1c1,0.7,2.4,1.5,3.8,2.3
							c1.4,0.8,2.8,1.6,3.8,2.3c1,0.6,1.9,0.9,1.9,0.9c1.3,1.9-0.1,1.2-2.2-0.2c-2-1.4-4.4-3.4-5.5-3.6c8,5.9,12.3,14,17.5,15
							c-0.3,1.5-1,4.3,4.5,8c-2.9-4.2,3.8,1.4,1.7-2.3c2.3,0.7,5.7,4.6,6.7,3.9l-0.8,0.2c4.1,4.1,7.4,5.8,10.6,6.5
							c2.9,0.8,5.3,0.8,7.8,1.4c3,1.4,5.6,2.7,7.9,3.8c2.3,1.1,4.5,2.1,6.5,3.1c2.1,1,4.1,2,6.2,2.8c2.1,0.8,4.4,1.9,7,2.7
							c0.1,1,2,4.5,6.3,5.9c2.3-0.6,12.2,1.5,13.6,0.1c-7.3-2.8-6.5-0.3-11.2-1.3c-3.1-2.9,0.2-1.9-4.5-4.5c3.7,2.3,18.8,4.6,23,7.2
							l-1.6-0.1c3.5,1.4,5.5,3,8.1,4.4c1.4,0.7,2.9,1.3,4.9,1.7c2,0.3,4.5,0.5,7.7,0.2c0,0,1.5-0.1,3-0.1c1.5-0.1,3-0.2,3-0.2
							c-0.3,0.1-0.3,0.3-0.5,0.5c9.9,0.9,7.1,2.8,18.1,1.5c-0.8,0.1-0.3,0.3-1.2,0.3c3.1,0.6,6.3,0.2,9.2-0.2
							c2.9-0.5,5.6-1.2,7.9-1.5c2.9,1.2-0.6,1.4-2.3,2.6c11.1,0,22.6-4.2,29-7.2c0,0,0.5,0,1-0.1c0.7,0,1.5-0.1,2.4-0.2
							c1.7-0.2,3.5-0.3,3.5-0.3c-3.8,1.6-8.6,3.9-7.2,4.5c3.8-0.9,2.9-1.5,8.4-2.4c-0.7,1-2.8,2.4-5.1,4.2c11.7-1,1.7-3.7,10.3-2.8
							c3.5-0.9,5.1-2.8,5.2-3.9c0,0,1.6-0.1,3.4-0.2c1.6-0.1,3.4-0.2,3.4-0.2c0.2-1.6,7.9-4.1,12.8-6.3c0.3-0.8-4.4,0.2-6.2,1.3
							c0-1,5-3.6,8.2-4.9c1.2,1.2,6.5-1.3,11.2-3.5c4.6-2.3,8.6-4.4,7.4-1.9c3.5-2,7.2-4.5,11.1-6.9c3.7-2.6,7.7-5.1,11.2-7.9
							c3.6-2.7,7-5.3,10-8c1.4-1.3,2.8-2.4,4.1-3.6c1.2-1.2,2.2-2.3,3.1-3.3c1.5-0.8,3.7-2.4,5.1-3.3c1.4-0.9,2.2-1.2,1,0.8
							c2.3-2.2,4.3-4.3,6-6.4c1.7-2.1,3.1-4.1,4.5-6c1.5-2,2.9-3.9,4.4-6c1.5-2.1,3.5-4.2,5.6-6.6c0.5-0.3-0.3,0.8-1.3,2.1
							c-0.9,1.2-1.9,2.6-1.4,2.7c4.4-7.1,10.8-11.1,17.3-22.5c-1.2,1.9-0.9,2.8-0.9,3.1c-0.6-0.1,2.1-5,3.5-8.1
							c1.2-1.5-1,2.3-0.1,1.6c7.2-10.4,11.7-20.8,15.2-31.3c3.5-10.6,5.9-21.3,8.8-33.4c-1.5,6.9-0.6,10,0.2,10.3
							c0,0,0.5-1.6,0.9-3.4c0.5-1.6,0.8-3.4,0.8-3.4c-0.3-2.9,0.9-7.9,0.9-12.5c0.5-0.5,1.2-2.6,1.3-0.2c2.3-6.6,2-12.3,1.6-18.1
							c-0.2-2.9-0.6-5.9-0.7-9.2c-0.2-3.3-0.3-7,0-11.2c0,0,0.8,5.1,1.7,10.3c0.6,5.2,1.2,10.4,1.2,10.4l1.7-5c0,0,0.2,2.3,0.6,4.6
							c0.3,2.3,0.3,4.6,0.3,4.6c1.7-5.3-0.6-10.4,1-11c0.3,1.2,0,3.9,0.8,4.2c0.9-5.2,0-5.7-0.2-9.9c0.7,2.7,0.9,5.9,1.2,9.5
							c0.2,3.6,0,7.5-0.2,11.6c-0.6,7.9-2,15.9-2.9,21.5c-0.1,1.7-0.3-1.6-0.6-2c-0.5,2.2-1,3.9-1.6,5.8c-0.7,1.9-1.4,3.8-1.9,6.7
							c0.2,3.8,1.6-2.3,2.6-5.1c0.9,0.7,0.5,2-0.2,5.1c-1.4,0.2-5.7,16.6-9.1,19.6c-2.8,7.9-2,7.5-0.8,7.3c1-0.3,2-0.8-1.7,6.7
							c0,0-0.9,0.9-1.7,1.9c-0.9,0.9-1.9,1.9-1.9,1.9c-3,9.2-8.5,20.8-15.2,29.6l1.3-2c0.2-1.6-1.5,0.1-2.4,0.8
							c-2.7,3.1-4.6,6.5-6.7,9.4c-2,2.9-3.8,5.5-6.2,6.7c-4.5,8.5-14.8,20.8-22.6,28.4c-1.9,0.1,0.6-2.6,3.7-5.7
							c2.9-3.4,6.7-7.2,7.8-9.3c0,0-0.5,0.5-1,1c-0.7,0.6-1.5,1.5-2.4,2.3c-1.7,1.7-3.5,3.4-3.5,3.4c4.4-4.2,5.6-6.4,7.1-10
							c-3,3-4.9,5.1-6.5,7.4s-3.3,4.6-6.2,7.4c0.1-0.9-0.9-0.5-3.8,2l0.1,1.9c-0.1,0-0.5,0.1-1.5,0.8c0,0-2.7,2.4-5.5,4.9
							c-1.4,1.3-2.8,2.3-3.8,3.3c-1,0.8-1.7,1.4-1.7,1.4c2.9-1.3,3.8-0.2,6.7-2.6c-1.6,0.1,0.8-2,3.8-4.3c-2,2.8,3.4-1.6,3.8-1
							c-3,2.3-6.3,5-9.3,7.4c-3.1,2.3-5.9,4.5-7.9,6.2l-2.1-0.2c-3.1,1.7-6.2,3.9-9.1,5.8c-2.9,1.7-5.6,3.5-7.8,4.5l0.9-1.4
							c-3.8,2-7.7,3.9-11.5,5.8c-3.8,1.7-7.5,3.4-11.4,4.2c-6.5,4.4-15.4,8.8-21.1,12.3c-1.4,1.3-7.1,2.6-13.6,3.4
							c-6.4,1.2-13.5,1.9-17.6,3.8c-0.6,0,5.8-2.3,8.6-3.5c-5.8,0.8-10.2,3.7-12.2,2.1c6.5-0.5,6.3-1,5.1-1.3
							c-1.2-0.3-3.1-0.6-0.3-1.4c-3,0.6-6,0.9-8.8,1.5c-2.7,0.6-5,1-6.5,1.4c10-0.9-3.3,3,6.6,1c-3.7,1.4-8.4,2.1-13.2,2.8
							c-4.8,0.6-10,0.6-14.6,0.5c0.1-0.8-1-1.2-4.5-1.6l-2.8,1c-4.3-0.3,8.5-1.2-0.2-1.7c-2.3,0.5-5.1,0.5-8.1,0.2
							c-3-0.2-6.3-0.5-9.3-0.9c-3-0.5-5.9-0.8-8.4-0.8c-2.4-0.1-4.3,0-5.5,0.7c-3.3-1.3,0-1,2.9-1c2.9,0.1,5.3,0,0.3-1.7
							c6-0.3,14.3,2.1,16.4,0.3c-5.9,0.1-2-1.7-5.7-2.1l-6.6,0.2l1.4,0.2c-2.8,0.1-5.9-0.2-9.3-0.6c-1.6-0.2-3.4-0.5-5.2-0.7
							c-1.7-0.3-3.6-0.8-5.3-1.2c-1.9-0.5-3.7-0.8-5.5-1.3c-1.9-0.5-3.6-1-5.5-1.5s-3.6-1-5.3-1.5c-1.7-0.6-3.5-1.2-5.1-1.6
							c-11.8-2.1-20.7-2.8-33.6-9.5c2.1,0.5-0.3-1-2.3-2.6c-2-1.4-3.3-2.7,1.2-1.4c-5.3-3.9-11.6-6.3-12.2-5.8
							c4.9,3.3,1.6,1.3,5.7,4.1c-1.6-0.5-4.2-1.5-6.6-3c-2.3-1.4-4.5-3-5.7-4.2c1.2,0.8,0.8,0.3,1.3,0.3c-5.6-4.3-3.4-1-7.8-3.6
							c-0.2-1-2.6-2.7-5.1-4.5c-2.6-2-5.3-4.1-7-5.8c0,0-1.6-0.6-3.3-1.4c-1.6-0.7-3.1-1.5-3.1-1.5c3.6,1.4-4.6-4.5-4.5-6.2
							c-4.1-2.7-8.2-4.3-13.1-10c2.6,1.7-3.9-5.5-3-6.5c-1.9-2.6-3.7-4.6-5.7-6.6c-1.9-2-3.8-3.7-5.7-5.6c-2-1.7-3.7-3.6-5.3-5.7
							s-3.4-4.3-4.5-7.1c0.5,0.1,2.4,1.7,0.8-1.4c-1.7-2.1-4.3-6.2-5.8-8.7l0.1,0.1l-0.1-0.1c-0.8-1.2-1.4-1.9-1.6-1.7
							c-1.7-1.9-3.4-3.3-5.1-5.1c-1.7-2-3.7-4.5-6.4-8.7c-0.9,1.3,3.4,8.7,5.6,11.7l2.8,2.1c-0.2,1.9,1,3.8,2.3,5.6
							c1.4,1.7,2.9,3.3,3.3,4.4c-1.4-0.9-3-2.6-4.6-4.6c-1.6-2-3.4-4.6-5.1-7.4c-3.4-5.6-6.7-11.7-9.5-16.2
							c0.6,6.7,6.9,19.7,13.7,30c0,0-0.6-1.3-1-2.6c-0.6-1.3-1-2.6-1-2.6s0.8,1.4,1.6,2.8c0.9,1.4,1.7,2.7,1.7,2.7s-0.5-1.5-1-3
							c-0.6-1.5-0.9-3-0.9-3c1.4,2.7,3,5,4.5,7.3c1.5,2.3,3,4.5,4.6,6.7c-3.8-5.2-3.3-8.5-1.6-5.2c2.8,6.6,5,5.5,8,10.1
							c-1.6-2.6-3.8-5.7-1.7-4.2c2.3,4.9,4.4,7.5,6.3,10.3c1.9,2.7,3.7,5.1,6.3,9.4c0.6-1.3,2.4,1,4.9,3.5c2.3,2.4,4.9,5.1,6,4.9
							l-2.9-3.4c0,0,1.9,1.4,3.8,2.9c1.9,1.4,3.8,2.8,3.8,2.8c5,7.4-7.1-3.9,1.6,6.4c9.1,8.5,10.7,6.3,18.3,12.1
							c-1.7-0.3-4.2-1.5-7.1-3.3c-2.9-1.8-5.9-4.1-8.9-6.6l3.1,3.6c-2.6-0.9-10.6-8.5-14.3-12.5c3.7,2.6,3.1,1.7,1.3-0.2
							c-1.7-2-4.8-5.1-5.7-7.1c-1.5,0.3,2.6,4.4-2.9,0.2c2.2,2.3,3.5,3.7,4.9,5.1c1.4,1.5,2.8,3.3,5.7,6.3c-3.1-3.1-5.3-5.3-7.4-7
							c-2.1-1.6-3.8-2.6-5.5-3.6c-1.6-1-3.3-2-5-3.5c-1.7-1.5-3.7-3.6-5.9-6.9c5,5.2,0-3.3,0-4.3c-2.3-2.4-6.4-7.9-8.4-10.1
							l-0.2,3.3c-3-3.5-3.9-6.6-5.1-9.7c-0.6-1.5-1.3-3.1-2.1-4.8c-0.9-1.7-2.1-3.5-3.8-5.5c-1.7-0.6,4.3,8.2,3.1,6.6
							c-4.2-5.9-6.3-10.4-7.5-15.1c-0.7-2.3-1.3-4.5-2-7c-0.6-2.4-1.3-5.1-2.2-8.1c-0.8-0.5-2.1,0.3-4.6-3.5
							c1.6,0.8,0.9-2.4,3.7,1.9c-1.2-4.1-3.7-8.4-5.6-11.8c1.3,4.2,0.6,3.6-0.7,1.6c-1.2-2-2.7-5.1-3.4-5.8
							c-1.3-4.4,1.6,0.9,2.8,3.5c-0.9-3.6-0.6-8.2-3-9.7c0.6-0.2,2.2,2,3.9,4.9c0.9,1.5,1.9,3.3,2.7,4.9c0.9,1.6,1.9,3.4,2.6,4.9
							l-1.4-4.3c1.7,2.7,1.7,3.3,3.3,7.5c-0.7-4.4,0.5-4.4,1.7-3.8c0,0.6-0.3-0.2-0.3,0.3c0.9,3.5,2.3,5.8,2.7,4.8
							c2.8,2.2-0.9-5-0.9-7.5c-0.7-1.6-1.6-3.3-2.2-4.9c0,0-2.8-3.9-5.6-7.9c-2.7-3.9-5.2-8.1-5.2-8.1c-1.5-3.7-1.9-6.6-2.1-9.3
							c-0.2-2.7-0.3-5.1-0.3-8.1l-1.7-1.4c-1.2-6.9-1.4-13.6,0.9-9.3c-0.5,0.3-0.2,1.2-0.1,2.7c0.2,0.1,0.5,0.5,0.6,0.9
							c0.1,0.1,0.2,0.2,0.3,0.2c-1.6-7.2-2.3-11.9-2.6-12.3c3.7,12.3,2.7,0.2,5.6,2.1c0,0-0.1-0.8-0.3-1.9c-0.2-1.2-0.6-2.7-0.7-4.2
							c-0.5-3.1-0.9-6.2-0.9-6.2c-0.2,7.5-1.3,0.2-1.9-2.4c1.4-0.8-0.3-10.2-0.1-14.6l0.2,0.3c0.6-4.1,0.6-11.2,0.7-16.4
							c-0.5,0.2-2.6-6.5-3.4-10c-1.6,8.7-1.5,3.5-2.6,4.1c0.1-0.9,0.3-2.6,0.2-2.8c-0.2-1.3-0.8,1.6-1.3,1.9c0,4.8-0.2,9.7,0,13.8
							c0.2,4.2,0.8,7.5,1.7,9.5c1-2.9-0.8-5-0.1-8.1c0.6,2.3,0.8,5,0.9,8.1c0.1,3,0.1,6.5,0.2,10.6l-1.2,2.6l1.3,7.8
							c-0.8-3.3-2.1-1.2-2.8-9.4c-1.3,1.2,0.8,8.2,0.8,13.5c0,0,0.5,0.6,0.9,1.2c0.5,0.6,0.9,1.2,0.9,1.2c-1-0.9,0.1,10.1-2.1,2.4
							c0,0-0.2-0.8-0.5-2c-0.3-1.2-0.6-2.7-0.9-4.3c-0.6-3.1-1.2-6.3-1.2-6.3l-0.8,3.6c0,0-0.2-2.7-0.6-5.3
							c-0.1-1.4-0.2-2.7-0.2-3.7c-0.1-1-0.1-1.7-0.1-1.7l0.9,2.6c-1.5-17.4,2.9-5.1,1.3-22.6c-1.6-5.5-1.6-11.6,0.3-22.2
							c-0.6,7.8,1.3,0.9,2.1,3.9c1.7-7.7,0.7-10.6,0.7-14.7c1.4-1.7,2.4-3,1,3.8c2,1.3,1.2-9.2,3.7-9.3c2.4-11.4,2.2-16.1,2.2-21.6
							c0.2-5.3,0.8-11.4,7.4-23.4l0.5,1.3c5.9-16.5,11.9-24.8,20-38.8c0,0,0.6-0.6,1.4-1.5c0.8-0.8,2-2,3.1-3.1
							c2.3-2.2,4.5-4.4,4.5-4.4c-1.4,2.6-4.3,9.7-1.4,7.4c-2.8,1.7-4.8,4.2-6.6,6.7c-2,2.6-3.8,5.2-5.9,7.8c0.2,0.9,1.9-1.2,2.8-2
							c-2,3.4-3.9,4.5-6,9.3c0.5,0,3.8-4.6,2-0.8c0,0-1.2,1.4-2.3,2.8c-1.1,1.4-2.2,2.8-2.2,2.8c-1.9,4.4-1.6,5.8-1.5,7.3
							c0.1,1.5-0.1,3.1-2.7,8c-0.3-2.3-0.3-7,1.3-11.1c-1.2,2.3-0.7,0.6-0.1-1s1.2-3.5-0.2-1.5c-0.8,3.7-1.7,6.3-3,9.1
							c-1.3,2.8-2.6,5.8-3.8,10.7c0.2-1.2-0.1-1.6,0.7-3.8c0,0-1.5,3.3-3,6.5c-1.4,3.3-2.7,6.6-2.7,6.6c1-1.5,0.5,1.4-0.2,4.5
							c-0.6,3.1-1,6.6-0.1,6.3c1.2-3.6,2-6,2.7-7.9c0.6-1.9,1-3.3,1.5-4.5c0.8-2.8,2.1-5.8,5.6-13.7c-1.4,4.6-2.2,11.1-1.6,14.4
							c-0.1,0.1-0.2,0.3-0.5,0.8c0.7,3,2,0.6,4.6,1.6c0.2-3.9,1.4-6.9,2.6-10.1s2.7-6.3,4.1-10.7c-0.7-2.2-4.1,3.8-5.3,8.2
							c0,0,0.1-0.5,0.3-1.2c0.2-0.7,0.5-1.7,0.7-2.7c0.6-2,1.2-3.8,1.2-3.8v1.7c0,0,0.6-1.2,1.4-2.8c0.8-1.7,1.9-3.9,3.1-6.2
							c1.2-2.2,2.4-4.4,3.4-6c0.9-1.6,1.6-2.7,1.6-2.7c-1.9,3.4-1.5,5-1.9,7.1c1.3-2.2,2.7-4.4,4.5-6.5c-1.6-0.2-2.3-1-1-3.3
							c6.7-11.1,12.3-16.1,16.4-19c0.2-0.5,0.6-0.9,0.8-1.3c-2.6,0.8,3.3-8.9,4.6-13.1c1,1.2,5.1-4.4,8.1-6.7c0-2.7-3.6-2.4-7.8,0.1
							c-4.5,7.8-2,4.9-2.8,9.7c0,0-1.9,3-3.7,6c-1.7,3.1-3.5,6.2-3.5,6.2l0.7-3.4c-4.8,5.3-6.7,12.2-8,10.8c0.5-1.9,1.6-4.1,3-6.2
							c1.3-2.1,2.7-4.2,3.3-6l-3.3,3.6c3.4-7.8,3.7-2.6,8.9-11.2c-3.5,2,0.5-0.8,2.3-4.9c-1.5,0.9-4.2,4.5-6.5,7.3
							c-2.3,2.8-4.1,5-4.3,2.9c1-2.6,4.4-5.6,7.8-8.8c3.4-3.3,7-6.6,8.2-10.2v0.5c7.2-7.3,8.7-11,11-14.4c3.7-2.4,7.5-7.4,11.2-10.7
							l0.5,0.7c0,0,1.2-1.2,2.4-2.3c1.2-1.1,2.6-2.2,2.6-2.2c-1.6,3-6.2,5-10.6,8.9l1.5,0.6c-3.1,1.5-5,3.7-6.4,5.8
							c-1.4,2.2-2.6,4.5-3.8,6.9c2.1-3.1,6-6.6,9.3-10c3.4-3,6-5.8,5.8-7.5c0,0,1-0.5,2.2-0.9c1.2-0.5,2.3-0.8,2.3-0.8l1.4-1.7
							c3.4-1.3,1.6,2.2-3.3,6.7c-1.2,0.5-1.6,0.7-1.6,0.2c-1.9,2.6-3.4,5.1-8.9,10.1l2.3-3.3c-6.9,6.2-12.3,12.9-13.3,16.1
							c9.4-9.4,19.1-18.1,29-25.8c0.8-4.9,3.3-9.1,3-12.8c6.6-5.6,16.6-12.2,23.7-14.8l-0.3,0.9c3.3-1.5,6.3-3.1,8.6-4.8
							c3.8-1-1.6,2.7,0.9,1.9c0,0,0.7-0.3,1.6-1c0.9-0.6,2.3-1.4,3.6-2.1c2.7-1.5,5.3-3,5.3-3c-0.1,0.8-2.4,2.2-5.3,3.7
							s-6.2,3.4-8.4,4.4c0.8-0.6,2.3-1.6,1.7-1.5c-5.5,2-13.5,9.4-16.6,8.9c-2.2,1.9,3.9-4.3-4.1,0.7c-5.8,2.8-6.4,5.5-6.6,6.4
							c0.3,0.6,8.8-4.5,6.4-1.9c4.1-2.7,5.1-4.6,11-7.1c-4.2,2.4-8.7,7.3-11.7,7.7c-7.1,6.5-3.6,8.8,0,6.5
							c-1.6-0.5,13.6-10.6,2.3-5.1c3.8-4.3,12.6-9.5,18.7-13.8l-0.1,0.5c0,0,2-1.2,3.9-2.2c2-1.2,3.9-2.1,3.9-2.1
							c-1,0.9-3.3,2.4-3,3.1c0,0,0.7-0.5,1.6-1.2c0.9-0.7,2.3-1.5,3.6-2.4c2.7-1.7,5.3-3.6,5.3-3.6c-2.9,2.1-1.9,1.9,0.3,1
							c2.2-0.8,5.7-2.1,7.3-2.3c0.8-1.6,5.1-4.3,0.5-3.1c-5.3,1.2-2.7,1.7-7.1,3.6l5.7-4.3h0.6c0,0,0.8-0.7,1.6-1.5s1.6-1.5,1.6-1.5
							c8.9-2.9-2.7,4.8,8.2-0.6l-2.2-1.5c3.4-1.2,7-2,10.8-2.7c1.9-0.3,3.7-0.8,5.6-1.2c1.9-0.2,3.8-0.6,5.6-0.9
							c1.9-0.3,3.6-0.6,5.5-0.9c1.7-0.2,3.5-0.5,5.1-0.7c3.3-0.5,6.2-1.2,8.6-1.6c-2.6,1.5-3.4,3.6,0.5,4.3c-2.1,0-5.2,0.6-8.5,1.2
							c-1.6,0.3-3.4,0.6-5,0.9c-1.6,0.5-3.3,0.8-4.6,1.2c-0.6,0,1-1,3.7-2.2c2.7-1.2,6.4-2.1,9.7-2.6c-1.9-1.4-5.9-0.2-9.5,1
							c-3.6,1.4-7,2.7-7.8,1c-16.7,3.1-11.2,6.4-25.3,9.1c0.3,1.5-3.5,2.2-3.7,3.7c4.6,0.7,17.7-6.4,26.8-7.9
							c-0.8,0.3-2.4,1-2.8,1.4c6.4-1.3,8.9-2.1,13.3-3.7H251c7.4-3,5,0.2,9.9,0.1c1.7-0.7,8.1-1,7-2c0,0,2.1,0.1,4.3,0.2
							c2.1,0.1,4.3,0.2,4.3,0.2l-0.6-1.7c4.8-0.5,5.8,0.6,10.2-0.8l0.1-1.6c0,0-3,0.1-5.9,0.2c-1.5,0-3,0.1-4.1,0.1
							c-1.2,0-1.9,0.1-1.9,0.1c5.9-1,1.5-1.6,8.1-2.6c-7.3,2.3,5.3,0.5,6.2,2l4.9-1l-1.3,0.5c3.8,0.8,4.5-0.8,9.1-0.5
							c-5.2-0.9-8.8-1.9-15.5-0.5c4.9-1.2,14.7-2.4,17.2-2.2c5.2-0.6,8.8,0.7,13.7,1.3c-4.6,0-3.9,1.3-4.3,2.2
							c-0.3,0.9-2,1.6-11.1,0.8c0.3-0.2,1.9-0.2,2.4,0c-2.4-2.2-11.1,0.2-15.1,1c1,1.2-3,1.5,3.9,2c-2.3-0.6,5.8-2.9,12.6-1.6
							l-1.3,2.4c0,0,2.4,0.1,4.8,0.2c2.4,0.1,4.8,0.3,4.8,0.3h-0.9c3.5,1.9,10.3,0.3,16.8,2.2c4.9-0.6,22.9,3.8,15.7-0.2
							c5.5,2.9,11.1,2,17.6,3.5c0,0-1.9-0.8-3.8-1.6s-3.8-1.5-3.8-1.5c10,0.7,6.9,1.2,15.3,0.7c0.6,0.9,2.1,2,0.3,2.2
							c12.6,3.9,29.6,12.3,37.2,14.3c4.2,2.1,6,4.3,8.5,6.3c2.4,2.1,5.2,4.3,11.1,7.3c1.3,0.6,1.2-0.2,1.5-0.5
							c0.5-0.2,1.4,0,4.8,2.8c0.3,0.5-7.8-3.3,0.1,2.1c1.6,0.6,3.3,1.5,4.9,2.7c1.5,1.2,3.1,2.6,4.6,3.9c3.3,2.8,6.4,6,10.3,8.2
							c3.1,3.5,9.1,9.1,6.7,8.9c-5-5.5-13.2-12.1-15-12.5c1.4-0.1-3.6-3.9,1.2-1.2c-8.1-7.8-6.2-3.8-13.9-10.4
							c-0.9,0.1,3.3,4.3,5.2,5.1c-1.2,1.5-16.6-10.6-10.8-3.4c8.4,6.2,13.7,4.6,19.4,12.3c-3.6-1.4-7.4-5.8-12.5-6.9
							c0,0,0.3,0.3,0.8,0.8c0.5,0.5,1.2,1.2,1.9,1.9c1.4,1.3,2.7,2.7,2.7,2.7s1.3,0.6,2.6,1c1.3,0.6,2.6,1.2,2.6,1.2h-0.5
							c8.7,10.1,10.7,6.4,20,14.2c-3.8-6,3.7-1.4,0.7-5.8c5.9,5.7,9.9,10.3,8.1,11.8c-5.7-5-6.3-4.6-6.7-4.4
							c-0.5,0.3-0.8,0.8-6.4-3.4c1,2.1-4.3-0.2,1,5.8c7.3,5.6-0.7-3.1,6.2,3c0.2,0.5,0.5,1,0,1c3.6,2.4,2.9,3.9,7.2,7l-1.2-0.7
							c3,5.6,5.5,4.4,7.7,9.5c-0.1-2.7,3.1,2.1,5.9,4.4c-2.7-4.9-2.7-8.6-9.9-17.2c-1.7-0.2-1.7,0.8-5.1-2.2l4.8,5.2
							c-1.2-1-2.2-1.7-3.3-2.7l-3.9-5.6c6.3,5.9,4.6,2.1,8.1,4.1c4.8,6.5,4.4,5,7.2,9.2c-1.5,0.6,6.6,14.3,10.4,22.6
							c-0.7-1.3-1.7-2.7-2.2-3.6c-4.5-4.9,1.2,4.5,0.8,5.1l3.1,3.7c-0.6-0.7-1.5-1.6-0.7,0.3c3.5,5.5,4.9,4.3,8.1,10
							c-0.7,0.8-4.4-3.3-3.1,0.5c-0.1,0.8-0.1,2.4,0.5,4.8c0.5,2.3,1.4,5.5,3.6,9.1c0.6,0.3,1.6,2.3,2.7,4.6
							c-0.2-0.3-0.3-0.7-0.5-0.8l1,5.6c-3.3-3.8-2.8-9.3-6.4-13.1l-1.6,0.3c-1.4-3.4-4.4-7.5-6.2-9.2c2.3,5.1,3.3,5.9,6,11.6
							c-0.6,1.2-3-2.4-3.4-3l1.2,0.5c-0.8-3.7-2.6-5.9-4.4-8.4c-1.7-2.4-3.9-5-6-9.1c-0.6-1.3-0.1-0.6,0.3-0.5
							c-5-5.6-7.3-13-13.3-17.6l2.1,1.4c-0.8-0.9-2-2-3.1-3.3c-1.3-1.3-2.7-2.6-4.3-4.1c-3-2.9-6.7-6-10.6-9.1l-1.2,0.9
							c0.5,1-1.9-1.6-3-3.1l0,0c-1.9-1.4-3.7-2.9-5.5-4.2c-1.8-1.3-3.5-2.4-5-3.6c0.6,1,1.4,2.3,2.7,3.6c1.6,0.5,7.1,7.1,7.4,5.1
							c2.1,3.5,7.2,7.5,8.6,10.2c-1.3-2.4-0.3-2,0.9-0.8c1.4,1.2,3.1,2.9,3.8,3c0.1,1,1.4,2.6,2.4,3.9c0.9,1.4,1.7,2.6,0.9,2.7
							c0.3,1-0.7-2.7-2.9-3.9c-2.2-1.9-0.9,0.3,0.3,2.4c1.2,2.1,2.2,4.1-0.2,1.6c6,6.5,12.1,16.6,17.5,24l-2.1-4.8
							c2,3.6,6.5,12.2,6.3,13.1c-1.5-2.6-3-5.8-5.2-9.1c-1.4,0.6,4.3,8.2,3.6,9.1c0,0,0.5,0.6,1.2,1.4c0.7,0.8,1.5,2,2.4,3.1
							c1.7,2.3,3.5,4.6,3.5,4.6l-2-4.5c2.2,2.4,5.2,12.5,7.4,19.8c-1.7-1.7-2.6-4.4-3.7-7.5c-1-3.1-2.1-6.9-4.3-10.3
							c-3.1-4.9-0.5,4.1-3.1-0.7c0.1,1.5,1.6,4.6,2.8,6l0.5,2.1c-1.7-2-3.7-5.2-5.8-8.9c-2.1-3.7-4.5-7.4-6.9-10.3
							c0.5,0.5,0.9,0.8,1.2,0.9c-2-5.1-4.8-10.2-8.1-14.4c1,2.7,2,3.4,3,4.6c-0.2,0.3-3.3-3.7-4.6-5c2.2,4.5-0.5,1.4,0.9,4.2
							c-2.2-2.4-3.4-4.8-5.5-8c-0.6-2.1,1.9,0.8,2.4-0.1c-2.9-2.9-1.9-5.9-6.5-10.1c4.5,6.5-3-0.3-5.1-2.1l0.8,1
							c-2.4-1.3-3.7-2.8-4.1-4.8c2.6,2.1,4.1,4.8,4.4,3.4c-1.3-1.6-2.8-3.3-4.6-4.9l2.1,1.2c0,0-1.7-2-3.6-3.9
							c-1.7-2-3.6-3.8-3.6-3.8c-1.9-0.5-4.9-1.5-7-1.5c-1-2.4-4.2-4.3-6.2-5.7l1,0.5c-1.3-2-4.1-4.4-6.6-6.4s-5-3.4-5.6-3.3
							c-0.5-0.7,0.6-0.3,2.2,0.2c1.6,0.6,3.7,1.6,5.5,2.2c3.3,1.3,4.8,0.9-4.6-6.3c-7.1-5.6-6.2-1.3-10.9-3.4c0,0,0.3-0.1,0.1-0.5
							c-3-2.4-3.9-1.7-6.9-3.1c1.7,1.6,4.3,3.6,5.5,3.8c-0.8,0.1-2.4-1-4.2-2.3c-1.7-1.3-3.8-2.7-5.3-3c4.2,0.5-5.9-4.6-2.9-3.8
							c-3-2.4-6.5-4.4-9.9-5.7c-3.4-1.3-6.3-2-8.4-2.3c-3.7-4.3-8.4-3.5-15.9-7.5c1.2,0.6,3.5,1,5.1,2c5,0.3-7.9-3.9-0.5-2.4
							c-1.5-0.3-0.3,0.7,1.2,1c2.7,0.8,5.5,1.4,5,0.5c0,0-1.4-1-2.9-2c-1.5-0.9-3-1.9-3-1.9l2.4,0.6c0,0-2.3-1.4-4.6-2.8
							c-1.2-0.7-2.3-1.4-3.3-1.9c-1-0.5-1.5-0.8-1.5-0.8c-0.3,0.2,0.5,0.8,0.8,1.2c-11.5-5-25.6-7.4-36.4-9.3
							c-0.7,0.9-2.7,1.3-5.5,1.4c-2.8,0.1-6.3-0.3-10.1-0.3c-3.7-0.1-7.7-0.5-11.2-0.2c-3.5,0.1-6.6,0.3-8.8,1
							c2.3-1.3,3.6-3.4,2.1-4.3c2-0.1,6-1.7,10.6-1.3c0.7,0.7,6.2,1.9,2.6,2.3c12.4,0.5-1.5-2,2.2-3.3c-13.9-0.5-21.9,2.2-30.4,3.9
							l-0.2-0.5c0,0-1.6,0.3-3.1,0.7c-1.6,0.3-3.1,0.8-3.1,0.8c2.7-0.2,3.9,0.5,3.7,1c-0.2,0.6-1.9,0.9-5.2,1l0.8-0.2
							c-2-0.2-4.9,0.1-8,0.7c-3.1,0.7-6.5,1.6-9.5,2c0,0-0.9,0.6-1.9,1c-0.9,0.6-1.9,1.2-1.9,1.2c-5.8,1.2-6.7-1.3-9.1-2.2
							c-4.6,1.3-8.1,2.7-11.1,4.4c-3,1.7-5.6,3.4-8.5,5.2c-1.6,0.1-5.7,1.2-8.6,2.1c-2.9,0.9-4.5,1.2-1.4-0.9
							c-7.4,4.5-3.3,8.8-17.5,13l2.7-2.8c-6,3.5-13,8.4-18.8,13.1c-1.5,1.2-2.9,2.3-4.2,3.4c-1.3,1-2.6,2.1-3.7,3
							c-2.3,1.9-4.3,3.3-5.6,4.2c0.7-3.1-3.1-1-7.9,1.7c-4.5,2.9-10,6.6-12.2,6.3c1,0.1-2.4,4.2-2.6,5c-1.2,0.5-2.8,1.6-3.6,3.8
							c2.1-1.9,2.2-0.5,2.4,0.2c0.3,0.7,0.7,0.7,3.8-3.6c-0.9,2.8-2.1,5.8-3.8,9.2c-2,3.4-4.3,7.2-7.8,11.7l-1.2-1l5.9-6.9
							c-1.5-0.1,1.6-3.6,2.4-5.3c-3,3-4.5,4.4-5.3,4.9c-0.8,0.5-1,0-1.2-0.5c-0.2-0.9-0.6-1.7-5.8,5.3c-0.1,2,0.1,0.8-2.2,4.8
							c1.2-1.7,0.6-2.7-1.5,0.1l-0.9,3.4c-2.7,1.9-1.9-0.6-0.5-2.9c1.3-2.3,2.7-4.8,0.5-3.1c2.8-6.4,10.2-16.2,7.1-15.8
							c-7.8,8.5-3.5,10.4-11.1,19.5l-1.4,0.6c-1.7,3.8-0.9,5.1-1.4,7.4c-0.5-0.1-1.4,0.6-2.9,2.8c-1.9,7-3.5,11.4-4.4,18
							c1.5-3.9,2.8-6.6,3.9-8.7c1.2-2.1,2.3-3.6,3.4-5c2.1-3,4.4-5.9,8.6-13.6c-1,2.6-7.1,13.2-5.5,15l-1.3-0.9
							c-2.1,5.2-3.9,10.6-7.4,16.6c0,0,0.2-1,0.5-2.1c0.2-1,0.6-2.1,0.6-2.1c-1.6,4.4-3.6,7.7-5.5,10.9c-1.6,3.3-3.3,6.3-3.3,10.3
							c0.9-2.4,1.7-4.3,2.1-5.9c-1.2,4.6-3.1,10.3-5,15.2c0,0-0.1,2.8-0.2,5.5c0,1.4-0.1,2.7-0.1,3.7c0,1,0,1.7,0,1.7
							c-0.7-0.2-2.3,6.3-2.8,2.8c-0.7,1.9-1.2,3.4-1.5,4.9c-0.2,1.5-0.2,2.8-0.2,4.1c0.1,2.4,0.3,4.5,0.2,6.7
							c-1.3,3.7-1.3,2.1-1.2-0.7c0.2-2.8,0.6-6.6-0.3-7.2c-0.6,2.7-1.3,5.3-1.6,8s-0.6,5.3-0.8,7.9c-0.2,5,0,9.5,0.6,12.6
							c0.3-2.2,0.8-3.3,1.2-3.1c-0.6,0.2-0.6,4.6-0.7,7.1l0.9,1.7c-0.8,4.1-1.4,3.5-2.1,0c-0.3,3.9,1.9,8.5,0.5,12.6
							c-0.7-3.3-0.9-7.1-0.8-10.6c0.1-3.4,0.2-6.4-0.1-8.1c0.3,7-0.6,10.6-1.2,14.6c-0.2,2-0.7,4.2-0.7,6.9c0,2.8,0.2,6,0.9,10.6
							c-0.5,0.2-1.7-2.7-1.4,0.8c1.4,7.9,2.3,1.9,3.8,4.2c-1.5-5.9-1-8.8,0-12.5l0.9,1.5c-0.3,0.2-0.2,4.1-0.5,5.2l1.9,0.8
							c-1.9-0.2-2.7,6-1.2,10.7c0.6-5,0.8-3.7,2.7-5.2c1.4,3.1,1.3,5,1.2,7.1c-0.1,2-0.3,4.2,1.6,7.5c-0.8-0.3-2.4-6.7-1.9-1
							c0.9,4.5,2.2,3.6,3.4,6.5c-2.3-3-3.3-1.9-5.9-5.2c-1.9-8.2-0.6-3.4-2.8-11.4l-0.1,7.1c-1.5-7-2.7-4.9-3.4-5.3
							c0.6,12.6,4.1,8.7,5.3,16.6c1.9,3.5-1.4-7.2,0.9-1.7c1.4,7.2,1.4,1.4,4.2,9.1l-1-1.2c-0.2,2.7,1.5,4.8,2.7,7.4
							c1.5,2.8,3.9-5,8.4,7c-0.7-0.5-0.9-0.6-1.2-0.5c0,0-1-0.5-2.7-1.2c-1.5-0.7-3.6-1.7-5.7-2.7c-2.1-1-4.2-2.1-5.7-2.8
							c-1.6-0.8-2.6-1.4-2.6-1.4c3.9,13.3,9.7,28.3,17.1,42.8c-0.1,2.3-2.1,0.1-3.9-2.7c-1.7-2.7-3.6-5.9-3.9-5.2
							c0,0-0.8-1.7-1.4-3.5c-0.7-1.7-1.3-3.5-1.3-3.5c0.9,0,7.2,13.9,5.9,7c-6.5-11.5-7.7-17.3-13.8-28.3
							c-1.3,4.5,5.9,15.4,7.7,23.4c-1.3-3.3-2.8-5.7-4.2-8.1c1.3,3.6,2.9,7.2,4.4,11.2c1.7,3.7,3.4,7.7,5.5,11.6l1.5,1.4
							c-2.8-5.2-4.2-9.1-4.4-9.5c3.3,7.1,8,12.1,9.9,11.6l-0.6-1.3l1.9,2.1C116.6,402.6,117.6,404.1,118.4,405.9z M507.6,341.7
							c0.1,0.5,0.2,0.9,0.3,1.3C507.9,342.7,507.6,342.9,507.6,341.7z M80.3,260.5c-1.9,10.4-2.8,21.1-3,31.4
							c0.9-4.6,2-8.8,2.8-12.1c0.9-3.3,1.9-5.5,2.6-6.3c1.4-1.5,1.3,2.8,1.2,17.7l0.3,2c0.1-2,0.3-4.5,0.5-7.5
							c0.1-2.9,0.1-6.2,0.2-9.3c-0.5-2.6-1.7-8.1-2.4-13.1c-0.5-2.4-0.8-4.8-1.2-6.5c-0.2-1.7-0.5-2.8-0.6-2.8
							c-1.4,1.6-0.7,4.5-1.4,7.9L80.3,260.5z M87.6,254.2c1.4-5.6,0.3-4.5-0.2-5.6c-0.2,2.1-0.6,4.1-0.8,6
							C87,254,87.3,253.7,87.6,254.2z M86.7,248.8c-0.1,0.7-0.2,1.2-0.5,1.5L86.7,248.8z M93.8,361.9c-0.1-0.2-0.1-0.3-0.2-0.6
							c0.3,1.4,0.8,2.7,1.2,4.1C94.7,364.8,94.5,363.8,93.8,361.9z M91.9,350.1l-1.7-0.9c0.3,1.3,0.6,2.6,0.9,3.8
							C91.7,352.3,92,351.7,91.9,350.1z M89.1,312.1c-1.9-2.2-2.4-10.2-4.4-10.6c-0.5-0.5-0.6,1.2-0.6,3.1c0.1,2.1,0.2,4.4,0.3,6.7
							c0.2,0,0.6,0.5,0.9,1.3c0-2.3,0.3-3.9,1.6-3.1c-2,6.3,2.4,5.1,2.6,11.7C91.1,323,89.9,314,89.1,312.1z M435.1,122.6
							c0,0.2,0.2,0.9,0.7,2l-4.2-2.1c-1.5-1.4-2.9-2.8-4.3-4.2c-1.4-1.3-2.7-2.7-4.1-3.8c-2.7-2.6-5.6-4.5-9.3-5.5
							c-2.6-2.4-3.6-4.4-4.6-6.2c1.4,0.9,2.8,1.7,3.8,2.7c10,4.2,11.6,6.7,12.8,8.8c0.6,1,1,2.1,2.3,3.4
							C429.3,118.8,431.3,120.5,435.1,122.6z M350.9,77.2c0.8,0.1,1.3-0.1,1.3-0.1c-19.1-1.2-34.3-1.3-44.3-1.9
							c0.9,0.7,3.6,1.4,6.5,2.2s6.2,1.3,8.1,2c0,0-0.9,0.2-2,0.6c-0.9,0.3-1.9,0.7-1.9,0.7l-2.2-1.4l-6.5,0.9
							c1.7,1.2,6.9,1.4,10.3,2.4c0.2-0.2,11.5-0.8,14.7-1c0,0-2.1-0.7-4.3-1.3c-2.2-0.6-4.3-1-4.3-1c2.3,0.6,14.2,2.1,18.8,2.9
							c0.1-0.3-1.7-1.4-3.7-2c-2.1-0.6-4.4-0.8-5-0.1c-0.8-1.3,8.5,0.3,2.9-2c3.6-0.1,8.1,1,12.4,2.1c4.2,1.2,8,2.8,10.6,3.7
							l0.2,2.1c5.1,2.6,4.4-1,10.6,2.2c-8-2.3,0.6,2.4-5.7,0.5c1.7,1.4-0.6,2,5.6,3.9c5.9-0.3,5.8,3.8,11.5,3.9c2.8,2.1-3.9-0.1,2,3
							c3.8,0.9,5.7,1.3,6.7,1c1-0.1,1.4-0.8,2.1-1.5c-3.1-2-5.3-2.2-7.2-2.4c-2-0.2-3.7-0.3-6.4-1.7c0,0,3,0.5,6,0.9
							c1.5,0.2,3,0.5,4.2,0.7c1.2,0.2,1.9,0.3,1.9,0.3c-1.7-1.4-3.3-2.1-4.5-2.6c2.3,0.8,4.4,1.3,6.2,1.5c1,0.1,2.1,0.2,2.9,0.5
							c-1.5-0.8-3-1.5-4.4-2.3c-1.4-0.7-2.7-1.3-3.8-1.9c-2.2-1.2-3.8-2.1-4.2-2.7l1.3-0.5c-1.9-1.9-5.9-2.7-7.9-2.7
							c-5.8-2.3-12.2-2.8-13.1-4.4h2.4c-3.6-1.2-5.7-1.6-8-2.2C358.2,79.2,355.6,78.2,350.9,77.2z M125,153.7
							c2.8-0.8,5.5-1.7,9.2-4.4c3.7-2.7,8.5-7.2,16-14.8l-1,1.3c2.3-1.4,4.2-3.3,6.2-5.1c2-1.9,3.7-3.8,5.6-5.9
							c3.8-3.9,8-8.1,14.2-11c-4.4,4.6-4.2,4.4-7.8,11l4.6-4.9c-0.3,2.6,4.4-2.1,8.5-4.9l-2.2,4.3c-1.4,0.6-3.6,1.9-5.5,3.3
							c-1.7,1.3-3.1,2.6-2.9,2.7c0.6-0.6-1.7,0.3-4.9,2.1c-3,1.9-6.7,4.4-8.9,6.9c1.4,0.6,11.2-8.5,8.2-2.8c3.3-4.2,4.9-3.3,8.7-7.1
							c-3.5,3.9,0.2,2.4-2.1,5.6c0,0,1.6-1.4,3.3-2.9c1.6-1.5,3.4-2.8,3.4-2.8c0.3,0.1-9.4,8.7-2.7,5.7c2.2-2.9,10.6-7.3,9.7-8.8
							l0.5,0.2c5.7-3.3,1.2-3.5,8.5-7c-0.3-0.7-2-0.5-4.3,1.3c-1.9,1.6-1.6,2.7-5.7,5.7c-1.3,0.1,0-0.7,1-1.5c1.2-0.8,2-1.6,0-1.5
							c-2.1,0.1-10.6,8.5-8.8,4.4l5.6-3.6c-0.8-1.4,3.3-4.1,2.6-5c3.1-2.7,7.3-3.4,10.4-6.5c1-1.7-2.6-1.9,3.9-4.6
							c1.5-0.1,3.5-0.7,5.7-1.5s4.8-2,7.2-2.9c5-2.2,10.1-4.4,12.9-5.6c0,0,1.2-0.7,2.3-1.4c1.2-0.7,2.3-1.3,2.3-1.3
							c-0.8-0.9-9.4,3.7-6.7,1.3c0,0,1.9-0.8,3.8-1.7c2-0.8,3.8-1.5,3.8-1.5l-0.3,0.8c2.7-0.7,5.1-2.3,7.4-3.4
							c-2.1,1.9-7.9,3.4-6.3,4.5c3.7-0.9,4.4-0.6,7.8-1.9c-0.7,0.3-1.3,0.7-1.2,0.8c7.7-1.4,6.7-3.8,8.5-4.9c3.6-2,1.5-2.1-1.4-1.7
							c-2.9,0.3-6.6,1-6.4,0.1c0,0,1.4-0.5,3.5-1.2c1-0.3,2.3-0.7,3.6-1.2c1.3-0.3,2.8-0.7,4.2-1.2c5.7-1.6,11.5-2.8,11.5-2.8
							c-1.9,0.9-3.7,1.7-2.9,2.3c5.8-0.2,0.3,1.3,8.2-0.2c-0.5-1.2,2-1.7,5.2-2.4c1.6-0.3,3.5-0.7,5.2-1c1.7-0.3,3.5-0.6,4.9-1
							c2.8,0.7,3.3,0.8-2.6,1.3c0.8,1.4,8.5,0.1,11.4,0.2c1.6-0.3,4.3-0.7,6-1c-2.3-0.7-1.4-1.6,3.7-2.3l0.3-0.3
							c-4.2-0.1-9.5-0.6-14.6-0.6c-5,0.1-9.5,0.3-12.2,1.5l1.4-0.9c-4.9,0-10.2,1.3-14.7,2.7c-4.5,1.2-8.2,2.4-10.9,1.5
							c0.1-1.2-2,0.2-2.2-1.4c0,0-1.7,0.7-3.4,1.4c-1.6,0.8-3.3,1.6-3.3,1.6l1.3-1c0,0-2.9,0.9-5.8,1.9c-2.9,0.9-5.8,2-5.8,2
							l0.2-0.3c-2.6,1.6-4.8,3-6.7,4.3c-2,1.4-3.6,2.7-5.1,3.7c0.2,0.7,0.7,0.7-0.9,1.9c-1.6,1-3,1.6-4.2,2.1l0,0l0,0
							c-2.8,1-5,0.9-8.5,2.1c0,0,2.6-1.2,5.1-2.4c1.3-0.6,2.6-1.2,3.5-1.6c0.9-0.4,1.6-0.7,1.6-0.7c0.3-1.4-0.9-2.2-6.4-0.7
							c2.1-0.9,2.6-2.2-0.1-1.2c-0.1,0.3-6.5,3.7-3.6,3.5c-4.8,2.6-11.5,5.1-18.4,8.7c-3.5,1.7-7,3.9-10.6,6.2
							c-3.4,2.3-6.7,5-9.7,7.9c4.4-4.1,2.2-2.9,0.2-1.9c-1.9,1.2-3.7,2.2,1.5-2c-4.4,1.9-5.6,3.6-6.7,5.3c-1.2,1.7-2.3,3.6-5.9,6.6
							c-1,0,3.8-3.3,4.8-5.6c-6.4,4.6-10.9,9.5-15,14.7c-2.1,2.4-4.1,5.1-6.2,7.7c-2.2,2.6-4.4,5.2-6.9,8l-1.5-0.5
							C128.6,148.3,126.7,151,125,153.7z M109.7,179.3c-1.3,2.6-2.7,5.1-3.8,7.9c0.1-0.2,0.2-0.5,0.5-0.7l-2.9,8.1
							c2.9-4.4,5.9-6.7,3.3,0.1c-0.2-0.8-1.9,0.8-1-1.6c-1.5,2-3.6,5.3-4.9,8c-1.3,2.7-1.7,4.6-0.2,3.8c2-9.4,3.5-0.8,5.1-8.1
							c-0.3,4.2-2.6,7.4-3.5,11.1c0.3-4.1-2.9-0.2-5.6,5c-0.7,2.4-3.1,8.9-3.9,13.2c1.7-1,1.4,2.7,3.8-3.7c-0.2,1.3-0.6,2.8-1.2,4.5
							c-0.5,1.7-1.2,3.7-2.1,5.7c0.2-1.7,0.9-4.6,0.3-4.6c-2,2.3-2.8,5.6-3.8,7.2c-0.3,1.4-0.6,2.9-0.8,4.3c0.2-0.3,0.5-0.7,0.7-0.9
							l0.1,5c0.8-6.4,1.3-2.7,2.1-2.4c-1.5-0.6-1.2,3.9-1.5,6L93,243c0.1,1.2-0.6,3.1-1.2,4.5c-0.5,1.5-0.8,2.6,0.1,2.2
							c1.3-4.9,2.2-8.1,2.9-11.5c0.8-3.3,1.5-6.3,2.6-10.8l-2.2,3.1c0.9-5.1,2.1-6.4,3.3-7.8c1.3-1.4,2.3-3,4.4-8.2
							c0.5-4.9,6.6-15.8,4.6-17.1c0,1.6,5.1-5.5,6-9.3c0.1-2.4,1.7-6.5,3.1-9.7c1.4-3,2.4-5.2,0.9-3.7c-2.1,3-3.4,7.8-6,9.5l3.1-6.3
							l-3.4,3.4C112.8,179.6,111.7,179.3,109.7,179.3z M70.7,336c0,0.1,0,0.2,0,0.2V336L70.7,336z"/>
						<path fill="#FFFFFF" d="M501.8,202.6c1.4,1.6,3.1,6.5,3.8,5.1c-0.6,0.2-1.4-1.9-2.2-3.6C502.6,202.4,501.9,201,501.8,202.6z"
							/>
						<path fill="#FFFFFF" d="M503,208.7c0.5,0.2,0.8-0.2,1.6,1.9l-2.6-5.7L503,208.7z"/>
						<path fill="#FFFFFF" d="M497.2,217.7c1.9,2.6,3,4.3,4.5,8.9c-2.4,2.7-3.4-7.3-6.9-8.4c1.3,4.2,2.8,6.7,4.3,9.1
							c1.4,2.3,2.8,4.6,3.9,8.1c0.1-1.9-0.6-6.5-1.9-10.7C499.8,220.8,498.3,217.5,497.2,217.7z"/>
						<path fill="#FFFFFF" d="M492.1,215.5c0,0,0.6,1,1.3,2.1c0.6,1,1.2,2.2,1.2,2.2v-0.5c0,0-0.6-1-1.2-2.1c-0.6-1-1.3-2.1-1.3-2.1
							V215.5z"/>
						<path fill="#FFFFFF" d="M448.1,109.7c0.2-1-3-2.4-4.6-3.4C444.6,107.2,446,108.8,448.1,109.7z"/>
						<path fill="#FFFFFF" d="M467.6,454.3c0,0,1.7-2,4.4-4.9c2.6-3,5.9-7,9.2-11.2c3.1-4.2,6.3-8.4,8.5-11.8
							c2.2-3.3,3.7-5.5,3.7-5.5C486.7,431.2,480.2,440.2,467.6,454.3z"/>
						<path fill="#FFFFFF" d="M320.4,63.6c5.5,0,9.5,0,13.7-0.1c4.1,0.1,8.1,0.2,13.8,1.2c-3.5-1.4-6.6-1.7-9.3-2.2
							c-2.7-0.3-5.1-0.3-7.4-0.2c-4.6,0.1-8.9,0.3-15.2-1L320.4,63.6z"/>
						<path fill="#FFFFFF" d="M325,56.2c1.6,2-8.8,1.4-7.3,2.9c7.5,0.1,3.7-1.5,10.6-0.6L325,56.2z"/>
						<polygon fill="#FFFFFF" points="365.4,96.2 362.2,96.1 364.6,96.6 						"/>
						<polygon fill="#FFFFFF" points="273.5,57.7 274.6,57.2 269,57.4 						"/>
						<path fill="#FFFFFF" d="M275.8,56.7l-1.2,0.6L275.8,56.7z"/>
						<polygon fill="#FFFFFF" points="360.5,98.8 364.6,100.6 366.9,100.5 						"/>
						<path fill="#FFFFFF" d="M324,80.9l4.2-0.1C327.3,80.8,321.9,79.4,324,80.9z"/>
						<polygon fill="#FFFFFF" points="239.3,63.3 234.2,65.5 234.7,65.5 239.9,63.4 						"/>
						<path fill="#FFFFFF" d="M292.1,84.6c2.8,1.3-7.9,0.6-2.2,1.6C294.8,85.9,292.7,85.2,292.1,84.6z"/>
						<path fill="#FFFFFF" d="M231.3,85.7c-0.7,0.2-1.3,0.5-2,0.9C230.1,86.2,230.8,85.9,231.3,85.7z"/>
						<path fill="#FFFFFF" d="M231.3,85.7c2.1-0.7,4.3-0.9,5.7-1.6C234.2,84.2,233.3,84.7,231.3,85.7z"/>
						<path fill="#FFFFFF" d="M207.8,95.3l1.9-0.7c-1.5,1.5-0.7,0.9,0.7-0.2c1.9-0.9,1.6-1.3,1.7-1.6c0.3-0.3,0.6-0.7,0.9-1
							c-0.5,0.5-0.9,0.8-1.4,1.2C208.7,94.1,206.9,95.1,207.8,95.3z"/>
						<path fill="#FFFFFF" d="M115.2,137.4c5.8-5.9,7.3-7.3,7.9-6.2c5.6-5.3,3.4-5.8,6.3-9.5c-3,3.3-4.9,5.1-6.9,7.2
							C120.6,130.8,118.6,133.2,115.2,137.4z"/>
						<path fill="#FFFFFF" d="M129.5,121.5c0.7-0.7,1.4-1.4,2.1-2.2C130.8,120.2,130.1,120.9,129.5,121.5z"/>
						<path fill="#FFFFFF" d="M239,96.1c0,0-0.9,0.7-1.9,1.5c-0.9,0.8-1.7,1.5-1.7,1.5l1.4-0.7c0,0,0.6-0.6,1-1.2
							C238.5,96.6,239,96.1,239,96.1z"/>
						<path fill="#FFFFFF" d="M107.2,146.6c1-1.2,2.4-3.1,3.5-3.8C110.1,141.8,106.3,147.7,107.2,146.6z"/>
						<path fill="#FFFFFF" d="M143.5,137.6c0.9-0.1,4.2-3.7,5.7-4.9C147.1,134.5,144,134.6,143.5,137.6z"/>
						<path fill="#FFFFFF" d="M97.8,168.6c0.8-1.3,2.7-2.8,2.9-1.5C101.4,165,101.4,161.5,97.8,168.6z"/>
						<path fill="#FFFFFF" d="M134,147.6l0.9-0.6c0,0,0.7-1,1.4-2.2c0.7-1,1.4-2.1,1.4-2.1s-1,1.2-2,2.4
							C135,146.3,134,147.6,134,147.6z"/>
						<path fill="#FFFFFF" d="M157.9,145.8c3-4.6-8.4,3.7-2.4-3.6c-9.5,7.5,1.9,0.6-4.4,6.9C154.9,145.5,157.9,145.1,157.9,145.8z"
							/>
						<path fill="#FFFFFF" d="M151,149.1c-0.6,0.5-1.2,1-1.7,1.7C149.9,150.1,150.5,149.6,151,149.1z"/>
						<path fill="#FFFFFF" d="M101.8,209.7c0.2-0.8,0.2-1.4,0.2-2C102,208.4,101.9,209.1,101.8,209.7z"/>
						<path fill="#FFFFFF" d="M133.7,171.6c0,0,0.8-2,1.5-3.8c0.9-1.9,1.7-3.8,1.7-3.8c-2.6,5-10.2,16.4-7.9,16.7
							c2.6-3.5,5.3-8,5.9-10.3L133.7,171.6z"/>
						<path fill="#FFFFFF" d="M63.1,251v-4.2l-1.2,5C62.4,250.3,63.5,253.3,63.1,251z"/>
						<path fill="#FFFFFF" d="M61.8,252.8l0.2-0.9C61.9,252,61.8,252.4,61.8,252.8z"/>
						<path fill="#FFFFFF" d="M107.7,194.8c1.4-2.3,2.3-4.4,3.1-6.7C110,188.7,106.6,194.7,107.7,194.8z"/>
						<path fill="#FFFFFF" d="M62.9,279.9c0,0-0.1-1.6,0-3.4c0-1.6,0.1-3.4,0.1-3.4s-0.1,1.9-0.2,3.6c-0.1,0.9-0.1,1.9-0.1,2.6
							s0,1.2,0,1.2L62.9,279.9z"/>
						<path fill="#FFFFFF" d="M60.4,311.4l-0.2,1.2c0,0,0.2,1.4,0.6,2.8c0.4,1.4,0.7,2.8,0.7,2.8l0.2-1.3c0,0-0.3-1.4-0.7-2.8
							C60.6,312.8,60.4,311.4,60.4,311.4z"/>
						<path fill="#FFFFFF" d="M98.8,273.3c0.5-3.8-0.8-7-1.4-6c0,0,0,0.5-0.1,1.2c-0.1,0.7-0.2,1.6-0.2,2.6
							c-0.1,1.9-0.2,3.7-0.2,3.7c1.7-1.7,0-2.1,0.9-6.4c0,0,0.2,1.3,0.5,2.4C98.5,272,98.8,273.3,98.8,273.3z"/>
						<path fill="#FFFFFF" d="M185.8,498.2c-2.2-0.1-10.4-5.3-10.3-6.5c1.3,0.3,6,2.6,3.5,0.5c0,0-2-0.3-3.8-0.9
							c-2-0.5-3.8-0.9-3.8-0.9c-7.7-6.9,8.1,1.5,13.1,2.9c-4.3-2.7-7.3-4.1-10.4-5.6c-3-1.5-6.3-3-10.7-6.2c2.6,2,3.7,3.7,4.9,5.1
							c-0.3,0.8-2.6-0.3-5.3-2.3c-2.8-2-6.3-4.6-9.2-6.9c3.3,3.5,0.7,2.3-2.4,0.8c-0.5-0.3-0.9-0.5-1.2-0.6c-0.3-0.2-0.7-0.3-1-0.6
							l0.7,0.6c-0.2,0.1-0.1,0.5,0.1,1c5.1,3.5,8.1,7.4,11.6,9.9c-0.8-2.3,2.1-0.3,5.8,2.1c3.7,2.6,8.4,5.9,10.9,6.6l5.2,2.7l1.9,1
							c0.2,0.5-0.5,0.6-3.7-0.6c2.6,1,10.9,5.2,10.6,4.1c0,0,1.2,0.6,2.9,1.5c1.7,0.8,4.2,1.9,6.6,3c2.4,1,4.8,2.2,6.6,2.9
							c1.9,0.7,3,1.2,3,1.2c0.6,0.3,1.2,0.7,1.5,1c0.7,0.1,0.9,0,0.9-0.1c0,0,1.4,0.5,3.7,1.4c2.3,0.8,5.8,2,10,3.3
							c8.2,2.4,19.4,5.6,30.7,7.3c5.6,1.2,11.4,1.6,16.7,2.3c5.3,0.3,10.4,0.9,14.7,0.9c4.3,0.1,7.8,0.1,10.4,0.2
							c2.6-0.1,3.9-0.1,3.9-0.1c-4.5,0-8.4-0.9-13.1-1.3c7-1.7-7.5-0.6-5.5-2.4c3.1-0.3,7.7-0.2,10.4,0.3c1-0.9-2.8-1.7-2.3-2.9
							c-5.6-0.7-8.8-0.1-12.2,0.5c-3.3,0.7-6.6,1.3-12.2,0.2c0.6-1,4.1-1.5-3.1-2.3h1.9c-5.8,0-7.9-1.3-9.5-1.9
							c-1.6-0.7-2.7-1-6.6-0.2l0.5-1.5c-2.7,0-6.5-0.6-10.4-1.3c-3.8-0.8-7.7-1.9-10.6-2.6l0.5-0.2c-16-3.4-8.8-2.2-26-8.4
							c0,0,0.5,0.1,1.3,0.2c0.8,0.2,1.9,0.3,2.9,0.6c2.1,0.3,4.2,0.7,4.2,0.7c-5.5-2.9-7.5-1.7-11.6-3.7c0.5-0.1,0-1.6,3.9-0.1
							c0,0-1.3-0.3-3.3-1c-2-0.6-4.6-1.4-7.2-2.3c-2.6-0.9-5.2-1.9-7.2-2.6c-2-0.7-3.3-1.3-3.3-1.3
							C179.7,494.2,185.4,497.3,185.8,498.2z"/>
						<path fill="#FFFFFF" d="M163.3,481.3c-0.9-0.7-2-1.5-3.3-2.4C161.1,479.8,162.1,480.6,163.3,481.3z"/>
						<path fill="#FFFFFF" d="M309.9,529.3l-6.4,0.2C305.5,529.6,307.6,529.6,309.9,529.3z"/>
						<path fill="#FFFFFF" d="M136.4,463.9c2.2,3.3-2.9-1.2-3.8-1.2c0,0,2.6,2.4,5.1,4.8c2.7,2.3,5.2,4.5,5.2,4.5
							c0.3-0.5,1.9-0.1,2-0.7c0,0-2.2-1.9-4.3-3.7c-1-0.9-2.1-1.9-2.9-2.6C136.8,464.3,136.4,463.9,136.4,463.9z"/>
						<path fill="#FFFFFF" d="M145.3,475.6c0.6,0,2,0.6,3.6,1.4c0,0-1.5-1.2-3-2.4c-1.4-1.3-2.9-2.6-2.9-2.6
							C142.6,472.5,143,473.3,145.3,475.6z"/>
						<path fill="#FFFFFF" d="M165.2,449.6l1.6,1.4l2.9,1.6c0,0-1.2-0.7-2.3-1.4C166.3,450.4,165.2,449.6,165.2,449.6z"/>
						<path fill="#FFFFFF" d="M191.2,471.5c-1.7-2.1-6.3-4.2-7.8-4.9C188.3,469.6,186,468.8,191.2,471.5z"/>
						<polygon fill="#FFFFFF" points="190.6,459.4 195.3,461.7 195.1,461.3 						"/>
						<path fill="#FFFFFF" d="M355.6,516.5c0.9-0.2,1.9-0.5,2.8-0.8C357.1,516,356.3,516.1,355.6,516.5z"/>
						<path fill="#FFFFFF" d="M304,524.8c14.7,1.4-9.5,1.7-5,3.8l8-0.9l-0.7,0.6c0,0,2.4-0.1,4.9-0.2c2.4-0.2,4.9-0.5,4.9-0.5
							c-2.1-0.9-3.6-0.8-3.3-2c13-0.6,4.2,1.2,13.9,1.5c0,0,3.6-0.5,7.2-1c3.6-0.6,7.2-1.3,7.2-1.3l-1.2,0.6
							c1.2-0.2,1.7-0.5,2.1-0.7c0,0,12.3-2.2,24-6c3-0.8,5.8-1.9,8.6-2.8c2.7-1,5.2-1.7,7.4-2.7c4.3-1.7,7.1-2.9,7.1-2.9
							c7.9-4.2-5.3,0,0.1-3.9c-9.4,4.1-24.3,7.5-24.6,9.9c0.2-0.3,0.7-1.2-1.4-0.8l-5.1,3.2l5.6-1c-1.3,0.8-3.5,1.7-6,2.7
							c-2.6,0.8-5.6,1.6-8.6,2.2c-5.9,1.3-11.8,1.7-13.6,1.5c10.8-2.7,4.9-3.4,20.1-5.7c-0.8-0.3-3.7-0.7-0.5-1.7
							C338.3,521.3,322.3,522.5,304,524.8z"/>
						<path fill="#FFFFFF" d="M464.5,455.1v0.2C464.7,455.1,464.7,455,464.5,455.1z"/>
						<path fill="#FFFFFF" d="M459.9,459c0,0-1.2,1.9-2.4,3.7c-1.2,1.9-2.6,3.7-2.6,3.7s2.6-2.2,5-4.6c2.4-2.3,4.9-4.8,4.9-4.8
							l-0.3-1.7c-0.6,1.2-3.5,4.9-5.2,5.8L459.9,459z"/>
						<path fill="#FFFFFF" d="M448,474.1c5-5,3.5-6.2,0.1-4.3c4.3-4.8,3.8-0.8,5.9-5.1c-0.9-0.9-6.4,4.9-7.7,6.2L448,474.1z"/>
						<polygon fill="#FFFFFF" points="403.7,501.6 405.2,500 400.8,502.1 						"/>
						<path fill="#FFFFFF" d="M405.2,500l4.4-2.1c-0.6-0.3-1-0.7-2-0.6L405.2,500z"/>
						<path fill="#FFFFFF" d="M420.8,492.2c1.9-0.9,3.7-2.1,6.2-3.6c0,0-1.5,0.9-3,1.7C422.5,491.3,420.8,492.2,420.8,492.2z"/>
						<path fill="#FFFFFF" d="M415.8,494.5l0.2,0.1l4.8-2.4C419.1,493,417.5,493.7,415.8,494.5z"/>
						<path fill="#FFFFFF" d="M409.5,497.9c1.3,0.7,2.8,1.5,8.7-2.3l-2.1-0.9c0,0-1.6,0.8-3.3,1.7
							C411.2,497.2,409.5,497.9,409.5,497.9z"/>
						<polygon fill="#FFFFFF" points="223.8,478.5 228.5,479.7 228.1,479.3 223.5,478.2 						"/>
						<path fill="#FFFFFF" d="M249.7,488.1c1.2,0,2.1,0,3,0C251.4,488,250.4,488,249.7,488.1z"/>
						<path fill="#FFFFFF" d="M271.2,483.7c5.2,1.9-7.7,0.7,2.2,2.6c0.8,1.2-4.2,2.3-8.8,0.8c0.6-1,4.6,0.1,2-1.5
							c-3.4,0.7-4.4-0.3-3.6,1.4c-5.5,0.1-6.3,0.9-10.3,1.3c6.5,1,20.1,4.9,28.7,3.4c4.8-1.6,2.1-4.5,2.4-7.4
							c-0.3-0.3-3.4-0.7-6.3-1C274.5,482.8,271.5,482.8,271.2,483.7z"/>
						<path fill="#FFFFFF" d="M263.3,479.4c-2.4-0.6-3.1-0.6-4.6-0.7C258.9,479.8,261.3,479.1,263.3,479.4z"/>
						<path fill="#FFFFFF" d="M322.2,503.2c0.5-0.5,5.3-1.6,4.2-2.2c0,0-1.9,0.3-3.7,0.7c-1.9,0.3-3.7,0.6-3.7,0.6
							C320.8,502.4,321.5,502.7,322.2,503.2z"/>
						<path fill="#FFFFFF" d="M315.7,502.9l3.3-0.5C318.3,502.5,317.2,502.6,315.7,502.9z"/>
						<path fill="#FFFFFF" d="M322.6,503.4c-0.1-0.1-0.2-0.1-0.3-0.2C322.1,503.3,322.2,503.4,322.6,503.4z"/>
						<path fill="#FFFFFF" d="M438.1,481.6c0.3,0.7,3.1-1.7,4.4-3.1C441.2,479.2,439.4,480.3,438.1,481.6z"/>
						<path fill="#FFFFFF" d="M518.2,370.7l1.6-2.8C519.1,368.9,518.7,369.3,518.2,370.7z"/>
						<path fill="#FFFFFF" d="M508.9,319.4c-0.1-0.1-0.2-0.3-0.3-0.7C508.4,319.1,508.5,319.3,508.9,319.4z"/>
						<path fill="#FFFFFF" d="M508.4,318.9c-0.3-2.1,1.4-8,0.5-10.4l0.2,0.3l-0.2-4.2c-0.1,2-0.2,4.9-0.5,7.7
							C508.2,315,508.1,317.6,508.4,318.9z"/>
					</g>
				</g>
			</g>
		</g>
	</g>
</g>
<g>
	<path fill="#CCCC66" d="M120.6,472.2"/>
	<g id="wNvGUP.tif">
		
			<image overflow="visible" opacity="0.75" enable-background="new    " width="504" height="513" xlink:href="A86FEF4A6C99260.png"  transform="matrix(0.8244 0 0 0.8196 129.9996 95.2679)">
		</image>
		<g>
			<g>
				<g>
					<path fill="#CCCC66" d="M418.8,225.7c5.9,2.4,11.5,5.3,16.5,9c12.6,9.4,20.5,22.1,25.5,36.6c1.2,3.4,2.3,6.8,2.9,10.3
						c0.2,1.9-1.3,2.1-2.5,2.4c-6.9,2.1-13.8,3.8-20.8,5.4c-12.9,3.1-25.9,5.6-39,7.7c-1.5,0.2-3.1,0.5-4.6,0.2
						c-1.2-0.6-2-1.6-2.5-2.8c-4.7-9.5-12.1-15-22.8-16.1c-13.3-1.3-23.7,3.8-31.3,14.4c-1.9,2.5-3.4,5.2-4.7,7.9
						c-0.6,1.1-0.8,2.3-2.3,2.6c-2.2,0.8-4.5,0.8-6.8,0.8c-10.3,0-20.8,0.1-31.2-0.1c-9-0.2-18.2-0.8-27.2-1.4
						c-2.5-0.2-3.3-0.9-3.3-3.7c0-13.2,0-26.3,0-39.4c0-7.2,0.3-14.4-0.8-21.5c-0.1-1.5,0-3.1,0.2-4.5c0.1-2.1,0-4.1,0.1-6.2
						c0.1-1.4,0.7-2.1,2.1-2.1c0.5,0,0.8,0,1.4,0c20.4,0,40.7,0,61.1,0c1.2,0,2.7-0.5,3.3,1.3c0.3,1.2,0.5,2.4,0.5,3.6
						c-0.1,7.2,0.2,14.4-0.1,21.5c0-0.1,0,0.1,0,0.1c0.9-1.6,1.9-3.2,3.4-4.3c0.8-0.3,1.1-1.1,1.3-2c0.7-1.1,1.3-2.2,2.4-3.1
						c1.2-0.7,2.2-1.6,2.6-2.9c0.8-0.9,1.5-1.9,2.5-2.5c1.2-0.3,2-1.1,2.5-2.2c1.3-1.3,2.7-2.5,4.5-3.3c1.4-0.2,2.5-0.9,3.4-2.1
						c1.3-1.9,3.9-1.5,5.4-3.1c1.2-0.1,2.1-0.8,3.1-1.4c4.2-1.9,8.8-2.4,13.2-3.7c8.6-1.5,17.2-1.8,25.8-0.6
						c0.7,0.1,1.2,0.1,1.9,0.1c2.3,0.9,4.7,1.2,7,1.6C414.1,223,416.9,223.2,418.8,225.7z"/>
					<path fill="#CCCC66" d="M464.2,282.2c1.5,7.6,2.6,15.3,3.3,23c1.2,3.6,1.9,7.3,1.3,11c0.2,3.5,0.2,6.9,0,10.6
						c0.2,4.6,0.2,9.2,0,13.7c0.2,3.3,0.2,6.5,0,9.7c0.2,3.4,0.2,6.8,0,10.1c0.1,4.6,0.6,9-0.2,13.6c-0.1,0.5-0.2,0.8-0.7,1.2
						c-0.3,0.1-0.6,0.1-0.8-0.1c-0.9-0.9-0.8-2.3-0.8-3.5c-0.1-2.2,0-4.5,0.1-6.7c-0.2-5-0.2-10,0-15.1c-0.2-5.3-0.2-10.7,0-16
						c-0.2-4.6-0.2-9.2,0-13.7c-0.3-5.3-0.3-5.3-5.5-5.3c-18.4,0-36.8,0-55.2,0c-1.5,0-3.1,0.1-4.6-0.5c-1.3-0.2-1.5-1.2-1.8-2.3
						c-0.3-2.1-0.7-4-1.1-6c-0.8-2.7-1.9-5.4-2-8.4c0.1-0.2,0.2-0.5,0.5-0.6c7.6-1.3,15.4-2.6,23-4.1c14.3-2.7,28.3-6.1,42.3-10
						c0.7-0.2,1.3-0.5,1.8-1.1C463.9,281.8,464.1,282.1,464.2,282.2z"/>
					<path fill="#CCCC66" d="M333.8,302.8c0,0.1,0,0.3,0.1,0.5c0.7,1.1-0.2,2.2-0.1,3.3c-0.7,3.3-1.1,6.7-1.2,10
						c0.2,3.4,0.2,6.9,0,10.2c0.2,4.6,0.2,9.2,0,13.6c0.2,3.3,0.2,6.5,0,9.7c0.2,3.4,0.2,6.8,0,10.1c0.2,4.6,0.2,9.2,0,13.7
						c0.2,3.3,0.2,6.5,0,9.7c0.2,4.5,0.2,8.8,0,13.3c0.2,4.7,0.2,9.5,0,14.3c0.1,2.3,0.2,4.5,0.1,6.8c0,1.1-0.1,2.1-1.1,2.8
						c0,5.4-0.1,10.9-0.1,16.3c0,0.8,0.3,1.6-0.3,2.4c-1.2-0.8-1.1-2-1.1-3.1c0-4.2-0.1-8.5,0.1-12.9c-0.2-6.2-0.2-12.6,0-18.9
						c-0.2-6.8-0.2-13.4,0-20.2c-0.2-4.8-0.2-9.5,0-14.3c-0.2-5.4-0.2-11,0-16.4c-0.2-4.6-0.2-9.2,0-13.8c-0.2-5.6-0.2-11.3,0-16.9
						c-0.1-1.5-0.1-3.1-0.1-4.6c0-3.5-0.6-4-3.9-4c-4.1,0-8.3,0-12.3,0c-14.2,0-28.4,0-42.6,0c-4,0-4.5,0.5-4.5,4.5
						c0,1.4-0.1,2.7-0.1,4.1c0.2,5.6,0.2,11.3,0,16.9c0.2,4.6,0.2,9.2,0,13.8c0.2,5.5,0.2,11,0,16.5c0.2,3.7,0.2,7.5,0.1,11.3
						c0,1.1,0.1,2.4-1.5,2.6c-1.1-0.6-0.9-1.6-0.9-2.6c-0.1-2.5-0.1-5,0.1-7.5c-0.2-4.5-0.2-8.9,0-13.3c-0.2-3.5-0.2-7,0-10.6
						c-0.2-4.5-0.2-8.8,0-13.3c-0.2-3.4-0.2-6.8,0-10.1c-0.2-5.4-0.2-11,0-16.4c-0.1-2.1-0.2-4-0.1-6.1c0-0.9,0.1-2,1.1-2.6
						c0-12.1,0-24.1,0.1-36.2c0-9,0-18.1,0-27.2c0.6,1.1,0.3,2.3,0.3,3.4c0,19,0,38,0.1,57c0,2.9,0.3,3.2,3.1,3.4
						c19.3,1.4,38.6,1.5,57.9,1.3C328.9,303.2,331.4,302.9,333.8,302.8z"/>
					<path fill="#CCCC66" d="M467.4,333.6c0,5.3,0,10.7,0,16c-0.9,1.3-2.4,1.1-3.8,1.1c-8.7,0-17.5,0-26.2,0c-9.9,0-19.5,0-29.3,0
						c-5,0-5.2,0.2-5.3,5.2c-0.1,1.3,0.6,3.1-1.5,3.5c-0.9-0.6-0.9-1.5-0.9-2.4c-0.1-2.3-0.1-4.6,0.1-6.8c-0.1-3.2-0.3-6.3,0.1-9.4
						c-0.2-2.2,0.3-4.2,0.7-6.3c0.2-1.2,0.8-1.8,2-1.9c0.9-0.1,2-0.1,2.9-0.1c19,0,37.8,0,56.8,0C464.5,332.5,466.2,332,467.4,333.6
						z"/>
					<path fill="#CCCC66" d="M401.3,359.3c0.8-2.2,0.5-4.6,0.3-6.8c-0.1-2.2,0.8-2.8,2.9-2.8c20.9,0.1,41.9,0,62.8,0
						c0,5,0,10.1,0,15.1c-0.9,1.3-2.4,1.1-3.8,1.1c-8.5,0-17.1,0-25.6,0c-10.2,0-20.5,0-30.6,0c-3.8,0-4.3,0.6-4.5,4.3
						c0,1.6,0.1,3.4-0.1,5c-0.1,0.8-0.2,1.9-1.4,2c-1.3-0.8-0.8-2.1-0.9-3.3c-0.1-4.6-0.6-9.2,0.3-13.7
						C400.7,359.9,401,359.5,401.3,359.3z"/>
					<path fill="#CCCC66" d="M401.3,377.2c0.8-3.2,0.3-6.3,0.3-9.6c0-2.2,0.8-2.8,2.9-2.8c20.9,0.1,41.9,0,62.8,0c0,3.4,0,6.8,0,10
						c0.5,1.5,0.3,3.2,0,4.7c-1.2,1.3-2.8,0.9-4.3,0.9c-16.4,0-32.8,0-49.3,0c-2.4,0-4.9,0-7.3,0c-2.8,0.1-3.5,0.8-3.6,3.6
						c0,0.9-0.1,2-0.2,2.9c-0.1,1.3,0.5,2.7-0.8,3.8c-0.2,0.2-0.6,0.2-0.8,0c-1.3-1.3-0.8-3.1-0.8-4.7c-0.1-0.8,0.1-1.8,0.1-2.7
						c-0.1-1.4-0.2-2.8,0-4.3C400.4,378.4,400.5,377.5,401.3,377.2z"/>
					<path fill="#CCCC66" d="M467.4,333.6c-20.8,0-41.7,0-62.6,0c-3.1,0-3.1,0-3.1,3.1c0,1.4,0.3,2.9-0.3,4.2
						c-0.2-0.1-0.5-0.3-0.7-0.7c-0.9-2.7-0.5-5.5-0.6-8.4c-0.1-1.8,0-3.5,0.1-5.3c0.1-2.4-0.8-4.9,0.7-7.2c1.2-0.8,2.5-0.8,3.7-0.8
						c19.6,0,39.2,0,58.8,0c1.3,0,2.8-0.2,3.8,1.1C467.4,324.4,467.4,329,467.4,333.6z"/>
					<path fill="#CCCC66" d="M400.8,316.2c0-0.8,0-1.9,0-2.7c21.4,0,42.7,0,64.1-0.1c2,0,2.6,0.8,2.5,2.5c-0.1,1.3,0,2.6,0,3.9
						c-22.1,0-44,0-66.1,0C399.7,318.8,399.7,317.6,400.8,316.2z"/>
					<path fill="#CCCC66" d="M467.4,379.5c0-1.5,0-3.1,0-4.6c0.1,0,0.2,0,0.3,0c0,6.1,0.1,12.2,0.1,18.3c0,5.8,0,11.6,0,17.5
						c0,3.4,0,6.8,0,10.1c0,5.4,0,11-0.1,16.4c0,0.8,0.5,1.6-0.5,2.3c-1.1-0.8-1.1-2-1.1-3.1c0-4.9-0.1-9.9,0.1-14.7
						c-0.2-5.8-0.2-11.6,0-17.5c-0.2-5.6-0.2-11.4,0-17c-0.1-1.8-0.2-3.5-0.1-5.3C466.5,381.1,466.6,380.2,467.4,379.5z"/>
					<path fill="#CCCC66" d="M160.4,175.3c-0.5-1.2-0.8-2.5-1.3-3.7c-0.3-1.5-0.7-3.1-0.9-4.6c-0.2-1.5-0.3-3.1-0.5-4.6
						c0-1.6,0-3.4,0-5c0.2-1.5,0.3-3.1,0.6-4.5c0.5-1.9,0.8-3.7,1.4-5.4c0.8-2.1,1.9-4,2.7-6.1c1.4-2,2.7-3.9,4.1-5.9
						c2.3-1.8,3.8-4.2,6.5-5.6c2.3-1.2,4.6-2.4,6.9-3.7c4.3-1.5,8.7-2.6,13.3-2.7c1.5-0.2,3.1-0.2,4.5,0c5.3,0.3,10.3,1.5,15.1,3.6
						c1.6,0.9,3.4,2,5,2.9c1.5,1.3,3.1,2.7,4.6,4c1.5,1.9,3.1,3.8,4.5,5.6c0.7,1.2,1.3,2.4,2,3.6c0.7,1.5,1.2,3.1,1.9,4.6
						c0.3,1.2,0.7,2.4,0.9,3.6c0.3,1.8,0.6,3.4,0.8,5.2c0,0.6,0.1,1.2,0.1,1.8c0,1.4,0,2.7,0,4.1c-0.1,1.4-0.3,2.7-0.5,4.1
						c-0.3,1.4-0.6,2.7-0.8,4.1c-0.5,1.5-0.9,3.1-1.4,4.6c-0.7,1.3-1.3,2.7-2,4.1c-0.8,1.2-1.6,2.5-2.5,3.7
						c-0.8,0.8-1.5,1.9-2.3,2.7c-1.3,1.2-2.6,2.4-3.9,3.6c-2.3,1.4-4.6,2.7-6.8,4.1c-1.5,0.6-3.2,1.2-4.7,1.8
						c-2.7,0.6-5.3,1.6-8.2,1.5c-0.9,0.3-2-0.1-2.9,0.3c-4.6-0.3-9.2-0.3-13.5-1.9c-1.9-0.7-3.6-1.3-5.3-1.9c-2.4-1.5-4.8-3.1-7-4.6
						c-1.9-2-3.7-4-5.5-6c-0.8-1.2-1.6-2.5-2.5-3.7C161.7,178,161.1,176.7,160.4,175.3z"/>
					<path fill="#CCCC66" d="M197.6,123.4c-1.5,0-3.1,0-4.5,0C194.5,122.7,196.1,122.7,197.6,123.4z"/>
					<path fill="#CCCC66" d="M161.9,283.5c0-3.2-0.1-6.5-0.1-9.6c0-16,0-31.7,0-47.6c22.1,0,44,0,66.1,0c0.5,0.8,0.2,1.5,0.2,2.2
						c0,22.8,0,45.5,0,68.4c-0.3,1.5-1.4,1.3-2.5,1.1c-6-0.8-12.1-2-18.1-3.1c-14.1-2.5-27.9-5.8-41.8-9.4
						C164.4,285.2,162.8,284.9,161.9,283.5z"/>
					<path fill="#CCCC66" d="M227.9,387.2c0,7.5,0,15,0,22.4c-0.9,1.3-2.4,1.1-3.8,1.1c-8,0.1-16,0-24.1,0c-11.4,0-22.8,0-34.1,0
						c-1.4,0-2.9,0.3-4-1.1c0-7.5,0-15,0-22.4c0.9-1.3,2.4-1.1,3.8-1.1c8.5-0.1,17.1,0,25.6,0c10.8,0,21.7,0,32.5,0
						C225.3,386.3,226.8,385.9,227.9,387.2z"/>
					<path fill="#CCCC66" d="M227.9,297.3c0,5.3,0,10.7,0,16.1c-0.9,1.3-2.4,1.1-3.8,1.1c-8.9,0.1-17.8,0-26.8,0
						c-10.4,0-20.9,0-31.3,0c-1.4,0-2.9,0.3-4-1.1c0-10,0-19.9,0-29.8c5.3,1.3,10.7,2.6,16,4C194.4,291.7,211.1,294.7,227.9,297.3z"
						/>
					<path fill="#CCCC66" d="M227.9,356.5c0,5.5,0,11,0,16.5c-0.9,1.3-2.4,1.1-3.8,1.1c-8.5,0.1-16.9,0-25.4,0
						c-10.9,0-21.8,0-32.7,0c-1.4,0-2.9,0.3-4-1.1c0-5.5,0-11,0-16.5c0.9-1.3,2.4-1.1,3.8-1.1c8.4-0.1,16.8,0,25.2,0
						c11,0,22.1,0,32.9,0C225.3,355.5,226.8,355.2,227.9,356.5z"/>
					<path fill="#CCCC66" d="M227.8,324.4c0,5.3,0,10.7,0,16c-0.9,1.3-2.4,1.1-3.8,1.1c-8.7,0.1-17.6,0-26.3,0
						c-10.6,0-21.1,0-31.8,0c-1.4,0-2.9,0.3-4-1.1c0-5.3,0-10.7,0-16c0.9-1.3,2.4-1.1,3.8-1.1c8.5-0.1,17.1,0,25.6,0
						c10.8,0,21.7,0,32.5,0C225.2,323.4,226.8,323,227.8,324.4z"/>
					<path fill="#CCCC66" d="M161.9,340.5c22.1,0,43.9,0,66,0c0,5.3,0,10.7,0,16c-22.1,0-43.9,0-66,0
						C161.9,351.2,161.9,345.8,161.9,340.5z"/>
					<path fill="#CCCC66" d="M227.9,423.9c0,5.3,0,10.3,0,15.6c-22.1,0-44,0-66.1,0c0-5.3,0-10.3,0-15.6c0.9-1.3,2.4-1.1,3.8-1.1
						c8.4-0.1,16.8,0,25.2,0c11,0,22.1,0,33,0C225.3,422.9,226.8,422.6,227.9,423.9z"/>
					<path fill="#CCCC66" d="M161.9,373c22.1,0,43.9,0,66,0c0,4.7,0,9.5,0,14.3c-22.1,0-43.9,0-66,0
						C161.9,382.5,161.9,377.7,161.9,373z"/>
					<path fill="#CCCC66" d="M227.9,423.9c-22.1,0-43.9,0-66,0c0-4.7,0-9.5,0-14.3c22.1,0,43.9,0,66,0
						C227.9,414.4,227.9,419.2,227.9,423.9z"/>
					<path fill="#CCCC66" d="M227.8,324.4c-22.1,0-43.9,0-66,0c0-3.7,0-7.3,0-11c22.1,0,43.9,0,65.8,0
						C227.8,317,227.8,320.8,227.8,324.4z"/>
					<path fill="#CCCC66" d="M331,384.5c0,6.8,0,13.4,0,20.2c-0.8,1.1-2,0.9-3.1,1.1c-4.3,0.1-8.7,0-13,0c-15.1,0-30.3,0-45.5,0
						c-1.4,0-3.1,0.3-4.2-1.1c0-0.5-0.1-0.8-0.1-1.3c-1.2-0.9-0.9-2.3-0.9-3.6c-0.1-1.3,0-2.6,0-3.9c0.5-3.1,0.8-6.2,0.8-9.3
						c0-2.1,0.8-2.8,2.8-3.1c0.8-0.1,1.5-0.1,2.3-0.1c18.9,0,37.7,0,56.6,0C328.1,383.4,329.7,383,331,384.5z"/>
					<path fill="#CCCC66" d="M265.2,404.7c22.1,0,43.9,0,65.8,0c0,6.3,0,12.6,0,18.8c-0.8,1.1-2,0.9-3.1,1.1c-3.9,0.1-7.7,0-11.6,0
						c-15.6,0-31.2,0-46.6,0c-1.5,0-3.3,0.5-4.5-1.1C265.2,417.1,265.2,411,265.2,404.7z"/>
					<path fill="#CCCC66" d="M467.4,421.7c0,6,0,11.9,0,17.8c-15,0-29.9,0.1-44.9,0.1c-6.9,0-13.7,0-20.6-0.1
						c-0.6-4.6-0.1-9.2-0.2-13.7c-0.1-5.3,0-5.3,5.3-5.3c18.8,0,37.4,0,56.1,0C464.5,420.5,466.2,420.2,467.4,421.7z"/>
					<path fill="#CCCC66" d="M467.4,421.7c-20.8,0-41.7,0-62.3,0c-3.3,0-3.3,0-3.3,3.2c0,4.9,0,9.9,0,14.7c-0.8-0.6-0.5-1.3-0.5-2.1
						c-0.1-5.5-0.1-11.1-0.1-16.7c-1.1-0.9-0.9-2.2-0.9-3.4c0.1-3.8,1.1-7.5,0.8-11.4c-0.1-1.6,0.9-2.5,2.5-2.7
						c0.8-0.1,1.6-0.1,2.5-0.1c19,0,37.9,0,57,0c1.5,0,3.1-0.3,4.2,1.1C467.4,410.1,467.4,415.8,467.4,421.7z"/>
					<path fill="#CCCC66" d="M265.2,423.5c22.1,0,43.9,0,66,0c0,5.3,0.1,10.6,0.1,16c-0.7,0-1.3,0.1-2.1,0.1c-20.6,0-41.2,0-61.8,0
						c-2,0-2.5-0.5-2.4-2.4C265.2,432.6,265.1,428,265.2,423.5z"/>
					<path fill="#CCCC66" d="M265.5,340c0-5.6,0-11.4,0-17c0.9-1.3,2.4-1.1,3.8-1.1c8.2-0.1,16.3,0,24.5,0c11,0,22.1,0,33.1,0
						c1.4,0,2.9-0.3,4,1.1c0,5.6,0,11.4,0,17c-0.8,1.2-2.2,0.9-3.4,1.1c-4.7,0.1-9.5,0-14.2,0c-14.5,0-29.1,0-43.5,0
						C268.4,341.1,266.8,341.4,265.5,340z"/>
					<path fill="#CCCC66" d="M331,353.8c0,5.5,0,11,0,16.5c-0.8,1.2-2.2,0.9-3.4,1.1c-4.5,0.1-8.8,0-13.3,0c-14.8,0-29.8,0-44.6,0
						c-1.4,0-3.1,0.3-4.2-1.1c0-5.4,0-11,0-16.5c0.9-1.3,2.4-1.1,3.8-1.1c7.7-0.1,15.4,0,23.1,0c11.5,0,23,0,34.5,0
						C328.4,352.7,330,352.3,331,353.8z"/>
					<path fill="#CCCC66" d="M265.5,370.3c21.8,0,43.5,0,65.5,0c0,4.7,0,9.5,0,14.2c-20.8,0-41.8,0-62.6-0.1c-2.4,0-2.9,0.8-2.9,3.1
						c0,2.8,0.5,5.6-0.3,8.4c0-0.8-0.1-1.5-0.1-2.3c-1.5-2.3-1.4-7.9,0.2-9.6c0.8-3.3,0.2-6.7,0.3-9.9
						C265.5,372.8,265.5,371.5,265.5,370.3z"/>
					<path fill="#CCCC66" d="M331,353.8c-21.8,0-43.5,0-65.4,0c0-4.6,0-9.2,0-13.7c21.8,0,43.5,0,65.4,0
						C331,344.6,331,349.2,331,353.8z"/>
					<path fill="#CCCC66" d="M331,323c-21.8,0-43.5,0-65.4,0c0-2.4,0-4.9-0.1-7.3c-0.1-1.9,0.8-2.4,2.5-2.4c6.2,0.1,12.3,0,18.5,0
						c13.6,0,27.1,0,40.7,0c3.8,0,3.8,0,3.8,3.9C331,319.2,331,321.1,331,323z"/>
					<path fill="#CCCC66" d="M401.2,411c0-4.6,0.1-9.2,0.2-13.7c0.5-2.1-0.2-4.2,0.3-6.5c0-1.2,0-2.4,0-3.7c0.9-1.3,2.5-1.1,3.8-1.1
						c7.5-0.1,15.1,0,22.7,0c11.6,0,23.2,0,34.9,0c1.5,0,3.2-0.3,4.2,1.1c0,5.6,0,11.4,0,17c-20.6,0-41.2,0-61.8,0
						c-3.6,0-3.7,0.2-3.8,3.7c-0.1,3.2,0.5,6.5-0.3,9.6C401.3,415.5,401.2,413.3,401.2,411z"/>
					<path fill="#CCCC66" d="M467.4,387.2c-21.9,0-43.7,0-65.6,0c0-1.6,0.1-3.2,0-4.8c-0.2-2.3,0.6-3.2,2.9-3.1
						c5.4,0.1,10.8,0,16.2,0c15.5,0,31,0,46.5,0C467.4,382,467.4,384.7,467.4,387.2z"/>
					<path fill="#CCCC66" d="M401.8,391c-0.2,2.2,0.5,4.3-0.3,6.5c0-0.1-0.1-0.3-0.1-0.5c0-2,0.1-4,0.1-6
						C401.6,391,401.7,391,401.8,391z"/>
				</g>
			</g>
		</g>
	</g>
</g>
</svg>
