<?xml version="1.0" encoding="utf-8"?>
<!-- Generator: Adobe Illustrator 17.1.0, SVG Export Plug-In . SVG Version: 6.00 Build 0)  -->
<!DOCTYPE svg PUBLIC "-//W3C//DTD SVG 1.1//EN" "http://www.w3.org/Graphics/SVG/1.1/DTD/svg11.dtd">
<svg version="1.1" id="Layer_1" xmlns="http://www.w3.org/2000/svg" xmlns:xlink="http://www.w3.org/1999/xlink" x="0px" y="0px"
	 viewBox="81.5 52 464.6 471.3" enable-background="new 81.5 52 464.6 471.3" xml:space="preserve">
<g>
	<circle fill="#FFFFFF" cx="320.2" cy="285.8" r="215.3"/>
	<g>
		<g>
			<g>
				<g>
					<g>
						<path fill="#FFFFFF" d="M540.3,251.5c0.6,3.2,0,6-0.5,4.9c2,6.2,0.7,6.5,2.9,7.1c1.3,4,0.2,8.6-1,3.9c0,0,0.6,2.9,1.1,5.9
							s0.9,6,0.9,6s0-1.8,0.1-3.5c0.1-1.8,0-3.5,0-3.5c2.1,1.8-0.2,11.5,2.1,13.7c0,0-0.1-3.3-0.2-6.5c-0.1-1.6-0.1-3.3-0.1-4.5
							s-0.1-2.1-0.1-2.1l0.6,0.6c-0.9-2.9-1-8.7-1-10.8c0.4,0.2,0.7,0,1,2.3c-0.7-7.9-1.8-8.8-2.7-9.4c-1.1-0.6-1.8-0.9-3.3-7.2
							C540.1,249.1,540.3,250.2,540.3,251.5z"/>
						<path fill="#FFFFFF" d="M542.3,237.6l-3.4-4.9c0,0-0.1-0.6-0.2-1.5c-0.1-0.9-0.4-2-0.6-3.2c-0.5-2.3-1-4.5-1-4.5
							c-0.7,0.1-3.2-6.1-2.7-1.6c0.4,0.9,1.1,2.4,1.3,3.8c-1-0.2-2-3.2-2.9-5.5c-1-2.4-2-4.3-2.3-2.8c2.7,6.7,2.4,7.9,5,11.9
							c1.3,6.5,2.2,11.2,2.1,14.4c0.6,1.8,1.7,2,2.3,4.4c-0.1-0.5-0.2-1-0.4-1.7l2.4-0.7c-1-2-1-4-1.5-6.2c0,0,0.4,0.6,0.9,1.6
							s1.1,2.2,1.7,3.4c1.2,2.6,2.4,5.1,2.4,5.1c0.9-2,0.5-5.5-0.1-9.2c-0.7-3.7-1.7-7.3-1.7-9.5
							C542.8,236.6,541.6,227.1,542.3,237.6z"/>
						<path fill="#FFFFFF" d="M539.9,248.1c0,0.1,0,0.2,0,0.2C540,248.2,540,248.1,539.9,248.1z"/>
						<path fill="#FFFFFF" d="M150.1,405.8c1.2,1.7,2.1,1.8,2.6,2c0,0-0.9-1.2-2.2-3.1c-0.6-0.9-1.5-2-2.2-3.1
							c-0.7-1.2-1.6-2.4-2.3-3.7c-1.6-2.4-3.3-5-4.3-7c-1.1-2-1.8-3.2-1.8-3.2c-0.2,1,2.6,7.3-0.1,3.5c0.2,2.2,4.3,7.2,5.5,7.5
							l-1.8-0.9c4,3.9,4.2,8.6,1.3,6l0.2,0.4c0,0,3.3,2.4,6.5,4.8c1.6,1.2,3.3,2.3,4.5,3.2c1.2,0.9,2.1,1.3,2.1,1.3
							C155,409,154.1,411.3,150.1,405.8z"/>
						<path fill="#FFFFFF" d="M527.9,321c-0.4,3.2-0.1,3.5,0.1,3.3C528,323.1,528,322.1,527.9,321z"/>
						<path fill="#FFFFFF" d="M161.2,415.6c0,0,1,0.7,2.1,1.3c1.1,0.6,2.1,1.2,2.1,1.2C164,416.9,162.4,416.1,161.2,415.6z"/>
						<path fill="#FFFFFF" d="M122,400.8c-0.1,0-0.1,0-0.2,0.2l1.8,1.6l0,0C123.1,401.9,122.5,401.3,122,400.8z"/>
						<path fill="#FFFFFF" d="M249,471.9c0.5,0.1,0.9,0.2,1.5,0.5C250,472.2,249.5,472.1,249,471.9z"/>
						<path fill="#FFFFFF" d="M87.5,336.5c0,0,1.1,2.8,2.1,5.7c1,2.9,2.2,5.6,2.2,5.6c-1.1-1.3,0.6,4.2-0.9,2c0.4,0.9,1.8,5,1.8,3.7
							l-0.7-2.3c3.8,5.5,3.3,1.7,8.2,11c-0.5-3.3-1.2-5.5-2.1-7.2c-0.7-1.8-1.7-3.2-2.7-4.6c-0.5-1.1-0.7-2-1.1-2.9
							c0,0-0.4-0.5-0.9-1.3c-0.5-0.9-1.2-2-1.8-3.1c-1.2-2.3-2.6-4.5-2.6-4.5L87.5,336.5z"/>
						<path fill="#FFFFFF" d="M462,457.4v0.2C462.1,457.4,462.1,457.4,462,457.4z"/>
						<path fill="#FFFFFF" d="M462.1,458.4v-0.9C461.8,458.2,460.2,460,462.1,458.4z"/>
						<path fill="#FFFFFF" d="M159.1,415.1c0.4-0.1,1.1,0,2.1,0.5l-3.1-2.1C158.4,414,158.7,414.5,159.1,415.1z"/>
						<path fill="#FFFFFF" d="M150.6,411.4l-5.5-7.2l-2.7-2.2C144.4,404.7,147.1,407.8,150.6,411.4z"/>
						<path fill="#FFFFFF" d="M237.1,465.6c16.3,7-5,0.5,2.2,4.4c4.6,1.8,6.8,1.2,9.8,2.1c-6.7-2.1-5.9-2.8-5.1-3.5
							c0.9-0.7,1.6-1.5-4.9-4.2c1.3-0.6,3.8,0,6.6,0.9c2.7,0.9,5.6,2.1,7.7,3.2c2.2,1.8,1,1.8-1.1,1.5c-2-0.4-4.8-1.1-5.7-0.4
							c5.4,1.7,4.5,1.1,7.2,0.9c4.2,1.6,8.6,2.6,12.6,3.3c2.1,0.4,3.9,0.9,5.5,1.5c1.7,0.5,3.2,1.2,4.3,2.2c6.4,1.1,6.1-0.1,9.9-0.5
							c0.5-1-1.7-1.7-4.3-2.4c-2.6-0.9-5.5-1.7-6.5-2.8c0.4,0.2,1.2,0.9,0.9,1.1c0,0-1.3-0.4-2.6-0.9c-1.3-0.4-2.6-0.9-2.6-0.9
							c4.8,2.1-1.2,2-3.9,1.3c-2-0.5-5.9-1.5-5.1-2c0,0,0.7,0.1,1.5,0.2s1.5,0.2,1.5,0.2c-1.8-0.9-3.9-1.1-6.1-1.5
							c-2.2-0.4-4.4-0.7-6.1-2.1c0-0.5,1.5-0.2,1.8-0.4c-4.8-0.2-9-1.8-15.6-3.8l4.5-0.4c-6,0.1-17-6.1-23.6-11.7
							c0.6,0.9,2,1.8,0.9,1.7c-4.6-2.2-7-5.6-4.4-5.3c-1.2-0.4-2.8-1.1-4.5-2.3s-3.5-2.8-5.4-4.3c-2-1.5-3.7-3.3-5.6-4.6
							c-1.8-1.3-3.7-2.6-5.3-3.2c0,0-2-0.7-4.8-1.8c-2.9-1.1-6.6-2.9-10.5-4.6c-3.7-1.8-7.5-3.8-10.3-5.4c-2.8-1.6-4.6-2.7-4.6-2.7
							c1,0.7,2.1,1.6,2.9,2.6c0.5,3.4,1.8,4.6-3.1,1.8c4.2,3.3,4,0.6,9.3,6.2c-2.7-1.5-5-0.5,0.1,4.9c3.7,2.9,7.2,5.4,10.9,7.3
							c3.5,2.1,7.1,3.7,10.6,5.3c7.1,3.1,14.2,5.4,21.9,8.6c-0.1,0.7,2.7,2.7,6.2,4.9c3.5,2.1,7.9,4.3,10.8,5.9
							c-2.8,0.4-7.3-1.3-11.9-3.4c2.7,1.6,7.5,4,11,5.9L237.1,465.6z"/>
						<path fill="#FFFFFF" d="M198.7,448.5c0.2,0.4,0.6,0.7,1,1C199.6,449.2,199.3,449,198.7,448.5z"/>
						<path fill="#FFFFFF" d="M222,461.1c-0.1,0-0.1,0.1-0.1,0.1c0.5,0.2,1,0.5,1.5,0.7C222.9,461.5,222.4,461.3,222,461.1z"/>
						<path fill="#FFFFFF" d="M159.4,420.6c-1.1-0.6-1.7-1.1-2.7-1.7c0.5,0.5,1.2,1.1,1.8,1.6C159.1,420.9,159.5,421,159.4,420.6z"
							/>
						<path fill="#FFFFFF" d="M159,416l0.9,0.1c-0.2-0.4-0.4-0.7-0.6-1.1C158.7,415.1,158.6,415.5,159,416z"/>
						<path fill="#FFFFFF" d="M300.7,496.1l1.8-0.2C301.5,495.9,301,496,300.7,496.1z"/>
						<path fill="#FFFFFF" d="M254.5,475.2c-6-1.8-1.5,2-9.8-1.3l2.3,1.1c-6.4-1.2-16.4-6.5-23.1-10c1.1-0.4-3.5-3.2-2.1-3.9
							c-2.3-1.1-4.6-2.3-6.7-3.2c-2.1-1-3.9-1.7-5.4-1.8c-2.4-2.1-7.1-3.9-10.1-6.7c1,1.7-6.5-1.2,2.3,3.8c-0.7-0.4-0.4,0.1-1.1-0.2
							c4.6,4.8,7.9,4.4,12.6,7.5c2.4,2.4-5.3-1.8-2.8,0.1c3.1,1.7,7.8,4.4,11.7,6.7c4,2.1,7.5,3.4,7.9,2c4.6,2,5,2.8,6.1,3.9
							c2.2,0.1,4.9,1,7.8,2c2.9,1.1,6.1,2.6,9.2,3.5c6,2.4,11.1,3.8,11.6,1.8c-1.5-0.4-3.3-0.7-5.3-1.2c-2-0.6-4.2-1.1-6.4-1.3
							L254.5,475.2z"/>
						<path fill="#FFFFFF" d="M166.7,428.6c0.2,0.2,0.6,0.7,0.9,1C167.3,429.3,167.1,428.9,166.7,428.6z"/>
						<path fill="#FFFFFF" d="M135,355.1l3.4,1.5c1.5,3.3,2.7,6.1,3.8,8.4c1.2,2.4,2,4.6,3.1,6.7c1,2.1,2,4.2,3.1,6.4
							c1.1,2.2,2.4,4.5,4,7.2c0.1,1-0.9-0.2-1.3-0.9c4.6,7.5,11.9,18.8,17,23c1.6,2.3,6,8.3,3.4,6.7c1.1,0.9,2.3,2,3.3,3.2
							c-0.5,1-2.6-2.4-3.2-2.1c0.7,1,1,1.5,1.3,1.5c-2.1-1.1-1,3.9-7.6-3.8c-0.7-4.4,4.8,5.1,5.1,1.7c-2.2-2.4-2.7-1.6-3.1-1.6
							c-2.7-3.3-2.1-3.7-1.5-3.8c-1.6-0.9-4.2-5.5-6.2-6.7c-4.9-6.6,1.8-0.7-1.3-5c0,0-1-0.2-2-0.5c-1-0.2-2-0.6-2-0.6l-4.4-7.8
							c-3.5-5.4-4.3-4.4-5.3-3.7c-0.9,0.7-2.1,1.5-6.2-4.9c1,0.6,1.3-0.7,1.1-3.1c-0.2-2.2-1.1-5.4-2.3-8.7c0.9,1.8,2.4,4.4,4.3,7
							c1.7,2.6,3.3,5.4,4.4,7.8c-2-7.5,5.4,8.8,5.4,4.3c-2.7-2.6-6-7.8-7.6-12.5l1,1.3c-2.2-4.5-6.1-7-8.1-13.8
							c-1.3-3.2-0.5-2.9,0.4-2.6C136,357.7,134.5,355.4,135,355.1z M138.3,362c0,0,0.4,1.1,0.9,2.2c0.4,1.1,0.9,2.2,0.9,2.2
							C139.9,365.1,139.2,363.6,138.3,362z"/>
						<path fill="#FFFFFF" d="M514.3,168.4c0.2,0.5,0.5,1.1,0.6,1.5C514.9,169.5,514.7,168.9,514.3,168.4z"/>
						<path fill="#FFFFFF" d="M120.6,175.7l1.6-2.7C121.6,174.2,121,175,120.6,175.7z"/>
						<path fill="#FFFFFF" d="M157.4,114.6l3.1-3.7C159.1,112.2,158.3,113.4,157.4,114.6z"/>
						<path fill="#FFFFFF" d="M492.8,138.4l-0.1-0.1c-0.2-0.1-0.4-0.2-0.6-0.5L492.8,138.4z"/>
						<path fill="#FFFFFF" d="M286.9,58c0.7,0.1,1.6,0.2,2.6,0.2C289.4,58,288.4,57.8,286.9,58z"/>
						<path fill="#FFFFFF" d="M156.9,115.3c0.1-0.1,0.1-0.1,0.2-0.1c0.1-0.1,0.2-0.4,0.4-0.5L156.9,115.3z"/>
						<path fill="#FFFFFF" d="M100.7,200.9c-0.1,0.6-0.4,1.3-0.5,2C100.5,202,100.6,201.4,100.7,200.9z"/>
						<path fill="#FFFFFF" d="M109,199.4c-0.2,0.7-0.4,1.3-0.5,2L109,199.4z"/>
						<path fill="#FFFFFF" d="M88,305.4l0.7,4.3C88.5,307.6,88.2,306.2,88,305.4z"/>
						<path fill="#FFFFFF" d="M103.5,209.3c0,0.2,0,0.5,0.1,0.7C103.8,209.5,103.6,209.1,103.5,209.3z"/>
						<path fill="#FFFFFF" d="M519.8,194.9c0-0.1-0.1-0.1-0.1-0.2h-0.4L519.8,194.9z"/>
						<path fill="#FFFFFF" d="M527.1,202.6c0.5,1.1,1,2.2,1.5,3.3C528.1,204.6,527.6,203.4,527.1,202.6z"/>
						<path fill="#FFFFFF" d="M347.6,61.3c1.1,0.5,3.5,1.2,2.3,1.5C352.2,62.6,352.2,61.3,347.6,61.3z"/>
						<path fill="#FFFFFF" d="M497.1,185.3c0.6,0.4,1.2,0.9,1.8,1.3C497.8,185.6,497,184.8,497.1,185.3z"/>
						<path fill="#FFFFFF" d="M498.9,186.7c0.5,0.5,1,1.1,1.5,1.5C499.9,187.6,499.4,187.1,498.9,186.7z"/>
						<path fill="#FFFFFF" d="M319.8,80.7c-0.2-0.1-0.6-0.2-1.1-0.4C318.8,80.7,319.2,80.7,319.8,80.7z"/>
						<path fill="#FFFFFF" d="M529.3,208.7c0.9,0.4,7.1,14.9,3.2,2.2c1.8-0.1,3.7,7.8,5,11.1c-0.2-2.6,1.5,0.9,2,0
							c-0.7-1.6-1.7-3.5-2.6-6.4c0.4-1.6,2.4,2.4,3.1,6c-0.2-4.4,2.9,4.9,2-1.2c-4.4-12.5-8.4-20.9-14.8-28.1c0.9,1.6,1.7,3.3,2.7,5
							c0.9,1.7,1.6,3.4,2.3,5.3c0.7,1.7,1.5,3.4,2.1,5.1c0.5,1.7,1,3.3,1.2,4.8l-2.3-1.8c-0.4-3.4-1.5-6-2.4-8.6
							c-1.1-2.6-2.3-5-3.7-8.1c0,0,0.4,0.9,0.9,2.2c0.5,1.3,1.1,3.1,1.7,4.9c1.2,3.5,2.3,7.1,2.3,7.1c1,7.1-0.6,2.7-3.1-2.3
							C529.1,207.1,529.5,208.2,529.3,208.7z"/>
						<path fill="#FFFFFF" d="M512.5,204.9v0.2c0.1,0.1,0.2,0.4,0.4,0.5L512.5,204.9z"/>
						<path fill="#FFFFFF" d="M120.7,302l0.7,1.1C121.1,302.2,120.9,301.8,120.7,302z"/>
						<path fill="#FFFFFF" d="M516.3,194.1L516.3,194.1C516.1,194,516.1,194,516.3,194.1z"/>
						<path fill="#FFFFFF" d="M120.6,273.5l0.1,0.1C120.6,273.6,120.6,273.6,120.6,273.5z"/>
						<path fill="#FFFFFF" d="M86.3,262.5c-0.1,0-0.1,0.1-0.2,0.2C86,263.4,86.2,263.1,86.3,262.5z"/>
						<path fill="#FFFFFF" d="M120.4,273.5h0.1C120.5,273.5,120.5,273.5,120.4,273.5z"/>
						<path fill="#FFFFFF" d="M170,144.8c0,0-0.5,0.1-1.2,0.5C168.6,145.6,169,145.4,170,144.8z"/>
						<path fill="#FFFFFF" d="M150.2,165.2c-0.1,0.1-0.2,0.2-0.5,0.4L150.2,165.2z"/>
						<path fill="#FFFFFF" d="M341,53.2c-1.6-0.1-2.7-0.2-3.8-0.2C338.5,53.2,339.7,53.2,341,53.2z"/>
						<path fill="#FFFFFF" d="M120.7,273.6c0.1,0.2,0.2,0.7,0.5,1.3C121,274.4,120.9,273.9,120.7,273.6z"/>
						<path fill="#FFFFFF" d="M197.6,110c-0.2,0.2-0.4,0.5-0.6,0.6l0.5-0.2L197.6,110z"/>
						<path fill="#FFFFFF" d="M211,102.8c-0.4,0.4-0.5,0.7-0.6,1c2.2-1.6,5.5-3.5,8.3-5.3c2.9-1.6,5.3-3.1,5.4-4.2
							c-0.9,0.5-3.4,1.5-5.9,2.3c-2.3,0.9-4.3,1.5-3.8,0.5c-3.2,2.2-8.7,4-10.1,5.5c5.9-2.6,1.3,0.9-1.8,3.7c-3.5,1.6-0.1-1.6-3.2,0
							l-7.2,5.4l6.5-4.3l-1,2.7c0.2-0.2,0.4-0.4,0.5-0.6c5.1-4,5.9-3.5,6.4-3.3C205.2,106.5,205.7,106.7,211,102.8z"/>
						<path fill="#FFFFFF" d="M210.4,103.8c-0.6,0.5-1.2,1-1.6,1.5C209.9,104.5,210.2,104.1,210.4,103.8z"/>
						<path fill="#FFFFFF" d="M259.5,85c0.6-0.2,1.2-0.5,2.1-0.9C261.3,84.2,260.3,84.6,259.5,85z"/>
						<path fill="#FFFFFF" d="M138.9,396.4c0.2-0.4-2.6-7.5-3.7-6.7c1,2,2,4,3.1,6.1L138.9,396.4z"/>
						<path fill="#FFFFFF" d="M401.9,84.5c-0.7-0.4-1.6-0.7-2.4-1c-0.2,0-0.4,0-0.5,0C399.3,83.9,401,84.3,401.9,84.5z"/>
						<path fill="#FFFFFF" d="M216.3,95.5c-1.1,0.9-1.6,1.3-1.7,1.7C215.3,96.6,215.9,96.1,216.3,95.5z"/>
						<path fill="#FFFFFF" d="M401.2,87.5c0.9,0.7,2.2,1.8,2.2,2.3c2,1,3.7,1,5.9,1.6C406.7,90.7,404.2,89.2,401.2,87.5z"/>
						<path fill="#FFFFFF" d="M409.2,91.6h-0.1H409.2z"/>
						<path fill="#FFFFFF" d="M140.9,400.5c0.4,0.5,0.9,1,1.3,1.6l-0.9-0.7c0.9,1.5,1.6,3.1,2.6,4.5c0.4,0.5,0.9,1,1.5,1.6
							c-0.2-0.2-0.5-0.4-0.7-0.4c0.2,0.5,0.6,1,0.9,1.5c3.4,2.7,10.5,10.1,13,12c3.1,2.6,6.2,6,8.3,8.2c-2-2-4.4-4.6-4.3-3.3
							c1.5,2.4,2.4,4.4,4,6.6c1.5,2.2,3.5,4.5,7.8,7.2c0,0-1-1-2.1-2c-1.1-1-2.1-2-2.1-2s0.7,0.5,1.7,1.1c1.1,0.6,2.4,1.5,3.9,2.3
							c1.5,0.9,2.8,1.7,3.8,2.3c1.1,0.6,1.8,1,1.8,1c1.3,2-0.1,1.1-2.2-0.1c-2-1.3-4.4-3.3-5.5-3.5c8.1,5.9,12.2,13.9,17.4,14.9
							c-0.4,1.5-1.1,4.3,4.5,7.9c-2.9-4.2,3.9,1.5,1.7-2.3c2.3,0.6,5.7,4.6,6.7,3.9l-0.9,0.1c4,4,7.5,5.7,10.4,6.5
							c2.9,0.7,5.3,0.9,7.7,1.5c3.1,1.3,5.6,2.7,7.9,3.8s4.5,2.1,6.5,3.1c2.1,1,4,2,6.1,2.8c2.1,0.9,4.4,1.8,7,2.7
							c0,1.1,2,4.5,6.2,5.9c2.3-0.5,12.1,1.5,13.4,0.1c-7.3-2.7-6.5-0.4-11.1-1.2c-3.2-2.9,0.2-1.8-4.5-4.5
							c3.8,2.3,18.6,4.6,22.8,7.1l-1.6-0.1c3.5,1.3,5.5,3.1,8.2,4.4c1.3,0.7,2.8,1.2,4.9,1.7c2,0.4,4.5,0.4,7.7,0.2
							c0,0,1.5-0.1,3.1-0.1c1.5,0,3.1-0.2,3.1-0.2c-0.2,0.1-0.4,0.4-0.5,0.5c9.8,1,7.1,2.8,18,1.5c-0.9,0.1-0.4,0.2-1.2,0.4
							c3.1,0.6,6.2,0.2,9.2-0.2c2.9-0.5,5.6-1.1,7.9-1.5c2.9,1.2-0.6,1.5-2.3,2.6c11,0,22.5-4.2,28.7-7.2c0,0,0.4,0,1.1-0.1
							c0.6,0,1.5-0.1,2.4-0.2c1.7-0.2,3.4-0.4,3.4-0.4c-3.9,1.6-8.7,3.9-7.2,4.5c3.8-1,2.9-1.5,8.3-2.4c-0.7,1.1-2.8,2.4-5.1,4.2
							c11.6-1.1,1.7-3.7,10.3-2.8c3.5-0.9,5.1-2.8,5.3-3.9c0,0,1.6-0.1,3.3-0.2c1.7-0.1,3.3-0.2,3.3-0.2c0.2-1.6,7.8-4,12.6-6.4
							c0.4-0.9-4.4,0.2-6.1,1.3c0-1.1,4.9-3.7,8.2-4.9c1.2,1.2,6.5-1.3,11.1-3.4c4.5-2.3,8.6-4.4,7.5-1.8c3.5-2,7.2-4.5,11-6.8
							c3.8-2.6,7.6-5.1,11.1-7.8c3.5-2.7,7-5.4,9.8-7.9c1.5-1.2,2.8-2.4,4-3.5c1.2-1.2,2.2-2.3,3.1-3.3c1.6-0.9,3.7-2.4,5.1-3.3
							c1.5-1,2.2-1.2,1.1,0.9c2.3-2.2,4.3-4.3,6-6.4c1.7-2.1,3.1-4,4.5-6.1c1.5-2,2.8-3.9,4.4-6.1c1.6-2.1,3.4-4.2,5.5-6.6
							c0.5-0.4-0.4,0.9-1.3,2.1c-1,1.2-1.8,2.4-1.3,2.7c4.4-7.1,10.6-11,17.1-22.4c-1.1,1.8-1,2.7-0.9,3.2c-0.5-0.1,2.1-5,3.4-8.1
							c1.2-1.5-1,2.3-0.1,1.6c7.2-10.4,11.5-20.7,15-31c3.5-10.5,5.9-21.1,8.8-33.1c-1.5,6.8-0.6,9.9,0.1,10.1c0,0,0.5-1.7,1-3.4
							c0.5-1.7,0.9-3.4,0.9-3.4c-0.4-2.8,1-7.9,0.9-12.3c0.5-0.5,1.2-2.4,1.2-0.2c2.3-6.6,2-12.1,1.6-18c-0.2-2.9-0.6-5.9-0.7-9.2
							c-0.2-3.3-0.4-6.8,0-11.1c0,0,0.9,5.1,1.7,10.1c0.6,5.1,1.2,10.4,1.2,10.4l1.7-5c0,0,0.2,2.3,0.5,4.6c0.4,2.3,0.4,4.6,0.4,4.6
							c1.7-5.4-0.5-10.3,1-10.9c0.4,1.2,0,3.9,0.7,4.2c1-5.3,0-5.7-0.2-9.7c0.7,2.7,1,5.9,1.1,9.5c0.2,3.7,0,7.6-0.2,11.5
							c-0.5,7.9-2,15.8-2.9,21.3c-0.1,1.7-0.4-1.6-0.6-2c-0.5,2.2-1.1,3.9-1.7,5.9c-0.6,1.8-1.3,3.9-1.8,6.7c0.2,3.8,1.6-2.3,2.6-5
							c1,0.6,0.5,2.1-0.2,5.1c-1.5,0.4-5.6,16.5-9,19.6c-2.8,7.9-2,7.6-0.9,7.2c1-0.4,2-0.7-1.7,6.6c0,0-0.9,1-1.8,1.8
							c-1,0.9-1.8,1.8-1.8,1.8c-2.9,9.2-8.4,20.5-15,29.3l1.3-2c0.2-1.6-1.5,0.1-2.4,0.9c-2.7,3.2-4.6,6.5-6.7,9.3
							c-2,2.8-3.8,5.4-6.1,6.7c-4.5,8.4-14.7,20.5-22.4,28.2c-1.8,0.1,0.5-2.6,3.7-5.7c2.9-3.4,6.7-7.2,7.7-9.3c0,0-0.4,0.5-1.1,1.1
							c-0.6,0.6-1.6,1.5-2.4,2.3c-1.7,1.7-3.5,3.4-3.5,3.4c4.4-4.2,5.5-6.4,7.1-9.9c-3.1,2.9-4.9,5.1-6.5,7.3
							c-1.6,2.2-3.2,4.6-6.1,7.5c0.1-0.9-1-0.4-3.8,2l0.1,1.8c-0.1,0-0.5,0.1-1.5,0.7c0,0-2.7,2.4-5.4,4.8c-1.3,1.2-2.7,2.3-3.8,3.2
							s-1.7,1.5-1.7,1.5c2.8-1.3,3.8-0.2,6.7-2.6c-1.6,0.1,0.9-2,3.8-4.3c-2,2.8,3.4-1.6,3.8-1c-2.9,2.3-6.2,5-9.3,7.5
							c-3.2,2.3-6,4.5-7.8,6.1l-2.1-0.2c-3.2,1.8-6.1,3.9-9,5.7c-2.9,1.8-5.6,3.4-7.8,4.5l1-1.3c-3.8,2-7.6,3.9-11.4,5.9
							c-3.8,1.7-7.5,3.3-11.2,4.2c-6.5,4.4-15.3,8.8-20.9,12.1c-1.5,1.2-7.1,2.6-13.4,3.4c-6.4,1.1-13.3,1.8-17.5,3.8
							c-0.6,0,5.7-2.3,8.6-3.5c-5.7,0.9-10,3.7-12.1,2.1c6.5-0.5,6.2-1.1,5.1-1.3c-1.1-0.4-3.2-0.6-0.4-1.3c-2.9,0.5-6.1,1-8.8,1.5
							c-2.7,0.5-5,1-6.5,1.5c9.8-1-3.3,3.1,6.6,1c-3.8,1.3-8.3,2.1-13.2,2.8c-4.8,0.6-9.8,0.6-14.4,0.4c0.1-0.7-1.1-1.2-4.5-1.6
							l-2.8,1.1c-4.4-0.4,8.4-1.1-0.2-1.7c-2.3,0.5-5.1,0.5-8.1,0.2c-3.1-0.2-6.2-0.4-9.3-0.9c-3.1-0.4-5.9-0.7-8.3-0.9
							s-4.3,0-5.5,0.7c-3.3-1.3,0-1.1,2.9-1c2.8,0.1,5.3,0,0.4-1.7c6.1-0.4,14.1,2.2,16.3,0.4c-5.9,0.1-2-1.7-5.6-2.2l-6.6,0.2
							l1.5,0.2c-2.8,0.1-5.9-0.1-9.2-0.6c-1.7-0.2-3.4-0.5-5.1-0.7c-1.7-0.4-3.5-0.7-5.4-1.1s-3.7-0.9-5.5-1.2
							c-1.8-0.5-3.7-1-5.4-1.6c-1.8-0.5-3.5-1-5.4-1.5c-1.7-0.6-3.4-1.1-5.1-1.6c-11.7-2.1-20.5-2.8-33.4-9.5
							c2.2,0.5-0.4-1.1-2.3-2.6c-2-1.5-3.3-2.7,1.2-1.5c-5.3-4-11.5-6.4-12-5.7c4.9,3.2,1.6,1.2,5.7,4c-1.7-0.4-4.2-1.6-6.5-2.9
							c-2.3-1.5-4.5-3.1-5.6-4.2c1.2,0.9,0.9,0.4,1.2,0.4c-5.5-4.3-3.3-1-7.7-3.5c-0.2-1-2.4-2.7-5-4.5c-2.4-2-5.3-4-7-5.7
							c0,0-1.6-0.6-3.2-1.3s-3.2-1.5-3.2-1.5c3.7,1.5-4.6-4.5-4.5-6.1c-4-2.7-8.2-4.3-13-9.9c2.6,1.7-3.9-5.5-2.9-6.5
							c-1.8-2.6-3.8-4.6-5.7-6.6c-1.8-2-3.8-3.8-5.6-5.5c-2-1.7-3.7-3.5-5.4-5.6c-1.6-2.1-3.3-4.3-4.5-7.1c0.5,0.1,2.4,1.7,0.9-1.5
							c-1.7-2.1-4.3-6.2-5.9-8.7l0.1,0.1l-0.1-0.1c-0.7-1.2-1.3-2-1.6-1.8c-1.8-1.8-3.3-3.2-5.1-5.1c-1.7-2-3.7-4.5-6.4-8.7
							c-1,1.2,3.3,8.7,5.6,11.6l2.8,2.1c-0.2,1.8,1,3.8,2.3,5.5c1.3,1.7,2.9,3.2,3.2,4.4c-1.3-1-2.9-2.6-4.5-4.6
							c-1.6-2.1-3.3-4.6-5.1-7.3c-3.3-5.5-6.7-11.6-9.5-16.1c0.6,6.7,6.8,19.6,13.6,29.8c0,0-0.5-1.2-1.1-2.6c-0.5-1.2-1-2.6-1-2.6
							s0.7,1.5,1.7,2.7c0.9,1.3,1.7,2.7,1.7,2.7s-0.5-1.5-1-3.1c-0.5-1.5-1-3.1-1-3.1c1.3,2.7,3.1,5,4.5,7.2
							c1.5,2.3,3.1,4.5,4.6,6.7c-3.8-5.1-3.2-8.4-1.6-5.3c2.8,6.6,5,5.5,8.1,9.9c-1.6-2.6-3.9-5.7-1.7-4.2c2.3,4.9,4.4,7.5,6.2,10.1
							s3.8,5.1,6.2,9.4c0.5-1.3,2.4,1,4.8,3.4c2.3,2.4,4.8,5.1,6,4.9l-2.9-3.4c0,0,1.8,1.5,3.8,2.9c2,1.5,3.9,2.7,3.9,2.7
							c4.9,7.5-7.1-3.9,1.7,6.4c9,8.4,10.5,6.2,18.1,12c-1.7-0.4-4.3-1.6-7.1-3.2c-2.8-1.7-6-4-8.9-6.6l3.2,3.7
							c-2.6-1-10.4-8.4-14.2-12.5c3.8,2.6,3.1,1.7,1.2-0.2c-1.8-2-4.8-5.1-5.6-7.1c-1.6,0.4,2.6,4.4-2.9,0.2
							c2.2,2.3,3.4,3.7,4.9,5.1c1.5,1.5,2.8,3.3,5.6,6.2c-3.2-3.1-5.4-5.4-7.5-6.8c-2.1-1.6-3.9-2.6-5.5-3.5s-3.3-2-5-3.5
							c-1.8-1.5-3.7-3.5-5.9-6.8c4.9,5.3,0-3.2,0-4.3c-2.3-2.4-6.4-7.9-8.3-10l-0.2,3.2c-3.1-3.4-3.9-6.6-5.1-9.7
							c-0.6-1.6-1.2-3.1-2.1-4.8c-0.9-1.7-2.1-3.4-3.8-5.5c-1.7-0.6,4.3,8.2,3.2,6.6c-4.2-5.9-6.2-10.4-7.6-14.9
							c-0.7-2.3-1.3-4.5-2-7s-1.2-5.1-2.2-8.2c-0.9-0.4-2.1,0.2-4.6-3.4c1.6,0.9,1-2.4,3.7,1.8c-1.1-4-3.8-8.3-5.5-11.7
							c1.2,4.3,0.5,3.5-0.7,1.6s-2.7-5.1-3.3-5.7c-1.2-4.4,1.6,1,2.8,3.4c-0.9-3.5-0.6-8.2-2.9-9.7c0.6-0.2,2.2,2,3.9,4.9
							c0.9,1.5,1.8,3.2,2.7,4.9c1,1.7,1.8,3.4,2.4,4.9l-1.5-4.3c1.7,2.7,1.8,3.3,3.3,7.5c-0.7-4.4,0.5-4.4,1.7-3.8
							c0,0.6-0.4-0.2-0.4,0.4c1,3.4,2.3,5.9,2.7,4.8c2.8,2.2-0.9-4.9-1-7.5c-0.7-1.6-1.6-3.3-2.2-4.9c0,0-2.8-3.9-5.5-7.8
							c-2.7-4-5.3-8.2-5.3-8.2c-1.5-3.8-1.8-6.6-2.1-9.3c-0.2-2.7-0.4-5.1-0.4-8.1l-1.7-1.3c-1.2-6.8-1.5-13.4,1-9.3
							c-0.4,0.4-0.2,1.2,0,2.7c0.2,0.1,0.4,0.5,0.6,0.9c0.1,0.1,0.2,0.2,0.4,0.4c-1.6-7.2-2.3-11.7-2.4-12.1
							c3.7,12.1,2.7,0.2,5.6,2.1c0,0-0.1-0.7-0.4-2c-0.2-1.1-0.5-2.7-0.7-4.2c-0.5-3.1-0.9-6.1-0.9-6.1c-0.2,7.6-1.2,0.2-1.8-2.4
							c1.3-0.9-0.4-10-0.1-14.4l-0.2,0.5c0.6-4,0.5-11.1,0.6-16.1c-0.5,0.2-2.4-6.5-3.4-9.8c-1.6,8.7-1.5,3.4-2.6,4
							c0.1-1,0.4-2.6,0.2-2.8c-0.2-1.3-0.7,1.7-1.3,1.8c0,4.8-0.2,9.5,0,13.7c0.2,4.2,0.7,7.6,1.7,9.4c1-2.8-0.7-4.9-0.1-8.2
							c0.6,2.3,0.9,5,0.9,8.1c0.1,3.1,0.1,6.5,0.2,10.4l-1.1,2.6l1.2,7.8c-0.9-3.2-2.1-1.1-2.8-9.4c-1.2,1.1,0.9,8.2,0.7,13.3
							c0,0,0.5,0.6,1,1.2c0.5,0.6,1,1.2,1,1.2c-1-0.9,0.1,9.9-2.1,2.4c0,0-0.2-0.7-0.5-2c-0.2-1.2-0.6-2.7-0.9-4.3
							c-0.6-3.2-1.1-6.2-1.1-6.2l-0.9,3.7c0,0-0.2-2.7-0.6-5.4c-0.1-1.3-0.2-2.7-0.2-3.7c-0.1-1-0.1-1.7-0.1-1.7l0.9,2.4
							c-1.5-17.2,2.8-5.1,1.3-22.5c-1.6-5.5-1.6-11.5,0.4-22c-0.5,7.7,1.2,1,2.1,4c1.7-7.6,0.7-10.4,0.7-14.7
							c1.3-1.8,2.4-3.1,1.1,3.8c2.1,1.2,1.2-9.2,3.7-9.3c2.4-11.2,2.2-16,2.2-21.4c0.2-5.3,0.9-11.2,7.5-23.3l0.4,1.3
							c5.9-16.4,11.7-24.7,19.8-38.4c0,0,0.5-0.6,1.3-1.5c0.9-0.9,2-2,3.2-3.1c2.3-2.2,4.5-4.4,4.5-4.4c-1.3,2.4-4.3,9.5-1.3,7.3
							c-2.7,1.7-4.8,4.2-6.6,6.7c-2,2.6-3.8,5.3-5.9,7.7c0.2,0.9,2-1.2,2.8-2c-2,3.4-3.9,4.5-6.1,9.3c0.5,0,3.8-4.6,2-0.9
							c0,0-1.1,1.3-2.3,2.8c-1.1,1.5-2.2,2.8-2.2,2.8c-1.8,4.4-1.6,5.7-1.5,7.3c0.1,1.5-0.1,3.2-2.7,8.1c-0.4-2.3-0.2-7,1.2-11
							c-1.2,2.3-0.7,0.6-0.1-1.1s1.1-3.4-0.2-1.5c-0.9,3.7-1.7,6.2-3.1,9c-1.3,2.7-2.6,5.9-3.8,10.6c0.1-1.2-0.1-1.6,0.7-3.9
							c0,0-1.5,3.3-2.9,6.5c-1.5,3.3-2.7,6.6-2.7,6.6c1.1-1.5,0.4,1.3-0.2,4.5c-0.6,3.2-1.1,6.6-0.1,6.2c1.1-3.5,2-6,2.7-7.8
							c0.6-1.8,1.1-3.2,1.5-4.5c0.9-2.8,2.1-5.7,5.6-13.6c-1.3,4.6-2.2,11-1.6,14.3c-0.1,0.1-0.2,0.4-0.4,0.9c0.7,2.9,2,0.6,4.6,1.6
							c0.2-3.9,1.3-6.8,2.6-9.9c1.2-3.1,2.7-6.2,4-10.5c-0.6-2.2-4,3.9-5.3,8.2c0,0,0.1-0.5,0.2-1.2c0.1-0.7,0.4-1.7,0.7-2.7
							c0.6-2,1.2-3.8,1.2-3.8v1.7c0,0,0.5-1.1,1.3-2.8c0.9-1.7,1.8-3.9,3.2-6.1c1.2-2.2,2.4-4.4,3.3-6.1s1.6-2.7,1.6-2.7
							c-1.8,3.3-1.5,5-1.8,7.1c1.2-2.2,2.7-4.4,4.5-6.5c-1.6-0.2-2.3-1.1-1.1-3.2c6.7-11,12.1-16,16.3-18.8c0.2-0.4,0.5-0.9,0.7-1.2
							c-2.6,0.7,3.3-8.9,4.6-13c1.1,1.1,5.1-4.4,8.1-6.7c0-2.7-3.7-2.4-7.7,0.1c-4.5,7.8-2,4.9-2.7,9.5c0,0-1.8,3.1-3.7,6
							c-2,3.1-3.7,6.1-3.7,6.1l0.6-3.4c-4.6,5.3-6.6,12.1-7.9,10.6c0.5-1.8,1.7-4,2.9-6.2c1.3-2.1,2.7-4.2,3.2-6l-3.3,3.4
							c3.4-7.8,3.8-2.6,8.9-11.1c-3.5,2,0.5-0.9,2.3-4.8c-1.5,1-4.2,4.5-6.5,7.3s-4,5-4.3,2.9c1-2.6,4.4-5.5,7.8-8.8
							c3.3-3.3,7-6.5,8.2-10.1v0.5c7.2-7.3,8.7-10.9,10.9-14.3c3.7-2.4,7.5-7.3,11.1-10.6l0.4,0.7c0,0,1.2-1.2,2.4-2.3
							s2.6-2.2,2.6-2.2c-1.7,3.1-6.1,4.9-10.4,8.9l1.5,0.6c-3.2,1.5-4.9,3.7-6.4,5.9c-1.5,2.2-2.6,4.5-3.8,6.8
							c2.1-3.2,6.1-6.6,9.3-9.9c3.4-3.1,6.1-5.9,5.9-7.5c0,0,1.1-0.5,2.2-1s2.3-0.9,2.3-0.9l1.5-1.8c3.4-1.2,1.6,2.2-3.2,6.7
							c-1.1,0.5-1.6,0.7-1.6,0.2c-1.8,2.6-3.4,5-8.9,9.9l2.3-3.3c-6.8,6.2-12.2,12.7-13.2,16c9.3-9.3,19.1-18,28.7-25.7
							c0.7-4.9,3.3-9,3.1-12.6c6.5-5.6,16.4-12,23.5-14.7l-0.2,0.9c3.3-1.6,6.2-3.1,8.6-4.8c3.8-1-1.6,2.7,1,1.8c0,0,0.6-0.4,1.6-1
							s2.3-1.5,3.7-2.2c2.7-1.5,5.4-2.9,5.4-2.9c-0.1,0.9-2.4,2.2-5.3,3.8c-2.9,1.5-6.2,3.3-8.3,4.4c0.7-0.5,2.3-1.6,1.7-1.5
							c-5.4,2-13.3,9.4-16.4,8.9c-2.2,1.8,3.9-4.3-4,0.6c-5.7,2.7-6.4,5.5-6.6,6.4c0.4,0.6,8.8-4.5,6.5-1.8c4-2.7,5-4.6,10.9-7.1
							c-4.2,2.4-8.7,7.3-11.5,7.7c-7.1,6.5-3.7,8.8,0,6.5c-1.6-0.5,13.4-10.4,2.3-5.1c3.8-4.3,12.5-9.5,18.6-13.7l-0.1,0.4
							c0,0,2-1.1,3.9-2.2s4-2.2,4-2.2c-1,0.9-3.3,2.4-3.1,3.2c0,0,0.6-0.5,1.6-1.2c1-0.6,2.3-1.6,3.5-2.4c2.7-1.7,5.3-3.5,5.3-3.5
							c-2.9,2.1-1.8,1.8,0.4,1s5.6-2.1,7.2-2.3c0.9-1.6,5.1-4.3,0.4-3.2c-5.3,1.1-2.7,1.7-7.1,3.5l5.6-4.2h0.6c0,0,0.9-0.7,1.6-1.5
							c0.9-0.7,1.7-1.5,1.7-1.5c8.9-2.9-2.7,4.8,8.2-0.6l-2.2-1.5c3.3-1.1,7-2,10.8-2.7c1.8-0.4,3.8-0.9,5.6-1.1
							c1.8-0.2,3.8-0.6,5.6-0.9c1.8-0.2,3.7-0.6,5.4-0.9c1.7-0.2,3.4-0.5,5.1-0.7c3.3-0.5,6.1-1.1,8.6-1.6c-2.6,1.6-3.3,3.7,0.5,4.3
							c-2.1,0-5.1,0.6-8.4,1.2c-1.6,0.2-3.4,0.6-5,1c-1.6,0.4-3.2,0.9-4.6,1.2c-0.6,0,1.1-1.1,3.7-2.2c2.7-1.1,6.4-2.2,9.7-2.4
							c-1.8-1.5-5.9-0.2-9.5,1c-3.7,1.3-7,2.7-7.7,1c-16.6,3.1-11.1,6.4-25,9c0.4,1.5-3.4,2.2-3.7,3.8c4.6,0.6,17.6-6.4,26.6-7.8
							c-0.9,0.4-2.4,1.1-2.7,1.5c6.4-1.3,8.9-2.1,13.2-3.7h-0.6c7.5-3.1,5,0.2,9.7,0.1c1.7-0.6,8.2-1,7-2c0,0,2.1,0.1,4.3,0.2
							c2.1,0.1,4.3,0.2,4.3,0.2l-0.6-1.7c4.8-0.5,5.9,0.6,10-0.7l0.1-1.6c0,0-2.9,0.1-5.9,0.1c-1.5,0-2.9,0.1-4,0.1
							c-1.1,0-1.8,0.1-1.8,0.1c6-1.1,1.5-1.7,8.2-2.6c-7.2,2.3,5.3,0.4,6.1,2l4.8-1l-1.2,0.5c3.8,0.7,4.5-0.9,9-0.5
							c-5.3-1-8.8-2-15.4-0.5c4.8-1.1,14.5-2.4,17-2.2c5.1-0.5,8.8,0.7,13.6,1.3c-4.6,0-3.9,1.2-4.3,2.2c-0.4,0.9-2,1.6-11,0.9
							c0.4-0.2,1.8-0.2,2.4,0c-2.4-2.2-11,0.2-14.9,1.1c1.1,1.1-3.1,1.5,3.9,2c-2.3-0.6,5.9-2.9,12.5-1.6l-1.2,2.4
							c0,0,2.4,0.1,4.8,0.2c2.4,0.1,4.8,0.4,4.8,0.4h-0.9c3.4,1.8,10.3,0.4,16.6,2.2c4.9-0.5,22.7,3.9,15.5-0.2
							c5.5,2.8,11,2,17.5,3.5c0,0-2-0.9-3.8-1.6c-1.8-0.9-3.8-1.5-3.8-1.5c9.9,0.7,6.8,1.1,15.2,0.6c0.5,0.9,2.1,2,0.4,2.2
							c12.6,3.9,29.3,12.1,36.9,14.2c4.2,2.1,6,4.3,8.4,6.2c2.4,2.1,5.3,4.3,11,7.3c1.2,0.6,1.1-0.2,1.5-0.5c0.4-0.2,1.5,0,4.6,2.8
							c0.4,0.5-7.8-3.3,0.1,2.1c1.6,0.6,3.3,1.5,4.9,2.7c1.6,1.2,3.1,2.6,4.6,4c3.2,2.8,6.4,6,10.3,8.3c3.2,3.5,9,9,6.7,8.9
							c-5-5.4-13.2-11.9-14.8-12.3c1.3-0.1-3.5-3.9,1.1-1.1c-8.1-7.7-6.1-3.9-13.8-10.3c-0.9,0.1,3.2,4.3,5.3,5.1
							c-1.1,1.6-16.5-10.4-10.8-3.4c8.4,6.1,13.6,4.6,19.2,12.2c-3.5-1.5-7.5-5.7-12.5-6.8c0,0,0.4,0.4,0.9,0.7
							c0.5,0.5,1.2,1.1,1.8,1.8c1.3,1.3,2.7,2.6,2.7,2.6s1.3,0.5,2.6,1.1c1.3,0.5,2.6,1.1,2.6,1.1h-0.4c8.7,10,10.5,6.4,19.8,14.1
							c-3.8-6,3.7-1.3,0.6-5.7c5.9,5.6,9.7,10.3,8.2,11.7c-5.6-5-6.4-4.6-6.7-4.4c-0.5,0.4-0.9,0.7-6.4-3.3c1,2.1-4.3-0.2,1.1,5.7
							c7.3,5.5-0.6-3.2,6.1,2.9c0.2,0.5,0.5,1.1,0,1c3.5,2.4,2.9,3.9,7.1,7l-1.1-0.6c3.1,5.6,5.4,4.4,7.7,9.5
							c-0.1-2.7,3.2,2.2,5.9,4.4c-2.7-4.8-2.7-8.6-9.8-17c-1.8-0.2-1.8,0.9-5.1-2.2l4.8,5.3c-1.1-1-2.2-1.7-3.3-2.6l-3.9-5.5
							c6.4,6,4.6,2.1,8.1,4c4.8,6.5,4.4,4.9,7.2,9c-1.6,0.6,6.6,14.2,10.3,22.5c-0.7-1.2-1.7-2.7-2.2-3.5c-4.5-4.9,1.2,4.5,0.9,5
							l3.2,3.7c-0.5-0.7-1.5-1.6-0.7,0.2c3.5,5.4,4.8,4.3,8.1,9.9c-0.6,0.9-4.4-3.3-3.1,0.5c-0.1,0.9-0.1,2.4,0.4,4.8s1.5,5.4,3.5,9
							c0.6,0.4,1.6,2.3,2.7,4.6c-0.2-0.4-0.4-0.7-0.5-0.9l1.1,5.6c-3.3-3.8-2.8-9.3-6.4-13l-1.6,0.2c-1.5-3.4-4.4-7.5-6.1-9.2
							c2.3,5.1,3.3,5.9,6.1,11.5c-0.6,1.2-3.1-2.4-3.4-3.1l1.2,0.5c-0.9-3.7-2.6-6-4.4-8.4c-1.7-2.4-3.9-5-6.1-8.9
							c-0.6-1.2-0.1-0.6,0.2-0.5c-5-5.6-7.3-12.8-13.2-17.5l2.1,1.5c-0.9-0.9-2-2-3.2-3.3c-1.2-1.2-2.7-2.6-4.3-4
							c-3.1-2.9-6.7-6-10.4-9l-0.5,0.4c0.4,1-1.8-1.6-3.1-3.2l0,0c-1.8-1.5-3.8-2.8-5.5-4.2c-1.8-1.2-3.4-2.4-5-3.5
							c0.6,1.1,1.5,2.3,2.7,3.5c1.6,0.5,7,7.1,7.5,5.1c2.1,3.5,7.2,7.5,8.7,10.1c-1.3-2.3-0.4-2,1-0.9c1.3,1.1,3.2,2.8,3.8,2.9
							c0.1,1,1.3,2.6,2.4,3.9c1,1.3,1.7,2.6,1,2.7c0.4,1.1-0.7-2.7-2.8-4c-2.2-1.8-0.9,0.4,0.4,2.4c1.2,2.1,2.2,4-0.2,1.6
							c6,6.5,12,16.5,17.5,23.8l-2.1-4.6c2,3.5,6.5,12,6.2,13c-1.6-2.6-3.1-5.7-5.1-9c-1.3,0.5,4.3,8.2,3.5,9c0,0,0.5,0.5,1.2,1.3
							c0.6,0.9,1.5,2,2.4,3.1c1.7,2.3,3.5,4.6,3.5,4.6l-2-4.5c2.2,2.4,5.3,12.3,7.3,19.7c-1.7-1.7-2.6-4.4-3.8-7.6
							c-1.1-3.2-2.1-6.8-4.3-10.3c-3.2-4.9-0.4,4.2-3.2-0.6c0.1,1.5,1.6,4.6,2.8,6.1l0.4,2.2c-1.7-2-3.8-5.3-5.7-8.9
							c-2.1-3.7-4.5-7.5-6.8-10.1c0.5,0.5,0.9,0.9,1.2,0.9c-2-5.1-4.8-10-8.2-14.2c1,2.7,2,3.4,3.1,4.6c-0.2,0.4-3.2-3.7-4.6-5
							c2.2,4.5-0.5,1.5,1,4.2c-2.2-2.4-3.3-4.8-5.4-8.1c-0.6-2.1,1.8,0.7,2.3-0.1c-2.8-2.9-2-5.9-6.5-9.9c4.5,6.5-2.9-0.4-5.1-2.1
							l0.7,1.1c-2.4-1.2-3.8-2.8-4.2-4.8c2.4,2.1,4,4.8,4.4,3.3c-1.3-1.7-2.7-3.3-4.6-4.8l2.1,1.1c0,0-1.8-2-3.5-3.9
							c-1.7-2-3.7-3.8-3.7-3.8c-2-0.5-4.9-1.5-7-1.5c-1.1-2.4-4.2-4.3-6.1-5.6l1.1,0.5c-1.3-2-4-4.4-6.6-6.4
							c-2.6-2.1-4.9-3.4-5.6-3.3c-0.5-0.6,0.6-0.4,2.2,0.2c1.6,0.6,3.8,1.6,5.4,2.2c3.3,1.3,4.8,1-4.6-6.2
							c-7.1-5.5-6.1-1.2-10.8-3.3c0,0,0.4-0.1,0.1-0.5c-3.1-2.4-3.9-1.8-6.8-3.2c1.7,1.6,4.3,3.7,5.5,3.9c-0.9,0.1-2.4-1-4.2-2.3
							c-1.8-1.3-3.8-2.7-5.3-3.1c4.2,0.5-5.9-4.6-2.8-3.8c-3.1-2.3-6.5-4.4-9.8-5.6c-3.3-1.2-6.4-2.1-8.4-2.3
							c-3.7-4.3-8.3-3.5-15.8-7.5c1.2,0.5,3.4,1.1,5,2c5,0.4-7.8-3.9-0.5-2.4c-1.6-0.4-0.4,0.7,1.2,1.1c2.7,0.9,5.4,1.5,5,0.5
							c0,0-1.5-1.1-2.9-2c-1.5-1-3.1-1.8-3.1-1.8l2.4,0.6c0,0-2.3-1.5-4.6-2.8c-1.1-0.7-2.3-1.5-3.2-1.8c-0.9-0.5-1.5-0.9-1.5-0.9
							c-0.4,0.2,0.5,0.9,0.9,1.2c-11.4-5-25.4-7.5-36.2-9.3c-0.6,1-2.7,1.2-5.4,1.3c-2.7,0.1-6.2-0.4-9.9-0.4
							c-3.7-0.1-7.6-0.4-11.1-0.2c-3.5,0.1-6.6,0.4-8.8,1.1c2.3-1.2,3.5-3.4,2.1-4.3c2-0.1,6-1.7,10.4-1.2c0.7,0.6,6.1,1.8,2.6,2.3
							c12.2,0.5-1.5-2,2.2-3.3c-13.8-0.4-21.7,2.2-30.2,3.9l-0.2-0.5c0,0-1.6,0.4-3.2,0.7s-3.2,0.7-3.2,0.7c2.6-0.1,3.9,0.5,3.7,1
							c-0.2,0.6-2,1-5.3,1l0.7-0.2c-2-0.2-4.9,0.1-8.1,0.7c-3.2,0.7-6.5,1.6-9.4,2.1c0,0-1,0.5-1.8,1.1c-0.9,0.6-1.8,1.1-1.8,1.1
							c-5.7,1.2-6.7-1.3-8.9-2.2c-4.6,1.2-8.1,2.6-11.1,4.4c-2.9,1.7-5.6,3.4-8.4,5.3c-1.6,0.1-5.7,1.2-8.6,2.1
							c-2.8,0.9-4.5,1.2-1.5-1c-7.5,4.5-3.2,8.8-17.4,12.8l2.7-2.8c-6,3.5-12.8,8.3-18.6,13c-1.5,1.1-2.8,2.3-4.2,3.3
							c-1.3,1.1-2.6,2.1-3.7,3.1c-2.3,1.8-4.3,3.3-5.6,4.2c0.7-3.2-3.2-1.1-7.9,1.7c-4.5,2.9-9.9,6.6-12,6.2c1.1,0.1-2.3,4.2-2.6,5
							c-1.1,0.5-2.8,1.7-3.5,3.8c2.1-1.8,2.2-0.5,2.4,0.2c0.4,0.7,0.7,0.7,3.8-3.5c-1,2.8-2.1,5.7-3.9,9.2c-2,3.3-4.3,7.2-7.8,11.6
							l-1.2-1.1l6-6.8c-1.5,0,1.6-3.5,2.4-5.4c-2.9,3.1-4.5,4.4-5.3,4.8c-0.9,0.4-1,0-1.1-0.5c-0.2-0.9-0.5-1.7-5.9,5.3
							c-0.1,2,0.1,0.9-2.2,4.8c1.2-1.7,0.5-2.7-1.5,0.1l-0.9,3.4c-2.7,1.8-1.8-0.6-0.5-2.9c1.2-2.3,2.7-4.8,0.4-3.2
							c2.8-6.4,10-16,7.1-15.6c-7.8,8.4-3.4,10.3-11,19.3l-1.3,0.6c-1.7,3.8-1,5.1-1.5,7.5c-0.5-0.1-1.5,0.6-2.8,2.8
							c-1.8,7-3.5,11.2-4.4,17.8c1.5-3.9,2.8-6.6,3.9-8.8c1.2-2.1,2.3-3.5,3.4-5c2.2-2.9,4.4-5.9,8.6-13.4
							c-1.1,2.6-7.1,13.1-5.5,14.9l-1.3-1c-2.1,5.1-3.9,10.5-7.3,16.5c0,0,0.2-1.1,0.5-2.1c0.2-1.1,0.6-2.1,0.6-2.1
							c-1.6,4.4-3.5,7.7-5.5,10.8c-1.7,3.2-3.2,6.2-3.2,10.1c1-2.4,1.7-4.3,2.1-5.9c-1.2,4.6-3.2,10.3-5,15c0,0-0.1,2.7-0.2,5.5
							c0,1.3-0.1,2.7-0.1,3.8c0,1,0,1.7,0,1.7c-0.7-0.2-2.3,6.2-2.8,2.8c-0.7,1.8-1.2,3.4-1.5,4.9c-0.2,1.5-0.2,2.8-0.2,4
							c0.1,2.4,0.4,4.5,0.2,6.7c-1.3,3.8-1.3,2.1-1.2-0.7c0.2-2.8,0.6-6.6-0.4-7.2c-0.6,2.7-1.3,5.4-1.7,8.1
							c-0.4,2.7-0.6,5.4-0.9,7.8c-0.2,5,0,9.5,0.5,12.6c0.4-2.2,0.9-3.3,1.1-3.1c-0.6,0.2-0.6,4.6-0.6,7.1l1,1.7
							c-0.9,4-1.3,3.4-2.1,0c-0.4,3.9,1.8,8.4,0.4,12.5c-0.6-3.3-1-7.1-0.9-10.5c0.1-3.4,0.2-6.4-0.1-8.1c0.4,7-0.6,10.4-1.1,14.4
							c-0.2,2-0.7,4.2-0.7,6.8c0,2.7,0.2,6.1,1,10.5c-0.5,0.2-1.8-2.7-1.3,0.7c1.3,7.8,2.3,1.8,3.8,4.2c-1.5-5.9-1-8.8,0-12.5l1,1.5
							c-0.4,0.2-0.2,4-0.5,5.1l1.8,0.7c-1.8-0.2-2.7,6-1.2,10.6c0.5-5,0.7-3.7,2.7-5.3c1.3,3.2,1.3,5,1.1,7.1
							c-0.1,2-0.4,4.2,1.6,7.6c-0.7-0.4-2.4-6.7-1.8-1.1c1,4.5,2.2,3.7,3.4,6.5c-2.3-3.1-3.2-1.8-5.9-5.3c-1.8-8.2-0.6-3.3-2.8-11.2
							l-0.1,7.1c-1.5-7-2.7-4.9-3.4-5.4c0.6,12.5,4,8.7,5.4,16.5c2,3.4-1.5-7.2,1-1.7c1.5,7.2,1.3,1.5,4.2,9l-1.1-1.1
							c-0.2,2.7,1.5,4.8,2.7,7.5c1.5,2.8,3.9-5,8.3,7c-0.6-0.4-1-0.5-1.1-0.5c0,0-1.1-0.4-2.6-1.1c-1.6-0.7-3.5-1.7-5.6-2.7
							c-2.1-1-4.2-2.1-5.7-2.8c-1.6-0.9-2.6-1.3-2.6-1.3c4,13.2,9.7,28.1,16.9,42.5c-0.1,2.3-2.1,0.1-3.9-2.7
							c-1.8-2.7-3.5-5.9-3.9-5.1c0,0-0.7-1.7-1.5-3.4c-0.6-1.7-1.3-3.5-1.3-3.5c1,0,7.2,13.8,5.9,7c-6.5-11.4-7.6-17.2-13.7-28.1
							c-1.3,4.5,5.9,15.3,7.6,23.3c-1.2-3.2-2.7-5.6-4.2-8.2c1.3,3.5,2.8,7.2,4.4,11.1c1.7,3.7,3.4,7.6,5.4,11.5l1.5,1.3
							c-2.8-5.1-4.2-9-4.4-9.5c3.2,7.1,8.1,12,9.8,11.5l-0.6-1.2l1.8,2.1C139.2,397.3,140,398.9,140.9,400.5z M527.1,336.9
							c0.1,0.5,0.2,0.9,0.4,1.2C527.4,337.8,527.1,338,527.1,336.9z M103.1,256.3c-1.8,10.4-2.7,21-3.1,31.2c0.9-4.6,2-8.8,2.8-12
							c1-3.2,1.8-5.5,2.4-6.2c1.3-1.6,1.3,2.8,1.1,17.6l0.4,2c0.1-2,0.2-4.5,0.5-7.5c0.1-2.9,0.1-6.2,0.2-9.3
							c-0.4-2.6-1.7-8.1-2.4-13c-0.4-2.4-0.9-4.8-1.1-6.5c-0.2-1.7-0.5-2.7-0.5-2.7c-1.5,1.6-0.6,4.5-1.3,7.8L103.1,256.3z
							 M110.5,249.9c1.5-5.6,0.4-4.5-0.2-5.5c-0.2,2.1-0.5,4-0.9,6.1C109.7,249.8,110.1,249.4,110.5,249.9z M109.5,244.7
							c-0.1,0.6-0.2,1.2-0.4,1.5L109.5,244.7z M116.6,356.8c-0.1-0.2-0.1-0.4-0.2-0.5c0.4,1.3,0.7,2.7,1.2,4
							C117.4,359.8,117.2,358.8,116.6,356.8z M114.6,345.1l-1.7-1c0.2,1.2,0.6,2.6,1,3.8C114.4,347.3,114.8,346.7,114.6,345.1z
							 M111.9,307.5c-1.8-2.2-2.4-10-4.4-10.4c-0.5-0.5-0.6,1.2-0.6,3.1c0.1,2.1,0.2,4.4,0.4,6.7c0.2,0,0.5,0.5,0.9,1.2
							c0-2.3,0.4-3.9,1.6-3.2c-2,6.2,2.4,5.1,2.4,11.6C113.9,318.3,112.7,309.3,111.9,307.5z M455.1,119.4c0,0.2,0.2,1,0.6,2
							l-4.2-2.1c-1.6-1.3-2.9-2.8-4.3-4.2c-1.3-1.3-2.7-2.6-4-3.8c-2.7-2.4-5.6-4.5-9.3-5.5c-2.6-2.4-3.5-4.4-4.6-6.1
							c1.5,1,2.8,1.8,3.8,2.7c9.8,4.2,11.5,6.7,12.7,8.8c0.6,1.1,1.1,2.1,2.3,3.3C449.4,115.7,451.4,117.3,455.1,119.4z M371.6,74.4
							c0.9,0.1,1.2-0.1,1.2-0.1c-19.1-1.1-34.1-1.3-44-2c1,0.6,3.5,1.5,6.5,2.2c2.9,0.7,6.1,1.3,8.2,2c0,0-1,0.2-2,0.5
							c-1,0.4-2,0.6-2,0.6l-2.2-1.5l-6.5,1c1.7,1.2,6.8,1.3,10.1,2.4c0.2-0.2,11.4-0.9,14.7-1.1c0,0-2.1-0.7-4.3-1.2
							s-4.3-1.1-4.3-1.1c2.3,0.6,14.1,2.2,18.6,2.9c0.1-0.4-1.7-1.3-3.8-2c-2.1-0.6-4.4-0.9-5-0.1c-0.7-1.3,8.4,0.4,2.8-2
							c3.5-0.1,8.1,1,12.2,2.2c4.2,1.2,7.9,2.8,10.4,3.8l0.2,2.1c5.1,2.4,4.4-1,10.4,2.2c-7.9-2.3,0.6,2.4-5.6,0.5
							c1.7,1.3-0.6,2,5.5,3.9c6-0.4,5.7,3.9,11.2,3.9c2.8,2.2-3.9-0.1,2,2.9c3.8,1,5.6,1.2,6.7,1.1c1.1-0.1,1.5-0.9,2.1-1.5
							c-3.1-2-5.3-2.2-7.2-2.4c-2-0.2-3.8-0.4-6.4-1.7c0,0,2.9,0.5,6,1c1.5,0.2,3.1,0.5,4.2,0.7c1.1,0.2,1.8,0.4,1.8,0.4
							c-1.7-1.5-3.3-2.1-4.5-2.6c2.3,0.9,4.4,1.2,6.2,1.5c1.1,0.1,2.1,0.2,2.9,0.4c-1.5-0.7-3.1-1.6-4.4-2.3
							c-1.3-0.7-2.7-1.3-3.8-1.8c-2.2-1.1-3.8-2.1-4.2-2.7l1.2-0.5c-1.8-1.8-5.9-2.6-7.8-2.7c-5.7-2.3-12.1-2.8-13-4.4h2.4
							c-3.7-1.1-5.7-1.6-7.9-2.2C378.7,76.4,376.2,75.4,371.6,74.4z M147.4,150.3c2.8-0.7,5.4-1.7,9.2-4.4
							c3.8-2.7,8.4-7.2,15.9-14.8l-1,1.3c2.3-1.5,4.2-3.2,6.1-5.1c2-1.8,3.7-3.8,5.5-5.9c3.8-3.9,7.9-8.2,14.1-10.9
							c-4.4,4.6-4.3,4.4-7.8,10.9l4.6-4.9c-0.4,2.6,4.4-2.1,8.4-4.8l-2.2,4.3c-1.3,0.6-3.7,1.8-5.4,3.2c-1.8,1.3-3.2,2.4-2.9,2.6
							c0.6-0.6-1.8,0.4-4.9,2.1c-2.9,1.8-6.7,4.4-8.8,6.8c1.5,0.6,11.1-8.6,8.2-2.8c3.3-4.2,4.8-3.3,8.7-7.1c-3.4,4,0.2,2.3-2.2,5.6
							c0,0,1.6-1.5,3.3-2.9c1.6-1.5,3.4-2.8,3.4-2.8c0.4,0.1-9.4,8.7-2.7,5.6c2.2-2.9,10.4-7.3,9.7-8.8l0.5,0.2
							c5.6-3.2,1.2-3.4,8.4-7c-0.4-0.7-2-0.4-4.3,1.3c-1.8,1.6-1.6,2.7-5.6,5.6c-1.2,0.1,0-0.7,1.1-1.5c1.1-0.7,2.1-1.6,0-1.5
							c-2.1,0.1-10.4,8.4-8.8,4.4l5.6-3.5c-0.9-1.5,3.3-4,2.4-5c3.2-2.7,7.3-3.3,10.3-6.5c1-1.7-2.6-2,3.9-4.6
							c1.5-0.1,3.4-0.6,5.7-1.5c2.2-0.9,4.6-2,7.2-2.9c5-2.2,10-4.4,12.7-5.6c0,0,1.1-0.7,2.3-1.5c1.2-0.6,2.3-1.3,2.3-1.3
							c-0.9-0.9-9.4,3.7-6.7,1.3c0,0,1.8-0.9,3.8-1.7c2-0.7,3.9-1.5,3.9-1.5l-0.4,0.7c2.7-0.7,5.1-2.3,7.3-3.3
							c-2.2,1.8-7.9,3.4-6.2,4.5c3.8-0.9,4.4-0.6,7.8-1.8c-0.7,0.4-1.3,0.6-1.1,0.9c7.7-1.5,6.7-3.8,8.4-4.9c3.5-2,1.5-2.1-1.3-1.7
							c-2.8,0.4-6.6,1-6.4,0.1c0,0,1.3-0.5,3.4-1.1c1.1-0.4,2.3-0.7,3.5-1.2c1.3-0.4,2.7-0.7,4.2-1.1c5.6-1.6,11.4-2.8,11.4-2.8
							c-1.8,0.9-3.8,1.7-2.9,2.3c5.7-0.2,0.4,1.2,8.2-0.2c-0.5-1.1,2-1.8,5.3-2.4c1.6-0.4,3.4-0.6,5.3-1c1.7-0.4,3.5-0.6,4.9-1.1
							c2.7,0.7,3.3,0.9-2.4,1.3c0.9,1.5,8.4,0.1,11.2,0.2c1.6-0.4,4.3-0.7,6-1.1c-2.3-0.6-1.3-1.6,3.7-2.3l0.4-0.2
							c-4.2-0.1-9.5-0.6-14.5-0.5c-5,0.1-9.5,0.4-12.1,1.6l1.3-0.9c-4.9,0-10,1.2-14.5,2.6c-4.5,1.2-8.3,2.3-10.8,1.6
							c0.1-1.1-2,0.2-2.2-1.3c0,0-1.7,0.7-3.4,1.5c-1.6,0.7-3.3,1.6-3.3,1.6l1.2-1.1c0,0-2.9,0.9-5.9,1.8c-2.9,0.9-5.7,2-5.7,2
							l0.2-0.4c-2.4,1.6-4.8,3.1-6.7,4.4c-2,1.5-3.7,2.7-5.1,3.8c0.2,0.6,0.6,0.7-1,1.8c-1.6,1-2.9,1.6-4.2,2.1l0,0l0,0
							c-2.7,1-4.9,1-8.4,2.1c0,0,2.6-1.2,5.1-2.4c1.2-0.6,2.6-1.2,3.4-1.6c1-0.5,1.6-0.7,1.6-0.7c0.4-1.5-1-2.2-6.4-0.6
							c2.1-1,2.6-2.2-0.1-1.2c-0.1,0.4-6.5,3.8-3.7,3.4c-4.8,2.6-11.4,5.1-18.3,8.7c-3.5,1.7-7,3.9-10.4,6.1c-3.4,2.3-6.7,5-9.7,7.8
							c4.4-4,2.2-2.9,0.2-1.8c-2,1.1-3.7,2.2,1.5-2c-4.4,1.8-5.5,3.7-6.7,5.4c-1.1,1.8-2.3,3.5-5.9,6.6c-1,0,3.9-3.3,4.8-5.6
							c-6.4,4.5-10.8,9.5-14.9,14.7c-2.1,2.4-4,5.1-6.1,7.7c-2.2,2.6-4.4,5.3-6.8,7.9l-1.5-0.5C151,145.1,149.2,147.6,147.4,150.3z
							 M132.2,175.7c-1.2,2.6-2.7,5.1-3.8,7.8c0.1-0.2,0.2-0.5,0.4-0.7L126,191c2.9-4.4,5.9-6.7,3.3,0.1c-0.2-0.9-2,0.7-1.1-1.7
							c-1.6,2-3.5,5.3-4.8,7.9c-1.2,2.7-1.7,4.6-0.1,3.8c2-9.4,3.4-0.9,5.1-8.2c-0.4,4.2-2.6,7.5-3.4,11c0.4-4-2.8-0.2-5.5,5
							c-0.7,2.4-3.2,8.9-3.9,13.1c1.7-1,1.3,2.7,3.8-3.7c-0.2,1.2-0.6,2.8-1.1,4.5s-1.1,3.7-2.1,5.6c0.2-1.7,0.9-4.6,0.4-4.6
							c-2,2.3-2.8,5.5-3.8,7.2c-0.4,1.5-0.5,2.8-0.9,4.3c0.2-0.4,0.5-0.7,0.7-1l0.1,5c0.9-6.4,1.2-2.7,2.1-2.4
							c-1.5-0.5-1.1,3.9-1.6,6.1l2.7-4.3c0.1,1.2-0.6,3.1-1.1,4.5c-0.5,1.5-0.7,2.6,0.1,2.2c1.2-4.8,2.2-8.1,2.9-11.4
							c0.7-3.2,1.5-6.4,2.4-10.8l-2.2,3.2c0.9-5,2.1-6.4,3.3-7.7c1.2-1.3,2.3-2.9,4.4-8.2c0.5-4.9,6.6-15.6,4.6-16.9
							c0,1.6,5-5.4,6-9.3c0.1-2.3,1.7-6.5,3.1-9.5c1.5-3.1,2.4-5.1,0.9-3.8c-2.1,2.9-3.4,7.7-6,9.5l3.1-6.2l-3.3,3.4
							C135.4,176,134.3,175.6,132.2,175.7z M93.5,331.2c0,0.1,0,0.2,0,0.2V331.2L93.5,331.2z"/>
						<path fill="#FFFFFF" d="M521.4,198.8c1.5,1.6,3.1,6.5,3.8,5.1c-0.6,0.2-1.5-1.8-2.2-3.5C522.1,198.6,521.4,197.3,521.4,198.8z
							"/>
						<path fill="#FFFFFF" d="M522.5,204.9c0.4,0.2,0.7-0.2,1.6,2l-2.6-5.7L522.5,204.9z"/>
						<path fill="#FFFFFF" d="M516.6,213.7c2,2.6,3.1,4.3,4.5,8.9c-2.4,2.7-3.4-7.2-6.8-8.3c1.3,4.2,2.8,6.7,4.3,9
							c1.5,2.3,2.8,4.5,3.9,8.1c0.1-1.8-0.5-6.5-1.8-10.5C519.4,216.9,517.9,213.5,516.6,213.7z"/>
						<path fill="#FFFFFF" d="M511.5,211.5c0,0,0.6,1.1,1.2,2.1c0.6,1.1,1.2,2.2,1.2,2.2v-0.5c0,0-0.6-1.1-1.2-2.2
							c-0.6-1.1-1.2-2.2-1.2-2.2V211.5z"/>
						<path fill="#FFFFFF" d="M468,106.7c0.2-1.1-3.1-2.4-4.6-3.4C464.6,104.3,466,105.7,468,106.7z"/>
						<path fill="#FFFFFF" d="M487.3,448.5c0,0,1.7-2,4.4-4.9c2.6-2.9,6-7,9.2-11.1s6.4-8.3,8.4-11.6c2.2-3.3,3.7-5.4,3.7-5.4
							C506.4,425.5,499.9,434.5,487.3,448.5z"/>
						<path fill="#FFFFFF" d="M341.2,60.9c5.5,0,9.4,0,13.6-0.1c4,0.1,8.1,0.2,13.7,1.2c-3.5-1.3-6.6-1.8-9.3-2.2
							c-2.7-0.4-5.1-0.4-7.5-0.2c-4.6,0.1-8.9,0.4-15-1.1L341.2,60.9z"/>
						<path fill="#FFFFFF" d="M345.9,53.6c1.6,2-8.8,1.3-7.3,2.8c7.5,0.1,3.7-1.5,10.4-0.5L345.9,53.6z"/>
						<polygon fill="#FFFFFF" points="385.9,93.4 382.8,93.3 385.2,93.8 						"/>
						<polygon fill="#FFFFFF" points="294.9,55.1 296,54.7 290.3,54.8 						"/>
						<path fill="#FFFFFF" d="M297.2,54l-1.2,0.5L297.2,54z"/>
						<polygon fill="#FFFFFF" points="381.1,95.8 385.2,97.7 387.4,97.5 						"/>
						<path fill="#FFFFFF" d="M344.8,78l4.2-0.1C348.3,78,342.8,76.5,344.8,78z"/>
						<polygon fill="#FFFFFF" points="260.9,60.6 255.8,62.8 256.4,62.8 261.5,60.6 						"/>
						<path fill="#FFFFFF" d="M313.2,81.8c2.8,1.3-7.9,0.6-2.2,1.7C316,83.1,313.9,82.4,313.2,81.8z"/>
						<path fill="#FFFFFF" d="M252.9,82.9c-0.6,0.2-1.3,0.5-2,0.9C251.8,83.4,252.5,83.1,252.9,82.9z"/>
						<path fill="#FFFFFF" d="M252.9,82.9c2.1-0.7,4.4-0.9,5.6-1.7C255.8,81.3,254.9,81.9,252.9,82.9z"/>
						<path fill="#FFFFFF" d="M229.6,92.5l1.8-0.7c-1.6,1.5-0.7,1,0.7-0.2c2-1,1.6-1.2,1.7-1.6c0.4-0.4,0.6-0.6,1-1
							c-0.5,0.5-1,0.9-1.3,1.2C230.5,91.3,228.8,92.2,229.6,92.5z"/>
						<path fill="#FFFFFF" d="M137.8,134.1c5.7-5.9,7.3-7.2,7.8-6.2c5.5-5.4,3.3-5.7,6.4-9.5c-2.9,3.3-4.9,5.1-6.8,7.2
							C143.2,127.6,141.1,130,137.8,134.1z"/>
						<path fill="#FFFFFF" d="M152,118.4c0.6-0.7,1.3-1.3,2.2-2.2C153.2,117.1,152.5,117.7,152,118.4z"/>
						<path fill="#FFFFFF" d="M260.6,93.3c0,0-0.9,0.7-1.8,1.5c-0.9,0.7-1.7,1.5-1.7,1.5l1.5-0.7c0,0,0.5-0.6,1.1-1.1
							C260,93.8,260.6,93.3,260.6,93.3z"/>
						<path fill="#FFFFFF" d="M129.9,143.4c1-1.1,2.4-3.1,3.5-3.8C132.8,138.5,128.8,144.5,129.9,143.4z"/>
						<path fill="#FFFFFF" d="M165.8,134.3c1-0.1,4.2-3.7,5.7-4.9C169.4,131.3,166.3,131.4,165.8,134.3z"/>
						<path fill="#FFFFFF" d="M120.5,165.1c0.9-1.2,2.7-2.8,2.9-1.5C124.2,161.6,124.2,158,120.5,165.1z"/>
						<path fill="#FFFFFF" d="M156.4,144.2l1-0.6c0,0,0.7-1.1,1.5-2.2c0.7-1.1,1.5-2.1,1.5-2.1s-1,1.2-2,2.4
							S156.4,144.2,156.4,144.2z"/>
						<path fill="#FFFFFF" d="M180.1,142.5c2.9-4.6-8.4,3.7-2.4-3.5c-9.5,7.6,1.8,0.6-4.4,6.8C177.2,142.3,180.1,141.8,180.1,142.5z
							"/>
						<path fill="#FFFFFF" d="M173.3,145.8c-0.6,0.5-1.2,1.1-1.8,1.7C172.2,146.8,172.8,146.2,173.3,145.8z"/>
						<path fill="#FFFFFF" d="M124.5,205.9c0.1-0.9,0.2-1.3,0.2-2C124.7,204.7,124.7,205.3,124.5,205.9z"/>
						<path fill="#FFFFFF" d="M156.2,168c0,0,0.7-2,1.6-3.9c0.9-1.8,1.7-3.8,1.7-3.8c-2.4,4.9-10.1,16.1-7.9,16.6
							c2.6-3.5,5.4-7.9,5.9-10.3L156.2,168z"/>
						<path fill="#FFFFFF" d="M86.2,246.7v-4.2l-1.1,5C85.5,246.2,86.4,249.1,86.2,246.7z"/>
						<path fill="#FFFFFF" d="M84.7,248.6l0.2-1C84.9,247.8,84.8,248.2,84.7,248.6z"/>
						<path fill="#FFFFFF" d="M130.3,191c1.3-2.3,2.3-4.4,3.2-6.7C132.6,185,129.2,191,130.3,191z"/>
						<path fill="#FFFFFF" d="M85.9,275.5c0,0-0.1-1.7,0-3.3c0-1.7,0.1-3.3,0.1-3.3s-0.1,1.8-0.2,3.7c-0.1,0.9-0.1,1.8-0.1,2.4
							s0,1.1,0,1.1L85.9,275.5z"/>
						<path fill="#FFFFFF" d="M83.4,306.7l-0.2,1.2c0,0,0.2,1.3,0.6,2.7c0.4,1.3,0.7,2.7,0.7,2.7l0.2-1.2c0,0-0.4-1.3-0.6-2.7
							C83.6,308.2,83.4,306.7,83.4,306.7z"/>
						<path fill="#FFFFFF" d="M121.5,268.9c0.4-3.8-0.9-7-1.3-6c0,0,0,0.5-0.1,1.2c-0.1,0.7-0.2,1.6-0.2,2.6
							c-0.1,1.8-0.2,3.8-0.2,3.8c1.7-1.8,0-2.1,0.9-6.4c0,0,0.2,1.2,0.5,2.4C121.2,267.6,121.5,268.9,121.5,268.9z"/>
						<path fill="#FFFFFF" d="M207.7,492.2c-2.2-0.1-10.3-5.4-10.1-6.5c1.3,0.4,6,2.6,3.5,0.4c0,0-2-0.4-3.9-0.9c-2-0.5-3.9-1-3.9-1
							c-7.6-6.8,8.2,1.5,13,2.9c-4.3-2.7-7.3-4-10.3-5.6c-3.1-1.5-6.2-2.9-10.6-6.2c2.4,2.1,3.8,3.8,4.9,5.1
							c-0.4,0.9-2.6-0.4-5.3-2.3c-2.8-2-6.4-4.6-9.2-6.8c3.2,3.4,0.7,2.3-2.4,0.7c-0.5-0.4-0.9-0.5-1.2-0.6
							c-0.4-0.2-0.7-0.4-1.1-0.5l0.7,0.5c-0.1,0.1-0.1,0.4,0.1,1.1c5.1,3.5,8.2,7.5,11.4,9.8c-0.7-2.3,2.1-0.4,5.7,2.1
							c3.8,2.6,8.3,5.9,10.8,6.6l5.1,2.7l1.8,1.1c0.2,0.5-0.5,0.5-3.7-0.6c2.6,1,10.8,5.3,10.4,4c0,0,1.2,0.6,2.9,1.5
							c1.7,0.9,4.2,2,6.6,2.9c2.4,1.1,4.8,2.2,6.6,2.8c1.8,0.7,3.1,1.2,3.1,1.2c0.6,0.4,1.1,0.7,1.5,1.1c0.7,0.1,0.9,0,0.9-0.1
							c0,0,1.3,0.5,3.7,1.5c2.3,0.9,5.7,2,9.8,3.3c8.2,2.4,19.2,5.5,30.4,7.3c5.6,1.1,11.2,1.6,16.6,2.3c5.3,0.4,10.3,0.9,14.5,1
							s7.8,0.1,10.3,0.2c2.4-0.1,3.9-0.1,3.9-0.1c-4.5,0-8.3-0.9-13-1.3c7-1.7-7.6-0.5-5.4-2.4c3.1-0.4,7.6-0.2,10.3,0.4
							c1-0.9-2.8-1.8-2.3-2.8c-5.6-0.6-8.8-0.1-12.1,0.5c-3.3,0.6-6.6,1.3-12,0.2c0.6-1,4-1.6-3.1-2.3h1.8c-5.9,0-7.9-1.3-9.5-2
							c-1.6-0.7-2.7-1-6.6-0.2l0.5-1.5c-2.7,0-6.5-0.6-10.3-1.3c-3.8-0.9-7.7-2-10.4-2.6l0.4-0.2c-15.8-3.4-8.8-2.2-25.8-8.3
							c0,0,0.5,0.1,1.3,0.2c0.7,0.1,1.8,0.4,2.9,0.5c2.1,0.4,4.2,0.6,4.2,0.6c-5.5-2.9-7.5-1.7-11.5-3.8c0.4-0.1,0-1.6,3.9-0.1
							c0,0-1.3-0.4-3.3-1c-2-0.6-4.6-1.3-7.2-2.3c-2.6-1-5.1-1.8-7.1-2.6s-3.2-1.2-3.2-1.2C201.9,488.1,207.4,491.1,207.7,492.2z"/>
						<path fill="#FFFFFF" d="M185.4,475.4c-0.9-0.7-2-1.5-3.3-2.4C183.4,473.9,184.4,474.6,185.4,475.4z"/>
						<path fill="#FFFFFF" d="M330.9,523l-6.4,0.2C326.5,523.1,328.6,523.1,330.9,523z"/>
						<path fill="#FFFFFF" d="M158.7,458c2.2,3.3-2.9-1.2-3.8-1.2c0,0,2.6,2.4,5,4.8c2.6,2.3,5.3,4.5,5.3,4.5c0.4-0.5,1.8-0.1,2-0.7
							c0,0-2.2-1.8-4.3-3.7c-1.1-0.9-2.2-1.8-2.9-2.6C159.2,458.5,158.7,458,158.7,458z"/>
						<path fill="#FFFFFF" d="M167.7,469.6c0.6,0,2.1,0.6,3.5,1.3c0,0-1.5-1.1-2.9-2.4c-1.5-1.2-2.9-2.4-2.9-2.4
							C165,466.6,165.3,467.4,167.7,469.6z"/>
						<path fill="#FFFFFF" d="M187.3,443.8l1.6,1.3l2.8,1.6c0,0-1.1-0.7-2.3-1.5C188.4,444.7,187.3,443.8,187.3,443.8z"/>
						<path fill="#FFFFFF" d="M213.2,465.6c-1.8-2.1-6.2-4.2-7.7-4.9C210.3,463.7,208,462.8,213.2,465.6z"/>
						<polygon fill="#FFFFFF" points="212.6,453.6 217.3,455.9 216.9,455.6 						"/>
						<path fill="#FFFFFF" d="M376.2,510.2c1-0.2,1.8-0.5,2.8-0.9C377.7,509.7,376.8,509.9,376.2,510.2z"/>
						<path fill="#FFFFFF" d="M325,518.4c14.5,1.5-9.5,1.7-4.9,3.9l7.9-1l-0.6,0.6c0,0,2.4-0.1,4.9-0.2c2.4-0.2,4.9-0.5,4.9-0.5
							c-2.1-0.9-3.5-0.9-3.2-2c13-0.6,4.2,1.1,13.8,1.5c0,0,3.7-0.5,7.2-1c3.5-0.6,7.2-1.3,7.2-1.3l-1.1,0.5
							c1.2-0.2,1.7-0.5,2.1-0.7c0,0,12.1-2.2,23.8-6c2.9-0.9,5.9-1.8,8.6-2.8c2.7-1,5.3-1.8,7.3-2.7c4.3-1.7,7.1-2.9,7.1-2.9
							c7.9-4.2-5.3,0,0.1-3.9c-9.4,4-24.1,7.6-24.3,9.7c0.2-0.4,0.7-1.1-1.3-0.9l-5.3,3.3l5.6-1c-1.3,0.9-3.4,1.8-6,2.7
							c-2.6,0.9-5.6,1.6-8.6,2.2c-5.9,1.3-11.6,1.7-13.4,1.6c10.8-2.6,4.9-3.4,19.9-5.7c-0.9-0.4-3.7-0.7-0.5-1.7
							C359.1,514.9,343.2,516,325,518.4z"/>
						<path fill="#FFFFFF" d="M484.3,449.3v0.2C484.4,449.2,484.5,449.1,484.3,449.3z"/>
						<path fill="#FFFFFF" d="M479.7,453.2c0,0-1.2,1.8-2.4,3.8s-2.6,3.7-2.6,3.7s2.6-2.2,4.9-4.6c2.4-2.3,4.9-4.8,4.9-4.8l-0.4-1.7
							c-0.6,1.1-3.4,4.9-5.1,5.7L479.7,453.2z"/>
						<path fill="#FFFFFF" d="M468,468.3c5-5,3.4-6.1,0.1-4.3c4.3-4.8,3.8-0.7,5.9-5c-1-0.9-6.4,4.9-7.6,6.1L468,468.3z"/>
						<polygon fill="#FFFFFF" points="423.9,495.4 425.4,493.8 421,495.9 						"/>
						<path fill="#FFFFFF" d="M425.4,493.8l4.4-2.1c-0.5-0.4-1.1-0.6-2-0.6L425.4,493.8z"/>
						<path fill="#FFFFFF" d="M441,486.1c1.8-1,3.8-2.1,6.1-3.5c0,0-1.5,0.9-3.1,1.8C442.6,485.1,441,486.1,441,486.1z"/>
						<path fill="#FFFFFF" d="M436,488.4l0.2,0.1l4.8-2.4C439.2,486.8,437.6,487.7,436,488.4z"/>
						<path fill="#FFFFFF" d="M429.8,491.8c1.3,0.7,2.7,1.5,8.7-2.3l-2.2-1c0,0-1.6,0.9-3.3,1.7
							C431.5,491.1,429.8,491.8,429.8,491.8z"/>
						<polygon fill="#FFFFFF" points="245.5,472.5 250.1,473.6 249.8,473.3 245.1,472.2 						"/>
						<path fill="#FFFFFF" d="M271.3,482.1c1.2,0,2.1,0,2.9,0C273,482,272,482,271.3,482.1z"/>
						<path fill="#FFFFFF" d="M292.5,477.7c5.1,2-7.7,0.7,2.2,2.4c0.7,1.2-4.2,2.3-8.8,0.7c0.6-1,4.6,0.1,2-1.5
							c-3.3,0.7-4.4-0.4-3.5,1.5c-5.5,0.1-6.4,1-10.1,1.2c6.5,1,19.9,4.8,28.5,3.4c4.8-1.6,2.2-4.5,2.4-7.3
							c-0.2-0.4-3.3-0.7-6.2-1.1C295.8,476.7,292.9,476.7,292.5,477.7z"/>
						<path fill="#FFFFFF" d="M284.7,473.4c-2.4-0.6-3.2-0.6-4.6-0.7C280.2,473.9,282.8,473.2,284.7,473.4z"/>
						<path fill="#FFFFFF" d="M343.1,497c0.5-0.5,5.3-1.6,4.2-2.2c0,0-1.8,0.4-3.7,0.7c-1.8,0.4-3.7,0.6-3.7,0.6
							C341.7,496.1,342.4,496.6,343.1,497z"/>
						<path fill="#FFFFFF" d="M336.8,496.7l3.3-0.5C339.1,496.2,338.1,496.4,336.8,496.7z"/>
						<path fill="#FFFFFF" d="M343.5,497.2c-0.1-0.1-0.2-0.1-0.4-0.2C343,497.1,343,497.2,343.5,497.2z"/>
						<path fill="#FFFFFF" d="M458,475.5c0.4,0.7,3.2-1.8,4.4-3.2C461.2,473.3,459.3,474.3,458,475.5z"/>
						<path fill="#FFFFFF" d="M537.5,365.6l1.6-2.8C538.4,363.7,538,364.2,537.5,365.6z"/>
						<path fill="#FFFFFF" d="M528.2,314.8c-0.1-0.1-0.2-0.4-0.4-0.6C528,314.4,528,314.7,528.2,314.8z"/>
						<path fill="#FFFFFF" d="M527.9,314.1c-0.4-2.1,1.5-8.1,0.5-10.3l0.2,0.2l-0.2-4.2c-0.1,2-0.4,4.9-0.5,7.7
							C527.6,310.4,527.6,313,527.9,314.1z"/>
					</g>
				</g>
			</g>
		</g>
	</g>
</g>
<g>
	<g>
		<g>
			<g>
				<g id="YoI1sJ.tif_9_">
					<g>
						<path fill="#CCCC66" stroke="#1C75BC" stroke-width="8.170000e-02" stroke-miterlimit="10" d="M198.5,238.8c0-2.7,0-5.3,0-7.9
							c0-5.9,0.1-11.7,0-17.5c0-1.5,0.4-1.7,1.8-1.7c17.1,0,34.2,0,51.3,0c0.6,0,1.2,0,1.8-0.1c0.1-0.1,0.2-0.1,0.2,0
							c0.5-0.5,0.2-1.1,0.2-1.6c0-13.2,0-26.4,0-39.6c0-6.1,1.1-12.1,2.4-18c0.1-2.2,0.9-4.3,1.6-6.4c3.2-8.7,7.7-16.6,13.7-23.7
							c6.1-7.2,13.3-13.2,21.6-17.8c8.9-5,18.5-8.2,28.6-9.4c1-0.1,2,0,2.9,0c24.9,0,49.9,0,74.7-0.1c2.6,0,2.2-0.2,2.2,2.3
							c0,20.5,0,40.9,0,61.5c0,1.6-0.4,2.1-2,2.1c-10.1-0.1-20.3-0.2-30.4,0c-12,0.2-20.9,5.9-26.4,16.6c-1.7,3.4-2.7,7.2-2.7,11.1
							c0.2,2.6,0.1,5,0.1,7.6c0,4.6,0,9.3,0,14.1c0,0.5-0.1,1.1,0.1,1.6c9.3,0,18.6,0,27.9,0c0.9-0.2,1.8-0.1,2.7-0.1
							c4.8,0,9.5,0,14.4,0c4.4,0,8.8-0.6,13.2-0.4c0.6,0,1.1,0,1.7,0c1.1,0.1,1.6,0.6,1.6,1.7c0,1.5,0,2.9,0,4.4
							c0,19.2,0,38.4,0,57.6c0,0.9,0.2,1.8-0.4,2.7c-0.9,0.6-1.7,0.4-2.6,0.4c-18.7,0-37.4,0-56,0c-0.7,0-1.6-0.2-2.2,0.4
							c-0.2,0.6-0.2,1.3-0.2,2.1c0,12.6,0,25.3,0,38c0.1,28.1-0.5,56.1-0.2,84.2c0,25.2,0,50.2,0,75.4c0,0.6,0.1,1.2-0.1,1.8
							c-0.7,0-1.3,0.1-2.1,0.1c-27.4,0-54.9,0-82.2,0c-2.4,0-2.1,0.2-2.1-2.1c0-66,0-132.1,0-198.1c0-2.3,0.4-2.1-2.2-2.1
							c-17.2,0-34.3,0-51.6,0c-0.6,0-1.2-0.1-1.8-0.1c0-1.5,0-2.9,0-4.3c-0.6-0.6-0.5-1.3-0.5-2.1c0-9.9,0-19.9,0-29.8
							C198,240.3,198,239.5,198.5,238.8z"/>
					</g>
				</g>
			</g>
		</g>
	</g>
</g>
</svg>
