<?xml version="1.0" encoding="utf-8"?>
<!-- Generator: Adobe Illustrator 17.1.0, SVG Export Plug-In . SVG Version: 6.00 Build 0)  -->
<!DOCTYPE svg PUBLIC "-//W3C//DTD SVG 1.1//EN" "http://www.w3.org/Graphics/SVG/1.1/DTD/svg11.dtd">
<svg version="1.1" id="Layer_1" xmlns="http://www.w3.org/2000/svg" xmlns:xlink="http://www.w3.org/1999/xlink" x="0px" y="0px"
	 viewBox="63.8 51.6 380 409.2" enable-background="new 63.8 51.6 380 409.2" xml:space="preserve">
<g>
	<circle fill="#FFFFFF" cx="259" cy="243.3" r="176.2"/>
	<g>
		<g>
			<g>
				<g>
					<g>
						<path fill="#FFFFFF" d="M439.2,215.2c0.5,2.6,0,4.9-0.4,4c1.6,5.1,0.6,5.3,2.4,5.8c1.1,3.3,0.2,7-0.8,3.2c0,0,0.5,2.4,0.9,4.8
							c0.4,2.4,0.7,4.9,0.7,4.9s0-1.5,0.1-2.9c0.1-1.5,0-2.9,0-2.9c1.7,1.5-0.2,9.4,1.7,11.2c0,0-0.1-2.7-0.2-5.3
							c-0.1-1.3-0.1-2.7-0.1-3.7c0-1-0.1-1.7-0.1-1.7l0.5,0.5c-0.7-2.4-0.8-7.1-0.8-8.8c0.3,0.2,0.6,0,0.8,1.9
							c-0.6-6.5-1.5-7.2-2.2-7.7c-0.9-0.5-1.5-0.7-2.7-5.9C439,213.2,439.2,214.1,439.2,215.2z"/>
						<path fill="#FFFFFF" d="M440.8,203.8l-2.8-4c0,0-0.1-0.5-0.2-1.2c-0.1-0.7-0.3-1.6-0.5-2.6c-0.4-1.9-0.8-3.7-0.8-3.7
							c-0.6,0.1-2.6-5-2.2-1.3c0.3,0.7,0.9,2,1.1,3.1c-0.8-0.2-1.6-2.6-2.4-4.5c-0.8-2-1.6-3.5-1.9-2.3c2.2,5.5,2,6.5,4.1,9.7
							c1.1,5.3,1.8,9.2,1.7,11.8c0.5,1.5,1.4,1.6,1.9,3.6c-0.1-0.4-0.2-0.8-0.3-1.4l2-0.6c-0.8-1.6-0.8-3.3-1.2-5.1
							c0,0,0.3,0.5,0.7,1.3c0.4,0.8,0.9,1.8,1.4,2.8c1,2.1,2,4.2,2,4.2c0.7-1.6,0.4-4.5-0.1-7.5c-0.6-3-1.4-6-1.4-7.8
							C441.2,203,440.2,195.2,440.8,203.8z"/>
						<path fill="#FFFFFF" d="M438.8,212.4c0,0.1,0,0.2,0,0.2C438.9,212.5,438.9,212.4,438.8,212.4z"/>
						<path fill="#FFFFFF" d="M119.8,341.5c1,1.4,1.7,1.5,2.1,1.6c0,0-0.7-1-1.8-2.5c-0.5-0.7-1.2-1.6-1.8-2.5c-0.6-1-1.3-2-1.9-3
							c-1.3-2-2.7-4.1-3.5-5.7c-0.9-1.6-1.5-2.6-1.5-2.6c-0.2,0.8,2.1,6-0.1,2.9c0.2,1.8,3.5,5.9,4.5,6.1l-1.5-0.7
							c3.3,3.2,3.4,7,1.1,4.9l0.2,0.3c0,0,2.7,2,5.3,3.9c1.3,1,2.7,1.9,3.7,2.6c1,0.7,1.7,1.1,1.7,1.1
							C123.8,344.1,123.1,346,119.8,341.5z"/>
						<path fill="#FFFFFF" d="M429,272.1c-0.3,2.6-0.1,2.9,0.1,2.7C429.1,273.8,429.1,273,429,272.1z"/>
						<path fill="#FFFFFF" d="M128.9,349.5c0,0,0.8,0.6,1.7,1.1c0.9,0.5,1.7,1,1.7,1C131.2,350.6,129.9,349.9,128.9,349.5z"/>
						<path fill="#FFFFFF" d="M96.8,337.4c-0.1,0-0.1,0-0.2,0.2l1.5,1.3c0,0,0,0,0,0C97.7,338.3,97.2,337.8,96.8,337.4z"/>
						<path fill="#FFFFFF" d="M200.8,395.6c0.4,0.1,0.7,0.2,1.2,0.4C201.6,395.8,201.2,395.7,200.8,395.6z"/>
						<path fill="#FFFFFF" d="M68.6,284.8c0,0,0.9,2.3,1.7,4.7c0.8,2.4,1.8,4.6,1.8,4.6c-0.9-1.1,0.5,3.4-0.7,1.6
							c0.3,0.7,1.5,4.1,1.5,3l-0.6-1.9c3.1,4.5,2.7,1.4,6.7,9c-0.4-2.7-1-4.5-1.7-5.9c-0.6-1.5-1.4-2.6-2.2-3.8
							c-0.4-0.9-0.6-1.6-0.9-2.4c0,0-0.3-0.4-0.7-1.1c-0.4-0.7-1-1.6-1.5-2.5c-1-1.9-2.1-3.7-2.1-3.7L68.6,284.8z"/>
						<path fill="#FFFFFF" d="M375.1,383.7l0,0.2C375.2,383.7,375.2,383.7,375.1,383.7z"/>
						<path fill="#FFFFFF" d="M375.2,384.5l0-0.7C374.9,384.4,373.6,385.8,375.2,384.5z"/>
						<path fill="#FFFFFF" d="M127.2,349.1c0.3-0.1,0.9,0,1.7,0.4l-2.5-1.7C126.6,348.2,126.9,348.6,127.2,349.1z"/>
						<path fill="#FFFFFF" d="M120.2,346.1l-4.5-5.9l-2.2-1.8C115.2,340.6,117.4,343.1,120.2,346.1z"/>
						<path fill="#FFFFFF" d="M191,390.4c13.3,5.7-4.1,0.4,1.8,3.6c3.8,1.5,5.6,1,8,1.7c-5.5-1.7-4.8-2.3-4.2-2.9
							c0.7-0.6,1.3-1.2-4-3.4c1.1-0.5,3.1,0,5.4,0.7c2.2,0.7,4.6,1.7,6.3,2.6c1.8,1.5,0.8,1.5-0.9,1.2c-1.6-0.3-3.9-0.9-4.7-0.3
							c4.4,1.4,3.7,0.9,5.9,0.7c3.4,1.3,7,2.1,10.3,2.7c1.7,0.3,3.2,0.7,4.5,1.2c1.4,0.4,2.6,1,3.5,1.8c5.2,0.9,5-0.1,8.1-0.4
							c0.4-0.8-1.4-1.4-3.5-2c-2.1-0.7-4.5-1.4-5.3-2.3c0.3,0.2,1,0.7,0.7,0.9c0,0-1.1-0.3-2.1-0.7c-1.1-0.3-2.1-0.7-2.1-0.7
							c3.9,1.7-1,1.6-3.2,1.1c-1.6-0.4-4.8-1.2-4.2-1.6c0,0,0.6,0.1,1.2,0.2c0.6,0.1,1.2,0.2,1.2,0.2c-1.5-0.7-3.2-0.9-5-1.2
							c-1.8-0.3-3.6-0.6-5-1.7c0-0.4,1.2-0.2,1.5-0.3c-3.9-0.2-7.4-1.5-12.8-3.1l3.7-0.3c-4.9,0.1-13.9-5-19.3-9.6
							c0.5,0.7,1.6,1.5,0.7,1.4c-3.8-1.8-5.7-4.6-3.6-4.3c-1-0.3-2.3-0.9-3.7-1.9c-1.4-1-2.9-2.3-4.4-3.5c-1.6-1.2-3-2.7-4.6-3.8
							c-1.5-1.1-3-2.1-4.3-2.6c0,0-1.6-0.6-3.9-1.5c-2.4-0.9-5.4-2.4-8.6-3.8c-3-1.5-6.1-3.1-8.4-4.4c-2.3-1.3-3.8-2.2-3.8-2.2
							c0.8,0.6,1.7,1.3,2.4,2.1c0.4,2.8,1.5,3.8-2.5,1.5c3.4,2.7,3.3,0.5,7.6,5.1c-2.2-1.2-4.1-0.4,0.1,4c3,2.4,5.9,4.4,8.9,6
							c2.9,1.7,5.8,3,8.7,4.3c5.8,2.5,11.6,4.4,17.9,7c-0.1,0.6,2.2,2.2,5.1,4c2.9,1.7,6.5,3.5,8.8,4.8c-2.3,0.3-6-1.1-9.7-2.8
							c2.2,1.3,6.1,3.3,9,4.8L191,390.4z"/>
						<path fill="#FFFFFF" d="M159.6,376.4c0.2,0.3,0.5,0.6,0.8,0.8C160.3,377,160.1,376.8,159.6,376.4z"/>
						<path fill="#FFFFFF" d="M178.7,386.7c-0.1,0-0.1,0.1-0.1,0.1c0.4,0.2,0.8,0.4,1.2,0.6C179.4,387.1,179,386.9,178.7,386.7z"/>
						<path fill="#FFFFFF" d="M127.4,353.6c-0.9-0.5-1.4-0.9-2.2-1.4c0.4,0.4,1,0.9,1.5,1.3C127.2,353.8,127.5,353.9,127.4,353.6z"
							/>
						<path fill="#FFFFFF" d="M127.1,349.8l0.7,0.1c-0.2-0.3-0.3-0.6-0.5-0.9C126.9,349.1,126.8,349.4,127.1,349.8z"/>
						<path fill="#FFFFFF" d="M243.1,415.4l1.5-0.2C243.7,415.2,243.3,415.3,243.1,415.4z"/>
						<path fill="#FFFFFF" d="M205.3,398.3c-4.9-1.5-1.2,1.6-8-1.1l1.9,0.9c-5.2-1-13.4-5.3-18.9-8.2c0.9-0.3-2.9-2.6-1.7-3.2
							c-1.9-0.9-3.8-1.9-5.5-2.6c-1.7-0.8-3.2-1.4-4.4-1.5c-2-1.7-5.8-3.2-8.3-5.5c0.8,1.4-5.3-1,1.9,3.1c-0.6-0.3-0.3,0.1-0.9-0.2
							c3.8,3.9,6.5,3.6,10.3,6.1c2,2-4.3-1.5-2.3,0.1c2.5,1.4,6.4,3.6,9.6,5.5c3.3,1.7,6.1,2.8,6.5,1.6c3.8,1.6,4.1,2.3,5,3.2
							c1.8,0.1,4,0.8,6.4,1.6c2.4,0.9,5,2.1,7.5,2.9c4.9,2,9.1,3.1,9.5,1.5c-1.2-0.3-2.7-0.6-4.3-1c-1.6-0.5-3.4-0.9-5.2-1.1
							L205.3,398.3z"/>
						<path fill="#FFFFFF" d="M133.4,360.1c0.2,0.2,0.5,0.6,0.7,0.8C133.9,360.7,133.7,360.4,133.4,360.1z"/>
						<path fill="#FFFFFF" d="M107.5,300l2.8,1.2c1.2,2.7,2.2,5,3.1,6.9c1,2,1.6,3.8,2.5,5.5c0.8,1.7,1.6,3.4,2.5,5.2
							c0.9,1.8,2,3.7,3.3,5.9c0.1,0.8-0.7-0.2-1.1-0.7c3.8,6.1,9.7,15.4,13.9,18.8c1.3,1.9,4.9,6.8,2.8,5.5c0.9,0.7,1.9,1.6,2.7,2.6
							c-0.4,0.8-2.1-2-2.6-1.7c0.6,0.8,0.8,1.2,1.1,1.2c-1.7-0.9-0.8,3.2-6.2-3.1c-0.6-3.6,3.9,4.2,4.2,1.4c-1.8-2-2.2-1.3-2.5-1.3
							c-2.2-2.7-1.7-3-1.2-3.1c-1.3-0.7-3.4-4.5-5.1-5.5c-4-5.4,1.5-0.6-1.1-4.1c0,0-0.8-0.2-1.6-0.4c-0.8-0.2-1.6-0.5-1.6-0.5
							l-3.6-6.4c-2.9-4.4-3.5-3.6-4.3-3c-0.7,0.6-1.7,1.2-5.1-4c0.8,0.5,1.1-0.6,0.9-2.5c-0.2-1.8-0.9-4.4-1.9-7.1
							c0.7,1.5,2,3.6,3.5,5.7c1.4,2.1,2.7,4.4,3.6,6.4c-1.6-6.1,4.4,7.2,4.4,3.5c-2.2-2.1-4.9-6.4-6.2-10.2l0.8,1.1
							c-1.8-3.7-5-5.7-6.6-11.3c-1.1-2.6-0.4-2.4,0.3-2.1C108.3,302.1,107.1,300.2,107.5,300z M110.2,305.6c0,0,0.3,0.9,0.7,1.8
							c0.3,0.9,0.7,1.8,0.7,1.8C111.5,308.2,110.9,306.9,110.2,305.6z"/>
						<path fill="#FFFFFF" d="M417.9,147.2c0.2,0.4,0.4,0.9,0.5,1.2C418.4,148.1,418.2,147.6,417.9,147.2z"/>
						<path fill="#FFFFFF" d="M95.7,153.2L97,151C96.5,151.9,96,152.6,95.7,153.2z"/>
						<path fill="#FFFFFF" d="M125.8,103.2l2.5-3C127.2,101.2,126.5,102.2,125.8,103.2z"/>
						<path fill="#FFFFFF" d="M400.3,122.6l-0.1-0.1c-0.2-0.1-0.3-0.2-0.5-0.4L400.3,122.6z"/>
						<path fill="#FFFFFF" d="M231.8,56.8c0.6,0.1,1.3,0.2,2.1,0.2C233.8,56.8,233,56.7,231.8,56.8z"/>
						<path fill="#FFFFFF" d="M125.4,103.7c0.1-0.1,0.1-0.1,0.2-0.1c0.1-0.1,0.2-0.3,0.3-0.4L125.4,103.7z"/>
						<path fill="#FFFFFF" d="M79.4,173.8c-0.1,0.5-0.3,1.1-0.4,1.6C79.2,174.7,79.3,174.2,79.4,173.8z"/>
						<path fill="#FFFFFF" d="M86.2,172.6c-0.2,0.6-0.3,1.1-0.4,1.6L86.2,172.6z"/>
						<path fill="#FFFFFF" d="M69,259.3l0.6,3.5C69.4,261.1,69.2,260,69,259.3z"/>
						<path fill="#FFFFFF" d="M81.7,180.7c0,0.2,0,0.4,0.1,0.6C81.9,180.8,81.8,180.5,81.7,180.7z"/>
						<path fill="#FFFFFF" d="M422.4,168.9c0-0.1-0.1-0.1-0.1-0.2l-0.3,0L422.4,168.9z"/>
						<path fill="#FFFFFF" d="M428.4,175.2c0.4,0.9,0.8,1.8,1.2,2.7C429.2,176.8,428.8,175.8,428.4,175.2z"/>
						<path fill="#FFFFFF" d="M281.5,59.5c0.9,0.4,2.9,1,1.9,1.2C285.2,60.6,285.2,59.5,281.5,59.5z"/>
						<path fill="#FFFFFF" d="M403.8,161c0.5,0.3,1,0.7,1.5,1.1C404.4,161.3,403.7,160.6,403.8,161z"/>
						<path fill="#FFFFFF" d="M405.3,162.2c0.4,0.4,0.8,0.9,1.2,1.2C406.1,162.9,405.7,162.5,405.3,162.2z"/>
						<path fill="#FFFFFF" d="M258.7,75.4c-0.2-0.1-0.5-0.2-0.9-0.3C257.9,75.4,258.2,75.4,258.7,75.4z"/>
						<path fill="#FFFFFF" d="M430.2,180.2c0.7,0.3,5.8,12.2,2.6,1.8c1.5-0.1,3,6.4,4.1,9.1c-0.2-2.1,1.2,0.7,1.6,0
							c-0.6-1.3-1.4-2.9-2.1-5.2c0.3-1.3,2,2,2.5,4.9c-0.2-3.6,2.4,4,1.6-1c-3.6-10.2-6.9-17.1-12.1-23c0.7,1.3,1.4,2.7,2.2,4.1
							c0.7,1.4,1.3,2.8,1.9,4.3c0.6,1.4,1.2,2.8,1.7,4.2c0.4,1.4,0.8,2.7,1,3.9l-1.9-1.5c-0.3-2.8-1.2-4.9-2-7
							c-0.9-2.1-1.9-4.1-3-6.6c0,0,0.3,0.7,0.7,1.8c0.4,1.1,0.9,2.5,1.4,4c1,2.9,1.9,5.8,1.9,5.8c0.8,5.8-0.5,2.2-2.5-1.9
							C430,178.9,430.3,179.8,430.2,180.2z"/>
						<path fill="#FFFFFF" d="M416.4,177.1l0,0.2c0.1,0.1,0.2,0.3,0.3,0.4L416.4,177.1z"/>
						<path fill="#FFFFFF" d="M95.8,256.5l0.6,0.9C96.1,256.7,95.9,256.4,95.8,256.5z"/>
						<path fill="#FFFFFF" d="M419.5,168.2L419.5,168.2C419.4,168.1,419.4,168.1,419.5,168.2z"/>
						<path fill="#FFFFFF" d="M95.7,233.2c0,0,0.1,0.1,0.1,0.1C95.7,233.3,95.7,233.3,95.7,233.2z"/>
						<path fill="#FFFFFF" d="M67.6,224.2c-0.1,0-0.1,0.1-0.2,0.2C67.4,224.9,67.5,224.7,67.6,224.2z"/>
						<path fill="#FFFFFF" d="M95.5,233.2c0,0,0.1,0,0.1,0C95.6,233.2,95.6,233.2,95.5,233.2z"/>
						<path fill="#FFFFFF" d="M136.1,127.9c0,0-0.4,0.1-1,0.4C135,128.5,135.3,128.4,136.1,127.9z"/>
						<path fill="#FFFFFF" d="M119.9,144.6c-0.1,0.1-0.2,0.2-0.4,0.3L119.9,144.6z"/>
						<path fill="#FFFFFF" d="M276.1,52.9c-1.3-0.1-2.2-0.2-3.1-0.2C274,52.9,275,52.9,276.1,52.9z"/>
						<path fill="#FFFFFF" d="M95.8,233.3c0.1,0.2,0.2,0.6,0.4,1.1C96,233.9,95.9,233.5,95.8,233.3z"/>
						<path fill="#FFFFFF" d="M158.7,99.4c-0.2,0.2-0.3,0.4-0.5,0.5l0.4-0.2L158.7,99.4z"/>
						<path fill="#FFFFFF" d="M169.7,93.5c-0.3,0.3-0.4,0.6-0.5,0.8c1.8-1.3,4.5-2.9,6.8-4.3c2.4-1.3,4.3-2.5,4.4-3.4
							c-0.7,0.4-2.8,1.2-4.8,1.9c-1.9,0.7-3.5,1.2-3.1,0.4c-2.6,1.8-7.1,3.3-8.3,4.5c4.8-2.1,1.1,0.7-1.5,3c-2.9,1.3-0.1-1.3-2.6,0
							l-5.9,4.4l5.3-3.5l-0.8,2.2c0.2-0.2,0.3-0.3,0.4-0.5c4.2-3.3,4.8-2.9,5.2-2.7C164.9,96.5,165.3,96.7,169.7,93.5z"/>
						<path fill="#FFFFFF" d="M169.2,94.3c-0.5,0.4-1,0.8-1.3,1.2C168.8,94.9,169,94.6,169.2,94.3z"/>
						<path fill="#FFFFFF" d="M209.4,78.9c0.5-0.2,1-0.4,1.7-0.7C210.8,78.3,210,78.6,209.4,78.9z"/>
						<path fill="#FFFFFF" d="M110.7,333.8c0.2-0.3-2.1-6.1-3-5.5c0.8,1.6,1.6,3.3,2.5,5L110.7,333.8z"/>
						<path fill="#FFFFFF" d="M325.9,78.5c-0.6-0.3-1.3-0.6-2-0.8c-0.2,0-0.3,0-0.4,0C323.8,78,325.2,78.4,325.9,78.5z"/>
						<path fill="#FFFFFF" d="M174,87.5c-0.9,0.7-1.3,1.1-1.4,1.4C173.2,88.4,173.7,88,174,87.5z"/>
						<path fill="#FFFFFF" d="M325.3,81c0.7,0.6,1.8,1.5,1.8,1.9c1.6,0.8,3,0.8,4.8,1.3C329.8,83.6,327.8,82.4,325.3,81z"/>
						<path fill="#FFFFFF" d="M331.9,84.3l-0.1,0C331.8,84.3,331.9,84.3,331.9,84.3z"/>
						<path fill="#FFFFFF" d="M112.3,337.1c0.3,0.4,0.7,0.8,1.1,1.3l-0.7-0.6c0.7,1.2,1.3,2.5,2.1,3.7c0.3,0.4,0.7,0.8,1.2,1.3
							c-0.2-0.2-0.4-0.3-0.6-0.3c0.2,0.4,0.5,0.8,0.7,1.2c2.8,2.2,8.6,8.3,10.6,9.8c2.5,2.1,5.1,4.9,6.8,6.7
							c-1.6-1.6-3.6-3.8-3.5-2.7c1.2,2,2,3.6,3.3,5.4c1.2,1.8,2.9,3.7,6.4,5.9c0,0-0.8-0.8-1.7-1.6c-0.9-0.8-1.7-1.6-1.7-1.6
							s0.6,0.4,1.4,0.9c0.9,0.5,2,1.2,3.2,1.9c1.2,0.7,2.3,1.4,3.1,1.9c0.9,0.5,1.5,0.8,1.5,0.8c1.1,1.6-0.1,0.9-1.8-0.1
							c-1.6-1.1-3.6-2.7-4.5-2.9c6.6,4.8,10,11.4,14.2,12.2c-0.3,1.2-0.9,3.5,3.7,6.5c-2.4-3.4,3.2,1.2,1.4-1.9
							c1.9,0.5,4.7,3.8,5.5,3.2l-0.7,0.1c3.3,3.3,6.1,4.7,8.5,5.3c2.4,0.6,4.3,0.7,6.3,1.2c2.5,1.1,4.6,2.2,6.5,3.1
							c1.9,0.9,3.7,1.7,5.3,2.5c1.7,0.8,3.3,1.6,5,2.3c1.7,0.7,3.6,1.5,5.7,2.2c0,0.9,1.6,3.7,5.1,4.8c1.9-0.4,9.9,1.2,11,0.1
							c-6-2.2-5.3-0.3-9.1-1c-2.6-2.4,0.2-1.5-3.7-3.7c3.1,1.9,15.2,3.8,18.7,5.8l-1.3-0.1c2.9,1.1,4.5,2.5,6.7,3.6
							c1.1,0.6,2.3,1,4,1.4c1.6,0.3,3.7,0.3,6.3,0.2c0,0,1.2-0.1,2.5-0.1c1.2,0,2.5-0.2,2.5-0.2c-0.2,0.1-0.3,0.3-0.4,0.4
							c8,0.8,5.8,2.3,14.7,1.2c-0.7,0.1-0.3,0.2-1,0.3c2.5,0.5,5.1,0.2,7.5-0.2c2.4-0.4,4.6-0.9,6.5-1.2c2.4,1-0.5,1.2-1.9,2.1
							c9,0,18.4-3.4,23.5-5.9c0,0,0.3,0,0.9-0.1c0.5,0,1.2-0.1,2-0.2c1.4-0.2,2.8-0.3,2.8-0.3c-3.2,1.3-7.1,3.2-5.9,3.7
							c3.1-0.8,2.4-1.2,6.8-2c-0.6,0.9-2.3,2-4.2,3.4c9.5-0.9,1.4-3,8.4-2.3c2.9-0.7,4.2-2.3,4.3-3.2c0,0,1.3-0.1,2.7-0.2
							c1.4-0.1,2.7-0.2,2.7-0.2c0.2-1.3,6.4-3.3,10.3-5.2c0.3-0.7-3.6,0.2-5,1.1c0-0.9,4-3,6.7-4c1,1,5.3-1.1,9.1-2.8
							c3.7-1.9,7-3.6,6.1-1.5c2.9-1.6,5.9-3.7,9-5.6c3.1-2.1,6.2-4.2,9.1-6.4c2.9-2.2,5.7-4.4,8-6.5c1.2-1,2.3-2,3.3-2.9
							c1-1,1.8-1.9,2.5-2.7c1.3-0.7,3-2,4.2-2.7c1.2-0.8,1.8-1,0.9,0.7c1.9-1.8,3.5-3.5,4.9-5.2c1.4-1.7,2.5-3.3,3.7-5
							c1.2-1.6,2.3-3.2,3.6-5c1.3-1.7,2.8-3.4,4.5-5.4c0.4-0.3-0.3,0.7-1.1,1.7c-0.8,1-1.5,2-1.1,2.2c3.6-5.8,8.7-9,14-18.3
							c-0.9,1.5-0.8,2.2-0.7,2.6c-0.4-0.1,1.7-4.1,2.8-6.6c1-1.2-0.8,1.9-0.1,1.3c5.9-8.5,9.4-16.9,12.3-25.4
							c2.9-8.6,4.8-17.3,7.2-27.1c-1.2,5.6-0.5,8.1,0.1,8.3c0,0,0.4-1.4,0.8-2.8c0.4-1.4,0.7-2.8,0.7-2.8c-0.3-2.3,0.8-6.5,0.7-10.1
							c0.4-0.4,1-2,1-0.2c1.9-5.4,1.6-9.9,1.3-14.7c-0.2-2.4-0.5-4.8-0.6-7.5c-0.2-2.7-0.3-5.6,0-9.1c0,0,0.7,4.2,1.4,8.3
							c0.5,4.2,1,8.5,1,8.5l1.4-4.1c0,0,0.2,1.9,0.4,3.8c0.3,1.9,0.3,3.8,0.3,3.8c1.4-4.4-0.4-8.4,0.8-8.9c0.3,1,0,3.2,0.6,3.4
							c0.8-4.3,0-4.7-0.2-7.9c0.6,2.2,0.8,4.8,0.9,7.8c0.2,3,0,6.2-0.2,9.4c-0.4,6.5-1.6,12.9-2.4,17.4c-0.1,1.4-0.3-1.3-0.5-1.6
							c-0.4,1.8-0.9,3.2-1.4,4.8c-0.5,1.5-1.1,3.2-1.5,5.5c0.2,3.1,1.3-1.9,2.1-4.1c0.8,0.5,0.4,1.7-0.2,4.2
							c-1.2,0.3-4.6,13.5-7.4,16c-2.3,6.5-1.6,6.2-0.7,5.9c0.8-0.3,1.6-0.6-1.4,5.4c0,0-0.7,0.8-1.5,1.5c-0.8,0.7-1.5,1.5-1.5,1.5
							c-2.4,7.5-6.9,16.8-12.3,24l1.1-1.6c0.2-1.3-1.2,0.1-2,0.7c-2.2,2.6-3.8,5.3-5.5,7.6c-1.6,2.3-3.1,4.4-5,5.5
							c-3.7,6.9-12,16.8-18.3,23.1c-1.5,0.1,0.4-2.1,3-4.7c2.4-2.8,5.5-5.9,6.3-7.6c0,0-0.3,0.4-0.9,0.9c-0.5,0.5-1.3,1.2-2,1.9
							c-1.4,1.4-2.9,2.8-2.9,2.8c3.6-3.4,4.5-5.2,5.8-8.1c-2.5,2.4-4,4.2-5.3,6s-2.6,3.8-5,6.1c0.1-0.7-0.8-0.3-3.1,1.6l0.1,1.5
							c-0.1,0-0.4,0.1-1.2,0.6c0,0-2.2,2-4.4,3.9c-1.1,1-2.2,1.9-3.1,2.6c-0.9,0.7-1.4,1.2-1.4,1.2c2.3-1.1,3.1-0.2,5.5-2.1
							c-1.3,0.1,0.7-1.6,3.1-3.5c-1.6,2.3,2.8-1.3,3.1-0.8c-2.4,1.9-5.1,4.1-7.6,6.1c-2.6,1.9-4.9,3.7-6.4,5l-1.7-0.2
							c-2.6,1.5-5,3.2-7.4,4.7c-2.4,1.5-4.6,2.8-6.4,3.7l0.8-1.1c-3.1,1.6-6.2,3.2-9.3,4.8c-3.1,1.4-6.1,2.7-9.2,3.4
							c-5.3,3.6-12.5,7.2-17.1,9.9c-1.2,1-5.8,2.1-11,2.8c-5.2,0.9-10.9,1.5-14.3,3.1c-0.5,0,4.7-1.9,7-2.9c-4.7,0.7-8.2,3-9.9,1.7
							c5.3-0.4,5.1-0.9,4.2-1.1c-0.9-0.3-2.6-0.5-0.3-1.1c-2.4,0.4-5,0.8-7.2,1.2c-2.2,0.4-4.1,0.8-5.3,1.2c8-0.8-2.7,2.5,5.4,0.8
							c-3.1,1.1-6.8,1.7-10.8,2.3c-3.9,0.5-8,0.5-11.8,0.3c0.1-0.6-0.9-1-3.7-1.3l-2.3,0.9c-3.6-0.3,6.9-0.9-0.2-1.4
							c-1.9,0.4-4.2,0.4-6.6,0.2c-2.5-0.2-5.1-0.3-7.6-0.7c-2.5-0.3-4.8-0.6-6.8-0.7c-2-0.1-3.5,0-4.5,0.6c-2.7-1.1,0-0.9,2.4-0.8
							c2.3,0.1,4.3,0,0.3-1.4c5-0.3,11.5,1.8,13.3,0.3c-4.8,0.1-1.6-1.4-4.6-1.8l-5.4,0.2l1.2,0.2c-2.3,0.1-4.8-0.1-7.5-0.5
							c-1.4-0.2-2.8-0.4-4.2-0.6c-1.4-0.3-2.9-0.6-4.4-0.9c-1.5-0.3-3-0.7-4.5-1c-1.5-0.4-3-0.8-4.4-1.3c-1.5-0.4-2.9-0.8-4.4-1.2
							c-1.4-0.5-2.8-0.9-4.2-1.3c-9.6-1.7-16.8-2.3-27.3-7.8c1.8,0.4-0.3-0.9-1.9-2.1c-1.6-1.2-2.7-2.2,1-1.2
							c-4.3-3.3-9.4-5.2-9.8-4.7c4,2.6,1.3,1,4.7,3.3c-1.4-0.3-3.4-1.3-5.3-2.4c-1.9-1.2-3.7-2.5-4.6-3.4c1,0.7,0.7,0.3,1,0.3
							c-4.5-3.5-2.7-0.8-6.3-2.9c-0.2-0.8-2-2.2-4.1-3.7c-2-1.6-4.3-3.3-5.7-4.7c0,0-1.3-0.5-2.6-1.1c-1.3-0.6-2.6-1.2-2.6-1.2
							c3,1.2-3.8-3.7-3.7-5c-3.3-2.2-6.7-3.5-10.6-8.1c2.1,1.4-3.2-4.5-2.4-5.3c-1.5-2.1-3.1-3.8-4.7-5.4c-1.5-1.6-3.1-3.1-4.6-4.5
							c-1.6-1.4-3-2.9-4.4-4.6c-1.3-1.7-2.7-3.5-3.7-5.8c0.4,0.1,2,1.4,0.7-1.2c-1.4-1.7-3.5-5.1-4.8-7.1l0.1,0.1
							c0,0-0.1-0.1-0.1-0.1c-0.6-1-1.1-1.6-1.3-1.5c-1.5-1.5-2.7-2.6-4.2-4.2c-1.4-1.6-3-3.7-5.2-7.1c-0.8,1,2.7,7.1,4.6,9.5
							l2.3,1.7c-0.2,1.5,0.8,3.1,1.9,4.5c1.1,1.4,2.4,2.6,2.6,3.6c-1.1-0.8-2.4-2.1-3.7-3.8c-1.3-1.7-2.7-3.8-4.2-6
							c-2.7-4.5-5.5-9.5-7.8-13.2c0.5,5.5,5.6,16,11.1,24.4c0,0-0.4-1-0.9-2.1c-0.4-1-0.8-2.1-0.8-2.1s0.6,1.2,1.4,2.2
							c0.7,1.1,1.4,2.2,1.4,2.2s-0.4-1.2-0.8-2.5c-0.4-1.2-0.8-2.5-0.8-2.5c1.1,2.2,2.5,4.1,3.7,5.9c1.2,1.9,2.5,3.7,3.8,5.5
							c-3.1-4.2-2.6-6.9-1.3-4.3c2.3,5.4,4.1,4.5,6.6,8.1c-1.3-2.1-3.2-4.7-1.4-3.4c1.9,4,3.6,6.1,5.1,8.3c1.5,2.2,3.1,4.2,5.1,7.7
							c0.4-1.1,2,0.8,3.9,2.8c1.9,2,3.9,4.2,4.9,4l-2.4-2.8c0,0,1.5,1.2,3.1,2.4c1.6,1.2,3.2,2.2,3.2,2.2c4,6.1-5.8-3.2,1.4,5.2
							c7.4,6.9,8.6,5.1,14.8,9.8c-1.4-0.3-3.5-1.3-5.8-2.6c-2.3-1.4-4.9-3.3-7.3-5.4l2.6,3c-2.1-0.8-8.5-6.9-11.6-10.2
							c3.1,2.1,2.5,1.4,1-0.2c-1.5-1.6-3.9-4.2-4.6-5.8c-1.3,0.3,2.1,3.6-2.4,0.2c1.8,1.9,2.8,3,4,4.2c1.2,1.2,2.3,2.7,4.6,5.1
							c-2.6-2.5-4.4-4.4-6.1-5.6c-1.7-1.3-3.2-2.1-4.5-2.9c-1.3-0.8-2.7-1.6-4.1-2.9c-1.5-1.2-3-2.9-4.8-5.6c4,4.3,0-2.6,0-3.5
							c-1.9-2-5.2-6.5-6.8-8.2l-0.2,2.6c-2.5-2.8-3.2-5.4-4.2-7.9c-0.5-1.3-1-2.5-1.7-3.9c-0.7-1.4-1.7-2.8-3.1-4.5
							c-1.4-0.5,3.5,6.7,2.6,5.4c-3.4-4.8-5.1-8.5-6.2-12.2c-0.6-1.9-1.1-3.7-1.6-5.7c-0.5-2-1-4.2-1.8-6.7
							c-0.7-0.3-1.7,0.2-3.8-2.8c1.3,0.7,0.8-2,3,1.5c-0.9-3.3-3.1-6.8-4.5-9.6c1,3.5,0.4,2.9-0.6,1.3c-1-1.6-2.2-4.2-2.7-4.7
							c-1-3.6,1.3,0.8,2.3,2.8c-0.7-2.9-0.5-6.7-2.4-7.9c0.5-0.2,1.8,1.6,3.2,4c0.7,1.2,1.5,2.6,2.2,4c0.8,1.4,1.5,2.8,2,4l-1.2-3.5
							c1.4,2.2,1.5,2.7,2.7,6.1c-0.6-3.6,0.4-3.6,1.4-3.1c0,0.5-0.3-0.2-0.3,0.3c0.8,2.8,1.9,4.8,2.2,3.9c2.3,1.8-0.7-4-0.8-6.1
							c-0.6-1.3-1.3-2.7-1.8-4c0,0-2.3-3.2-4.5-6.4c-2.2-3.3-4.3-6.7-4.3-6.7c-1.2-3.1-1.5-5.4-1.7-7.6c-0.2-2.2-0.3-4.2-0.3-6.6
							l-1.4-1.1c-1-5.6-1.2-11,0.8-7.6c-0.3,0.3-0.2,1,0,2.2c0.2,0.1,0.3,0.4,0.5,0.7c0.1,0.1,0.2,0.2,0.3,0.3
							c-1.3-5.9-1.9-9.6-2-9.9c3,9.9,2.2,0.2,4.6,1.7c0,0-0.1-0.6-0.3-1.6c-0.2-0.9-0.4-2.2-0.6-3.4c-0.4-2.5-0.7-5-0.7-5
							c-0.2,6.2-1,0.2-1.5-2c1.1-0.7-0.3-8.2-0.1-11.8L72,242c0.5-3.3,0.4-9.1,0.5-13.2c-0.4,0.2-2-5.3-2.8-8
							c-1.3,7.1-1.2,2.8-2.1,3.3c0.1-0.8,0.3-2.1,0.2-2.3c-0.2-1.1-0.6,1.4-1.1,1.5c0,3.9-0.2,7.8,0,11.2c0.2,3.4,0.6,6.2,1.4,7.7
							c0.8-2.3-0.6-4-0.1-6.7c0.5,1.9,0.7,4.1,0.7,6.6c0.1,2.5,0.1,5.3,0.2,8.5l-0.9,2.1l1,6.4c-0.7-2.6-1.7-0.9-2.3-7.7
							c-1,0.9,0.7,6.7,0.6,10.9c0,0,0.4,0.5,0.8,1c0.4,0.5,0.8,1,0.8,1c-0.8-0.7,0.1,8.1-1.7,2c0,0-0.2-0.6-0.4-1.6
							c-0.2-1-0.5-2.2-0.7-3.5c-0.5-2.6-0.9-5.1-0.9-5.1l-0.7,3c0,0-0.2-2.2-0.5-4.4c-0.1-1.1-0.2-2.2-0.2-3
							c-0.1-0.8-0.1-1.4-0.1-1.4l0.7,2c-1.2-14.1,2.3-4.2,1.1-18.4c-1.3-4.5-1.3-9.4,0.3-18c-0.4,6.3,1,0.8,1.7,3.3
							c1.4-6.2,0.6-8.5,0.6-12c1.1-1.5,2-2.5,0.9,3.1c1.7,1,1-7.5,3-7.6c2-9.2,1.8-13.1,1.8-17.5c0.2-4.3,0.7-9.2,6.1-19.1l0.3,1.1
							c4.8-13.4,9.6-20.2,16.2-31.4c0,0,0.4-0.5,1.1-1.2c0.7-0.7,1.6-1.6,2.6-2.5c1.9-1.8,3.7-3.6,3.7-3.6c-1.1,2-3.5,7.8-1.1,6
							c-2.2,1.4-3.9,3.4-5.4,5.5c-1.6,2.1-3.1,4.3-4.8,6.3c0.2,0.7,1.6-1,2.3-1.6c-1.6,2.8-3.2,3.7-5,7.6c0.4,0,3.1-3.8,1.6-0.7
							c0,0-0.9,1.1-1.9,2.3c-0.9,1.2-1.8,2.3-1.8,2.3c-1.5,3.6-1.3,4.7-1.2,6c0.1,1.2-0.1,2.6-2.2,6.6c-0.3-1.9-0.2-5.7,1-9
							c-1,1.9-0.6,0.5-0.1-0.9c0.5-1.4,0.9-2.8-0.2-1.2c-0.7,3-1.4,5.1-2.5,7.4c-1.1,2.2-2.1,4.8-3.1,8.7c0.1-1-0.1-1.3,0.6-3.2
							c0,0-1.2,2.7-2.4,5.3c-1.2,2.7-2.2,5.4-2.2,5.4c0.9-1.2,0.3,1.1-0.2,3.7c-0.5,2.6-0.9,5.4-0.1,5.1c0.9-2.9,1.6-4.9,2.2-6.4
							c0.5-1.5,0.9-2.6,1.2-3.7c0.7-2.3,1.7-4.7,4.6-11.1c-1.1,3.8-1.8,9-1.3,11.7c-0.1,0.1-0.2,0.3-0.3,0.7
							c0.6,2.4,1.6,0.5,3.8,1.3c0.2-3.2,1.1-5.6,2.1-8.1c1-2.5,2.2-5.1,3.3-8.6c-0.5-1.8-3.3,3.2-4.3,6.7c0,0,0.1-0.4,0.2-1
							c0.1-0.6,0.3-1.4,0.6-2.2c0.5-1.6,1-3.1,1-3.1l0,1.4c0,0,0.4-0.9,1.1-2.3c0.7-1.4,1.5-3.2,2.6-5c1-1.8,2-3.6,2.7-5
							c0.7-1.4,1.3-2.2,1.3-2.2c-1.5,2.7-1.2,4.1-1.5,5.8c1-1.8,2.2-3.6,3.7-5.3c-1.3-0.2-1.9-0.9-0.9-2.6c5.5-9,9.9-13.1,13.3-15.4
							c0.2-0.3,0.4-0.7,0.6-1c-2.1,0.6,2.7-7.3,3.8-10.6c0.9,0.9,4.2-3.6,6.6-5.5c0-2.2-3-2-6.3,0.1c-3.7,6.4-1.6,4-2.2,7.8
							c0,0-1.5,2.5-3,4.9c-1.6,2.5-3,5-3,5l0.5-2.8c-3.8,4.3-5.4,9.9-6.5,8.7c0.4-1.5,1.4-3.3,2.4-5.1c1.1-1.7,2.2-3.4,2.6-4.9
							l-2.7,2.8c2.8-6.4,3.1-2.1,7.3-9.1c-2.9,1.6,0.4-0.7,1.9-3.9c-1.2,0.8-3.4,3.7-5.3,6c-1.9,2.3-3.3,4.1-3.5,2.4
							c0.8-2.1,3.6-4.5,6.4-7.2c2.7-2.7,5.7-5.3,6.7-8.3v0.4c5.9-6,7.1-8.9,8.9-11.7c3-2,6.1-6,9.1-8.7l0.3,0.6c0,0,1-1,2-1.9
							c1-0.9,2.1-1.8,2.1-1.8c-1.4,2.5-5,4-8.5,7.3l1.2,0.5c-2.6,1.2-4,3-5.2,4.8c-1.2,1.8-2.1,3.7-3.1,5.6c1.7-2.6,5-5.4,7.6-8.1
							c2.8-2.5,5-4.8,4.8-6.1c0,0,0.9-0.4,1.8-0.8s1.9-0.7,1.9-0.7l1.2-1.5c2.8-1,1.3,1.8-2.6,5.5c-0.9,0.4-1.3,0.6-1.3,0.2
							c-1.5,2.1-2.8,4.1-7.3,8.1l1.9-2.7c-5.6,5.1-10,10.4-10.8,13.1c7.6-7.6,15.6-14.7,23.5-21c0.6-4,2.7-7.4,2.5-10.3
							c5.3-4.6,13.4-9.8,19.2-12l-0.2,0.7c2.7-1.3,5.1-2.5,7-3.9c3.1-0.8-1.3,2.2,0.8,1.5c0,0,0.5-0.3,1.3-0.8
							c0.8-0.5,1.9-1.2,3-1.8c2.2-1.2,4.4-2.4,4.4-2.4c-0.1,0.7-2,1.8-4.3,3.1c-2.4,1.2-5.1,2.7-6.8,3.6c0.6-0.4,1.9-1.3,1.4-1.2
							c-4.4,1.6-10.9,7.7-13.4,7.3c-1.8,1.5,3.2-3.5-3.3,0.5c-4.7,2.2-5.2,4.5-5.4,5.2c0.3,0.5,7.2-3.7,5.3-1.5
							c3.3-2.2,4.1-3.8,8.9-5.8c-3.4,2-7.1,6-9.4,6.3c-5.8,5.3-3,7.2,0,5.3c-1.3-0.4,11-8.5,1.9-4.2c3.1-3.5,10.2-7.8,15.2-11.2
							l-0.1,0.3c0,0,1.6-0.9,3.2-1.8c1.6-0.9,3.3-1.8,3.3-1.8c-0.8,0.7-2.7,2-2.5,2.6c0,0,0.5-0.4,1.3-1c0.8-0.5,1.9-1.3,2.9-2
							c2.2-1.4,4.3-2.9,4.3-2.9c-2.4,1.7-1.5,1.5,0.3,0.8c1.8-0.7,4.6-1.7,5.9-1.9c0.7-1.3,4.2-3.5,0.3-2.6
							c-4.3,0.9-2.2,1.4-5.8,2.9l4.6-3.4l0.5,0c0,0,0.7-0.6,1.3-1.2c0.7-0.6,1.4-1.2,1.4-1.2c7.3-2.4-2.2,3.9,6.7-0.5l-1.8-1.2
							c2.7-0.9,5.7-1.6,8.8-2.2c1.5-0.3,3.1-0.7,4.6-0.9c1.5-0.2,3.1-0.5,4.6-0.7c1.5-0.2,3-0.5,4.4-0.7c1.4-0.2,2.8-0.4,4.2-0.6
							c2.7-0.4,5-0.9,7-1.3c-2.1,1.3-2.7,3,0.4,3.5c-1.7,0-4.2,0.5-6.9,1c-1.3,0.2-2.8,0.5-4.1,0.8c-1.3,0.3-2.6,0.7-3.8,1
							c-0.5,0,0.9-0.9,3-1.8c2.2-0.9,5.2-1.8,7.9-2c-1.5-1.2-4.8-0.2-7.8,0.8c-3,1.1-5.7,2.2-6.3,0.8c-13.6,2.5-9.1,5.2-20.5,7.4
							c0.3,1.2-2.8,1.8-3,3.1c3.8,0.5,14.4-5.2,21.8-6.4c-0.7,0.3-2,0.9-2.2,1.2c5.2-1.1,7.3-1.7,10.8-3l-0.5,0
							c6.1-2.5,4.1,0.2,7.9,0.1c1.4-0.5,6.7-0.8,5.7-1.6c0,0,1.7,0.1,3.5,0.2c1.7,0.1,3.5,0.2,3.5,0.2l-0.5-1.4
							c3.9-0.4,4.8,0.5,8.2-0.6l0.1-1.3c0,0-2.4,0.1-4.8,0.1c-1.2,0-2.4,0.1-3.3,0.1c-0.9,0-1.5,0.1-1.5,0.1
							c4.9-0.9,1.2-1.4,6.7-2.1c-5.9,1.9,4.3,0.3,5,1.6l3.9-0.8l-1,0.4c3.1,0.6,3.7-0.7,7.4-0.4c-4.3-0.8-7.2-1.6-12.6-0.4
							c3.9-0.9,11.9-2,13.9-1.8c4.2-0.4,7.2,0.6,11.1,1.1c-3.8,0-3.2,1-3.5,1.8c-0.3,0.7-1.6,1.3-9,0.7c0.3-0.2,1.5-0.2,2,0
							c-2-1.8-9,0.2-12.2,0.9c0.9,0.9-2.5,1.2,3.2,1.6c-1.9-0.5,4.8-2.4,10.2-1.3l-1,2c0,0,2,0.1,3.9,0.2c2,0.1,3.9,0.3,3.9,0.3
							l-0.7,0c2.8,1.5,8.4,0.3,13.6,1.8c4-0.4,18.6,3.2,12.7-0.2c4.5,2.3,9,1.6,14.3,2.9c0,0-1.6-0.7-3.1-1.3
							c-1.5-0.7-3.1-1.2-3.1-1.2c8.1,0.6,5.6,0.9,12.4,0.5c0.4,0.7,1.7,1.6,0.3,1.8c10.3,3.2,24,9.9,30.2,11.6
							c3.4,1.7,4.9,3.5,6.9,5.1c2,1.7,4.3,3.5,9,6c1,0.5,0.9-0.2,1.2-0.4c0.3-0.2,1.2,0,3.8,2.3c0.3,0.4-6.4-2.7,0.1,1.7
							c1.3,0.5,2.7,1.2,4,2.2c1.3,1,2.5,2.1,3.8,3.3c2.6,2.3,5.2,4.9,8.4,6.8c2.6,2.9,7.4,7.4,5.5,7.3c-4.1-4.4-10.8-9.7-12.1-10.1
							c1.1-0.1-2.9-3.2,0.9-0.9c-6.6-6.3-5-3.2-11.3-8.4c-0.7,0.1,2.6,3.5,4.3,4.2c-0.9,1.3-13.5-8.5-8.8-2.8
							c6.9,5,11.1,3.8,15.7,10c-2.9-1.2-6.1-4.7-10.2-5.6c0,0,0.3,0.3,0.7,0.6c0.4,0.4,1,0.9,1.5,1.5c1.1,1.1,2.2,2.1,2.2,2.1
							s1.1,0.4,2.1,0.9c1.1,0.4,2.1,0.9,2.1,0.9l-0.3,0c7.1,8.2,8.6,5.2,16.2,11.5c-3.1-4.9,3-1.1,0.5-4.7c4.8,4.6,7.9,8.4,6.7,9.6
							c-4.6-4.1-5.2-3.8-5.5-3.6c-0.4,0.3-0.7,0.6-5.2-2.7c0.8,1.7-3.5-0.2,0.9,4.7c6,4.5-0.5-2.6,5,2.4c0.2,0.4,0.4,0.9,0,0.8
							c2.9,2,2.4,3.2,5.8,5.7l-0.9-0.5c2.5,4.6,4.4,3.6,6.3,7.8c-0.1-2.2,2.6,1.8,4.8,3.6c-2.2-3.9-2.2-7-8-13.9
							c-1.5-0.2-1.5,0.7-4.2-1.8l3.9,4.3c-0.9-0.8-1.8-1.4-2.7-2.1l-3.2-4.5c5.2,4.9,3.8,1.7,6.6,3.3c3.9,5.3,3.6,4,5.9,7.4
							c-1.3,0.5,5.4,11.6,8.4,18.4c-0.6-1-1.4-2.2-1.8-2.9c-3.7-4,1,3.7,0.7,4.1l2.6,3c-0.4-0.6-1.2-1.3-0.6,0.2
							c2.9,4.4,3.9,3.5,6.6,8.1c-0.5,0.7-3.6-2.7-2.5,0.4c-0.1,0.7-0.1,2,0.3,3.9c0.4,1.9,1.2,4.4,2.9,7.4c0.5,0.3,1.3,1.9,2.2,3.8
							c-0.2-0.3-0.3-0.6-0.4-0.7l0.9,4.6c-2.7-3.1-2.3-7.6-5.2-10.6l-1.3,0.2c-1.2-2.8-3.6-6.1-5-7.5c1.9,4.2,2.7,4.8,5,9.4
							c-0.5,1-2.5-2-2.8-2.5l1,0.4c-0.7-3-2.1-4.9-3.6-6.9c-1.4-2-3.2-4.1-5-7.3c-0.5-1-0.1-0.5,0.2-0.4c-4.1-4.6-6-10.5-10.8-14.3
							l1.7,1.2c-0.7-0.7-1.6-1.6-2.6-2.7c-1-1-2.2-2.1-3.5-3.3c-2.5-2.4-5.5-4.9-8.5-7.4l-0.4,0.3c0.3,0.8-1.5-1.3-2.5-2.6h0
							c-1.5-1.2-3.1-2.3-4.5-3.4c-1.5-1-2.8-2-4.1-2.9c0.5,0.9,1.2,1.9,2.2,2.9c1.3,0.4,5.7,5.8,6.1,4.2c1.7,2.9,5.9,6.1,7.1,8.3
							c-1.1-1.9-0.3-1.6,0.8-0.7c1.1,0.9,2.6,2.3,3.1,2.4c0.1,0.8,1.1,2.1,2,3.2c0.8,1.1,1.4,2.1,0.8,2.2c0.3,0.9-0.6-2.2-2.3-3.3
							c-1.8-1.5-0.7,0.3,0.3,2c1,1.7,1.8,3.3-0.2,1.3c4.9,5.3,9.8,13.5,14.3,19.5l-1.7-3.8c1.6,2.9,5.3,9.8,5.1,10.6
							c-1.3-2.1-2.5-4.7-4.2-7.4c-1.1,0.4,3.5,6.7,2.9,7.4c0,0,0.4,0.4,1,1.1c0.5,0.7,1.2,1.6,2,2.5c1.4,1.9,2.9,3.8,2.9,3.8
							l-1.6-3.7c1.8,2,4.3,10.1,6,16.1c-1.4-1.4-2.1-3.6-3.1-6.2c-0.9-2.6-1.7-5.6-3.5-8.4c-2.6-4-0.3,3.4-2.6-0.5
							c0.1,1.2,1.3,3.8,2.3,5l0.3,1.8c-1.4-1.6-3.1-4.3-4.7-7.3c-1.7-3-3.7-6.1-5.6-8.3c0.4,0.4,0.7,0.7,1,0.7
							c-1.6-4.2-3.9-8.2-6.7-11.6c0.8,2.2,1.6,2.8,2.5,3.8c-0.2,0.3-2.6-3-3.8-4.1c1.8,3.7-0.4,1.2,0.8,3.4c-1.8-2-2.7-3.9-4.4-6.6
							c-0.5-1.7,1.5,0.6,1.9-0.1c-2.3-2.4-1.6-4.8-5.3-8.1c3.7,5.3-2.4-0.3-4.2-1.7l0.6,0.9c-2-1-3.1-2.3-3.4-3.9
							c2,1.7,3.3,3.9,3.6,2.7c-1.1-1.4-2.2-2.7-3.8-3.9l1.7,0.9c0,0-1.5-1.6-2.9-3.2c-1.4-1.6-3-3.1-3-3.1c-1.6-0.4-4-1.2-5.7-1.2
							c-0.9-2-3.4-3.5-5-4.6l0.9,0.4c-1.1-1.6-3.3-3.6-5.4-5.2c-2.1-1.7-4-2.8-4.6-2.7c-0.4-0.5,0.5-0.3,1.8,0.2
							c1.3,0.5,3.1,1.3,4.4,1.8c2.7,1.1,3.9,0.8-3.8-5.1c-5.8-4.5-5-1-8.8-2.7c0,0,0.3-0.1,0.1-0.4c-2.5-2-3.2-1.5-5.6-2.6
							c1.4,1.3,3.5,3,4.5,3.2c-0.7,0.1-2-0.8-3.4-1.9c-1.5-1.1-3.1-2.2-4.3-2.5c3.4,0.4-4.8-3.8-2.3-3.1c-2.5-1.9-5.3-3.6-8-4.6
							c-2.7-1-5.2-1.7-6.9-1.9c-3-3.5-6.8-2.9-12.9-6.1c1,0.4,2.8,0.9,4.1,1.6c4.1,0.3-6.4-3.2-0.4-2c-1.3-0.3-0.3,0.6,1,0.9
							c2.2,0.7,4.4,1.2,4.1,0.4c0,0-1.2-0.9-2.4-1.6c-1.2-0.8-2.5-1.5-2.5-1.5l2,0.5c0,0-1.9-1.2-3.8-2.3c-0.9-0.6-1.9-1.2-2.6-1.5
							c-0.7-0.4-1.2-0.7-1.2-0.7c-0.3,0.2,0.4,0.7,0.7,1c-9.3-4.1-20.8-6.1-29.6-7.6c-0.5,0.8-2.2,1-4.4,1.1
							c-2.2,0.1-5.1-0.3-8.1-0.3c-3-0.1-6.2-0.3-9.1-0.2c-2.9,0.1-5.4,0.3-7.2,0.9c1.9-1,2.9-2.8,1.7-3.5c1.6-0.1,4.9-1.4,8.5-1
							c0.6,0.5,5,1.5,2.1,1.9c10,0.4-1.2-1.6,1.8-2.7c-11.3-0.3-17.8,1.8-24.7,3.2l-0.2-0.4c0,0-1.3,0.3-2.6,0.6
							c-1.3,0.3-2.6,0.6-2.6,0.6c2.1-0.1,3.2,0.4,3,0.8c-0.2,0.5-1.6,0.8-4.3,0.8l0.6-0.2c-1.6-0.2-4,0.1-6.6,0.6
							c-2.6,0.6-5.3,1.3-7.7,1.7c0,0-0.8,0.4-1.5,0.9c-0.7,0.5-1.5,0.9-1.5,0.9c-4.7,1-5.5-1.1-7.3-1.8c-3.8,1-6.6,2.1-9.1,3.6
							c-2.4,1.4-4.6,2.8-6.9,4.3c-1.3,0.1-4.7,1-7,1.7c-2.3,0.7-3.7,1-1.2-0.8c-6.1,3.7-2.6,7.2-14.2,10.5l2.2-2.3
							c-4.9,2.9-10.5,6.8-15.2,10.6c-1.2,0.9-2.3,1.9-3.4,2.7c-1.1,0.9-2.1,1.7-3,2.5c-1.9,1.5-3.5,2.7-4.6,3.4
							c0.6-2.6-2.6-0.9-6.5,1.4c-3.7,2.4-8.1,5.4-9.8,5.1c0.9,0.1-1.9,3.4-2.1,4.1c-0.9,0.4-2.3,1.4-2.9,3.1c1.7-1.5,1.8-0.4,2,0.2
							c0.3,0.6,0.6,0.6,3.1-2.9c-0.8,2.3-1.7,4.7-3.2,7.5c-1.6,2.7-3.5,5.9-6.4,9.5l-1-0.9l4.9-5.6c-1.2,0,1.3-2.9,2-4.4
							c-2.4,2.5-3.7,3.6-4.3,3.9c-0.7,0.3-0.8,0-0.9-0.4c-0.2-0.7-0.4-1.4-4.8,4.3c-0.1,1.6,0.1,0.7-1.8,3.9c1-1.4,0.4-2.2-1.2,0.1
							l-0.7,2.8c-2.2,1.5-1.5-0.5-0.4-2.4c1-1.9,2.2-3.9,0.3-2.6c2.3-5.2,8.2-13.1,5.8-12.8c-6.4,6.9-2.8,8.4-9,15.8l-1.1,0.5
							c-1.4,3.1-0.8,4.2-1.2,6.1c-0.4-0.1-1.2,0.5-2.3,2.3c-1.5,5.7-2.9,9.2-3.6,14.6c1.2-3.2,2.3-5.4,3.2-7.2
							c1-1.7,1.9-2.9,2.8-4.1c1.8-2.4,3.6-4.8,7-11c-0.9,2.1-5.8,10.7-4.5,12.2l-1.1-0.8c-1.7,4.2-3.2,8.6-6,13.5
							c0,0,0.2-0.9,0.4-1.7c0.2-0.9,0.5-1.7,0.5-1.7c-1.3,3.6-2.9,6.3-4.5,8.8c-1.4,2.6-2.6,5.1-2.6,8.3c0.8-2,1.4-3.5,1.7-4.8
							c-1,3.8-2.6,8.4-4.1,12.3c0,0-0.1,2.2-0.2,4.5c0,1.1-0.1,2.2-0.1,3.1c0,0.8,0,1.4,0,1.4c-0.6-0.2-1.9,5.1-2.3,2.3
							c-0.6,1.5-1,2.8-1.2,4c-0.2,1.2-0.2,2.3-0.2,3.3c0.1,2,0.3,3.7,0.2,5.5c-1.1,3.1-1.1,1.7-1-0.6c0.2-2.3,0.5-5.4-0.3-5.9
							c-0.5,2.2-1.1,4.4-1.4,6.6c-0.3,2.2-0.5,4.4-0.7,6.4c-0.2,4.1,0,7.8,0.4,10.3c0.3-1.8,0.7-2.7,0.9-2.5
							c-0.5,0.2-0.5,3.8-0.5,5.8l0.8,1.4c-0.7,3.3-1.1,2.8-1.7,0c-0.3,3.2,1.5,6.9,0.3,10.2c-0.5-2.7-0.8-5.8-0.7-8.6
							c0.1-2.8,0.2-5.2-0.1-6.6c0.3,5.7-0.5,8.5-0.9,11.8c-0.2,1.6-0.6,3.4-0.6,5.6c0,2.2,0.2,5,0.8,8.6c-0.4,0.2-1.5-2.2-1.1,0.6
							c1.1,6.4,1.9,1.5,3.1,3.4c-1.2-4.8-0.8-7.2,0-10.2l0.8,1.2c-0.3,0.2-0.2,3.3-0.4,4.2l1.5,0.6c-1.5-0.2-2.2,4.9-1,8.7
							c0.4-4.1,0.6-3,2.2-4.3c1.1,2.6,1.1,4.1,0.9,5.8c-0.1,1.6-0.3,3.4,1.3,6.2c-0.6-0.3-2-5.5-1.5-0.9c0.8,3.7,1.8,3,2.8,5.3
							c-1.9-2.5-2.6-1.5-4.8-4.3c-1.5-6.7-0.5-2.7-2.3-9.2l-0.1,5.8c-1.2-5.7-2.2-4-2.8-4.4c0.5,10.2,3.3,7.1,4.4,13.5
							c1.6,2.8-1.2-5.9,0.8-1.4c1.2,5.9,1.1,1.2,3.4,7.4l-0.9-0.9c-0.2,2.2,1.2,3.9,2.2,6.1c1.2,2.3,3.2-4.1,6.8,5.7
							c-0.5-0.3-0.8-0.4-0.9-0.4c0,0-0.9-0.3-2.1-0.9c-1.3-0.6-2.9-1.4-4.6-2.2c-1.7-0.8-3.4-1.7-4.7-2.3c-1.3-0.7-2.1-1.1-2.1-1.1
							c3.3,10.8,7.9,23,13.8,34.8c-0.1,1.9-1.7,0.1-3.2-2.2c-1.5-2.2-2.9-4.8-3.2-4.2c0,0-0.6-1.4-1.2-2.8c-0.5-1.4-1.1-2.9-1.1-2.9
							c0.8,0,5.9,11.3,4.8,5.7c-5.3-9.3-6.2-14.1-11.2-23c-1.1,3.7,4.8,12.5,6.2,19.1c-1-2.6-2.2-4.6-3.4-6.7
							c1.1,2.9,2.3,5.9,3.6,9.1c1.4,3,2.8,6.2,4.4,9.4l1.2,1.1c-2.3-4.2-3.4-7.4-3.6-7.8c2.6,5.8,6.6,9.8,8,9.4l-0.5-1l1.5,1.7
							C110.9,334.5,111.6,335.8,112.3,337.1z M428.4,285.1c0.1,0.4,0.2,0.7,0.3,1C428.6,285.8,428.4,286,428.4,285.1z M81.4,219.1
							c-1.5,8.5-2.2,17.2-2.5,25.5c0.7-3.8,1.6-7.2,2.3-9.8c0.8-2.6,1.5-4.5,2-5.1c1.1-1.3,1.1,2.3,0.9,14.4l0.3,1.6
							c0.1-1.6,0.2-3.7,0.4-6.1c0.1-2.4,0.1-5.1,0.2-7.6c-0.3-2.1-1.4-6.6-2-10.6c-0.3-2-0.7-3.9-0.9-5.3c-0.2-1.4-0.4-2.2-0.4-2.2
							c-1.2,1.3-0.5,3.7-1.1,6.4L81.4,219.1z M87.4,213.9c1.2-4.6,0.3-3.7-0.2-4.5c-0.2,1.7-0.4,3.3-0.7,5
							C86.8,213.8,87.1,213.5,87.4,213.9z M86.6,209.6c-0.1,0.5-0.2,1-0.3,1.2L86.6,209.6z M92.4,301.4c-0.1-0.2-0.1-0.3-0.2-0.4
							c0.3,1.1,0.6,2.2,1,3.3C93.1,303.8,92.9,303,92.4,301.4z M90.8,291.8l-1.4-0.8c0.2,1,0.5,2.1,0.8,3.1
							C90.6,293.6,90.9,293.1,90.8,291.8z M88.6,261c-1.5-1.8-2-8.2-3.6-8.5c-0.4-0.4-0.5,1-0.5,2.5c0.1,1.7,0.2,3.6,0.3,5.5
							c0.2,0,0.4,0.4,0.7,1c0-1.9,0.3-3.2,1.3-2.6c-1.6,5.1,2,4.2,2,9.5C90.2,269.9,89.2,262.5,88.6,261z M369.4,107.1
							c0,0.2,0.2,0.8,0.5,1.6l-3.4-1.7c-1.3-1.1-2.4-2.3-3.5-3.4c-1.1-1.1-2.2-2.1-3.3-3.1c-2.2-2-4.6-3.7-7.6-4.5
							c-2.1-2-2.9-3.6-3.8-5c1.2,0.8,2.3,1.5,3.1,2.2c8,3.4,9.4,5.5,10.4,7.2c0.5,0.9,0.9,1.7,1.9,2.7
							C364.8,104.1,366.4,105.4,369.4,107.1z M301.1,70.3c0.7,0.1,1-0.1,1-0.1c-15.6-0.9-27.9-1.1-36-1.6c0.8,0.5,2.9,1.2,5.3,1.8
							c2.4,0.6,5,1.1,6.7,1.6c0,0-0.8,0.2-1.6,0.4c-0.8,0.3-1.6,0.5-1.6,0.5l-1.8-1.2l-5.3,0.8c1.4,1,5.6,1.1,8.3,2
							c0.2-0.2,9.3-0.7,12-0.9c0,0-1.7-0.6-3.5-1c-1.8-0.4-3.5-0.9-3.5-0.9c1.9,0.5,11.5,1.8,15.2,2.4c0.1-0.3-1.4-1.1-3.1-1.6
							c-1.7-0.5-3.6-0.7-4.1-0.1c-0.6-1.1,6.9,0.3,2.3-1.6c2.9-0.1,6.6,0.8,10,1.8c3.4,1,6.5,2.3,8.5,3.1l0.2,1.7
							c4.2,2,3.6-0.8,8.5,1.8c-6.5-1.9,0.5,2-4.6,0.4c1.4,1.1-0.5,1.6,4.5,3.2c4.9-0.3,4.7,3.2,9.2,3.2c2.3,1.8-3.2-0.1,1.6,2.4
							c3.1,0.8,4.6,1,5.5,0.9c0.9-0.1,1.2-0.7,1.7-1.2c-2.5-1.6-4.3-1.8-5.9-2s-3.1-0.3-5.2-1.4c0,0,2.4,0.4,4.9,0.8
							c1.2,0.2,2.5,0.4,3.4,0.6c0.9,0.2,1.5,0.3,1.5,0.3c-1.4-1.2-2.7-1.7-3.7-2.1c1.9,0.7,3.6,1,5.1,1.2c0.9,0.1,1.7,0.2,2.4,0.3
							c-1.2-0.6-2.5-1.3-3.6-1.9c-1.1-0.6-2.2-1.1-3.1-1.5c-1.8-0.9-3.1-1.7-3.4-2.2l1-0.4c-1.5-1.5-4.8-2.1-6.4-2.2
							c-4.7-1.9-9.9-2.3-10.6-3.6l2,0c-3-0.9-4.7-1.3-6.5-1.8C306.9,71.9,304.9,71.1,301.1,70.3z M117.6,132.4
							c2.3-0.6,4.4-1.4,7.5-3.6c3.1-2.2,6.9-5.9,13-12.1l-0.8,1.1c1.9-1.2,3.4-2.6,5-4.2c1.6-1.5,3-3.1,4.5-4.8
							c3.1-3.2,6.5-6.7,11.5-8.9c-3.6,3.8-3.5,3.6-6.4,8.9l3.8-4c-0.3,2.1,3.6-1.7,6.9-3.9l-1.8,3.5c-1.1,0.5-3,1.5-4.4,2.6
							c-1.5,1.1-2.6,2-2.4,2.1c0.5-0.5-1.5,0.3-4,1.7c-2.4,1.5-5.5,3.6-7.2,5.6c1.2,0.5,9.1-7,6.7-2.3c2.7-3.4,3.9-2.7,7.1-5.8
							c-2.8,3.3,0.2,1.9-1.8,4.6c0,0,1.3-1.2,2.7-2.4c1.3-1.2,2.8-2.3,2.8-2.3c0.3,0.1-7.7,7.1-2.2,4.6c1.8-2.4,8.5-6,7.9-7.2
							l0.4,0.2c4.6-2.6,1-2.8,6.9-5.7c-0.3-0.6-1.6-0.3-3.5,1.1c-1.5,1.3-1.3,2.2-4.6,4.6c-1,0.1,0-0.6,0.9-1.2
							c0.9-0.6,1.7-1.3,0-1.2c-1.7,0.1-8.5,6.9-7.2,3.6l4.6-2.9c-0.7-1.2,2.7-3.3,2-4.1c2.6-2.2,6-2.7,8.4-5.3
							c0.8-1.4-2.1-1.6,3.2-3.8c1.2-0.1,2.8-0.5,4.7-1.2c1.8-0.7,3.8-1.6,5.9-2.4c4.1-1.8,8.2-3.6,10.4-4.6c0,0,0.9-0.6,1.9-1.2
							c1-0.5,1.9-1.1,1.9-1.1c-0.7-0.7-7.7,3-5.5,1.1c0,0,1.5-0.7,3.1-1.4c1.6-0.6,3.2-1.2,3.2-1.2l-0.3,0.6c2.2-0.6,4.2-1.9,6-2.7
							c-1.8,1.5-6.5,2.8-5.1,3.7c3.1-0.7,3.6-0.5,6.4-1.5c-0.6,0.3-1.1,0.5-0.9,0.7c6.3-1.2,5.5-3.1,6.9-4c2.9-1.6,1.2-1.7-1.1-1.4
							c-2.3,0.3-5.4,0.8-5.2,0.1c0,0,1.1-0.4,2.8-0.9c0.9-0.3,1.9-0.6,2.9-1c1.1-0.3,2.2-0.6,3.4-0.9c4.6-1.3,9.3-2.3,9.3-2.3
							c-1.5,0.7-3.1,1.4-2.4,1.9c4.7-0.2,0.3,1,6.7-0.2c-0.4-0.9,1.6-1.5,4.3-2c1.3-0.3,2.8-0.5,4.3-0.8c1.4-0.3,2.9-0.5,4-0.9
							c2.2,0.6,2.7,0.7-2,1.1c0.7,1.2,6.9,0.1,9.2,0.2c1.3-0.3,3.5-0.6,4.9-0.9c-1.9-0.5-1.1-1.3,3-1.9l0.3-0.2
							c-3.4-0.1-7.8-0.5-11.9-0.4c-4.1,0.1-7.8,0.3-9.9,1.3l1.1-0.7c-4,0-8.2,1-11.9,2.1c-3.7,1-6.8,1.9-8.8,1.3
							c0.1-0.9-1.6,0.2-1.8-1.1c0,0-1.4,0.6-2.8,1.2c-1.3,0.6-2.7,1.3-2.7,1.3l1-0.9c0,0-2.4,0.7-4.8,1.5c-2.4,0.7-4.7,1.6-4.7,1.6
							l0.2-0.3c-2,1.3-3.9,2.5-5.5,3.6c-1.6,1.2-3,2.2-4.2,3.1c0.2,0.5,0.5,0.6-0.8,1.5c-1.3,0.8-2.4,1.3-3.4,1.7v0l0,0
							c-2.2,0.8-4,0.8-6.9,1.7c0,0,2.1-1,4.2-2c1-0.5,2.1-1,2.8-1.3c0.8-0.4,1.3-0.6,1.3-0.6c0.3-1.2-0.8-1.8-5.2-0.5
							c1.7-0.8,2.1-1.8-0.1-1c-0.1,0.3-5.3,3.1-3,2.8c-3.9,2.1-9.3,4.2-15,7.1c-2.9,1.4-5.7,3.2-8.5,5c-2.8,1.9-5.5,4.1-7.9,6.4
							c3.6-3.3,1.8-2.4,0.2-1.5c-1.6,0.9-3,1.8,1.2-1.6c-3.6,1.5-4.5,3-5.5,4.4c-0.9,1.5-1.9,2.9-4.8,5.4c-0.8,0,3.2-2.7,3.9-4.6
							c-5.2,3.7-8.8,7.8-12.2,12c-1.7,2-3.3,4.2-5,6.3c-1.8,2.1-3.6,4.3-5.6,6.5l-1.2-0.4C120.6,128.1,119.1,130.2,117.6,132.4z
							 M105.2,153.2c-1,2.1-2.2,4.2-3.1,6.4c0.1-0.2,0.2-0.4,0.3-0.6l-2.3,6.7c2.4-3.6,4.8-5.5,2.7,0.1c-0.2-0.7-1.6,0.6-0.9-1.4
							c-1.3,1.6-2.9,4.3-3.9,6.5c-1,2.2-1.4,3.8-0.1,3.1c1.6-7.7,2.8-0.7,4.2-6.7c-0.3,3.4-2.1,6.1-2.8,9c0.3-3.3-2.3-0.2-4.5,4.1
							c-0.6,2-2.6,7.3-3.2,10.7c1.4-0.8,1.1,2.2,3.1-3c-0.2,1-0.5,2.3-0.9,3.7c-0.4,1.4-0.9,3-1.7,4.6c0.2-1.4,0.7-3.8,0.3-3.8
							c-1.6,1.9-2.3,4.5-3.1,5.9c-0.3,1.2-0.4,2.3-0.7,3.5c0.2-0.3,0.4-0.6,0.6-0.8l0.1,4.1c0.7-5.2,1-2.2,1.7-2
							c-1.2-0.4-0.9,3.2-1.3,5l2.2-3.5c0.1,1-0.5,2.5-0.9,3.7c-0.4,1.2-0.6,2.1,0.1,1.8c1-3.9,1.8-6.6,2.4-9.3
							c0.6-2.6,1.2-5.2,2-8.8l-1.8,2.6c0.7-4.1,1.7-5.2,2.7-6.3c1-1.1,1.9-2.4,3.6-6.7c0.4-4,5.4-12.8,3.8-13.8
							c0,1.3,4.1-4.4,4.9-7.6c0.1-1.9,1.4-5.3,2.5-7.8c1.2-2.5,2-4.2,0.7-3.1c-1.7,2.4-2.8,6.3-4.9,7.8l2.5-5.1l-2.7,2.8
							C107.8,153.4,106.9,153.1,105.2,153.2z M73.5,280.4c0,0.1,0,0.2,0,0.2L73.5,280.4L73.5,280.4z"/>
						<path fill="#FFFFFF" d="M423.7,172.1c1.2,1.3,2.5,5.3,3.1,4.2c-0.5,0.2-1.2-1.5-1.8-2.9C424.3,171.9,423.7,170.8,423.7,172.1z
							"/>
						<path fill="#FFFFFF" d="M424.6,177.1c0.3,0.2,0.6-0.2,1.3,1.6l-2.1-4.7L424.6,177.1z"/>
						<path fill="#FFFFFF" d="M419.8,184.3c1.6,2.1,2.5,3.5,3.7,7.3c-2,2.2-2.8-5.9-5.6-6.8c1.1,3.4,2.3,5.5,3.5,7.4
							c1.2,1.9,2.3,3.7,3.2,6.6c0.1-1.5-0.4-5.3-1.5-8.6C422.1,186.9,420.8,184.1,419.8,184.3z"/>
						<path fill="#FFFFFF" d="M415.6,182.5c0,0,0.5,0.9,1,1.7c0.5,0.9,1,1.8,1,1.8l0-0.4c0,0-0.5-0.9-1-1.8c-0.5-0.9-1-1.8-1-1.8
							L415.6,182.5z"/>
						<path fill="#FFFFFF" d="M380,96.7c0.2-0.9-2.5-2-3.8-2.8C377.2,94.7,378.4,95.9,380,96.7z"/>
						<path fill="#FFFFFF" d="M395.8,376.4c0,0,1.4-1.6,3.6-4c2.1-2.4,4.9-5.7,7.5-9.1c2.6-3.4,5.2-6.8,6.9-9.5c1.8-2.7,3-4.4,3-4.4
							C411.4,357.6,406.1,365,395.8,376.4z"/>
						<path fill="#FFFFFF" d="M276.2,59.2c4.5,0,7.7,0,11.1-0.1c3.3,0.1,6.6,0.2,11.2,1c-2.9-1.1-5.4-1.5-7.6-1.8
							c-2.2-0.3-4.2-0.3-6.1-0.2c-3.8,0.1-7.3,0.3-12.3-0.9L276.2,59.2z"/>
						<path fill="#FFFFFF" d="M280.1,53.2c1.3,1.6-7.2,1.1-6,2.3c6.1,0.1,3-1.2,8.5-0.4L280.1,53.2z"/>
						<polygon fill="#FFFFFF" points="312.8,85.8 310.3,85.7 312.2,86.1 						"/>
						<polygon fill="#FFFFFF" points="238.3,54.5 239.2,54.1 234.6,54.2 						"/>
						<path fill="#FFFFFF" d="M240.2,53.6l-1,0.4L240.2,53.6z"/>
						<polygon fill="#FFFFFF" points="308.9,87.8 312.2,89.3 314,89.2 						"/>
						<path fill="#FFFFFF" d="M279.2,73.2l3.4-0.1C282,73.2,277.5,72,279.2,73.2z"/>
						<polygon fill="#FFFFFF" points="210.5,59 206.3,60.8 206.8,60.8 211,59 						"/>
						<path fill="#FFFFFF" d="M253.3,76.3c2.3,1.1-6.5,0.5-1.8,1.4C255.6,77.4,253.9,76.8,253.3,76.3z"/>
						<path fill="#FFFFFF" d="M204,77.2c-0.5,0.2-1.1,0.4-1.6,0.7C203.1,77.6,203.6,77.4,204,77.2z"/>
						<path fill="#FFFFFF" d="M204,77.2c1.7-0.6,3.6-0.7,4.6-1.4C206.3,75.9,205.6,76.4,204,77.2z"/>
						<path fill="#FFFFFF" d="M184.9,85.1l1.5-0.6c-1.3,1.2-0.6,0.8,0.6-0.2c1.6-0.8,1.3-1,1.4-1.3c0.3-0.3,0.5-0.5,0.8-0.8
							c-0.4,0.4-0.8,0.7-1.1,1C185.6,84.1,184.2,84.8,184.9,85.1z"/>
						<path fill="#FFFFFF" d="M109.8,119.1c4.7-4.8,6-5.9,6.4-5.1c4.5-4.4,2.7-4.7,5.2-7.8c-2.4,2.7-4,4.2-5.6,5.9
							C114.2,113.8,112.5,115.8,109.8,119.1z"/>
						<path fill="#FFFFFF" d="M121.4,106.3c0.5-0.6,1.1-1.1,1.8-1.8C122.4,105.2,121.8,105.7,121.4,106.3z"/>
						<path fill="#FFFFFF" d="M210.3,85.7c0,0-0.7,0.6-1.5,1.2c-0.7,0.6-1.4,1.2-1.4,1.2l1.2-0.6c0,0,0.4-0.5,0.9-0.9
							C209.8,86.1,210.3,85.7,210.3,85.7z"/>
						<path fill="#FFFFFF" d="M103.3,126.7c0.8-0.9,2-2.5,2.9-3.1C105.7,122.7,102.4,127.6,103.3,126.7z"/>
						<path fill="#FFFFFF" d="M132.7,119.3c0.8-0.1,3.4-3,4.7-4C135.6,116.8,133.1,116.9,132.7,119.3z"/>
						<path fill="#FFFFFF" d="M95.6,144.5c0.7-1,2.2-2.3,2.4-1.2C98.6,141.6,98.6,138.7,95.6,144.5z"/>
						<path fill="#FFFFFF" d="M125,127.4l0.8-0.5c0,0,0.6-0.9,1.2-1.8c0.6-0.9,1.2-1.7,1.2-1.7s-0.8,1-1.6,2
							C125.8,126.4,125,127.4,125,127.4z"/>
						<path fill="#FFFFFF" d="M144.4,126c2.4-3.8-6.9,3-2-2.9c-7.8,6.2,1.5,0.5-3.6,5.6C142,125.8,144.4,125.4,144.4,126z"/>
						<path fill="#FFFFFF" d="M138.8,128.7c-0.5,0.4-1,0.9-1.5,1.4C137.9,129.5,138.4,129,138.8,128.7z"/>
						<path fill="#FFFFFF" d="M98.9,177.9c0.1-0.7,0.2-1.1,0.2-1.6C99,176.9,99,177.4,98.9,177.9z"/>
						<path fill="#FFFFFF" d="M124.8,146.9c0,0,0.6-1.6,1.3-3.2c0.7-1.5,1.4-3.1,1.4-3.1c-2,4-8.3,13.2-6.5,13.6
							c2.1-2.9,4.4-6.5,4.8-8.4L124.8,146.9z"/>
						<path fill="#FFFFFF" d="M67.5,211.3l0-3.4l-0.9,4.1C67,210.9,67.7,213.2,67.5,211.3z"/>
						<path fill="#FFFFFF" d="M66.3,212.8l0.2-0.8C66.5,212.2,66.4,212.5,66.3,212.8z"/>
						<path fill="#FFFFFF" d="M103.6,165.7c1.1-1.9,1.9-3.6,2.6-5.5C105.5,160.8,102.7,165.7,103.6,165.7z"/>
						<path fill="#FFFFFF" d="M67.3,234.8c0,0-0.1-1.4,0-2.7c0-1.4,0.1-2.7,0.1-2.7s-0.1,1.5-0.2,3c-0.1,0.7-0.1,1.5-0.1,2
							s0,0.9,0,0.9L67.3,234.8z"/>
						<path fill="#FFFFFF" d="M65.2,260.4l-0.2,1c0,0,0.2,1.1,0.5,2.2c0.3,1.1,0.6,2.2,0.6,2.2l0.2-1c0,0-0.3-1.1-0.5-2.2
							C65.4,261.6,65.2,260.4,65.2,260.4z"/>
						<path fill="#FFFFFF" d="M96.4,229.4c0.3-3.1-0.7-5.7-1.1-4.9c0,0,0,0.4-0.1,1s-0.2,1.3-0.2,2.1c-0.1,1.5-0.2,3.1-0.2,3.1
							c1.4-1.5,0-1.7,0.7-5.2c0,0,0.2,1,0.4,2C96.2,228.4,96.4,229.4,96.4,229.4z"/>
						<path fill="#FFFFFF" d="M167,412.2c-1.8-0.1-8.4-4.4-8.3-5.3c1.1,0.3,4.9,2.1,2.9,0.3c0,0-1.6-0.3-3.2-0.7
							c-1.6-0.4-3.2-0.8-3.2-0.8c-6.2-5.6,6.7,1.2,10.6,2.4c-3.5-2.2-6-3.3-8.4-4.6c-2.5-1.2-5.1-2.4-8.7-5.1c2,1.7,3.1,3.1,4,4.2
							c-0.3,0.7-2.1-0.3-4.3-1.9c-2.3-1.6-5.2-3.8-7.5-5.6c2.6,2.8,0.6,1.9-2,0.6c-0.4-0.3-0.7-0.4-1-0.5c-0.3-0.2-0.6-0.3-0.9-0.4
							l0.6,0.4c-0.1,0.1-0.1,0.3,0.1,0.9c4.2,2.9,6.7,6.1,9.3,8c-0.6-1.9,1.7-0.3,4.7,1.7c3.1,2.1,6.8,4.8,8.8,5.4l4.2,2.2l1.5,0.9
							c0.2,0.4-0.4,0.4-3-0.5c2.1,0.8,8.8,4.3,8.5,3.3c0,0,1,0.5,2.4,1.2c1.4,0.7,3.4,1.6,5.4,2.4c2,0.9,3.9,1.8,5.4,2.3
							c1.5,0.6,2.5,1,2.5,1c0.5,0.3,0.9,0.6,1.2,0.9c0.6,0.1,0.7,0,0.7-0.1c0,0,1.1,0.4,3,1.2c1.9,0.7,4.7,1.6,8,2.7
							c6.7,2,15.7,4.5,24.9,6c4.6,0.9,9.2,1.3,13.6,1.9c4.3,0.3,8.4,0.7,11.9,0.8c3.5,0.1,6.4,0.1,8.4,0.2c2-0.1,3.2-0.1,3.2-0.1
							c-3.7,0-6.8-0.7-10.6-1.1c5.7-1.4-6.2-0.4-4.4-2c2.5-0.3,6.2-0.2,8.4,0.3c0.8-0.7-2.3-1.5-1.9-2.3c-4.6-0.5-7.2-0.1-9.9,0.4
							c-2.7,0.5-5.4,1.1-9.8,0.2c0.5-0.8,3.3-1.3-2.5-1.9h1.5c-4.8,0-6.5-1.1-7.8-1.6c-1.3-0.6-2.2-0.8-5.4-0.2l0.4-1.2
							c-2.2,0-5.3-0.5-8.4-1.1c-3.1-0.7-6.3-1.6-8.5-2.1l0.3-0.2c-12.9-2.8-7.2-1.8-21.1-6.8c0,0,0.4,0.1,1.1,0.2
							c0.6,0.1,1.5,0.3,2.4,0.4c1.7,0.3,3.4,0.5,3.4,0.5c-4.5-2.4-6.1-1.4-9.4-3.1c0.3-0.1,0-1.3,3.2-0.1c0,0-1.1-0.3-2.7-0.8
							c-1.6-0.5-3.8-1.1-5.9-1.9c-2.1-0.8-4.2-1.5-5.8-2.1c-1.6-0.6-2.6-1-2.6-1C162.2,408.8,166.7,411.3,167,412.2z"/>
						<path fill="#FFFFFF" d="M148.7,398.4c-0.7-0.6-1.6-1.2-2.7-2C147.1,397.2,147.9,397.8,148.7,398.4z"/>
						<path fill="#FFFFFF" d="M267.8,437.4l-5.2,0.2C264.2,437.5,265.9,437.5,267.8,437.4z"/>
						<path fill="#FFFFFF" d="M126.9,384.2c1.8,2.7-2.4-1-3.1-1c0,0,2.1,2,4.1,3.9c2.1,1.9,4.3,3.7,4.3,3.7c0.3-0.4,1.5-0.1,1.6-0.6
							c0,0-1.8-1.5-3.5-3c-0.9-0.7-1.8-1.5-2.4-2.1C127.3,384.6,126.9,384.2,126.9,384.2z"/>
						<path fill="#FFFFFF" d="M134.2,393.7c0.5,0,1.7,0.5,2.9,1.1c0,0-1.2-0.9-2.4-2c-1.2-1-2.4-2-2.4-2
							C132,391.2,132.3,391.9,134.2,393.7z"/>
						<path fill="#FFFFFF" d="M150.3,372.6l1.3,1.1l2.3,1.3c0,0-0.9-0.6-1.9-1.2C151.2,373.3,150.3,372.6,150.3,372.6z"/>
						<path fill="#FFFFFF" d="M171.5,390.4c-1.5-1.7-5.1-3.4-6.3-4C169.1,388.9,167.2,388.1,171.5,390.4z"/>
						<polygon fill="#FFFFFF" points="171,380.6 174.8,382.5 174.5,382.2 						"/>
						<path fill="#FFFFFF" d="M304.9,426.9c0.8-0.2,1.5-0.4,2.3-0.7C306.1,426.5,305.4,426.7,304.9,426.9z"/>
						<path fill="#FFFFFF" d="M263,433.6c11.9,1.2-7.8,1.4-4,3.2l6.5-0.8l-0.5,0.5c0,0,2-0.1,4-0.2c2-0.2,4-0.4,4-0.4
							c-1.7-0.7-2.9-0.7-2.6-1.6c10.6-0.5,3.4,0.9,11.3,1.2c0,0,3-0.4,5.9-0.8c2.9-0.5,5.9-1.1,5.9-1.1l-0.9,0.4
							c1-0.2,1.4-0.4,1.7-0.6c0,0,9.9-1.8,19.5-4.9c2.4-0.7,4.8-1.5,7-2.3c2.2-0.8,4.3-1.5,6-2.2c3.5-1.4,5.8-2.4,5.8-2.4
							c6.5-3.4-4.3,0,0.1-3.2c-7.7,3.3-19.7,6.2-19.9,7.9c0.2-0.3,0.6-0.9-1.1-0.7l-4.3,2.7l4.6-0.8c-1.1,0.7-2.8,1.5-4.9,2.2
							c-2.1,0.7-4.6,1.3-7,1.8c-4.8,1.1-9.5,1.4-11,1.3c8.8-2.1,4-2.8,16.3-4.7c-0.7-0.3-3-0.6-0.4-1.4
							C290.9,430.8,277.9,431.7,263,433.6z"/>
						<path fill="#FFFFFF" d="M393.3,377.1l0,0.2C393.4,377,393.5,376.9,393.3,377.1z"/>
						<path fill="#FFFFFF" d="M389.6,380.3c0,0-1,1.5-2,3.1c-1,1.6-2.1,3-2.1,3s2.1-1.8,4-3.8c2-1.9,4-3.9,4-3.9l-0.3-1.4
							c-0.5,0.9-2.8,4-4.2,4.7L389.6,380.3z"/>
						<path fill="#FFFFFF" d="M380,392.6c4.1-4.1,2.8-5,0.1-3.5c3.5-3.9,3.1-0.6,4.8-4.1c-0.8-0.7-5.2,4-6.2,5L380,392.6z"/>
						<polygon fill="#FFFFFF" points="343.9,414.8 345.1,413.5 341.5,415.2 						"/>
						<path fill="#FFFFFF" d="M345.1,413.5l3.6-1.7c-0.4-0.3-0.9-0.5-1.6-0.5L345.1,413.5z"/>
						<path fill="#FFFFFF" d="M357.9,407.2c1.5-0.8,3.1-1.7,5-2.9c0,0-1.2,0.7-2.5,1.5C359.2,406.4,357.9,407.2,357.9,407.2z"/>
						<path fill="#FFFFFF" d="M353.8,409.1l0.2,0.1l3.9-2C356.4,407.8,355.1,408.5,353.8,409.1z"/>
						<path fill="#FFFFFF" d="M348.7,411.9c1.1,0.6,2.2,1.2,7.1-1.9l-1.8-0.8c0,0-1.3,0.7-2.7,1.4
							C350.1,411.3,348.7,411.9,348.7,411.9z"/>
						<polygon fill="#FFFFFF" points="197.9,396.1 201.7,397 201.4,396.7 197.6,395.8 						"/>
						<path fill="#FFFFFF" d="M219,403.9c1,0,1.7,0,2.4,0C220.4,403.8,219.6,403.8,219,403.9z"/>
						<path fill="#FFFFFF" d="M236.4,400.3c4.2,1.6-6.3,0.6,1.8,2c0.6,1-3.4,1.9-7.2,0.6c0.5-0.8,3.8,0.1,1.6-1.2
							c-2.7,0.6-3.6-0.3-2.9,1.2c-4.5,0.1-5.2,0.8-8.3,1c5.3,0.8,16.3,3.9,23.3,2.8c3.9-1.3,1.8-3.7,2-6c-0.2-0.3-2.7-0.6-5.1-0.9
							C239.1,399.5,236.7,399.5,236.4,400.3z"/>
						<path fill="#FFFFFF" d="M230,396.8c-2-0.5-2.6-0.5-3.8-0.6C226.3,397.2,228.4,396.6,230,396.8z"/>
						<path fill="#FFFFFF" d="M277.8,416.1c0.4-0.4,4.3-1.3,3.4-1.8c0,0-1.5,0.3-3,0.6c-1.5,0.3-3,0.5-3,0.5
							C276.6,415.4,277.2,415.8,277.8,416.1z"/>
						<path fill="#FFFFFF" d="M272.6,415.9l2.7-0.4C274.5,415.5,273.7,415.6,272.6,415.9z"/>
						<path fill="#FFFFFF" d="M278.1,416.3c-0.1-0.1-0.2-0.1-0.3-0.2C277.7,416.2,277.7,416.3,278.1,416.3z"/>
						<path fill="#FFFFFF" d="M371.8,398.5c0.3,0.6,2.6-1.5,3.6-2.6C374.4,396.7,372.9,397.5,371.8,398.5z"/>
						<path fill="#FFFFFF" d="M436.9,308.6l1.3-2.3C437.6,307,437.3,307.4,436.9,308.6z"/>
						<path fill="#FFFFFF" d="M429.3,267c-0.1-0.1-0.2-0.3-0.3-0.5C429.1,266.7,429.1,266.9,429.3,267z"/>
						<path fill="#FFFFFF" d="M429,266.4c-0.3-1.7,1.2-6.6,0.4-8.4l0.2,0.2l-0.2-3.4c-0.1,1.6-0.3,4-0.4,6.3
							C428.8,263.4,428.8,265.5,429,266.4z"/>
					</g>
				</g>
			</g>
		</g>
	</g>
</g>
<g>
	<g>
		
			<image overflow="visible" opacity="0.75" enable-background="new    " width="396" height="632" xlink:href="3C956524227197E.png"  transform="matrix(0.6249 0 0 0.6251 137.6763 65.8027)">
		</image>
		<g>
			<g>
				<g id="YoI1sJ.tif_9_">
					<g>
						<path fill="#CCCC66" stroke="#1C75BC" stroke-width="8.170000e-02" stroke-miterlimit="10" d="M159.4,204.8c0-2.2,0-4.3,0-6.5
							c0-4.8,0.1-9.6,0-14.3c0-1.2,0.3-1.4,1.5-1.4c14,0,28,0,42,0c0.5,0,1,0,1.5-0.1c0.1-0.1,0.2-0.1,0.2,0
							c0.4-0.4,0.2-0.9,0.2-1.3c0-10.8,0-21.6,0-32.4c0-5,0.9-9.9,2-14.7c0.1-1.8,0.7-3.5,1.3-5.2c2.6-7.1,6.3-13.6,11.2-19.4
							c5-5.9,10.9-10.8,17.7-14.6c7.3-4.1,15.1-6.7,23.4-7.7c0.8-0.1,1.6,0,2.4,0c20.4,0,40.8,0,61.1-0.1c2.1,0,1.8-0.2,1.8,1.9
							c0,16.8,0,33.5,0,50.3c0,1.3-0.3,1.7-1.6,1.7c-8.3-0.1-16.6-0.2-24.9,0c-9.8,0.2-17.1,4.8-21.6,13.6c-1.4,2.8-2.2,5.9-2.2,9.1
							c0.2,2.1,0.1,4.1,0.1,6.2c0,3.8,0,7.6,0,11.5c0,0.4-0.1,0.9,0.1,1.3c7.6,0,15.2,0,22.8,0c0.7-0.2,1.5-0.1,2.2-0.1
							c3.9,0,7.8,0,11.8,0c3.6,0,7.2-0.5,10.8-0.3c0.5,0,0.9,0,1.4,0c0.9,0.1,1.3,0.5,1.3,1.4c0,1.2,0,2.4,0,3.6
							c0,15.7,0,31.4,0,47.1c0,0.7,0.2,1.5-0.3,2.2c-0.7,0.5-1.4,0.3-2.1,0.3c-15.3,0-30.6,0-45.8,0c-0.6,0-1.3-0.2-1.8,0.3
							c-0.2,0.5-0.2,1.1-0.2,1.7c0,10.3,0,20.7,0,31.1c0.1,23-0.4,45.9-0.2,68.9c0,20.6,0,41.1,0,61.7c0,0.5,0.1,1-0.1,1.5
							c-0.6,0-1.1,0.1-1.7,0.1c-22.4,0-44.9,0-67.3,0c-2,0-1.7,0.2-1.7-1.7c0-54,0-108.1,0-162.1c0-1.9,0.3-1.7-1.8-1.7
							c-14.1,0-28.1,0-42.2,0c-0.5,0-1-0.1-1.5-0.1c0-1.2,0-2.4,0-3.5c-0.5-0.5-0.4-1.1-0.4-1.7c0-8.1,0-16.3,0-24.4
							C159,206,159,205.4,159.4,204.8z"/>
					</g>
				</g>
			</g>
		</g>
	</g>
</g>
</svg>
