<?xml version="1.0" encoding="utf-8"?>
<!-- Generator: Adobe Illustrator 17.1.0, SVG Export Plug-In . SVG Version: 6.00 Build 0)  -->
<!DOCTYPE svg PUBLIC "-//W3C//DTD SVG 1.1//EN" "http://www.w3.org/Graphics/SVG/1.1/DTD/svg11.dtd">
<svg version="1.1" id="Layer_1" xmlns="http://www.w3.org/2000/svg" xmlns:xlink="http://www.w3.org/1999/xlink" x="0px" y="0px"
	 viewBox="59.5 59.2 480.4 488.9" enable-background="new 59.5 59.2 480.4 488.9" xml:space="preserve">
<g>
	<circle fill="#FFFFFF" cx="294.9" cy="296.7" r="223.1"/>
	<g>
		<g>
			<g>
				<g>
					<g>
						<path fill="#FFFFFF" d="M533.8,266.8c0.6,3.2,0,6.2-0.6,5c2.1,6.5,0.7,6.7,3,7.4c1.4,4.2,0.2,8.8-1,4c0,0,0.6,3.1,1.2,6.1
							c0.5,3.1,0.9,6.1,0.9,6.1s0-2,0.1-3.7c0.1-2,0-3.7,0-3.7c2.2,2-0.2,11.9,2.2,14.3c0,0-0.1-3.4-0.2-6.7
							c-0.1-1.6-0.1-3.4-0.2-4.6c0-1.3-0.1-2.2-0.1-2.2l0.7,0.6c-0.9-3-1-8.9-0.9-11.2c0.3,0.3,0.8,0,1,2.4
							c-0.7-8.1-1.7-9.1-2.8-9.8c-1-0.6-2-0.9-3.4-7.4C533.5,264.3,533.7,265.4,533.8,266.8z"/>
						<path fill="#FFFFFF" d="M535.7,252.3l-3.6-5c0,0-0.1-0.6-0.2-1.4c-0.1-0.8-0.3-2.1-0.6-3.2c-0.5-2.4-0.9-4.6-0.9-4.6
							c-0.8,0.1-3.4-6.4-2.8-1.6c0.3,0.8,1,2.5,1.4,3.9c-0.9-0.2-2.1-3.2-3-5.8c-0.9-2.6-2-4.4-2.4-2.9c2.8,6.9,2.5,8.1,5.1,12.2
							c1.4,6.7,2.3,11.7,2.2,14.9c0.6,2,1.6,2.1,2.4,4.5c-0.1-0.6-0.2-1-0.3-1.6l2.5-0.7c-0.9-2.1-0.9-4-1.5-6.5
							c0,0,0.3,0.6,0.8,1.5c0.5,0.9,1,2.3,1.6,3.6c1.3,2.7,2.5,5.2,2.5,5.2c0.9-2.1,0.5-5.8-0.1-9.5c-0.7-3.7-1.7-7.5-1.6-9.8
							C536.2,251.3,535,241.3,535.7,252.3z"/>
						<path fill="#FFFFFF" d="M533.3,263.3c0,0.1,0,0.2,0,0.2S533.3,263.4,533.3,263.3z"/>
						<path fill="#FFFFFF" d="M129.5,426.5c1.3,1.7,2.2,2,2.7,2.1c0,0-0.9-1.2-2.3-3.1c-0.7-0.9-1.4-2.1-2.3-3.2
							c-0.8-1.2-1.5-2.5-2.4-3.8c-1.6-2.7-3.4-5.1-4.4-7.2c-1.2-2.1-2-3.4-2-3.4c-0.2,0.9,2.7,7.6-0.1,3.7c0.3,2.3,4.4,7.4,5.8,7.6
							l-2-0.9c4.2,4,4.2,8.7,1.4,6.1l0.2,0.3c0,0,3.4,2.5,6.7,5c1.6,1.2,3.4,2.4,4.6,3.2c1.3,0.8,2.2,1.4,2.2,1.4
							C134.5,429.9,133.6,432.3,129.5,426.5z"/>
						<path fill="#FFFFFF" d="M520.8,338.8c-0.3,3.2-0.1,3.7,0.1,3.4C520.9,341.1,520.9,339.8,520.8,338.8z"/>
						<path fill="#FFFFFF" d="M141,436.7c0,0,1,0.7,2.2,1.3c1.1,0.6,2.2,1.3,2.2,1.3C143.9,438.2,142.1,437.3,141,436.7z"/>
						<path fill="#FFFFFF" d="M100.3,421.4c-0.1,0-0.2,0-0.2,0.2l2,1.6l0,0C101.4,422.6,100.8,422,100.3,421.4z"/>
						<path fill="#FFFFFF" d="M232,495.1c0.5,0.1,0.9,0.2,1.4,0.5C233.1,495.4,232.6,495.2,232,495.1z"/>
						<path fill="#FFFFFF" d="M64.6,354.8c0,0,1,3,2.2,6c1,3,2.3,5.9,2.3,5.9c-1.2-1.4,0.7,4.3-0.8,2.1c0.3,0.8,2,5.1,2,3.8
							l-0.7-2.4c3.9,5.8,3.5,1.6,8.4,11.4c-0.5-3.4-1.2-5.7-2.1-7.4c-0.8-1.7-1.7-3.2-2.8-4.7c-0.5-1-0.8-2.1-1.2-3
							c0,0-0.3-0.6-0.8-1.4c-0.6-0.8-1.2-2.1-2-3.2c-1.3-2.4-2.7-4.6-2.7-4.6L64.6,354.8z"/>
						<path fill="#FFFFFF" d="M452.7,480.1v0.2C452.8,480.1,452.8,480.1,452.7,480.1z"/>
						<path fill="#FFFFFF" d="M452.8,481.1v-0.8C452.3,480.9,450.7,482.7,452.8,481.1z"/>
						<path fill="#FFFFFF" d="M138.8,436.1c0.3-0.1,1.2,0,2.2,0.5l-3.2-2.2C138.1,435.1,138.5,435.6,138.8,436.1z"/>
						<path fill="#FFFFFF" d="M129.9,432.4l-5.8-7.4l-2.8-2.3C123.6,425.5,126.5,428.7,129.9,432.4z"/>
						<path fill="#FFFFFF" d="M219.7,488.5c16.9,7.2-5.1,0.5,2.3,4.5c4.7,2,7.1,1.2,10.2,2.2c-6.9-2.2-6.1-2.9-5.2-3.7
							c0.8-0.8,1.6-1.5-5-4.2c1.4-0.6,3.9,0,6.8,0.8c2.9,0.8,5.9,2.2,8,3.4c2.3,2,0.9,2-1,1.5s-4.9-1-5.9-0.3
							c5.7,1.7,4.6,1.2,7.4,0.8c4.2,1.6,8.8,2.7,13.2,3.4c2.1,0.3,4,0.9,5.8,1.4c1.6,0.5,3.2,1.2,4.4,2.3c6.5,1,6.4-0.2,10.3-0.6
							c0.6-1-1.7-1.7-4.4-2.5c-2.7-0.8-5.8-1.7-6.7-2.9c0.5,0.3,1.3,0.8,0.9,1c0,0-1.3-0.5-2.7-0.8c-1.3-0.3-2.7-0.9-2.7-0.9
							c4.9,2.2-1.3,2.1-4,1.3c-2.1-0.5-6-1.5-5.2-2.1c0,0,0.8,0.1,1.5,0.2c0.8,0.1,1.5,0.2,1.5,0.2c-1.7-0.8-4-1.2-6.4-1.5
							c-2.3-0.3-4.5-0.8-6.4-2.2c0-0.6,1.5-0.2,2-0.5c-4.9-0.2-9.4-2-16.2-3.9l4.6-0.3c-6.2,0.1-17.7-6.4-24.5-12.1
							c0.6,0.8,2.1,2,0.9,1.7c-4.7-2.3-7.2-5.8-4.5-5.3c-1.3-0.3-3-1-4.6-2.4c-1.7-1.3-3.7-2.9-5.7-4.4c-2.1-1.5-3.8-3.4-5.8-4.7
							c-2-1.4-3.7-2.7-5.3-3.4c0,0-2.1-0.7-4.9-2c-3-1.2-6.8-3-10.9-4.7c-3.8-2-7.7-3.9-10.7-5.4c-2.9-1.6-4.7-2.8-4.7-2.8
							c1,0.7,2.1,1.6,3.1,2.7c0.6,3.6,1.7,4.7-3.1,2c4.2,3.4,4.2,0.7,9.6,6.4c-2.8-1.5-5.1-0.6,0.1,5.1c3.8,3,7.4,5.4,11.3,7.5
							c3.6,2.2,7.3,3.8,11.1,5.3c7.3,3.1,14.7,5.4,22.6,8.8c-0.1,0.8,2.8,2.8,6.5,5c3.7,2.2,8.1,4.4,11.1,6c-3,0.3-7.5-1.4-12.2-3.6
							c2.8,1.6,7.6,4.2,11.4,6.1L219.7,488.5z"/>
						<path fill="#FFFFFF" d="M179.8,470.8c0.2,0.3,0.6,0.7,0.9,1C180.7,471.5,180.5,471.2,179.8,470.8z"/>
						<path fill="#FFFFFF" d="M204.1,483.9c-0.1,0-0.1,0.1-0.1,0.1c0.5,0.2,0.9,0.5,1.4,0.7C204.9,484.4,204.3,484.1,204.1,483.9z"
							/>
						<path fill="#FFFFFF" d="M139,442c-1-0.6-1.7-1.2-2.8-1.7c0.6,0.5,1.2,1,2,1.6C138.8,442.3,139.2,442.4,139,442z"/>
						<path fill="#FFFFFF" d="M138.6,437.1l0.8,0.1c-0.2-0.3-0.5-0.7-0.7-1C138.5,436.2,138.3,436.6,138.6,437.1z"/>
						<path fill="#FFFFFF" d="M285.6,520.3l2-0.2C286.3,520,285.8,520.2,285.6,520.3z"/>
						<path fill="#FFFFFF" d="M237.7,498.6c-6.1-2-1.5,2.1-10.2-1.3l2.5,1c-6.6-1.3-17.1-6.7-23.9-10.4c1.2-0.3-3.6-3.2-2.2-4
							c-2.4-1.2-4.7-2.4-6.9-3.4c-2.2-0.9-4-1.6-5.7-2c-2.7-2.2-7.4-4-10.6-6.9c0.9,1.6-6.7-1.2,2.4,3.9c-0.7-0.3-0.5,0.1-1.2-0.3
							c4.7,4.9,8.2,4.5,13.2,7.6c2.5,2.7-5.4-2-2.9,0.1c3.2,1.6,8,4.5,12.2,6.9c4.2,2.2,7.6,3.5,8.1,2.1c4.7,2.1,5.1,2.9,6.4,4
							c2.3,0.1,5,0.9,8.1,2.1c3.1,1,6.4,2.7,9.5,3.7c6.1,2.5,11.5,3.9,12.1,2c-1.4-0.3-3.4-0.8-5.3-1.3c-2.1-0.6-4.3-1-6.6-1.4
							L237.7,498.6z"/>
						<path fill="#FFFFFF" d="M146.9,450.2c0.2,0.3,0.7,0.7,0.8,0.9C147.4,450.9,147.1,450.5,146.9,450.2z"/>
						<path fill="#FFFFFF" d="M113.9,374.1l3.6,1.4c1.4,3.4,2.8,6.2,3.9,8.7c1.1,2.6,2.1,4.7,3.2,6.9c1,2.2,2.1,4.3,3.2,6.6
							c1.2,2.3,2.7,4.6,4.2,7.4c0.1,1-0.8-0.2-1.3-0.8c4.9,7.7,12.2,19.4,17.7,23.7c1.6,2.4,6.2,8.6,3.6,6.9c1,0.9,2.4,2.1,3.4,3.4
							c-0.5,0.9-2.7-2.7-3.4-2.2c0.8,1,0.9,1.5,1.4,1.5c-2.1-1-0.9,4-7.7-3.8c-0.7-4.5,4.9,5.2,5.3,1.7c-2.2-2.7-2.8-1.6-3.1-1.6
							c-2.8-3.4-2.2-3.7-1.5-3.9c-1.5-0.8-4.2-5.8-6.5-6.9c-5-6.8,1.7-0.7-1.3-5.2c0,0-0.9-0.2-2.1-0.6c-0.9-0.2-2.1-0.6-2.1-0.6
							l-4.4-8.1c-3.7-5.4-4.4-4.5-5.3-3.8c-0.8,0.7-2.2,1.5-6.5-5c1,0.6,1.4-0.7,1-3.1c-0.2-2.3-1.2-5.7-2.4-8.9
							c0.9,2,2.5,4.5,4.4,7.2c1.7,2.7,3.5,5.7,4.5,8.1c-2.1-7.6,5.4,9,5.4,4.4c-2.8-2.8-6.2-8.1-7.7-12.8l0.9,1.3
							c-2.2-4.6-6.4-7.2-8.3-14.3c-1.4-3.4-0.5-3,0.3-2.7C114.9,376.6,113.5,374.3,113.9,374.1z M117.3,381.2c0,0,0.3,1,0.8,2.3
							c0.5,1,0.8,2.3,0.8,2.3C118.9,384.5,118.2,382.9,117.3,381.2z"/>
						<path fill="#FFFFFF" d="M506.8,180.7c0.2,0.5,0.5,1,0.6,1.5C507.4,181.8,507.1,181.3,506.8,180.7z"/>
						<path fill="#FFFFFF" d="M98.9,188.4l1.6-2.8C99.9,186.6,99.4,187.5,98.9,188.4z"/>
						<path fill="#FFFFFF" d="M137.1,125.1l3.1-3.8C138.8,122.5,137.9,123.8,137.1,125.1z"/>
						<path fill="#FFFFFF" d="M484.5,149.6l-0.1-0.1c-0.2-0.1-0.3-0.2-0.6-0.5L484.5,149.6z"/>
						<path fill="#FFFFFF" d="M271.2,66.3c0.7,0.1,1.5,0.2,2.8,0.2C273.7,66.3,272.7,66.3,271.2,66.3z"/>
						<path fill="#FFFFFF" d="M136.5,125.8c0.1-0.1,0.1-0.1,0.2-0.1c0.1-0.1,0.2-0.3,0.3-0.5L136.5,125.8z"/>
						<path fill="#FFFFFF" d="M78.3,214.4c-0.2,0.7-0.3,1.3-0.5,2.1C78.1,215.6,78.3,215,78.3,214.4z"/>
						<path fill="#FFFFFF" d="M87,212.8c-0.2,0.7-0.3,1.4-0.5,2L87,212.8z"/>
						<path fill="#FFFFFF" d="M65.2,322.6l0.7,4.4C65.7,324.8,65.4,323.6,65.2,322.6z"/>
						<path fill="#FFFFFF" d="M81.3,223.1c0,0.2,0.1,0.6,0.1,0.7C81.5,223.3,81.4,222.9,81.3,223.1z"/>
						<path fill="#FFFFFF" d="M512.5,208.2c0-0.1-0.1-0.2-0.1-0.2H512L512.5,208.2z"/>
						<path fill="#FFFFFF" d="M520,216c0.5,1,1,2.3,1.5,3.4C521.2,218.2,520.5,217,520,216z"/>
						<path fill="#FFFFFF" d="M334.3,69.8c1,0.5,3.7,1.3,2.4,1.5C338.8,71,338.8,69.8,334.3,69.8z"/>
						<path fill="#FFFFFF" d="M488.9,198.1c0.6,0.3,1.2,0.9,1.7,1.4C489.6,198.5,488.8,197.5,488.9,198.1z"/>
						<path fill="#FFFFFF" d="M490.8,199.6c0.5,0.5,1,1,1.5,1.5C491.8,200.5,491.4,200.1,490.8,199.6z"/>
						<path fill="#FFFFFF" d="M305.4,89.8c-0.2-0.1-0.6-0.3-1.2-0.3C304.3,89.8,304.8,89.9,305.4,89.8z"/>
						<path fill="#FFFFFF" d="M522.3,222.5c0.8,0.3,7.3,15.5,3.2,2.3c2-0.1,3.8,8,5.1,11.5c-0.2-2.8,1.5,0.9,2.1,0
							c-0.7-1.6-1.7-3.7-2.7-6.6c0.3-1.5,2.5,2.7,3.1,6.2c-0.2-4.5,3,5,2.1-1.3c-4.5-12.8-8.7-21.7-15.4-29c0.9,1.6,1.7,3.5,2.8,5.1
							c0.8,1.7,1.6,3.6,2.4,5.3c0.7,1.7,1.4,3.6,2.1,5.2c0.5,1.6,0.9,3.4,1.3,4.9l-2.4-2c-0.3-3.6-1.4-6.2-2.5-8.8
							c-1-2.7-2.4-5.1-3.7-8.2c0,0,0.3,0.9,0.8,2.3c0.6,1.3,1.2,3.2,1.7,5c1.2,3.7,2.4,7.4,2.4,7.4c0.9,7.4-0.7,2.8-3.1-2.4
							C522.1,220.8,522.4,222,522.3,222.5z"/>
						<path fill="#FFFFFF" d="M505,218.6v0.2c0.1,0.1,0.2,0.3,0.3,0.5L505,218.6z"/>
						<path fill="#FFFFFF" d="M99.2,319.1l0.7,1C99.5,319.2,99.3,319,99.2,319.1z"/>
						<path fill="#FFFFFF" d="M508.8,207.4L508.8,207.4C508.8,207.2,508.8,207.2,508.8,207.4z"/>
						<path fill="#FFFFFF" d="M98.9,289.6l0.1,0.1C99,289.6,99,289.6,98.9,289.6z"/>
						<path fill="#FFFFFF" d="M63.4,278.2c-0.1,0-0.1,0.1-0.2,0.2C63.1,279.1,63.2,278.8,63.4,278.2z"/>
						<path fill="#FFFFFF" d="M98.8,289.6h0.1C98.9,289.6,98.8,289.5,98.8,289.6z"/>
						<path fill="#FFFFFF" d="M150,156.2c0,0-0.5,0.1-1.2,0.5C148.7,157,149.1,156.9,150,156.2z"/>
						<path fill="#FFFFFF" d="M129.7,177.3c-0.1,0.1-0.2,0.2-0.5,0.3L129.7,177.3z"/>
						<path fill="#FFFFFF" d="M327.3,61.3c-1.6-0.1-2.9-0.2-3.9-0.2C324.7,61.3,326,61.5,327.3,61.3z"/>
						<path fill="#FFFFFF" d="M99,289.7c0.1,0.3,0.2,0.7,0.5,1.4C99.4,290.4,99.2,290,99,289.7z"/>
						<path fill="#FFFFFF" d="M178.8,120.2c-0.2,0.2-0.5,0.5-0.6,0.7l0.5-0.2L178.8,120.2z"/>
						<path fill="#FFFFFF" d="M192.7,112.6c-0.3,0.5-0.5,0.7-0.6,0.9c2.3-1.6,5.8-3.7,8.6-5.4c3-1.6,5.3-3.2,5.7-4.3
							c-0.8,0.5-3.6,1.5-6,2.4c-2.4,0.8-4.4,1.4-3.9,0.6c-3.2,2.3-8.9,4.2-10.6,5.8c6-2.7,1.4,0.9-2,3.7c-3.6,1.6-0.1-1.5-3.2,0
							l-7.4,5.4l6.7-4.4l-0.9,2.9c0.2-0.2,0.3-0.3,0.6-0.6c5.3-4.2,6-3.7,6.6-3.4C186.6,116.5,187.1,116.7,192.7,112.6z"/>
						<path fill="#FFFFFF" d="M192,113.8c-0.7,0.5-1.2,1-1.5,1.4C191.6,114.5,191.8,114.1,192,113.8z"/>
						<path fill="#FFFFFF" d="M242.8,94.2c0.6-0.2,1.3-0.5,2.2-0.9C244.7,93.5,243.7,93.9,242.8,94.2z"/>
						<path fill="#FFFFFF" d="M118,416.8c0.2-0.5-2.7-7.6-3.7-6.9c1,2.1,2.1,4.2,3.1,6.2L118,416.8z"/>
						<path fill="#FFFFFF" d="M390.3,93.8c-0.8-0.3-1.6-0.7-2.5-0.9c-0.2,0-0.3,0-0.6,0C387.7,93.1,389.5,93.6,390.3,93.8z"/>
						<path fill="#FFFFFF" d="M198.1,105.1c-1.2,0.9-1.6,1.4-1.7,1.7C197,106.4,197.7,105.7,198.1,105.1z"/>
						<path fill="#FFFFFF" d="M389.6,96.8c0.9,0.7,2.2,2,2.2,2.5c2.1,0.9,3.8,0.9,6,1.6C395.3,100.2,392.6,98.6,389.6,96.8z"/>
						<path fill="#FFFFFF" d="M397.9,101.1h-0.2C397.9,101,397.9,101,397.9,101.1z"/>
						<path fill="#FFFFFF" d="M120,421.1c0.5,0.5,0.9,1,1.3,1.5l-0.8-0.7c0.8,1.5,1.6,3.2,2.7,4.6c0.5,0.5,0.9,0.9,1.4,1.6
							c-0.2-0.2-0.5-0.3-0.7-0.5c0.2,0.5,0.6,0.9,0.8,1.4c3.5,2.8,10.9,10.6,13.5,12.4c3.1,2.7,6.5,6.2,8.6,8.4
							c-2.1-2.1-4.5-4.7-4.4-3.4c1.5,2.5,2.5,4.5,4,6.8c1.5,2.3,3.7,4.6,8.1,7.4c0,0-1-0.9-2.2-2.1c-1-0.9-2.2-2.1-2.2-2.1
							s0.7,0.5,1.7,1c1,0.7,2.5,1.5,3.9,2.4c1.4,0.8,2.9,1.6,3.9,2.4c1,0.6,2,0.9,2,0.9c1.3,2-0.1,1.2-2.3-0.2
							c-2.1-1.4-4.5-3.5-5.7-3.7c8.2,6.1,12.6,14.4,18,15.4c-0.3,1.5-1,4.4,4.6,8.2c-3-4.3,3.9,1.4,1.7-2.4c2.4,0.7,5.9,4.7,6.9,4
							l-0.8,0.2c4.2,4.2,7.6,6,10.9,6.7c3,0.8,5.4,0.8,8,1.4c3.1,1.4,5.8,2.8,8.1,3.9c2.4,1.1,4.6,2.2,6.7,3.2
							c2.2,1,4.2,2.1,6.4,2.9c2.2,0.8,4.5,2,7.2,2.8c0.1,1,2.1,4.6,6.5,6.1c2.4-0.6,12.5,1.5,14,0.1c-7.5-2.9-6.7-0.3-11.5-1.3
							c-3.2-3,0.2-2-4.6-4.6c3.8,2.4,19.3,4.7,23.6,7.4l-1.6-0.1c3.6,1.4,5.7,3.1,8.3,4.5c1.4,0.7,3,1.3,5,1.7
							c2.1,0.3,4.6,0.5,7.9,0.2c0,0,1.5-0.1,3.1-0.1c1.5-0.1,3.1-0.2,3.1-0.2c-0.3,0.1-0.3,0.3-0.5,0.5c10.2,0.9,7.3,2.9,18.6,1.5
							c-0.8,0.1-0.3,0.3-1.2,0.3c3.2,0.6,6.5,0.2,9.5-0.2c3-0.5,5.8-1.2,8.1-1.5c3,1.2-0.6,1.4-2.4,2.7c11.4,0,23.2-4.3,29.8-7.4
							c0,0,0.5,0,1-0.1c0.7,0,1.5-0.1,2.5-0.2c1.7-0.2,3.6-0.3,3.6-0.3c-3.9,1.6-8.8,4-7.4,4.6c3.9-0.9,3-1.5,8.6-2.5
							c-0.7,1-2.9,2.5-5.2,4.3c12-1,1.7-3.8,10.6-2.9c3.6-0.9,5.2-2.9,5.3-4c0,0,1.6-0.1,3.5-0.2c1.6-0.1,3.5-0.2,3.5-0.2
							c0.2-1.6,8.1-4.2,13.2-6.5c0.3-0.8-4.5,0.2-6.4,1.3c0-1,5.1-3.7,8.4-5c1.2,1.2,6.7-1.3,11.5-3.6c4.7-2.4,8.8-4.5,7.6-2
							c3.6-2.1,7.4-4.6,11.4-7.1c3.8-2.7,7.9-5.2,11.5-8.1c3.7-2.8,7.2-5.4,10.3-8.2c1.4-1.3,2.9-2.5,4.2-3.7
							c1.2-1.2,2.3-2.4,3.2-3.4c1.5-0.8,3.8-2.5,5.2-3.4c1.4-0.9,2.3-1.2,1,0.8c2.4-2.3,4.4-4.4,6.2-6.6s3.2-4.2,4.6-6.2
							c1.5-2.1,3-4,4.5-6.2c1.5-2.2,3.6-4.3,5.8-6.8c0.5-0.3-0.3,0.8-1.3,2.2c-0.9,1.2-2,2.7-1.4,2.8c4.5-7.3,11.1-11.4,17.8-23.1
							c-1.2,2-0.9,2.9-0.9,3.2c-0.6-0.1,2.2-5.1,3.6-8.3c1.2-1.5-1,2.4-0.1,1.6c7.4-10.7,12-21.4,15.6-32.2
							c3.6-10.9,6.1-21.9,9-34.3c-1.5,7.1-0.6,10.3,0.2,10.6c0,0,0.5-1.6,0.9-3.5c0.5-1.6,0.8-3.5,0.8-3.5c-0.3-3,0.9-8.1,0.9-12.8
							c0.5-0.5,1.2-2.7,1.3-0.2c2.4-6.8,2.1-12.6,1.6-18.6c-0.2-3-0.6-6.1-0.7-9.5c-0.2-3.4-0.3-7.2,0-11.5c0,0,0.8,5.2,1.7,10.6
							c0.6,5.3,1.2,10.7,1.2,10.7l1.7-5.1c0,0,0.2,2.4,0.6,4.7c0.3,2.4,0.3,4.7,0.3,4.7c1.7-5.4-0.6-10.7,1-11.3
							c0.3,1.2,0,4,0.8,4.3c0.9-5.3,0-5.9-0.2-10.2c0.7,2.8,0.9,6.1,1.2,9.8c0.2,3.7,0,7.7-0.2,11.9c-0.6,8.1-2.1,16.3-3,22.1
							c-0.1,1.7-0.3-1.6-0.6-2.1c-0.5,2.3-1,4-1.6,6c-0.7,2-1.4,3.9-2,6.9c0.2,3.9,1.6-2.4,2.7-5.2c0.9,0.7,0.5,2.1-0.2,5.2
							c-1.4,0.2-5.9,17.1-9.4,20.1c-2.9,8.1-2.1,7.7-0.8,7.5c1-0.3,2.1-0.8-1.7,6.9c0,0-0.9,0.9-1.7,2c-0.9,0.9-2,2-2,2
							c-3.1,9.5-8.7,21.4-15.6,30.4l1.3-2.1c0.2-1.6-1.5,0.1-2.5,0.8c-2.8,3.2-4.7,6.7-6.9,9.7c-2.1,3-3.9,5.7-6.4,6.9
							c-4.6,8.7-15.2,21.4-23.2,29.2c-2,0.1,0.6-2.7,3.8-5.9c3-3.5,6.9-7.4,8-9.6c0,0-0.5,0.5-1,1c-0.7,0.6-1.5,1.5-2.5,2.4
							c-1.7,1.7-3.6,3.5-3.6,3.5c4.5-4.3,5.8-6.6,7.3-10.3c-3.1,3.1-5,5.2-6.7,7.6c-1.6,2.4-3.4,4.7-6.4,7.6
							c0.1-0.9-0.9-0.5-3.9,2.1l0.1,2c-0.1,0-0.5,0.1-1.5,0.8c0,0-2.8,2.5-5.7,5c-1.4,1.3-2.9,2.4-3.9,3.4c-1,0.8-1.7,1.4-1.7,1.4
							c3-1.3,3.9-0.2,6.9-2.7c-1.6,0.1,0.8-2.1,3.9-4.4c-2.1,2.9,3.5-1.6,3.9-1c-3.1,2.4-6.5,5.1-9.6,7.6c-3.2,2.4-6.1,4.6-8.1,6.4
							l-2.2-0.2c-3.2,1.7-6.4,4-9.4,6c-3,1.7-5.8,3.6-8,4.6l0.9-1.4c-3.9,2.1-7.9,4-11.8,6c-3.9,1.7-7.7,3.5-11.7,4.3
							c-6.7,4.5-15.8,9-21.7,12.6c-1.4,1.3-7.3,2.7-14,3.5c-6.6,1.2-13.9,2-18.1,3.9c-0.6,0,6-2.4,8.8-3.6c-6,0.8-10.5,3.8-12.5,2.2
							c6.7-0.5,6.5-1,5.2-1.3c-1.2-0.3-3.2-0.6-0.3-1.4c-3.1,0.6-6.2,0.9-9,1.5c-2.8,0.6-5.1,1-6.7,1.4c10.3-0.9-3.4,3.1,6.8,1
							c-3.8,1.4-8.6,2.2-13.6,2.9c-4.9,0.6-10.3,0.6-15,0.5c0.1-0.8-1-1.2-4.6-1.6l-2.9,1c-4.4-0.3,8.7-1.2-0.2-1.7
							c-2.4,0.5-5.2,0.5-8.3,0.2c-3.1-0.2-6.5-0.5-9.6-0.9c-3.1-0.5-6.1-0.8-8.6-0.8c-2.5-0.1-4.4,0-5.7,0.7c-3.4-1.3,0-1,3-1
							c3,0.1,5.4,0,0.3-1.7c6.2-0.3,14.7,2.2,16.9,0.3c-6.1,0.1-2.1-1.7-5.9-2.2l-6.8,0.2l1.4,0.2c-2.9,0.1-6.1-0.2-9.6-0.6
							c-1.6-0.2-3.5-0.5-5.3-0.7c-1.7-0.3-3.7-0.8-5.4-1.2c-2-0.5-3.8-0.8-5.7-1.3c-2-0.5-3.7-1-5.7-1.5c-2-0.5-3.7-1-5.4-1.5
							c-1.7-0.6-3.6-1.2-5.2-1.6c-12.1-2.2-21.3-2.9-34.5-9.8c2.2,0.5-0.3-1-2.4-2.7c-2.1-1.4-3.4-2.8,1.2-1.4
							c-5.4-4-11.9-6.5-12.5-6c5,3.4,1.6,1.3,5.9,4.2c-1.6-0.5-4.3-1.5-6.8-3.1c-2.4-1.4-4.6-3.1-5.9-4.3c1.2,0.8,0.8,0.3,1.3,0.3
							c-5.8-4.4-3.5-1-8-3.7c-0.2-1-2.7-2.8-5.2-4.6c-2.7-2.1-5.4-4.2-7.2-6c0,0-1.6-0.6-3.4-1.4c-1.6-0.7-3.2-1.5-3.2-1.5
							c3.7,1.4-4.7-4.6-4.6-6.4c-4.2-2.8-8.4-4.4-13.5-10.3c2.7,1.7-4-5.7-3.1-6.7c-2-2.7-3.8-4.7-5.9-6.8c-2-2.1-3.9-3.8-5.9-5.8
							c-2.1-1.7-3.8-3.7-5.4-5.9s-3.5-4.4-4.6-7.3c0.5,0.1,2.5,1.7,0.8-1.4c-1.7-2.2-4.4-6.4-6-8.9l0.1,0.1l-0.1-0.1
							c-0.8-1.2-1.4-2-1.6-1.7c-1.7-2-3.5-3.4-5.2-5.2c-1.7-2.1-3.8-4.6-6.6-8.9c-0.9,1.3,3.5,8.9,5.8,12l2.9,2.2
							c-0.2,2,1,3.9,2.4,5.8c1.4,1.7,3,3.4,3.4,4.5c-1.4-0.9-3.1-2.7-4.7-4.7s-3.5-4.7-5.2-7.6c-3.5-5.8-6.9-12-9.8-16.6
							c0.6,6.9,7.1,20.2,14.1,30.8c0,0-0.6-1.3-1-2.7c-0.6-1.3-1-2.7-1-2.7s0.8,1.4,1.6,2.9c0.9,1.4,1.7,2.8,1.7,2.8s-0.5-1.5-1-3.1
							c-0.6-1.5-0.9-3.1-0.9-3.1c1.4,2.8,3.1,5.1,4.6,7.5c1.5,2.4,3.1,4.6,4.7,6.9c-3.9-5.3-3.4-8.7-1.6-5.3
							c2.9,6.8,5.1,5.7,8.2,10.4c-1.6-2.7-3.9-5.9-1.7-4.3c2.4,5,4.5,7.7,6.5,10.6c2,2.8,3.8,5.2,6.5,9.7c0.6-1.3,2.5,1,5,3.6
							c2.4,2.5,5,5.2,6.2,5l-3-3.5c0,0,2,1.4,3.9,3c2,1.4,3.9,2.9,3.9,2.9c5.1,7.6-7.3-4,1.6,6.6c9.4,8.7,11,6.5,18.8,12.4
							c-1.7-0.3-4.3-1.5-7.3-3.4c-3-1.8-6.1-4.2-9.1-6.8l3.2,3.7c-2.7-0.9-10.9-8.7-14.7-12.8c3.8,2.7,3.2,1.7,1.3-0.2
							c-1.7-2.1-4.9-5.2-5.9-7.3c-1.5,0.3,2.7,4.5-3,0.2c2.3,2.4,3.6,3.8,5,5.2c1.4,1.5,2.9,3.4,5.9,6.5c-3.2-3.2-5.4-5.4-7.6-7.2
							c-2.2-1.6-3.9-2.7-5.7-3.7c-1.6-1-3.4-2.1-5.1-3.6c-1.7-1.5-3.8-3.7-6.1-7.1c5.1,5.3,0-3.4,0-4.4c-2.4-2.5-6.6-8.1-8.6-10.4
							l-0.2,3.4c-3.1-3.6-4-6.8-5.2-10c-0.6-1.5-1.3-3.2-2.2-4.9c-0.9-1.7-2.2-3.6-3.9-5.7c-1.7-0.6,4.4,8.4,3.2,6.8
							c-4.3-6.1-6.5-10.7-7.7-15.5c-0.7-2.4-1.3-4.6-2.1-7.2c-0.6-2.5-1.3-5.2-2.3-8.3c-0.8-0.5-2.2,0.3-4.7-3.6
							c1.6,0.8,0.9-2.5,3.8,2c-1.2-4.2-3.8-8.6-5.8-12.1c1.3,4.3,0.6,3.7-0.7,1.6c-1.2-2.1-2.8-5.2-3.5-6c-1.3-4.5,1.6,0.9,2.9,3.6
							c-0.9-3.7-0.6-8.4-3.1-10c0.6-0.2,2.3,2.1,4,5c0.9,1.5,2,3.4,2.8,5c0.9,1.6,2,3.5,2.7,5l-1.4-4.4c1.7,2.8,1.7,3.4,3.4,7.7
							c-0.7-4.5,0.5-4.5,1.7-3.9c0,0.6-0.3-0.2-0.3,0.3c0.9,3.6,2.4,6,2.8,4.9c2.9,2.3-0.9-5.1-0.9-7.7c-0.7-1.6-1.6-3.4-2.3-5
							c0,0-2.9-4-5.8-8.1c-2.8-4-5.3-8.3-5.3-8.3c-1.5-3.8-2-6.8-2.2-9.6c-0.2-2.8-0.3-5.2-0.3-8.3l-1.7-1.4
							c-1.2-7.1-1.4-14,0.9-9.6c-0.5,0.3-0.2,1.2-0.1,2.8c0.2,0.1,0.5,0.5,0.6,0.9c0.1,0.1,0.2,0.2,0.3,0.2
							c-1.6-7.4-2.4-12.2-2.7-12.6c3.8,12.6,2.8,0.2,5.8,2.2c0,0-0.1-0.8-0.3-2c-0.2-1.2-0.6-2.8-0.7-4.3c-0.5-3.2-0.9-6.4-0.9-6.4
							c-0.2,7.7-1.3,0.2-2-2.5c1.4-0.8-0.3-10.5-0.1-15l0.2,0.3c0.6-4.2,0.6-11.5,0.7-16.9c-0.5,0.2-2.7-6.7-3.5-10.3
							c-1.6,8.9-1.5,3.6-2.7,4.2c0.1-0.9,0.3-2.7,0.2-2.9c-0.2-1.3-0.8,1.6-1.3,2c0,4.9-0.2,10,0,14.2c0.2,4.3,0.8,7.7,1.7,9.8
							c1-3-0.8-5.1-0.1-8.3c0.6,2.4,0.8,5.1,0.9,8.3c0.1,3.1,0.1,6.7,0.2,10.9l-1.2,2.7l1.3,8c-0.8-3.4-2.2-1.2-2.9-9.7
							c-1.3,1.2,0.8,8.4,0.8,13.9c0,0,0.5,0.6,0.9,1.2c0.5,0.6,0.9,1.2,0.9,1.2c-1-0.9,0.1,10.4-2.2,2.5c0,0-0.2-0.8-0.5-2.1
							c-0.3-1.2-0.6-2.8-0.9-4.4c-0.6-3.2-1.2-6.5-1.2-6.5l-0.8,3.7c0,0-0.2-2.8-0.6-5.4c-0.1-1.4-0.2-2.8-0.2-3.8
							c-0.1-1-0.1-1.7-0.1-1.7l0.9,2.7c-1.5-17.9,3-5.2,1.3-23.2c-1.6-5.7-1.6-11.9,0.3-22.8c-0.6,8,1.3,0.9,2.2,4
							c1.7-7.9,0.7-10.9,0.7-15.1c1.4-1.7,2.5-3.1,1,3.9c2.1,1.3,1.2-9.5,3.8-9.6c2.5-11.7,2.3-16.5,2.3-22.2
							c0.2-5.4,0.8-11.7,7.6-24l0.5,1.3c6.1-17,12.2-25.5,20.6-39.9c0,0,0.6-0.6,1.4-1.5c0.8-0.8,2.1-2.1,3.2-3.2
							c2.4-2.3,4.6-4.5,4.6-4.5c-1.4,2.7-4.4,10-1.4,7.6c-2.9,1.7-4.9,4.3-6.8,6.9c-2.1,2.7-3.9,5.3-6.1,8c0.2,0.9,2-1.2,2.9-2.1
							c-2.1,3.5-4,4.6-6.2,9.6c0.5,0,3.9-4.7,2.1-0.8c0,0-1.2,1.4-2.4,2.9c-1.1,1.4-2.3,2.9-2.3,2.9c-2,4.5-1.6,6-1.5,7.5
							s-0.1,3.2-2.8,8.2c-0.3-2.4-0.3-7.2,1.3-11.4c-1.2,2.4-0.7,0.6-0.1-1c0.6-1.6,1.2-3.6-0.2-1.5c-0.8,3.8-1.7,6.5-3.1,9.4
							c-1.3,2.9-2.7,6-3.9,11c0.2-1.2-0.1-1.6,0.7-3.9c0,0-1.5,3.4-3.1,6.7c-1.4,3.4-2.8,6.8-2.8,6.8c1-1.5,0.5,1.4-0.2,4.6
							c-0.6,3.2-1,6.8-0.1,6.5c1.2-3.7,2.1-6.2,2.8-8.1c0.6-2,1-3.4,1.5-4.6c0.8-2.9,2.2-6,5.8-14.1c-1.4,4.7-2.3,11.4-1.6,14.8
							c-0.1,0.1-0.2,0.3-0.5,0.8c0.7,3.1,2.1,0.6,4.7,1.6c0.2-4,1.4-7.1,2.7-10.4s2.8-6.5,4.2-11c-0.7-2.3-4.2,3.9-5.4,8.4
							c0,0,0.1-0.5,0.3-1.2c0.2-0.7,0.5-1.7,0.7-2.8c0.6-2.1,1.2-3.9,1.2-3.9v1.7c0,0,0.6-1.2,1.4-2.9c0.8-1.7,2-4,3.2-6.4
							c1.2-2.3,2.5-4.5,3.5-6.2c0.9-1.6,1.6-2.8,1.6-2.8c-2,3.5-1.5,5.1-2,7.3c1.3-2.3,2.8-4.5,4.6-6.7c-1.6-0.2-2.4-1-1-3.4
							c6.9-11.4,12.6-16.5,16.9-19.5c0.2-0.5,0.6-0.9,0.8-1.3c-2.7,0.8,3.4-9.1,4.7-13.5c1,1.2,5.2-4.5,8.3-6.9c0-2.8-3.7-2.5-8,0.1
							c-4.6,8-2.1,5-2.9,10c0,0-2,3.1-3.8,6.2c-1.7,3.2-3.6,6.4-3.6,6.4l0.7-3.5c-4.9,5.4-6.9,12.5-8.2,11.1c0.5-2,1.6-4.2,3.1-6.4
							c1.3-2.2,2.8-4.3,3.4-6.2l-3.4,3.7c3.5-8,3.8-2.7,9.1-11.5c-3.6,2.1,0.5-0.8,2.4-5c-1.5,0.9-4.3,4.6-6.7,7.5
							c-2.4,2.9-4.2,5.1-4.4,3c1-2.7,4.5-5.8,8-9c3.5-3.4,7.2-6.8,8.4-10.5v0.5c7.4-7.5,8.9-11.3,11.3-14.8c3.8-2.5,7.7-7.6,11.5-11
							l0.5,0.7c0,0,1.2-1.2,2.5-2.4c1.2-1.1,2.7-2.3,2.7-2.3c-1.6,3.1-6.4,5.1-10.9,9.1l1.5,0.6c-3.2,1.5-5.1,3.8-6.6,6
							c-1.4,2.3-2.7,4.6-3.9,7.1c2.2-3.2,6.2-6.8,9.6-10.3c3.5-3.1,6.2-6,6-7.7c0,0,1-0.5,2.3-0.9c1.2-0.5,2.4-0.8,2.4-0.8l1.4-1.7
							c3.5-1.3,1.6,2.3-3.4,6.9c-1.2,0.5-1.6,0.7-1.6,0.2c-2,2.7-3.5,5.2-9.1,10.4l2.4-3.4c-7.1,6.4-12.6,13.3-13.7,16.5
							c9.7-9.7,19.6-18.6,29.8-26.5c0.8-5,3.4-9.4,3.1-13.2c6.8-5.8,17.1-12.5,24.4-15.2l-0.3,0.9c3.4-1.5,6.5-3.2,8.8-4.9
							c3.9-1-1.6,2.8,0.9,2c0,0,0.7-0.3,1.6-1c0.9-0.6,2.4-1.4,3.7-2.2c2.8-1.5,5.4-3.1,5.4-3.1c-0.1,0.8-2.5,2.3-5.4,3.8
							s-6.4,3.5-8.6,4.5c0.8-0.6,2.4-1.6,1.7-1.5c-5.7,2.1-13.9,9.7-17.1,9.1c-2.3,2,4-4.4-4.2,0.7c-6,2.9-6.6,5.7-6.8,6.6
							c0.3,0.6,9-4.6,6.6-2c4.2-2.8,5.2-4.7,11.3-7.3c-4.3,2.5-8.9,7.5-12,7.9c-7.3,6.7-3.7,9,0,6.7c-1.6-0.5,14-10.9,2.4-5.2
							c3.9-4.4,12.9-9.8,19.2-14.2l-0.1,0.5c0,0,2.1-1.2,4-2.3c2.1-1.2,4-2.2,4-2.2c-1,0.9-3.4,2.5-3.1,3.2c0,0,0.7-0.5,1.6-1.2
							c0.9-0.7,2.4-1.5,3.7-2.5c2.8-1.7,5.4-3.7,5.4-3.7c-3,2.2-2,2,0.3,1c2.3-0.8,5.9-2.2,7.5-2.4c0.8-1.6,5.2-4.4,0.5-3.2
							c-5.4,1.2-2.8,1.7-7.3,3.7l5.9-4.4h0.6c0,0,0.8-0.7,1.6-1.5c0.8-0.8,1.6-1.5,1.6-1.5c9.1-3-2.8,4.9,8.4-0.6l-2.3-1.5
							c3.5-1.2,7.2-2.1,11.1-2.8c2-0.3,3.8-0.8,5.8-1.2c2-0.2,3.9-0.6,5.8-0.9c2-0.3,3.7-0.6,5.7-0.9c1.7-0.2,3.6-0.5,5.2-0.7
							c3.4-0.5,6.4-1.2,8.8-1.6c-2.7,1.5-3.5,3.7,0.5,4.4c-2.2,0-5.3,0.6-8.7,1.2c-1.6,0.3-3.5,0.6-5.1,0.9
							c-1.6,0.5-3.4,0.8-4.7,1.2c-0.6,0,1-1,3.8-2.3c2.8-1.2,6.6-2.2,10-2.7c-2-1.4-6.1-0.2-9.8,1c-3.7,1.4-7.2,2.8-8,1
							c-17.2,3.2-11.5,6.6-26,9.4c0.3,1.5-3.6,2.3-3.8,3.8c4.7,0.7,18.2-6.6,27.5-8.1c-0.8,0.3-2.5,1-2.9,1.4
							c6.6-1.3,9.1-2.2,13.7-3.8h-1c7.6-3.1,5.1,0.2,10.2,0.1c1.7-0.7,8.3-1,7.2-2.1c0,0,2.2,0.1,4.4,0.2c2.2,0.1,4.4,0.2,4.4,0.2
							l-0.6-1.7c4.9-0.5,6,0.6,10.5-0.8l0.1-1.6c0,0-3.1,0.1-6.1,0.2c-1.5,0-3.1,0.1-4.2,0.1c-1.2,0-2,0.1-2,0.1
							c6.1-1,1.5-1.6,8.3-2.7c-7.5,2.4,5.4,0.5,6.4,2.1l5-1l-1.3,0.5c3.9,0.8,4.6-0.8,9.4-0.5c-5.3-0.9-9-2-15.9-0.5
							c5-1.2,15.1-2.5,17.7-2.3c5.3-0.6,9,0.7,14.1,1.3c-4.7,0-4,1.3-4.4,2.3c-0.3,0.9-2.1,1.6-11.4,0.8c0.3-0.2,2-0.2,2.5,0
							c-2.5-2.3-11.4,0.2-15.5,1c1,1.2-3.1,1.5,4,2.1c-2.4-0.6,6-3,12.9-1.6l-1.3,2.5c0,0,2.5,0.1,4.9,0.2c2.5,0.1,4.9,0.3,4.9,0.3
							h-0.9c3.6,2,10.6,0.3,17.3,2.3c5-0.6,23.5,3.9,16.1-0.2c5.7,3,11.4,2.1,18.1,3.6c0,0-2-0.8-3.9-1.6c-2-0.8-3.9-1.5-3.9-1.5
							c10.3,0.7,7.1,1.2,15.7,0.7c0.6,0.9,2.2,2.1,0.3,2.3c12.9,4,30.4,12.6,38.2,14.7c4.3,2.2,6.2,4.4,8.7,6.5
							c2.5,2.2,5.3,4.4,11.4,7.5c1.3,0.6,1.2-0.2,1.5-0.5c0.5-0.2,1.4,0,4.9,2.9c0.3,0.5-8-3.4,0.1,2.2c1.6,0.6,3.4,1.5,5,2.8
							c1.5,1.2,3.2,2.7,4.7,4c3.4,2.9,6.6,6.2,10.6,8.4c3.2,3.6,9.4,9.4,6.9,9.1c-5.1-5.7-13.6-12.4-15.4-12.8
							c1.4-0.1-3.7-4,1.2-1.2c-8.3-8-6.4-3.9-14.3-10.7c-0.9,0.1,3.4,4.4,5.3,5.2c-1.2,1.5-17.1-10.9-11.1-3.5
							c8.6,6.4,14.1,4.7,19.9,12.6c-3.7-1.4-7.6-6-12.8-7.1c0,0,0.3,0.3,0.8,0.8c0.5,0.5,1.2,1.2,2,2c1.4,1.3,2.8,2.8,2.8,2.8
							s1.3,0.6,2.7,1c1.3,0.6,2.7,1.2,2.7,1.2h-0.5c8.9,10.4,11,6.6,20.6,14.6c-3.9-6.2,3.8-1.4,0.7-6c6.1,5.9,10.2,10.6,8.3,12.1
							c-5.9-5.1-6.5-4.7-6.9-4.5c-0.5,0.3-0.8,0.8-6.6-3.5c1,2.2-4.4-0.2,1,6c7.5,5.8-0.7-3.2,6.4,3.1c0.2,0.5,0.5,1,0,1
							c3.7,2.5,3,4,7.4,7.2l-1.2-0.7c3.1,5.8,5.7,4.5,7.9,9.8c-0.1-2.8,3.2,2.2,6.1,4.5c-2.8-5-2.8-8.8-10.2-17.7
							c-1.7-0.2-1.7,0.8-5.2-2.3l4.9,5.3c-1.2-1-2.3-1.7-3.4-2.8l-4-5.8c6.5,6.1,4.7,2.2,8.3,4.2c4.9,6.7,4.5,5.1,7.4,9.5
							c-1.5,0.6,6.8,14.7,10.7,23.2c-0.7-1.3-1.7-2.8-2.3-3.7c-4.6-5,1.2,4.6,0.8,5.2l3.2,3.8c-0.6-0.7-1.5-1.6-0.7,0.3
							c3.6,5.7,5,4.4,8.3,10.3c-0.7,0.8-4.5-3.4-3.2,0.5c-0.1,0.8-0.1,2.5,0.5,4.9c0.5,2.4,1.4,5.7,3.7,9.4c0.6,0.3,1.6,2.4,2.8,4.7
							c-0.2-0.3-0.3-0.7-0.5-0.8l1,5.8c-3.4-3.9-2.9-9.6-6.6-13.5l-1.6,0.3c-1.4-3.5-4.5-7.7-6.4-9.5c2.4,5.2,3.4,6.1,6.2,11.9
							c-0.6,1.2-3.1-2.5-3.5-3.1l1.2,0.5c-0.8-3.8-2.7-6.1-4.5-8.6c-1.7-2.5-4-5.1-6.2-9.4c-0.6-1.3-0.1-0.6,0.3-0.5
							c-5.1-5.8-7.5-13.4-13.7-18.1l2.2,1.4c-0.8-0.9-2.1-2.1-3.2-3.4c-1.3-1.3-2.8-2.7-4.4-4.2c-3.1-3-6.9-6.2-10.9-9.4l-1.2,0.9
							c0.5,1-2-1.6-3.1-3.2l0,0c-2-1.4-3.8-3-5.7-4.3c-1.8-1.3-3.6-2.5-5.1-3.7c0.6,1,1.4,2.4,2.8,3.7c1.6,0.5,7.3,7.3,7.6,5.2
							c2.2,3.6,7.4,7.7,8.8,10.5c-1.3-2.5-0.3-2.1,0.9-0.8c1.4,1.2,3.2,3,3.9,3.1c0.1,1,1.4,2.7,2.5,4c0.9,1.4,1.7,2.7,0.9,2.8
							c0.3,1-0.7-2.8-3-4c-2.3-2-0.9,0.3,0.3,2.5c1.2,2.2,2.3,4.2-0.2,1.6c6.2,6.7,12.4,17.1,18,24.7l-2.2-4.9
							c2.1,3.7,6.7,12.5,6.5,13.5c-1.5-2.7-3.1-6-5.3-9.4c-1.4,0.6,4.4,8.4,3.7,9.4c0,0,0.5,0.6,1.2,1.4c0.7,0.8,1.5,2.1,2.5,3.2
							c1.7,2.4,3.6,4.7,3.6,4.7l-2.1-4.6c2.3,2.5,5.3,12.8,7.6,20.3c-1.7-1.7-2.7-4.5-3.8-7.7c-1-3.2-2.2-7.1-4.4-10.6
							c-3.2-5-0.5,4.2-3.2-0.7c0.1,1.5,1.6,4.7,2.9,6.2l0.5,2.2c-1.7-2.1-3.8-5.3-6-9.1c-2.2-3.8-4.6-7.6-7.1-10.6
							c0.5,0.5,0.9,0.8,1.2,0.9c-2.1-5.2-4.9-10.5-8.3-14.8c1,2.8,2.1,3.5,3.1,4.7c-0.2,0.3-3.4-3.8-4.7-5.1
							c2.3,4.6-0.5,1.4,0.9,4.3c-2.3-2.5-3.5-4.9-5.7-8.2c-0.6-2.2,2,0.8,2.5-0.1c-3-3-2-6.1-6.7-10.4c4.6,6.7-3.1-0.3-5.2-2.2
							l0.8,1c-2.5-1.3-3.8-2.9-4.2-4.9c2.7,2.2,4.2,4.9,4.5,3.5c-1.3-1.6-2.9-3.4-4.7-5l2.2,1.2c0,0-1.7-2.1-3.7-4
							c-1.7-2.1-3.7-3.9-3.7-3.9c-2-0.5-5-1.5-7.2-1.5c-1-2.5-4.3-4.4-6.4-5.9l1,0.5c-1.3-2.1-4.2-4.5-6.8-6.6
							c-2.6-2.1-5.1-3.5-5.8-3.4c-0.5-0.7,0.6-0.3,2.3,0.2c1.6,0.6,3.8,1.6,5.7,2.3c3.4,1.3,4.9,0.9-4.7-6.5
							c-7.3-5.8-6.4-1.3-11.2-3.5c0,0,0.3-0.1,0.1-0.5c-3.1-2.5-4-1.7-7.1-3.2c1.7,1.6,4.4,3.7,5.7,3.9c-0.8,0.1-2.5-1-4.3-2.4
							c-1.7-1.3-3.9-2.8-5.4-3.1c4.3,0.5-6.1-4.7-3-3.9c-3.1-2.5-6.7-4.5-10.2-5.9c-3.5-1.3-6.5-2.1-8.6-2.4
							c-3.8-4.4-8.6-3.6-16.3-7.7c1.2,0.6,3.6,1,5.2,2.1c5.1,0.3-8.1-4-0.5-2.5c-1.5-0.3-0.3,0.7,1.2,1c2.8,0.8,5.7,1.4,5.1,0.5
							c0,0-1.4-1-3-2.1c-1.5-0.9-3.1-2-3.1-2l2.5,0.6c0,0-2.4-1.4-4.7-2.9c-1.2-0.7-2.4-1.4-3.4-2c-1-0.5-1.5-0.8-1.5-0.8
							c-0.3,0.2,0.5,0.8,0.8,1.2c-11.8-5.1-26.3-7.6-37.4-9.6c-0.7,0.9-2.8,1.3-5.7,1.4c-2.9,0.1-6.5-0.3-10.4-0.3
							c-3.8-0.1-7.9-0.5-11.5-0.2c-3.6,0.1-6.8,0.3-9,1c2.4-1.3,3.7-3.5,2.2-4.4c2.1-0.1,6.2-1.7,10.9-1.3c0.7,0.7,6.4,2,2.7,2.4
							c12.7,0.5-1.5-2.1,2.3-3.4c-14.3-0.5-22.5,2.3-31.2,4l-0.2-0.5c0,0-1.6,0.3-3.2,0.7c-1.6,0.3-3.2,0.8-3.2,0.8
							c2.8-0.2,4,0.5,3.8,1c-0.2,0.6-2,0.9-5.3,1l0.8-0.2c-2.1-0.2-5,0.1-8.2,0.7c-3.2,0.7-6.7,1.6-9.8,2.1c0,0-0.9,0.6-2,1
							c-0.9,0.6-2,1.2-2,1.2c-6,1.2-6.9-1.3-9.4-2.3c-4.7,1.3-8.3,2.8-11.4,4.5s-5.8,3.5-8.7,5.3c-1.6,0.1-5.9,1.2-8.8,2.2
							c-3,0.9-4.6,1.2-1.4-0.9c-7.6,4.6-3.4,9-18,13.4l2.8-2.9c-6.2,3.6-13.4,8.6-19.3,13.5c-1.5,1.2-3,2.4-4.3,3.5
							c-1.3,1-2.7,2.2-3.8,3.1c-2.4,2-4.4,3.4-5.8,4.3c0.7-3.2-3.2-1-8.1,1.7c-4.6,3-10.3,6.8-12.5,6.5c1,0.1-2.5,4.3-2.7,5.1
							c-1.2,0.5-2.9,1.6-3.7,3.9c2.2-2,2.3-0.5,2.5,0.2c0.3,0.7,0.7,0.7,3.9-3.7c-0.9,2.9-2.2,6-3.9,9.5c-2.1,3.5-4.4,7.4-8,12
							l-1.2-1l6.1-7.1c-1.5-0.1,1.6-3.7,2.5-5.4c-3.1,3.1-4.6,4.5-5.4,5c-0.8,0.5-1,0-1.2-0.5c-0.2-0.9-0.6-1.7-6,5.4
							c-0.1,2.1,0.1,0.8-2.3,4.9c1.2-1.7,0.6-2.8-1.5,0.1l-0.9,3.5c-2.8,2-2-0.6-0.5-3c1.3-2.4,2.8-4.9,0.5-3.2
							c2.9-6.6,10.5-16.6,7.3-16.2c-8,8.7-3.6,10.7-11.4,20l-1.4,0.6c-1.7,3.9-0.9,5.2-1.4,7.6c-0.5-0.1-1.4,0.6-3,2.9
							c-2,7.2-3.6,11.7-4.5,18.5c1.5-4,2.9-6.8,4-8.9c1.2-2.2,2.4-3.7,3.5-5.1c2.2-3.1,4.5-6.1,8.8-14c-1,2.7-7.3,13.6-5.7,15.4
							l-1.3-0.9c-2.2,5.3-4,10.9-7.6,17.1c0,0,0.2-1,0.5-2.2c0.2-1,0.6-2.2,0.6-2.2c-1.6,4.5-3.7,7.9-5.7,11.2
							c-1.6,3.4-3.4,6.5-3.4,10.6c0.9-2.5,1.7-4.4,2.2-6.1c-1.2,4.7-3.2,10.6-5.1,15.6c0,0-0.1,2.9-0.2,5.7c0,1.4-0.1,2.8-0.1,3.8
							c0,1,0,1.7,0,1.7c-0.7-0.2-2.4,6.5-2.9,2.9c-0.7,2-1.2,3.5-1.5,5c-0.2,1.5-0.2,2.9-0.2,4.2c0.1,2.5,0.3,4.6,0.2,6.9
							c-1.3,3.8-1.3,2.2-1.2-0.7c0.2-2.9,0.6-6.8-0.3-7.4c-0.6,2.8-1.3,5.4-1.6,8.2c-0.3,2.8-0.6,5.4-0.8,8.1
							c-0.2,5.1,0,9.8,0.6,12.9c0.3-2.3,0.8-3.4,1.2-3.2c-0.6,0.2-0.6,4.7-0.7,7.3l0.9,1.7c-0.8,4.2-1.4,3.6-2.2,0
							c-0.3,4,2,8.7,0.5,12.9c-0.7-3.4-0.9-7.3-0.8-10.9c0.1-3.5,0.2-6.6-0.1-8.3c0.3,7.2-0.6,10.9-1.2,15c-0.2,2.1-0.7,4.3-0.7,7.1
							c0,2.9,0.2,6.2,0.9,10.9c-0.5,0.2-1.7-2.8-1.4,0.8c1.4,8.1,2.4,2,3.9,4.3c-1.5-6.1-1-9,0-12.8l0.9,1.5
							c-0.3,0.2-0.2,4.2-0.5,5.3l2,0.8c-2-0.2-2.8,6.2-1.2,11c0.6-5.1,0.8-3.8,2.8-5.3c1.4,3.2,1.3,5.1,1.2,7.3
							c-0.1,2.1-0.3,4.3,1.6,7.7c-0.8-0.3-2.5-6.9-2-1c0.9,4.6,2.3,3.7,3.5,6.7c-2.4-3.1-3.4-2-6.1-5.3c-2-8.4-0.6-3.5-2.9-11.7
							l-0.1,7.3c-1.5-7.2-2.8-5-3.5-5.4c0.6,12.9,4.2,8.9,5.4,17.1c2,3.6-1.4-7.4,0.9-1.7c1.4,7.4,1.4,1.4,4.3,9.4l-1-1.2
							c-0.2,2.8,1.5,4.9,2.8,7.6c1.5,2.9,4-5.1,8.6,7.2c-0.7-0.5-0.9-0.6-1.2-0.5c0,0-1-0.5-2.8-1.2c-1.5-0.7-3.7-1.7-5.9-2.8
							c-2.2-1-4.3-2.2-5.9-2.9c-1.6-0.8-2.7-1.4-2.7-1.4c4,13.7,10,29.1,17.6,44c-0.1,2.4-2.2,0.1-4-2.8c-1.7-2.8-3.7-6.1-4-5.3
							c0,0-0.8-1.7-1.4-3.6c-0.7-1.7-1.3-3.6-1.3-3.6c0.9,0,7.4,14.3,6.1,7.2c-6.7-11.8-7.9-17.8-14.2-29.1
							c-1.3,4.6,6.1,15.8,7.9,24c-1.3-3.4-2.9-5.9-4.3-8.3c1.3,3.7,3,7.4,4.5,11.5c1.7,3.8,3.5,7.9,5.7,11.9l1.5,1.4
							c-2.9-5.3-4.3-9.4-4.5-9.8c3.4,7.3,8.2,12.4,10.2,11.9l-0.6-1.3l2,2.2C118.2,417.7,119.2,419.2,120,421.1z M520,355.1
							c0.1,0.5,0.2,0.9,0.3,1.3C520.3,356.2,520,356.4,520,355.1z M80.9,271.7c-2,10.7-2.9,21.7-3.1,32.3c0.9-4.7,2.1-9,2.9-12.4
							c0.9-3.4,2-5.7,2.7-6.5c1.4-1.5,1.3,2.9,1.2,18.2l0.3,2.1c0.1-2.1,0.3-4.6,0.5-7.7c0.1-3,0.1-6.4,0.2-9.6
							c-0.5-2.7-1.7-8.3-2.5-13.5c-0.5-2.5-0.8-4.9-1.2-6.7c-0.2-1.7-0.5-2.9-0.6-2.9c-1.4,1.6-0.7,4.6-1.4,8.1L80.9,271.7z
							 M88.4,265.2c1.4-5.8,0.3-4.6-0.2-5.8c-0.2,2.2-0.6,4.2-0.8,6.2C87.8,265,88.1,264.7,88.4,265.2z M87.5,259.7
							c-0.1,0.7-0.2,1.2-0.5,1.5L87.5,259.7z M94.8,375.9c-0.1-0.2-0.1-0.3-0.2-0.6c0.3,1.4,0.8,2.8,1.2,4.2
							C95.7,378.9,95.5,377.8,94.8,375.9z M92.8,363.8l-1.7-0.9c0.3,1.3,0.6,2.7,0.9,3.9C92.6,366,92.9,365.4,92.8,363.8z
							 M89.9,324.7c-2-2.3-2.5-10.5-4.5-10.9c-0.5-0.5-0.6,1.2-0.6,3.2c0.1,2.2,0.2,4.5,0.3,6.9c0.2,0,0.6,0.5,0.9,1.3
							c0-2.4,0.3-4,1.6-3.2c-2.1,6.5,2.5,5.2,2.7,12C92,335.9,90.8,326.7,89.9,324.7z M445.5,130c0,0.2,0.2,0.9,0.7,2.1l-4.3-2.2
							c-1.5-1.4-3-2.9-4.4-4.3c-1.4-1.3-2.8-2.8-4.2-3.9c-2.8-2.7-5.8-4.6-9.6-5.7c-2.7-2.5-3.7-4.5-4.7-6.4
							c1.4,0.9,2.9,1.7,3.9,2.8c10.3,4.3,11.9,6.9,13.2,9c0.6,1,1,2.2,2.4,3.5C439.5,126.1,441.6,127.8,445.5,130z M358.9,83.3
							c0.8,0.1,1.3-0.1,1.3-0.1c-19.6-1.2-35.2-1.3-45.5-2c0.9,0.7,3.7,1.4,6.7,2.3c3,0.8,6.4,1.3,8.3,2.1c0,0-0.9,0.2-2.1,0.6
							c-0.9,0.3-2,0.7-2,0.7l-2.3-1.4l-6.7,0.9c1.7,1.2,7.1,1.4,10.6,2.5c0.2-0.2,11.8-0.8,15.1-1c0,0-2.2-0.7-4.4-1.3
							c-2.3-0.6-4.4-1-4.4-1c2.4,0.6,14.6,2.2,19.3,3c0.1-0.3-1.7-1.4-3.8-2.1c-2.2-0.6-4.5-0.8-5.1-0.1c-0.8-1.3,8.7,0.3,3-2.1
							c3.7-0.1,8.3,1,12.7,2.2c4.3,1.2,8.2,2.9,10.9,3.8l0.2,2.2c5.2,2.7,4.5-1,10.9,2.3c-8.2-2.4,0.6,2.5-5.9,0.5
							c1.7,1.4-0.6,2.1,5.8,4c6.1-0.3,6,3.9,11.8,4c2.9,2.2-4-0.1,2.1,3.1c3.9,0.9,5.9,1.3,6.9,1c1-0.1,1.4-0.8,2.2-1.5
							c-3.2-2.1-5.4-2.3-7.4-2.5c-2.1-0.2-3.8-0.3-6.6-1.7c0,0,3.1,0.5,6.2,0.9c1.5,0.2,3.1,0.5,4.3,0.7s2,0.3,2,0.3
							c-1.7-1.4-3.4-2.2-4.6-2.7c2.4,0.8,4.5,1.3,6.4,1.5c1,0.1,2.2,0.2,3,0.5c-1.5-0.8-3.1-1.5-4.5-2.4c-1.4-0.7-2.8-1.3-3.9-2
							c-2.3-1.2-3.9-2.2-4.3-2.8l1.3-0.5c-2-2-6.1-2.8-8.1-2.8c-6-2.4-12.5-2.9-13.5-4.5h2.5c-3.7-1.2-5.9-1.6-8.2-2.3
							C366.4,85.4,363.8,84.4,358.9,83.3z M126.8,162c2.9-0.8,5.7-1.7,9.5-4.5c3.8-2.8,8.7-7.4,16.4-15.2l-1,1.3
							c2.4-1.4,4.3-3.4,6.4-5.2c2.1-2,3.8-3.9,5.8-6.1c3.9-4,8.2-8.3,14.6-11.3c-4.5,4.7-4.3,4.5-8,11.3l4.7-5
							c-0.3,2.7,4.5-2.2,8.7-5l-2.3,4.4c-1.4,0.6-3.7,2-5.7,3.4c-1.7,1.3-3.2,2.7-3,2.8c0.6-0.6-1.7,0.3-5,2.2
							c-3.1,2-6.9,4.5-9.1,7.1c1.4,0.6,11.5-8.7,8.4-2.9c3.4-4.3,5-3.4,8.9-7.3c-3.6,4,0.2,2.5-2.2,5.8c0,0,1.6-1.4,3.4-3
							c1.6-1.5,3.5-2.9,3.5-2.9c0.3,0.1-9.7,8.9-2.8,5.9c2.3-3,10.9-7.5,10-9l0.5,0.2c5.9-3.4,1.2-3.6,8.7-7.2
							c-0.3-0.7-2.1-0.5-4.4,1.3c-2,1.6-1.6,2.8-5.9,5.9c-1.3,0.1,0-0.7,1-1.5c1.2-0.8,2.1-1.6,0-1.5c-2.2,0.1-10.9,8.7-9,4.5
							l5.8-3.7c-0.8-1.4,3.4-4.2,2.7-5.1c3.2-2.8,7.5-3.5,10.7-6.7c1-1.7-2.7-2,4-4.7c1.5-0.1,3.6-0.7,5.9-1.5
							c2.3-0.8,4.9-2.1,7.4-3c5.1-2.3,10.4-4.5,13.3-5.8c0,0,1.2-0.7,2.4-1.4c1.2-0.7,2.4-1.3,2.4-1.3c-0.8-0.9-9.7,3.8-6.9,1.3
							c0,0,2-0.8,3.9-1.7c2.1-0.8,3.9-1.5,3.9-1.5l-0.3,0.8c2.8-0.7,5.2-2.4,7.6-3.5c-2.2,2-8.1,3.5-6.5,4.6c3.8-0.9,4.5-0.6,8-2
							c-0.7,0.3-1.3,0.7-1.2,0.8c7.9-1.4,6.9-3.9,8.7-5c3.7-2.1,1.5-2.2-1.4-1.7c-3,0.3-6.8,1-6.6,0.1c0,0,1.4-0.5,3.6-1.2
							c1-0.3,2.4-0.7,3.7-1.2c1.3-0.3,2.9-0.7,4.3-1.2c5.9-1.6,11.8-2.9,11.8-2.9c-2,0.9-3.8,1.7-3,2.4c6-0.2,0.3,1.3,8.4-0.2
							c-0.5-1.2,2.1-1.7,5.3-2.5c1.6-0.3,3.6-0.7,5.3-1s3.6-0.6,5-1c2.9,0.7,3.4,0.8-2.7,1.3c0.8,1.4,8.7,0.1,11.7,0.2
							c1.6-0.3,4.4-0.7,6.2-1c-2.4-0.7-1.4-1.6,3.8-2.4l0.3-0.3c-4.3-0.1-9.8-0.6-15-0.6c-5.1,0.1-9.8,0.3-12.5,1.5l1.4-0.9
							c-5,0-10.5,1.3-15.1,2.8c-4.6,1.2-8.4,2.5-11.2,1.5c0.1-1.2-2.1,0.2-2.3-1.4c0,0-1.7,0.7-3.5,1.4c-1.6,0.8-3.4,1.6-3.4,1.6
							l1.3-1c0,0-3,0.9-6,2c-3,0.9-6,2.1-6,2.1l0.2-0.3c-2.7,1.6-4.9,3.1-6.9,4.4c-2.1,1.4-3.7,2.8-5.2,3.8c0.2,0.7,0.7,0.7-0.9,2
							c-1.6,1-3.1,1.6-4.3,2.2l0,0l0,0c-2.9,1-5.1,0.9-8.7,2.2c0,0,2.7-1.2,5.2-2.5c1.3-0.6,2.7-1.2,3.6-1.6s1.6-0.7,1.6-0.7
							c0.3-1.4-0.9-2.3-6.6-0.7c2.2-0.9,2.7-2.3-0.1-1.2c-0.1,0.3-6.7,3.8-3.7,3.6c-4.9,2.7-11.8,5.2-18.9,8.9
							c-3.6,1.7-7.2,4-10.9,6.4c-3.5,2.4-6.9,5.1-10,8.1c4.5-4.2,2.3-3,0.2-2c-2,1.2-3.8,2.3,1.5-2.1c-4.5,2-5.8,3.7-6.9,5.4
							c-1.2,1.7-2.4,3.7-6.1,6.8c-1,0,3.9-3.4,4.9-5.8c-6.6,4.7-11.2,9.8-15.4,15.1c-2.2,2.5-4.2,5.2-6.4,7.9
							c-2.3,2.7-4.5,5.3-7.1,8.2l-1.5-0.5C130.5,156.4,128.6,159.2,126.8,162z M111.1,188.3c-1.3,2.7-2.8,5.2-3.9,8.1
							c0.1-0.2,0.2-0.5,0.5-0.7l-3,8.3c3-4.5,6.1-6.9,3.4,0.1c-0.2-0.8-2,0.8-1-1.6c-1.5,2.1-3.7,5.4-5,8.2
							c-1.3,2.8-1.7,4.7-0.2,3.9c2.1-9.7,3.6-0.8,5.2-8.3c-0.3,4.3-2.7,7.6-3.6,11.4c0.3-4.2-3-0.2-5.8,5.1c-0.7,2.5-3.2,9.1-4,13.6
							c1.7-1,1.4,2.8,3.9-3.8c-0.2,1.3-0.6,2.9-1.2,4.6c-0.5,1.7-1.2,3.8-2.2,5.9c0.2-1.7,0.9-4.7,0.3-4.7c-2.1,2.4-2.9,5.8-3.9,7.4
							c-0.3,1.4-0.6,3-0.8,4.4c0.2-0.3,0.5-0.7,0.7-0.9l0.1,5.1c0.8-6.6,1.3-2.8,2.2-2.5c-1.5-0.6-1.2,4-1.5,6.2l2.7-4.3
							c0.1,1.2-0.6,3.2-1.2,4.6c-0.5,1.5-0.8,2.7,0.1,2.3c1.3-5,2.3-8.3,3-11.8c0.8-3.4,1.5-6.5,2.7-11.1l-2.3,3.2
							c0.9-5.2,2.2-6.6,3.4-8c1.3-1.4,2.4-3.1,4.5-8.4c0.5-5,6.8-16.2,4.7-17.6c0,1.6,5.2-5.7,6.2-9.6c0.1-2.5,1.7-6.7,3.2-10
							c1.4-3.1,2.5-5.3,0.9-3.8c-2.2,3.1-3.5,8-6.2,9.8l3.2-6.5l-3.5,3.5C114.3,188.6,113.2,188.3,111.1,188.3z M71,349.3
							c0,0.1,0,0.2,0,0.2V349.3L71,349.3z"/>
						<path fill="#FFFFFF" d="M514,212.2c1.4,1.6,3.2,6.7,3.9,5.2c-0.6,0.2-1.4-2-2.3-3.7S514.1,210.6,514,212.2z"/>
						<path fill="#FFFFFF" d="M515.2,218.5c0.5,0.2,0.8-0.2,1.6,2l-2.7-5.9L515.2,218.5z"/>
						<path fill="#FFFFFF" d="M509.3,227.7c2,2.7,3.1,4.4,4.6,9.1c-2.5,2.8-3.5-7.5-7.1-8.6c1.3,4.3,2.9,6.9,4.4,9.4
							c1.4,2.4,2.9,4.7,4,8.3c0.1-2-0.6-6.7-2-11C511.9,230.9,510.4,227.5,509.3,227.7z"/>
						<path fill="#FFFFFF" d="M504,225.5c0,0,0.6,1,1.3,2.2c0.6,1,1.2,2.3,1.2,2.3v-0.5c0,0-0.6-1-1.2-2.2c-0.6-1-1.3-2.2-1.3-2.2
							V225.5z"/>
						<path fill="#FFFFFF" d="M458.8,116.7c0.2-1-3.1-2.5-4.7-3.5C455.2,114.2,456.7,115.8,458.8,116.7z"/>
						<path fill="#FFFFFF" d="M478.9,470.8c0,0,1.7-2.1,4.5-5c2.7-3.1,6.1-7.2,9.5-11.5c3.2-4.3,6.5-8.6,8.7-12.1
							c2.3-3.4,3.8-5.7,3.8-5.7C498.5,447.1,491.8,456.3,478.9,470.8z"/>
						<path fill="#FFFFFF" d="M327.6,69.4c5.7,0,9.8,0,14.1-0.1c4.2,0.1,8.3,0.2,14.2,1.2c-3.6-1.4-6.8-1.7-9.6-2.3
							c-2.8-0.3-5.2-0.3-7.6-0.2c-4.7,0.1-9.1,0.3-15.6-1L327.6,69.4z"/>
						<path fill="#FFFFFF" d="M332.3,61.8c1.6,2.1-9,1.4-7.5,3c7.7,0.1,3.8-1.5,10.9-0.6L332.3,61.8z"/>
						<polygon fill="#FFFFFF" points="373.8,102.9 370.6,102.8 373,103.3 						"/>
						<polygon fill="#FFFFFF" points="279.4,63.3 280.5,62.8 274.8,63 						"/>
						<path fill="#FFFFFF" d="M281.8,62.3l-1.2,0.6L281.8,62.3z"/>
						<polygon fill="#FFFFFF" points="368.8,105.5 373,107.4 375.4,107.3 						"/>
						<path fill="#FFFFFF" d="M331.3,87.1l4.3-0.1C334.7,87,329.1,85.6,331.3,87.1z"/>
						<polygon fill="#FFFFFF" points="244.3,69.1 239,71.3 239.5,71.3 244.9,69.2 						"/>
						<path fill="#FFFFFF" d="M298.5,90.9c2.9,1.3-8.1,0.6-2.3,1.6C301.3,92.3,299.1,91.6,298.5,90.9z"/>
						<path fill="#FFFFFF" d="M236,92.1c-0.7,0.2-1.3,0.5-2.1,0.9C234.8,92.6,235.5,92.3,236,92.1z"/>
						<path fill="#FFFFFF" d="M236,92.1c2.2-0.7,4.4-0.9,5.9-1.6C239,90.5,238.1,91.1,236,92.1z"/>
						<path fill="#FFFFFF" d="M211.9,101.9l2-0.7c-1.5,1.5-0.7,0.9,0.7-0.2c2-0.9,1.6-1.3,1.7-1.6c0.3-0.3,0.6-0.7,0.9-1
							c-0.5,0.5-0.9,0.8-1.4,1.2C212.8,100.7,211,101.7,211.9,101.9z"/>
						<path fill="#FFFFFF" d="M116.8,145.2c6-6.1,7.5-7.5,8.1-6.4c5.8-5.4,3.5-6,6.5-9.8c-3.1,3.4-5,5.2-7.1,7.4
							C122.3,138.4,120.2,140.9,116.8,145.2z"/>
						<path fill="#FFFFFF" d="M131.4,128.9c0.7-0.7,1.4-1.4,2.2-2.3C132.8,127.5,132.1,128.2,131.4,128.9z"/>
						<path fill="#FFFFFF" d="M244,102.8c0,0-0.9,0.7-2,1.5c-0.9,0.8-1.7,1.5-1.7,1.5l1.4-0.7c0,0,0.6-0.6,1-1.2
							C243.4,103.3,244,102.8,244,102.8z"/>
						<path fill="#FFFFFF" d="M108.5,154.7c1-1.2,2.5-3.2,3.6-3.9C111.5,149.7,107.6,155.8,108.5,154.7z"/>
						<path fill="#FFFFFF" d="M145.8,145.4c0.9-0.1,4.3-3.8,5.9-5C149.5,142.2,146.3,142.3,145.8,145.4z"/>
						<path fill="#FFFFFF" d="M98.9,177.3c0.8-1.3,2.8-2.9,3-1.5C102.6,173.6,102.6,170,98.9,177.3z"/>
						<path fill="#FFFFFF" d="M136.1,155.7l0.9-0.6c0,0,0.7-1,1.4-2.3c0.7-1,1.4-2.2,1.4-2.2s-1,1.2-2.1,2.5
							C137.1,154.3,136.1,155.7,136.1,155.7z"/>
						<path fill="#FFFFFF" d="M160.6,153.8c3.1-4.7-8.6,3.8-2.5-3.7c-9.8,7.7,2,0.6-4.5,7.1C157.5,153.5,160.6,153.1,160.6,153.8z"
							/>
						<path fill="#FFFFFF" d="M153.5,157.2c-0.6,0.5-1.2,1-1.7,1.7C152.4,158.3,153,157.7,153.5,157.2z"/>
						<path fill="#FFFFFF" d="M103,219.5c0.2-0.8,0.2-1.4,0.2-2.1C103.2,218.2,103.1,218.9,103,219.5z"/>
						<path fill="#FFFFFF" d="M135.8,180.3c0,0,0.8-2.1,1.5-3.9c0.9-2,1.7-3.9,1.7-3.9c-2.7,5.1-10.5,16.9-8.1,17.2
							c2.7-3.6,5.4-8.2,6.1-10.6L135.8,180.3z"/>
						<path fill="#FFFFFF" d="M63.2,261.9v-4.3l-1.2,5.1C62.5,261.2,63.6,264.3,63.2,261.9z"/>
						<path fill="#FFFFFF" d="M61.9,263.8l0.2-0.9C62,263,61.9,263.4,61.9,263.8z"/>
						<path fill="#FFFFFF" d="M109,204.2c1.4-2.4,2.4-4.5,3.2-6.9C111.4,197.9,107.9,204.1,109,204.2z"/>
						<path fill="#FFFFFF" d="M63,291.6c0,0-0.1-1.6,0-3.5c0-1.6,0.1-3.5,0.1-3.5s-0.1,2-0.2,3.7c-0.1,0.9-0.1,2-0.1,2.7
							c0,0.7,0,1.2,0,1.2L63,291.6z"/>
						<path fill="#FFFFFF" d="M60.4,324l-0.2,1.2c0,0,0.2,1.4,0.6,2.9c0.4,1.4,0.7,2.9,0.7,2.9l0.2-1.3c0,0-0.3-1.4-0.7-2.9
							C60.6,325.4,60.4,324,60.4,324z"/>
						<path fill="#FFFFFF" d="M99.9,284.8c0.5-3.9-0.8-7.2-1.4-6.2c0,0,0,0.5-0.1,1.2s-0.2,1.6-0.2,2.7c-0.1,2-0.2,3.8-0.2,3.8
							c1.7-1.7,0-2.2,0.9-6.6c0,0,0.2,1.3,0.5,2.5C99.6,283.5,99.9,284.8,99.9,284.8z"/>
						<path fill="#FFFFFF" d="M189.3,515.9c-2.3-0.1-10.7-5.4-10.6-6.7c1.3,0.3,6.2,2.7,3.6,0.5c0,0-2.1-0.3-3.9-0.9
							c-2.1-0.5-3.9-0.9-3.9-0.9c-7.9-7.1,8.3,1.5,13.5,3c-4.4-2.8-7.5-4.2-10.7-5.8c-3.1-1.5-6.5-3.1-11-6.4c2.7,2.1,3.8,3.8,5,5.2
							c-0.3,0.8-2.7-0.3-5.4-2.4c-2.9-2.1-6.5-4.7-9.5-7.1c3.4,3.6,0.7,2.4-2.5,0.8c-0.5-0.3-0.9-0.5-1.2-0.6
							c-0.3-0.2-0.7-0.3-1-0.6l0.7,0.6c-0.2,0.1-0.1,0.5,0.1,1c5.2,3.6,8.3,7.6,11.9,10.2c-0.8-2.4,2.2-0.3,6,2.2
							c3.8,2.7,8.6,6.1,11.2,6.8l5.3,2.8l2,1c0.2,0.5-0.5,0.6-3.8-0.6c2.7,1,11.2,5.3,10.9,4.2c0,0,1.2,0.6,3,1.5
							c1.7,0.8,4.3,2,6.8,3.1c2.5,1,4.9,2.3,6.8,3c2,0.7,3.1,1.2,3.1,1.2c0.6,0.3,1.2,0.7,1.5,1c0.7,0.1,0.9,0,0.9-0.1
							c0,0,1.4,0.5,3.8,1.4c2.4,0.8,6,2.1,10.3,3.4c8.4,2.5,19.9,5.8,31.5,7.5c5.8,1.2,11.7,1.6,17.2,2.4c5.4,0.3,10.7,0.9,15.1,0.9
							c4.4,0.1,8,0.1,10.7,0.2c2.7-0.1,4-0.1,4-0.1c-4.6,0-8.6-0.9-13.5-1.3c7.2-1.7-7.7-0.6-5.7-2.5c3.2-0.3,7.9-0.2,10.7,0.3
							c1-0.9-2.9-1.7-2.4-3c-5.8-0.7-9-0.1-12.5,0.5c-3.4,0.7-6.8,1.3-12.5,0.2c0.6-1,4.2-1.5-3.2-2.4h2c-6,0-8.1-1.3-9.8-2
							c-1.6-0.7-2.8-1-6.8-0.2l0.5-1.5c-2.8,0-6.7-0.6-10.7-1.3c-3.9-0.8-7.9-2-10.9-2.7l0.5-0.2c-16.4-3.5-9-2.3-26.7-8.6
							c0,0,0.5,0.1,1.3,0.2c0.8,0.2,2,0.3,3,0.6c2.2,0.3,4.3,0.7,4.3,0.7c-5.7-3-7.7-1.7-11.9-3.8c0.5-0.1,0-1.6,4-0.1
							c0,0-1.3-0.3-3.4-1c-2.1-0.6-4.7-1.4-7.4-2.4c-2.7-0.9-5.3-2-7.4-2.7c-2.1-0.7-3.4-1.3-3.4-1.3
							C183,511.8,188.9,515,189.3,515.9z"/>
						<path fill="#FFFFFF" d="M166.2,498.6c-0.9-0.7-2.1-1.5-3.4-2.5C163.9,497,164.9,497.9,166.2,498.6z"/>
						<path fill="#FFFFFF" d="M316.8,547.9l-6.6,0.2C312.3,548.2,314.4,548.2,316.8,547.9z"/>
						<path fill="#FFFFFF" d="M138.5,480.7c2.3,3.4-3-1.2-3.9-1.2c0,0,2.7,2.5,5.2,4.9c2.8,2.4,5.3,4.6,5.3,4.6
							c0.3-0.5,2-0.1,2.1-0.7c0,0-2.3-2-4.4-3.8c-1-0.9-2.2-2-3-2.7C138.9,481.1,138.5,480.7,138.5,480.7z"/>
						<path fill="#FFFFFF" d="M147.7,492.7c0.6,0,2.1,0.6,3.7,1.4c0,0-1.5-1.2-3.1-2.5c-1.4-1.3-3-2.7-3-2.7
							C144.9,489.5,145.3,490.4,147.7,492.7z"/>
						<path fill="#FFFFFF" d="M168.1,466l1.6,1.4l3,1.6c0,0-1.2-0.7-2.4-1.4C169.3,466.8,168.1,466,168.1,466z"/>
						<path fill="#FFFFFF" d="M194.8,488.5c-1.7-2.2-6.5-4.3-8-5C191.9,486.6,189.5,485.7,194.8,488.5z"/>
						<polygon fill="#FFFFFF" points="194.2,476.1 199.1,478.4 198.9,478 						"/>
						<path fill="#FFFFFF" d="M363.8,534.7c0.9-0.2,2-0.5,2.9-0.8C365.3,534.2,364.5,534.3,363.8,534.7z"/>
						<path fill="#FFFFFF" d="M310.7,543.3c15.1,1.4-9.8,1.7-5.1,3.9l8.2-0.9l-0.7,0.6c0,0,2.5-0.1,5-0.2c2.5-0.2,5-0.5,5-0.5
							c-2.2-0.9-3.7-0.8-3.4-2.1c13.4-0.6,4.3,1.2,14.3,1.5c0,0,3.7-0.5,7.4-1c3.7-0.6,7.4-1.3,7.4-1.3l-1.2,0.6
							c1.2-0.2,1.7-0.5,2.2-0.7c0,0,12.6-2.3,24.7-6.2c3.1-0.8,6-2,8.8-2.9c2.8-1,5.3-1.7,7.6-2.8c4.4-1.7,7.3-3,7.3-3
							c8.1-4.3-5.4,0,0.1-4c-9.7,4.2-25,7.7-25.3,10.2c0.2-0.3,0.7-1.2-1.4-0.8l-5.2,3.3l5.8-1c-1.3,0.8-3.6,1.7-6.2,2.8
							c-2.7,0.8-5.8,1.6-8.8,2.3c-6.1,1.3-12.1,1.7-14,1.5c11.1-2.8,5-3.5,20.7-5.9c-0.8-0.3-3.8-0.7-0.5-1.7
							C346,539.7,329.6,540.9,310.7,543.3z"/>
						<path fill="#FFFFFF" d="M475.7,471.7v0.2C475.9,471.7,475.9,471.5,475.7,471.7z"/>
						<path fill="#FFFFFF" d="M470.9,475.7c0,0-1.2,2-2.5,3.8c-1.2,2-2.7,3.8-2.7,3.8s2.7-2.3,5.1-4.7c2.5-2.4,5-4.9,5-4.9l-0.3-1.7
							c-0.6,1.2-3.6,5-5.3,6L470.9,475.7z"/>
						<path fill="#FFFFFF" d="M458.7,491.2c5.1-5.1,3.6-6.4,0.1-4.4c4.4-4.9,3.9-0.8,6.1-5.2c-0.9-0.9-6.6,5-7.9,6.4L458.7,491.2z"
							/>
						<polygon fill="#FFFFFF" points="413.2,519.4 414.7,517.8 410.2,519.9 						"/>
						<path fill="#FFFFFF" d="M414.7,517.8l4.5-2.2c-0.6-0.3-1-0.7-2.1-0.6L414.7,517.8z"/>
						<path fill="#FFFFFF" d="M430.8,509.8c2-0.9,3.8-2.2,6.4-3.7c0,0-1.5,0.9-3.1,1.7C432.5,508.8,430.8,509.8,430.8,509.8z"/>
						<path fill="#FFFFFF" d="M425.6,512.1l0.2,0.1l4.9-2.5C429,510.6,427.4,511.3,425.6,512.1z"/>
						<path fill="#FFFFFF" d="M419.2,515.6c1.3,0.7,2.9,1.5,8.9-2.4l-2.2-0.9c0,0-1.6,0.8-3.4,1.7
							C420.9,514.9,419.2,515.6,419.2,515.6z"/>
						<polygon fill="#FFFFFF" points="228.3,495.7 233.2,496.9 232.8,496.5 228,495.4 						"/>
						<path fill="#FFFFFF" d="M255,505.6c1.2,0,2.2,0,3.1,0C256.7,505.5,255.7,505.5,255,505.6z"/>
						<path fill="#FFFFFF" d="M277,501c5.3,2-7.9,0.7,2.3,2.7c0.8,1.2-4.3,2.4-9,0.8c0.6-1,4.7,0.1,2.1-1.5
							c-3.5,0.7-4.5-0.3-3.7,1.4c-5.7,0.1-6.5,0.9-10.6,1.3c6.7,1,20.7,5,29.5,3.5c4.9-1.6,2.2-4.6,2.5-7.6c-0.3-0.3-3.5-0.7-6.5-1
							C280.4,500.1,277.4,500.1,277,501z"/>
						<path fill="#FFFFFF" d="M268.9,496.6c-2.5-0.6-3.2-0.6-4.7-0.7C264.4,497,266.9,496.3,268.9,496.6z"/>
						<path fill="#FFFFFF" d="M329.5,521.1c0.5-0.5,5.4-1.6,4.3-2.3c0,0-2,0.3-3.8,0.7c-2,0.3-3.8,0.6-3.8,0.6
							C328,520.3,328.7,520.6,329.5,521.1z"/>
						<path fill="#FFFFFF" d="M322.8,520.8l3.4-0.5C325.4,520.4,324.3,520.5,322.8,520.8z"/>
						<path fill="#FFFFFF" d="M329.9,521.3c-0.1-0.1-0.2-0.1-0.3-0.2C329.3,521.2,329.5,521.3,329.9,521.3z"/>
						<path fill="#FFFFFF" d="M448.5,498.9c0.3,0.7,3.2-1.7,4.5-3.2C451.7,496.4,449.9,497.5,448.5,498.9z"/>
						<path fill="#FFFFFF" d="M530.8,384.9l1.6-2.9C531.8,383.1,531.4,383.5,530.8,384.9z"/>
						<path fill="#FFFFFF" d="M521.3,332.2c-0.1-0.1-0.2-0.3-0.3-0.7C520.8,331.9,520.9,332.1,521.3,332.2z"/>
						<path fill="#FFFFFF" d="M520.8,331.7c-0.3-2.2,1.4-8.2,0.5-10.7l0.2,0.3l-0.2-4.3c-0.1,2.1-0.2,5-0.5,7.9
							C520.6,327.7,520.5,330.4,520.8,331.7z"/>
					</g>
				</g>
			</g>
		</g>
	</g>
</g>
<g>
	<path fill="#CCCC66" d="M122.3,489.2"/>
	<g id="wNvGUP.tif">
		<g>
			<g>
				<g>
					<path fill="#CCCC66" d="M428.7,235.9c6.1,2.5,11.8,5.4,17,9.2c12.9,9.7,21.1,22.7,26.2,37.6c1.2,3.5,2.4,7,3,10.6
						c0.2,2-1.3,2.2-2.6,2.5c-7.1,2.2-14.2,3.9-21.4,5.5c-13.3,3.2-26.6,5.8-40.1,7.9c-1.5,0.2-3.2,0.5-4.7,0.2
						c-1.2-0.6-2.1-1.6-2.6-2.9c-4.8-9.8-12.4-15.4-23.4-16.5c-13.7-1.3-24.4,3.9-32.2,14.8c-2,2.6-3.5,5.3-4.8,8.1
						c-0.6,1.1-0.8,2.4-2.4,2.7c-2.3,0.8-4.6,0.8-7,0.8c-10.6,0-21.4,0.1-32.1-0.1c-9.2-0.2-18.7-0.8-27.9-1.4
						c-2.6-0.2-3.4-0.9-3.4-3.8c0-13.6,0-27,0-40.5c0-7.4,0.3-14.8-0.8-22.1c-0.1-1.5,0-3.2,0.2-4.6c0.1-2.2,0-4.2,0.1-6.4
						c0.1-1.4,0.7-2.2,2.2-2.2c0.5,0,0.8,0,1.4,0c21,0,41.8,0,62.8,0c1.2,0,2.8-0.5,3.4,1.3c0.3,1.2,0.5,2.5,0.5,3.7
						c-0.1,7.4,0.2,14.8-0.1,22.1c0-0.1,0,0.1,0,0.1c0.9-1.6,2-3.3,3.5-4.4c0.8-0.3,1.1-1.1,1.3-2.1c0.7-1.1,1.3-2.3,2.5-3.2
						c1.2-0.7,2.3-1.6,2.7-3c0.8-0.9,1.5-2,2.6-2.6c1.2-0.3,2.1-1.1,2.6-2.3c1.3-1.3,2.8-2.6,4.6-3.4c1.4-0.2,2.6-0.9,3.5-2.2
						c1.3-2,4-1.5,5.5-3.2c1.2-0.1,2.2-0.8,3.2-1.4c4.3-2,9-2.5,13.6-3.8c8.8-1.5,17.7-1.8,26.5-0.6c0.7,0.1,1.2,0.1,2,0.1
						c2.4,0.9,4.8,1.2,7.2,1.6C423.9,233.2,426.8,233.4,428.7,235.9z"/>
					<path fill="#CCCC66" d="M475.4,294c1.5,7.8,2.7,15.7,3.4,23.6c1.2,3.7,2,7.5,1.3,11.3c0.2,3.6,0.2,7.1,0,10.9
						c0.2,4.7,0.2,9.5,0,14.1c0.2,3.4,0.2,6.7,0,10c0.2,3.5,0.2,7,0,10.4c0.1,4.7,0.6,9.2-0.2,14c-0.1,0.5-0.2,0.8-0.7,1.2
						c-0.3,0.1-0.6,0.1-0.8-0.1c-0.9-0.9-0.8-2.4-0.8-3.6c-0.1-2.3,0-4.6,0.1-6.9c-0.2-5.1-0.2-10.3,0-15.5c-0.2-5.4-0.2-11,0-16.4
						c-0.2-4.7-0.2-9.5,0-14.1c-0.3-5.4-0.3-5.4-5.7-5.4c-18.9,0-37.8,0-56.7,0c-1.5,0-3.2,0.1-4.7-0.5c-1.3-0.2-1.5-1.2-1.8-2.4
						c-0.3-2.2-0.7-4.1-1.1-6.2c-0.8-2.8-2-5.5-2.1-8.6c0.1-0.2,0.2-0.5,0.5-0.6c7.8-1.3,15.8-2.7,23.6-4.2
						c14.7-2.8,29.1-6.3,43.5-10.3c0.7-0.2,1.3-0.5,1.8-1.1C475.1,293.6,475.3,293.9,475.4,294z"/>
					<path fill="#CCCC66" d="M341.4,315.2c0,0.1,0,0.3,0.1,0.5c0.7,1.1-0.2,2.3-0.1,3.4c-0.7,3.4-1.1,6.9-1.2,10.3
						c0.2,3.5,0.2,7.1,0,10.5c0.2,4.7,0.2,9.5,0,14c0.2,3.4,0.2,6.7,0,10c0.2,3.5,0.2,7,0,10.4c0.2,4.7,0.2,9.5,0,14.1
						c0.2,3.4,0.2,6.7,0,10c0.2,4.6,0.2,9,0,13.7c0.2,4.8,0.2,9.8,0,14.7c0.1,2.4,0.2,4.6,0.1,7c0,1.1-0.1,2.2-1.1,2.9
						c0,5.5-0.1,11.2-0.1,16.7c0,0.8,0.3,1.6-0.3,2.5c-1.2-0.8-1.1-2.1-1.1-3.2c0-4.3-0.1-8.7,0.1-13.3c-0.2-6.4-0.2-12.9,0-19.4
						c-0.2-7-0.2-13.8,0-20.8c-0.2-4.9-0.2-9.8,0-14.7c-0.2-5.5-0.2-11.3,0-16.9c-0.2-4.7-0.2-9.5,0-14.2c-0.2-5.8-0.2-11.6,0-17.4
						c-0.1-1.5-0.1-3.2-0.1-4.7c0-3.6-0.6-4.1-4-4.1c-4.2,0-8.5,0-12.6,0c-14.6,0-29.2,0-43.8,0c-4.1,0-4.6,0.5-4.6,4.6
						c0,1.4-0.1,2.8-0.1,4.2c0.2,5.8,0.2,11.6,0,17.4c0.2,4.7,0.2,9.5,0,14.2c0.2,5.7,0.2,11.3,0,17c0.2,3.8,0.2,7.7,0.1,11.6
						c0,1.1,0.1,2.5-1.5,2.7c-1.1-0.6-0.9-1.6-0.9-2.7c-0.1-2.6-0.1-5.1,0.1-7.7c-0.2-4.6-0.2-9.1,0-13.7c-0.2-3.6-0.2-7.2,0-10.9
						c-0.2-4.6-0.2-9,0-13.7c-0.2-3.5-0.2-7,0-10.4c-0.2-5.5-0.2-11.3,0-16.9c-0.1-2.2-0.2-4.1-0.1-6.3c0-0.9,0.1-2.1,1.1-2.7
						c0-12.4,0-24.8,0.1-37.2c0-9.2,0-18.6,0-27.9c0.6,1.1,0.3,2.4,0.3,3.5c0,19.5,0,39,0.1,58.6c0,3,0.3,3.3,3.2,3.5
						c19.8,1.4,39.7,1.5,59.5,1.3C336.3,315.6,338.9,315.3,341.4,315.2z"/>
					<path fill="#CCCC66" d="M478.6,346.8c0,5.4,0,11,0,16.4c-0.9,1.3-2.5,1.1-3.9,1.1c-8.9,0-18,0-26.9,0c-10.2,0-20,0-30.1,0
						c-5.1,0-5.3,0.2-5.4,5.3c-0.1,1.3,0.6,3.2-1.5,3.6c-0.9-0.6-0.9-1.5-0.9-2.5c-0.1-2.4-0.1-4.7,0.1-7c-0.1-3.3-0.3-6.5,0.1-9.7
						c-0.2-2.3,0.3-4.3,0.7-6.5c0.2-1.2,0.8-1.8,2.1-2c0.9-0.1,2.1-0.1,3-0.1c19.5,0,38.8,0,58.4,0
						C475.7,345.7,477.4,345.2,478.6,346.8z"/>
					<path fill="#CCCC66" d="M410.7,373.2c0.8-2.3,0.5-4.7,0.3-7c-0.1-2.3,0.8-2.9,3-2.9c21.5,0.1,43.1,0,64.5,0
						c0,5.1,0,10.4,0,15.5c-0.9,1.3-2.5,1.1-3.9,1.1c-8.7,0-17.6,0-26.3,0c-10.5,0-21.1,0-31.4,0c-3.9,0-4.4,0.6-4.6,4.4
						c0,1.6,0.1,3.5-0.1,5.1c-0.1,0.8-0.2,2-1.4,2.1c-1.3-0.8-0.8-2.2-0.9-3.4c-0.1-4.7-0.6-9.5,0.3-14.1
						C410.1,373.8,410.4,373.4,410.7,373.2z"/>
					<path fill="#CCCC66" d="M410.7,391.6c0.8-3.3,0.3-6.5,0.3-9.9c0-2.3,0.8-2.9,3-2.9c21.5,0.1,43.1,0,64.5,0c0,3.5,0,7,0,10.3
						c0.5,1.5,0.3,3.3,0,4.8c-1.2,1.3-2.9,0.9-4.4,0.9c-16.9,0-33.7,0-50.7,0c-2.5,0-5,0-7.5,0c-2.9,0.1-3.6,0.8-3.7,3.7
						c0,0.9-0.1,2.1-0.2,3c-0.1,1.3,0.5,2.8-0.8,3.9c-0.2,0.2-0.6,0.2-0.8,0c-1.3-1.3-0.8-3.2-0.8-4.8c-0.1-0.8,0.1-1.8,0.1-2.8
						c-0.1-1.4-0.2-2.9,0-4.4C409.8,392.8,409.9,391.9,410.7,391.6z"/>
					<path fill="#CCCC66" d="M478.6,346.8c-21.4,0-42.8,0-64.3,0c-3.2,0-3.2,0-3.2,3.2c0,1.4,0.3,3-0.3,4.3
						c-0.2-0.1-0.5-0.3-0.7-0.7c-0.9-2.8-0.5-5.7-0.6-8.6c-0.1-1.8,0-3.6,0.1-5.4c0.1-2.5-0.8-5,0.7-7.4c1.2-0.8,2.6-0.8,3.8-0.8
						c20.1,0,40.3,0,60.4,0c1.3,0,2.9-0.2,3.9,1.1C478.6,337.4,478.6,342.1,478.6,346.8z"/>
					<path fill="#CCCC66" d="M410.2,328.9c0-0.8,0-2,0-2.8c22,0,43.9,0,65.9-0.1c2.1,0,2.7,0.8,2.6,2.6c-0.1,1.3,0,2.7,0,4
						c-22.7,0-45.2,0-67.9,0C409.1,331.6,409.1,330.4,410.2,328.9z"/>
					<path fill="#CCCC66" d="M478.6,394c0-1.5,0-3.2,0-4.7c0.1,0,0.2,0,0.3,0c0,6.3,0.1,12.5,0.1,18.8c0,6,0,11.9,0,18
						c0,3.5,0,7,0,10.4c0,5.5,0,11.3-0.1,16.9c0,0.8,0.5,1.6-0.5,2.4c-1.1-0.8-1.1-2.1-1.1-3.2c0-5-0.1-10.2,0.1-15.1
						c-0.2-6-0.2-11.9,0-18c-0.2-5.8-0.2-11.7,0-17.5c-0.1-1.8-0.2-3.6-0.1-5.4C477.7,395.6,477.8,394.7,478.6,394z"/>
					<path fill="#CCCC66" d="M163.2,184.1c-0.5-1.2-0.8-2.6-1.3-3.8c-0.3-1.5-0.7-3.2-0.9-4.7s-0.3-3.2-0.5-4.7c0-1.6,0-3.5,0-5.1
						c0.2-1.5,0.3-3.2,0.6-4.6c0.5-2,0.8-3.8,1.4-5.5c0.8-2.2,2-4.1,2.8-6.3c1.4-2.1,2.8-4,4.2-6.1c2.4-1.8,3.9-4.3,6.7-5.8
						c2.4-1.2,4.7-2.5,7.1-3.8c4.4-1.5,8.9-2.7,13.7-2.8c1.5-0.2,3.2-0.2,4.6,0c5.4,0.3,10.6,1.5,15.5,3.7c1.6,0.9,3.5,2.1,5.1,3
						c1.5,1.3,3.2,2.8,4.7,4.1c1.5,2,3.2,3.9,4.6,5.8c0.7,1.2,1.3,2.5,2.1,3.7c0.7,1.5,1.2,3.2,2,4.7c0.3,1.2,0.7,2.5,0.9,3.7
						c0.3,1.8,0.6,3.5,0.8,5.3c0,0.6,0.1,1.2,0.1,1.8c0,1.4,0,2.8,0,4.2c-0.1,1.4-0.3,2.8-0.5,4.2c-0.3,1.4-0.6,2.8-0.8,4.2
						c-0.5,1.5-0.9,3.2-1.4,4.7c-0.7,1.3-1.3,2.8-2.1,4.2c-0.8,1.2-1.6,2.6-2.6,3.8c-0.8,0.8-1.5,2-2.4,2.8c-1.3,1.2-2.7,2.5-4,3.7
						c-2.4,1.4-4.7,2.8-7,4.2c-1.5,0.6-3.3,1.2-4.8,1.8c-2.8,0.6-5.4,1.6-8.4,1.5c-0.9,0.3-2.1-0.1-3,0.3c-4.7-0.3-9.5-0.3-13.9-2
						c-2-0.7-3.7-1.3-5.4-2c-2.5-1.5-4.9-3.2-7.2-4.7c-2-2.1-3.8-4.1-5.7-6.2c-0.8-1.2-1.6-2.6-2.6-3.8
						C164.5,186.9,163.9,185.6,163.2,184.1z"/>
					<path fill="#CCCC66" d="M201.4,130.8c-1.5,0-3.2,0-4.6,0C198.2,130.1,199.9,130.1,201.4,130.8z"/>
					<path fill="#CCCC66" d="M164.7,295.3c0-3.3-0.1-6.7-0.1-9.9c0-16.4,0-32.6,0-48.9c22.7,0,45.2,0,67.9,0
						c0.5,0.8,0.2,1.5,0.2,2.3c0,23.4,0,46.8,0,70.3c-0.3,1.5-1.4,1.3-2.6,1.1c-6.2-0.8-12.4-2.1-18.6-3.2c-14.5-2.6-28.7-6-43-9.7
						C167.3,297.1,165.7,296.8,164.7,295.3z"/>
					<path fill="#CCCC66" d="M232.6,401.9c0,7.7,0,15.4,0,23c-0.9,1.3-2.5,1.1-3.9,1.1c-8.2,0.1-16.4,0-24.8,0c-11.7,0-23.4,0-35,0
						c-1.4,0-3,0.3-4.1-1.1c0-7.7,0-15.4,0-23c0.9-1.3,2.5-1.1,3.9-1.1c8.7-0.1,17.6,0,26.3,0c11.1,0,22.3,0,33.4,0
						C229.9,401,231.4,400.5,232.6,401.9z"/>
					<path fill="#CCCC66" d="M232.6,309.5c0,5.4,0,11,0,16.5c-0.9,1.3-2.5,1.1-3.9,1.1c-9.1,0.1-18.3,0-27.5,0
						c-10.7,0-21.5,0-32.2,0c-1.4,0-3,0.3-4.1-1.1c0-10.3,0-20.4,0-30.6c5.4,1.3,11,2.7,16.4,4.1
						C198.1,303.8,215.3,306.8,232.6,309.5z"/>
					<path fill="#CCCC66" d="M232.6,370.3c0,5.7,0,11.3,0,17c-0.9,1.3-2.5,1.1-3.9,1.1c-8.7,0.1-17.4,0-26.1,0
						c-11.2,0-22.4,0-33.6,0c-1.4,0-3,0.3-4.1-1.1c0-5.7,0-11.3,0-17c0.9-1.3,2.5-1.1,3.9-1.1c8.6-0.1,17.3,0,25.9,0
						c11.3,0,22.7,0,33.8,0C229.9,369.3,231.4,369,232.6,370.3z"/>
					<path fill="#CCCC66" d="M232.5,337.4c0,5.4,0,11,0,16.4c-0.9,1.3-2.5,1.1-3.9,1.1c-8.9,0.1-18.1,0-27,0c-10.9,0-21.7,0-32.7,0
						c-1.4,0-3,0.3-4.1-1.1c0-5.4,0-11,0-16.4c0.9-1.3,2.5-1.1,3.9-1.1c8.7-0.1,17.6,0,26.3,0c11.1,0,22.3,0,33.4,0
						C229.8,336.3,231.4,335.9,232.5,337.4z"/>
					<path fill="#CCCC66" d="M164.7,353.9c22.7,0,45.1,0,67.8,0c0,5.4,0,11,0,16.4c-22.7,0-45.1,0-67.8,0
						C164.7,364.9,164.7,359.3,164.7,353.9z"/>
					<path fill="#CCCC66" d="M232.6,439.6c0,5.4,0,10.6,0,16c-22.7,0-45.2,0-67.9,0c0-5.4,0-10.6,0-16c0.9-1.3,2.5-1.1,3.9-1.1
						c8.6-0.1,17.3,0,25.9,0c11.3,0,22.7,0,33.9,0C229.9,438.6,231.4,438.3,232.6,439.6z"/>
					<path fill="#CCCC66" d="M164.7,387.3c22.7,0,45.1,0,67.8,0c0,4.8,0,9.8,0,14.7c-22.7,0-45.1,0-67.8,0
						C164.7,397.1,164.7,392.1,164.7,387.3z"/>
					<path fill="#CCCC66" d="M232.6,439.6c-22.7,0-45.1,0-67.8,0c0-4.8,0-9.8,0-14.7c22.7,0,45.1,0,67.8,0
						C232.6,429.8,232.6,434.8,232.6,439.6z"/>
					<path fill="#CCCC66" d="M232.5,337.4c-22.7,0-45.1,0-67.8,0c0-3.8,0-7.5,0-11.3c22.7,0,45.1,0,67.6,0
						C232.5,329.7,232.5,333.7,232.5,337.4z"/>
					<path fill="#CCCC66" d="M338.5,399.1c0,7,0,13.8,0,20.8c-0.8,1.1-2.1,0.9-3.2,1.1c-4.4,0.1-8.9,0-13.4,0c-15.5,0-31.1,0-46.8,0
						c-1.4,0-3.2,0.3-4.3-1.1c0-0.5-0.1-0.8-0.1-1.3c-1.2-0.9-0.9-2.4-0.9-3.7c-0.1-1.3,0-2.7,0-4c0.5-3.2,0.8-6.4,0.8-9.6
						c0-2.2,0.8-2.9,2.9-3.2c0.8-0.1,1.5-0.1,2.4-0.1c19.4,0,38.7,0,58.2,0C335.5,398,337.2,397.6,338.5,399.1z"/>
					<path fill="#CCCC66" d="M270.9,419.9c22.7,0,45.1,0,67.6,0c0,6.5,0,12.9,0,19.3c-0.8,1.1-2.1,0.9-3.2,1.1c-4,0.1-7.9,0-11.9,0
						c-16,0-32.1,0-47.9,0c-1.5,0-3.4,0.5-4.6-1.1C270.9,432.6,270.9,426.3,270.9,419.9z"/>
					<path fill="#CCCC66" d="M478.6,437.3c0,6.2,0,12.2,0,18.3c-15.4,0-30.7,0.1-46.1,0.1c-7.1,0-14.1,0-21.2-0.1
						c-0.6-4.7-0.1-9.5-0.2-14.1c-0.1-5.4,0-5.4,5.4-5.4c19.3,0,38.4,0,57.6,0C475.7,436.1,477.4,435.8,478.6,437.3z"/>
					<path fill="#CCCC66" d="M478.6,437.3c-21.4,0-42.8,0-64,0c-3.4,0-3.4,0-3.4,3.3c0,5,0,10.2,0,15.1c-0.8-0.6-0.5-1.3-0.5-2.2
						c-0.1-5.7-0.1-11.4-0.1-17.2c-1.1-0.9-0.9-2.3-0.9-3.5c0.1-3.9,1.1-7.7,0.8-11.7c-0.1-1.6,0.9-2.6,2.6-2.8
						c0.8-0.1,1.6-0.1,2.6-0.1c19.5,0,38.9,0,58.6,0c1.5,0,3.2-0.3,4.3,1.1C478.6,425.4,478.6,431.3,478.6,437.3z"/>
					<path fill="#CCCC66" d="M270.9,439.2c22.7,0,45.1,0,67.8,0c0,5.4,0.1,10.9,0.1,16.4c-0.7,0-1.3,0.1-2.2,0.1
						c-21.2,0-42.3,0-63.5,0c-2.1,0-2.6-0.5-2.5-2.5C270.9,448.5,270.8,443.8,270.9,439.2z"/>
					<path fill="#CCCC66" d="M271.2,353.4c0-5.8,0-11.7,0-17.5c0.9-1.3,2.5-1.1,3.9-1.1c8.4-0.1,16.7,0,25.2,0c11.3,0,22.7,0,34,0
						c1.4,0,3-0.3,4.1,1.1c0,5.8,0,11.7,0,17.5c-0.8,1.2-2.3,0.9-3.5,1.1c-4.8,0.1-9.8,0-14.6,0c-14.9,0-29.9,0-44.7,0
						C274.2,354.5,272.5,354.8,271.2,353.4z"/>
					<path fill="#CCCC66" d="M338.5,367.6c0,5.7,0,11.3,0,17c-0.8,1.2-2.3,0.9-3.5,1.1c-4.6,0.1-9,0-13.7,0c-15.2,0-30.6,0-45.8,0
						c-1.4,0-3.2,0.3-4.3-1.1c0-5.5,0-11.3,0-17c0.9-1.3,2.5-1.1,3.9-1.1c7.9-0.1,15.8,0,23.7,0c11.8,0,23.6,0,35.5,0
						C335.8,366.4,337.5,366,338.5,367.6z"/>
					<path fill="#CCCC66" d="M271.2,384.5c22.4,0,44.7,0,67.3,0c0,4.8,0,9.8,0,14.6c-21.4,0-43,0-64.3-0.1c-2.5,0-3,0.8-3,3.2
						c0,2.9,0.5,5.8-0.3,8.6c0-0.8-0.1-1.5-0.1-2.4c-1.5-2.4-1.4-8.1,0.2-9.9c0.8-3.4,0.2-6.9,0.3-10.2
						C271.2,387.1,271.2,385.7,271.2,384.5z"/>
					<path fill="#CCCC66" d="M338.5,367.6c-22.4,0-44.7,0-67.2,0c0-4.7,0-9.5,0-14.1c22.4,0,44.7,0,67.2,0
						C338.5,358.1,338.5,362.8,338.5,367.6z"/>
					<path fill="#CCCC66" d="M338.5,335.9c-22.4,0-44.7,0-67.2,0c0-2.5,0-5-0.1-7.5c-0.1-2,0.8-2.5,2.6-2.5c6.4,0.1,12.6,0,19,0
						c14,0,27.8,0,41.8,0c3.9,0,3.9,0,3.9,4C338.5,332,338.5,334,338.5,335.9z"/>
					<path fill="#CCCC66" d="M410.6,426.3c0-4.7,0.1-9.5,0.2-14.1c0.5-2.2-0.2-4.3,0.3-6.7c0-1.2,0-2.5,0-3.8
						c0.9-1.3,2.6-1.1,3.9-1.1c7.7-0.1,15.5,0,23.3,0c11.9,0,23.8,0,35.9,0c1.5,0,3.3-0.3,4.3,1.1c0,5.8,0,11.7,0,17.5
						c-21.2,0-42.3,0-63.5,0c-3.7,0-3.8,0.2-3.9,3.8c-0.1,3.3,0.5,6.7-0.3,9.9C410.7,431,410.6,428.7,410.6,426.3z"/>
					<path fill="#CCCC66" d="M478.6,401.9c-22.5,0-44.9,0-67.4,0c0-1.6,0.1-3.3,0-4.9c-0.2-2.4,0.6-3.3,3-3.2c5.5,0.1,11.1,0,16.6,0
						c15.9,0,31.9,0,47.8,0C478.6,396.5,478.6,399.3,478.6,401.9z"/>
					<path fill="#CCCC66" d="M411.2,405.8c-0.2,2.3,0.5,4.4-0.3,6.7c0-0.1-0.1-0.3-0.1-0.5c0-2.1,0.1-4.1,0.1-6.2
						C411,405.8,411.1,405.8,411.2,405.8z"/>
				</g>
			</g>
		</g>
	</g>
</g>
</svg>
