<?xml version="1.0" encoding="utf-8"?>
<!-- Generator: Adobe Illustrator 17.1.0, SVG Export Plug-In . SVG Version: 6.00 Build 0)  -->
<!DOCTYPE svg PUBLIC "-//W3C//DTD SVG 1.1//EN" "http://www.w3.org/Graphics/SVG/1.1/DTD/svg11.dtd">
<svg version="1.1" id="Layer_1" xmlns="http://www.w3.org/2000/svg" xmlns:xlink="http://www.w3.org/1999/xlink" x="0px" y="0px"
	 viewBox="1843 1784.3 3599.9 3430.9" enable-background="new 1843 1784.3 3599.9 3430.9" xml:space="preserve">
<g>
	<circle fill="#FFFFFF" cx="3641.3" cy="3477.7" r="1290.4"/>
	<g>
		<g>
			<g>
				<g>
					<g>
						<path fill="#FFFFFF" d="M4960.7,3271.9c3.7,18.7,0,35.8-3.3,29.1c11.5,37.4,4.2,39.1,17.5,42.7c8.3,24.3,1.5,51.5-6,23.7
							c0,0,3.4,17.7,6.7,35.4c3.1,17.7,5.2,35.7,5.2,35.7s0.2-10.8,0.5-21.5c0.5-10.8-0.2-21.5-0.2-21.5
							c12.5,11.2-1.1,68.8,12.2,82.3c0,0-0.8-19.6-1.5-39.2c-0.4-9.8-0.8-19.6-1.1-26.9c-0.3-7.3-0.9-12.2-0.9-12.2l3.9,3.7
							c-5.2-17.6-6.2-52.2-5.7-64.5c2,1.7,4.8,0.2,6.1,14c-4.2-47.4-10.7-53.1-16.2-56.7c-6.3-3.5-10.9-5.3-19.7-43.2
							C4959.4,3257.6,4960.3,3263.5,4960.7,3271.9z"/>
						<path fill="#FFFFFF" d="M4972,3188.2l-20.7-29.2c0,0-0.6-3.4-1.4-8.5c-0.8-5.1-2-12-3.5-18.7c-2.9-13.5-5.9-27.1-5.9-27.1
							c-4.7,0.6-19.3-36.8-15.9-9.5c2.2,4.9,6.4,14.6,8.3,22.8c-5.7-1.6-11.9-18.7-17.4-33.2c-5.8-14.3-11.3-25.8-13.6-16.6
							c15.9,40.1,14.4,47.4,30,70.7c8.3,38.8,13.1,67.3,12.3,86.2c3.6,11.2,10,11.7,13.9,26.3c-0.7-3.2-1.4-6.2-2.2-9.9l14.8-4.3
							c-5.5-11.8-5.7-23.9-9.1-37.5c0,0,2.2,3.7,4.8,9.3c2.7,5.7,6.3,13.3,10,20.8c7.3,15.3,14.5,30.7,14.5,30.7
							c5.2-11.5,2.9-33-0.6-54.9c-4-21.8-10.1-43.7-10-57C4974.9,3182.6,4968.3,3125.2,4972,3188.2z"/>
						<path fill="#FFFFFF" d="M4958,3251.3c0.1,0.4,0.2,1.1,0.3,1.5C4958.2,3252.3,4958,3251.7,4958,3251.3z"/>
						<path fill="#FFFFFF" d="M2622.4,4196.4c7.6,10.2,12.7,11.1,15.2,11.6c0,0-5.2-7.3-13-18.1c-3.9-5.4-8.4-11.8-13.3-18.6
							c-4.5-7-9.3-14.5-14.2-22c-9.7-15-19.5-29.9-25.9-41.6c-6.7-11.6-11.1-19.3-11.1-19.3c-1.3,5.8,15,44.2-0.8,21.5
							c1.8,13.3,25.6,43,33.1,44.6l-10.8-5.5c24.1,23.8,24.6,50.9,8.4,35.6l1.6,2.3c0,0,19.6,14.5,39.1,28.9
							c9.5,7.3,19.7,13.9,27.2,18.8c7.5,4.9,12.5,8.3,12.5,8.3C2651.3,4215.6,2646,4229.2,2622.4,4196.4z"/>
						<path fill="#FFFFFF" d="M4886,3688.7c-1.9,18.7-0.9,21.3,0.9,19.5C4887,3701.3,4886.8,3694.8,4886,3688.7z"/>
						<path fill="#FFFFFF" d="M2689.1,4255c0,0,6.1,4.1,12.7,7.8c6.4,3.8,12.8,7.6,12.8,7.6
							C2705.3,4263.5,2695.9,4258.4,2689.1,4255z"/>
						<path fill="#FFFFFF" d="M2453.7,4166.5c-0.5,0.2-1,0.1-1.2,1.2l11.2,9.8c-0.1-0.2-0.2-0.3-0.2-0.3
							C2460,4173.3,2456.7,4169.8,2453.7,4166.5z"/>
						<path fill="#FFFFFF" d="M3215.3,4593c2.8,0.9,5.2,1.6,8.6,2.7C3220.8,4594.5,3218,4593.7,3215.3,4593z"/>
						<path fill="#FFFFFF" d="M2246.9,3781.1c0,0,6.3,17.2,12.6,34.5c6,17.3,13.4,34,13.4,34c-6.8-8.2,4,25.2-5,11.8
							c2.2,5.2,10.9,29.7,11.1,22.3l-4.3-14.2c22.7,33.1,20,10,49.1,66.2c-2.7-19.5-7-32.7-12.1-43.2c-4.7-10.7-10.2-18.8-15.8-27.9
							c-2.7-6.5-4.7-12-6.8-17.6c0,0-2.1-3.3-5.2-8.2c-3.2-4.9-7.3-11.6-10.9-18.4c-7.7-13.6-15.3-27.3-15.3-27.3L2246.9,3781.1z"/>
						<path fill="#FFFFFF" d="M4491.5,4505.3l0.1,1.2C4491.9,4505.9,4491.7,4505.5,4491.5,4505.3z"/>
						<path fill="#FFFFFF" d="M4491.8,4511.6l-0.3-5C4490.1,4510.5,4480.1,4520.6,4491.8,4511.6z"/>
						<path fill="#FFFFFF" d="M2676.3,4251.9c2.3-0.8,6.8,0.3,12.7,3.1l-18.6-12.2C2672.2,4245.3,2674.3,4248.7,2676.3,4251.9z"/>
						<path fill="#FFFFFF" d="M2624.7,4230.2l-33-43.4l-16.3-13.3C2588.3,4190.1,2604.6,4208.6,2624.7,4230.2z"/>
						<path fill="#FFFFFF" d="M3143.7,4554.7c97.4,41.7-29.9,2.8,13.2,26.1c27.8,10.9,40.6,7.1,58.4,12.2
							c-40.4-12.7-35.5-17-30.6-21.5c4.9-4.7,9.5-8.8-29.3-24.6c8.1-3.5,23,0,39.2,5.1c16.4,4.9,33.8,12.4,46.3,19.2
							c13,10.8,5.7,10.9-6.3,8.8c-11.9-2.3-28.4-6.5-34.1-2.3c32.3,10.4,27.3,6.6,43.2,4.9c24.6,9.7,51.4,15.4,75.7,19.6
							c12.1,2.3,23.3,5.2,33.3,8.5c10,3.1,18.7,7.2,25.4,13.1c37.7,6.3,36.7-1,59.1-3.3c3.2-6.1-10.2-10.2-25.8-14.3
							c-15.5-4.8-33.2-10.1-38.7-16.6c2.5,1.7,7.4,5.1,5.4,6.5c0,0-7.7-2.5-15.4-4.9c-7.7-2.3-15.3-5.3-15.3-5.3
							c28.4,12.3-7.4,11.8-23.6,7.9c-11.6-3-34.8-9-30.5-11.7c0,0,4.5,0.9,9.1,1.3c4.6,0.6,9.1,1.1,9.1,1.1
							c-10.7-4.9-23.5-6.8-36.5-9.2c-12.9-2.4-26.3-4.7-36.5-12.5c-0.2-3.2,9-1.1,11-2.5c-28.7-1.7-53.8-11-93.7-22.8l26.9-2
							c-35.9,0.7-101.7-36.9-141.5-70.1c3.7,4.8,11.9,11.2,5.3,10.3c-27.7-13.1-41.8-33.4-26.4-31.4c-7.6-1.8-17.2-6.6-27.4-13.9
							c-10.1-7.4-21.2-16.5-32.6-25.8c-11.5-9.1-22.3-19.6-33.5-27.7c-11.2-8.2-21.8-15.1-31.5-19.2c0,0-11.5-4.5-28.7-11.2
							c-17.4-6.6-39.5-17.4-62.7-27.7c-22.2-11.3-45-22.8-61.7-32.2c-16.6-9.7-27.6-16.1-27.6-16.1c6,4.4,12.2,9.5,17.8,15.2
							c3.1,20.9,10.7,27.5-18,10.9c24.6,19.4,24.1,3.9,55.8,37.1c-16.3-9.2-29.6-3.1,1,29.5c22.2,17.3,43.3,32,65,43.7
							c21.1,12.4,42.4,22,63.6,31.1c42.1,18.3,84.7,32.2,131,51.4c-0.7,4.6,16.3,16.2,37.4,29.2c21.4,12.5,47.4,25.6,64.2,34.8
							c-17.2,2.4-43.9-8.3-71-20.6c16.1,9.5,44.5,24.4,65.8,35L3143.7,4554.7z"/>
						<path fill="#FFFFFF" d="M2913.5,4451.9c1.7,2.2,3.8,4.2,5.9,6.2C2918.6,4456.6,2916.9,4454.7,2913.5,4451.9z"/>
						<path fill="#FFFFFF" d="M3053.5,4527.7c-0.5,0.1-0.5,0.4-0.8,0.6c2.8,1.4,5.6,2.7,8.5,4.1
							C3058.5,4530.8,3055.5,4528.9,3053.5,4527.7z"/>
						<path fill="#FFFFFF" d="M2677.6,4284.9c-6.4-3.4-10.1-6.8-16.2-10.5c3.2,2.8,7.1,6.3,10.8,9.7
							C2676.3,4286.8,2678.7,4287.8,2677.6,4284.9z"/>
						<path fill="#FFFFFF" d="M2675.3,4257.7l5,0.5c-1.5-2.4-2.6-4.1-3.9-6.3C2674.3,4252.5,2673.6,4254.2,2675.3,4257.7z"/>
						<path fill="#FFFFFF" d="M3524.6,4737.9l10.9-1.1C3529.1,4736.5,3526.2,4737,3524.6,4737.9z"/>
						<path fill="#FFFFFF" d="M3247.9,4612.8c-35.5-11.3-8.8,11.5-58.4-7.8l14.2,6.5c-38.1-7.7-98.3-38.7-138.7-59.7
							c6.8-1.9-21-19-12.4-23.5c-13.8-6.9-27.6-13.5-40.1-19c-12.2-5.8-23.4-10-32.4-10.8c-15-12.2-42.7-23.5-60.8-40.5
							c5.6,10-38.5-7.1,14.1,23c-4.4-2.3-2.5,0.4-6.8-1.8c27.5,28.6,47.8,26.5,75.6,44.5c14.3,14.9-31.6-11.1-16.8,0.8
							c18.5,9.9,46.7,26.7,70.5,40.1c24.4,12.2,44.6,20.3,47.4,11.5c27.7,12,30.1,16.8,36.9,23.8c12.9,0.6,29.1,5.9,47,12
							c17.7,6.4,36.5,15.1,54.5,21.5c35.6,14.3,66.8,23,69.9,11.1c-8.4-2-19.5-4.7-31.5-7.6c-11.9-3.4-25-6.5-37.9-8.1
							L3247.9,4612.8z"/>
						<path fill="#FFFFFF" d="M2721.9,4333c1.6,1.8,3.8,4.1,5,5.6C2725.5,4337,2723.6,4334.9,2721.9,4333z"/>
						<path fill="#FFFFFF" d="M2532.1,3892.9l20.7,8.4c8.6,19.8,15.8,36.3,22.9,50.9c7,14.6,12,28,18.4,40.5
							c6.1,12.6,12,24.9,18.5,38.2c6.8,13.2,15,27.1,24.4,43.4c1,6.1-4.8-1.1-7.7-4.8c28.1,45,70.9,112.6,101.8,137.4
							c9.6,13.8,35.7,49.9,20.9,40.6c6.5,5.3,13.7,11.5,19.5,19.1c-2.7,5.8-15.1-15-19.1-12.2c4.7,6,5.7,9,8.2,9.1
							c-12.1-6.4-5.9,23.3-45.2-22.5c-4.4-26.5,28.4,30.6,30.9,10.3c-12.8-15-15.8-9.5-18.3-9.6c-16-19.6-12.2-21.8-8.8-22.8
							c-9.4-4.9-24.6-33.1-37.5-40.1c-29.4-39.3,10.7-4.4-7.9-30.3c0,0-5.8-1.6-11.6-3.2c-5.9-1.6-11.5-3.4-11.5-3.4l-26.4-46.5
							c-21.6-32.1-25.9-26.5-31.3-21.9c-5,4.4-12.5,8.9-37.3-29.4c6.2,3.5,8.1-4.5,6.5-18c-1.8-13.4-6.8-32.5-13.5-52.2
							c5.3,11.2,14.8,26.2,25.4,41.6c10.2,15.5,19.9,32.2,26.2,47c-11.9-44.6,32,52.7,32,25.6c-16.3-15.7-36.1-47-45.4-74.4l5.5,7.7
							c-12.8-27.4-36.7-41.7-48.3-82.9c-8.1-19.3-2.7-17.3,1.9-15.2C2537.6,3907.8,2529,3894.1,2532.1,3892.9z M2551.7,3933.9
							c0,0,2.3,6.6,4.9,13c2.5,6.5,5.1,13,5.1,13C2561.3,3952.9,2556.7,3943.6,2551.7,3933.9z"/>
						<path fill="#FFFFFF" d="M4804.9,2773.6c1.2,3,2.7,6.4,3.8,9.1C4808.2,2780.5,4806.6,2777.1,4804.9,2773.6z"/>
						<path fill="#FFFFFF" d="M2445.6,2818l9.7-15.9C2451.2,2808.1,2448.2,2813.2,2445.6,2818z"/>
						<path fill="#FFFFFF" d="M2666.1,2451.8l18.1-22.1C2676.2,2437.6,2670.9,2444.7,2666.1,2451.8z"/>
						<path fill="#FFFFFF" d="M4675.7,2593.9l-0.5-0.8c-1.2-0.9-2.2-1.7-3.4-2.7L4675.7,2593.9z"/>
						<path fill="#FFFFFF" d="M3441.8,2112c4.4,0.7,9.2,1.3,15.7,1.4C3456.5,2112,3450.7,2111.6,3441.8,2112z"/>
						<path fill="#FFFFFF" d="M2662.8,2455.9c0.6-0.4,0.9-0.6,1.4-1c0.6-1,1.2-2,1.9-3.1L2662.8,2455.9z"/>
						<path fill="#FFFFFF" d="M2326.3,2969c-1,4-2,7.7-3.1,12C2325.1,2975.5,2325.9,2972,2326.3,2969z"/>
						<path fill="#FFFFFF" d="M2376.2,2960.1c-1.2,4.2-2.3,8.2-2.9,11.4L2376.2,2960.1z"/>
						<path fill="#FFFFFF" d="M2250.1,3594.8l4.1,25.4C2253.1,3607.7,2251.6,3600.2,2250.1,3594.8z"/>
						<path fill="#FFFFFF" d="M2343.1,3019c0.2,1.6,0.3,3.2,0.7,4.4C2344.5,3019.9,2344.1,3018,2343.1,3019z"/>
						<path fill="#FFFFFF" d="M4837.6,2933c-0.3-0.5-0.5-1-0.6-1.3l-1.9,0.2L4837.6,2933z"/>
						<path fill="#FFFFFF" d="M4881.4,2978.7c3,6.4,6.1,13.1,9.1,19.6C4887.6,2990.9,4884.3,2983.8,4881.4,2978.7z"/>
						<path fill="#FFFFFF" d="M3806.3,2132.2c6.3,3,21.3,7.6,13.8,9.1C3833,2139.8,3833.2,2132.1,3806.3,2132.2z"/>
						<path fill="#FFFFFF" d="M4701.4,2875.2c3.6,2.1,7.2,5.2,10.7,8.3C4706,2877.3,4700.8,2871.9,4701.4,2875.2z"/>
						<path fill="#FFFFFF" d="M4712.1,2883.5c3,3,6.2,6.3,9.1,8.9C4718.2,2889.2,4715.1,2886.1,4712.1,2883.5z"/>
						<path fill="#FFFFFF" d="M3639,2248c-1.5-1-3.8-1.8-6.9-2C3633,2248.1,3635.6,2248.4,3639,2248z"/>
						<path fill="#FFFFFF" d="M4894.6,3015.5c4.9,2.1,42.5,89.3,18.8,13.3c11.3-0.7,22.2,46.7,29.9,66.7c-1.7-15.7,9.1,5.4,11.6-0.3
							c-4.4-9.9-10.4-21.3-15.6-38.1c2.3-9.3,14.5,15,18,35.9c-1.4-26.7,17.6,29.3,11.9-7.5c-26.7-74.3-50.8-125.3-88.7-168.2
							c5.2,9.8,10.5,19.9,15.8,30.1c4.8,10.4,9.5,20.9,13.9,31.2c4.4,10.4,8.5,20.6,12.1,30.4c3.1,10,5.7,19.6,7.5,28.6l-14.1-11.2
							c-2.2-20.9-8.6-36.2-14.8-51.4c-6.3-15.2-13.7-29.8-21.8-48.2c0,0,2,5.3,5.1,13.2c3.2,7.8,6.8,18.6,10.3,29.3
							c7,21.4,14.1,42.8,14.1,42.8c5.6,42.7-4,16.1-18-13.7C4893.3,3005.9,4895.4,3013,4894.6,3015.5z"/>
						<path fill="#FFFFFF" d="M4793.8,2992.9l0.3,1.4c0.8,1,1.5,2.3,2.2,2.9L4793.8,2992.9z"/>
						<path fill="#FFFFFF" d="M2446.4,3574.4l4.2,6.5C2448.6,3575.4,2447.3,3573.7,2446.4,3574.4z"/>
						<path fill="#FFFFFF" d="M4816.1,2927.6L4816.1,2927.6C4815.8,2927.2,4815.8,2927,4816.1,2927.6z"/>
						<path fill="#FFFFFF" d="M2445.5,3403.8c0.2,0.3,0.5,0.5,0.8,1C2446,3404.1,2445.7,3404.1,2445.5,3403.8z"/>
						<path fill="#FFFFFF" d="M2239.7,3337.6c-0.5,0.3-0.9,0.4-1.4,1.2C2238.5,3343.1,2239.1,3341.1,2239.7,3337.6z"/>
						<path fill="#FFFFFF" d="M2444.6,3403.6c0.3,0,0.6-0.1,0.9,0.2C2445.1,3403.6,2444.9,3403.3,2444.6,3403.6z"/>
						<path fill="#FFFFFF" d="M2741.2,2632.6c0,0-3.1,0.8-7.2,2.8C2733.5,2637.2,2735.4,2636.7,2741.2,2632.6z"/>
						<path fill="#FFFFFF" d="M2622.6,2754.7c-0.9,0.7-1.5,1.1-2.7,1.9L2622.6,2754.7z"/>
						<path fill="#FFFFFF" d="M3766.6,2083.8c-9.4-0.9-16.5-1.2-22.5-1.2C3751,2083.4,3758.4,2083.9,3766.6,2083.8z"/>
						<path fill="#FFFFFF" d="M2446.2,3404.7c0.9,1.8,1.8,4.2,2.8,8.3C2447.9,3408.6,2447,3406.2,2446.2,3404.7z"/>
						<path fill="#FFFFFF" d="M2907.2,2424.1c-1.3,1.4-2.5,2.7-3.8,4l2.9-1.5L2907.2,2424.1z"/>
						<path fill="#FFFFFF" d="M2987.7,2380.5c-2.1,2.5-2.8,4.2-3.8,5.9c13-9.8,33-21.3,49.9-31.7c17.3-9.7,31.5-18.6,32.4-24.9
							c-4.9,2.6-20.8,9.2-34.8,13.8c-13.9,4.9-25.7,8.5-22.9,3.3c-18.7,13.5-51.8,24.4-61.1,33c34.8-15.6,8,5.3-11.3,21.8
							c-21.1,9.9-0.9-9.3-18.8-0.2l-43.1,32l38.8-25.9l-5.8,16.4c1.2-1.3,2-2.2,3.3-3.5c30.9-24.3,34.9-21.3,38.2-19.7
							C2952.3,2403,2955.4,2404,2987.7,2380.5z"/>
						<path fill="#FFFFFF" d="M2984,2386.4c-3.9,2.9-7,6-9.3,8.7C2980.7,2391,2982.6,2388.6,2984,2386.4z"/>
						<path fill="#FFFFFF" d="M3278,2273.8c3.7-1.4,7.7-3,12.6-5.2C3288.2,2269.6,3282.7,2271.9,3278,2273.8z"/>
						<path fill="#FFFFFF" d="M2555.7,4139.8c1.5-2.6-15.4-44.7-21.8-40.2c6,12,12,24.1,18.1,36.3L2555.7,4139.8z"/>
						<path fill="#FFFFFF" d="M4130.8,2271.2c-4.7-2.1-9.5-4.1-14.3-5.9c-1.2-0.1-2.3-0.1-3.2,0
							C4115.8,2267.6,4125.8,2270,4130.8,2271.2z"/>
						<path fill="#FFFFFF" d="M3019.1,2336.8c-6.8,5.3-9.4,8.2-10.6,10.3C3013,2343.8,3016.9,2340.4,3019.1,2336.8z"/>
						<path fill="#FFFFFF" d="M4126.6,2289.2c5.2,4.4,12.8,10.9,12.8,14.2c12,5.5,22,5.6,34.8,9.8
							C4159.9,2308.3,4144.6,2299.4,4126.6,2289.2z"/>
						<path fill="#FFFFFF" d="M4175.3,2313.5l-1.1-0.3C4174.6,2313.4,4175,2313.4,4175.3,2313.5z"/>
						<path fill="#FFFFFF" d="M2567.5,4164.2c2.5,3,5.2,6.1,7.8,9.2l-5.1-4.2c5.1,9.1,9.7,18.5,15.1,27.4c2.6,2.8,5.3,5.8,8.4,9.8
							c-1.4-1.5-3-2.3-4.2-2.6c1.7,2.9,3.4,5.8,5.1,8.7c20.3,16.3,62.7,61,77.6,71.4c18.1,15.2,37.4,36.1,49.6,49
							c-11.6-11.8-26.6-27.8-25.8-19.8c9.1,14.4,14.7,26.3,23.8,39.4c9,13,21.5,27.3,46.9,43.1c0,0-6.2-5.9-12.5-11.8
							c-6.3-5.8-12.3-11.9-12.3-11.9s4.1,2.8,10.5,6.5c6.3,3.8,14.8,8.9,23.2,14c8.4,5,16.7,10,23,13.8c6.5,3.5,10.8,5.8,10.8,5.8
							c7.7,11.4-0.8,6.8-12.9-1.1c-11.8-8.2-26.7-20-32.7-21.4c48.2,35.4,73.1,83.5,104.3,89.2c-2.1,9.1-6.5,25.7,26.9,47.9
							c-17.5-24.7,23.1,8.6,10.2-13.7c13.8,3.9,34.2,27.9,39.9,23.4l-5.1,1c24.5,24,44.6,34.7,62.3,39c17.6,4.7,31.8,5,46.1,8.4
							c18.1,8.3,33.6,15.8,47.5,23c14.1,6.7,26.8,12.7,39.1,18.6c12.1,6.2,24.1,11.6,36.9,16.8c12.8,5.2,26.1,10.9,41.5,16.1
							c0.3,6.3,11.9,27.2,37.3,35.2c14-3.2,72.3,9,80.5,0.6c-43.7-16.5-39-2.1-66.8-7.4c-18.9-17.6,1.1-10.8-26.8-26.9
							c22.5,13.7,111.5,27.7,136.7,42.7l-9.9-0.9c21,8.3,32.7,18.2,48.8,26.2c8,4,17.2,7.6,29.1,10.1c12,2.3,26.9,2.6,46,1.3
							c0,0,9.1-0.4,18.2-0.8c9.1-0.3,18.2-1.5,18.2-1.5c-1.8,0.9-2.1,2-3.1,2.9c58.4,5.5,42,16.6,107.5,9c-5,0.6-1.9,1.8-7,2.3
							c18.6,3.7,37.3,1.4,54.8-1.5c17.5-2.8,33.6-6.6,47.4-9.2c17.6,7.2-3.5,8.6-13.8,15.6c66.2-0.3,134.8-25,171.9-43
							c0,0,2.6-0.2,6.6-0.4c4-0.1,9.2-0.6,14.4-1.2c10.4-1.1,20.9-2.3,20.9-2.3c-23.2,9.5-51.7,23.3-43.3,27
							c22.7-5.7,17.3-8.9,49.7-14.7c-4.2,6.5-16.6,14.7-30.6,24.7c69.3-6.4,10.6-22.1,61.4-16.7c20.9-5.5,30.8-16.8,31.2-23.6
							c0,0,9.9-0.6,19.9-1.2c10-0.4,19.9-1.6,19.9-1.6c1.5-9.7,47-24.1,75.4-37.7c2.1-4.9-26.4,1.3-36.5,7.9
							c0.2-6.4,29.6-21.8,49.3-29.2c7.1,7.2,38.6-7.9,66.5-20.7c27.4-13.8,51-26.1,44.6-11.1c21.1-11.7,43-26.8,66.1-41
							c22.4-15.3,45.7-30.7,66.9-47c21.3-16.3,41.7-32,58.7-47.6c8.5-7.7,16.6-14.9,24-21.5c7-7,13.2-13.6,18.6-19.4
							c9.4-5,22.2-14.3,30.9-19.7c8.4-5.7,12.9-7.1,6.5,4.8c14-13.4,25.6-25.9,35.9-38c10.2-12.2,18.5-24.5,27.2-36.3
							c8.8-11.7,17.2-23.6,26.5-36.3c9.2-12.7,20.7-24.8,33.1-39.3c2.8-1.8-2.5,5-7.7,12.4c-5.6,7.2-11.1,15-8,15.8
							c26.6-42.5,63.8-65.8,102.6-133.8c-6.8,11.2-5.8,16.4-5.3,18.9c-3.1-0.5,12.2-30.2,20.6-48.5c7.2-8.9-6.2,13.8-1,9.6
							c42.9-61.9,69.1-123.8,90-186.3c21.1-62.6,35.1-126.8,52.4-198.5c-9.2,41.1-3.8,59.3,1,61.1c0,0,2.9-10.1,5.8-20.1
							c3-10,5.1-20.3,5.1-20.3c-2.2-17.1,5.8-47.4,5.4-74.1c2.7-2.7,7.3-14.9,7.7-1.6c13.7-39.6,11.6-72.8,9.6-107.5
							c-1.7-17.4-3.5-35.3-4.1-55c-1.4-19.8-1.9-41.3,0.3-66.3c0,0,5.1,30.5,10.1,61.1c3.6,31,7.2,62,7.2,62l10.4-29.8
							c0,0,1.6,13.8,3.2,27.7c1.9,13.9,2.4,27.8,2.4,27.8c10.5-32.1-3.3-61.8,6.1-65.1c2,7.1-0.1,23.7,4.6,24.6
							c5.6-31.4,0.1-34.3-1.3-58.1c4.5,15.8,5.9,35.4,6.9,57.1c1.4,21.7,0.1,45.2-1.6,68.8c-3.3,47.3-11.6,94.6-17.4,127.6
							c-1,10.6-2.2-9.8-3.5-12c-2.8,13.4-6.5,23.7-10,34.9c-3.9,11.2-8.1,23.1-11.2,40c1.4,22.6,9.8-14.1,15.2-30.3
							c5.7,3.9,3,12.1-1.3,30.6c-8.5,1.8-33.8,98.7-54.3,116.8c-16.9,47.3-11.7,45.4-5,43.5c6.2-2.1,11.9-4.7-10.4,39.9
							c0,0-5.4,5.7-10.7,11.3c-5.6,5.5-11.2,10.9-11.2,10.9c-17.7,55.1-50.8,123.2-90,175.8l7.7-11.4c1.8-9.9-9.2,1-14.8,5.2
							c-16,18.8-27.7,39-40,56c-12,17.1-22.7,32.4-36.6,40.1c-26.9,50.4-88,123.2-134.3,169.3c-10.9,0.7,3.3-15.2,21.8-34.3
							c17.7-20.1,40.2-42.9,46.3-55.6c0,0-2.5,2.6-6.3,6.6c-4,3.8-9.2,8.8-14.5,13.9c-10.6,10.1-21.1,20.2-21.1,20.2
							c26-25.1,33.1-38.3,42.2-59.3c-18.1,17.8-29.1,30.5-39,44.2c-9.8,13.8-19.2,27.6-36.7,44.6c0.5-5.2-5.8-2.6-22.8,11.9
							l0.8,10.9c-0.8-0.3-3,0.9-8.9,4.7c0,0-16.2,14.4-32.4,28.8c-8,7.4-16.4,14.2-22.8,19.2c-6.3,5.1-10.6,8.5-10.6,8.5
							c17-7.8,22.8-1.6,40.6-15.5c-9.4,0.9,5-11.7,22.8-25.5c-12,16.6,20.4-9.8,22.9-6c-17.8,14.2-37.5,30-55.8,44.6
							c-18.7,14-35.7,27.2-47.2,36.8l-12.6-1.4c-18.8,10.7-36.9,23.6-54.2,34.5c-17.4,10.7-33.4,20.5-46.7,26.8l5.9-8.4
							c-23,11.8-45.8,23.5-67.9,34.9c-22.7,10.3-44.9,19.9-67.5,25.2c-38.9,26-91.3,53-125.4,72.8c-8.5,7.4-42.2,15.2-80.4,20.4
							c-37.9,6.8-79.9,10.9-104.8,22.8c-3.6-0.2,34.5-14,51.3-21c-34.4,4.8-60,22.1-72.4,12.2c39.1-2.9,37.5-6.4,30.8-7.8
							c-6.8-1.9-18.9-3.7-1.9-8.3c-17.9,3.2-36.4,5.5-52.4,8.8c-16.1,3.3-29.9,6.1-38.7,8.6c58.8-5.9-19.4,18.1,39.8,6.2
							c-22.5,8.1-50,12.7-78.7,16.6c-28.7,3.5-58.8,3.7-86.8,2.5c0.6-4.7-6.3-7.1-27-9.6l-16.9,6.4c-26-1.9,50.5-6.8-1.7-10.6
							c-13.5,2.9-30.4,2.9-48.5,1.6c-18.1-1.4-37.4-2.5-55.6-5.4c-18.2-2.5-35.5-4.6-50-4.9c-14.4-0.6-25.9,0-32.7,4.4
							c-19.6-7.9,0.2-6.5,17.2-5.9c17.1,0.6,31.6-0.2,2-10.1c36.4-2.3,84.3,12.8,97.1,2.2c-35,0.4-11.8-10.2-33.9-12.8l-39.2,1.7
							l8.5,1.5c-16.5,0.8-35.2-1-55.3-3.6c-10-1.4-20.4-2.9-31-4.4c-10.5-2.3-21.3-4.6-32.1-6.9c-10.9-2.5-21.8-5-32.9-7.6
							c-10.9-3.1-21.8-6.2-32.6-9.3s-21.6-6.1-32.1-9.1c-10.4-3.4-20.7-6.7-30.6-9.9c-70.3-12.5-123.1-16.7-199.7-57.3
							c12.8,3-2.5-6.6-14.1-15c-11.6-8.7-19.4-16.3,7.1-8.7c-31.8-23.9-68.8-37.8-71.9-34.4c29.2,19.2,9.8,7.5,34.1,24.3
							c-10-2.6-25.2-9.3-39.2-17.8c-13.9-8.7-27-18.3-33.9-24.9c7.1,5.1,4.9,2.3,7.5,1.9c-33-25.8-20-6.1-46.3-21.5
							c-1.6-6.1-14.9-16.2-30.3-27.2c-14.9-11.7-31.8-24.5-41.4-34.7c0,0-9.8-3.7-19.2-8.3c-9.5-4.4-18.9-8.8-18.9-8.8
							c21.7,8.7-27.6-27.1-27.2-36.9c-24.2-16-49.1-25.5-77.8-59.3c15.4,10.4-23.7-32.9-17.9-39c-10.9-15.4-22.4-28-34.1-39.4
							c-11.2-11.8-22.6-22.4-34-33c-11.6-10.4-22.2-21.5-32.2-34c-9.8-12.5-19.8-25.8-27-42.4c2.7,0.9,14.6,10.2,5-8.4
							c-10.4-12.7-25.8-36.9-35-51.8l0.4,0.4c-0.2-0.3-0.4-0.4-0.6-0.7c-4.6-7.2-8.2-11.4-9.9-10.7c-10.7-11.2-19.8-19.2-30.4-30.7
							c-10.1-11.7-21.8-26.9-38.4-52.3c-5.7,7.6,20,52,33.4,69.6l17,12.2c-1.2,11.1,6.1,22.6,14,33c8.3,10.2,17.4,19.1,19.2,26.1
							c-8-5.6-17.8-15.1-27.4-27.8c-9.6-12.7-19.9-28-30.4-44.2c-20-32.9-40.4-69.5-57.2-96.6c3.4,40.6,40.9,117,81.3,178.5
							c0,0-3.2-7.5-6.5-15c-3.3-7.5-6-15.2-6-15.2s4.6,8.4,10,16.4c5.2,8.1,10.4,16.1,10.4,16.1s-3-9.1-6-18.1
							c-3.2-8.9-5.6-18.2-5.6-18.2c8.3,16.1,18,29.9,27,43.6c9,13.7,18.2,26.8,27.6,40.1c-22.5-31-19.2-50.8-9.6-31.4
							c16.7,39.8,29.9,32.9,48,59.4c-9.8-15.1-23.1-34.1-10.4-24.8c13.7,29.1,26.3,45,37.3,61.1c11,16.2,22.5,30.8,37.3,56.5
							c3.3-7.7,14.8,6.2,28.8,20.6c13.8,14.5,28.8,30.6,36,29.5l-17.5-20.1c0,0,11.3,8.7,22.7,17.3c11.4,8.6,23.2,16.5,23.2,16.5
							c29.6,44.6-42-23.3,10,37.8c54.2,50.4,62.8,37.3,108.6,71.8c-10.1-2.4-25.3-9.3-42.6-19.2c-17.1-10.2-35.6-24.4-53.3-39.8
							l18.7,21.8c-15.1-5.5-62.4-50.7-84.7-74.4c22.4,15.6,18.5,10.5,7.5-1.1c-10.7-11.9-28.3-30.7-33.8-42.2
							c-9.2,2.3,15.4,26.7-17.4,1.4c13.2,13.9,20.7,21.8,29.2,30.7c8.4,8.9,17,19.6,33.7,37.3c-18.7-18.6-32.2-32-44.7-41.3
							c-12.2-9.5-23.1-15.1-32.7-21.4c-9.8-6.1-19.4-12-29.9-21.1c-10.7-9-22.2-21.5-35-41.1c29.5,31.4,0.1-19.3,0.3-25.7
							c-13.7-14.7-38.1-47.4-49.8-59.7l-1.1,19.3c-18.3-20.5-23.5-39.2-30.5-57.7c-3.4-9.3-7.3-18.5-12.8-28.5
							c-5.2-10.2-12.3-20.9-22.8-32.9c-10.3-3.5,25.3,49.1,18.7,39.9c-24.8-35.2-37.3-62-45-89.4c-4.1-13.6-7.7-27-11.6-41.6
							c-3.5-14.8-7.4-30.6-13.1-48.7c-4.8-2.5-12.2,1.7-28-20.5c9.9,4.9,5.8-14.5,22,10.8c-6.9-24.4-22.5-50.1-33.2-70
							c7.4,25.3,3.2,21.2-4.2,9.8c-7.2-11.4-16.1-30.7-19.8-34.6c-7.6-26.4,9.5,5.7,16.9,20.8c-5.3-21.5-3.4-49.3-17.7-57.8
							c3.5-1.5,13.2,11.5,23.8,29.3c5.3,8.9,10.8,19.1,16,29.3c5.6,10.1,10.8,20.2,14.9,29.3l-8.7-25.5
							c10.4,15.9,10.6,19.5,19.4,44.8c-4.1-26.5,3-26.4,10.2-22.8c0.2,3.6-2.4-1.1-2.2,2.3c5.9,20.6,14.1,34.9,16,28.7
							c16.8,13.5-5.3-29.6-5.5-44.8c-4.5-9.8-9.4-19.5-13.4-29.3c0,0-16.6-23.4-33.2-46.9c-16-23.9-31.3-48.9-31.3-48.9
							c-8.8-22.4-10.9-39.9-12.6-55.7c-1.4-16-2-30.5-2.4-48.6l-10.4-8c-7.2-41.1-8.7-80.4,5.7-55.6c-2.6,1.9-1.6,7.2-0.3,16.1
							c1.4,1,2.6,2.9,3.7,5.3c0.7,0.8,1.3,1.1,1.9,1.8c-9.7-43.1-14.1-70.5-15-72.9c22.1,72.7,16.3,1.7,33.4,12.4
							c0,0-0.9-4.6-2.2-11.4c-1.4-6.8-3.2-16-4.4-25.2c-2.7-18.4-5.4-36.8-5.4-36.8c-1.5,45.4-7.6,1.4-10.9-14.6
							c8.4-4.8-2.3-60.1-0.8-86.5l1.8,1.9c3.7-24.2,3.3-66.6,4-96.9c-2.9,1.3-14.9-38.9-20.4-58.9c-9.5,52.2-9,20.8-15.2,24.4
							c0.8-5.5,2.4-15.3,1.4-16.6c-1.5-7.9-4.6,9.9-7.7,11.2c-0.1,28.6-1.5,57.5-0.1,82.1c1.7,24.7,4.5,45.1,10.4,56.6
							c6-17.2-4.6-29.6-0.4-48.8c3.7,14.1,5,30,5.2,48.3c0.4,18.3,0.8,38.9,1.2,62.1l-6.9,15.6l7.4,46.7
							c-5.1-19.3-12.7-6.8-16.8-56.5c-7.5,6.7,4.8,49.2,4.7,79.7c0,0,2.8,3.6,5.6,7.3c2.9,3.6,5.8,7.2,5.8,7.2
							c-6.2-5.4,1,59.5-12.2,14.4c0,0-1.1-4.6-2.7-11.6c-1.7-7-3.8-16.3-5.4-25.7c-3.4-18.8-6.9-37.6-6.9-37.6l-5,21.6
							c0,0-1.7-16.1-3.4-32.2c-1-8-1.5-16.1-1.7-22.2c-0.3-6.1-0.6-10.1-0.6-10.1l5.4,15c-9-103.5,17.2-30.6,7.9-134.4
							c-9.5-32.9-9.5-68.7,2.3-131.8c-3.2,46.3,7.7,5.8,12.2,23.9c10.3-45.8,4.5-62.5,4-87.6c8.3-10.6,14.7-18,6.5,23
							c12.1,7.5,7.1-54.6,22-55.4c14.4-67.1,13.2-96,13.1-128.4c1.7-31.6,5-67.3,44.5-139.6l2.5,7.7
							c35.4-97.8,70.4-147.5,118.9-230.2c0,0,3.3-3.5,8.2-8.7c5.1-5.1,12-11.8,18.8-18.5c13.7-13.3,27.4-26.6,27.4-26.6
							c-8.1,15-25.5,57.4-8,44.1c-16.4,10.5-28.2,25.1-39.7,40.3c-11.6,15.2-22.5,31.2-35.3,46.5c1.1,5.3,11.4-7.2,16.7-12
							c-11.7,20.3-23.4,27.3-36.3,55.8c2.9-0.2,23-27.7,11.8-4.8c0,0-6.9,8.2-13.6,16.6c-6.7,8.4-13.5,16.9-13.5,16.9
							c-11.2,26.1-9.5,34.6-9,43.9c0.4,9.2-0.6,19-16,48.2c-2.1-14.1-1.8-41.7,7.3-66.1c-7,13.6-4.1,3.7-0.7-6.4
							c3.4-10,6.7-20.6-1.7-9.1c-5,22.2-10.5,37.6-18.2,54.1c-7.7,16.4-15.6,34.9-22.9,63.4c1-7-0.4-9.5,4.3-23.2
							c0,0-8.9,19.4-17.9,38.8c-8.6,19.6-16.3,39.5-16.3,39.5c6.5-8.9,2.6,8.4-1.4,27.2c-3.8,18.9-6.5,39.8-0.8,37.3
							c6.9-21.4,11.9-35.8,15.9-46.8c3.7-11.2,6.3-19.1,9-27.3c5-16.7,12.1-34.4,33.5-80.9c-8.4,28-13.5,65.8-9.7,85.3
							c-0.6,0.7-1.4,2-2.6,4.8c4.3,17.7,11.8,3.7,27.8,9.7c1.1-23.5,8.2-41.1,15.4-59.5c7-18.6,16.3-37.3,24.2-63
							c-4-13-24.4,23.2-31.8,49.1c0,0,0.7-2.9,1.8-7.3c1-4.4,2.6-10.2,4.4-15.8c3.5-11.5,7-22.9,7-22.9l0.1,10.3
							c0,0,3.3-6.8,8.2-16.9c4.9-10.1,11.3-23.8,18.7-36.9c7.2-13.2,14.4-26.4,19.8-36.3c5.3-10,9.4-16.2,9.4-16.2
							c-10.8,20.1-8.9,29.8-10.9,42c7.5-13.5,16.1-26.1,26.8-38.6c-9.5-1.4-13.9-6.3-6.3-19.3c40.2-66.1,72.6-96.1,97-113
							c1.5-2.5,3.2-5.3,4.6-7.6c-15.5,4.6,19.6-53.1,27.8-77.7c6.5,6.9,30.4-26.5,48.6-40.1c-0.1-16.1-21.7-14.6-46.5,0.7
							c-27.3,46.7-11.8,29.1-16.5,57.4c0,0-11.1,18-22.2,35.9c-10.3,18.4-20.6,36.8-20.6,36.8l3.8-20.3
							c-28.1,31.7-39.9,72.2-47.7,63.5c3-11.3,10-24.4,17.9-36.9c7.9-12.5,15.9-24.9,19.3-36.2l-19.6,20.5
							c20.1-46.8,22.5-15.1,53.4-66.8c-21.1,11.5,2.7-4.8,13.9-28.9c-9.2,5.8-25,27.3-38.8,44.1c-13.8,16.7-24.5,30-25.9,17.6
							c6-15.3,26.6-33.2,46.5-52.8c20-19.7,41.5-39.2,48.9-60.5l0,2.8c43.3-43.7,52.1-65.3,65.1-85.5c22.3-14.8,44.8-44.1,66.4-63.3
							l2.5,4.1c0,0,7.1-7.2,14.9-13.7c7.6-6.6,15.3-13.3,15.3-13.3c-10,18.3-36.9,29.6-62.2,53.5l9.1,3.7
							c-18.7,8.9-29.6,21.8-38.3,35c-8.6,13.4-15.3,27-22.9,40.9c12.7-18.8,36.3-39.7,55.5-58.9c20.1-18.3,36.3-34.8,34.8-44.8
							c0,0,6.6-3,13.5-5.5c6.8-2.6,13.7-5.1,13.7-5.1l8.4-10.7c20.4-7.3,9.9,13.5-19.3,40c-6.6,2.8-9.9,4.2-9.5,1.4
							c-11.1,15.4-20.3,30.2-53.3,59.6l13.9-19.7c-41.1,37-72.9,76.3-79.4,95.7c56-56,113.9-107.6,171.9-153.6
							c4.7-29.5,19.6-54,18.3-75.5c39.2-33.6,98.4-72.1,140.7-88l-1.8,5.2c19.7-9.3,37.4-18.6,51.3-28.3c22.6-6.1-9.6,15.9,5.8,10.9
							c0,0,3.9-2.4,9.7-6.1c5.8-3.7,13.7-8.4,21.7-12.8c16-9,32.1-17.9,32.1-17.9c-0.4,4.8-14.6,13.5-31.9,22.5
							c-17.4,8.9-37.1,20-50,26.7c4.6-3.1,13.8-9.4,10.1-8.8c-32.5,11.7-79.5,56.1-98.4,53.5c-12.9,10.8,23.8-25.8-24,4
							c-34.5,16.3-38.3,32.7-39.3,38c1.8,3.6,52.5-27,38.4-11.1c24-16,30.3-28.1,64.9-42.3c-25.1,14.3-52.3,43.9-69.1,45.8
							c-42.2,38.9-21.7,52.9,0,38.7c-9.6-2.7,80.7-62.1,14.1-30.4c22.7-25.8,74.8-57.2,111.2-81.7l-0.9,2.5c0,0,11.8-6.7,23.6-13.3
							c11.7-6.9,23.9-12.8,23.9-12.8c-6,5.2-19.7,14.5-18,19c0,0,3.8-2.8,9.5-7.1c5.9-4,13.7-9.3,21.6-14.6
							c15.8-10.6,31.7-21.3,31.7-21.3c-17.6,12.6-11,11.3,2.3,6.2c13.4-4.9,34-12.3,43.5-14.2c4.8-9.7,30.4-25.5,2.6-19
							c-31.6,6.8-15.9,10.4-42.5,21.6l33.9-25.7l3.7-0.3c0,0,5-4.5,9.9-8.9c4.9-4.5,10.1-8.8,10.1-8.8c53.6-17.5-16,28.3,49.1-3.4
							l-12.9-9.1c19.9-6.6,41.8-11.7,64.2-16.3c11.2-2.3,22.4-4.8,33.6-6.8c11.3-1.8,22.5-3.5,33.6-5.3c11-1.8,21.8-3.6,32.3-5.3
							c10.5-1.4,20.7-2.8,30.4-4.1c19.4-2.7,36.7-6.7,51.1-9.6c-15.1,9.3-20.1,21.8,2.6,25.7c-12.5,0.1-31,3.6-50.8,7
							c-9.9,1.8-20.1,3.6-30,5.8c-9.8,2.5-19.3,5-28,7.2c-3.6-0.3,6.4-6.5,22.3-13.4c15.9-6.7,38-12.8,57.5-15
							c-11-8.5-35.1-1.3-56.9,6.1c-21.7,8.2-41.4,15.9-46.1,6.1c-99.3,18.6-66.4,38.5-150.4,53.8c2.2,9.3-20.8,13.1-21.8,22.5
							c27.9,3.9,105.3-38.2,159.6-46.9c-4.9,2.1-14.9,6.4-16.4,8.7c37.9-7.8,53.2-12.2,78.8-22l-3.5-0.3
							c44.7-18.2,30.2,1.5,58.1,0.6c10.3-3.8,48.8-6,41.7-12c0,0,12.7,0.6,25.5,1.3c12.7,0.6,25.3,1.5,25.3,1.5l-3.4-10.3
							c28.3-2.8,34.9,3.7,60.1-4.7l0.7-9.5c0,0-17.7,0.5-35.5,1c-8.9,0.3-17.8,0.6-24.4,0.8c-6.7,0.1-11.1,0.7-11.1,0.7
							c35.6-6.5,9.1-10,48.7-15.1c-43.6,13.8,31.8,2.5,36.5,11.7l28.9-6.1l-7.4,2.7c22.9,4.5,27.1-4.8,53.9-3
							c-31.4-5.5-52.5-11.4-92.5-3c28.9-6.7,87.4-14.3,101.9-13.5c31.2-3.2,52.6,4.2,81.3,7.9c-27.9-0.2-23.4,7.3-25.8,13
							c-2.4,5.5-11.5,9.7-66.2,5c2-1.8,10.9-1.1,14.3,0.1c-14.5-13.3-66,1.1-89.2,6.4c6.3,6.8-18.1,9.1,23.7,11.9
							c-14-3.6,34.9-17.6,74.9-9.9l-7.3,14.7c0,0,14.3,0.8,28.7,1.6c14.3,0.5,28.6,2.3,28.6,2.3l-5.4,0.3
							c20.8,11.3,61.2,2.1,99.7,13.5c29.2-3.3,135.9,23.1,92.7-1.7c32.9,17,66.2,11.6,104.4,21c0,0-11.4-4.8-22.7-9.6
							c-11.3-5-23-9-23-9c59,4.4,40.7,6.9,90.7,3.9c3.3,5.4,12.2,11.9,1.8,12.9c75.1,23.7,175.5,72.7,221.3,84.9
							c24.8,12.6,36.1,25.4,50.6,37.6c14.7,12.2,31.3,25.8,65.6,43.9c7.4,3.5,6.7-1.1,9.2-2.7c2.5-1.6,8.4-0.3,28.1,16.5
							c2.1,2.9-46.5-19.5,0.6,12.5c9.9,3.5,19.6,9.1,29.1,15.9c9.3,7,18.5,15.4,27.9,23.9c19.2,16.7,38.1,35.9,61.3,49.5
							c18.7,21.1,53.9,54.2,40.5,53.4c-29.6-32.6-78.7-71.2-88.5-74c8.3-0.4-21.2-23.4,6.9-6.6c-48.4-46.3-36.7-23.2-82.6-61.5
							c-5.4,0.7,19.2,25.7,31.2,30.9c-6.8,9.2-98.7-62.4-64-20.4c50.3,36.6,81,28,115.2,72.9c-21.3-8.5-44.6-34.4-74.3-40.8
							c0,0,2.1,1.9,5.2,4.7c3,2.9,7,6.9,11,10.8c8,7.8,15.9,15.7,15.9,15.7s7.7,3.2,15.5,6.5c7.8,3.2,15.4,6.8,15.4,6.8l-2.6,0.1
							c52,59.9,63.3,38,118.5,84.1c-22.6-36,22.1-8.1,3.8-34.4c35.1,33.7,58.2,61.2,48.8,69.9c-33.9-30.2-37.7-28.1-40.4-26.2
							c-3,2.3-5.2,4.7-38.3-20c6.2,12.7-25.9-1.1,6.5,34.5c43.9,33.3-3.9-19,36.7,17.7c1.4,3.1,2.9,6.3,0.2,6.1
							c21.3,14.6,17.4,23.6,42.7,41.9l-6.6-3.9c18.2,33.3,32.3,26.7,46,57c-0.4-15.9,19,12.8,35.1,26.2
							c-16.1-28.9-16.1-51.6-58.5-102.1c-10.7-1.3-10.7,4.9-30.9-13.1l28.4,31.5c-6.9-6.2-12.9-10.2-19.4-15.6l-23.8-33.2
							c37.7,35.5,28.1,12.6,48.3,24.4c28.3,38.7,26.3,29.6,43.3,54.5c-9.2,3.5,39.8,84.9,61.8,134.7c-4.1-7.4-10.2-16.3-13.2-21.4
							c-26.9-29.4,7.2,27.4,5.1,30.2l18.8,22c-3.3-4.3-9.1-9.5-4.4,1.8c21.1,32.3,28.9,25.5,48.4,59.2c-3.9,5.1-26.7-19.7-18.5,2.9
							c-0.4,4.8-0.7,14.6,2.6,28.4c2.9,14,8.6,32.3,21.4,54.2c3.7,2.3,9.9,13.9,16.2,27.8c-1.1-1.8-2.3-4.2-3-5l6.3,33.5
							c-19.6-22.8-16.6-55.5-38.1-77.4l-9.6,1.7c-8.6-20.3-26.3-45-36.8-54.9c13.9,30.4,19.4,35.4,36.3,68.8
							c-3.4,7.2-18.2-14.8-20.3-18l7.2,2.8c-5.2-22.1-15.6-35.6-26.3-50.3c-10.6-14.8-23.3-29.6-36.4-53.8c-3.8-7.4-0.7-3.4,1.8-2.7
							c-30.1-33.7-43.8-77-79.1-105l12.2,8.5c-5.1-5.3-11.5-12-18.7-19.6c-7.5-7.4-16.3-15.3-25.6-24
							c-18.2-17.6-40.6-35.9-62.4-54.3l-3.1,2.1c2.5,6.1-11.3-9.8-18.2-18.9h0.1c-11.3-8.7-22.4-17.2-32.9-25.2
							c-10.7-7.6-20.8-14.8-29.9-21.2c3.5,6.5,8.7,14.1,15.8,21.5c9.6,2.7,42,42.6,44.4,30.7c12.1,21,43,44.9,51.6,60.5
							c-7.7-14.2-2.3-11.6,5.9-5c8,6.7,19,17.2,22.9,17.7c0.9,6.2,8.3,15.4,14.4,23.4c5.8,8.2,10.1,15.1,5.5,15.8
							c1.9,6.5-4.4-16.3-17.1-23.8c-13.4-10.8-5.3,2.3,2.2,14.5c7.1,12.5,13.2,24.2-1.7,9.6c36.2,38.8,71.3,98.7,104.4,142.7
							l-12.3-28.2c11.9,21.2,39.2,72,37.6,77.6c-9.2-15.5-18.3-34.6-30.9-53.9c-8.1,3.2,25.4,49.1,21.5,53.9c0,0,2.8,3.3,7,8.2
							c3.9,5.1,9.1,11.9,14.4,18.6c10.5,13.7,21,27.4,21,27.4l-11.7-27.1c13.2,14.5,31.5,74.2,44.1,118
							c-10.3-10.3-15.6-26.6-22.4-45.3c-6.5-18.8-12.7-40.8-25.4-61.3c-18.7-29.5-2.6,24.5-18.9-3.9c0.7,9,9.9,28,16.9,36.3
							l2.5,12.8c-10.3-11.4-22.5-31.5-34.6-53.5c-12.1-22-26.9-44.5-40.7-61.2c2.8,2.7,5.5,5,7.2,5.4
							c-11.9-30.9-28.4-60.3-48.8-85.3c6,16.3,11.9,20.4,18,28.1c-1.6,2.4-19.2-22.3-28-30.2c13.1,26.8-2.9,8.4,5.6,25.1
							c-13-14.5-19.8-28.5-32.5-48.1c-3.4-12.4,10.9,4.7,14.2-0.6c-17.2-17.5-11.4-35.5-38.8-59.6c27.3,38.7-17.8-2.2-30.7-12.3
							l4.5,6.4c-14.3-7.5-22.4-16.9-24.6-28.6c15,12.4,24.4,28.7,26.6,19.9c-7.9-10-16.5-19.4-27.5-28.8l12.4,6.6
							c0,0-10.6-11.7-21.3-23.5c-10.4-11.9-21.8-22.9-21.8-22.9c-11.4-3.1-29.1-9.1-41.4-9c-6.3-14.7-25.1-25.4-36.6-33.7l6.5,2.7
							c-7.9-11.6-24.3-26.5-39.8-38.1c-15.1-12.1-29.6-20.4-33.4-19.8c-3.1-3.9,3.5-2.3,13.4,1.2c9.8,3.7,22.6,9.7,32.6,13.4
							c19.8,7.7,28.4,5.8-27.5-37.6c-42.4-33-36.5-7.4-64.6-20c0,0,2.4-0.4,0.6-3.1c-18.2-14.3-23.6-10.7-40.9-18.7
							c10.1,9.6,25.9,21.6,32.7,23.2c-4.9,0.9-14.5-6.1-25.1-14.1c-10.7-7.8-22.9-15.8-31.7-18.3c25.2,2.9-35.1-27.5-17.2-22.8
							c-18.1-14.2-38.6-26.5-58.4-34c-19.8-7.4-37.8-12.2-50.3-13.6c-22.3-25.4-49.8-21.1-94.1-44.9c7,3.2,20.8,6.4,30.3,11.8
							c30.1,2.3-46.9-23.5-2.7-14.8c-9.4-2.2-2.4,4.1,7.2,6.4c16.3,5,32.4,8.5,30.1,2.9c0,0-8.5-6.4-17.6-11.8
							c-9-5.6-17.9-11.3-17.9-11.3l14.4,3.4c0,0-13.8-8.4-27.6-16.7c-6.9-4.3-13.9-8.4-19.3-11.2c-5.4-2.9-8.9-4.8-8.9-4.8
							c-2.2,1.1,2.7,5.1,5.3,7.2c-68.3-29.7-152.6-44.7-216.4-55.5c-4,5.5-15.9,7.5-32.3,8c-16.4,0.6-37.2-1.9-59.5-2.3
							c-22.2-0.9-45.6-2.6-66.7-1.4c-21.1,0.7-39.9,1.9-52.7,6.5c13.7-7.6,21.5-20.3,12.7-25.4c11.6-1,35.9-10.3,62.6-7.6
							c4.1,4,36.5,11.3,15.2,14.2c73.2,2.7-9.1-11.7,13.1-19.4c-82.5-2.6-130.4,13.5-180.6,23.3l-1.5-2.9c0,0-9.5,2.1-19,4.2
							c-9.5,1.9-18.9,4.6-18.9,4.6c15.7-1,23.5,2.9,22.2,5.9c-1.2,3.4-11.4,5.9-31.5,6.2l4.7-1.3c-11.7-1.5-29.2,1-48.2,4.3
							c-18.8,4.2-39,9.4-56.7,12.1c0,0-5.5,3.1-11,6.6c-5.4,3.4-10.9,6.7-10.9,6.7c-34.7,7.1-40.1-7.7-53.7-13.1
							c-27.5,7.4-48.4,15.6-66.2,26.4c-17.9,10.4-33.6,20.3-50.6,31.5c-9.4,0.4-34.3,7-51.3,12.7c-17.1,5.3-27.2,7.2-8.4-5.8
							c-44.4,26.9-19.3,53-103.9,76.9l16.3-16.8c-35.8,21-77.2,49.7-111.7,77.9c-8.7,6.9-17.2,13.6-25.2,19.9
							c-7.8,6.5-15.2,12.7-22,18.4c-13.7,11.1-25.5,19.4-33.5,24.6c4.1-18.9-19.1-6.5-47.2,10.2c-27.2,17.5-58.9,39.5-71.9,37.5
							c6.6,0.6-14.2,24.9-15.4,30.2c-6.9,3.1-16.7,10-21.2,22.6c12.5-11,13.1-2.7,14.9,1.6c2,4.4,4.2,4.2,22.6-21.3
							c-5.5,16.6-12.3,34.7-23.2,55c-11.5,19.8-25.4,43.1-46.7,69.5l-7-6.5l35.6-40.8c-9.1-0.3,9.4-21.3,14.6-32
							c-17.8,18.1-26.8,26.1-31.6,28.8c-5,2.6-6-0.3-6.9-2.9c-1.7-5.3-3.2-10.1-35,31.8c-0.9,11.9,0.8,5.1-13,28.7
							c7.2-10.6,3.2-16.3-8.9,0.5l-5.3,20.4c-16.3,11.1-10.8-3.4-2.9-17.4c7.6-14.1,16.2-28.6,2.5-18.9
							c16.9-38.4,60.2-96.2,42.4-93.6c-46.5,50.7-20.9,61.5-65.9,115.8l-8.3,3.5c-10.5,22.9-5.7,30.7-8.7,44.7
							c-3.1-0.5-8.6,3.5-17.1,16.9c-10.8,41.9-21,67.6-26.1,107.1c9.1-23.4,16.8-39.7,23.5-52.4c7.1-12.5,13.8-21.2,20.2-30.1
							c12.8-17.9,26.4-35.3,51.5-80.7c-6.5,15.3-42.6,78.3-32.7,89l-7.7-5.6c-12.7,31.2-23.7,62.6-44.3,98.8c0,0,1.4-6.4,2.8-12.7
							c1.7-6.3,3.4-12.5,3.4-12.5c-9.4,26.2-21.5,45.9-32.7,64.6c-10,19.2-19.1,37.5-19.2,60.7c5.8-14.3,10.6-25.8,12.6-35.3
							c-7.1,27.8-19,61.3-30.1,90.2c0,0-0.6,16.4-1.2,32.9c-0.3,8.1-0.6,16.3-0.8,22.3c0.1,6.1,0.1,10.2,0.1,10.2
							c-4.4-1.7-13.7,37.5-16.7,16.8c-4.3,10.8-7.1,20.4-8.7,29.2c-1.2,8.9-1.5,16.8-1.3,24.2c0.4,14.8,2.1,27.2,1.3,40.4
							c-7.9,22.5-7.7,12.3-7.1-4.4c1.4-16.6,3.7-39.7-2.3-43.2c-3.8,15.9-7.8,32.1-10.1,48.2c-2.2,16.1-3.8,32-5,47
							c-1.3,30.1-0.2,56.8,3.2,75.3c2.2-13.2,4.9-19.4,6.9-18.6c-3.5,1.7-3.7,27.9-4,42.4l5.9,10.1c-4.8,24-8.3,20.8-12.4,0
							c-2.4,23.4,11.1,50.7,2.5,74.9c-3.9-19.7-5.5-42.4-4.9-62.6c0.6-20.3,1.5-38.1-0.5-48.6c1.9,41.7-3.5,62.5-6.8,86.5
							c-1.8,12-4.1,24.8-4.2,41.1c0.3,16.3,1.2,36.4,5.9,62.7c-2.7,1.6-10.7-15.8-8.2,4.7c8.3,47.2,14.1,10.8,22.8,24.7
							c-8.8-35.5-6.1-52.9,0.1-74.3l5.7,9.2c-2.4,1.6-1.2,24.2-2.7,31.1l10.8,4.7c-11.3-1.6-16,35.8-7.1,63.4
							c3.2-29.7,4.7-22,16.1-31.4c8.2,18.8,7.8,30,6.8,42.1c-0.5,12-2,25,9.4,45.2c-4.7-2.3-14.4-40-10.8-6.5
							c5.8,27.2,13.5,21.7,20.4,39.1c-13.8-18.2-19.3-11.3-35.4-31.4c-10.8-49-3.6-19.8-16.5-67.5l-0.5,42.4c-9-42-16.1-29-20.2-32
							c3.5,74.9,24.1,52.2,32,98.6c11.3,20.6-8.6-43.3,5.9-10.3c8.6,43,8.1,8.4,24.9,54.4l-6.4-6.7c-1.1,16,9,28.5,15.8,44.4
							c9,16.8,23.6-29.7,49.8,41.7c-3.8-2.5-5.9-3.2-6.9-2.9c0,0-6.5-2.5-15.7-6.7c-9.2-4.3-21.6-10.1-33.9-15.9
							c-12.5-6.2-24.9-12.3-34.3-17c-9.4-4.8-15.3-8.2-15.3-8.2c23.9,79.1,58,168.3,101,254.5c-0.9,13.6-12.6,0.4-23.7-15.8
							c-10.7-16.3-21.6-35.1-23.3-30.9c0,0-4.6-10.2-8.5-20.6c-3.9-10.5-7.7-20.9-7.7-20.9c5.9,0.1,42.9,82.5,35.1,41.6
							c-38.7-67.9-45.5-103-82-168.7c-7.8,27.3,35.4,91.3,45.7,139.7c-7.3-19.1-16.5-33.9-24.8-48.7c7.9,21.5,17.2,43.4,26.2,66.3
							c10.5,22.2,20.2,45.8,32.3,69l9.1,8.4c-16.6-31.1-25.1-54-26.5-56.9c19.3,42.6,48,71.5,58.6,68.5l-3.7-7.3l11.3,12.6
							C2557.2,4145.4,2562.4,4154.8,2567.5,4164.2z M4881.6,3783.6c0.4,3,1.1,5.4,2.3,7.4
							C4882.7,3788.9,4881.2,3790.5,4881.6,3783.6z M2341,3300.6c-10.9,62.1-16.4,125.6-18.1,186.4c5.3-27.4,11.9-52.5,16.9-71.8
							c5.7-19.3,11.3-32.9,15-37.5c8.3-9.2,7.7,16.7,6.7,105.5l1.9,11.6c0.8-11.6,1.8-27.4,2.6-44.9c0.8-17.5,0.4-37,1.4-55.7
							c-2.6-15.4-10.2-48.4-14.4-77.9c-2.6-14.8-5-28.7-6.7-38.8c-1.5-10.1-2.7-16.5-3.3-16.3c-8.4,9.9-3.8,27-8.1,46.8L2341,3300.6
							z M2384.6,3262.7c8.5-33.7,2.3-26.8-1.1-33c-1.6,12.2-3.2,24.3-4.8,36.3C2380.6,3261.6,2382.5,3259.7,2384.6,3262.7z
							 M2378.7,3230.9c-0.8,3.9-1.6,7.1-2.5,8.7L2378.7,3230.9z M2421.2,3903.3c-0.6-1.5-0.8-2-1.4-3.3c2.4,8,4.7,16,7.2,24.3
							C2426.5,3920.9,2425,3914.6,2421.2,3903.3z M2410.2,3832.4l-10.1-5.8c1.8,7.5,3.7,15.2,5.6,23
							C2408.4,3846,2410.8,3842.4,2410.2,3832.4z M2393.4,3606.9c-10.9-13-14.8-60.2-26.3-62.6c-3.1-2.9-3.5,7.2-3.5,18.6
							c0.7,12.6,1.4,26.1,2.1,40.4c1.7,0.3,3.3,3,5.4,7.6c0.1-14.2,2.3-23.8,9.6-18.7c-12,37.4,14.3,30.8,15,69.5
							C2405,3672.6,2398.1,3618.2,2393.4,3606.9z M4449.8,2480.6c0.3,1.5,1.7,5.8,3.9,11.5l-25.1-12.7c-9.3-8-17.5-16.5-25.4-24.6
							c-8.2-7.8-16.1-15.7-24.1-23c-15.8-15-33.4-26.8-55.8-32.8c-15.4-14.3-21.2-26.3-27.5-36.8c8.7,5.5,16.8,10.7,22.9,16
							c58.7,24.8,68.7,40.1,76,52.5c3.6,6.4,6.5,12.4,14.1,19.9C4415.9,2458.5,4427.8,2467.7,4449.8,2480.6z M3949.5,2211
							c5.2,0.5,7.5-0.9,7.5-0.9c-114-6.7-204-7.9-263.4-11.4c5.6,4,21.5,8.5,39,13.1c17.5,4.6,36.7,7.8,48.8,11.5
							c0,0-5.7,1.6-11.4,3.2c-5.7,1.9-11.4,3.8-11.4,3.8l-13.1-8.4l-38.6,5.6c10.3,7.1,40.9,8.1,60.8,14.4
							c1.7-1.2,68.3-5.1,87.5-6.4c0,0-12.7-4.1-25.6-7.6c-13-3.3-25.9-6.5-25.9-6.5c14,3.7,83.8,12.9,111.6,17.3
							c0.8-2.1-10.2-8.1-22.6-11.5c-12.4-3.4-26-5-29.9-0.6c-4.6-7.9,50.8,1.9,17.2-11.6c21.6-0.5,48.3,6.2,73.5,12.9
							c25.1,7.2,47.9,16.9,62.4,22.6l1.6,12.6c30.6,15,26.1-6.1,62.3,13.2c-47.8-13.7,3.6,14.7-33.9,3c10.3,8.3-3.6,11.5,33.2,23.7
							c35.7-2.1,34.8,23.2,67.8,23.4c16.6,12.8-23.7-0.5,11.9,17.9c22.7,5.5,33.9,7.4,40.4,6.5c6.6-1,8.6-4.8,12.4-9.1
							c-18.6-11.7-31.6-13.1-43.4-14.4c-11.8-1.2-22.5-2.1-38.2-10.5c0,0,17.9,2.8,36.1,5.7c9.1,1.5,18.3,3,25.1,4.1
							c6.9,1.1,11.3,2.2,11.3,2.2c-10.5-8.6-19.6-12.4-27.3-15.2c13.6,4.9,26,7.3,37,8.8c6.3,0.8,12.1,1.6,17.4,2.5
							c-9.1-4.7-18-9.3-26.2-13.6c-8.4-4.1-16.1-7.8-22.9-11.1c-13.4-6.8-22.7-12.4-24.7-15.9l7.4-2.7
							c-11.2-11.1-35.3-15.7-46.9-16.1c-34.4-13.8-72.2-16.8-77.5-26.6l14.9-0.3c-21.8-6.8-34.1-9.7-47.8-13.1
							C3992.2,2222.3,3977.5,2217,3949.5,2211z M2605.9,2665.7c16.6-4.7,32.3-10.6,55.1-26.4c22.5-16.1,50.5-43.4,95-88.3l-6.2,7.9
							c13.8-8.6,25.2-19.3,36.5-30.4c11.4-10.9,22.2-22.9,33.3-35.1c22.9-23.7,47.8-48.8,83.8-65.1c-26.3,27.8-25.3,26.2-46.8,65.2
							l27.8-29.1c-2.4,15.1,26.4-12.3,50.5-28.8l-13.4,25.5c-8,3.6-21.7,11.3-32.5,19c-10.7,7.8-19,14.9-17.6,15.7
							c3.4-3.6-10.7,2.3-29.4,12.6c-17.9,11.1-40.4,26.4-53.1,40.6c8.5,3.4,66.5-51,48.9-16.9c19.4-25.2,28.9-19.8,52.2-42.5
							c-20.7,23.9,1.3,14.2-12.8,33.4c0,0,9.8-8.7,19.7-17.4c9.7-8.9,20.1-17,20.1-17c2.1,0.8-56.2,52-16,33.9
							c13-17.3,62.4-43.7,57.6-52.4l2.7,1.7c33.9-19.3,7-20.7,50.7-41.8c-2-4.5-11.6-2.5-25.7,7.8c-11.1,9.9-9.8,16-33.9,34
							c-7.6,0.9-0.1-4.3,6.4-9.2c6.6-4.7,12.2-9.5-0.1-9.1c-12.4,0.4-62.1,50.5-52.4,26.2l33.5-21.3c-4.8-8.7,19.7-24.1,15-29.9
							c18.9-16.3,43.8-19.8,61.6-39c6.1-10.5-15.6-11.4,23.4-27.7c9-0.7,20.9-4,34.3-9c13.3-5.1,28.2-11.5,43.3-17.5
							c29.8-13.1,59.9-26.3,76.4-33.6c0,0,6.8-4.3,13.6-8.6c7-3.9,13.9-7.9,13.9-7.9c-4.8-5.4-56.2,22.2-40,7.7
							c0,0,11.3-5.1,22.7-10.2c11.6-4.5,23.1-9,23.1-9l-2.4,4.7c15.8-4.3,30.3-13.9,44.2-20.1c-12.9,10.8-47.3,20.1-37.4,27
							c22.6-5.3,26.7-3.7,46.5-11.3c-4.2,1.9-7.8,3.9-6.8,5.1c45.8-8.6,40.2-22.9,50.8-29.2c21.4-11.6,9.1-12.2-8.2-10.2
							c-17.2,2.2-39.5,6.1-38,0.4c0,0,8.4-2.7,20.9-6.8c6.3-2,13.6-4.4,21.4-7c7.9-2.2,16.4-4.5,24.9-6.8
							c33.8-9.9,68.4-16.9,68.4-16.9c-11.3,5.3-22.5,10.5-17.3,13.7c34.6-1.5,2.2,7.4,49.3-1.5c-2.8-6.6,11.9-10.6,31.5-14.5
							c9.8-1.9,20.7-4,31.3-6c10.6-2,20.9-3.7,29.3-6.3c16.4,4.3,19.6,5.1-15,7.9c4.8,8.7,50.8,0.9,67.4,1.7
							c9.5-2.4,25.8-4.1,36.2-6.3c-14-3.9-8.3-9.9,22.2-13.9l1.8-1.8c-25-0.9-57.1-3.6-86.9-3.2c-29.7,0.8-57.2,2.3-72.3,9.2
							l8.4-5.4c-29.3-0.1-60.5,7.5-87.1,15.7c-26.9,7.2-49.5,14.2-64.4,9.3c0.9-6.9-11.8,1.2-13-8.2c0,0-10.1,4.2-20.2,8.4
							c-9.9,4.7-19.8,9.4-19.8,9.4l7.5-6.6c0,0-17.5,5.5-35,11.1c-17.6,5.2-34.7,12-34.7,12l1.3-2.3c-15,9.7-28.4,18.3-40.4,26.1
							c-11.5,8.4-21.7,15.8-30.7,22.4c1.5,3.9,4,4.2-5.5,11.2c-9.9,6-17.7,9.5-24.9,12.3l0,0.1l0,0c-16.5,6.1-29.6,5.6-50.5,12.4
							c0,0,15.2-7.2,30.4-14.3c7.6-3.6,15.2-7.2,20.9-9.8c5.7-2.8,9.6-4.3,9.6-4.3c2.4-8.4-5.8-13.5-38.2-4
							c12.3-5.9,15.4-13.2-0.4-7c-1,2.4-38.9,22.5-21.7,20.8c-28.5,15.1-68,30.6-109.5,52.3c-21.1,10.2-41.6,23.5-62.5,36.7
							c-20.3,14.1-39.9,29.8-57.8,46.9c26.1-24,13.5-17.5,1.6-11.3c-11.4,6.8-22.3,12.9,8.9-11.5c-26,11.2-33.1,21.8-40.3,32
							c-6.9,10.7-13.6,21.5-35.1,39.3c-6.2,0,23.2-19.6,28.7-33.3c-37.9,27.4-64.5,57.2-89.1,87.6c-12.7,14.8-24.2,30.5-36.8,46.1
							c-12.9,15.3-26,31.3-41.2,47.8l-9.1-2.8C2627.8,2633.8,2616.9,2649.4,2605.9,2665.7z M2515.4,2817.6
							c-7.5,15.4-15.8,30.7-23,46.8c0.9-1.5,1.7-2.9,2.6-4.4l-17.1,48.8c17.4-26.5,35.1-40,19.4,0.6c-1.6-4.9-11.3,4.5-6.3-9.9
							c-9.4,11.6-21.5,31.8-28.9,47.9c-7.5,16-10.6,27.6-1.1,22.6c11.8-56.3,20.5-5,30.5-48.7c-2.1,25-15.2,44.4-20.5,66.2
							c2.3-24-17.2-1.6-33,30c-4.3,14.6-18.7,53.3-23.7,78.3c10.6-6.1,8,15.9,23-22c-1.4,7.4-3.5,16.7-6.8,27
							c-2.8,10.5-6.7,22.1-12.3,33.9c1.5-10.2,5.4-27.8,2.3-27.5c-11.7,14-16.8,33.2-22.8,42.9c-2.2,8.4-3.3,17.2-4.9,25.6
							c1.3-2.3,2.6-4.2,4.1-5.5l0.5,29.7c4.9-38.1,7.6-16.3,12.1-14.8c-9-3.2-6.7,23.6-9.3,36.3l16.1-25.3
							c0.9,7.2-3.5,18.4-6.8,27.3c-2.9,9-4.6,15.6,0.8,13c7.5-28.8,13.5-48.4,17.3-67.8c4.7-19.2,9.1-37.8,14.9-64.1l-13.4,18.8
							c5.3-30.2,12.6-37.9,19.4-46.4c7.5-8.3,14-17.9,26.7-49.3c2.7-29.3,39.7-93.8,27.7-101.1c0.2,9.5,30.3-32.3,35.9-55.7
							c0.9-14.2,10.4-39,18.5-57.5c8.4-18.3,14.3-31,5.3-22.5c-12.2,17.8-20.3,46.3-36.1,57.1l18.5-37.5l-19.8,20.1
							C2534.2,2819.6,2527.6,2817.2,2515.4,2817.6z M2283.3,3749.5c0,0.5,0.1,1.1,0.1,1.8l-0.3-1.9L2283.3,3749.5z"/>
						<path fill="#FFFFFF" d="M4846.8,2956.4c8.5,9.7,18.4,38.6,22.9,30.3c-3.4,1.8-8.7-10.8-13.3-21.3
							C4851.5,2955,4847.1,2946.7,4846.8,2956.4z"/>
						<path fill="#FFFFFF" d="M4853.7,2992.7c2.5,1.3,4.6-1.2,9.9,11.4l-15.5-34.1L4853.7,2992.7z"/>
						<path fill="#FFFFFF" d="M4818.6,3045.9c11.3,15.5,18.1,25.7,27,53.5c-14.3,16-20.1-43.6-40.8-49.9
							c7.8,25.1,16.6,40.2,25.6,54.2c8.6,14.1,16.7,27.4,23.5,48.2c0.5-11.3-3.2-39.1-11.1-63.1
							C4835.1,3064.9,4825.6,3044.2,4818.6,3045.9z"/>
						<path fill="#FFFFFF" d="M4788,3032.5c0,0,3.6,6.4,7.3,12.7c3.8,6.3,7.1,12.9,7.1,12.9l0.1-3.1c0,0-3.5-6.5-7.2-12.9
							c-3.6-6.4-7.3-12.8-7.3-12.8L4788,3032.5z"/>
						<path fill="#FFFFFF" d="M4527.4,2404.2c1.4-6.4-18.3-14.6-27.8-20.3C4506.4,2389.8,4515.2,2398.6,4527.4,2404.2z"/>
						<path fill="#FFFFFF" d="M4643.2,4452.4c0,0,10.6-11.6,26.4-29c15.5-17.7,35.6-41.8,54.9-66.5c18.9-25,37.8-50,50.6-69.8
							c13.2-19.5,21.8-32.4,21.8-32.4C4757,4314.6,4718.2,4369,4643.2,4452.4z"/>
						<path fill="#FFFFFF" d="M3767.6,2129.9c32.8,0.2,56.7,0.1,81-0.5c24.1,0.9,48.6,1.2,81.9,7.2c-21-8-39.3-10.7-55.5-12.9
							c-16.2-2.1-30.6-2.1-44.6-1.3c-27.9,0.9-53.5,2-90-6.3L3767.6,2129.9z"/>
						<path fill="#FFFFFF" d="M3795.5,2086c9.8,11.5-52.9,8-43.8,17c45,0.8,21.9-9.1,62.4-3.2L3795.5,2086z"/>
						<polygon fill="#FFFFFF" points="4035.4,2324.1 4016.8,2323.9 4031,2326.5 						"/>
						<polygon fill="#FFFFFF" points="3489.4,2095.5 3496.5,2092.2 3462.6,2092.9 						"/>
						<path fill="#FFFFFF" d="M3503.7,2088.9l-7.2,3.2L3503.7,2088.9z"/>
						<polygon fill="#FFFFFF" points="4006.5,2339.2 4030.4,2349.8 4044.2,2349.1 						"/>
						<path fill="#FFFFFF" d="M3789.5,2232.4l24.7-0.4C3809.3,2232,3776.6,2223.3,3789.5,2232.4z"/>
						<polygon fill="#FFFFFF" points="3286.2,2128.2 3255.6,2141.3 3259.1,2141.4 3289.6,2128.4 						"/>
						<path fill="#FFFFFF" d="M3599.7,2254.7c16.7,7.9-47.3,3.7-13.2,10.1C3616.3,2262.7,3604.1,2258.6,3599.7,2254.7z"/>
						<path fill="#FFFFFF" d="M3238.7,2261.3c-3.9,1.3-7.9,3-11.5,5.2C3231.8,2264.6,3235.6,2262.9,3238.7,2261.3z"/>
						<path fill="#FFFFFF" d="M3238.7,2261.3c12.5-4.3,26-5.4,34-10C3255.7,2252,3250.6,2255.8,3238.7,2261.3z"/>
						<path fill="#FFFFFF" d="M3099,2319l11.1-4.4c-9.4,8.8-4.4,5.9,4.2-1.7c11.4-5.5,9.7-7.6,10.3-9.9c1.9-2,3.8-4,5.8-6.2
							c-3.1,2.7-5.9,5.1-8.3,7.1C3104.2,2311.9,3093.4,2317.3,3099,2319z"/>
						<path fill="#FFFFFF" d="M2549,2568.4c34.5-35.1,43.9-43.5,47-37.1c33.2-32.2,20.2-34.6,37.7-56.8
							c-17.8,19.5-29,30.7-41.1,42.9C2580.7,2529.8,2568.7,2543.9,2549,2568.4z"/>
						<path fill="#FFFFFF" d="M2633.7,2474.5c4-4.4,8.1-8.2,12.8-13.2C2640.9,2466.5,2636.8,2470.5,2633.7,2474.5z"/>
						<path fill="#FFFFFF" d="M3284.6,2323.5c0,0-5.4,4.3-10.8,8.8c-5.3,4.4-10.6,8.9-10.6,8.9l8.5-4.4c0,0,3.2-3.4,6.4-6.7
							C3281.3,2326.7,3284.6,2323.5,3284.6,2323.5z"/>
						<path fill="#FFFFFF" d="M2501.1,2623.5c6-6.9,14.8-18.6,20.9-22.9C2518.5,2594.5,2495.1,2630.5,2501.1,2623.5z"/>
						<path fill="#FFFFFF" d="M2716.3,2569.8c5.7-0.8,24.7-22.2,34.2-29.1C2738.1,2551.7,2719.2,2552.2,2716.3,2569.8z"/>
						<path fill="#FFFFFF" d="M2445.2,2754.4c5.1-7.4,16.3-16.6,17.7-8.7C2467.1,2733.1,2466.7,2712,2445.2,2754.4z"/>
						<path fill="#FFFFFF" d="M2660.1,2629.3l5.9-3.4c0,0,4.2-6.5,8.5-13c4.1-6.6,8.7-12.8,8.7-12.8s-6,7.1-11.6,14.5
							C2665.8,2621.9,2660.1,2629.3,2660.1,2629.3z"/>
						<path fill="#FFFFFF" d="M2802.5,2618.7c17.9-27.9-50.3,22-14.6-21.3c-57,45.4,11.2,3.5-26.6,40.8
							C2784.4,2617.3,2802.6,2614.4,2802.5,2618.7z"/>
						<path fill="#FFFFFF" d="M2761.3,2638.2c-3.4,3-7,6.4-10.6,10.2C2754.9,2644.3,2758.3,2641.1,2761.3,2638.2z"/>
						<path fill="#FFFFFF" d="M2469.3,2999c1-4.9,1.4-8.3,1.7-11.5C2470.1,2991.3,2469.5,2995,2469.3,2999z"/>
						<path fill="#FFFFFF" d="M2658.5,2772.1c0,0,4.7-11.6,9.3-23.1c5.2-11.3,10.4-22.7,10.4-22.7c-15,29.6-60.4,96.9-47.4,99.3
							c15.5-21,31.9-47.7,35.1-61.4L2658.5,2772.1z"/>
						<path fill="#FFFFFF" d="M2239,3243.6l-0.3-24.9l-6.7,30C2235.3,3240.3,2241,3257.3,2239,3243.6z"/>
						<path fill="#FFFFFF" d="M2230.8,3254.5l1.3-5.8C2231.5,3249.9,2231.1,3251.8,2230.8,3254.5z"/>
						<path fill="#FFFFFF" d="M2503.6,2909.6c8.2-14.2,13.8-26,18.9-40.2C2517.7,2873.8,2497.3,2909.4,2503.6,2909.6z"/>
						<path fill="#FFFFFF" d="M2238,3415.6c0,0-0.4-10,0-20c0.3-10,0.5-20,0.5-20s-0.6,10.9-1.2,21.8c-0.4,5.4-0.5,10.9-0.5,15
							c0,4.1,0,6.8,0,6.8L2238,3415.6z"/>
						<path fill="#FFFFFF" d="M2222.4,3603.1l-1.6,7.2c0,0,1.5,8.3,3.5,16.5c2.1,8.2,4.2,16.4,4.2,16.4l1.3-7.3c0,0-2.2-8.1-4-16.3
							C2224.1,3611.4,2222.4,3603.1,2222.4,3603.1z"/>
						<path fill="#FFFFFF" d="M2451,3376c2.5-22.8-4.9-41.8-8-36.1c0,0-0.3,2.8-0.8,7c-0.6,4.2-1.1,9.8-1.4,15.4
							c-0.7,11.2-1.5,22.5-1.5,22.5c10.2-10.6,0.3-12.5,5.4-38.2c0,0,1.1,7.4,3,14.8C2449.3,3368.7,2451,3376,2451,3376z"/>
						<path fill="#FFFFFF" d="M2968,4714c-13.1-0.6-61.6-32.1-60.8-39.1c7.7,2.3,36,15.3,21,2.5c0,0-11.8-2.2-23.2-5.3
							c-11.6-2.9-23.2-5.9-23.2-5.9c-45.5-40.6,48.8,9,77.5,17.4c-25.9-15.8-43.8-24.1-61.9-33.4c-18.2-9-37.2-17.9-63.4-37.1
							c14.9,12.1,22.4,22.5,29.3,30.6c-2.1,5.2-15.1-1.8-31.9-13.6c-16.9-11.6-37.7-27.5-54.9-41c19.1,20.8,4.1,14-14.6,4.7
							c-3.1-2-5.4-3-7.2-3.6c-2.2-1.1-4.3-2.1-6.4-3.1l4.2,3.3c-1,0.7-1,2.5,0.8,6.4c30.8,20.9,48.8,44.4,68.4,58.4
							c-4.6-14.1,12.1-2.4,34.6,12.6c22.5,15,49.8,35.1,64.5,39.9l30.9,15.8l11.3,6.4c1.4,2.9-3,3.3-21.8-3.7
							c15.6,6,64.6,31.5,62.4,24.4c0,0,7,3.5,17.5,8.9c10.6,5.1,25,11.4,39.3,17.9c14.3,6.4,28.6,13,39.6,17.1
							c10.9,4.3,18.3,7.2,18.3,7.2c3.4,2.1,6.7,4.3,8.9,6.6c4.4,0.6,5.4,0,5.2-1c0,0,8,3.1,21.9,8.4c14.2,4.8,34.4,11.6,58.7,19.8
							c49.1,14.7,115.1,33,182.7,43.8c33.5,6.6,67.6,9.6,99.3,13.9c31.9,2.2,61.7,5.3,87.2,5.8c25.6,0.5,46.9,1,61.8,1.3
							c14.9-0.4,23.4-0.6,23.4-0.6c-26.9-0.2-50.1-5.3-77.7-7.8c41.7-10.2-45.1-3.3-32.3-14.3c18.6-2.3,45.5-1.2,61.5,2.1
							c6-5.3-16.7-10.7-13.8-17.2c-33.4-3.9-52.8-0.8-72.4,2.9c-19.6,3.9-39.3,7.9-72,1.4c3.5-6.2,24.3-9.3-18.5-13.8h11
							c-34.8-0.3-47.3-7.7-56.9-11.4c-9.6-4.2-16.3-6.2-39.4-1.6l3-9c-15.9,0-38.7-3.4-61.8-7.7c-22.9-5-45.8-11.4-62.5-15.4
							l2.5-1.2c-94.8-20.1-52.7-13-154.6-49.8c0,0,3.1,0.6,7.8,1.6c4.6,1,10.9,2.2,17.3,3.2c12.6,2,25.2,4,25.2,4
							c-32.9-17.5-45-10.4-69-22.6c2.5-0.9-0.2-9.7,23.3-0.9c0,0-7.8-2.4-19.6-6c-11.8-3.7-27.7-8.1-43.1-14
							c-15.6-5.6-31.1-11.2-42.8-15.5c-11.7-4.2-19.2-7.7-19.2-7.7C2932.6,4689.3,2965.6,4708,2968,4714z"/>
						<path fill="#FFFFFF" d="M2834,4613.2c-5.4-4.4-11.7-9.2-19.5-14.3C2821.6,4604.3,2827.9,4608.9,2834,4613.2z"/>
						<path fill="#FFFFFF" d="M3705.8,4898.4l-38.3,1.1C3679.4,4899.8,3691.8,4899.6,3705.8,4898.4z"/>
						<path fill="#FFFFFF" d="M2674.2,4509c13.4,19.6-17.2-7-22.7-7.2c0,0,15.1,14.4,30.3,28.7c15.7,13.7,31.5,27.3,31.5,27.3
							c2.1-3,11-0.7,11.9-4.4c0,0-12.9-10.9-25.8-21.9c-6.5-5.4-12.8-11.1-17.4-15.5C2677.3,4511.9,2674.2,4509,2674.2,4509z"/>
						<path fill="#FFFFFF" d="M2727.1,4578.9c3.7,0,12.1,3.7,21.2,8.2c0,0-9.2-6.8-17.8-14.3c-8.7-7.5-17.3-14.9-17.3-14.9
							C2711.7,4560.1,2713.9,4565.4,2727.1,4578.9z"/>
						<path fill="#FFFFFF" d="M2845.5,4424.5l9.9,8.1l17,9.8c0,0-6.8-4.4-13.6-8.7C2852,4429.3,2845.5,4424.5,2845.5,4424.5z"/>
						<path fill="#FFFFFF" d="M3000.6,4554.5c-10.7-12.2-37.2-25.1-46.5-29.1C2982.9,4543.4,2969.1,4537.9,3000.6,4554.5z"/>
						<polygon fill="#FFFFFF" points="2997,4482.6 3024.9,4496.7 3023,4494.2 						"/>
						<path fill="#FFFFFF" d="M3977,4821.6c5.7-1.5,11.3-2.9,17-4.9C3986.2,4819,3981.1,4820.2,3977,4821.6z"/>
						<path fill="#FFFFFF" d="M3670.2,4871.1c87.4,8.4-56.8,10.3-29.6,23.1l47.8-5.6l-4,3.7c0,0,14.6-0.7,29.2-1.4
							c14.6-1.4,29.1-2.8,29.1-2.8c-12.4-5.3-21.3-5.1-19.1-11.8c77.3-3.7,24.9,6.9,82.6,8.8c0,0,21.6-3.1,43.3-6.1
							c21.6-3.4,43-7.9,43-7.9l-6.6,3.2c7.2-1.4,10.3-2.8,12.6-4.3c0,0,72.5-13.5,142.6-36c17.7-5,35-11.2,51.2-17
							c16.2-5.9,31.5-10.7,44.2-16.2c25.5-10.4,42.5-17.4,42.5-17.4c47.2-24.9-31.7,0.2,0.9-23.4c-56.3,24-144.4,45.1-146.1,58.1
							c1.5-2.3,4.3-6.8-8-5l-31.2,20l33.5-5.9c-7.9,5-20.8,10.7-36.2,16.1c-15.6,4.8-33.5,9.5-51.2,13.5
							c-35.4,7.8-69.7,10.5-80.5,9.4c64.1-15.7,29.5-20.3,119.7-34.1c-4.8-2.3-22.3-4.2-2.9-10.6
							C3874.7,4850.4,3779.7,4857.3,3670.2,4871.1z"/>
						<path fill="#FFFFFF" d="M4624.4,4457.2l0.3,1.4C4625.6,4456.8,4625.7,4456,4624.4,4457.2z"/>
						<path fill="#FFFFFF" d="M4597.7,4480.7c0,0-7.2,11.3-14.4,22.5c-7.2,11.4-15.1,22-15.1,22s15.3-13.3,29.6-27.7
							c14.5-14.2,29-28.4,29-28.4l-2.2-10.5c-3.4,6.6-20.8,29.4-31.2,34.5L4597.7,4480.7z"/>
						<path fill="#FFFFFF" d="M4527,4570.4c30.2-29.7,20.9-36.7,0.8-25.4c25.7-28.7,22.7-4.6,35.3-30.3c-5.8-5.2-38,29.2-45.7,36.8
							L4527,4570.4z"/>
						<polygon fill="#FFFFFF" points="4263.2,4733.3 4271.8,4724 4245.4,4736.1 						"/>
						<path fill="#FFFFFF" d="M4271.8,4724l26.2-12.1c-3.3-2-6.5-3.9-11.7-3.7L4271.8,4724z"/>
						<path fill="#FFFFFF" d="M4365.4,4677.3c10.9-5.7,22.5-12.6,36.5-21.3c0,0-9.1,5.3-18.2,10.7
							C4374.6,4672,4365.4,4677.3,4365.4,4677.3z"/>
						<path fill="#FFFFFF" d="M4335.4,4691.4l1.5,0.7l28.4-14.9C4354.7,4682.3,4345.1,4686.9,4335.4,4691.4z"/>
						<path fill="#FFFFFF" d="M4298,4711.9c7.7,4.5,16.4,8.9,51.8-14l-12.9-5.8c0,0-9.7,5.1-19.4,10.1
							C4308,4707.5,4298,4711.9,4298,4711.9z"/>
						<polygon fill="#FFFFFF" points="3194,4596.6 3221.9,4603.1 3219.5,4601 3191.6,4594.5 						"/>
						<path fill="#FFFFFF" d="M3348.1,4653.6c7.2,0.3,12.7,0.2,17.8-0.1C3358.5,4652.6,3352.5,4652.5,3348.1,4653.6z"/>
						<path fill="#FFFFFF" d="M3475.5,4626.9c31.1,11.4-45.9,4.2,13.4,14.9c4.6,7.2-25.2,13.7-52.9,4.6c3.4-6,28.1,0.8,11.9-8.9
							c-19.9,4.1-26.1-2.2-21.4,8.6c-32.8,0.7-37.7,5.9-60.7,7.3c38.7,6.2,119.5,28.9,170.6,20.2c28.3-9.7,12.8-27.1,14.4-44.1
							c-1.8-2.4-19.8-4.4-37.6-6.4C3495.5,4621.4,3477.6,4621.5,3475.5,4626.9z"/>
						<path fill="#FFFFFF" d="M3428.7,4601.8c-14.3-3.4-18.9-3.4-27.9-4.2C3401.9,4604.1,3417,4600.2,3428.7,4601.8z"/>
						<path fill="#FFFFFF" d="M3778.9,4743c2.9-2.8,31.7-9.5,24.9-12.9c0,0-10.9,2.2-21.9,4.3c-10.9,2.4-22,3.8-22,3.8
							C3770.3,4737.9,3774.3,4740.4,3778.9,4743z"/>
						<path fill="#FFFFFF" d="M3740.5,4741l19.4-2.8C3755,4738.4,3749,4739.2,3740.5,4741z"/>
						<path fill="#FFFFFF" d="M3781.2,4744.2c-0.8-0.4-1.5-0.8-2.3-1.2C3778.3,4743.6,3778.5,4744.1,3781.2,4744.2z"/>
						<path fill="#FFFFFF" d="M4467.4,4614.3c2.2,4.2,18.7-10.7,26.3-18.9C4486.5,4600.7,4475.4,4607,4467.4,4614.3z"/>
						<path fill="#FFFFFF" d="M4943.6,3955.5l9.7-17C4949,3944.2,4946.9,3947.2,4943.6,3955.5z"/>
						<path fill="#FFFFFF" d="M4887.9,3650.9c-0.8-0.6-1.4-2-1.9-3.8C4886.4,3648.9,4887,3650.1,4887.9,3650.9z"/>
						<path fill="#FFFFFF" d="M4886,3647c-2.4-12.3,8.6-48,3-61.8l1.7,1.8l-1.6-24.7c-0.7,11.5-1.8,29.2-2.8,45.8
							C4884.7,3624.6,4884,3640,4886,3647z"/>
					</g>
				</g>
			</g>
		</g>
	</g>
</g>
<g>
	<g id="m4eySa_1_">
		
			<image overflow="visible" opacity="0.75" enable-background="new    " width="658" height="500" xlink:href="ACA1737977B096E6.png"  transform="matrix(5.1982 0 0 5.1481 2022.5415 2180.1028)">
		</image>
		<g>
			<g>
				<g>
					<path fill="#227CAE" d="M4728.3,3229.7c22.3,3,44.5,6.4,66.9,8.8c55,5.8,110.2,6.4,165.4,3.5c0,0.6,0,1.2,0,1.7
						c-15.1,15.1-30.2,30.3-47.4,43.1c-49.5,36.7-105.5,58.1-165.6,69.8c-34.2,6.7-68.6,10.4-103.5,10.5c-6.5,0-8.8,2.5-10.4,8.4
						c-11.5,41.5-25.3,82.3-41.4,122.2c-1,2.4-2.2,4.6-3.4,6.9c-4.6,0.9-8.4,3.7-12.5,5.7c-493.3,246.6-986.5,493.2-1479.8,739.8
						c-4.4,2.2-8.7,4.7-12.8,7.4c-92.5-12.2-183-33-271.3-63.2c-1.6-0.5-3.2-1.3-4.7-2c-2.4-4,0.7-5.9,3.1-7.8
						c2.9-2.4,6.5-3.7,9.9-5.4c629.6-314.8,1259.2-629.6,1888.7-944.4C4715.5,3231.9,4721.3,3228.3,4728.3,3229.7z"/>
					<path fill="#2C7EB0" d="M4130.1,2354.2c7.5,4.6,7.5,10.7,3.8,17.9c-5.3,10.2-13,18.4-21.3,26.1c-14.2,13.2-29.9,24.4-46.5,35.2
						c4.5,2,7.8-0.6,11-1.7c39.8-13.3,80-25,121.9-29.7c15.5-1.7,31.2-2.6,46.7,0.9c19.8,4.4,24.5,17.1,11.7,32.7
						c-14.5,17.6-34.1,28.5-54,38.5c-48.9,24.5-100.9,39.9-154,52.2c-3.3,0.8-6.7,1.6-10,3c17.1,2.8,34.5,1.5,51.4,5.4
						c-5.1,3.9-11.1,6.2-16.7,9c-134.9,67.5-269.8,134.9-404.7,202.3c-5.2,2.6-10.4,7.2-16.8,2.7c13-27.8,28.5-54.2,44.3-80.4
						c56-93.7,123.8-177.9,203.7-252.3c14-13,27.9-26.1,44.8-35.4c3.7-2,7.8-5.2,12-2c4.4,3.4,2.7,8.4,1.6,12.9
						c-3,12.7-8.4,24.6-13.9,36.3c-1.9,4.1-3.9,8.2-6.5,13.7c5.9-1.9,9-5.3,12.4-8c39-31,81.3-56.1,128.9-71.5
						c7.5-2.4,15.8-2.9,22.5-7.7C4111.6,2354.2,4120.8,2354.2,4130.1,2354.2z"/>
					<path fill="#91BFD7" d="M3304.8,4272.4c-8.7,0-17.4,0-26.1,0c-0.5-1.1-0.3-2,0.7-2.7c8.2-2.4,16.4-2.4,24.7,0
						C3305.1,4270.4,3305.3,4271.3,3304.8,4272.4z"/>
					<path fill="#B6D4E4" d="M3304.8,4272.4c0-0.5,0-1,0.1-1.5c5.8-4.4,12-3.2,18.3-1.3c1,0.7,1.3,1.6,0.8,2.7
						C3317.5,4272.4,3311.1,4272.4,3304.8,4272.4z"/>
					<path fill="#AACDDF" d="M3278.7,4270.9c0,0.5,0,1,0.1,1.5c-5.8,0-11.6,0-17.4,0c-0.5-1.1-0.3-2,0.7-2.7
						C3267.8,4267.8,3273.4,4266.6,3278.7,4270.9z"/>
					<path fill="#DEEBF2" d="M3323.9,4272.4c0-0.5,0-1,0.1-1.5c5.2-4,10.4-4,15.6,0c0,0.5,0,1,0,1.5
						C3334.3,4272.4,3329.1,4272.4,3323.9,4272.4z"/>
					<path fill="#C8DFEB" d="M3261.3,4270.9c0,0.5,0,1,0.1,1.5c-4.6,0-9.3,0-13.9,0c0-0.5-0.1-1-0.1-1.4
						C3252,4267.1,3256.6,4267.1,3261.3,4270.9z"/>
					<path fill="#257DAF" d="M4604.1,2986.6c5.5,23,11.3,46,14.8,69.5c0.7,4.5,4,9.2,10.8,10.6c30.3,6.2,60.8,11.1,91.5,14.1
						c1.7,0.2,3.3,0.8,5,1.2c1.2,4.2-2.2,5.5-4.6,7.3c-2.6,1.8-5.6,3-8.4,4.5c-670.9,335.5-1341.8,670.9-2012.7,1006.3
						c-12.7,6.4-25.3,12.9-38.1,19c-4.4,2.1-7.8,4.8-9.2,9.6c-51.9-25-101.6-54-149.3-86.4c-30.7-20.8-60.7-42.4-88.8-66.6
						c-3-5.9,1.6-7.8,5.4-9.7c14.9-7.6,30-15,44.9-22.5c24.5-12.3,49.1-24.5,73.6-36.9c2.8-1.4,5.4-3.5,8.8-2.8
						c25.4,3.8,50.7,8.6,76.3,11c41.6,3.9,83.1,4.6,124.8,1.8c64.5-4.2,127-17.5,187.8-39.1c59.7-21.2,115.4-50.5,167.4-86.7
						c35.5-24.7,69.1-51.8,99.9-82.2c3.2-3.2,6.7-6.1,11.5-10.5c-8-0.4-14.2-0.7-20.3-1c-2.6-1.8-7.6,1.5-8.4-2.2
						c-1-4.3,3.6-6,6.9-7.8c5.6-3,11.4-5.7,17.1-8.6c404.2-202.1,808.5-404.2,1212.7-606.3c55.7-27.8,111.3-55.7,167-83.4
						C4594.7,2986.6,4598.9,2982.8,4604.1,2986.6z"/>
					<path fill="#1F7CAD" d="M3261.3,4270.9c-4.6,0-9.3,0-13.9,0c-24.3-0.9-48.7-1.8-73-4.1c-3.5-1.5-7.4,0.3-11-1.3
						c-3.3-0.2-6.6-0.3-9.9-0.5c-3.5-1.5-7.3,0.4-10.8-1.3c-2.8-0.1-5.5-0.3-8.3-0.4c-2.9-1.5-6.2,0.3-9-1.3
						c-14,0.1-27.7-2.5-41.5-4.5c0.5-5.7,5.7-6.1,9.3-7.9c152.1-76.2,304.3-152.2,456.5-228.3c342.9-171.5,685.8-342.9,1028.8-514.2
						c3.1-1.5,6.1-5.9,10.5-2.4c-31,78.7-71.6,152.2-120.3,221.3c-91.6,129.9-206.5,234.7-342.2,316.9
						c-127.4,77.3-263.8,133.4-407.6,172c-83.6,22.4-168.5,38.2-254.6,47.3c-41.5,4.4-83,6.9-124.7,8.7c-5.2,0-10.4,0-15.6,0
						c-6.4,0-12.7,0-19.1,0c-8.7,0-17.5,0-26.2,0C3272.9,4270.9,3267.1,4270.9,3261.3,4270.9z"/>
					<path fill="#237DAE" d="M2653.1,4128.5c-3.8-6.3,1.1-7.9,5.3-9.9c59.5-29.7,119.1-59.5,178.6-89.3
						c625.9-312.9,1251.7-625.8,1877.6-938.8c4.3-2.2,9.4-3.5,11.6-8.6c21.4,0.4,42.7,2.4,64.1,2.2c51.2-0.6,101.4-7.3,150.4-22.2
						c2.2-0.7,4.4-1.1,7.5-1.9c-2.5,19.5-11.5,35.2-24.1,49.1c-23.5,25.9-53.7,41.7-85.4,54.7c-51,21-104.4,33.4-158.4,43.6
						c-5.5,1-11.3,1.6-18.1,5.4c22.5,8.4,44.8,10.6,66.1,16.8c-5.1,1-9.9,3.1-14.6,5.4C4081.9,3551.1,3450,3867,2818.2,4183
						c-4.2,2.1-9.6,3.2-10.3,9.4c-28.2-8.4-55.3-19.6-82.4-30.7C2700.9,4151.6,2676.6,4141,2653.1,4128.5z"/>
					<path fill="#297EAF" d="M4323,2611.3c33.9,18.5,64.6,41.5,93.6,66.9c16.3,14.3,32.1,29.1,46,45.9c-5.4,3.9-11.9,5.6-17.8,8.6
						c-473.5,236.8-947,473.6-1420.5,710.3c-4.4,2.2-8.6,4.9-13.3,6.4c-65.4-13-123.9-39.2-170.4-88.5c-1.2-1.2-2.1-2.7-3.2-4
						c-0.9-3.4,1.7-4.6,3.8-6c2.2-1.4,4.6-2.5,6.9-3.6c214.7-107.3,429.3-214.7,644-322c2.3-1.1,4.4-3,7.2-2.1
						c9.2,6,16.6,14.2,24,22.1c5.1,5.4,6.6,3.8,8.6-2.3c4.5-14.3,9.6-28.4,14.5-42.5c2.9-4.8,8.1-6.5,12.7-8.8
						c249.4-124.6,498.8-249.4,748.2-374C4312.3,2615.2,4316.7,2610.9,4323,2611.3z"/>
					<path fill="#267DAF" d="M4604.1,2986.6c-4.3-0.6-7.8,1.5-11.5,3.3c-45.6,22.8-91.1,45.5-136.7,68.3
						c-419.1,209.6-838.2,419.1-1257.3,628.7c-3.8,1.9-8.1,3.1-10.9,7c1.8,3.1,5.9,0.2,7.5,3c-51.5-3-100.4-13.5-140.1-49.4
						c-14.6-13.2-25.4-29.1-28.7-49.2c4.7-4.1,10.6-5.8,16-8.5c496.1-248.1,992.2-496.2,1488.3-744.2c4.5-2.3,8.7-6.1,14.4-4.9
						c19.7,33.7,34.4,69.5,46.9,106.4C4596.5,2960.1,4600.1,2973.4,4604.1,2986.6z"/>
					<path fill="#287DAF" d="M4545.2,2840.7c-269.7,134.9-539.5,269.8-809.2,404.7c-232.4,116.2-464.9,232.5-697.4,348.7
						c-3.9,1.9-7.5,4.6-12.1,4.3c-6.3-21.3-1.8-41.3,7.7-60.3c16.3-32.6,43.8-54,74.5-71.8c2.3-1.3,4.5-2.5,6.8-3.8
						c0.2-0.1,0.3-0.5,0.8-1.4c-9.1-2.6-18.3-0.7-27.1-2c-4.1-1.5-8.6,0.4-12.6-1.3c-8.6,0.3-17.2,0-25.6-2.2
						c-2.9-1.5-6.2,0.2-9.1-1.3c-10.6,0.1-20.8-2.5-31.1-4.8c1.7-4.4,6-5.2,9.6-6.9c351.3-175.7,702.5-351.3,1053.8-527
						c124.8-62.4,249.6-124.8,374.3-187.2c4.4-2.2,8.7-4.7,13.9-4.2C4495.3,2759.3,4522.9,2798.1,4545.2,2840.7z"/>
					<path fill="#2B7EB0" d="M4323,2611.3c-4,2.3-7.9,4.8-12,6.9c-254.9,127.5-509.7,254.9-764.6,382.3c12.1-38,26.6-75.1,41.5-112
						c18.4-45.5,38.6-90.3,61.1-134c1-2,2.3-4,3.5-5.9c4.5,0.4,8.4-0.8,12.5-2.8c137.1-68.6,274.3-137.2,411.5-205.8
						c4.5-2.3,8.5-6.2,14.3-5.4c37.9,3,74.6,11.7,110.8,22.9C4244,2570.8,4284.9,2588,4323,2611.3z"/>
					<path fill="#2B7EB0" d="M3499.3,3023.1c-3.7,2.2-7.4,4.6-11.2,6.5c-213.6,106.9-427.3,213.6-640.9,320.5
						c-3.5,1.8-7.9,2.5-9.8,6.7c-16.7-17-30.2-36.4-40.9-57.6c-5-10-2.7-16.5,6.9-25c26.5-23.4,57.3-38.6,91.2-47.8
						c23.9-6.5,48.3-9.9,75-12.6c-44.7-13.7-86.6-28.7-125.3-51.2c-3.4-3.1-1.7-5.6,1-7.9c2.9-2.4,6.5-3.8,9.8-5.5
						c158.1-79.1,316.2-158.1,474.3-237.1c5.4-2.7,10.8-5.5,15.5-9.4c38,23.7,73.8,50.5,108.3,78.9c13.8,11.3,27.1,23.4,40.5,35.2
						C3495.8,3018.6,3498.6,3020,3499.3,3023.1z"/>
					<path fill="#2F7FB1" d="M2844.4,2656.5c32.1,11.5,63.2,25.2,94.6,38.3c54.9,22.9,109.1,47.2,162.8,72.8
						c3.3,1.6,7.1,2.4,9.6,5.5c-1.4,5.7-6.8,6.8-11.1,8.9c-82.3,41.3-164.6,82.5-247,123.6c-52.3,26.1-104.6,52.2-156.9,78.4
						c-3.6,1.8-7.1,5.5-11.9,2.7c-5.5-11.5-8.6-23.9-11.7-36.1c-2.6-10.1,0-14.1,10.4-17.4c29.9-9.4,60.7-14.4,91.8-17.6
						c17.5-1.8,35-3.1,54.9-4.9c-4.7-3.1-7.9-5.2-11.1-7.2c-49.5-31.2-94.7-67.4-132.5-112.4c-10.2-12.2-20.3-24.5-28-38.4
						c-1.8-3.6,0.7-5.3,3.2-6.9c2.5-1.5,5.1-2.7,7.7-4c55.5-27.8,111.1-55.4,166.5-83.4C2838.4,2656.9,2841,2654.7,2844.4,2656.5z"
						/>
					<path fill="#2D7EB1" d="M2684.5,2986.6c3.2-1.3,6.5-2.4,9.6-3.9c42.1-21,84.3-42.1,126.4-63.2
						c93.3-46.6,186.6-93.3,279.8-139.9c3.9-1.9,7.4-4.4,11.1-6.6c31.2,16.1,63.6,29.6,94.2,46.8c12.3,6.9,24.6,13.8,36.8,20.7
						c-2.2,5.1-7.5,6.1-11.8,8.2c-152.2,76.2-304.6,152.3-456.8,228.5c-8.2,4.1-16.8,7.8-23.6,14.3
						C2720.3,3061.6,2697.9,3026.9,2684.5,2986.6z"/>
					<path fill="#2C7EB0" d="M2750.2,3091.6c1.6-6,6.6-8.3,11.6-10.7c160.2-80,320.4-160.1,480.6-240.2
						c35.3,18.8,69.5,39.5,102.5,62c-0.2,5.7-5.1,6.5-8.8,8.3c-128.1,64.1-256.1,128.1-384.2,192.2c-33.6,16.8-67.2,33.6-100.8,50.5
						c-3.5,1.7-9.1,2.4-6.9,8.9C2809.3,3143.6,2777.2,3121,2750.2,3091.6z"/>
					<path fill="#317FB2" d="M2844.4,2656.5c-17,8.5-34,17-51,25.5c-42.4,21.2-84.8,42.3-127.2,63.6c-3.2,1.6-7.6,2.1-8,7
						c-21.7-31.2-36.3-65.6-44.8-102.6c-4.4-19.1-8.2-38.5-8.9-58.2c-0.7-23.5,5.6-28.1,27.3-19.7c28.6,11.1,56.9,22.8,85.4,34
						c39.8,15.7,79.7,31.2,119.5,46.8C2839.3,2653.9,2841.9,2655.2,2844.4,2656.5z"/>
					<path fill="#287DAF" d="M2547.9,3903.8c-17.8,10.6-36.8,19-55.3,28.4c-23.6,12-47.4,23.8-71.1,35.6c-3.4,1.7-7.1,3-6.5,7.9
						c-30.4-23.7-58.6-49.8-85.9-76.9c-48.6-48.1-92.7-100-132.5-155.7c3.9-1.7,5.5,1.5,7.6,3.1c87.9,66.3,184.6,115.1,290.8,144.4
						C2512.5,3895.4,2530.2,3899.4,2547.9,3903.8z"/>
					<path fill="#297EAF" d="M3076.6,3457.6c4.2,0.3,8.7-1.5,12.6,1.3C3085,3459.1,3080.7,3459.4,3076.6,3457.6z"/>
					<path fill="#227CAE" d="M3163.4,4265.6c3.7,0.2,7.6-1.4,11,1.3C3170.7,4267.1,3166.9,4267.4,3163.4,4265.6z"/>
					<path fill="#227CAE" d="M3142.8,4263.8c3.6,0.3,7.4-1.3,10.8,1.3C3149.9,4265.3,3146.2,4265.5,3142.8,4263.8z"/>
					<path fill="#227CAE" d="M3125.4,4262.1c3,0.2,6.3-1.2,9,1.3C3131.3,4263.6,3128.2,4263.7,3125.4,4262.1z"/>
					<path fill="#297EAF" d="M3042,3454.2c3.1,0.2,6.4-1.2,9.1,1.3C3047.9,3455.7,3044.8,3455.8,3042,3454.2z"/>
				</g>
			</g>
		</g>
	</g>
</g>
</svg>
