<?xml version="1.0" encoding="utf-8"?>
<!-- Generator: Adobe Illustrator 17.1.0, SVG Export Plug-In . SVG Version: 6.00 Build 0)  -->
<!DOCTYPE svg PUBLIC "-//W3C//DTD SVG 1.1//EN" "http://www.w3.org/Graphics/SVG/1.1/DTD/svg11.dtd">
<svg version="1.1" id="Layer_1" xmlns="http://www.w3.org/2000/svg" xmlns:xlink="http://www.w3.org/1999/xlink" x="0px" y="0px"
	 viewBox="0 0 3600 3600" enable-background="new 0 0 3600 3600" xml:space="preserve">
<g>
	<circle fill="#FFFFFF" cx="1864.9" cy="1751.9" r="1269"/>
	<g>
		<g>
			<g>
				<g>
					<g>
						<path fill="#FFFFFF" d="M3162.3,1549.5c3.6,18.4,0,35.3-3.2,28.6c11.3,36.7,4.1,38.4,17.2,42c8.2,23.9,1.4,50.6-5.9,23.3
							c0,0,3.3,17.4,6.6,34.8c3,17.4,5.2,35,5.2,35s0.2-10.6,0.5-21.2c0.5-10.6-0.2-21.2-0.2-21.2c12.3,11-1.1,67.6,12,80.9
							c0,0-0.8-19.3-1.5-38.5c-0.4-9.7-0.8-19.2-1-26.5c-0.3-7.2-0.9-12-0.9-12l3.9,3.6c-5.2-17.3-6.1-51.3-5.6-63.4
							c2,1.7,4.6,0.2,6,13.8c-4.1-46.6-10.6-52.2-16-55.7c-6.2-3.5-10.7-5.2-19.4-42.5C3161.1,1535.3,3161.9,1541.3,3162.3,1549.5z"
							/>
						<path fill="#FFFFFF" d="M3173.4,1467.2l-20.4-28.7c0,0-0.5-3.4-1.4-8.4c-0.8-5.1-1.9-11.8-3.5-18.5
							c-2.9-13.4-5.8-26.6-5.8-26.6c-4.6,0.6-19-36.2-15.6-9.3c2.1,4.8,6.3,14.4,8.1,22.5c-5.6-1.5-11.7-18.5-17.1-32.7
							c-5.7-14.1-11.2-25.3-13.4-16.4c15.6,39.4,14.2,46.6,29.5,69.5c8.1,38.1,12.9,66.2,12,84.8c3.5,11,9.8,11.6,13.6,25.9
							c-0.7-3.2-1.3-6.1-2.2-9.8l14.5-4.2c-5.5-11.7-5.6-23.5-9-36.9c0,0,2.2,3.6,4.8,9.2c2.7,5.6,6.3,13,9.8,20.5
							c7.2,15.1,14.3,30.2,14.3,30.2c5.2-11.3,2.9-32.5-0.6-54c-4-21.4-10-42.9-9.9-56.1C3176.3,1461.7,3169.8,1405.2,3173.4,1467.2
							z"/>
						<path fill="#FFFFFF" d="M3159.7,1529.2c0.1,0.4,0.2,1.1,0.3,1.5C3159.8,1530.2,3159.8,1529.5,3159.7,1529.2z"/>
						<path fill="#FFFFFF" d="M862.8,2458.7c7.5,10,12.5,11,15,11.3c0,0-5.1-7.1-12.7-17.8c-3.9-5.3-8.3-11.6-13-18.3
							c-4.5-6.9-9.2-14.3-14-21.7c-9.5-14.7-19.1-29.4-25.5-40.9c-6.6-11.3-11-19-11-19c-1.3,5.7,14.8,43.5-0.8,21.1
							c1.8,13,25.2,42.3,32.6,43.9l-10.6-5.4c23.7,23.4,24.2,50.1,8.2,35l1.6,2.2c0,0,19.2,14.2,38.4,28.4
							c9.3,7.1,19.4,13.7,26.8,18.5c7.3,4.9,12.3,8.1,12.3,8.1C891.3,2477.5,886,2490.9,862.8,2458.7z"/>
						<path fill="#FFFFFF" d="M3088.8,1959.4c-1.9,18.5-0.9,20.9,0.9,19.1C3089.8,1971.7,3089.7,1965.3,3088.8,1959.4z"/>
						<path fill="#FFFFFF" d="M928.4,2516.2c0,0,6,4,12.4,7.7c6.3,3.7,12.6,7.4,12.6,7.4C944.4,2524.6,935.1,2519.6,928.4,2516.2z"
							/>
						<path fill="#FFFFFF" d="M697,2429.2c-0.5,0.2-1,0.2-1.2,1.2l11,9.7c-0.1-0.2-0.2-0.3-0.2-0.3
							C703.1,2435.9,699.9,2432.4,697,2429.2z"/>
						<path fill="#FFFFFF" d="M1445.9,2848.6c2.8,0.8,5.2,1.6,8.5,2.6C1451.3,2850.1,1448.5,2849.3,1445.9,2848.6z"/>
						<path fill="#FFFFFF" d="M493.6,2050.2c0,0,6.2,16.9,12.4,33.9c5.9,17,13.2,33.4,13.2,33.4c-6.7-8,3.9,24.8-4.9,11.6
							c2.2,5.1,10.7,29.3,11,21.9l-4.2-14c22.3,32.6,19.7,9.9,48.3,65.1c-2.6-19.2-6.9-32.1-11.9-42.5c-4.6-10.6-10-18.5-15.5-27.5
							c-2.7-6.3-4.6-11.8-6.7-17.3c0,0-2-3.2-5.1-8.1c-3.1-4.9-7.1-11.4-10.7-18.1c-7.5-13.4-15.1-26.8-15.1-26.8L493.6,2050.2z"/>
						<path fill="#FFFFFF" d="M2700.9,2762.4l0.1,1.2C2701.3,2762.9,2701.2,2762.6,2700.9,2762.4z"/>
						<path fill="#FFFFFF" d="M2701.3,2768.5l-0.2-4.9C2699.5,2767.5,2689.8,2777.4,2701.3,2768.5z"/>
						<path fill="#FFFFFF" d="M915.8,2513.2c2.3-0.8,6.7,0.3,12.5,3l-18.3-12C911.8,2506.7,913.9,2510.1,915.8,2513.2z"/>
						<path fill="#FFFFFF" d="M865.1,2491.8l-32.5-42.6l-16.1-13.1C829.3,2452.4,845.3,2470.6,865.1,2491.8z"/>
						<path fill="#FFFFFF" d="M1375.5,2811c95.7,41.1-29.3,2.8,13,25.6c27.3,10.7,40,6.9,57.4,12c-39.7-12.5-34.9-16.7-30.1-21.2
							c4.9-4.6,9.3-8.6-28.8-24.2c8-3.4,22.5,0,38.6,5c16.1,4.8,33.2,12.2,45.5,18.8c12.8,10.6,5.6,10.7-6.3,8.7
							c-11.7-2.3-27.9-6.4-33.5-2.2c31.7,10.3,26.9,6.6,42.5,4.8c24.2,9.5,50.6,15.2,74.4,19.3c11.9,2.2,22.9,5.2,32.7,8.3
							c9.9,3,18.4,7,25,12.8c37.1,6.2,36.1-1,58.1-3.2c3.2-5.9-10-10-25.4-14.1c-15.3-4.7-32.7-10-38.1-16.3c2.5,1.7,7.3,5,5.3,6.4
							c0,0-7.6-2.5-15.1-4.9c-7.6-2.2-15-5.2-15-5.2c27.9,12.1-7.3,11.6-23.2,7.8c-11.4-2.9-34.3-8.8-30-11.5c0,0,4.4,0.8,9,1.3
							c4.5,0.5,9,1.1,9,1.1c-10.6-4.8-23.2-6.7-35.9-9c-12.7-2.4-25.8-4.6-36-12.3c-0.2-3.2,8.8-1.1,10.8-2.5
							c-28.3-1.7-53-10.8-92.2-22.4l26.5-2c-35.3,0.6-100-36.3-139.1-68.9c3.6,4.7,11.7,11,5.2,10.1c-27.2-12.9-41.1-32.9-25.9-30.9
							c-7.4-1.8-16.9-6.5-26.9-13.6c-10-7.3-20.8-16.3-32-25.3c-11.3-9-21.9-19.2-32.9-27.3c-11-8-21.5-14.8-31-18.8
							c0,0-11.3-4.4-28.2-11c-17.1-6.6-38.8-17.1-61.6-27.3c-21.8-11.1-44.2-22.5-60.7-31.7c-16.3-9.6-27.2-15.9-27.2-15.9
							c5.9,4.4,12,9.3,17.5,14.9c3.1,20.5,10.5,27-17.7,10.7c24.2,19.1,23.6,3.9,54.9,36.4c-16.1-9-29.2-3.1,1,29
							c21.8,17,42.5,31.5,63.9,42.9c20.8,12.2,41.8,21.7,62.5,30.6c41.4,18.1,83.2,31.7,128.8,50.6c-0.7,4.6,16,15.9,36.7,28.7
							c21.1,12.3,46.6,25.2,63.1,34.2c-16.9,2.3-43.2-8.2-69.9-20.3c15.8,9.3,43.8,24,64.8,34.4L1375.5,2811z"/>
						<path fill="#FFFFFF" d="M1149.1,2709.8c1.7,2.2,3.7,4.2,5.8,6.1C1154.1,2714.5,1152.4,2712.6,1149.1,2709.8z"/>
						<path fill="#FFFFFF" d="M1286.9,2784.4c-0.5,0.1-0.5,0.4-0.8,0.6c2.8,1.3,5.5,2.7,8.3,4.1
							C1291.7,2787.4,1288.7,2785.6,1286.9,2784.4z"/>
						<path fill="#FFFFFF" d="M917.1,2545.6c-6.3-3.4-10-6.6-15.9-10.3c3.1,2.8,6.9,6.2,10.7,9.5
							C915.9,2547.5,918.2,2548.4,917.1,2545.6z"/>
						<path fill="#FFFFFF" d="M914.8,2518.9l4.9,0.5c-1.5-2.4-2.5-4.1-3.9-6.2C913.9,2513.8,913.2,2515.5,914.8,2518.9z"/>
						<path fill="#FFFFFF" d="M1750.1,2991.1l10.7-1.1C1754.5,2989.7,1751.6,2990.3,1750.1,2991.1z"/>
						<path fill="#FFFFFF" d="M1478,2868.1c-35-11.1-8.6,11.3-57.4-7.6l14,6.4c-37.5-7.5-96.7-38.1-136.4-58.7
							c6.7-1.9-20.7-18.7-12.2-23.1c-13.5-6.8-27.2-13.4-39.4-18.7c-12-5.7-23-9.8-31.9-10.6c-14.7-12-42-23.2-59.8-39.8
							c5.5,9.8-37.9-6.9,13.8,22.6c-4.2-2.2-2.5,0.4-6.7-1.8c27.1,28.1,46.9,26.1,74.3,43.8c14.1,14.7-31.1-10.9-16.5,0.8
							c18.2,9.8,45.9,26.2,69.3,39.4c24,12,43.9,20,46.6,11.3c27.3,11.8,29.6,16.5,36.3,23.4c12.7,0.6,28.6,5.8,46.2,11.8
							c17.4,6.3,35.9,14.8,53.7,21.2c35,14.1,65.7,22.6,68.7,11c-8.3-2-19.1-4.6-31-7.5c-11.7-3.3-24.5-6.4-37.3-8L1478,2868.1z"/>
						<path fill="#FFFFFF" d="M960.8,2592.9c1.5,1.8,3.8,4,4.9,5.6C964.2,2596.8,962.4,2594.8,960.8,2592.9z"/>
						<path fill="#FFFFFF" d="M774.1,2160.1l20.4,8.3c8.5,19.5,15.5,35.7,22.5,50c6.9,14.4,11.8,27.6,18.1,39.8
							c6,12.4,11.8,24.5,18.2,37.6c6.7,13,14.7,26.6,24,42.6c0.9,6-4.7-1.1-7.6-4.7c27.6,44.2,69.7,110.8,100.1,135.2
							c9.5,13.6,35.1,49.1,20.5,39.9c6.4,5.2,13.4,11.3,19.2,18.8c-2.6,5.7-14.9-14.7-18.8-12c4.6,5.9,5.6,8.8,8.1,8.9
							c-12-6.3-5.8,22.9-44.4-22.2c-4.4-26,27.9,30.1,30.4,10.2c-12.6-14.7-15.5-9.3-18-9.4c-15.7-19.3-12-21.5-8.7-22.4
							c-9.2-4.8-24.2-32.6-36.8-39.4c-28.9-38.7,10.5-4.3-7.8-29.8c0,0-5.7-1.5-11.4-3.1c-5.8-1.5-11.3-3.3-11.3-3.3l-26-45.8
							c-21.2-31.6-25.5-26.1-30.7-21.5c-4.9,4.3-12.4,8.7-36.7-28.9c6.1,3.4,8-4.4,6.4-17.7c-1.8-13.2-6.7-32-13.4-51.3
							c5.2,11,14.6,25.8,24.9,40.9c10,15.3,19.5,31.7,25.8,46.2c-11.7-43.9,31.4,51.9,31.5,25.2c-16-15.4-35.5-46.2-44.7-73.1
							l5.4,7.6c-12.6-26.9-36.1-41.1-47.5-81.5c-8-19-2.6-17,1.9-15C779.5,2174.8,771,2161.4,774.1,2160.1z M793.3,2200.5
							c0,0,2.2,6.5,4.8,12.8c2.5,6.4,4.9,12.8,4.9,12.8C802.7,2219.1,798.3,2210,793.3,2200.5z"/>
						<path fill="#FFFFFF" d="M3009.1,1059.5c1.2,2.9,2.6,6.3,3.7,9C3012.4,1066.2,3010.8,1062.9,3009.1,1059.5z"/>
						<path fill="#FFFFFF" d="M688.9,1103.1l9.6-15.7C694.5,1093.4,691.5,1098.4,688.9,1103.1z"/>
						<path fill="#FFFFFF" d="M905.9,743l17.8-21.7C915.8,729,910.5,736,905.9,743z"/>
						<path fill="#FFFFFF" d="M2882.1,882.7l-0.5-0.8c-1.2-0.9-2.1-1.7-3.4-2.6L2882.1,882.7z"/>
						<path fill="#FFFFFF" d="M1668.7,408.8c4.2,0.7,9,1.2,15.4,1.3C1683.1,408.8,1677.4,408.4,1668.7,408.8z"/>
						<path fill="#FFFFFF" d="M902.6,747c0.6-0.4,0.9-0.6,1.4-0.9c0.6-0.9,1.2-2,1.9-3L902.6,747z"/>
						<path fill="#FFFFFF" d="M571.7,1251.6c-1,3.9-1.9,7.6-3,11.8C570.5,1258,571.2,1254.5,571.7,1251.6z"/>
						<path fill="#FFFFFF" d="M620.7,1242.8c-1.2,4.1-2.2,8-2.9,11.2L620.7,1242.8z"/>
						<path fill="#FFFFFF" d="M496.8,1867l4.1,24.9C499.6,1879.6,498.2,1872.3,496.8,1867z"/>
						<path fill="#FFFFFF" d="M588.2,1300.7c0.2,1.6,0.3,3.2,0.7,4.3C589.5,1301.6,589.2,1299.8,588.2,1300.7z"/>
						<path fill="#FFFFFF" d="M3041.3,1216.2c-0.2-0.5-0.5-1-0.6-1.3l-1.9,0.2L3041.3,1216.2z"/>
						<path fill="#FFFFFF" d="M3084.3,1261.2c2.9,6.3,5.9,12.9,9,19.3C3090.4,1273.1,3087.2,1266.1,3084.3,1261.2z"/>
						<path fill="#FFFFFF" d="M2027.1,428.7c6.2,2.9,20.9,7.4,13.6,9C2053.3,436.1,2053.5,428.6,2027.1,428.7z"/>
						<path fill="#FFFFFF" d="M2907.3,1159.4c3.5,2,7,5.1,10.6,8.2C2911.9,1161.4,2906.8,1156.1,2907.3,1159.4z"/>
						<path fill="#FFFFFF" d="M2917.9,1167.5c2.9,3,6.1,6.2,9,8.8C2923.9,1173.1,2920.9,1170.1,2917.9,1167.5z"/>
						<path fill="#FFFFFF" d="M1862.6,542.6c-1.5-1-3.7-1.8-6.8-1.9C1856.8,542.6,1859.2,543,1862.6,542.6z"/>
						<path fill="#FFFFFF" d="M3097.3,1297.3c4.8,2,41.8,87.9,18.5,13c11.1-0.7,21.8,45.9,29.3,65.5c-1.7-15.4,8.9,5.3,11.4-0.2
							c-4.2-9.7-10.3-20.9-15.4-37.5c2.2-9.2,14.3,14.7,17.7,35.4c-1.4-26.2,17.3,28.8,11.7-7.3c-26.2-73.1-49.9-123.2-87.2-165.4
							c5.1,9.7,10.3,19.6,15.5,29.6c4.7,10.2,9.3,20.5,13.7,30.7s8.4,20.2,11.9,29.9c3,9.8,5.6,19.3,7.4,28.1l-13.9-11
							c-2.1-20.5-8.5-35.6-14.5-50.6c-6.2-15-13.4-29.3-21.5-47.4c0,0,2,5.2,4.9,13c3.2,7.7,6.6,18.2,10.1,28.8
							c6.9,21.1,13.8,42.1,13.8,42.1c5.5,42-3.9,15.8-17.7-13.5C3096.1,1287.9,3098.1,1294.8,3097.3,1297.3z"/>
						<path fill="#FFFFFF" d="M2998.2,1275.1l0.2,1.4c0.8,1,1.5,2.3,2.2,2.9L2998.2,1275.1z"/>
						<path fill="#FFFFFF" d="M689.8,1846.9l4.1,6.4C691.9,1847.9,690.6,1846.3,689.8,1846.9z"/>
						<path fill="#FFFFFF" d="M3020.2,1210.9L3020.2,1210.9C3019.9,1210.5,3019.8,1210.3,3020.2,1210.9z"/>
						<path fill="#FFFFFF" d="M688.9,1679.2c0.2,0.2,0.5,0.5,0.8,0.9C689.3,1679.5,689.1,1679.5,688.9,1679.2z"/>
						<path fill="#FFFFFF" d="M486.5,1614.1c-0.5,0.3-0.9,0.4-1.4,1.2C485.3,1619.5,485.9,1617.5,486.5,1614.1z"/>
						<path fill="#FFFFFF" d="M687.9,1678.9c0.3,0,0.6-0.1,0.8,0.2C688.5,1679,688.2,1678.7,687.9,1678.9z"/>
						<path fill="#FFFFFF" d="M979.7,920.7c0,0-3,0.8-7.1,2.8C972.1,925.3,974,924.8,979.7,920.7z"/>
						<path fill="#FFFFFF" d="M863,1040.9c-0.9,0.6-1.5,1.1-2.6,1.9L863,1040.9z"/>
						<path fill="#FFFFFF" d="M1988.1,381.1c-9.3-0.8-16.2-1.2-22.2-1.2C1972.7,380.7,1980,381.2,1988.1,381.1z"/>
						<path fill="#FFFFFF" d="M689.6,1680.1c0.8,1.8,1.8,4.2,2.7,8.2C691.3,1683.9,690.4,1681.5,689.6,1680.1z"/>
						<path fill="#FFFFFF" d="M1143,715.8c-1.3,1.4-2.5,2.6-3.7,3.9l2.9-1.4L1143,715.8z"/>
						<path fill="#FFFFFF" d="M1222.1,672.9c-2.1,2.5-2.7,4.1-3.7,5.8c12.8-9.7,32.5-20.9,49.1-31.2c17.1-9.5,31-18.3,31.8-24.5
							c-4.8,2.6-20.5,9-34.3,13.6c-13.7,4.9-25.2,8.3-22.5,3.2c-18.4,13.3-51,24-60.1,32.5c34.2-15.3,7.9,5.2-11.1,21.5
							c-20.7,9.7-0.9-9.2-18.5-0.2l-42.4,31.4l38.1-25.5l-5.7,16.1c1.2-1.2,2-2.1,3.2-3.5c30.4-23.9,34.4-20.9,37.5-19.4
							C1187.3,695,1190.3,695.9,1222.1,672.9z"/>
						<path fill="#FFFFFF" d="M1218.4,678.7c-3.9,2.9-6.9,5.9-9.1,8.5C1215.2,683.2,1217.1,680.9,1218.4,678.7z"/>
						<path fill="#FFFFFF" d="M1507.5,567.9c3.6-1.4,7.5-2.9,12.4-5.1C1517.6,563.8,1512.2,566,1507.5,567.9z"/>
						<path fill="#FFFFFF" d="M797.3,2403c1.5-2.5-15.2-43.9-21.4-39.5c5.9,11.8,11.8,23.7,17.8,35.7L797.3,2403z"/>
						<path fill="#FFFFFF" d="M2346.2,565.4c-4.6-2.1-9.3-4-14.1-5.8c-1.2-0.1-2.3-0.1-3.2,0
							C2331.5,561.8,2341.3,564.2,2346.2,565.4z"/>
						<path fill="#FFFFFF" d="M1253,629.8c-6.6,5.2-9.3,8-10.4,10.1C1246.9,636.7,1250.7,633.4,1253,629.8z"/>
						<path fill="#FFFFFF" d="M2342.1,583.1c5.1,4.4,12.6,10.7,12.6,14c11.7,5.4,21.6,5.5,34.3,9.7
							C2374.8,601.8,2359.8,593.2,2342.1,583.1z"/>
						<path fill="#FFFFFF" d="M2390,607.1l-1-0.3C2389.3,606.8,2389.7,606.9,2390,607.1z"/>
						<path fill="#FFFFFF" d="M808.8,2427c2.5,2.9,5.1,6,7.7,9.1l-5-4.1c5,9,9.6,18.1,14.9,26.9c2.5,2.8,5.2,5.7,8.3,9.6
							c-1.4-1.5-2.9-2.2-4.2-2.5c1.7,2.9,3.3,5.7,5,8.5c19.9,16.1,61.7,60,76.4,70.3c17.8,15,36.7,35.5,48.8,48.2
							c-11.4-11.6-26.2-27.3-25.3-19.5c9,14.2,14.5,25.9,23.4,38.8c8.9,12.8,21.2,26.9,46.2,42.4c0,0-6.1-5.8-12.3-11.6
							c-6.2-5.7-12.1-11.7-12.1-11.7s4,2.7,10.3,6.4c6.3,3.8,14.5,8.7,22.8,13.7c8.3,4.9,16.4,9.9,22.6,13.6
							c6.3,3.4,10.6,5.7,10.6,5.7c7.6,11.2-0.8,6.6-12.7-1c-11.6-8-26.2-19.7-32.2-21.1c47.4,34.8,71.9,82.1,102.6,87.7
							c-2.1,9-6.4,25.2,26.4,47.1c-17.3-24.3,22.7,8.4,10-13.5c13.6,3.9,33.6,27.5,39.3,23l-5,1c24.1,23.6,43.9,34.1,61.2,38.4
							c17.3,4.6,31.3,4.9,45.3,8.3c17.8,8.1,33,15.6,46.7,22.6c13.9,6.6,26.4,12.5,38.4,18.2c12,6.1,23.7,11.4,36.3,16.5
							c12.6,5.1,25.7,10.7,40.8,15.8c0.3,6.2,11.7,26.8,36.7,34.6c13.8-3.2,71.1,8.8,79.1,0.6c-43-16.2-38.3-2.1-65.7-7.3
							c-18.5-17.4,1.1-10.6-26.4-26.5c22.2,13.5,109.6,27.3,134.4,42l-9.7-0.8c20.7,8.2,32.2,17.8,48,25.8c7.9,4,16.9,7.5,28.6,9.9
							c11.7,2.2,26.4,2.5,45.3,1.2c0,0,9-0.4,17.9-0.8c9-0.3,17.8-1.5,17.8-1.5c-1.8,0.8-2.1,2-3.1,2.9
							c57.4,5.4,41.4,16.4,105.7,8.8c-4.9,0.5-1.9,1.8-6.9,2.3c18.2,3.6,36.7,1.4,53.8-1.4c17.2-2.8,33-6.5,46.6-9
							c17.3,7-3.4,8.5-13.6,15.3c65.1-0.3,132.6-24.6,169.1-42.2c0,0,2.5-0.2,6.5-0.4c3.9-0.2,9-0.5,14.1-1.2
							c10.3-1.1,20.5-2.2,20.5-2.2c-22.8,9.3-50.8,22.9-42.5,26.6c22.3-5.6,17.1-8.7,48.9-14.4c-4.2,6.4-16.3,14.4-30,24.2
							c68.1-6.3,10.4-21.8,60.4-16.4c20.6-5.4,30.3-16.5,30.7-23.2c0,0,9.7-0.6,19.5-1.2c9.9-0.4,19.5-1.6,19.5-1.6
							c1.5-9.6,46.2-23.7,74.1-37.1c2.1-4.8-25.9,1.2-35.9,7.8c0.2-6.3,29.1-21.4,48.5-28.8c7,7.1,38-7.7,65.4-20.4
							c26.9-13.5,50.2-25.6,43.9-11c20.7-11.5,42.3-26.3,65-40.4c22.1-15.1,44.9-30.2,65.8-46.2c20.9-16.1,41-31.4,57.7-46.8
							c8.4-7.5,16.3-14.6,23.5-21.2c6.9-6.9,13-13.4,18.3-19.1c9.3-4.9,21.8-14.1,30.3-19.4c8.3-5.6,12.7-6.9,6.3,4.7
							c13.8-13.1,25.2-25.5,35.4-37.4c10-12,18.1-24.1,26.7-35.7c8.6-11.5,16.9-23.2,26.1-35.7c9.1-12.4,20.4-24.4,32.6-38.6
							c2.7-1.8-2.4,4.9-7.6,12.2c-5.5,7-10.9,14.7-7.8,15.6c26.1-41.8,62.8-64.7,100.8-131.6c-6.7,11-5.7,16.1-5.2,18.6
							c-3.1-0.5,12-29.7,20.3-47.7c7-8.7-6.1,13.6-1,9.4c42.2-60.9,67.9-121.7,88.5-183.2c20.8-61.6,34.5-124.7,51.5-195.2
							c-9,40.4-3.7,58.3,1,60.1c0,0,2.9-9.9,5.7-19.8c2.9-9.9,5-20,5-20c-2.2-16.8,5.7-46.6,5.3-72.8c2.6-2.7,7.1-14.7,7.5-1.6
							c13.4-38.9,11.4-71.6,9.4-105.7c-1.6-17.1-3.5-34.7-4-54.1c-1.4-19.5-1.9-40.6,0.2-65.2c0,0,5,30,10,60.1
							c3.6,30.5,7.1,61,7.1,61l10.3-29.3c0,0,1.6,13.6,3.2,27.3c1.9,13.7,2.4,27.4,2.4,27.4c10.3-31.5-3.2-60.8,6-64
							c1.9,6.9-0.1,23.3,4.5,24.2c5.5-30.9,0.1-33.7-1.2-57.1c4.4,15.6,5.8,34.8,6.8,56.1c1.3,21.3,0.1,44.5-1.6,67.7
							c-3.2,46.5-11.4,93-17.1,125.5c-1,10.4-2.2-9.7-3.5-11.8c-2.7,13.1-6.3,23.3-9.8,34.4c-3.9,11-8,22.7-11,39.4
							c1.4,22.2,9.7-13.9,14.9-29.7c5.6,3.9,2.9,11.9-1.2,30.1c-8.4,1.8-33.2,97-53.3,114.9c-16.6,46.6-11.5,44.6-4.9,42.8
							c6.1-2,11.7-4.6-10.2,39.2c0,0-5.2,5.6-10.6,11.1c-5.5,5.4-11,10.7-11,10.7c-17.4,54.2-49.9,121.1-88.5,172.9l7.6-11.3
							c1.8-9.7-9,1-14.6,5.1c-15.7,18.5-27.2,38.4-39.3,55c-11.8,16.8-22.4,31.9-36,39.4c-26.4,49.6-86.5,121.2-132.1,166.5
							c-10.7,0.7,3.2-15,21.5-33.7c17.4-19.8,39.5-42.2,45.5-54.7c0,0-2.5,2.6-6.2,6.5c-3.9,3.7-9.1,8.7-14.3,13.7
							c-10.3,10-20.8,19.8-20.8,19.8c25.6-24.6,32.5-37.7,41.5-58.3c-17.8,17.4-28.6,30-38.3,43.5s-18.9,27.2-36.1,43.9
							c0.5-5.1-5.7-2.5-22.4,11.7l0.8,10.7c-0.8-0.2-3,0.8-8.7,4.6c0,0-15.9,14.2-31.8,28.3c-7.9,7.3-16.1,14-22.4,18.9
							c-6.3,5-10.3,8.4-10.3,8.4c16.8-7.7,22.4-1.5,39.9-15.2c-9.3,0.8,4.9-11.5,22.4-25.1c-11.8,16.4,20.1-9.6,22.5-5.9
							c-17.4,14-36.9,29.5-54.9,43.9c-18.4,13.8-35,26.7-46.4,36.2l-12.4-1.4c-18.5,10.5-36.3,23.2-53.3,33.9
							c-17.1,10.6-32.9,20.1-45.9,26.3l5.8-8.2c-22.6,11.6-45,23.1-66.8,34.3c-22.3,10.1-44.2,19.6-66.3,24.8
							c-38.2,25.6-89.8,52.1-123.3,71.6c-8.3,7.3-41.5,14.9-79.1,20.1c-37.3,6.6-78.6,10.7-103.1,22.5c-3.6-0.2,33.9-13.7,50.4-20.6
							c-33.8,4.7-59,21.7-71.3,12c38.4-2.9,36.9-6.3,30.3-7.6c-6.7-1.9-18.6-3.6-1.9-8.1c-17.6,3.2-35.7,5.5-51.6,8.6
							c-15.8,3.2-29.4,6-38,8.4c57.8-5.8-19.1,17.8,39.1,6.1c-22.2,8-49.2,12.4-77.4,16.4c-28.3,3.5-57.9,3.6-85.3,2.5
							c0.5-4.6-6.3-6.9-26.6-9.4l-16.7,6.3c-25.6-1.9,49.7-6.7-1.6-10.4c-13.4,2.9-30,2.9-47.7,1.6c-17.8-1.4-36.7-2.5-54.7-5.3
							c-17.9-2.5-34.9-4.6-49.1-4.9c-14.1-0.6-25.5,0-32.1,4.3c-19.3-7.7,0.2-6.4,17-5.9c16.8,0.6,31-0.2,1.9-10
							c35.8-2.3,82.9,12.6,95.5,2.2c-34.4,0.4-11.6-10-33.4-12.6l-38.6,1.7l8.3,1.5c-16.3,0.8-34.6-1-54.3-3.6
							c-9.9-1.4-20.1-2.9-30.5-4.4c-10.3-2.2-20.9-4.5-31.6-6.8c-10.7-2.5-21.5-4.9-32.3-7.4c-10.7-3-21.4-6.1-32-9.1
							c-10.7-3-21.2-6-31.6-9c-10.3-3.3-20.3-6.6-30.1-9.7c-69.2-12.3-121.1-16.4-196.4-56.4c12.6,2.9-2.4-6.5-13.9-14.8
							c-11.3-8.5-19.1-16.1,6.9-8.5c-31.3-23.5-67.6-37.1-70.6-33.9c28.7,18.9,9.6,7.4,33.5,23.9c-9.8-2.5-24.8-9.1-38.5-17.4
							c-13.7-8.5-26.6-18-33.4-24.6c7,5,4.9,2.3,7.4,1.9c-32.5-25.4-19.7-5.9-45.5-21.2c-1.6-5.9-14.7-15.9-29.8-26.8
							c-14.7-11.5-31.3-24.1-40.7-34.1c0,0-9.7-3.7-18.8-8.1c-9.3-4.3-18.6-8.6-18.6-8.6c21.4,8.5-27.2-26.7-26.8-36.3
							c-23.8-15.7-48.3-25-76.5-58.3c15.1,10.3-23.3-32.3-17.6-38.4c-10.7-15.1-22-27.6-33.5-38.8c-11-11.7-22.2-22-33.4-32.5
							c-11.3-10.3-21.8-21.2-31.7-33.4c-9.7-12.3-19.5-25.3-26.6-41.8c2.6,0.8,14.4,10,4.9-8.3c-10.3-12.5-25.4-36.4-34.4-51
							l0.5,0.4c-0.2-0.2-0.4-0.4-0.6-0.7c-4.6-7.1-8-11.2-9.7-10.5c-10.5-11-19.5-18.8-29.9-30.2c-10-11.6-21.5-26.5-37.8-51.4
							c-5.6,7.5,19.7,51.1,32.8,68.5l16.7,12c-1.2,11,5.9,22.2,13.7,32.4c8.1,10,17.1,18.8,18.9,25.6c-7.9-5.5-17.5-14.8-26.9-27.3
							s-19.5-27.6-29.9-43.5c-19.7-32.3-39.8-68.4-56.3-95c3.4,39.9,40.2,115,80,175.6c0,0-3.2-7.4-6.4-14.8c-3.2-7.3-5.9-15-5.9-15
							s4.6,8.3,9.8,16.1c5.1,8,10.3,15.8,10.3,15.8s-3-8.9-5.9-17.8c-3.1-8.8-5.5-17.9-5.5-17.9c8.1,15.8,17.8,29.3,26.6,42.8
							c8.9,13.5,17.8,26.3,27.2,39.4c-22.2-30.4-18.8-49.9-9.4-30.9c16.4,39.2,29.4,32.3,47.2,58.4c-9.7-14.8-22.8-33.5-10.2-24.4
							c13.4,28.6,25.8,44.2,36.7,60.1c10.8,15.9,22.2,30.3,36.7,55.5c3.2-7.6,14.6,6.1,28.3,20.2c13.6,14.2,28.3,30.1,35.4,29
							l-17.3-19.8c0,0,11.1,8.5,22.3,17.1c11.2,8.5,22.9,16.2,22.9,16.2c29,43.9-41.4-22.9,9.8,37.2c53.3,49.6,61.8,36.7,106.8,70.6
							c-9.9-2.4-24.9-9.1-41.9-18.9c-16.8-10-35-24-52.4-39.1l18.5,21.4c-14.9-5.5-61.4-49.9-83.3-73.2c22,15.4,18.2,10.3,7.4-1.1
							c-10.6-11.7-27.9-30.2-33.3-41.5c-9.1,2.3,15.1,26.2-17.1,1.4c13,13.7,20.4,21.5,28.7,30.3s16.7,19.2,33.2,36.7
							c-18.4-18.3-31.7-31.5-43.9-40.6c-12-9.3-22.7-14.9-32.2-21c-9.7-6-19.1-11.8-29.4-20.8c-10.6-8.8-21.8-21.1-34.4-40.4
							c29,30.9,0.2-19,0.3-25.3c-13.5-14.4-37.4-46.6-48.9-58.8l-1.1,19c-18-20.2-23.1-38.6-30-56.7c-3.4-9.1-7.2-18.2-12.6-28
							c-5.1-10-12-20.5-22.4-32.4c-10.2-3.5,24.9,48.3,18.4,39.2c-24.4-34.6-36.7-60.9-44.3-87.9c-4-13.4-7.6-26.6-11.3-40.9
							c-3.4-14.6-7.3-30.1-12.8-47.9c-4.8-2.5-12,1.7-27.5-20.2c9.7,4.8,5.7-14.3,21.7,10.7c-6.8-23.9-22.2-49.3-32.7-68.8
							c7.3,24.9,3.1,20.8-4.1,9.6c-7-11.3-15.8-30.2-19.5-34c-7.5-26,9.3,5.6,16.7,20.5c-5.2-21.2-3.3-48.5-17.4-56.8
							c3.5-1.5,13,11.3,23.4,28.8c5.2,8.8,10.7,18.8,15.7,28.8c5.5,9.9,10.7,19.8,14.7,28.8l-8.6-25.1c10.3,15.7,10.5,19.1,19.1,44
							c-4.1-26.1,2.9-26,10-22.5c0.2,3.5-2.3-1.1-2.2,2.3c5.8,20.2,13.9,34.3,15.7,28.2c16.4,13.3-5.2-29.1-5.4-44.1
							c-4.4-9.6-9.3-19.1-13.2-28.8c0,0-16.4-23-32.7-46.1c-15.7-23.5-30.8-48-30.8-48c-8.6-22.1-10.7-39.2-12.4-54.8
							c-1.3-15.7-1.9-30-2.3-47.8l-10.2-8c-7-40.5-8.6-79.1,5.6-54.7c-2.5,1.9-1.5,7.1-0.3,15.8c1.4,1,2.5,2.9,3.6,5.2
							c0.6,0.8,1.2,1.2,1.9,1.8c-9.6-42.4-13.8-69.2-14.7-71.6c21.7,71.5,16.1,1.7,32.9,12.2c0,0-0.8-4.5-2.2-11.2
							s-3.1-15.7-4.2-24.8c-2.6-18.1-5.2-36.2-5.2-36.2c-1.5,44.6-7.4,1.4-10.7-14.4c8.2-4.8-2.2-59.1-0.8-85.1l1.7,1.9
							c3.6-23.9,3.2-65.5,3.9-95.3c-2.9,1.2-14.7-38.3-20.1-57.9c-9.3,51.3-8.9,20.4-15,23.9c0.8-5.4,2.4-15.1,1.4-16.3
							c-1.5-7.7-4.6,9.8-7.6,11c-0.1,28.2-1.5,56.5-0.2,80.8c1.6,24.2,4.5,44.3,10.2,55.7c5.9-16.9-4.5-29-0.4-48
							c3.7,13.9,4.9,29.6,5.1,47.5c0.4,18,0.8,38.2,1.2,61.1l-6.8,15.4l7.3,45.9c-5-19-12.5-6.7-16.4-55.5
							c-7.3,6.6,4.8,48.4,4.6,78.4c0,0,2.8,3.6,5.6,7.1c2.9,3.6,5.7,7.1,5.7,7.1c-6.1-5.3,1,58.5-12,14.1c0,0-1.1-4.6-2.7-11.4
							c-1.7-6.9-3.7-16-5.2-25.2c-3.4-18.5-6.7-37-6.7-37l-4.9,21.3c0,0-1.6-15.8-3.3-31.7c-0.9-8-1.4-15.8-1.7-21.8
							c-0.4-5.9-0.6-10-0.6-10l5.3,14.7c-8.9-101.8,16.9-30.1,7.8-132.2c-9.3-32.3-9.3-67.6,2.2-129.6c-3.2,45.5,7.5,5.7,12,23.5
							c10.1-45,4.4-61.5,4-86.1c8.1-10.5,14.5-17.7,6.4,22.6c11.9,7.3,6.9-53.7,21.6-54.4c14.2-65.9,13-94.4,12.9-126.2
							c1.6-31.1,4.9-66.2,43.8-137.3l2.5,7.6c34.8-96.2,69.2-145.1,116.9-226.4c0,0,3.2-3.5,8-8.6c5.1-4.9,11.8-11.6,18.5-18.2
							c13.4-13,26.9-26.1,26.9-26.1c-8,14.7-25.1,56.4-7.9,43.4c-16.1,10.3-27.8,24.7-39.1,39.6c-11.4,14.9-22.2,30.6-34.7,45.7
							c1.2,5.2,11.2-7.1,16.4-11.8c-11.6,20-23,26.9-35.7,54.9c2.9-0.2,22.6-27.3,11.6-4.7c0,0-6.8,8.1-13.4,16.4
							c-6.6,8.3-13.3,16.6-13.3,16.6c-11,25.7-9.3,34-8.9,43.2c0.4,9-0.6,18.7-15.7,47.4c-2-13.9-1.8-41,7.2-65
							c-6.9,13.4-4,3.6-0.7-6.3s6.6-20.3-1.7-9c-4.9,21.8-10.3,37-17.8,53.2c-7.6,16.1-15.4,34.3-22.5,62.4c1-6.9-0.4-9.3,4.2-22.8
							c0,0-8.8,19.1-17.5,38.1c-8.4,19.2-16,38.8-16,38.8c6.4-8.8,2.5,8.2-1.4,26.8c-3.7,18.6-6.4,39.1-0.8,36.7
							c6.8-21.1,11.7-35.2,15.7-46c3.6-11,6.2-18.8,8.9-26.9c4.9-16.4,12-33.9,33-79.6c-8.2,27.5-13.3,64.7-9.6,83.9
							c-0.7,0.7-1.4,1.9-2.5,4.7c4.2,17.4,11.6,3.7,27.4,9.6c1.1-23.1,8-40.4,15.1-58.5c6.9-18.3,16.1-36.7,23.9-62
							c-3.9-12.8-24,22.9-31.3,48.3c0,0,0.7-2.9,1.8-7.1c1-4.3,2.5-10,4.3-15.6c3.4-11.3,6.9-22.5,6.9-22.5l0.1,10.1
							c0,0,3.2-6.6,8-16.7c4.9-10,11.1-23.4,18.5-36.3c7.1-13,14.2-25.9,19.5-35.7c5.2-9.8,9.3-16,9.3-16
							c-10.6,19.7-8.8,29.3-10.7,41.4c7.3-13.2,15.9-25.7,26.4-38c-9.3-1.4-13.7-6.2-6.2-19c39.5-65,71.4-94.5,95.4-111.1
							c1.5-2.5,3.2-5.2,4.6-7.5c-15.2,4.6,19.3-52.2,27.3-76.4c6.4,6.8,30-26.1,47.8-39.4c-0.1-15.8-21.4-14.4-45.7,0.6
							c-26.9,45.9-11.6,28.6-16.2,56.4c0,0-11,17.7-21.8,35.4c-11.3,17.8-21.5,35.9-21.5,35.9l3.8-20c-27.6,31.2-39.2,71-46.9,62.5
							c2.9-11.1,9.8-24,17.6-36.4c7.8-12.3,15.6-24.5,19-35.6l-19.3,20.1c19.8-46,22.2-14.8,52.5-65.7c-20.8,11.3,2.6-4.7,13.7-28.4
							c-9,5.7-24.5,26.9-38.2,43.3c-13.6,16.4-24.1,29.5-25.5,17.4c5.9-15.1,26.2-32.7,45.8-52c19.6-19.4,40.8-38.5,48.1-59.5v2.7
							c42.5-43,51.3-64.2,64.1-84.1c21.9-14.6,44.1-43.4,65.2-62.3l2.5,4c0,0,7-7.1,14.6-13.4c7.5-6.5,15-13,15-13
							c-9.8,18-36.3,29.1-61.2,52.7l9,3.7c-18.5,8.7-29,21.5-37.7,34.4c-8.4,13.2-15,26.6-22.5,40.2c12.4-18.5,35.7-39.1,54.6-58
							c19.8-18.1,35.7-34.2,34.2-44.1c0,0,6.5-2.9,13.2-5.4s13.4-5,13.4-5l8.3-10.5c20.1-7.2,9.7,13.3-18.9,39.3
							c-6.5,2.7-9.7,4.1-9.3,1.4c-10.9,15.2-20,29.7-52.4,58.6l13.7-19.4c-40.5,36.4-71.7,75-78.1,94.1c55-55,112-105.8,169.1-151
							c4.6-29,19.2-53.1,18-74.3c38.5-33,96.8-70.9,138.3-86.5l-1.8,5.1c19.4-9.2,36.7-18.3,50.4-27.9c22.2-6-9.4,15.6,5.7,10.7
							c0,0,3.9-2.4,9.6-5.9c5.7-3.7,13.4-8.3,21.4-12.6c15.7-8.8,31.6-17.6,31.6-17.6c-0.4,4.7-14.4,13.2-31.3,22.2
							c-17.1,8.7-36.5,19.7-49.2,26.2c4.5-3.1,13.6-9.3,10-8.6c-31.9,11.5-78.2,55.2-96.7,52.6c-12.7,10.6,23.4-25.4-23.6,3.9
							c-33.9,16.1-37.7,32.1-38.7,37.4c1.9,3.6,51.6-26.6,37.8-10.9c23.6-15.7,29.8-27.6,63.8-41.6c-24.6,14.1-51.4,43.2-67.9,45.1
							c-41.5,38.3-21.3,52,0,38.1c-9.5-2.7,79.4-61.1,13.8-29.9c22.3-25.3,73.5-56.3,109.4-80.3l-0.9,2.5c0,0,11.6-6.6,23.2-13.1
							c11.5-6.8,23.5-12.6,23.5-12.6c-5.9,5.1-19.3,14.2-17.7,18.7c0,0,3.8-2.8,9.3-6.9c5.8-3.9,13.5-9.1,21.2-14.4
							c15.6-10.4,31.1-20.9,31.1-20.9c-17.3,12.4-10.8,11,2.2,6.1c13.1-4.8,33.4-12.1,42.8-14c4.7-9.5,30-25,2.5-18.7
							c-31,6.7-15.6,10.3-41.8,21.2L1366,460l3.6-0.2c0,0,4.9-4.4,9.7-8.8c4.9-4.5,9.9-8.6,9.9-8.6c52.7-17.2-15.7,27.9,48.3-3.3
							l-12.7-8.6c19.6-6.5,41.1-11.5,63.2-16.1c11-2.2,22-4.8,33-6.7c11.1-1.8,22.2-3.5,33-5.2c10.8-1.8,21.5-3.6,31.7-5.2
							c10.3-1.4,20.4-2.8,30-4.1c19.1-2.6,36.1-6.6,50.3-9.5c-14.8,9.1-19.7,21.5,2.6,25.2c-12.4,0.1-30.5,3.6-49.9,6.9
							c-9.7,1.8-19.8,3.6-29.5,5.7c-9.7,2.5-19,4.9-27.6,7.1c-3.6-0.3,6.3-6.4,21.9-13.1c15.7-6.6,37.4-12.6,56.6-14.7
							c-10.8-8.4-34.5-1.3-55.9,6c-21.3,8-40.7,15.6-45.4,6c-97.7,18.2-65.3,37.8-147.9,53c2.2,9-20.5,12.8-21.5,22
							c27.5,3.9,103.5-37.6,156.9-46.2c-4.9,2.1-14.6,6.3-16.1,8.5c37.3-7.6,52.3-12,77.5-21.7l-3.5-0.3
							c43.9-17.9,29.7,1.5,57.1,0.6c10.1-3.8,47.9-5.9,41-11.7c0,0,12.5,0.6,25,1.2s24.9,1.5,24.9,1.5l-3.4-10.1
							c27.8-2.8,34.4,3.6,59.1-4.6l0.6-9.3c0,0-17.4,0.5-34.9,1c-8.7,0.2-17.4,0.5-24,0.8c-6.6,0.2-10.9,0.7-10.9,0.7
							c35-6.4,9-9.8,47.9-14.9c-42.8,13.6,31.3,2.5,35.9,11.5l28.4-5.9l-7.3,2.6c22.5,4.5,26.6-4.7,53-2.9
							c-30.9-5.4-51.6-11.2-90.9-2.9c28.4-6.6,86-14.1,100.2-13.2c30.6-3.2,51.7,4.2,80,7.8c-27.4-0.2-23,7.2-25.4,12.8
							c-2.4,5.4-11.3,9.6-65.1,4.9c2-1.7,10.7-1.1,14.1,0.1c-14.3-13-64.8,1.1-87.8,6.3c6.3,6.6-17.8,9,23.3,11.7
							c-13.7-3.6,34.4-17.3,73.6-9.7l-7.2,14.4c0,0,14.1,0.8,28.2,1.6c14.1,0.5,28.1,2.3,28.1,2.3l-5.3,0.3
							c20.5,11.1,60.2,2,98,13.2c28.6-3.2,133.6,22.7,91.2-1.6c32.3,16.8,65.1,11.3,102.7,20.7c0,0-11.2-4.7-22.3-9.4
							c-11.1-4.9-22.6-8.8-22.6-8.8c58.1,4.3,40.1,6.8,89.2,3.8c3.2,5.3,12,11.7,1.9,12.7c73.9,23.3,172.6,71.5,217.6,83.5
							c24.4,12.4,35.5,25,49.8,37c14.4,12,30.8,25.4,64.5,43.2c7.3,3.5,6.6-1.1,9-2.6c2.5-1.6,8.3-0.3,27.6,16.3
							c2.1,2.8-45.8-19.2,0.6,12.4c9.7,3.5,19.2,9,28.6,15.6c9.2,6.9,18.2,15.1,27.5,23.5c18.9,16.4,37.4,35.3,60.3,48.7
							c18.4,20.7,53,53.3,39.8,52.6c-29.2-32-77.4-70-87.1-72.8c8.1-0.5-20.9-23.1,6.8-6.5c-47.6-45.5-36.1-22.8-81.2-60.4
							c-5.3,0.7,18.9,25.2,30.7,30.3c-6.7,9.1-97-61.4-63-20c49.4,36,79.7,27.6,113.3,71.7c-20.9-8.4-43.9-33.8-73.1-40.1
							c0,0,2,1.9,5.1,4.6c2.9,2.9,6.9,6.7,10.8,10.6c7.8,7.7,15.7,15.4,15.7,15.4s7.6,3.2,15.2,6.3c7.7,3.1,15.1,6.6,15.1,6.6
							l-2.5,0.2c51.1,58.9,62.2,37.4,116.6,82.7c-22.2-35.4,21.7-8,3.8-33.8c34.5,33.2,57.2,60.2,47.9,68.8
							c-33.3-29.6-37.1-27.6-39.7-25.7c-2.9,2.2-5.1,4.6-37.7-19.7c6.1,12.4-25.5-1.1,6.4,33.9c43.2,32.7-3.8-18.7,36.1,17.4
							c1.4,3,2.9,6.2,0.2,6c20.9,14.4,17.1,23.2,42,41.2l-6.5-3.8c17.9,32.8,31.7,26.2,45.2,56c-0.4-15.7,18.7,12.6,34.5,25.7
							c-15.8-28.4-15.8-50.7-57.6-100.4c-10.6-1.3-10.5,4.8-30.3-12.8l27.9,31c-6.8-6.1-12.7-10-19.1-15.4l-23.4-32.7
							c37.1,35,27.6,12.4,47.5,24c27.8,38.1,25.9,29,42.6,53.6c-9.1,3.5,39.1,83.5,60.8,132.5c-4-7.3-10-16.1-13-21.1
							c-26.5-28.9,7.1,26.9,5,29.7l18.5,21.6c-3.2-4.2-9-9.3-4.3,1.8c20.7,31.8,28.4,25.1,47.6,58.3c-3.9,5.1-26.2-19.4-18.2,2.9
							c-0.4,4.7-0.6,14.4,2.5,27.9c2.9,13.7,8.5,31.7,21.1,53.3c3.6,2.2,9.7,13.7,16,27.3c-1.1-1.9-2.2-4.2-2.9-4.9l6.3,33
							c-19.2-22.5-16.4-54.6-37.4-76.1l-9.5,1.7c-8.5-20-25.9-44.2-36.2-54c13.7,29.9,19.1,34.8,35.7,67.6c-3.3,7-17.9-14.6-20-17.7
							l7.1,2.7c-5.1-21.7-15.3-35-25.8-49.4c-10.4-14.5-22.9-29.2-35.7-52.9c-3.7-7.3-0.7-3.3,1.8-2.6
							c-29.6-33.1-43.1-75.7-77.7-103.2l12,8.4c-5-5.2-11.3-11.8-18.5-19.2c-7.4-7.3-16.1-15.1-25.2-23.6
							c-17.9-17.3-39.9-35.4-61.4-53.3l-3,2.1c2.5,6-11.1-9.7-17.9-18.5h0.1c-11.1-8.5-22-16.8-32.3-24.8
							c-10.6-7.5-20.5-14.5-29.4-20.9c3.5,6.4,8.5,13.8,15.5,21.2c9.4,2.7,41.3,41.9,43.7,30.2c12,20.7,42.3,44.1,50.8,59.5
							c-7.6-14-2.3-11.3,5.8-4.9c8,6.6,18.7,16.9,22.5,17.4c0.8,6.1,8.2,15.2,14.1,23c5.7,8,10,14.8,5.5,15.6
							c1.9,6.4-4.3-16.1-16.8-23.4c-13.2-10.6-5.2,2.3,2.1,14.3c6.9,12.3,13,23.8-1.6,9.4c35.6,38.1,70.2,97,102.6,140.4l-12-27.7
							c11.7,20.8,38.5,70.8,37,76.3c-9.1-15.3-18-34-30.4-53c-8,3.1,25,48.3,21.2,53c0,0,2.7,3.2,6.9,8c3.9,5,9,11.7,14.1,18.3
							c10.3,13.5,20.6,27,20.6,27l-11.5-26.7c13,14.2,31,73,43.4,116c-10.2-10.2-15.3-26.1-22-44.5c-6.4-18.5-12.5-40.1-25-60.3
							c-18.5-29-2.5,24.2-18.5-3.9c0.6,8.8,9.7,27.5,16.7,35.7l2.5,12.6c-10.1-11.3-22.2-31-34-52.7c-11.9-21.6-26.4-43.8-40.1-60.1
							c2.8,2.7,5.4,4.9,7.1,5.3c-11.7-30.3-27.9-59.3-48-83.8c5.9,16.1,11.7,20.1,17.8,27.6c-1.5,2.3-18.8-21.9-27.5-29.6
							c12.9,26.3-2.8,8.3,5.5,24.7c-12.7-14.3-19.5-28-31.9-47.3c-3.3-12.2,10.7,4.6,14-0.5c-16.9-17.2-11.2-34.9-38.1-58.6
							c26.8,38.1-17.5-2.2-30.2-12l4.5,6.3c-14.1-7.4-22.1-16.6-24.2-28.1c14.7,12.2,24,28.3,26.2,19.6
							c-7.7-9.8-16.2-19.1-27.1-28.3l12.2,6.6c0,0-10.5-11.5-20.9-23.1c-10.2-11.7-21.5-22.5-21.5-22.5c-11.2-3-28.6-9-40.8-8.8
							c-6.3-14.4-24.6-25-36-33.1l6.4,2.6c-7.7-11.4-23.9-26-39.1-37.5c-14.9-11.9-29.1-20.1-32.9-19.5c-3-3.9,3.5-2.2,13.2,1.2
							c9.7,3.6,22.2,9.6,32,13.2c19.5,7.6,27.9,5.6-27.1-37c-41.6-32.4-35.9-7.3-63.5-19.7c0,0,2.4-0.5,0.6-3
							c-17.9-14.1-23.2-10.5-40.2-18.5c10,9.4,25.5,21.3,32.2,22.8c-4.9,0.9-14.3-5.9-24.7-13.8c-10.5-7.7-22.5-15.6-31.2-18
							c24.8,2.9-34.5-27-16.8-22.5c-17.8-14-38-26-57.4-33.4c-19.5-7.3-37.2-12-49.5-13.4c-21.9-25-48.9-20.8-92.6-44.2
							c6.9,3.2,20.5,6.3,29.8,11.6c29.6,2.3-46.2-23.1-2.6-14.5c-9.2-2.2-2.3,4.1,7.1,6.3c16.1,4.9,31.8,8.3,29.6,2.9
							c0,0-8.4-6.3-17.3-11.6c-8.8-5.6-17.7-11.1-17.7-11.1l14.1,3.3c0,0-13.6-8.3-27.2-16.4c-6.8-4.2-13.7-8.3-19-11
							c-5.2-2.9-8.8-4.7-8.8-4.7c-2.2,1.1,2.7,5.1,5.2,7c-67.2-29.3-150.1-43.9-212.8-54.6c-3.9,5.4-15.6,7.4-31.7,8
							s-36.6-1.9-58.5-2.3c-21.8-0.9-44.8-2.5-65.6-1.4c-20.8,0.7-39.2,1.9-51.8,6.3c13.4-7.5,21.1-19.9,12.5-25
							c11.4-1,35.3-10.1,61.5-7.5c4.1,3.9,35.9,11.1,14.9,14c72,2.6-9-11.5,12.8-19.1c-81.1-2.5-128.2,13.3-177.6,22.9l-1.5-2.8
							c0,0-9.3,2.1-18.7,4.2c-9.3,1.9-18.5,4.5-18.5,4.5c15.4-1,23.1,2.8,21.8,5.9c-1.2,3.3-11.2,5.8-31,6.1l4.6-1.3
							c-11.5-1.5-28.7,1-47.4,4.2c-18.5,4.2-38.4,9.3-55.7,11.9c0,0-5.5,3.1-10.8,6.5c-5.3,3.3-10.7,6.6-10.7,6.6
							c-34.1,7-39.4-7.6-52.9-12.9c-27,7.3-47.6,15.4-65.2,25.9c-17.6,10.2-33,19.9-49.7,31c-9.3,0.5-33.7,6.9-50.4,12.4
							c-16.8,5.2-26.8,7.1-8.3-5.6c-43.6,26.5-19,52.1-102.2,75.7l16.1-16.5c-35.2,20.6-75.9,48.9-109.8,76.6
							c-8.6,6.8-16.9,13.4-24.8,19.5c-7.7,6.4-15,12.5-21.6,18.1c-13.4,11-25.1,19.1-33,24.2c4.1-18.5-18.8-6.3-46.5,10
							c-26.8,17.2-58,38.8-70.7,36.9c6.5,0.5-14,24.5-15.1,29.6c-6.8,3.1-16.4,9.9-20.8,22.2c12.4-10.8,12.9-2.6,14.6,1.6
							c1.9,4.4,4.1,4.2,22.2-21c-5.5,16.3-12,34.1-22.8,54c-11.3,19.5-25,42.4-45.9,68.4l-6.9-6.4l35-40.1
							c-9-0.3,9.3-20.9,14.4-31.4c-17.4,17.8-26.3,25.6-31.1,28.3c-4.9,2.5-5.9-0.2-6.8-2.9c-1.7-5.2-3.1-10-34.4,31.3
							c-0.9,11.7,0.8,5-12.8,28.3c7-10.4,3.2-16.1-8.7,0.5l-5.2,20.1c-16,11-10.6-3.3-2.9-17.1c7.5-13.9,15.9-28.1,2.5-18.6
							c16.6-37.8,59.2-94.6,41.8-92c-45.8,49.9-20.5,60.4-64.8,113.9l-8.2,3.4c-10.3,22.5-5.6,30.3-8.5,44c-3-0.5-8.5,3.5-16.8,16.7
							c-10.6,41.2-20.6,66.5-25.6,105.3c9-23,16.4-39,23.1-51.5c7-12.3,13.5-20.8,19.8-29.6c12.6-17.6,26-34.7,50.6-79.3
							c-6.4,15.1-41.8,77-32.2,87.5l-7.6-5.5c-12.5,30.6-23.3,61.6-43.5,97.2c0,0,1.4-6.3,2.8-12.5c1.6-6.2,3.3-12.4,3.3-12.4
							c-9.3,25.8-21.2,45.1-32.2,63.5c-9.8,18.9-18.8,36.9-18.8,59.8c5.7-14.1,10.4-25.4,12.4-34.7c-7,27.3-18.7,60.3-29.6,88.7
							c0,0-0.6,16.1-1.2,32.3c-0.3,8-0.5,16-0.8,22c0.1,6,0.2,10,0.2,10c-4.3-1.7-13.5,36.8-16.4,16.6c-4.2,10.6-6.9,20.1-8.6,28.7
							c-1.2,8.7-1.4,16.5-1.2,23.8c0.4,14.5,2,26.8,1.2,39.8c-7.7,22.1-7.6,12.1-7-4.3c1.4-16.3,3.6-39-2.3-42.5
							c-3.7,15.7-7.7,31.5-9.9,47.4c-2.1,15.8-3.7,31.5-4.9,46.2c-1.2,29.6-0.2,55.9,3.1,74c2.2-13,4.8-19.1,6.8-18.3
							c-3.5,1.7-3.6,27.4-3.9,41.7l5.8,10c-4.7,23.6-8.2,20.5-12.2,0c-2.4,23,11,49.9,2.5,73.6c-3.9-19.4-5.4-41.7-4.9-61.6
							c0.6-19.9,1.5-37.4-0.5-47.8c1.9,41.1-3.4,61.5-6.7,85.1c-1.8,11.8-4.1,24.3-4.1,40.5c0.3,16.1,1.2,35.8,5.8,61.7
							c-2.7,1.6-10.6-15.5-8,4.6c8.1,46.4,13.9,10.7,22.4,24.2c-8.6-34.9-6-52,0.2-73.1l5.6,9c-2.3,1.6-1.2,23.8-2.6,30.6l10.7,4.6
							c-11-1.6-15.7,35.1-6.9,62.3c3.2-29.2,4.6-21.6,15.8-30.9c8,18.5,7.6,29.5,6.7,41.4c-0.5,11.7-1.9,24.6,9.3,44.5
							c-4.6-2.2-14.2-39.4-10.7-6.4c5.7,26.8,13.3,21.3,20.1,38.4c-13.6-17.8-19-11.1-34.8-30.9c-10.6-48.2-3.6-19.5-16.2-66.4
							l-0.5,41.8c-8.9-41.2-15.8-28.6-19.9-31.4c3.4,73.6,23.7,51.3,31.5,97c11.2,20.2-8.4-42.6,5.8-10.1c8.5,42.3,8,8.3,24.5,53.5
							l-6.3-6.6c-1.2,15.7,8.9,28,15.5,43.6c8.9,16.5,23.2-29.2,49,41c-3.8-2.5-5.8-3.2-6.8-2.8c0,0-6.3-2.5-15.4-6.6
							c-9.1-4.2-21.2-10-33.4-15.6c-12.3-6.1-24.5-12.1-33.7-16.7c-9.3-4.7-15.1-8.1-15.1-8.1c23.5,77.7,57,165.5,99.4,250.3
							c-0.9,13.4-12.4,0.4-23.3-15.5c-10.6-16.1-21.2-34.5-22.9-30.4c0,0-4.5-10-8.4-20.3c-3.8-10.3-7.6-20.6-7.6-20.6
							c5.8,0.2,42.2,81.1,34.5,40.9c-38-66.7-44.7-101.3-80.6-165.8c-7.6,26.9,34.8,89.8,45,137.3c-7.3-18.8-16.2-33.4-24.4-47.9
							c7.8,21.2,16.8,42.7,25.8,65.2c10.3,21.8,19.8,45,31.7,67.9l9,8.2c-16.3-30.6-24.7-53.1-26-55.9c19,41.9,47.2,70.3,57.7,67.4
							l-3.6-7.2l11,12.4C798.7,2408.5,803.8,2417.7,808.8,2427z M3084.6,2052.7c0.4,2.9,1.2,5.3,2.2,7.3
							C3085.6,2057.9,3084.2,2059.4,3084.6,2052.7z M586.1,1577.7c-10.7,61.1-16.1,123.5-17.8,183.3c5.2-27,11.7-51.6,16.6-70.6
							c5.6-19,11.1-32.3,14.7-36.9c8.2-9.1,7.6,16.4,6.6,103.7l1.9,11.4c0.8-11.4,1.8-26.9,2.6-44.2c0.8-17.3,0.4-36.4,1.4-54.8
							c-2.5-15.1-10-47.6-14.2-76.6c-2.5-14.6-4.9-28.3-6.6-38.1c-1.4-10-2.6-16.2-3.2-16.1c-8.3,9.7-3.8,26.6-8,46L586.1,1577.7z
							 M629,1540.3c8.4-33.1,2.2-26.4-1.1-32.4c-1.5,12-3.2,23.9-4.7,35.7C625,1539.3,626.9,1537.4,629,1540.3z M623.2,1509.2
							c-0.8,3.8-1.5,7-2.5,8.6L623.2,1509.2z M665,2170.4c-0.6-1.4-0.8-1.9-1.4-3.2c2.3,7.9,4.6,15.7,7.1,23.9
							C670.2,2187.7,668.8,2181.5,665,2170.4z M654.1,2100.7l-10-5.6c1.8,7.4,3.6,14.9,5.5,22.6
							C652.4,2114.1,654.7,2110.6,654.1,2100.7z M637.7,1878.9c-10.7-12.7-14.6-59.2-25.9-61.5c-3.1-2.9-3.4,7.1-3.5,18.2
							c0.6,12.4,1.4,25.6,2.1,39.8c1.7,0.3,3.2,3,5.2,7.5c0.1-14,2.3-23.4,9.5-18.5c-11.8,36.7,14.1,30.3,14.7,68.3
							C649.1,1943.5,642.2,1890,637.7,1878.9z M2659.9,771.3c0.2,1.4,1.6,5.7,3.9,11.3l-24.7-12.4c-9.1-7.9-17.1-16.2-25-24.2
							c-8.1-7.7-15.8-15.4-23.7-22.6c-15.6-14.7-32.8-26.4-54.9-32.3c-15.2-14.1-20.9-25.9-27-36.1c8.5,5.4,16.4,10.5,22.5,15.7
							c57.7,24.4,67.6,39.4,74.7,51.6c3.6,6.3,6.4,12.2,13.8,19.5C2626.6,749.5,2638.3,758.7,2659.9,771.3z M2168,506.2
							c5.1,0.5,7.3-0.8,7.3-0.8c-112.1-6.6-200.6-7.8-259-11.2c5.5,3.9,21.2,8.3,38.4,12.9c17.2,4.5,36.1,7.6,48,11.3
							c0,0-5.6,1.6-11.3,3.2c-5.6,1.9-11.2,3.8-11.2,3.8l-12.8-8.3l-38,5.5c10.1,6.9,40.2,8,59.8,14.2c1.7-1.2,67.2-5.1,86.1-6.3
							c0,0-12.5-4.1-25.2-7.5c-12.7-3.2-25.5-6.4-25.5-6.4c13.7,3.6,82.5,12.7,109.7,17.1c0.8-2.1-10-8-22.2-11.3
							s-25.6-4.9-29.4-0.5c-4.5-7.7,49.9,1.9,16.9-11.4c21.2-0.5,47.6,6.1,72.3,12.7c24.6,7,47.1,16.7,61.4,22.2l1.6,12.4
							c30.1,14.7,25.7-5.9,61.3,13c-46.9-13.5,3.6,14.5-33.4,2.9c10.2,8.2-3.6,11.3,32.7,23.3c35-2.1,34.2,22.8,66.6,23
							c16.4,12.6-23.3-0.5,11.7,17.6c22.3,5.4,33.4,7.3,39.8,6.4c6.5-1,8.4-4.7,12.2-9c-18.3-11.5-31-12.9-42.6-14.1
							c-11.6-1.2-22.2-2-37.6-10.3c0,0,17.6,2.7,35.5,5.6c9,1.5,18,2.9,24.7,4c6.8,1.1,11.1,2.2,11.1,2.2
							c-10.3-8.4-19.2-12.2-26.8-15c13.4,4.8,25.6,7.2,36.4,8.6c6.3,0.8,11.9,1.5,17.1,2.5c-9-4.6-17.7-9.2-25.8-13.4
							c-8.2-4-15.8-7.7-22.5-11c-13.2-6.7-22.3-12.2-24.3-15.7l7.3-2.6c-11-10.9-34.7-15.4-46.1-15.9c-33.9-13.6-71-16.5-76.2-26.1
							l14.6-0.2c-21.4-6.7-33.6-9.6-47-12.9C2209.9,517.4,2195.4,512.1,2168,506.2z M846.7,953.3c16.3-4.6,31.8-10.3,54.2-25.9
							c22.1-15.9,49.6-42.6,93.4-86.8l-6.1,7.7c13.6-8.5,24.8-19,35.9-29.9c11.3-10.7,21.8-22.5,32.7-34.6
							c22.5-23.3,46.9-48,82.5-64.1c-25.9,27.3-24.9,25.8-46,64.1l27.3-28.6c-2.4,14.8,26-12.1,49.6-28.3l-13.1,25
							c-8,3.6-21.4,11-31.9,18.7s-18.7,14.7-17.3,15.4c3.4-3.6-10.6,2.3-28.9,12.4c-17.5,11-39.8,25.9-52.2,40
							c8.4,3.3,65.4-50.1,48.1-16.6c19.1-24.8,28.4-19.5,51.3-41.8c-20.4,23.5,1.2,14-12.6,32.9c0,0,9.7-8.6,19.4-17.1
							c9.6-8.7,19.8-16.7,19.8-16.7c2,0.8-55.2,51.1-15.7,33.4c12.7-17.1,61.4-42.9,56.7-51.6l2.6,1.6c33.4-19,6.9-20.4,49.9-41.1
							c-2-4.4-11.4-2.5-25.2,7.6c-11,9.7-9.7,15.7-33.3,33.4c-7.4,0.8-0.2-4.2,6.3-9c6.5-4.6,12-9.3-0.2-9
							c-12.2,0.4-61.1,49.7-51.6,25.8l33-21c-4.7-8.6,19.4-23.7,14.7-29.4c18.5-16.1,43.1-19.5,60.5-38.4
							c5.9-10.3-15.3-11.2,23-27.3c8.8-0.6,20.5-3.9,33.7-8.8c13-5.1,27.7-11.3,42.5-17.2c29.3-12.9,58.9-25.9,75.1-33
							c0,0,6.7-4.2,13.4-8.5c6.9-3.9,13.7-7.8,13.7-7.8c-4.7-5.3-55.3,21.8-39.4,7.6c0,0,11.1-5,22.3-10c11.3-4.5,22.8-8.9,22.8-8.9
							l-2.4,4.6c15.6-4.2,29.9-13.7,43.5-19.7c-12.7,10.7-46.5,19.8-36.8,26.6c22.2-5.2,26.2-3.6,45.8-11c-4.2,1.9-7.6,3.9-6.7,5
							c45.1-8.4,39.6-22.5,49.9-28.7c21.1-11.4,9-12-8.1-10c-16.9,2.1-38.9,5.9-37.4,0.4c0,0,8.2-2.7,20.5-6.7
							c6.2-2,13.4-4.3,21.1-6.9c7.8-2.2,16.1-4.4,24.5-6.7c33.3-9.7,67.2-16.7,67.2-16.7c-11.1,5.2-22.2,10.3-17.1,13.4
							c34-1.5,2.2,7.3,48.5-1.5c-2.7-6.5,11.7-10.5,31-14.3c9.7-1.9,20.4-3.9,30.8-5.9c10.4-1.9,20.6-3.6,28.8-6.3
							c16.1,4.2,19.3,5.1-14.7,7.8c4.7,8.6,49.9,0.9,66.3,1.7c9.3-2.4,25.4-4,35.6-6.2c-13.7-3.9-8.1-9.7,21.8-13.7l1.8-1.8
							c-24.6-0.9-56.1-3.6-85.4-3.2c-29.3,0.8-56.3,2.2-71.1,9.1l8.2-5.3c-28.9-0.2-59.4,7.3-85.6,15.4c-26.4,7.1-48.6,14-63.3,9.2
							c0.9-6.8-11.6,1.2-12.7-8.1c0,0-9.9,4.2-19.8,8.3c-9.7,4.6-19.5,9.3-19.5,9.3l7.4-6.5c0,0-17.2,5.4-34.4,10.9
							c-17.3,5.1-34.1,11.8-34.1,11.8l1.2-2.2c-14.7,9.5-27.9,18-39.8,25.6c-11.3,8.3-21.3,15.5-30.2,22c1.5,3.8,3.9,4.2-5.4,11
							c-9.7,5.9-17.4,9.3-24.5,12.1v0.1l0,0c-16.2,6-29.1,5.5-49.7,12.2c0,0,14.9-7,29.9-14.1c7.5-3.5,15-7,20.5-9.7
							c5.6-2.7,9.4-4.2,9.4-4.2c2.4-8.3-5.7-13.3-37.5-3.9c12.1-5.8,15.1-13-0.4-6.9c-1,2.4-38.3,22.2-21.3,20.5
							c-28,14.9-66.9,30.1-107.7,51.4c-20.7,10-40.9,23.1-61.5,36.1c-20,13.8-39.3,29.3-56.8,46.2c25.7-23.6,13.2-17.2,1.5-11
							c-11.2,6.7-21.9,12.7,8.7-11.3c-25.6,11-32.6,21.5-39.6,31.5c-6.8,10.5-13.4,21.1-34.5,38.7c-6.1,0,22.9-19.3,28.3-32.8
							c-37.3,26.9-63.5,56.3-87.6,86.1c-12.5,14.6-23.8,30-36.2,45.3c-12.7,15.1-25.6,30.8-40.5,47l-9-2.7
							C868.1,922,857.5,937.3,846.7,953.3z M757.6,1102.7c-7.4,15.2-15.5,30.2-22.6,46.1c0.8-1.5,1.6-2.9,2.5-4.3l-16.8,47.9
							c17.1-26.1,34.5-39.4,19.1,0.5c-1.5-4.8-11.2,4.4-6.2-9.8c-9.2,11.4-21.2,31.3-28.4,47.1c-7.4,15.7-10.4,27.2-1,22.2
							c11.6-55.4,20.2-4.9,30-47.9c-2.1,24.5-15,43.7-20.1,65.1c2.2-23.6-16.9-1.5-32.5,29.5c-4.2,14.4-18.4,52.4-23.3,77
							c10.4-5.9,7.9,15.7,22.6-21.6c-1.4,7.3-3.5,16.4-6.7,26.6c-2.8,10.3-6.6,21.7-12,33.4c1.5-10,5.3-27.3,2.2-27
							c-11.5,13.7-16.5,32.6-22.5,42.2c-2.1,8.3-3.2,16.9-4.9,25.2c1.2-2.2,2.6-4.2,4-5.4l0.5,29.2c4.9-37.5,7.5-16.1,11.9-14.5
							c-8.8-3.1-6.6,23.2-9.2,35.7L660,1475c0.9,7-3.5,18.1-6.7,26.9c-2.9,8.8-4.6,15.4,0.8,12.8c7.3-28.3,13.2-47.6,17.1-66.7
							c4.6-18.9,9-37.1,14.7-63l-13.2,18.5c5.2-29.7,12.4-37.2,19.1-45.7c7.3-8.2,13.7-17.6,26.2-48.5c2.6-28.8,39-92.2,27.2-99.4
							c0.2,9.3,29.8-31.7,35.4-54.7c0.8-14,10.2-38.4,18.1-56.5c8.3-18,14.1-30.5,5.2-22.1c-12,17.4-19.9,45.5-35.5,56.2l18.2-36.8
							l-19.5,19.8C776.2,1104.6,769.7,1102.3,757.6,1102.7z M529.4,2019.1c0,0.5,0.1,1.2,0.2,1.7l-0.3-1.9L529.4,2019.1z"/>
						<path fill="#FFFFFF" d="M3050.4,1239.2c8.3,9.6,18.1,37.9,22.5,29.9c-3.4,1.7-8.6-10.7-13-21
							C3054.9,1237.8,3050.6,1229.6,3050.4,1239.2z"/>
						<path fill="#FFFFFF" d="M3057.2,1274.9c2.5,1.3,4.6-1.2,9.7,11.2l-15.3-33.5L3057.2,1274.9z"/>
						<path fill="#FFFFFF" d="M3022.6,1327.2c11.2,15.2,17.8,25.2,26.6,52.6c-14.1,15.7-19.8-42.8-40.1-49.1
							c7.6,24.6,16.3,39.5,25.2,53.3c8.4,13.9,16.4,26.9,23.2,47.5c0.5-11.1-3.1-38.4-10.9-62
							C3038.8,1345.9,3029.4,1325.5,3022.6,1327.2z"/>
						<path fill="#FFFFFF" d="M2992.5,1314.1c0,0,3.6,6.3,7.2,12.5c3.7,6.3,6.9,12.7,6.9,12.7l0.1-3c0,0-3.5-6.3-7.1-12.7
							c-3.6-6.3-7.2-12.6-7.2-12.6L2992.5,1314.1z"/>
						<path fill="#FFFFFF" d="M2736.2,696.2c1.4-6.3-18.1-14.4-27.3-19.9C2715.5,681.9,2724.2,690.7,2736.2,696.2z"/>
						<path fill="#FFFFFF" d="M2850,2710.4c0,0,10.4-11.4,26-28.6c15.2-17.4,35-41.1,54-65.4c18.6-24.6,37.1-49.2,49.7-68.6
							c13-19.1,21.5-31.9,21.5-31.9C2962,2574.8,2923.9,2628.3,2850,2710.4z"/>
						<path fill="#FFFFFF" d="M1989,426.4c32.3,0.2,55.7,0.2,79.6-0.5c23.6,0.9,47.8,1.2,80.5,7c-20.6-7.9-38.7-10.6-54.6-12.7
							c-16-2-30.1-2.1-43.9-1.3c-27.4,0.9-52.6,1.9-88.5-6.2L1989,426.4z"/>
						<path fill="#FFFFFF" d="M2016.6,383.3c9.7,11.3-52,7.9-43.1,16.8c44.2,0.8,21.5-9,61.4-3.2L2016.6,383.3z"/>
						<polygon fill="#FFFFFF" points="2252.4,617.5 2234,617.2 2248,619.7 						"/>
						<polygon fill="#FFFFFF" points="1715.5,392.7 1722.4,389.3 1689.2,390.1 						"/>
						<path fill="#FFFFFF" d="M1729.5,386.1l-7,3.2L1729.5,386.1z"/>
						<polygon fill="#FFFFFF" points="2224,632.2 2247.5,642.7 2261.1,642 						"/>
						<path fill="#FFFFFF" d="M2010.5,527.2l24.3-0.4C2030.1,526.9,1997.9,518.3,2010.5,527.2z"/>
						<polygon fill="#FFFFFF" points="1515.6,424.8 1485.5,437.6 1489,437.8 1519,424.9 						"/>
						<path fill="#FFFFFF" d="M1823.9,549.1c16.4,7.7-46.5,3.6-13,9.9C1840.3,557,1828.3,552.9,1823.9,549.1z"/>
						<path fill="#FFFFFF" d="M1468.9,555.6c-3.8,1.3-7.7,2.9-11.3,5.1C1462.1,558.9,1465.8,557.2,1468.9,555.6z"/>
						<path fill="#FFFFFF" d="M1468.9,555.6c12.3-4.2,25.6-5.3,33.4-9.9C1485.6,546.5,1480.6,550.2,1468.9,555.6z"/>
						<path fill="#FFFFFF" d="M1331.5,612.4l11-4.3c-9.2,8.6-4.3,5.8,4.1-1.6c11.2-5.4,9.6-7.5,10.2-9.7c1.9-2,3.7-3.9,5.7-6.1
							c-3,2.6-5.8,4.9-8.2,6.9C1336.6,605.4,1326,610.7,1331.5,612.4z"/>
						<path fill="#FFFFFF" d="M790.6,857.7c33.9-34.5,43.2-42.8,46.2-36.5c32.7-31.7,19.8-34,37.1-55.9
							c-17.4,19.1-28.6,30.2-40.4,42.2C821.9,819.7,810.1,833.6,790.6,857.7z"/>
						<path fill="#FFFFFF" d="M873.9,765.2c3.9-4.3,8-8.1,12.6-13C881,757.5,877,761.4,873.9,765.2z"/>
						<path fill="#FFFFFF" d="M1514.1,616.8c0,0-5.3,4.2-10.6,8.6c-5.2,4.4-10.4,8.7-10.4,8.7l8.3-4.2c0,0,3.2-3.3,6.3-6.6
							C1510.8,620,1514.1,616.8,1514.1,616.8z"/>
						<path fill="#FFFFFF" d="M743.5,911.9c5.9-6.8,14.5-18.3,20.6-22.5C760.7,883.4,737.6,918.6,743.5,911.9z"/>
						<path fill="#FFFFFF" d="M955.2,859c5.6-0.8,24.3-21.8,33.7-28.6C976.6,841.2,958,841.7,955.2,859z"/>
						<path fill="#FFFFFF" d="M688.5,1040.5c4.9-7.3,16-16.3,17.4-8.6C710.1,1019.6,709.8,998.9,688.5,1040.5z"/>
						<path fill="#FFFFFF" d="M899.9,917.5l5.8-3.3c0,0,4.2-6.4,8.3-12.7c4.1-6.5,8.5-12.6,8.5-12.6s-5.9,6.9-11.4,14.3
							C905.5,910.2,899.9,917.5,899.9,917.5z"/>
						<path fill="#FFFFFF" d="M1039.9,907.1c17.6-27.5-49.5,21.6-14.4-20.9c-56.1,44.6,11,3.4-26.2,40.1
							C1022.1,905.7,1040,902.8,1039.9,907.1z"/>
						<path fill="#FFFFFF" d="M999.4,926.3c-3.3,2.9-6.9,6.3-10.5,10C993.2,932.3,996.5,929.1,999.4,926.3z"/>
						<path fill="#FFFFFF" d="M712.2,1281.1c1-4.8,1.4-8.2,1.7-11.3C713.1,1273.5,712.6,1277.2,712.2,1281.1z"/>
						<path fill="#FFFFFF" d="M898.4,1058c0,0,4.6-11.3,9.2-22.8c5.1-11.1,10.2-22.3,10.2-22.3c-14.7,29.1-59.4,95.3-46.6,97.6
							c15.2-20.7,31.4-46.9,34.6-60.4L898.4,1058z"/>
						<path fill="#FFFFFF" d="M485.8,1521.7l-0.2-24.6l-6.6,29.5C482.2,1518.4,487.7,1535.1,485.8,1521.7z"/>
						<path fill="#FFFFFF" d="M477.7,1532.3l1.2-5.7C478.5,1527.8,478,1529.7,477.7,1532.3z"/>
						<path fill="#FFFFFF" d="M746.1,1193.2c8.1-14,13.6-25.6,18.6-39.5C759.9,1158,739.8,1192.9,746.1,1193.2z"/>
						<path fill="#FFFFFF" d="M484.9,1690.7c0,0-0.4-9.8,0-19.6c0.2-9.8,0.5-19.6,0.5-19.6s-0.6,10.7-1.2,21.4
							c-0.4,5.3-0.5,10.7-0.5,14.7s0,6.7,0,6.7L484.9,1690.7z"/>
						<path fill="#FFFFFF" d="M469.5,1875.2l-1.6,7c0,0,1.5,8.2,3.5,16.2c2,8.1,4.1,16.1,4.1,16.1l1.3-7.2c0,0-2.2-8-3.9-16.1
							C471.2,1883.3,469.5,1875.2,469.5,1875.2z"/>
						<path fill="#FFFFFF" d="M694.3,1651.9c2.5-22.5-4.8-41.1-7.9-35.5c0,0-0.3,2.8-0.8,6.9s-1.1,9.7-1.4,15.1
							c-0.7,11-1.5,22.2-1.5,22.2c10-10.5,0.2-12.3,5.2-37.6c0,0,1.1,7.3,2.9,14.5C692.6,1644.6,694.3,1651.9,694.3,1651.9z"/>
						<path fill="#FFFFFF" d="M1202.7,2967.6c-12.9-0.5-60.6-31.6-59.8-38.4c7.6,2.2,35.4,15,20.6,2.5c0,0-11.7-2.2-22.9-5.2
							c-11.3-2.9-22.8-5.8-22.8-5.8c-44.8-40,48,8.8,76.2,17.1c-25.5-15.5-43.1-23.7-60.8-32.8c-17.9-8.8-36.6-17.6-62.4-36.5
							c14.7,11.9,22,22.2,28.8,30.1c-2.1,5.1-14.9-1.9-31.3-13.4c-16.6-11.3-37.1-27-54-40.3c18.8,20.5,4.1,13.8-14.3,4.6
							c-3-2-5.3-3-7.1-3.6c-2.2-1.1-4.2-2.1-6.3-3.1l4.1,3.2c-1,0.7-1,2.5,0.8,6.3c30.3,20.6,47.9,43.6,67.2,57.4
							c-4.5-13.9,11.9-2.3,34,12.4c22.1,14.8,48.9,34.5,63.4,39.2l30.4,15.5l11.1,6.3c1.4,2.9-2.9,3.2-21.5-3.6
							c15.4,5.9,63.5,31,61.4,24c0,0,6.9,3.5,17.2,8.7c10.4,5,24.5,11.2,38.6,17.6c14.1,6.3,28.1,12.8,39,16.8c10.7,4.2,18,7,18,7
							c3.3,2.1,6.6,4.2,8.8,6.5c4.4,0.6,5.3,0,5.1-1c0,0,7.9,3,21.5,8.3c14,4.7,33.9,11.3,57.7,19.5
							c48.3,14.5,113.3,32.5,179.6,43.1c33,6.6,66.5,9.5,97.7,13.7c31.3,2.2,60.6,5.2,85.8,5.7c25.2,0.5,46.1,0.9,60.8,1.2
							c14.7-0.4,23-0.6,23-0.6c-26.5-0.2-49.3-5.2-76.4-7.7c41-10-44.3-3.2-31.8-14.1c18.3-2.2,44.7-1.2,60.5,2.1
							c5.9-5.2-16.4-10.6-13.6-16.9c-32.8-3.8-51.9-0.8-71.2,2.8c-19.2,3.8-38.7,7.8-70.8,1.4c3.4-6.1,23.9-9.1-18.2-13.6h10.9
							c-34.2-0.3-46.5-7.6-56-11.2c-9.5-4.2-16-6.1-38.8-1.6l3-8.9c-15.6,0-38.1-3.3-60.8-7.6c-22.5-4.9-45.1-11.2-61.5-15.1
							l2.5-1.2c-93.2-19.8-51.8-12.7-152.1-48.9c0,0,3.1,0.6,7.6,1.6c4.6,1,10.7,2.2,17,3.1c12.4,2,24.8,3.9,24.8,3.9
							c-32.3-17.3-44.2-10.3-67.9-22.2c2.5-0.8-0.2-9.6,22.9-0.9c0,0-7.7-2.4-19.3-5.9c-11.6-3.6-27.3-8-42.4-13.7
							c-15.3-5.5-30.6-11-42.1-15.2c-11.6-4.2-18.9-7.5-18.9-7.5C1167.9,2943.3,1200.3,2961.7,1202.7,2967.6z"/>
						<path fill="#FFFFFF" d="M1070.9,2868.5c-5.2-4.4-11.5-9-19.1-14.1C1058.8,2859.8,1065,2864.3,1070.9,2868.5z"/>
						<path fill="#FFFFFF" d="M1928.2,3149l-37.7,1.1C1902.3,3150.3,1914.5,3150.1,1928.2,3149z"/>
						<path fill="#FFFFFF" d="M913.8,2766.1c13.2,19.2-17-6.9-22.3-7.1c0,0,14.9,14.1,29.8,28.3c15.4,13.4,31,26.9,31,26.9
							c2.1-2.9,10.8-0.7,11.7-4.2c0,0-12.7-10.7-25.4-21.5c-6.4-5.2-12.6-10.9-17.1-15.2C916.8,2768.8,913.8,2766.1,913.8,2766.1z"
							/>
						<path fill="#FFFFFF" d="M965.9,2834.8c3.6,0,11.9,3.6,20.8,8c0,0-9-6.7-17.5-14.1c-8.5-7.3-17.1-14.7-17.1-14.7
							C950.6,2816.3,952.8,2821.5,965.9,2834.8z"/>
						<path fill="#FFFFFF" d="M1082.3,2682.9l9.7,8l16.8,9.7c0,0-6.7-4.2-13.4-8.6C1088.6,2687.6,1082.3,2682.9,1082.3,2682.9z"/>
						<path fill="#FFFFFF" d="M1234.7,2810.8c-10.6-12-36.6-24.7-45.7-28.6C1217.4,2799.8,1203.8,2794.4,1234.7,2810.8z"/>
						<polygon fill="#FFFFFF" points="1231.3,2740 1258.7,2753.9 1256.7,2751.5 						"/>
						<path fill="#FFFFFF" d="M2195,3073.5c5.6-1.5,11.1-2.9,16.7-4.9C2204.1,3070.9,2199,3072.1,2195,3073.5z"/>
						<path fill="#FFFFFF" d="M1893.3,3122.1c85.9,8.3-55.9,10.1-29.1,22.7l47-5.6l-3.9,3.7c0,0,14.4-0.7,28.7-1.3
							c14.3-1.4,28.6-2.7,28.6-2.7c-12.2-5.2-20.9-4.9-18.8-11.6c76-3.6,24.5,6.8,81.2,8.6c0,0,21.3-3,42.5-6
							c21.2-3.3,42.2-7.7,42.2-7.7l-6.5,3.1c7.1-1.4,10.1-2.8,12.4-4.2c0,0,71.3-13.2,140.3-35.4c17.4-4.9,34.4-11,50.4-16.7
							c15.9-5.9,31-10.5,43.5-15.9c25.1-10.3,41.8-17.1,41.8-17.1c46.5-24.6-31.1,0.2,0.8-23c-55.4,23.5-142,44.3-143.6,57.1
							c1.5-2.2,4.2-6.7-7.9-4.9l-30.6,19.7l33-5.9c-7.7,4.9-20.5,10.5-35.6,15.8c-15.3,4.8-33,9.3-50.3,13.3
							c-34.7,7.6-68.6,10.3-79.1,9.2c63.1-15.4,29-19.9,117.7-33.5c-4.7-2.2-21.9-4.2-2.9-10.3
							C2094.3,3101.7,2001,3108.5,1893.3,3122.1z"/>
						<path fill="#FFFFFF" d="M2831.6,2715.1l0.2,1.4C2832.8,2714.6,2832.9,2713.9,2831.6,2715.1z"/>
						<path fill="#FFFFFF" d="M2805.3,2738.2c0,0-7,11-14.1,22.2c-7,11.2-14.8,21.7-14.8,21.7s15.1-13,29.1-27.3
							c14.3-14,28.5-27.9,28.5-27.9l-2.1-10.3c-3.3,6.5-20.5,29-30.6,33.9L2805.3,2738.2z"/>
						<path fill="#FFFFFF" d="M2735.8,2826.4c29.7-29.3,20.5-36.1,0.8-25c25.2-28.2,22.3-4.6,34.7-29.7c-5.7-5.2-37.4,28.7-45,36.2
							L2735.8,2826.4z"/>
						<polygon fill="#FFFFFF" points="2476.4,2986.6 2484.9,2977.4 2458.9,2989.4 						"/>
						<path fill="#FFFFFF" d="M2484.9,2977.4l25.8-11.9c-3.2-1.9-6.4-3.8-11.6-3.6L2484.9,2977.4z"/>
						<path fill="#FFFFFF" d="M2576.9,2931.5c10.7-5.6,22.2-12.4,36-20.9c0,0-9,5.2-17.9,10.5
							C2585.9,2926.4,2576.9,2931.5,2576.9,2931.5z"/>
						<path fill="#FFFFFF" d="M2547.5,2945.4l1.5,0.7l27.9-14.6C2566.4,2936.4,2557,2940.9,2547.5,2945.4z"/>
						<path fill="#FFFFFF" d="M2510.6,2965.6c7.6,4.4,16.1,8.8,51-13.8l-12.7-5.6c0,0-9.6,4.9-19.1,10
							C2520.5,2961.2,2510.6,2965.6,2510.6,2965.6z"/>
						<polygon fill="#FFFFFF" points="1425,2852.1 1452.4,2858.6 1450.1,2856.5 1422.7,2850.1 						"/>
						<path fill="#FFFFFF" d="M1576.5,2908.2c7.1,0.3,12.5,0.2,17.4-0.1C1586.7,2907.3,1580.8,2907.2,1576.5,2908.2z"/>
						<path fill="#FFFFFF" d="M1701.8,2882c30.6,11.2-45.1,4.1,13.2,14.7c4.5,7.1-24.8,13.4-52,4.5c3.3-5.9,27.6,0.8,11.7-8.7
							c-19.5,4-25.7-2.2-21,8.5c-32.3,0.7-37.1,5.8-59.7,7.2c38.1,6.1,117.6,28.4,167.8,19.9c27.8-9.6,12.6-26.6,14.1-43.4
							c-1.8-2.4-19.5-4.3-37-6.3C1721.5,2876.5,1703.9,2876.7,1701.8,2882z"/>
						<path fill="#FFFFFF" d="M1655.8,2857.3c-14.1-3.3-18.5-3.3-27.4-4.1C1629.4,2859.6,1644.2,2855.8,1655.8,2857.3z"/>
						<path fill="#FFFFFF" d="M2000.1,2996.1c2.9-2.8,31.2-9.3,24.5-12.7c0,0-10.7,2.2-21.5,4.2c-10.7,2.4-21.6,3.7-21.6,3.7
							C1991.8,2991.2,1995.6,2993.6,2000.1,2996.1z"/>
						<path fill="#FFFFFF" d="M1962.4,2994.2l19.1-2.8C1976.6,2991.6,1970.7,2992.4,1962.4,2994.2z"/>
						<path fill="#FFFFFF" d="M2002.4,2997.4c-0.8-0.4-1.5-0.8-2.2-1.2C1999.6,2996.7,1999.7,2997.2,2002.4,2997.4z"/>
						<path fill="#FFFFFF" d="M2677.2,2869.5c2.2,4.1,18.4-10.6,25.9-18.6C2696,2856.2,2685.1,2862.3,2677.2,2869.5z"/>
						<path fill="#FFFFFF" d="M3145.5,2221.7l9.6-16.7C3150.9,2210.6,3148.8,2213.5,3145.5,2221.7z"/>
						<path fill="#FFFFFF" d="M3090.7,1922.2c-0.8-0.6-1.4-2-1.9-3.8C3089.2,1920.2,3089.8,1921.4,3090.7,1922.2z"/>
						<path fill="#FFFFFF" d="M3088.9,1918.4c-2.3-12,8.4-47.2,2.9-60.8l1.6,1.8l-1.6-24.3c-0.7,11.3-1.8,28.7-2.8,45
							C3087.6,1896.3,3087,1911.5,3088.9,1918.4z"/>
					</g>
				</g>
			</g>
		</g>
	</g>
</g>
<g>
	<g>
		
			<image overflow="visible" opacity="0.75" enable-background="new    " width="396" height="632" xlink:href="3C956524227197E.png"  transform="matrix(4.4996 0 0 4.5008 991.2695 473.7797)">
		</image>
		<g>
			<g>
				<g id="YoI1sJ.tif_9_">
					<g>
						<path fill="#1C75BC" stroke="#1C75BC" stroke-width="8.170000e-02" stroke-miterlimit="10" d="M1147.9,1474.7
							c0-15.6,0.1-31.1,0.1-46.7c0.1-34.4,0.5-68.9,0.1-103.3c-0.1-8.4,2.5-10.3,10.5-10.3c100.9,0.3,201.7,0.2,302.6,0.2
							c3.7,0,7.4-0.2,11.1-0.4c0.5-0.8,1.1-0.9,1.8-0.2c3.1-2.8,1.5-6.4,1.5-9.6c0.2-77.7,0.1-155.4,0.3-233.1
							c0.1-35.9,6.3-71,14.7-105.8c1-13,5.1-25.2,9.5-37.3c18.7-51.2,45.3-98,80.4-139.8c35.9-42.8,78.4-77.7,127.1-105.1
							c52.6-29.6,109-47.9,168.8-55.4c5.8-0.7,11.7-0.2,17.5,0.2c146.7-0.1,293.4-0.3,440.1-0.4c15.1,0,13.2-1.8,13.2,13.5
							c0.1,120.6-0.1,241.2,0.3,361.8c0,9.3-2.1,12-11.7,11.9c-59.7-0.5-119.4-1.2-179,0c-70.9,1.5-123,34.6-155.2,97.9
							c-10.4,20.4-15.6,42.5-15.9,65.5c1.4,14.8,0.5,29.6,0.6,44.4c0.2,27.5,0,55,0.1,82.5c0,3-0.8,6.2,0.9,9.1
							c54.7,0,109.5,0,164.2,0c5.2-1.7,10.5-0.7,15.7-0.8c28.3-0.1,56.5,0,84.8-0.1c26-0.1,52-3.4,78.1-2.1
							c3.4,0.2,6.8,0.1,10.2,0.3c6.4,0.4,9.5,3.7,9.5,10.2c0.1,8.7,0,17.4,0.1,26.1c-0.1,113.1,0,226.1-0.1,339.2
							c0,5.2,1.1,10.6-1.9,15.5c-4.7,3.6-10.1,2.4-15.3,2.4c-110,0.1-220,0-330.1,0.1c-4.5,0-9.4-1.5-13.2,2.4
							c-1.8,3.9-1.2,8-1.2,11.9c0,74.5-0.1,149.1,0,223.6c0.9,165.3-3,330.6-1.8,495.9c0,148.1,0,296.1,0,444.2c0,3.6,1,7.4-0.9,11
							c-4,0.1-8.1,0.4-12.1,0.4c-161.6,0-323.2,0-484.8,0c-14.2,0-12.5,1.8-12.5-12.3c0-389.1,0-778.2,0-1167.4
							c0-13.8,1.9-12.2-12.6-12.2c-101.3,0-202.6,0-304-0.1c-3.7,0-7.4-0.5-11.1-0.8c-0.1-8.5-0.2-17-0.3-25.5c-3.5-3.5-3-8-3-12.3
							c-0.2-58.6,0-117.2,0-175.8C1144.9,1483.3,1145.1,1478.7,1147.9,1474.7z"/>
					</g>
				</g>
			</g>
		</g>
	</g>
</g>
</svg>
