<?xml version="1.0" encoding="utf-8"?>
<!-- Generator: Adobe Illustrator 17.1.0, SVG Export Plug-In . SVG Version: 6.00 Build 0)  -->
<!DOCTYPE svg PUBLIC "-//W3C//DTD SVG 1.1//EN" "http://www.w3.org/Graphics/SVG/1.1/DTD/svg11.dtd">
<svg version="1.1" id="Layer_1" xmlns="http://www.w3.org/2000/svg" xmlns:xlink="http://www.w3.org/1999/xlink" x="0px" y="0px"
	 viewBox="0 0 3600 3600" enable-background="new 0 0 3600 3600" xml:space="preserve">
<g>
	<circle fill="#CCCC65" cx="1848.9" cy="1788.2" r="1643.8"/>
	<g>
		<g>
			<g>
				<g>
					<g>
						<path fill="#CCCC65" d="M3529.5,1526c4.7,23.8,0,45.7-4.2,37.1c14.6,47.6,5.3,49.8,22.3,54.4c10.6,31,1.8,65.6-7.6,30.2
							c0,0,4.3,22.5,8.5,45.1c3.9,22.6,6.7,45.4,6.7,45.4s0.3-13.7,0.6-27.4c0.6-13.7-0.3-27.4-0.3-27.4
							c15.9,14.2-1.4,87.6,15.5,104.8c0,0-1-25-1.9-49.9c-0.5-12.5-1-24.9-1.3-34.3c-0.4-9.3-1.2-15.5-1.2-15.5l5,4.7
							c-6.7-22.4-7.9-66.5-7.2-82.1c2.6,2.2,6,0.3,7.8,17.9c-5.3-60.4-13.7-67.6-20.7-72.2c-8-4.5-13.8-6.8-25.1-55
							C3527.9,1507.7,3529,1515.4,3529.5,1526z"/>
						<path fill="#CCCC65" d="M3543.9,1419.4l-26.4-37.2c0,0-0.7-4.4-1.8-10.9c-1-6.6-2.5-15.3-4.5-23.9
							c-3.7-17.3-7.5-34.5-7.5-34.5c-6,0.8-24.6-46.9-20.2-12.1c2.7,6.2,8.1,18.6,10.5,29.1c-7.3-2-15.2-23.9-22.1-42.3
							c-7.4-18.2-14.5-32.8-17.3-21.2c20.2,51.1,18.4,60.3,38.2,90c10.5,49.4,16.7,85.8,15.6,109.9c4.5,14.3,12.7,15,17.6,33.5
							c-0.9-4.1-1.7-7.9-2.8-12.7l18.8-5.5c-7.1-15.1-7.2-30.5-11.6-47.8c0,0,2.8,4.7,6.2,11.9c3.5,7.2,8.1,16.9,12.7,26.6
							c9.3,19.5,18.5,39.1,18.5,39.1c6.7-14.7,3.7-42.1-0.8-70c-5.2-27.7-12.9-55.6-12.8-72.7
							C3547.6,1412.3,3539.2,1339.2,3543.9,1419.4z"/>
						<path fill="#CCCC65" d="M3526.1,1499.7c0.1,0.5,0.3,1.4,0.4,2C3526.3,1501.1,3526.2,1500.2,3526.1,1499.7z"/>
						<path fill="#CCCC65" d="M550.9,2703.7c9.7,13,16.2,14.2,19.4,14.7c0,0-6.6-9.2-16.5-23.1c-5-6.9-10.7-15-16.9-23.7
							c-5.8-8.9-11.9-18.5-18.1-28.1c-12.3-19.1-24.8-38.1-33-53c-8.5-14.7-14.2-24.6-14.2-24.6c-1.7,7.4,19.2,56.3-1,27.3
							c2.3,16.9,32.6,54.8,42.2,56.8l-13.7-7c30.7,30.3,31.3,64.9,10.6,45.4l2.1,2.9c0,0,24.9,18.4,49.8,36.8
							c12.1,9.2,25.1,17.7,34.7,24c9.5,6.3,15.9,10.5,15.9,10.5C587.8,2728.1,581,2745.5,550.9,2703.7z"/>
						<path fill="#CCCC65" d="M3434.3,2057c-2.5,23.9-1.2,27.1,1.2,24.8C3435.6,2073,3435.4,2064.7,3434.3,2057z"/>
						<path fill="#CCCC65" d="M635.9,2778.3c0,0,7.8,5.2,16.1,10c8.2,4.8,16.3,9.6,16.3,9.6C656.6,2789.1,644.6,2782.7,635.9,2778.3
							z"/>
						<path fill="#CCCC65" d="M336.1,2665.5c-0.6,0.3-1.3,0.2-1.5,1.5l14.3,12.5c-0.1-0.2-0.2-0.4-0.2-0.4
							C344.1,2674.2,339.9,2669.7,336.1,2665.5z"/>
						<path fill="#CCCC65" d="M1306.2,3208.8c3.6,1.1,6.7,2.1,11,3.4C1313.2,3210.8,1309.6,3209.7,1306.2,3208.8z"/>
						<path fill="#CCCC65" d="M72.7,2174.6c0,0,8,21.9,16.1,43.9c7.6,22,17.1,43.3,17.1,43.3c-8.7-10.4,5.1,32.1-6.4,15
							c2.8,6.6,13.9,37.9,14.2,28.4l-5.5-18.1c28.9,42.2,25.5,12.8,62.5,84.3c-3.4-24.9-8.9-41.6-15.4-55.1
							c-5.9-13.7-13-24-20.1-35.6c-3.5-8.2-6-15.3-8.7-22.4c0,0-2.6-4.2-6.6-10.5c-4-6.3-9.2-14.8-13.9-23.4
							c-9.7-17.4-19.5-34.7-19.5-34.7L72.7,2174.6z"/>
						<path fill="#CCCC65" d="M2931.9,3097.2l0.1,1.6C2932.3,3097.8,2932.2,3097.4,2931.9,3097.2z"/>
						<path fill="#CCCC65" d="M2932.3,3105.1l-0.3-6.4C2930,3103.7,2917.4,3116.6,2932.3,3105.1z"/>
						<path fill="#CCCC65" d="M619.6,2774.4c3-1,8.7,0.4,16.2,3.9l-23.7-15.5C614.4,2765.9,617.1,2770.3,619.6,2774.4z"/>
						<path fill="#CCCC65" d="M553.9,2746.6l-42.1-55.2l-20.8-17C507.5,2695.6,528.3,2719.2,553.9,2746.6z"/>
						<path fill="#CCCC65" d="M1215,3160.1c124,53.2-38,3.6,16.8,33.2c35.4,13.9,51.8,9,74.4,15.5c-51.4-16.2-45.2-21.6-39-27.4
							c6.3-6,12.1-11.2-37.3-31.3c10.3-4.4,29.2,0,50,6.5c20.8,6.2,43,15.8,58.9,24.4c16.6,13.7,7.2,13.9-8.1,11.3
							c-15.1-3-36.2-8.3-43.4-2.9c41.1,13.3,34.8,8.5,55,6.2c31.3,12.3,65.5,19.7,96.4,25c15.4,2.9,29.7,6.7,42.4,10.8
							c12.8,3.9,23.8,9.1,32.4,16.6c48.1,8,46.7-1.3,75.3-4.2c4.1-7.7-13-13-32.9-18.3c-19.8-6.1-42.3-12.9-49.3-21.1
							c3.2,2.2,9.5,6.5,6.9,8.3c0,0-9.8-3.2-19.6-6.3c-9.9-2.9-19.4-6.8-19.4-6.8c36.2,15.7-9.5,15-30.1,10.1
							c-14.8-3.8-44.4-11.4-38.9-14.9c0,0,5.7,1.1,11.6,1.7c5.8,0.7,11.6,1.4,11.6,1.4c-13.7-6.2-30-8.7-46.5-11.7
							c-16.5-3.1-33.4-6-46.6-15.9c-0.2-4.1,11.4-1.4,14-3.2c-36.6-2.2-68.6-14-119.4-29l34.3-2.6c-45.7,0.8-129.5-47-180.2-89.3
							c4.7,6.1,15.2,14.2,6.7,13.1c-35.2-16.7-53.2-42.6-33.6-40c-9.6-2.3-21.9-8.4-34.9-17.6c-12.9-9.4-27-21.1-41.5-32.8
							c-14.6-11.6-28.4-24.9-42.6-35.3c-14.2-10.4-27.8-19.2-40.1-24.4c0,0-14.6-5.7-36.5-14.3c-22.2-8.5-50.3-22.2-79.8-35.3
							c-28.3-14.4-57.3-29.1-78.6-41c-21.1-12.4-35.2-20.6-35.2-20.6c7.7,5.7,15.5,12.1,22.7,19.3c4,26.6,13.6,35-22.9,13.8
							c31.3,24.8,30.6,5,71.1,47.2c-20.8-11.7-37.8-4,1.3,37.6c28.3,22,55.1,40.8,82.8,55.6c26.9,15.8,54.1,28.1,81,39.6
							c53.6,23.4,107.8,41,166.8,65.5c-0.9,5.9,20.7,20.6,47.6,37.2c27.3,15.9,60.4,32.7,81.7,44.3c-21.9,3-55.9-10.6-90.5-26.3
							c20.5,12.1,56.7,31.1,83.9,44.6L1215,3160.1z"/>
						<path fill="#CCCC65" d="M921.8,3029c2.2,2.9,4.8,5.4,7.5,7.9C928.3,3035.1,926.1,3032.7,921.8,3029z"/>
						<path fill="#CCCC65" d="M1100.2,3125.7c-0.6,0.1-0.6,0.5-1,0.8c3.6,1.7,7.1,3.5,10.8,5.3
							C1106.5,3129.6,1102.6,3127.2,1100.2,3125.7z"/>
						<path fill="#CCCC65" d="M621.3,2816.3c-8.1-4.4-12.9-8.6-20.6-13.4c4,3.6,9,8,13.8,12.3C619.7,2818.8,622.7,2820,621.3,2816.3
							z"/>
						<path fill="#CCCC65" d="M618.3,2781.7l6.3,0.6c-1.9-3.1-3.3-5.3-5-8C617.1,2775.2,616.2,2777.3,618.3,2781.7z"/>
						<path fill="#CCCC65" d="M1700.2,3393.4l13.9-1.4C1705.9,3391.6,1702.2,3392.3,1700.2,3393.4z"/>
						<path fill="#CCCC65" d="M1347.8,3234.1c-45.3-14.4-11.2,14.6-74.4-9.9l18.1,8.3c-48.6-9.7-125.2-49.3-176.7-76
							c8.7-2.4-26.8-24.2-15.8-29.9c-17.5-8.8-35.2-17.3-51.1-24.2c-15.6-7.4-29.8-12.7-41.3-13.7c-19.1-15.5-54.4-30-77.4-51.5
							c7.1,12.7-49.1-9,17.9,29.3c-5.5-2.9-3.2,0.5-8.7-2.3c35.1,36.4,60.8,33.8,96.3,56.7c18.2,19-40.3-14.1-21.4,1
							c23.6,12.7,59.5,34,89.8,51.1c31.1,15.5,56.8,25.9,60.3,14.7c35.3,15.3,38.3,21.4,47,30.3c16.4,0.8,37.1,7.5,59.8,15.3
							c22.6,8.2,46.5,19.2,69.5,27.4c45.4,18.2,85.1,29.3,89,14.2c-10.7-2.6-24.8-6-40.2-9.7c-15.2-4.3-31.8-8.3-48.3-10.3
							L1347.8,3234.1z"/>
						<path fill="#CCCC65" d="M677.8,2877.6c2,2.3,4.9,5.2,6.4,7.2C682.3,2882.7,679.9,2880.1,677.8,2877.6z"/>
						<path fill="#CCCC65" d="M436,2317l26.4,10.7c11,25.2,20.1,46.3,29.2,64.8c8.9,18.6,15.3,35.7,23.5,51.6
							c7.8,16,15.3,31.7,23.6,48.7c8.7,16.8,19.1,34.5,31.1,55.2c1.2,7.8-6.1-1.4-9.8-6.1c35.8,57.3,90.3,143.5,129.7,175.1
							c12.3,17.6,45.5,63.6,26.6,51.7c8.3,6.8,17.4,14.7,24.9,24.3c-3.4,7.4-19.3-19.1-24.3-15.6c5.9,7.6,7.3,11.4,10.5,11.5
							c-15.5-8.1-7.5,29.7-57.5-28.7c-5.7-33.7,36.1,39,39.4,13.2c-16.3-19.1-20.1-12.1-23.3-12.2c-20.4-25-15.5-27.8-11.3-29
							c-11.9-6.2-31.3-42.2-47.7-51.1c-37.4-50.1,13.6-5.6-10.1-38.6c0,0-7.4-2-14.8-4c-7.5-2-14.7-4.3-14.7-4.3l-33.7-59.3
							c-27.5-40.9-33-33.8-39.8-27.9c-6.4,5.6-16,11.3-47.5-37.4c7.9,4.4,10.4-5.7,8.3-22.9c-2.3-17.1-8.7-41.4-17.3-66.4
							c6.7,14.3,18.9,33.4,32.3,53c13,19.8,25.3,41.1,33.4,59.8c-15.2-56.8,40.7,67.2,40.8,32.6c-20.7-20-46-59.9-57.9-94.7l7,9.8
							c-16.3-34.9-46.7-53.2-61.5-105.6c-10.3-24.6-3.4-22,2.5-19.4C443,2336,432,2318.6,436,2317z M460.9,2369.3
							c0,0,2.9,8.4,6.2,16.6c3.2,8.3,6.4,16.6,6.4,16.6C473.1,2393.4,467.3,2381.6,460.9,2369.3z"/>
						<path fill="#CCCC65" d="M3331,891.3c1.6,3.8,3.4,8.1,4.8,11.6C3335.3,900,3333.3,895.8,3331,891.3z"/>
						<path fill="#CCCC65" d="M325.7,947.8l12.4-20.3C332.9,935.2,329,941.8,325.7,947.8z"/>
						<path fill="#CCCC65" d="M606.7,481.4l23-28.1C619.5,463.2,612.7,472.3,606.7,481.4z"/>
						<path fill="#CCCC65" d="M3166.5,662.4l-0.7-1c-1.5-1.2-2.7-2.2-4.4-3.4L3166.5,662.4z"/>
						<path fill="#CCCC65" d="M1594.8,48.5c5.5,0.9,11.7,1.6,20,1.7C1613.5,48.5,1606.1,48,1594.8,48.5z"/>
						<path fill="#CCCC65" d="M602.5,486.5c0.8-0.5,1.2-0.8,1.8-1.2c0.8-1.2,1.6-2.6,2.4-3.9L602.5,486.5z"/>
						<path fill="#CCCC65" d="M173.8,1140.2c-1.3,5.1-2.5,9.8-3.9,15.3C172.3,1148.5,173.2,1144,173.8,1140.2z"/>
						<path fill="#CCCC65" d="M237.3,1128.8c-1.6,5.3-2.9,10.4-3.7,14.5L237.3,1128.8z"/>
						<path fill="#CCCC65" d="M76.8,1937.3l5.3,32.3C80.5,1953.7,78.7,1944.2,76.8,1937.3z"/>
						<path fill="#CCCC65" d="M195.2,1203.8c0.2,2.1,0.4,4.1,0.9,5.6C196.9,1205,196.5,1202.6,195.2,1203.8z"/>
						<path fill="#CCCC65" d="M3372.8,1094.3c-0.3-0.6-0.6-1.3-0.8-1.7l-2.4,0.2L3372.8,1094.3z"/>
						<path fill="#CCCC65" d="M3428.5,1152.6c3.8,8.2,7.7,16.7,11.6,25C3436.4,1168,3432.2,1159,3428.5,1152.6z"/>
						<path fill="#CCCC65" d="M2059,74.2c8,3.8,27.1,9.6,17.6,11.6C2093,83.9,2093.3,74.1,2059,74.2z"/>
						<path fill="#CCCC65" d="M3199.2,1020.7c4.5,2.6,9.1,6.6,13.7,10.6C3205.1,1023.4,3198.5,1016.5,3199.2,1020.7z"/>
						<path fill="#CCCC65" d="M3212.9,1031.2c3.8,3.9,7.9,8,11.6,11.4C3220.7,1038.5,3216.8,1034.6,3212.9,1031.2z"/>
						<path fill="#CCCC65" d="M1846,221.8c-1.9-1.3-4.8-2.3-8.8-2.5C1838.4,221.8,1841.6,222.3,1846,221.8z"/>
						<path fill="#CCCC65" d="M3445.3,1199.4c6.2,2.6,54.1,113.8,23.9,16.9c14.4-0.9,28.3,59.5,38,84.9c-2.2-20,11.5,6.9,14.8-0.3
							c-5.5-12.6-13.3-27.1-19.9-48.6c2.9-11.9,18.5,19.1,22.9,45.8c-1.8-34,22.4,37.3,15.2-9.5c-34-94.7-64.7-159.6-113-214.2
							c6.6,12.5,13.3,25.4,20.1,38.3c6.1,13.2,12.1,26.6,17.7,39.8c5.6,13.2,10.9,26.2,15.4,38.7c3.9,12.7,7.2,25,9.6,36.4l-18-14.3
							c-2.7-26.6-11-46.1-18.8-65.5c-8-19.4-17.4-38-27.8-61.4c0,0,2.6,6.7,6.4,16.8c4.1,10,8.6,23.6,13.1,37.3
							c9,27.3,17.9,54.5,17.9,54.5c7.1,54.4-5.1,20.5-22.9-17.5C3443.7,1187.2,3446.4,1196.2,3445.3,1199.4z"/>
						<path fill="#CCCC65" d="M3316.9,1170.6l0.3,1.8c1,1.3,1.9,3,2.8,3.7L3316.9,1170.6z"/>
						<path fill="#CCCC65" d="M326.8,1911.3l5.3,8.3C329.5,1912.6,327.9,1910.5,326.8,1911.3z"/>
						<path fill="#CCCC65" d="M3345.4,1087.4L3345.4,1087.4C3345,1086.9,3344.9,1086.7,3345.4,1087.4z"/>
						<path fill="#CCCC65" d="M325.6,1694c0.3,0.3,0.6,0.7,1,1.2C326.2,1694.4,325.9,1694.4,325.6,1694z"/>
						<path fill="#CCCC65" d="M63.5,1609.7c-0.6,0.4-1.2,0.5-1.8,1.6C61.9,1616.7,62.7,1614.1,63.5,1609.7z"/>
						<path fill="#CCCC65" d="M324.4,1693.7c0.4,0,0.8-0.1,1.1,0.2C325.2,1693.8,324.8,1693.4,324.4,1693.7z"/>
						<path fill="#CCCC65" d="M702.3,711.6c0,0-3.9,1-9.2,3.6C692.5,717.5,694.9,716.9,702.3,711.6z"/>
						<path fill="#CCCC65" d="M551.2,867.2c-1.2,0.8-1.9,1.4-3.4,2.4L551.2,867.2z"/>
						<path fill="#CCCC65" d="M2008.5,12.6c-12-1.1-21-1.5-28.7-1.5C1988.6,12.1,1998,12.7,2008.5,12.6z"/>
						<path fill="#CCCC65" d="M326.6,1695.2c1.1,2.3,2.3,5.4,3.5,10.6C328.8,1700.1,327.6,1697,326.6,1695.2z"/>
						<path fill="#CCCC65" d="M913.8,446.1c-1.7,1.8-3.2,3.4-4.8,5.1l3.7-1.8L913.8,446.1z"/>
						<path fill="#CCCC65" d="M1016.3,390.6c-2.7,3.2-3.5,5.3-4.8,7.5c16.6-12.5,42.1-27.1,63.6-40.4c22.1-12.3,40.2-23.7,41.2-31.7
							c-6.2,3.4-26.5,11.7-44.4,17.6c-17.7,6.3-32.7,10.8-29.2,4.2c-23.8,17.2-66,31.1-77.8,42.1c44.3-19.8,10.2,6.7-14.4,27.8
							c-26.8,12.6-1.2-11.9-23.9-0.2l-54.9,40.7l49.4-33l-7.4,20.9c1.5-1.6,2.6-2.7,4.2-4.5c39.4-30.9,44.5-27.1,48.6-25.1
							C971.2,419.2,975.1,420.4,1016.3,390.6z"/>
						<path fill="#CCCC65" d="M1011.5,398.1c-5,3.7-8.9,7.7-11.8,11C1007.4,403.9,1009.8,400.9,1011.5,398.1z"/>
						<path fill="#CCCC65" d="M1386,254.6c4.7-1.8,9.7-3.8,16.1-6.6C1399.1,249.3,1392.1,252.1,1386,254.6z"/>
						<path fill="#CCCC65" d="M466.1,2631.6c1.9-3.3-19.7-56.9-27.7-51.2c7.6,15.3,15.3,30.7,23,46.3L466.1,2631.6z"/>
						<path fill="#CCCC65" d="M2472.4,251.3c-6-2.7-12.1-5.2-18.3-7.5c-1.5-0.1-3-0.1-4.1,0C2453.3,246.7,2466,249.8,2472.4,251.3z"
							/>
						<path fill="#CCCC65" d="M1056.3,334.8c-8.6,6.7-12,10.4-13.5,13.1C1048.5,343.7,1053.4,339.4,1056.3,334.8z"/>
						<path fill="#CCCC65" d="M2467.1,274.2c6.6,5.7,16.3,13.9,16.3,18.1c15.2,7,28,7.1,44.4,12.5
							C2509.4,298.5,2490,287.3,2467.1,274.2z"/>
						<path fill="#CCCC65" d="M2529.1,305.3l-1.3-0.4C2528.2,305,2528.7,305.1,2529.1,305.3z"/>
						<path fill="#CCCC65" d="M481,2662.7c3.2,3.8,6.6,7.8,10,11.8l-6.5-5.3c6.5,11.6,12.4,23.5,19.3,34.9
							c3.3,3.6,6.8,7.4,10.8,12.4c-1.8-1.9-3.8-2.9-5.4-3.3c2.2,3.7,4.3,7.4,6.5,11c25.8,20.8,79.9,77.7,98.9,91
							c23.1,19.4,47.6,46,63.2,62.4c-14.8-15-33.9-35.4-32.8-25.2c11.6,18.4,18.8,33.5,30.3,50.2c11.5,16.6,27.4,34.8,59.8,54.9
							c0,0-7.9-7.5-15.9-15c-8-7.4-15.7-15.1-15.7-15.1s5.2,3.5,13.3,8.3c8.1,4.9,18.8,11.3,29.5,17.8c10.7,6.4,21.3,12.8,29.3,17.6
							c8.2,4.4,13.7,7.4,13.7,7.4c9.8,14.5-1.1,8.6-16.5-1.3c-15-10.4-34-25.5-41.7-27.3c61.4,45.1,93.1,106.4,132.9,113.6
							c-2.7,11.6-8.3,32.7,34.2,61c-22.4-31.5,29.4,10.9,13-17.5c17.6,5,43.5,35.6,50.9,29.8l-6.5,1.3
							c31.2,30.6,56.8,44.2,79.3,49.7c22.4,5.9,40.5,6.4,58.7,10.8c23.1,10.5,42.8,20.2,60.5,29.3c18,8.5,34.2,16.2,49.8,23.6
							c15.5,7.9,30.7,14.8,47,21.4c16.3,6.6,33.3,13.9,52.9,20.5c0.4,8,15.2,34.7,47.6,44.8c17.9-4.1,92.1,11.4,102.5,0.8
							c-55.7-21-49.6-2.7-85.1-9.5c-24-22.5,1.4-13.7-34.2-34.3c28.7,17.5,142,35.3,174.1,54.4l-12.6-1.1
							c26.8,10.6,41.7,23.1,62.2,33.4c10.2,5.2,21.9,9.7,37.1,12.8c15.2,2.9,34.2,3.3,58.7,1.6c0,0,11.6-0.5,23.2-1.1
							c11.6-0.4,23.1-1.9,23.1-1.9c-2.3,1.1-2.7,2.6-4,3.7c74.4,7,53.6,21.2,136.9,11.4c-6.4,0.7-2.4,2.3-8.9,3
							c23.6,4.7,47.5,1.8,69.7-1.8c22.3-3.6,42.8-8.4,60.4-11.7c22.4,9.1-4.4,11-17.6,19.8c84.3-0.4,171.7-31.9,219-54.7
							c0,0,3.3-0.2,8.4-0.5c5-0.2,11.7-0.7,18.3-1.6c13.3-1.4,26.6-2.9,26.6-2.9c-29.5,12.1-65.8,29.7-55.1,34.4
							c28.9-7.2,22.1-11.3,63.4-18.7c-5.4,8.3-21.1,18.7-38.9,31.4c88.2-8.2,13.5-28.2,78.2-21.3c26.7-7,39.2-21.4,39.8-30.1
							c0,0,12.6-0.8,25.3-1.5c12.8-0.5,25.3-2.1,25.3-2.1c1.9-12.4,59.9-30.7,96-48c2.7-6.2-33.6,1.6-46.5,10.1
							c0.3-8.2,37.7-27.7,62.8-37.3c9.1,9.2,49.2-10,84.7-26.4c34.9-17.5,65-33.2,56.8-14.2c26.8-14.9,54.8-34.1,84.2-52.3
							c28.6-19.5,58.2-39.1,85.2-59.9c27.1-20.8,53.1-40.7,74.7-60.6c10.9-9.7,21.1-18.9,30.5-27.4c8.9-9,16.9-17.3,23.7-24.7
							c12-6.3,28.3-18.2,39.3-25.1c10.7-7.2,16.5-9,8.2,6.1c17.9-17,32.6-33,45.8-48.4c13-15.5,23.5-31.2,34.6-46.2
							c11.2-14.9,21.9-30.1,33.8-46.2c11.8-16.1,26.4-31.6,42.2-50c3.5-2.3-3.1,6.4-9.9,15.8c-7.1,9.1-14.1,19.1-10.1,20.2
							c33.8-54.2,81.3-83.8,130.6-170.4c-8.7,14.2-7.4,20.9-6.8,24.1c-4-0.6,15.5-38.5,26.3-61.8c9.1-11.3-7.9,17.6-1.3,12.2
							c54.7-78.9,88-157.7,114.6-237.3c26.9-79.8,44.7-161.5,66.7-252.8c-11.7,52.3-4.8,75.5,1.3,77.8c0,0,3.7-12.8,7.4-25.6
							c3.8-12.8,6.5-25.9,6.5-25.9c-2.8-21.8,7.4-60.4,6.9-94.3c3.4-3.5,9.2-19,9.7-2.1c17.4-50.4,14.8-92.8,12.2-136.9
							c-2.1-22.2-4.5-45-5.2-70.1c-1.8-25.2-2.4-52.6,0.3-84.4c0,0,6.5,38.9,12.9,77.8c4.6,39.5,9.2,79,9.2,79l13.3-38
							c0,0,2.1,17.6,4.1,35.3c2.4,17.7,3.1,35.5,3.1,35.5c13.3-40.8-4.2-78.8,7.8-82.9c2.5,9-0.1,30.2,5.8,31.4
							c7.1-40,0.1-43.7-1.6-74c5.7,20.2,7.5,45.1,8.8,72.7c1.7,27.6,0.1,57.6-2.1,87.7c-4.2,60.2-14.8,120.5-22.2,162.6
							c-1.3,13.5-2.8-12.5-4.5-15.3c-3.5,17-8.2,30.2-12.7,44.5c-5,14.2-10.3,29.4-14.3,51c1.8,28.8,12.5-18,19.3-38.5
							c7.3,5,3.8,15.4-1.6,39c-10.9,2.3-43,125.7-69.1,148.8c-21.5,60.3-14.9,57.8-6.3,55.4c7.9-2.6,15.1-6-13.2,50.8
							c0,0-6.8,7.2-13.7,14.4c-7.1,7-14.3,13.9-14.3,13.9c-22.6,70.2-64.7,156.9-114.6,223.9l9.8-14.6c2.3-12.6-11.7,1.3-18.9,6.6
							c-20.3,23.9-35.2,49.7-50.9,71.3c-15.3,21.8-29,41.3-46.6,51.1c-34.2,64.2-112.1,157-171.1,215.7
							c-13.9,0.9,4.2-19.4,27.8-43.7c22.5-25.6,51.2-54.6,59-70.8c0,0-3.2,3.4-8,8.4c-5,4.8-11.8,11.3-18.5,17.7
							c-13.4,12.9-26.9,25.7-26.9,25.7c33.1-31.9,42.1-48.8,53.8-75.5c-23,22.6-37.1,38.8-49.6,56.3c-12.5,17.5-24.5,35.2-46.7,56.8
							c0.6-6.6-7.4-3.3-29,15.2l1,13.9c-1-0.3-3.9,1.1-11.3,5.9c0,0-20.6,18.4-41.2,36.7c-10.2,9.4-20.9,18.1-29,24.5
							c-8.1,6.5-13.4,10.9-13.4,10.9c21.7-10,29-2,51.7-19.7c-12,1.1,6.4-14.9,29-32.5c-15.3,21.2,26-12.4,29.2-7.6
							c-22.6,18.1-47.8,38.2-71.1,56.8c-23.8,17.9-45.4,34.6-60.1,46.9l-16.1-1.8c-24,13.6-47,30.1-69,43.9
							c-22.2,13.7-42.6,26.1-59.5,34.1l7.5-10.6c-29.3,15-58.3,29.9-86.5,44.4c-28.9,13.1-57.2,25.4-85.9,32.1
							c-49.5,33.1-116.3,67.5-159.7,92.7c-10.8,9.4-53.8,19.3-102.4,26c-48.3,8.6-101.8,13.9-133.5,29.1
							c-4.6-0.3,43.9-17.8,65.3-26.7c-43.8,6.1-76.4,28.1-92.3,15.5c49.8-3.7,47.8-8.2,39.2-9.9c-8.7-2.4-24.1-4.7-2.5-10.5
							c-22.8,4.1-46.3,7.1-66.8,11.2c-20.5,4.2-38.1,7.8-49.2,10.9c74.9-7.5-24.7,23.1,50.7,7.9c-28.7,10.3-63.7,16.1-100.2,21.2
							c-36.6,4.5-75,4.7-110.5,3.2c0.7-6-8.1-9-34.4-12.2l-21.6,8.2c-33.1-2.4,64.4-8.7-2.1-13.5c-17.3,3.7-38.8,3.7-61.8,2.1
							c-23-1.8-47.6-3.2-70.8-6.9c-23.2-3.2-45.2-5.9-63.6-6.3c-18.3-0.8-33,0-41.6,5.6c-25-10,0.2-8.3,22-7.6
							c21.8,0.8,40.2-0.3,2.5-12.9c46.4-3,107.4,16.3,123.7,2.9c-44.6,0.5-15-13-43.2-16.3l-50,2.2l10.8,1.9
							c-21.1,1.1-44.8-1.3-70.4-4.6c-12.8-1.8-26-3.7-39.5-5.7c-13.4-2.9-27.1-5.8-40.9-8.8c-13.8-3.2-27.8-6.4-41.9-9.6
							c-13.9-3.9-27.7-7.9-41.5-11.8c-13.8-3.9-27.5-7.8-40.9-11.6c-13.3-4.3-26.3-8.5-39-12.6c-89.6-15.9-156.8-21.3-254.4-73
							c16.3,3.8-3.1-8.4-18-19.2c-14.7-11-24.7-20.8,9-11c-40.6-30.5-87.6-48.1-91.5-43.9c37.2,24.5,12.4,9.6,43.4,31
							c-12.7-3.3-32.1-11.8-49.9-22.6c-17.7-11-34.4-23.3-43.2-31.8c9.1,6.5,6.3,3,9.6,2.4c-42.1-32.9-25.5-7.7-58.9-27.4
							c-2.1-7.7-19-20.6-38.6-34.7c-19-14.9-40.6-31.2-52.7-44.2c0,0-12.5-4.8-24.4-10.5c-12.1-5.6-24.1-11.2-24.1-11.2
							c27.7,11-35.2-34.6-34.7-47c-30.8-20.4-62.6-32.4-99.1-75.5c19.6,13.3-30.2-41.9-22.8-49.7c-13.9-19.6-28.5-35.7-43.4-50.2
							c-14.2-15.1-28.8-28.5-43.3-42.1c-14.7-13.3-28.3-27.4-41-43.3c-12.5-15.9-25.2-32.8-34.4-54.1c3.4,1.1,18.6,12.9,6.4-10.7
							c-13.3-16.2-32.9-47.1-44.6-66l0.6,0.5c-0.3-0.3-0.5-0.5-0.8-0.9c-5.9-9.2-10.4-14.5-12.6-13.6
							c-13.6-14.2-25.2-24.4-38.7-39.1c-12.9-15-27.8-34.3-48.9-66.6c-7.3,9.7,25.5,66.2,42.5,88.7l21.6,15.6
							c-1.6,14.2,7.7,28.8,17.8,42c10.5,13,22.2,24.3,24.5,33.2c-10.2-7.1-22.7-19.2-34.9-35.4c-12.2-16.2-25.3-35.7-38.7-56.3
							c-25.5-41.9-51.5-88.6-72.9-123c4.4,51.7,52.1,149,103.6,227.4c0,0-4.1-9.6-8.3-19.2c-4.2-9.5-7.7-19.4-7.7-19.4
							s5.9,10.7,12.7,20.9c6.6,10.3,13.3,20.5,13.3,20.5s-3.9-11.5-7.7-23c-4-11.4-7.1-23.2-7.1-23.2c10.5,20.5,23,38,34.4,55.5
							c11.5,17.5,23.1,34.1,35.2,51c-28.7-39.4-24.4-64.7-12.2-40c21.3,50.8,38.1,41.9,61.1,75.7c-12.5-19.2-29.5-43.4-13.2-31.6
							c17.4,37.1,33.4,57.3,47.5,77.8c14,20.6,28.7,39.3,47.5,71.9c4.2-9.8,18.9,7.9,36.7,26.2c17.6,18.4,36.7,39,45.9,37.6
							l-22.4-25.7c0,0,14.4,11,28.9,22.1c14.5,11,29.6,21,29.6,21c37.6,56.8-53.6-29.7,12.7,48.2c69.1,64.2,80,47.5,138.4,91.5
							c-12.8-3.1-32.2-11.8-54.3-24.5c-21.8-13-45.4-31.1-67.9-50.7l23.9,27.7c-19.3-7.1-79.5-64.6-107.9-94.8
							c28.5,19.9,23.6,13.4,9.6-1.4c-13.7-15.2-36.1-39.1-43.1-53.7c-11.8,3,19.6,33.9-22.2,1.8c16.8,17.7,26.4,27.8,37.2,39.2
							c10.7,11.4,21.6,24.9,43,47.5c-23.8-23.7-41-40.8-56.9-52.6c-15.5-12.1-29.4-19.3-41.7-27.2c-12.5-7.8-24.7-15.3-38.1-26.9
							c-13.7-11.4-28.2-27.3-44.6-52.3c37.6,40,0.2-24.6,0.4-32.8c-17.5-18.7-48.5-60.4-63.4-76.1l-1.4,24.6
							c-23.3-26.2-29.9-50-38.8-73.4c-4.4-11.8-9.3-23.6-16.3-36.3c-6.6-12.9-15.6-26.6-29-42c-13.2-4.5,32.3,62.5,23.8,50.8
							c-31.6-44.8-47.5-78.9-57.4-113.8c-5.2-17.3-9.8-34.5-14.7-53c-4.4-18.9-9.5-39-16.6-62c-6.2-3.2-15.6,2.2-35.6-26.2
							c12.6,6.2,7.4-18.5,28.1,13.8c-8.8-31-28.7-63.8-42.3-89.1c9.4,32.2,4,27-5.3,12.5c-9.1-14.6-20.5-39.1-25.3-44.1
							c-9.7-33.7,12.1,7.2,21.6,26.5c-6.7-27.4-4.3-62.8-22.5-73.6c4.5-2,16.8,14.6,30.3,37.3c6.8,11.4,13.8,24.3,20.3,37.3
							c7.1,12.8,13.8,25.7,19,37.3l-11.1-32.5c13.3,20.3,13.6,24.8,24.7,57c-5.3-33.8,3.8-33.7,13-29.1c0.3,4.5-3-1.4-2.8,3
							c7.5,26.2,18,44.4,20.4,36.5c21.3,17.2-6.8-37.7-7-57.1c-5.7-12.5-12-24.8-17.1-37.3c0,0-21.2-29.8-42.3-59.7
							c-20.4-30.5-39.9-62.2-39.9-62.2c-11.2-28.6-13.9-50.8-16.1-71c-1.7-20.3-2.5-38.8-3-61.9l-13.2-10.3
							c-9.1-52.4-11.1-102.4,7.2-70.9c-3.3,2.4-2,9.2-0.4,20.5c1.8,1.3,3.3,3.7,4.7,6.8c0.8,1,1.6,1.5,2.4,2.3
							c-12.4-54.9-17.9-89.7-19.1-92.8c28.1,92.6,20.8,2.2,42.6,15.8c0,0-1.1-5.8-2.9-14.5c-1.8-8.7-4-20.3-5.5-32.1
							c-3.4-23.5-6.8-46.9-6.8-46.9c-1.9,57.8-9.6,1.8-13.8-18.6c10.6-6.2-2.9-76.6-1-110.2l2.2,2.5c4.7-30.9,4.2-84.8,5.1-123.5
							c-3.7,1.6-19-49.6-26-75c-12.1,66.5-11.5,26.4-19.4,31c1.1-7,3.1-19.5,1.8-21.1c-1.9-10-5.9,12.7-9.8,14.2
							c-0.1,36.5-1.9,73.2-0.2,104.6c2.1,31.4,5.8,57.4,13.2,72.1c7.6-21.9-5.8-37.6-0.5-62.2c4.8,18,6.4,38.3,6.6,61.5
							c0.5,23.3,1,49.5,1.5,79.2l-8.8,19.9l9.5,59.5c-6.5-24.6-16.2-8.7-21.3-71.9c-9.5,8.6,6.2,62.7,6,101.6c0,0,3.6,4.6,7.2,9.2
							c3.7,4.6,7.4,9.2,7.4,9.2c-7.9-6.9,1.3,75.8-15.5,18.3c0,0-1.4-5.9-3.5-14.8c-2.2-8.9-4.8-20.7-6.8-32.7
							c-4.4-23.9-8.7-47.9-8.7-47.9l-6.4,27.6c0,0-2.1-20.5-4.3-41c-1.2-10.3-1.8-20.5-2.2-28.2c-0.5-7.7-0.8-12.9-0.8-12.9
							l6.9,19.1c-11.5-131.9,21.9-39,10.1-171.2c-12.1-41.9-12.1-87.5,2.9-167.9c-4.1,59,9.7,7.4,15.6,30.5
							c13.1-58.3,5.7-79.7,5.2-111.5c10.5-13.6,18.8-22.9,8.3,29.3c15.4,9.5,9-69.5,28-70.5c18.4-85.4,16.8-122.3,16.7-163.5
							c2.1-40.3,6.4-85.7,56.7-177.8l3.2,9.8c45.1-124.6,89.7-187.9,151.4-293.3c0,0,4.2-4.5,10.4-11.1c6.6-6.4,15.3-15,24-23.6
							c17.4-16.9,34.9-33.8,34.9-33.8c-10.3,19.1-32.5,73.1-10.2,56.2c-20.9,13.4-36,32-50.6,51.3c-14.8,19.3-28.7,39.7-44.9,59.2
							c1.5,6.7,14.5-9.2,21.3-15.3c-15,25.9-29.8,34.8-46.3,71.1c3.7-0.3,29.3-35.3,15-6.1c0,0-8.8,10.5-17.3,21.2
							c-8.6,10.7-17.2,21.5-17.2,21.5c-14.3,33.3-12.1,44.1-11.5,55.9c0.5,11.7-0.8,24.2-20.3,61.4c-2.6-18-2.3-53.1,9.3-84.2
							c-8.9,17.3-5.2,4.7-0.9-8.1c4.3-12.8,8.5-26.3-2.2-11.6c-6.4,28.2-13.4,47.9-23.1,68.9c-9.8,20.9-19.9,44.4-29.2,80.8
							c1.3-8.9-0.5-12.1,5.5-29.5c0,0-11.4,24.7-22.7,49.4c-10.9,24.9-20.7,50.3-20.7,50.3c8.3-11.4,3.3,10.6-1.8,34.7
							c-4.8,24.1-8.3,50.7-1,47.5c8.8-27.3,15.1-45.6,20.3-59.6c4.7-14.2,8-24.3,11.5-34.8c6.3-21.3,15.5-43.9,42.7-103.1
							c-10.6,35.6-17.2,83.8-12.4,108.7c-0.9,0.9-1.8,2.5-3.3,6.1c5.5,22.6,15,4.8,35.5,12.4c1.4-29.9,10.4-52.3,19.6-75.8
							c9-23.7,20.8-47.5,30.9-80.3c-5.1-16.6-31.1,29.6-40.5,62.6c0,0,0.9-3.7,2.3-9.2c1.3-5.6,3.3-12.9,5.6-20.2
							c4.4-14.6,8.9-29.2,8.9-29.2l0.1,13.1c0,0,4.2-8.6,10.4-21.6c6.3-12.9,14.4-30.3,23.9-47c9.2-16.8,18.4-33.6,25.2-46.2
							c6.7-12.7,12-20.7,12-20.7c-13.7,25.5-11.4,37.9-13.8,53.6c9.5-17.1,20.6-33.3,34.2-49.2c-12.1-1.8-17.8-8-8-24.6
							c51.2-84.2,92.5-122.4,123.6-143.9c1.9-3.2,4.1-6.8,5.9-9.7c-19.7,5.9,25-67.6,35.4-99c8.3,8.8,38.8-33.8,61.9-51
							c-0.1-20.5-27.7-18.6-59.2,0.8c-34.8,59.5-15,37.1-21,73.1c0,0-14.2,22.9-28.3,45.8C443.2,767,430,790.4,430,790.4l4.9-25.9
							c-35.8,40.4-50.8,92-60.7,80.9c3.8-14.4,12.7-31.1,22.8-47.1c10.1-15.9,20.2-31.8,24.6-46.1l-25,26.1
							c25.7-59.6,28.7-19.2,68-85.1c-26.9,14.6,3.4-6.1,17.7-36.8c-11.7,7.4-31.8,34.8-49.5,56.1c-17.6,21.3-31.2,38.2-33,22.5
							c7.6-19.5,33.9-42.3,59.3-67.3c25.4-25.1,52.8-49.9,62.3-77.1l0,3.5c55.1-55.7,66.4-83.2,83-108.9
							c28.4-18.9,57.1-56.2,84.5-80.7l3.2,5.2c0,0,9.1-9.2,18.9-17.4c9.7-8.4,19.4-16.9,19.4-16.9c-12.7,23.3-47,37.7-79.3,68.2
							l11.6,4.8c-23.9,11.3-37.6,27.8-48.8,44.6c-10.9,17.1-19.4,34.4-29.1,52.1c16.1-23.9,46.2-50.6,70.7-75.1
							c25.6-23.4,46.2-44.3,44.3-57.1c0,0,8.4-3.8,17.1-7c8.7-3.3,17.4-6.5,17.4-6.5l10.7-13.6c26-9.3,12.6,17.2-24.5,50.9
							c-8.4,3.5-12.6,5.3-12.1,1.8c-14.1,19.7-25.9,38.5-67.9,75.9l17.7-25.1c-52.4,47.1-92.9,97.2-101.1,121.9
							c71.3-71.3,145.1-137.1,219-195.6c6-37.6,24.9-68.8,23.3-96.2c49.9-42.8,125.4-91.8,179.2-112.1l-2.3,6.6
							c25.1-11.9,47.6-23.7,65.3-36.1c28.8-7.8-12.2,20.2,7.4,13.9c0,0,5-3.1,12.4-7.7c7.4-4.8,17.4-10.7,27.7-16.3
							c20.4-11.4,40.9-22.8,40.9-22.8c-0.5,6.1-18.6,17.1-40.6,28.7c-22.2,11.3-47.3,25.5-63.7,34c5.8-4,17.6-12,12.9-11.2
							c-41.3,14.9-101.3,71.5-125.3,68.1c-16.4,13.7,30.3-32.9-30.6,5.1c-43.9,20.8-48.8,41.6-50.1,48.4
							c2.4,4.6,66.8-34.5,48.9-14.1c30.6-20.3,38.6-35.8,82.7-53.9c-31.9,18.2-66.6,55.9-88,58.4c-53.7,49.6-27.6,67.4,0,49.3
							c-12.3-3.5,102.8-79.2,17.9-38.7c28.9-32.8,95.2-72.9,141.7-104l-1.2,3.2c0,0,15-8.5,30.1-17c14.9-8.8,30.4-16.3,30.4-16.3
							c-7.7,6.6-25,18.4-22.9,24.2c0,0,4.9-3.6,12.1-9c7.5-5.1,17.5-11.8,27.5-18.6c20.2-13.5,40.3-27.1,40.3-27.1
							c-22.4,16.1-14,14.3,2.9,7.9c17-6.2,43.3-15.7,55.4-18.1c6.1-12.3,38.8-32.4,3.3-24.2c-40.2,8.7-20.2,13.3-54.2,27.5
							l43.2-32.7l4.7-0.3c0,0,6.3-5.7,12.6-11.4c6.3-5.8,12.8-11.2,12.8-11.2c68.3-22.3-20.3,36.1,62.6-4.3L1279,76.4
							c25.4-8.4,53.3-14.9,81.8-20.8c14.2-2.9,28.5-6.2,42.8-8.7c14.4-2.3,28.7-4.5,42.8-6.7c14-2.3,27.8-4.6,41.1-6.8
							c13.4-1.8,26.4-3.6,38.8-5.3c24.7-3.4,46.7-8.5,65.1-12.3c-19.2,11.8-25.5,27.8,3.4,32.7c-16,0.1-39.5,4.6-64.7,8.9
							c-12.6,2.3-25.6,4.6-38.2,7.4c-12.5,3.2-24.6,6.3-35.7,9.2c-4.6-0.4,8.2-8.3,28.4-17c20.3-8.5,48.4-16.3,73.3-19.1
							c-14-10.9-44.7-1.7-72.4,7.8c-27.6,10.4-52.7,20.2-58.8,7.8c-126.5,23.6-84.6,49-191.6,68.6c2.8,11.7-26.5,16.6-27.8,28.5
							c35.6,5,134.1-48.7,203.3-59.8c-6.3,2.7-18.9,8.1-20.9,11c48.3-9.9,67.8-15.5,100.4-28.1l-4.5-0.4
							c56.9-23.2,38.5,1.9,73.9,0.8c13.1-4.9,62.1-7.6,53.1-15.2c0,0,16.2,0.8,32.4,1.6c16.2,0.8,32.2,2,32.2,2l-4.4-13.1
							c36-3.6,44.5,4.7,76.6-5.9l0.8-12.1c0,0-22.6,0.7-45.2,1.3c-11.3,0.3-22.6,0.7-31.1,1c-8.5,0.2-14.1,0.9-14.1,0.9
							c45.3-8.3,11.6-12.7,62-19.3c-55.5,17.6,40.5,3.2,46.5,14.9l36.8-7.7l-9.4,3.4c29.2,5.8,34.5-6.1,68.6-3.8
							c-40-7-66.9-14.5-117.8-3.8c36.8-8.6,111.4-18.2,129.8-17.1c39.7-4.1,67,5.4,103.6,10.1c-35.5-0.3-29.8,9.3-32.9,16.6
							c-3.1,7-14.7,12.4-84.3,6.3c2.6-2.2,13.9-1.4,18.3,0.1c-18.5-16.9-84,1.4-113.7,8.1c8.1,8.6-23.1,11.6,30.2,15.1
							c-17.8-4.6,44.5-22.4,95.4-12.6l-9.3,18.7c0,0,18.3,1,36.5,2.1c18.3,0.7,36.4,3,36.4,3l-6.9,0.4c26.5,14.4,78,2.6,127,17.1
							c37.1-4.2,173.1,29.4,118.1-2.1c41.9,21.7,84.3,14.7,133,26.8c0,0-14.5-6.1-28.9-12.2c-14.4-6.4-29.3-11.4-29.3-11.4
							c75.2,5.6,51.9,8.8,115.6,4.9c4.2,6.9,15.5,15.2,2.4,16.5c95.7,30.2,223.6,92.6,281.9,108.1c31.6,16.1,46,32.4,64.5,47.9
							c18.7,15.5,39.9,32.9,83.6,56c9.5,4.5,8.5-1.4,11.7-3.4c3.2-2.1,10.7-0.4,35.8,21.1c2.7,3.6-59.3-24.9,0.8,16
							c12.6,4.5,24.9,11.6,37.1,20.2c11.9,9,23.6,19.6,35.6,30.5c24.5,21.3,48.5,45.7,78.1,63.1c23.8,26.8,68.6,69,51.6,68.1
							c-37.8-41.5-100.2-90.7-112.8-94.3c10.5-0.6-27.1-29.9,8.8-8.4c-61.7-59-46.8-29.5-105.2-78.3c-6.9,0.9,24.5,32.7,39.8,39.3
							c-8.7,11.8-125.7-79.5-81.6-25.9c64,46.6,103.2,35.7,146.8,92.9c-27.1-10.9-56.8-43.8-94.7-52c0,0,2.6,2.4,6.6,6
							c3.8,3.7,8.9,8.7,14,13.7c10.1,10,20.3,20,20.3,20s9.8,4.1,19.7,8.2c10,4,19.6,8.6,19.6,8.6l-3.3,0.2
							c66.2,76.3,80.6,48.4,151,107.1c-28.8-45.9,28.1-10.3,4.9-43.8c44.7,43,74.1,78,62.1,89.1c-43.1-38.4-48-35.8-51.4-33.3
							c-3.8,2.9-6.6,6-48.8-25.5c7.9,16.1-33-1.4,8.3,43.9c55.9,42.4-4.9-24.2,46.8,22.5c1.8,3.9,3.7,8,0.3,7.8
							c27.1,18.7,22.2,30,54.4,53.4l-8.4-4.9c23.2,42.5,41.1,34,58.5,72.6c-0.5-20.3,24.2,16.3,44.7,33.3
							c-20.5-36.8-20.5-65.7-74.6-130.1c-13.7-1.7-13.6,6.2-39.3-16.6l36.2,40.1c-8.8-7.9-16.4-13-24.8-19.9l-30.3-42.3
							c48,45.3,35.8,16,61.5,31.1c36,49.3,33.6,37.6,55.2,69.4c-11.8,4.5,50.7,108.1,78.8,171.6c-5.2-9.4-13-20.8-16.8-27.3
							c-34.3-37.4,9.2,34.9,6.5,38.5l23.9,28c-4.2-5.5-11.6-12.1-5.6,2.3c26.8,41.2,36.8,32.5,61.7,75.5c-5,6.6-34-25.1-23.6,3.7
							c-0.5,6.1-0.8,18.6,3.3,36.1c3.7,17.8,11,41.1,27.3,69c4.7,2.9,12.6,17.7,20.7,35.4c-1.4-2.4-2.9-5.4-3.8-6.3l8.1,42.7
							c-24.9-29.1-21.2-70.7-48.5-98.6l-12.3,2.2c-11-25.9-33.5-57.3-46.9-69.9c17.7,38.7,24.7,45.1,46.3,87.6
							c-4.3,9.1-23.2-18.9-25.9-22.9l9.2,3.5c-6.6-28.1-19.8-45.4-33.4-64c-13.5-18.8-29.7-37.8-46.3-68.5c-4.8-9.4-0.9-4.3,2.3-3.4
							c-38.3-42.9-55.8-98.1-100.7-133.7l15.5,10.9c-6.5-6.8-14.6-15.3-23.9-24.9c-9.6-9.4-20.8-19.5-32.6-30.6
							c-23.2-22.4-51.7-45.8-79.5-69.1l-3.9,2.7c3.2,7.8-14.4-12.5-23.2-24h0.1c-14.4-11-28.5-21.8-41.9-32.1
							c-13.7-9.7-26.5-18.8-38.1-27.1c4.5,8.3,11,17.9,20.1,27.4c12.2,3.5,53.5,54.3,56.6,39.1c15.5,26.8,54.8,57.1,65.8,77.1
							c-9.8-18.1-3-14.7,7.5-6.4c10.3,8.5,24.2,21.9,29.1,22.6c1.1,7.9,10.6,19.7,18.3,29.8c7.4,10.4,12.9,19.2,7.1,20.2
							c2.4,8.3-5.6-20.8-21.8-30.3c-17.1-13.7-6.8,3,2.7,18.5c9,15.9,16.9,30.8-2.1,12.2c46.1,49.4,90.9,125.7,132.9,181.8
							l-15.6-35.9c15.2,27,49.9,91.7,47.9,98.8c-11.8-19.8-23.3-44.1-39.4-68.7c-10.4,4,32.4,62.5,27.4,68.7c0,0,3.5,4.2,8.9,10.4
							c5,6.5,11.6,15.1,18.3,23.7c13.4,17.5,26.7,35,26.7,35l-14.9-34.6c16.9,18.4,40.1,94.5,56.2,150.3
							c-13.2-13.2-19.8-33.8-28.5-57.6c-8.3-23.9-16.2-51.9-32.4-78.1c-23.9-37.6-3.3,31.3-24-5c0.8,11.4,12.6,35.6,21.6,46.3
							l3.2,16.3c-13.1-14.6-28.7-40.2-44-68.2c-15.4-28-34.2-56.7-51.9-77.9c3.6,3.5,7,6.4,9.2,6.9c-15.2-39.3-36.2-76.8-62.2-108.6
							c7.6,20.8,15.1,26,23,35.8c-2,3-24.4-28.4-35.6-38.4c16.7,34.1-3.6,10.7,7.1,32c-16.5-18.5-25.3-36.3-41.3-61.3
							c-4.3-15.8,13.8,6,18.1-0.7c-21.9-22.3-14.5-45.2-49.4-75.9c34.7,49.3-22.7-2.8-39.1-15.6l5.8,8.2
							c-18.3-9.6-28.6-21.5-31.3-36.4c19.1,15.8,31.1,36.6,33.9,25.4c-10-12.7-21-24.7-35.1-36.7l15.8,8.5c0,0-13.6-14.9-27.1-29.9
							c-13.2-15.2-27.8-29.2-27.8-29.2c-14.5-3.9-37.1-11.6-52.8-11.4c-8.1-18.7-31.9-32.4-46.6-42.9l8.3,3.4
							c-10-14.8-31-33.7-50.7-48.6c-19.3-15.4-37.7-26-42.6-25.2c-3.9-5,4.5-2.9,17.1,1.5c12.5,4.7,28.8,12.4,41.5,17.1
							c25.2,9.9,36.1,7.3-35.1-47.9c-53.9-42-46.5-9.4-82.3-25.5c0,0,3.1-0.6,0.8-3.9c-23.2-18.2-30-13.6-52.1-23.9
							c12.9,12.2,33,27.6,41.7,29.5c-6.3,1.2-18.5-7.7-32-17.9c-13.6-10-29.2-20.2-40.4-23.3c32.1,3.7-44.7-35-21.8-29.1
							c-23.1-18.1-49.2-33.7-74.4-43.3c-25.2-9.5-48.2-15.5-64.1-17.3c-28.4-32.4-63.4-26.9-119.9-57.2c8.9,4.1,26.5,8.2,38.6,15
							c38.4,3-59.8-29.9-3.4-18.8c-11.9-2.8-3,5.3,9.2,8.2c20.8,6.3,41.2,10.8,38.4,3.7c0,0-10.9-8.2-22.4-15
							c-11.4-7.2-22.9-14.4-22.9-14.4l18.3,4.3c0,0-17.6-10.7-35.2-21.3c-8.8-5.4-17.7-10.8-24.6-14.2c-6.8-3.7-11.4-6.1-11.4-6.1
							c-2.9,1.4,3.5,6.6,6.7,9.1c-87-37.9-194.4-56.9-275.6-70.7c-5.1,7-20.2,9.6-41.1,10.3c-20.9,0.8-47.4-2.4-75.8-3
							c-28.3-1.2-58-3.3-85-1.8c-26.9,0.9-50.8,2.4-67.1,8.2c17.4-9.7,27.3-25.8,16.2-32.4c14.8-1.3,45.7-13.1,79.7-9.7
							c5.3,5.1,46.5,14.4,19.3,18.1c93.2,3.4-11.6-14.9,16.6-24.7c-105.1-3.3-166.1,17.2-230,29.7l-1.9-3.6c0,0-12.1,2.7-24.2,5.4
							c-12.1,2.5-24,5.8-24,5.8c20-1.3,29.9,3.6,28.3,7.6c-1.6,4.3-14.5,7.5-40.1,7.9l6-1.7c-14.9-1.9-37.2,1.3-61.4,5.4
							c-24,5.4-49.7,12-72.2,15.4c0,0-7.1,4-14,8.4c-6.9,4.3-13.8,8.6-13.8,8.6c-44.2,9.1-51.1-9.8-68.5-16.7
							c-35,9.4-61.7,19.9-84.4,33.6c-22.8,13.2-42.8,25.8-64.4,40.1c-12,0.6-43.7,9-65.3,16.1c-21.7,6.7-34.7,9.2-10.7-7.3
							c-56.5,34.3-24.6,67.5-132.4,98l20.8-21.4c-45.6,26.7-98.3,63.3-142.2,99.2c-11.1,8.8-21.9,17.3-32.1,25.3
							c-10,8.3-19.4,16.2-28,23.4c-17.4,14.2-32.5,24.8-42.7,31.4c5.3-24-24.3-8.2-60.2,13c-34.7,22.3-75.1,50.3-91.6,47.8
							c8.4,0.7-18.1,31.8-19.6,38.4c-8.8,4-21.3,12.8-27,28.8c16-14,16.7-3.4,18.9,2.1c2.5,5.7,5.3,5.4,28.8-27.2
							c-7.1,21.1-15.6,44.2-29.5,70c-14.6,25.2-32.4,54.9-59.5,88.6l-8.9-8.3l45.4-51.9c-11.6-0.4,12-27.1,18.6-40.7
							c-22.6,23.1-34.1,33.2-40.3,36.6c-6.3,3.3-7.6-0.3-8.8-3.7c-2.2-6.8-4-12.9-44.6,40.5c-1.2,15.2,1,6.5-16.6,36.6
							c9.1-13.5,4.1-20.8-11.3,0.7l-6.8,26c-20.7,14.2-13.7-4.3-3.7-22.1c9.7-18,20.6-36.4,3.2-24.1
							c21.5-48.9,76.7-122.5,54.1-119.2c-59.3,64.6-26.6,78.3-84,147.5l-10.6,4.4c-13.4,29.2-7.2,39.2-11,57
							c-3.9-0.6-11,4.5-21.8,21.6c-13.7,53.4-26.7,86.1-33.2,136.4c11.6-29.8,21.3-50.5,29.9-66.7c9.1-15.9,17.5-27,25.7-38.3
							c16.3-22.8,33.7-44.9,65.6-102.7c-8.3,19.5-54.2,99.7-41.7,113.3l-9.8-7.1c-16.2,39.7-30.2,79.8-56.4,125.9
							c0,0,1.8-8.1,3.6-16.2c2.1-8,4.3-16,4.3-16c-12,33.4-27.4,58.4-41.7,82.3c-12.7,24.5-24.4,47.8-24.4,77.4
							c7.4-18.2,13.5-32.9,16.1-44.9c-9.1,35.4-24.2,78.1-38.4,114.9c0,0-0.8,20.9-1.5,41.9c-0.4,10.4-0.7,20.7-1,28.5
							c0.1,7.8,0.2,13,0.2,13c-5.6-2.2-17.5,47.7-21.2,21.5c-5.5,13.7-9,26-11.1,37.2c-1.6,11.3-1.8,21.4-1.6,30.8
							c0.5,18.8,2.6,34.7,1.6,51.5c-10,28.6-9.8,15.7-9.1-5.6c1.8-21.1,4.7-50.5-3-55c-4.8,20.3-10,40.8-12.8,61.4
							c-2.7,20.5-4.8,40.8-6.3,59.9c-1.6,38.4-0.3,72.4,4,95.9c2.9-16.8,6.2-24.7,8.8-23.7c-4.5,2.2-4.7,35.5-5.1,54l7.5,12.9
							c-6.1,30.6-10.6,26.5-15.8,0c-3.1,29.8,14.2,64.6,3.2,95.4c-5-25.1-7-54-6.3-79.8c0.8-25.8,2-48.5-0.6-61.9
							c2.5,53.2-4.4,79.6-8.7,110.2c-2.3,15.3-5.3,31.5-5.3,52.4c0.4,20.8,1.5,46.4,7.5,79.9c-3.5,2.1-13.7-20.1-10.4,6
							c10.5,60.1,18,13.8,29,31.4c-11.2-45.2-7.8-67.4,0.2-94.7l7.3,11.7c-3,2.1-1.5,30.8-3.4,39.6l13.8,5.9
							c-14.3-2.1-20.4,45.5-9,80.7c4.1-37.8,6-28,20.5-40c10.4,23.9,9.9,38.2,8.7,53.6c-0.6,15.2-2.5,31.8,12,57.6
							c-6-2.9-18.4-51-13.8-8.3c7.4,34.7,17.2,27.6,26,49.7c-17.6-23.1-24.6-14.4-45.1-40c-13.7-62.4-4.6-25.2-21-86l-0.6,54.1
							c-11.5-53.4-20.5-37-25.8-40.7c4.4,95.4,30.7,66.5,40.8,125.7c14.5,26.2-10.9-55.2,7.5-13.1c11,54.8,10.3,10.7,31.8,69.3
							l-8.1-8.5c-1.5,20.3,11.5,36.3,20.1,56.5c11.5,21.4,30.1-37.8,63.5,53.1c-4.9-3.2-7.5-4.1-8.8-3.6c0,0-8.2-3.2-20-8.5
							c-11.8-5.5-27.5-12.9-43.2-20.2c-15.9-7.9-31.8-15.7-43.7-21.6c-12-6.1-19.5-10.5-19.5-10.5
							c30.4,100.7,73.8,214.4,128.7,324.2c-1.2,17.3-16.1,0.5-30.2-20.1c-13.7-20.8-27.5-44.7-29.7-39.4c0,0-5.8-13-10.9-26.3
							c-4.9-13.3-9.9-26.7-9.9-26.7c7.5,0.2,54.6,105,44.7,53c-49.2-86.4-57.9-131.2-104.4-214.8c-9.9,34.8,45.1,116.3,58.3,177.9
							c-9.4-24.3-21-43.2-31.6-62c10.1,27.4,21.8,55.3,33.4,84.4c13.4,28.3,25.7,58.3,41.1,87.9l11.6,10.6
							c-21.1-39.6-32-68.8-33.7-72.4c24.6,54.3,61.1,91,74.7,87.3l-4.7-9.3l14.3,16C467.9,2638.7,474.5,2650.7,481,2662.7z
							 M3428.8,2177.8c0.5,3.8,1.5,6.9,2.9,9.4C3430.1,2184.6,3428.3,2186.6,3428.8,2177.8z M192.5,1562.6
							c-13.9,79.1-20.9,160-23,237.4c6.8-35,15.1-66.9,21.5-91.5c7.3-24.6,14.4-41.9,19.1-47.8c10.6-11.8,9.9,21.3,8.6,134.3
							l2.4,14.8c1-14.8,2.3-34.9,3.4-57.2c1-22.4,0.5-47.1,1.8-71c-3.3-19.6-13-61.6-18.4-99.2c-3.3-18.9-6.3-36.6-8.6-49.4
							c-1.8-12.9-3.4-21-4.2-20.8c-10.7,12.6-4.9,34.5-10.4,59.6L192.5,1562.6z M248,1514.2c10.9-42.9,2.9-34.2-1.4-42
							c-2,15.5-4.1,31-6.1,46.3C242.9,1512.9,245.4,1510.4,248,1514.2z M240.6,1473.8c-1,4.9-2,9.1-3.2,11.1L240.6,1473.8z
							 M294.7,2330.3c-0.8-1.8-1.1-2.5-1.8-4.2c3,10.2,6,20.3,9.2,30.9C301.4,2352.7,299.6,2344.7,294.7,2330.3z M280.6,2240
							l-12.9-7.3c2.3,9.6,4.7,19.3,7.1,29.3C278.4,2257.4,281.4,2252.8,280.6,2240z M259.3,1952.8c-13.8-16.5-18.9-76.7-33.6-79.7
							c-4-3.7-4.4,9.2-4.5,23.6c0.8,16.1,1.8,33.2,2.7,51.5c2.2,0.4,4.2,3.9,6.8,9.7c0.1-18.1,3-30.3,12.3-23.9
							c-15.3,47.6,18.3,39.3,19.1,88.5C274.1,2036.4,265.2,1967.1,259.3,1952.8z M2878.7,518c0.3,1.8,2.1,7.4,5,14.7l-32-16.1
							c-11.8-10.2-22.2-21-32.4-31.4c-10.5-10-20.5-20-30.7-29.3c-20.2-19.1-42.5-34.2-71.1-41.8c-19.7-18.3-27.1-33.5-35-46.8
							c11,7,21.3,13.6,29.2,20.3c74.8,31.6,87.5,51,96.8,66.9c4.6,8.1,8.3,15.8,17.9,25.3C2835.6,489.8,2850.7,501.7,2878.7,518z
							 M2241.5,174.6c6.6,0.6,9.5-1.1,9.5-1.1c-145.2-8.5-259.8-10.1-335.5-14.5c7.1,5.1,27.4,10.8,49.7,16.7
							c22.3,5.8,46.7,9.9,62.2,14.6c0,0-7.3,2.1-14.6,4.1c-7.3,2.4-14.5,4.9-14.5,4.9l-16.6-10.7l-49.2,7.1
							c13.1,9,52.1,10.3,77.4,18.4c2.2-1.5,87-6.6,111.5-8.1c0,0-16.2-5.3-32.6-9.7c-16.5-4.2-33-8.3-33-8.3
							c17.8,4.7,106.8,16.4,142.1,22.1c1-2.7-13-10.3-28.8-14.7c-15.8-4.3-33.1-6.4-38.1-0.7c-5.8-10,64.7,2.5,21.9-14.8
							c27.5-0.6,61.6,7.9,93.6,16.4c31.9,9.1,61,21.6,79.5,28.8l2.1,16c39,19.1,33.3-7.7,79.4,16.9c-60.8-17.5,4.6,18.8-43.2,3.8
							c13.2,10.6-4.6,14.6,42.3,30.2c45.4-2.7,44.3,29.5,86.3,29.8c21.2,16.3-30.2-0.6,15.2,22.8c28.9,7,43.2,9.4,51.5,8.3
							c8.4-1.3,10.9-6.1,15.8-11.6c-23.7-14.9-40.2-16.7-55.2-18.3c-15-1.6-28.7-2.6-48.7-13.4c0,0,22.8,3.5,46,7.2
							c11.6,1.9,23.3,3.8,32,5.2c8.8,1.4,14.4,2.8,14.4,2.8c-13.4-10.9-24.9-15.8-34.7-19.4c17.4,6.2,33.1,9.3,47.2,11.2
							c8.1,1,15.4,2,22.2,3.2c-11.6-6-22.9-11.9-33.4-17.4c-10.6-5.2-20.5-10-29.1-14.2c-17.1-8.7-28.9-15.8-31.5-20.3l9.4-3.4
							c-14.3-14.1-44.9-20-59.7-20.6c-43.9-17.6-92-21.4-98.7-33.8l18.9-0.3c-27.7-8.7-43.5-12.4-60.9-16.7
							C2295.9,189.1,2277.1,182.3,2241.5,174.6z M530,753.8c21.1-5.9,41.2-13.4,70.2-33.6c28.6-20.6,64.3-55.2,121-112.4l-7.9,10
							c17.6-11,32.1-24.6,46.5-38.7c14.6-13.9,28.2-29.1,42.4-44.8c29.1-30.2,60.8-62.2,106.8-83c-33.5,35.4-32.2,33.4-59.6,83
							l35.4-37c-3.1,19.2,33.7-15.7,64.3-36.7L932.1,493c-10.3,4.6-27.7,14.3-41.3,24.2c-13.6,10-24.2,19-22.4,20
							c4.4-4.6-13.7,3-37.4,16c-22.7,14.2-51.5,33.6-67.6,51.8c10.9,4.3,84.7-64.9,62.3-21.5c24.8-32.1,36.8-25.2,66.4-54.2
							c-26.4,30.5,1.6,18.1-16.3,42.6c0,0,12.5-11.1,25.1-22.1c12.4-11.3,25.6-21.6,25.6-21.6c2.6,1-71.5,66.2-20.4,43.2
							c16.5-22.1,79.5-55.6,73.4-66.8l3.4,2.1c43.2-24.6,8.9-26.4,64.6-53.2c-2.6-5.7-14.8-3.2-32.7,9.9
							c-14.2,12.6-12.5,20.4-43.1,43.3c-9.6,1.1-0.2-5.5,8.1-11.7c8.4-6,15.5-12.1-0.2-11.6c-15.8,0.5-79.1,64.4-66.8,33.4
							l42.7-27.2c-6.1-11.1,25.1-30.7,19.1-38.1c24-20.8,55.8-25.2,78.4-49.7c7.7-13.3-19.8-14.5,29.8-35.3
							c11.4-0.8,26.6-5.1,43.7-11.4c16.9-6.6,35.9-14.6,55.1-22.3c37.9-16.7,76.3-33.6,97.3-42.8c0,0,8.7-5.5,17.3-11
							c8.9-5,17.7-10.1,17.7-10.1c-6.1-6.9-71.6,28.3-51,9.8c0,0,14.4-6.5,28.9-12.9c14.7-5.8,29.5-11.5,29.5-11.5l-3.1,5.9
							c20.2-5.5,38.7-17.7,56.3-25.5c-16.4,13.8-60.2,25.6-47.7,34.4c28.7-6.8,34-4.7,59.3-14.3c-5.4,2.5-9.9,5-8.7,6.5
							c58.4-10.9,51.3-29.2,64.7-37.2c27.3-14.8,11.6-15.5-10.5-13c-21.9,2.7-50.4,7.7-48.4,0.5c0,0,10.6-3.5,26.6-8.7
							c8-2.6,17.3-5.6,27.3-8.9c10.1-2.8,20.9-5.7,31.7-8.7c43.1-12.6,87.1-21.6,87.1-21.6c-14.4,6.7-28.7,13.4-22.1,17.4
							c44-2,2.8,9.4,62.8-1.9c-3.5-8.4,15.2-13.6,40.1-18.5c12.5-2.4,26.4-5.1,39.9-7.7c13.5-2.5,26.7-4.7,37.3-8.1
							c20.9,5.5,25,6.6-19.1,10.1c6.1,11.1,64.7,1.2,85.9,2.2c12.1-3.1,32.9-5.2,46.1-8c-17.8-5-10.5-12.6,28.3-17.7l2.3-2.3
							c-31.8-1.2-72.7-4.6-110.6-4.1c-37.9,1-72.9,2.9-92.1,11.8l10.6-6.9c-37.4-0.2-77,9.5-110.9,20c-34.2,9.2-63,18.1-82,11.9
							c1.2-8.8-15,1.5-16.5-10.5c0,0-12.8,5.4-25.7,10.8c-12.6,6-25.2,12-25.2,12l9.6-8.4c0,0-22.3,7-44.6,14.1
							c-22.4,6.6-44.2,15.3-44.2,15.3l1.6-2.9c-19.1,12.3-36.2,23.3-51.5,33.2c-14.6,10.7-27.6,20.1-39.1,28.5
							c1.9,4.9,5.1,5.4-7,14.3c-12.6,7.6-22.6,12.1-31.7,15.7l0,0.1l0,0c-21,7.8-37.7,7.1-64.4,15.8c0,0,19.3-9.1,38.7-18.2
							c9.7-4.5,19.4-9.1,26.6-12.5c7.2-3.5,12.2-5.4,12.2-5.4c3.1-10.7-7.4-17.2-48.6-5.1c15.7-7.5,19.6-16.9-0.5-8.9
							c-1.3,3.1-49.6,28.7-27.6,26.5c-36.3,19.3-86.7,39-139.5,66.6c-26.8,13-53,29.9-79.6,46.8c-25.9,17.9-50.9,38-73.6,59.8
							c33.3-30.6,17.1-22.3,2-14.3c-14.5,8.7-28.4,16.4,11.3-14.6c-33.1,14.3-42.2,27.8-51.3,40.8c-8.8,13.6-17.4,27.3-44.7,50.1
							c-7.9,0,29.6-25,36.6-42.5c-48.3,34.9-82.2,72.9-113.5,111.5c-16.2,18.9-30.8,38.9-46.9,58.7c-16.5,19.5-33.1,39.9-52.4,60.9
							l-11.6-3.5C557.8,713.2,544,733,530,753.8z M414.7,947.3c-9.6,19.7-20.1,39.1-29.3,59.7c1.1-1.9,2.1-3.7,3.3-5.6l-21.8,62.1
							c22.2-33.8,44.7-51,24.7,0.7c-2-6.2-14.5,5.7-8-12.7c-11.9,14.8-27.4,40.5-36.8,61c-9.6,20.4-13.5,35.2-1.3,28.8
							c15-71.7,26.2-6.4,38.8-62.1c-2.7,31.8-19.4,56.6-26.1,84.3c2.9-30.6-21.9-2-42.1,38.2c-5.5,18.7-23.8,67.9-30.2,99.7
							c13.5-7.7,10.2,20.3,29.3-28c-1.8,9.4-4.5,21.3-8.7,34.4c-3.6,13.4-8.6,28.1-15.6,43.2c1.9-13,6.9-35.4,2.9-35
							c-14.9,17.8-21.4,42.2-29.1,54.6c-2.7,10.8-4.2,21.9-6.3,32.6c1.6-2.9,3.4-5.4,5.2-7l0.6,37.8c6.3-48.6,9.7-20.8,15.4-18.8
							c-11.4-4-8.6,30.1-11.9,46.2l20.5-32.2c1.2,9.1-4.5,23.4-8.7,34.8c-3.7,11.4-5.9,19.9,1.1,16.6c9.5-36.6,17.1-61.6,22.1-86.4
							c6-24.5,11.6-48.1,19-81.6l-17.1,23.9c6.8-38.5,16-48.2,24.7-59.2c9.5-10.6,17.8-22.8,33.9-62.8
							c3.4-37.3,50.5-119.4,35.2-128.8c0.3,12.1,38.6-41.1,45.8-70.9c1.1-18.1,13.2-49.7,23.5-73.2c10.7-23.3,18.2-39.5,6.7-28.6
							c-15.5,22.6-25.8,59-46,72.8l23.6-47.7l-25.3,25.7C438.7,949.8,430.3,946.8,414.7,947.3z M119,2134.4c0,0.6,0.1,1.5,0.2,2.2
							l-0.4-2.4L119,2134.4z"/>
						<path fill="#CCCC65" d="M3384.5,1124.1c10.8,12.4,23.5,49.1,29.2,38.7c-4.4,2.2-11.1-13.8-16.9-27.2
							C3390.4,1122.3,3384.8,1111.7,3384.5,1124.1z"/>
						<path fill="#CCCC65" d="M3393.3,1170.4c3.2,1.7,5.9-1.5,12.6,14.5l-19.8-43.4L3393.3,1170.4z"/>
						<path fill="#CCCC65" d="M3348.6,1238.1c14.5,19.7,23.1,32.7,34.4,68.1c-18.2,20.3-25.7-55.5-52-63.6
							c9.9,31.9,21.1,51.2,32.6,69c10.9,18,21.3,34.9,30,61.5c0.6-14.4-4-49.8-14.1-80.3C3369.5,1262.3,3357.4,1235.9,3348.6,1238.1
							z"/>
						<path fill="#CCCC65" d="M3309.6,1221.1c0,0,4.6,8.1,9.3,16.2c4.8,8.1,9,16.4,9,16.4l0.1-3.9c0,0-4.5-8.2-9.2-16.4
							c-4.6-8.1-9.3-16.3-9.3-16.3L3309.6,1221.1z"/>
						<path fill="#CCCC65" d="M2977.5,420.7c1.8-8.1-23.4-18.6-35.4-25.8C2950.8,402.3,2962,413.6,2977.5,420.7z"/>
						<path fill="#CCCC65" d="M3125,3029.8c0,0,13.5-14.8,33.7-37c19.7-22.6,45.4-53.3,70-84.7c24.1-31.9,48.1-63.7,64.4-88.9
							c16.8-24.8,27.8-41.3,27.8-41.3C3270.1,2854.2,3220.7,2923.5,3125,3029.8z"/>
						<path fill="#CCCC65" d="M2009.7,71.3c41.8,0.2,72.2,0.2,103.1-0.7c30.6,1.2,61.9,1.6,104.3,9.1
							c-26.7-10.2-50.1-13.7-70.7-16.4c-20.7-2.6-39-2.7-56.8-1.7c-35.5,1.2-68.1,2.5-114.6-8L2009.7,71.3z"/>
						<path fill="#CCCC65" d="M2045.4,15.4c12.5,14.7-67.4,10.2-55.8,21.7c57.3,1.1,27.9-11.6,79.5-4.1L2045.4,15.4z"/>
						<polygon fill="#CCCC65" points="2350.9,318.8 2327.1,318.4 2345.2,321.7 						"/>
						<polygon fill="#CCCC65" points="1655.4,27.6 1664.4,23.2 1621.3,24.2 						"/>
						<path fill="#CCCC65" d="M1673.5,19.1l-9.1,4.1L1673.5,19.1z"/>
						<polygon fill="#CCCC65" points="2314.1,337.9 2344.5,351.4 2362.1,350.6 						"/>
						<path fill="#CCCC65" d="M2037.6,201.8l31.5-0.5C2062.9,201.4,2021.2,190.3,2037.6,201.8z"/>
						<polygon fill="#CCCC65" points="1396.5,69.2 1357.5,85.8 1362,86 1400.9,69.4 						"/>
						<path fill="#CCCC65" d="M1795.9,230.2c21.2,10-60.2,4.7-16.9,12.8C1817.1,240.4,1801.5,235.2,1795.9,230.2z"/>
						<path fill="#CCCC65" d="M1336,238.7c-4.9,1.7-10,3.8-14.6,6.6C1327.2,242.9,1332,240.7,1336,238.7z"/>
						<path fill="#CCCC65" d="M1336,238.7c15.9-5.5,33.1-6.9,43.3-12.8C1357.7,226.8,1351.1,231.7,1336,238.7z"/>
						<path fill="#CCCC65" d="M1158,312.2l14.2-5.6c-11.9,11.2-5.6,7.5,5.3-2.1c14.5-7,12.4-9.7,13.2-12.6c2.4-2.6,4.8-5.1,7.4-7.9
							c-3.9,3.4-7.5,6.4-10.6,9C1164.6,303.2,1150.9,310,1158,312.2z"/>
						<path fill="#CCCC65" d="M457.4,629.9c43.9-44.7,55.9-55.4,59.9-47.3c42.3-41,25.7-44.1,48-72.4c-22.6,24.8-37,39.1-52.3,54.7
							C497.9,580.7,482.6,598.7,457.4,629.9z"/>
						<path fill="#CCCC65" d="M565.3,510.2c5.1-5.6,10.3-10.5,16.3-16.8C574.5,500.1,569.3,505.2,565.3,510.2z"/>
						<path fill="#CCCC65" d="M1394.5,317.9c0,0-6.9,5.5-13.7,11.2c-6.8,5.7-13.5,11.3-13.5,11.3l10.8-5.5c0,0,4.1-4.3,8.2-8.6
							C1390.3,322,1394.5,317.9,1394.5,317.9z"/>
						<path fill="#CCCC65" d="M396.4,700.1c7.6-8.8,18.8-23.7,26.7-29.1C418.6,663.2,388.8,708.9,396.4,700.1z"/>
						<path fill="#CCCC65" d="M670.6,631.6c7.2-1,31.5-28.3,43.6-37C698.3,608.6,674.2,609.2,670.6,631.6z"/>
						<path fill="#CCCC65" d="M325.2,866.8c6.4-9.5,20.7-21.1,22.5-11.1C353.1,839.7,352.7,812.8,325.2,866.8z"/>
						<path fill="#CCCC65" d="M599,707.4l7.5-4.3c0,0,5.4-8.3,10.8-16.5c5.3-8.4,11-16.3,11-16.3s-7.6,9-14.8,18.5
							C606.2,698,599,707.4,599,707.4z"/>
						<path fill="#CCCC65" d="M780.3,694c22.8-35.6-64.1,28-18.6-27.1c-72.7,57.8,14.3,4.4-33.9,51.9
							C757.3,692.1,780.5,688.4,780.3,694z"/>
						<path fill="#CCCC65" d="M727.9,718.8c-4.3,3.8-8.9,8.1-13.6,13C719.8,726.6,724.1,722.5,727.9,718.8z"/>
						<path fill="#CCCC65" d="M355.9,1178.4c1.3-6.2,1.8-10.6,2.2-14.7C357,1168.5,356.3,1173.3,355.9,1178.4z"/>
						<path fill="#CCCC65" d="M597,889.4c0,0,5.9-14.7,11.9-29.5c6.6-14.4,13.2-28.9,13.2-28.9c-19.1,37.7-76.9,123.5-60.3,126.4
							c19.7-26.8,40.7-60.7,44.8-78.2L597,889.4z"/>
						<path fill="#CCCC65" d="M62.6,1490l-0.3-31.8l-8.6,38.2C57.9,1485.8,65.1,1507.4,62.6,1490z"/>
						<path fill="#CCCC65" d="M52.1,1503.8l1.6-7.4C53.1,1498,52.5,1500.4,52.1,1503.8z"/>
						<path fill="#CCCC65" d="M399.7,1064.6c10.5-18.1,17.6-33.1,24.1-51.2C417.6,1018.9,391.6,1064.2,399.7,1064.6z"/>
						<path fill="#CCCC65" d="M61.4,1709c0,0-0.5-12.7,0-25.4c0.3-12.7,0.6-25.4,0.6-25.4s-0.8,13.9-1.5,27.7
							c-0.5,6.9-0.7,13.9-0.6,19.1c0,5.2,0,8.7,0,8.7L61.4,1709z"/>
						<path fill="#CCCC65" d="M41.5,1948l-2.1,9.1c0,0,1.9,10.6,4.5,21c2.6,10.5,5.3,20.9,5.3,20.9l1.7-9.3c0,0-2.9-10.4-5.1-20.8
							C43.6,1958.4,41.5,1948,41.5,1948z"/>
						<path fill="#CCCC65" d="M332.6,1658.7c3.2-29.1-6.2-53.3-10.2-46c0,0-0.4,3.6-1.1,8.9c-0.7,5.3-1.4,12.5-1.8,19.6
							c-0.9,14.3-1.9,28.7-1.9,28.7c13-13.6,0.3-15.9,6.8-48.7c0,0,1.4,9.4,3.8,18.8C330.4,1649.3,332.6,1658.7,332.6,1658.7z"/>
						<path fill="#CCCC65" d="M991.2,3363c-16.7-0.7-78.5-40.9-77.4-49.7c9.8,2.9,45.8,19.4,26.7,3.2c0,0-15.1-2.8-29.6-6.7
							c-14.7-3.7-29.5-7.5-29.5-7.5c-58-51.8,62.2,11.4,98.7,22.2c-33-20.1-55.8-30.7-78.8-42.5c-23.2-11.4-47.4-22.8-80.8-47.3
							c19,15.4,28.5,28.7,37.3,39c-2.7,6.6-19.3-2.4-40.6-17.4c-21.5-14.7-48-35-69.9-52.2c24.3,26.5,5.3,17.9-18.5,5.9
							c-3.9-2.6-6.9-3.9-9.2-4.6c-2.8-1.4-5.4-2.7-8.2-4l5.3,4.2c-1.3,0.9-1.3,3.2,1,8.2c39.2,26.7,62.1,56.5,87.1,74.3
							c-5.8-18,15.4-3,44.1,16c28.6,19.2,63.4,44.7,82.1,50.8l39.4,20.1l14.4,8.1c1.8,3.7-3.8,4.2-27.8-4.7
							c19.9,7.7,82.3,40.1,79.5,31.1c0,0,8.9,4.5,22.3,11.3c13.5,6.5,31.8,14.5,50,22.8c18.2,8.2,36.4,16.6,50.5,21.7
							c13.9,5.5,23.3,9.1,23.3,9.1c4.3,2.7,8.5,5.5,11.4,8.4c5.7,0.8,6.9,0,6.6-1.3c0,0,10.2,3.9,27.9,10.8
							c18.1,6.1,43.9,14.7,74.8,25.2c62.5,18.8,146.7,42.1,232.7,55.8c42.7,8.5,86.1,12.3,126.5,17.7c40.6,2.9,78.5,6.7,111.1,7.4
							c32.6,0.7,59.7,1.2,78.7,1.6c19-0.5,29.8-0.8,29.8-0.8c-34.3-0.3-63.9-6.8-98.9-10c53.1-13-57.4-4.2-41.2-18.2
							c23.7-2.9,57.9-1.5,78.4,2.7c7.7-6.8-21.3-13.7-17.6-21.9c-42.5-4.9-67.2-1-92.2,3.6c-24.9,4.9-50.1,10.1-91.7,1.8
							c4.4-7.9,31-11.8-23.6-17.6h14.1c-44.3-0.4-60.2-9.8-72.5-14.5c-12.3-5.4-20.7-7.9-50.2-2.1l3.9-11.5
							c-20.2,0-49.3-4.3-78.7-9.8c-29.2-6.3-58.4-14.5-79.7-19.6l3.2-1.5c-120.7-25.6-67.1-16.5-197-63.4c0,0,4,0.8,9.9,2.1
							c5.9,1.3,13.9,2.9,22,4c16,2.6,32.1,5.1,32.1,5.1c-41.9-22.4-57.3-13.3-87.9-28.8c3.2-1.1-0.3-12.4,29.7-1.2
							c0,0-10-3.1-25-7.6c-15-4.7-35.3-10.3-54.9-17.8c-19.8-7.1-39.7-14.3-54.5-19.7c-15-5.4-24.5-9.7-24.5-9.7
							C946.1,3331.5,988.1,3355.3,991.2,3363z"/>
						<path fill="#CCCC65" d="M820.5,3234.6c-6.8-5.7-14.9-11.7-24.8-18.2C804.8,3223.3,812.8,3229.1,820.5,3234.6z"/>
						<path fill="#CCCC65" d="M1931,3597.9l-48.8,1.4C1897.4,3599.6,1913.2,3599.4,1931,3597.9z"/>
						<path fill="#CCCC65" d="M617,3101.9c17.1,24.9-22-8.9-28.9-9.2c0,0,19.3,18.3,38.6,36.6c20,17.4,40.1,34.8,40.1,34.8
							c2.7-3.8,14-0.9,15.1-5.5c0,0-16.4-13.9-32.9-27.9c-8.3-6.8-16.3-14.1-22.1-19.7C620.9,3105.5,617,3101.9,617,3101.9z"/>
						<path fill="#CCCC65" d="M684.4,3190.9c4.7,0,15.4,4.7,27,10.4c0,0-11.7-8.7-22.7-18.2c-11-9.5-22.1-19-22.1-19
							C664.7,3167,667.5,3173.7,684.4,3190.9z"/>
						<path fill="#CCCC65" d="M835.2,2994.2l12.6,10.3l21.7,12.5c0,0-8.7-5.5-17.4-11.1C843.4,3000.3,835.2,2994.2,835.2,2994.2z"/>
						<path fill="#CCCC65" d="M1032.7,3159.8c-13.7-15.6-47.4-32-59.2-37.1C1010.2,3145.6,992.6,3138.6,1032.7,3159.8z"/>
						<polygon fill="#CCCC65" points="1028.2,3068.2 1063.7,3086.2 1061.2,3083 						"/>
						<path fill="#CCCC65" d="M2276.5,3500.1c7.3-1.9,14.4-3.7,21.6-6.3C2288.3,3496.7,2281.7,3498.3,2276.5,3500.1z"/>
						<path fill="#CCCC65" d="M1885.7,3563.1c111.3,10.7-72.4,13.1-37.7,29.4l60.9-7.2l-5,4.8c0,0,18.6-0.9,37.2-1.7
							c18.5-1.8,37.1-3.5,37.1-3.5c-15.8-6.8-27.1-6.4-24.3-15c98.5-4.7,31.7,8.8,105.2,11.2c0,0,27.6-3.9,55.1-7.8
							c27.5-4.3,54.7-10,54.7-10l-8.4,4c9.2-1.8,13.1-3.6,16-5.5c0,0,92.4-17.1,181.7-45.9c22.6-6.3,44.6-14.3,65.3-21.6
							c20.6-7.6,40.2-13.6,56.3-20.6c32.5-13.3,54.1-22.2,54.1-22.2c60.2-31.8-40.3,0.3,1.1-29.8c-71.8,30.5-184,57.4-186,73.9
							c1.9-2.9,5.5-8.7-10.2-6.3l-39.7,25.5l42.7-7.6c-10,6.3-26.5,13.6-46.1,20.5c-19.8,6.2-42.7,12.1-65.2,17.2
							c-45,9.9-88.8,13.4-102.5,11.9c81.7-20,37.5-25.8,152.4-43.4c-6.1-2.9-28.4-5.4-3.7-13.4
							C2146.1,3536.7,2025.2,3545.5,1885.7,3563.1z"/>
						<path fill="#CCCC65" d="M3101.2,3035.9l0.3,1.8C3102.7,3035.3,3102.8,3034.3,3101.2,3035.9z"/>
						<path fill="#CCCC65" d="M3067.1,3065.8c0,0-9.1,14.3-18.3,28.7c-9.1,14.5-19.2,28.1-19.2,28.1s19.5-16.9,37.7-35.3
							c18.5-18.1,36.9-36.2,36.9-36.2l-2.7-13.3c-4.3,8.4-26.6,37.5-39.7,43.9L3067.1,3065.8z"/>
						<path fill="#CCCC65" d="M2977.1,3180.1c38.5-37.9,26.6-46.8,1.1-32.4c32.7-36.5,28.9-5.9,44.9-38.5
							c-7.4-6.7-48.4,37.2-58.3,46.9L2977.1,3180.1z"/>
						<polygon fill="#CCCC65" points="2641.1,3387.6 2652,3375.7 2618.4,3391.2 						"/>
						<path fill="#CCCC65" d="M2652,3375.7l33.4-15.4c-4.2-2.5-8.3-4.9-15-4.7L2652,3375.7z"/>
						<path fill="#CCCC65" d="M2771.2,3316.2c13.8-7.2,28.7-16.1,46.6-27.1c0,0-11.6,6.8-23.2,13.6
							C2782.9,3309.6,2771.2,3316.2,2771.2,3316.2z"/>
						<path fill="#CCCC65" d="M2733.1,3334.2l1.9,0.9l36.2-18.9C2757.6,3322.6,2745.4,3328.4,2733.1,3334.2z"/>
						<path fill="#CCCC65" d="M2685.4,3360.3c9.8,5.7,20.9,11.4,66-17.9l-16.4-7.3c0,0-12.4,6.4-24.7,12.9
							C2698.1,3354.7,2685.4,3360.3,2685.4,3360.3z"/>
						<polygon fill="#CCCC65" points="1279.1,3213.4 1314.6,3221.8 1311.6,3219 1276.1,3210.7 						"/>
						<path fill="#CCCC65" d="M1475.4,3286c9.2,0.4,16.2,0.2,22.6-0.1C1488.6,3284.8,1480.9,3284.7,1475.4,3286z"/>
						<path fill="#CCCC65" d="M1637.7,3252.1c39.7,14.5-58.4,5.3,17.1,19c5.8,9.2-32.1,17.4-67.4,5.8c4.3-7.7,35.8,1,15.2-11.3
							c-25.3,5.2-33.3-2.8-27.2,11c-41.8,0.9-48,7.5-77.3,9.3c49.3,7.9,152.3,36.8,217.4,25.8c36-12.4,16.3-34.5,18.3-56.2
							c-2.3-3.1-25.2-5.6-47.9-8.2C1663.2,3245,1640.4,3245.2,1637.7,3252.1z"/>
						<path fill="#CCCC65" d="M1578.1,3220.1c-18.2-4.3-24-4.3-35.5-5.3C1543.9,3223,1563.1,3218.1,1578.1,3220.1z"/>
						<path fill="#CCCC65" d="M2024.1,3399.9c3.7-3.6,40.4-12.1,31.7-16.4c0,0-13.9,2.8-27.9,5.5c-13.9,3.1-28,4.8-28,4.8
							C2013.3,3393.5,2018.3,3396.6,2024.1,3399.9z"/>
						<path fill="#CCCC65" d="M1975.2,3397.4l24.7-3.6C1993.7,3394,1986,3395.1,1975.2,3397.4z"/>
						<path fill="#CCCC65" d="M2027,3401.5c-1-0.5-1.9-1-2.9-1.6C2023.4,3400.7,2023.6,3401.3,2027,3401.5z"/>
						<path fill="#CCCC65" d="M2901.2,3235.9c2.8,5.3,23.8-13.7,33.5-24.1C2925.5,3218.7,2911.4,3226.6,2901.2,3235.9z"/>
						<path fill="#CCCC65" d="M3507.7,2396.8l12.4-21.6C3514.7,2382.4,3512,2386.2,3507.7,2396.8z"/>
						<path fill="#CCCC65" d="M3436.8,2008.8c-1.1-0.8-1.8-2.6-2.5-4.9C3434.8,2006.2,3435.6,2007.8,3436.8,2008.8z"/>
						<path fill="#CCCC65" d="M3434.4,2003.9c-3-15.6,10.9-61.2,3.8-78.7l2.1,2.3l-2.1-31.5c-0.9,14.6-2.3,37.2-3.6,58.3
							C3432.8,1975.3,3431.9,1995,3434.4,2003.9z"/>
					</g>
				</g>
			</g>
		</g>
	</g>
</g>
<g>
	<g>
		
			<image overflow="visible" opacity="0.75" enable-background="new    " width="391" height="624" xlink:href="3C956524227197E.png"  transform="matrix(4.5572 0 0 4.5585 991.2488 473.7927)">
		</image>
		<g>
			<g>
				<g id="YoI1sJ.tif_9_">
					<g>
						<path fill="#1C75BC" stroke="#1C75BC" stroke-width="8.170000e-02" stroke-miterlimit="10" d="M1147.9,1474.7
							c0-15.6,0.1-31.1,0.1-46.7c0.1-34.4,0.5-68.9,0.1-103.3c-0.1-8.4,2.5-10.3,10.5-10.3c100.9,0.3,201.7,0.2,302.6,0.2
							c3.7,0,7.4-0.2,11.1-0.4c0.5-0.8,1.1-0.9,1.8-0.2c3.1-2.8,1.5-6.4,1.5-9.6c0.2-77.7,0.1-155.4,0.3-233.1
							c0.1-35.9,6.3-71,14.7-105.8c1-13,5.1-25.2,9.5-37.3c18.7-51.2,45.3-98,80.4-139.8c35.9-42.8,78.4-77.7,127.1-105.1
							c52.6-29.6,109-47.9,168.8-55.4c5.8-0.7,11.7-0.2,17.5,0.2c146.7-0.1,293.4-0.3,440.1-0.4c15.1,0,13.2-1.8,13.2,13.5
							c0.1,120.6-0.1,241.2,0.3,361.8c0,9.3-2.1,12-11.7,11.9c-59.7-0.5-119.4-1.2-179,0c-70.9,1.5-123,34.6-155.2,97.9
							c-10.4,20.4-15.6,42.5-15.9,65.5c1.4,14.8,0.5,29.6,0.6,44.4c0.2,27.5,0,55,0.1,82.5c0,3-0.8,6.2,0.9,9.1
							c54.7,0,109.5,0,164.2,0c5.2-1.7,10.5-0.7,15.7-0.8c28.3-0.1,56.5,0,84.8-0.1c26-0.1,52-3.4,78.1-2.1
							c3.4,0.2,6.8,0.1,10.2,0.3c6.4,0.4,9.5,3.7,9.5,10.2c0.1,8.7,0,17.4,0.1,26.1c-0.1,113.1,0,226.1-0.1,339.2
							c0,5.2,1.1,10.6-1.9,15.5c-4.7,3.6-10.1,2.4-15.3,2.4c-110,0.1-220,0-330.1,0.1c-4.5,0-9.4-1.5-13.2,2.4
							c-1.8,3.9-1.2,8-1.2,11.9c0,74.5-0.1,149.1,0,223.6c0.9,165.3-3,330.6-1.8,495.9c0,148.1,0,296.1,0,444.2c0,3.6,1,7.4-0.9,11
							c-4,0.1-8.1,0.4-12.1,0.4c-161.6,0-323.2,0-484.8,0c-14.2,0-12.5,1.8-12.5-12.3c0-389.1,0-778.2,0-1167.4
							c0-13.8,1.9-12.2-12.6-12.2c-101.3,0-202.6,0-304-0.1c-3.7,0-7.4-0.5-11.1-0.8c-0.1-8.5-0.2-17-0.3-25.5c-3.5-3.5-3-8-3-12.3
							c-0.2-58.6,0-117.2,0-175.8C1144.9,1483.3,1145.1,1478.7,1147.9,1474.7z"/>
					</g>
				</g>
			</g>
		</g>
	</g>
</g>
</svg>
