<?xml version="1.0" encoding="utf-8"?>
<!-- Generator: Adobe Illustrator 17.1.0, SVG Export Plug-In . SVG Version: 6.00 Build 0)  -->
<!DOCTYPE svg PUBLIC "-//W3C//DTD SVG 1.1//EN" "http://www.w3.org/Graphics/SVG/1.1/DTD/svg11.dtd">
<svg version="1.1" id="Layer_1" xmlns="http://www.w3.org/2000/svg" xmlns:xlink="http://www.w3.org/1999/xlink" x="0px" y="0px"
	 viewBox="0 0 3600 3600" enable-background="new 0 0 3600 3600" xml:space="preserve">
<g>
	<circle fill="#FFFFFF" cx="1763" cy="1714.6" r="1339.1"/>
	<g>
		<g>
			<g>
				<g>
					<g>
						<path fill="#FFFFFF" d="M3197.2,1534.9c3.8,19.4,0,37.2-3.4,30.2c11.9,38.8,4.3,40.5,18.2,44.4c8.6,25.3,1.5,53.4-6.2,24.6
							c0,0,3.5,18.4,7,36.7c3.2,18.4,5.4,37,5.4,37s0.2-11.2,0.5-22.3c0.5-11.2-0.2-22.3-0.2-22.3c12.9,11.6-1.2,71.4,12.6,85.4
							c0,0-0.8-20.3-1.6-40.6c-0.4-10.2-0.8-20.3-1.1-27.9s-0.9-12.7-0.9-12.7l4,3.8c-5.4-18.3-6.4-54.2-5.9-66.9
							c2.1,1.8,4.9,0.2,6.4,14.6c-4.4-49.2-11.1-55.1-16.8-58.8c-6.5-3.7-11.3-5.5-20.4-44.8
							C3195.8,1520.1,3196.7,1526.3,3197.2,1534.9z"/>
						<path fill="#FFFFFF" d="M3208.9,1448.1l-21.5-30.3c0,0-0.6-3.6-1.5-8.9c-0.8-5.3-2-12.4-3.7-19.4c-3.1-14.1-6.1-28.1-6.1-28.1
							c-4.9,0.7-20-38.2-16.5-9.9c2.2,5.1,6.6,15.1,8.6,23.7c-6-1.7-12.4-19.5-18-34.4c-6.1-14.9-11.8-26.7-14.1-17.2
							c16.5,41.6,15,49.1,31.1,73.4c8.6,40.3,13.6,69.9,12.7,89.5c3.7,11.7,10.4,12.2,14.4,27.3c-0.7-3.4-1.4-6.5-2.3-10.3l15.3-4.5
							c-5.7-12.3-5.9-24.8-9.4-38.9c0,0,2.3,3.8,5,9.7c2.8,5.9,6.6,13.8,10.3,21.6c7.6,15.9,15.1,31.8,15.1,31.8
							c5.4-12,3-34.3-0.6-57c-4.2-22.6-10.5-45.3-10.4-59.2C3211.9,1442.3,3205,1382.7,3208.9,1448.1z"/>
						<path fill="#FFFFFF" d="M3194.3,1513.5c0.1,0.4,0.2,1.1,0.3,1.6C3194.5,1514.7,3194.4,1514,3194.3,1513.5z"/>
						<path fill="#FFFFFF" d="M770.5,2494.4c7.9,10.6,13.2,11.6,15.8,12c0,0-5.4-7.5-13.4-18.8c-4-5.7-8.7-12.2-13.8-19.3
							c-4.7-7.3-9.7-15.1-14.7-22.9c-10-15.6-20.2-31-26.9-43.2c-6.9-12-11.6-20-11.6-20c-1.4,6,15.6,45.9-0.8,22.3
							c1.9,13.8,26.6,44.7,34.4,46.3l-11.2-5.7c25,24.7,25.5,52.8,8.7,37l1.7,2.4c0,0,20.3,15,40.6,30c9.9,7.5,20.4,14.4,28.2,19.5
							s13,8.6,13,8.6C800.6,2514.3,795.1,2528.5,770.5,2494.4z"/>
						<path fill="#FFFFFF" d="M3119.6,1967.5c-2,19.4-0.9,22.1,1,20.2C3120.6,1980.6,3120.5,1973.8,3119.6,1967.5z"/>
						<path fill="#FFFFFF" d="M839.7,2555.2c0,0,6.4,4.3,13.1,8.1c6.6,3.9,13.3,7.8,13.3,7.8C856.6,2564,846.8,2558.7,839.7,2555.2z
							"/>
						<path fill="#FFFFFF" d="M595.5,2463.3c-0.5,0.2-1.1,0.1-1.2,1.2l11.6,10.2c-0.1-0.2-0.2-0.3-0.2-0.3
							C602,2470.4,598.6,2466.7,595.5,2463.3z"/>
						<path fill="#FFFFFF" d="M1385.8,2905.9c2.9,0.9,5.4,1.7,8.9,2.8C1391.6,2907.5,1388.6,2906.6,1385.8,2905.9z"/>
						<path fill="#FFFFFF" d="M380.9,2063.4c0,0,6.5,17.9,13.1,35.8c6.2,17.9,13.9,35.3,13.9,35.3c-7-8.5,4.2,26.2-5.2,12.3
							c2.3,5.4,11.3,30.8,11.5,23.1l-4.5-14.7c23.5,34.4,20.8,10.4,50.9,68.6c-2.8-20.3-7.2-33.9-12.5-44.9
							c-4.8-11.1-10.6-19.5-16.3-29c-2.8-6.7-4.9-12.4-7-18.2c0,0-2.2-3.4-5.4-8.6c-3.3-5.1-7.5-12-11.4-19.1
							c-7.9-14.1-15.9-28.3-15.9-28.3L380.9,2063.4z"/>
						<path fill="#FFFFFF" d="M2710.2,2815l0.1,1.3C2710.6,2815.5,2710.5,2815.2,2710.2,2815z"/>
						<path fill="#FFFFFF" d="M2710.6,2821.4l-0.3-5.2C2708.7,2820.3,2698.5,2830.8,2710.6,2821.4z"/>
						<path fill="#FFFFFF" d="M826.5,2552c2.4-0.8,7.1,0.3,13.2,3.2l-19.3-12.6C822.3,2545.1,824.4,2548.6,826.5,2552z"/>
						<path fill="#FFFFFF" d="M772.9,2529.4l-34.3-45l-16.9-13.8C735.1,2487.8,752.1,2507,772.9,2529.4z"/>
						<path fill="#FFFFFF" d="M1311.5,2866.3c101,43.3-31,2.9,13.7,27.1c28.8,11.3,42.2,7.4,60.6,12.6
							c-41.9-13.2-36.8-17.6-31.7-22.4c5.1-4.9,9.8-9.2-30.4-25.5c8.4-3.6,23.8,0,40.7,5.3c17,5,35.1,12.8,48,19.9
							c13.5,11.2,5.9,11.3-6.6,9.2c-12.3-2.4-29.5-6.8-35.3-2.4c33.5,10.8,28.4,6.9,44.8,5c25.5,10,53.3,16,78.5,20.3
							c12.5,2.4,24.2,5.4,34.5,8.8c10.4,3.2,19.4,7.4,26.4,13.6c39.2,6.5,38-1.1,61.4-3.4c3.4-6.3-10.6-10.6-26.8-14.9
							c-16.1-5-34.5-10.5-40.2-17.2c2.6,1.8,7.7,5.3,5.7,6.8c0,0-8-2.6-16-5.1c-8-2.4-15.8-5.5-15.8-5.5
							c29.5,12.8-7.7,12.2-24.5,8.2c-12.1-3.1-36.2-9.3-31.7-12.1c0,0,4.7,0.9,9.4,1.4c4.7,0.6,9.5,1.2,9.5,1.2
							c-11.1-5.1-24.4-7.1-37.9-9.5c-13.4-2.5-27.2-4.9-37.9-13c-0.2-3.3,9.3-1.1,11.4-2.6c-29.8-1.8-55.9-11.4-97.3-23.7l28-2.1
							c-37.3,0.7-105.5-38.3-146.8-72.8c3.9,5,12.4,11.6,5.5,10.7c-28.7-13.6-43.3-34.7-27.4-32.6c-7.8-1.9-17.9-6.8-28.4-14.4
							c-10.5-7.7-22-17.2-33.8-26.7c-11.9-9.4-23.2-20.3-34.7-28.7c-11.6-8.5-22.6-15.7-32.7-19.9c0,0-11.9-4.6-29.7-11.6
							c-18.1-6.9-41-18.1-65-28.8c-23-11.7-46.7-23.7-64.1-33.4c-17.2-10.1-28.6-16.8-28.6-16.8c6.3,4.6,12.6,9.8,18.5,15.7
							c3.3,21.6,11.1,28.5-18.7,11.3c25.5,20.2,25,4.1,57.9,38.5c-16.9-9.5-30.8-3.3,1,30.6c23,17.9,44.9,33.2,67.5,45.3
							c21.9,12.9,44,22.9,66,32.3c43.7,19,87.9,33.4,135.9,53.3c-0.7,4.8,16.9,16.8,38.8,30.3c22.2,13,49.2,26.6,66.6,36.1
							c-17.9,2.5-45.6-8.6-73.7-21.4c16.7,9.8,46.2,25.4,68.3,36.4L1311.5,2866.3z"/>
						<path fill="#FFFFFF" d="M1072.7,2759.5c1.8,2.3,3.9,4.4,6.1,6.5C1078,2764.4,1076.2,2762.4,1072.7,2759.5z"/>
						<path fill="#FFFFFF" d="M1218,2838.2c-0.5,0.1-0.5,0.4-0.8,0.7c2.9,1.4,5.8,2.8,8.8,4.3
							C1223.2,2841.4,1220,2839.4,1218,2838.2z"/>
						<path fill="#FFFFFF" d="M827.9,2586.2c-6.6-3.6-10.5-7-16.8-10.9c3.3,2.9,7.3,6.5,11.3,10
							C826.5,2588.2,829,2589.2,827.9,2586.2z"/>
						<path fill="#FFFFFF" d="M825.4,2558l5.2,0.5c-1.6-2.5-2.7-4.3-4.1-6.5C824.4,2552.6,823.7,2554.3,825.4,2558z"/>
						<path fill="#FFFFFF" d="M1706.8,3056.3l11.4-1.1C1711.4,3054.8,1708.5,3055.4,1706.8,3056.3z"/>
						<path fill="#FFFFFF" d="M1419.7,2926.5c-36.9-11.7-9.1,11.9-60.6-8.1l14.8,6.7c-39.6-7.9-102-40.2-143.9-61.9
							c7-2-21.8-19.7-12.9-24.4c-14.3-7.2-28.7-14.1-41.6-19.8c-12.7-6-24.3-10.3-33.6-11.2c-15.5-12.6-44.3-24.4-63.1-42
							c5.8,10.4-40-7.3,14.6,23.8c-4.5-2.4-2.6,0.4-7.1-1.9c28.6,29.7,49.6,27.5,78.5,46.2c14.9,15.5-32.8-11.5-17.4,0.8
							c19.2,10.3,48.5,27.7,73.2,41.7c25.4,12.6,46.3,21.1,49.1,12c28.7,12.5,31.2,17.5,38.3,24.7c13.4,0.7,30.2,6.1,48.7,12.5
							c18.4,6.7,37.8,15.7,56.6,22.3c37,14.8,69.4,23.9,72.5,11.6c-8.7-2.1-20.2-4.9-32.7-7.9c-12.4-3.5-25.9-6.8-39.4-8.4
							L1419.7,2926.5z"/>
						<path fill="#FFFFFF" d="M873.8,2636.1c1.6,1.9,4,4.2,5.2,5.9C877.5,2640.2,875.6,2638.1,873.8,2636.1z"/>
						<path fill="#FFFFFF" d="M676.9,2179.4l21.5,8.7c9,20.5,16.4,37.7,23.8,52.8c7.3,15.1,12.4,29.1,19.1,42
							c6.3,13.1,12.5,25.8,19.2,39.7c7.1,13.7,15.6,28.1,25.4,45c1,6.4-5-1.1-8-4.9c29.2,46.7,73.6,116.9,105.6,142.6
							c10,14.3,37.1,51.8,21.6,42.1c6.8,5.5,14.2,12,20.3,19.8c-2.8,6-15.7-15.5-19.8-12.7c4.8,6.2,6,9.3,8.6,9.4
							c-12.6-6.6-6.1,24.2-46.9-23.4c-4.6-27.5,29.4,31.8,32.1,10.7c-13.3-15.5-16.4-9.9-19-10c-16.6-20.3-12.6-22.6-9.2-23.6
							c-9.7-5.1-25.5-34.4-38.9-41.7c-30.5-40.8,11.1-4.6-8.2-31.4c0,0-6-1.6-12-3.3c-6.1-1.6-12-3.5-12-3.5l-27.4-48.3
							c-22.4-33.3-26.9-27.5-32.5-22.7c-5.2,4.6-13,9.2-38.7-30.5c6.5,3.6,8.4-4.6,6.8-18.7c-1.8-13.9-7.1-33.7-14.1-54.1
							c5.5,11.6,15.4,27.2,26.3,43.2c10.6,16.1,20.6,33.5,27.2,48.7c-12.4-46.3,33.2,54.7,33.3,26.6c-16.9-16.3-37.5-48.8-47.1-77.2
							l5.7,8c-13.2-28.4-38.1-43.3-50.1-86c-8.4-20.1-2.8-17.9,2-15.8C682.6,2194.8,673.6,2180.6,676.9,2179.4z M697.2,2222
							c0,0,2.3,6.8,5.1,13.5c2.6,6.8,5.2,13.5,5.2,13.5C707.2,2241.6,702.4,2232,697.2,2222z"/>
						<path fill="#FFFFFF" d="M3035.4,1017.9c1.3,3.1,2.8,6.6,3.9,9.4C3038.9,1025,3037.3,1021.5,3035.4,1017.9z"/>
						<path fill="#FFFFFF" d="M587,1063.9l10.1-16.5C592.9,1053.7,589.8,1059,587,1063.9z"/>
						<path fill="#FFFFFF" d="M815.9,683.9l18.7-22.9C826.4,669.1,820.8,676.5,815.9,683.9z"/>
						<path fill="#FFFFFF" d="M2901.4,831.4l-0.5-0.8c-1.2-1-2.2-1.8-3.6-2.8L2901.4,831.4z"/>
						<path fill="#FFFFFF" d="M1620.9,331.2c4.5,0.8,9.5,1.3,16.3,1.4C1636.2,331.2,1630.1,330.9,1620.9,331.2z"/>
						<path fill="#FFFFFF" d="M812.5,688.1c0.6-0.4,1-0.7,1.5-1c0.6-1,1.3-2.1,1.9-3.2L812.5,688.1z"/>
						<path fill="#FFFFFF" d="M463.3,1220.7c-1.1,4.2-2.1,8-3.2,12.5C462,1227.4,462.8,1223.8,463.3,1220.7z"/>
						<path fill="#FFFFFF" d="M515,1211.4c-1.3,4.3-2.4,8.5-3,11.8L515,1211.4z"/>
						<path fill="#FFFFFF" d="M384.2,1870.1l4.3,26.3C387.3,1883.4,385.8,1875.7,384.2,1870.1z"/>
						<path fill="#FFFFFF" d="M480.7,1272.5c0.2,1.7,0.4,3.4,0.7,4.6C482.1,1273.4,481.8,1271.5,480.7,1272.5z"/>
						<path fill="#FFFFFF" d="M3069.5,1183.3c-0.3-0.5-0.5-1.1-0.7-1.4l-1.9,0.2L3069.5,1183.3z"/>
						<path fill="#FFFFFF" d="M3114.8,1230.7c3.1,6.7,6.3,13.6,9.4,20.4C3121.3,1243.3,3117.9,1235.9,3114.8,1230.7z"/>
						<path fill="#FFFFFF" d="M1999.1,352.2c6.5,3.1,22.1,7.8,14.3,9.5C2026.8,360.1,2027.1,352.1,1999.1,352.2z"/>
						<path fill="#FFFFFF" d="M2928,1123.3c3.7,2.2,7.4,5.4,11.1,8.6C2932.9,1125.5,2927.5,1119.9,2928,1123.3z"/>
						<path fill="#FFFFFF" d="M2939.2,1131.9c3.1,3.1,6.5,6.5,9.4,9.3C2945.5,1137.8,2942.3,1134.6,2939.2,1131.9z"/>
						<path fill="#FFFFFF" d="M1825.6,472.4c-1.5-1-3.9-1.9-7.2-2.1C1819.4,472.5,1822,472.9,1825.6,472.4z"/>
						<path fill="#FFFFFF" d="M3128.5,1268.8c5.1,2.2,44.1,92.7,19.5,13.8c11.7-0.8,23,48.5,31,69.2c-1.8-16.3,9.4,5.6,12.1-0.3
							c-4.5-10.3-10.8-22.1-16.2-39.6c2.4-9.7,15.1,15.6,18.7,37.3c-1.5-27.7,18.3,30.4,12.3-7.7c-27.7-77.1-52.7-130-92.1-174.5
							c5.4,10.2,10.9,20.7,16.4,31.2c5,10.8,9.9,21.7,14.5,32.4c4.6,10.8,8.9,21.3,12.5,31.5c3.2,10.4,5.9,20.3,7.8,29.7l-14.6-11.6
							c-2.2-21.7-9-37.6-15.3-53.4c-6.5-15.8-14.2-30.9-22.6-50c0,0,2.1,5.5,5.2,13.7c3.3,8.1,7,19.2,10.7,30.4
							c7.3,22.2,14.6,44.4,14.6,44.4c5.8,44.3-4.1,16.7-18.7-14.2C3127.2,1259,3129.4,1266.3,3128.5,1268.8z"/>
						<path fill="#FFFFFF" d="M3023.9,1245.4l0.3,1.5c0.8,1,1.6,2.4,2.3,3L3023.9,1245.4z"/>
						<path fill="#FFFFFF" d="M588,1848.9l4.4,6.8C590.1,1849.9,588.8,1848.2,588,1848.9z"/>
						<path fill="#FFFFFF" d="M3047.1,1177.7L3047.1,1177.7C3046.8,1177.2,3046.7,1177.1,3047.1,1177.7z"/>
						<path fill="#FFFFFF" d="M586.9,1671.8c0.2,0.3,0.5,0.5,0.8,1C587.5,1672.2,587.2,1672.1,586.9,1671.8z"/>
						<path fill="#FFFFFF" d="M373.4,1603.1c-0.5,0.3-0.9,0.4-1.5,1.3C372.2,1608.9,372.8,1606.8,373.4,1603.1z"/>
						<path fill="#FFFFFF" d="M586,1671.6c0.3,0,0.6-0.1,0.9,0.2C586.6,1671.6,586.3,1671.3,586,1671.6z"/>
						<path fill="#FFFFFF" d="M893.8,871.5c0,0-3.2,0.8-7.5,2.9C885.8,876.3,887.8,875.8,893.8,871.5z"/>
						<path fill="#FFFFFF" d="M770.8,998.2c-1,0.7-1.6,1.1-2.8,2L770.8,998.2z"/>
						<path fill="#FFFFFF" d="M1958,302c-9.8-0.9-17.1-1.2-23.4-1.2C1941.7,301.6,1949.5,302.1,1958,302z"/>
						<path fill="#FFFFFF" d="M587.7,1672.8c0.9,1.8,1.8,4.4,2.9,8.6C589.5,1676.8,588.6,1674.3,587.7,1672.8z"/>
						<path fill="#FFFFFF" d="M1066.1,655.2c-1.4,1.4-2.6,2.8-3.9,4.1l3-1.5L1066.1,655.2z"/>
						<path fill="#FFFFFF" d="M1149.7,609.9c-2.2,2.6-2.9,4.4-3.9,6.1c13.5-10.2,34.3-22.1,51.8-32.9c18-10,32.7-19.3,33.6-25.8
							c-5.1,2.7-21.6,9.5-36.1,14.3c-14.4,5.1-26.6,8.8-23.8,3.4c-19.4,14-53.7,25.4-63.4,34.3c36.1-16.2,8.3,5.5-11.8,22.6
							c-21.9,10.3-1-9.7-19.5-0.2l-44.7,33.2l40.3-26.9l-6.1,17c1.2-1.3,2.1-2.2,3.4-3.6c32.1-25.2,36.2-22.1,39.6-20.4
							C1112.9,633.2,1116.1,634.2,1149.7,609.9z"/>
						<path fill="#FFFFFF" d="M1145.8,616.1c-4.1,3-7.3,6.2-9.6,9C1142.4,620.8,1144.4,618.3,1145.8,616.1z"/>
						<path fill="#FFFFFF" d="M1450.9,499.2c3.8-1.5,7.9-3.1,13.1-5.4C1461.5,494.8,1455.8,497.2,1450.9,499.2z"/>
						<path fill="#FFFFFF" d="M701.4,2435.7c1.6-2.7-16-46.4-22.6-41.7c6.2,12.5,12.5,25,18.8,37.7L701.4,2435.7z"/>
						<path fill="#FFFFFF" d="M2335.9,496.5c-4.9-2.2-9.8-4.2-14.9-6.1c-1.2-0.1-2.4-0.1-3.3,0
							C2320.3,492.7,2330.7,495.2,2335.9,496.5z"/>
						<path fill="#FFFFFF" d="M1182.3,564.5c-7,5.4-9.8,8.5-11,10.6C1175.9,571.8,1179.9,568.3,1182.3,564.5z"/>
						<path fill="#FFFFFF" d="M2331.6,515.1c5.4,4.6,13.3,11.3,13.3,14.8c12.4,5.7,22.8,5.8,36.2,10.2
							C2366.1,534.9,2350.3,525.8,2331.6,515.1z"/>
						<path fill="#FFFFFF" d="M2382.1,540.4l-1.1-0.3C2381.4,540.2,2381.8,540.3,2382.1,540.4z"/>
						<path fill="#FFFFFF" d="M713.6,2461c2.6,3.1,5.4,6.3,8.1,9.6l-5.3-4.3c5.3,9.5,10.1,19.2,15.7,28.4c2.7,2.9,5.5,6.1,8.8,10.1
							c-1.4-1.5-3.1-2.4-4.4-2.7c1.8,3.1,3.5,6,5.3,9c21,16.9,65.1,63.3,80.6,74.1c18.8,15.8,38.8,37.4,51.5,50.9
							c-12-12.2-27.6-28.8-26.7-20.5c9.4,15,15.3,27.3,24.7,40.9c9.4,13.5,22.4,28.3,48.7,44.7c0,0-6.5-6.1-12.9-12.2
							c-6.5-6.1-12.8-12.3-12.8-12.3s4.2,2.9,10.9,6.8c6.6,4,15.3,9.2,24,14.5c8.7,5.2,17.4,10.4,23.9,14.3c6.7,3.6,11.2,6,11.2,6
							c8,11.8-0.9,7-13.4-1.1c-12.2-8.5-27.7-20.7-34-22.2c50,36.8,75.9,86.7,108.2,92.5c-2.2,9.4-6.7,26.6,27.9,49.7
							c-18.2-25.6,24,8.9,10.6-14.2c14.3,4.1,35.4,29,41.4,24.3l-5.3,1.1c25.4,24.9,46.3,36,64.6,40.5c18.2,4.8,33,5.2,47.9,8.8
							c18.8,8.6,34.9,16.4,49.3,23.8c14.7,7,27.8,13.2,40.6,19.3c12.6,6.4,25,12.1,38.3,17.4c13.3,5.4,27.1,11.3,43.1,16.7
							c0.4,6.5,12.4,28.3,38.7,36.5c14.6-3.3,75,9.3,83.5,0.6c-45.4-17.1-40.4-2.2-69.3-7.7c-19.6-18.3,1.1-11.2-27.8-28
							c23.4,14.3,115.7,28.7,141.8,44.3l-10.3-0.9c21.8,8.6,33.9,18.9,50.6,27.2c8.3,4.2,17.8,7.9,30.2,10.5
							c12.4,2.4,27.9,2.7,47.8,1.3c0,0,9.4-0.4,18.9-0.9c9.4-0.4,18.9-1.5,18.9-1.5c-1.9,0.9-2.2,2.1-3.2,3
							c60.7,5.7,43.6,17.2,111.6,9.3c-5.2,0.6-2,1.8-7.3,2.4c19.3,3.9,38.7,1.4,56.8-1.5c18.1-2.9,34.9-6.9,49.2-9.6
							c18.3,7.4-3.6,8.9-14.3,16.1c68.7-0.3,139.9-26,178.4-44.6c0,0,2.7-0.2,6.8-0.4c4.1-0.1,9.5-0.6,14.9-1.3
							c10.8-1.2,21.7-2.4,21.7-2.4c-24.1,9.9-53.6,24.2-44.9,28c23.5-5.9,18-9.2,51.6-15.2c-4.4,6.7-17.2,15.3-31.7,25.6
							c71.9-6.7,11-23,63.7-17.3c21.7-5.7,32-17.4,32.4-24.5c0,0,10.3-0.6,20.6-1.2c10.4-0.4,20.6-1.7,20.6-1.7
							c1.5-10.1,48.8-25,78.2-39.1c2.2-5.1-27.4,1.3-37.9,8.2c0.2-6.6,30.7-22.6,51.2-30.4c7.4,7.5,40.1-8.2,69-21.5
							c28.5-14.3,53-27.1,46.3-11.5c21.9-12.2,44.6-27.8,68.6-42.6c23.3-15.9,47.4-31.9,69.4-48.8c22.1-16.9,43.3-33.2,60.9-49.4
							c8.9-7.9,17.2-15.4,24.9-22.3c7.3-7.3,13.7-14.1,19.3-20.1c9.7-5.2,23.1-14.8,32-20.5c8.7-5.9,13.4-7.4,6.7,4.9
							c14.6-13.9,26.6-26.9,37.3-39.4c10.6-12.6,19.2-25.4,28.2-37.6c9.1-12.1,17.9-24.5,27.5-37.6s21.5-25.8,34.4-40.8
							c2.9-1.9-2.5,5.2-8,12.9c-5.8,7.4-11.5,15.5-8.3,16.4c27.6-44.1,66.3-68.3,106.4-138.8c-7,11.6-6,17-5.5,19.6
							c-3.3-0.5,12.7-31.3,21.4-50.3c7.4-9.2-6.4,14.3-1,10c44.6-64.3,71.7-128.4,93.4-193.3c21.9-65,36.4-131.6,54.4-206
							c-9.5,42.6-3.9,61.5,1.1,63.4c0,0,3-10.4,6-20.9c3.1-10.4,5.3-21.1,5.3-21.1c-2.3-17.8,6-49.2,5.6-76.9
							c2.8-2.8,7.5-15.5,7.9-1.7c14.2-41,12.1-75.6,9.9-111.6c-1.7-18.1-3.6-36.7-4.2-57.1c-1.5-20.5-2-42.9,0.3-68.8
							c0,0,5.3,31.7,10.5,63.4c3.7,32.2,7.5,64.4,7.5,64.4l10.8-31c0,0,1.7,14.4,3.3,28.7c2,14.5,2.5,28.9,2.5,28.9
							c10.9-33.3-3.4-64.2,6.4-67.5c2,7.3-0.1,24.6,4.7,25.6c5.8-32.6,0.1-35.6-1.3-60.3c4.6,16.4,6.1,36.8,7.1,59.2
							c1.4,22.5,0.1,46.9-1.7,71.4c-3.5,49.1-12.1,98.1-18.1,132.5c-1,11-2.3-10.2-3.6-12.4c-2.9,13.9-6.7,24.6-10.4,36.2
							c-4,11.6-8.4,24-11.6,41.5c1.5,23.5,10.2-14.7,15.8-31.4c5.9,4.1,3.1,12.5-1.3,31.8c-8.9,1.8-35,102.4-56.3,121.2
							c-17.5,49.1-12.1,47.1-5.2,45.1c6.5-2.1,12.3-4.9-10.8,41.4c0,0-5.6,5.9-11.1,11.8c-5.8,5.7-11.6,11.4-11.6,11.4
							c-18.4,57.2-52.7,127.8-93.4,182.4l8-11.9c1.8-10.2-9.5,1-15.4,5.4c-16.6,19.5-28.7,40.5-41.5,58.1
							c-12.5,17.8-23.6,33.6-38,41.7c-27.9,52.3-91.3,127.9-139.4,175.7c-11.3,0.7,3.4-15.8,22.7-35.6
							c18.3-20.8,41.7-44.5,48.1-57.7c0,0-2.6,2.7-6.5,6.8c-4.1,3.9-9.6,9.2-15.1,14.4c-11,10.5-21.9,20.9-21.9,20.9
							c27-26,34.3-39.7,43.8-61.5c-18.8,18.5-30.2,31.6-40.4,45.9c-10.2,14.3-19.9,28.7-38,46.3c0.5-5.4-6.1-2.7-23.6,12.3l0.8,11.3
							c-0.8-0.3-3.2,0.9-9.2,4.8c0,0-16.8,15-33.6,29.9c-8.3,7.6-17.1,14.7-23.6,20c-6.6,5.3-11,8.9-11,8.9
							c17.7-8.1,23.7-1.6,42.1-16.1c-9.8,0.9,5.2-12.1,23.6-26.5c-12.5,17.3,21.1-10.1,23.8-6.2c-18.4,14.7-39,31.2-57.9,46.3
							c-19.4,14.6-37,28.2-49,38.2l-13.1-1.5c-19.5,11.1-38.3,24.5-56.2,35.8c-18.1,11.1-34.7,21.3-48.5,27.8l6.1-8.7
							c-23.9,12.3-47.5,24.4-70.5,36.2c-23.5,10.7-46.6,20.7-70,26.2c-40.3,27-94.8,55-130.1,75.5c-8.8,7.7-43.8,15.7-83.4,21.1
							c-39.3,7-82.9,11.3-108.7,23.7c-3.7-0.2,35.8-14.5,53.2-21.8c-35.7,4.9-62.3,22.9-75.2,12.6c40.6-3,38.9-6.6,31.9-8.1
							c-7.1-2-19.6-3.8-2-8.6c-18.5,3.4-37.7,5.7-54.4,9.1c-16.7,3.4-31,6.4-40.1,8.9c61-6.1-20.1,18.8,41.3,6.5
							c-23.4,8.4-51.9,13.1-81.6,17.3c-29.8,3.7-61.1,3.9-90,2.6c0.6-4.9-6.6-7.3-28-9.9l-17.6,6.7c-26.9-2,52.4-7.1-1.7-11
							c-14.1,3-31.6,3-50.4,1.7c-18.7-1.4-38.8-2.6-57.7-5.6c-18.9-2.6-36.9-4.8-51.9-5.1c-14.9-0.7-26.9,0-33.9,4.6
							c-20.4-8.2,0.2-6.8,17.9-6.2c17.8,0.7,32.8-0.2,2-10.5c37.8-2.4,87.5,13.2,100.8,2.3c-36.4,0.4-12.2-10.6-35.2-13.2l-40.7,1.8
							l8.8,1.5c-17.2,0.9-36.5-1.1-57.4-3.7c-10.4-1.5-21.2-3-32.2-4.6c-10.9-2.3-22.1-4.7-33.3-7.2c-11.3-2.6-22.7-5.2-34.1-7.8
							c-11.3-3.2-22.6-6.5-33.8-9.7s-22.4-6.4-33.3-9.5c-10.8-3.5-21.4-7-31.8-10.3c-73-13-127.7-17.4-207.3-59.4
							c13.3,3.1-2.5-6.8-14.6-15.6c-12-9-20.1-16.9,7.3-9c-33.1-24.8-71.3-39.2-74.6-35.7c30.3,20,10.1,7.8,35.4,25.3
							c-10.4-2.7-26.2-9.6-40.7-18.5c-14.4-9-28-19-35.2-25.9c7.4,5.3,5.1,2.4,7.8,2c-34.3-26.8-20.7-6.3-48-22.3
							c-1.7-6.3-15.5-16.8-31.5-28.3c-15.5-12.2-33.1-25.4-43-36c0,0-10.2-3.9-19.9-8.6c-9.8-4.6-19.6-9.2-19.6-9.2
							c22.6,9-28.7-28.2-28.3-38.3c-25.1-16.6-51-26.4-80.7-61.5c16,10.8-24.6-34.1-18.6-40.5c-11.3-15.9-23.2-29.1-35.4-40.9
							c-11.6-12.3-23.5-23.2-35.3-34.3c-12-10.8-23-22.4-33.4-35.2c-10.2-13-20.6-26.7-28-44c2.8,0.9,15.2,10.5,5.2-8.7
							c-10.8-13.2-26.8-38.3-36.3-53.8l0.5,0.4c-0.2-0.3-0.4-0.4-0.7-0.7c-4.8-7.5-8.5-11.8-10.2-11.1
							c-11.1-11.6-20.6-19.9-31.5-31.8c-10.5-12.2-22.7-27.9-39.8-54.3c-5.9,7.9,20.8,53.9,34.7,72.3l17.6,12.7
							c-1.3,11.5,6.3,23.5,14.5,34.2c8.6,10.6,18.1,19.8,19.9,27.1c-8.3-5.8-18.5-15.6-28.5-28.8s-20.6-29.1-31.5-45.9
							c-20.8-34.2-42-72.1-59.3-100.2c3.6,42.1,42.4,121.4,84.4,185.2c0,0-3.4-7.8-6.8-15.6c-3.4-7.7-6.3-15.8-6.3-15.8
							s4.8,8.7,10.4,17c5.4,8.4,10.8,16.7,10.8,16.7s-3.1-9.4-6.3-18.8c-3.3-9.3-5.8-18.9-5.8-18.9c8.6,16.7,18.7,31,28,45.2
							s18.8,27.8,28.6,41.6c-23.4-32.1-19.9-52.7-9.9-32.6c17.4,41.3,31,34.1,49.8,61.7c-10.2-15.6-24-35.4-10.8-25.7
							c14.2,30.2,27.2,46.7,38.7,63.4c11.4,16.8,23.4,32,38.7,58.6c3.4-8,15.4,6.5,29.9,21.3c14.3,15,29.9,31.8,37.4,30.6
							l-18.2-20.9c0,0,11.8,9,23.5,18c11.8,8.9,24.1,17.1,24.1,17.1c30.7,46.3-43.6-24.2,10.3,39.3c56.3,52.3,65.2,38.7,112.7,74.5
							c-10.5-2.5-26.2-9.6-44.2-20c-17.7-10.6-37-25.3-55.4-41.3l19.4,22.6c-15.7-5.7-64.8-52.6-87.9-77.2
							c23.2,16.2,19.2,10.9,7.8-1.2c-11.1-12.3-29.4-31.9-35.1-43.7c-9.6,2.4,16,27.7-18.1,1.5c13.7,14.4,21.5,22.7,30.3,31.9
							c8.7,9.3,17.6,20.3,35,38.7c-19.4-19.3-33.4-33.2-46.4-42.9c-12.7-9.9-24-15.7-34-22.2c-10.2-6.3-20.1-12.5-31.1-21.9
							c-11.1-9.3-23-22.3-36.4-42.6c30.7,32.6,0.1-20,0.3-26.7c-14.3-15.3-39.5-49.2-51.7-62l-1.1,20.1
							c-19-21.3-24.4-40.7-31.6-59.8c-3.6-9.6-7.6-19.2-13.2-29.6c-5.4-10.5-12.7-21.7-23.6-34.2c-10.7-3.6,26.3,50.9,19.4,41.4
							c-25.7-36.5-38.7-64.3-46.7-92.7c-4.2-14.1-8-28.1-12-43.2c-3.6-15.4-7.7-31.8-13.6-50.5c-5-2.6-12.7,1.8-29-21.3
							c10.2,5.1,6-15,22.9,11.2c-7.1-25.3-23.4-52-34.5-72.6c7.7,26.2,3.3,22-4.3,10.2c-7.4-11.9-16.7-31.8-20.6-35.9
							c-7.9-27.4,9.9,5.9,17.6,21.6c-5.5-22.3-3.5-51.2-18.4-60c3.6-1.6,13.7,11.9,24.7,30.4c5.5,9.3,11.2,19.8,16.6,30.4
							c5.8,10.4,11.2,20.9,15.5,30.4l-9-26.5c10.8,16.5,11,20.2,20.1,46.5c-4.3-27.5,3.1-27.4,10.6-23.7c0.2,3.7-2.5-1.1-2.3,2.4
							c6.1,21.4,14.6,36.2,16.6,29.8c17.4,14-5.5-30.7-5.7-46.5c-4.6-10.2-9.8-20.2-13.9-30.4c0,0-17.2-24.3-34.5-48.6
							c-16.6-24.8-32.5-50.7-32.5-50.7c-9.1-23.3-11.3-41.4-13.1-57.8c-1.4-16.6-2-31.6-2.5-50.4l-10.8-8.4
							c-7.4-42.7-9-83.4,5.9-57.7c-2.7,1.9-1.7,7.5-0.4,16.7c1.4,1,2.7,3,3.9,5.5c0.7,0.8,1.3,1.2,1.9,1.8
							c-10.1-44.7-14.6-73.1-15.6-75.6c22.9,75.5,16.9,1.8,34.7,12.9c0,0-0.9-4.7-2.3-11.8c-1.5-7.1-3.3-16.6-4.5-26.1
							c-2.8-19.1-5.6-38.2-5.6-38.2c-1.6,47.1-7.8,1.5-11.3-15.2c8.7-5-2.4-62.4-0.8-89.8l1.8,2c3.8-25.1,3.4-69.1,4.2-100.6
							c-3,1.3-15.5-40.4-21.2-61.1c-9.8,54.2-9.4,21.5-15.8,25.3c0.9-5.7,2.5-15.9,1.4-17.2c-1.6-8.2-4.8,10.3-8,11.6
							c-0.1,29.7-1.5,59.6-0.1,85.2c1.7,25.6,4.7,46.8,10.8,58.7c6.2-17.8-4.8-30.7-0.4-50.7c3.9,14.7,5.2,31.2,5.4,50.1
							c0.4,19,0.8,40.3,1.2,64.5l-7.2,16.2l7.7,48.5c-5.3-20-13.2-7.1-17.4-58.6c-7.7,7,5,51.1,4.9,82.7c0,0,2.9,3.8,5.9,7.5
							s6,7.5,6,7.5c-6.4-5.6,1,61.7-12.7,14.9c0,0-1.1-4.8-2.8-12c-1.8-7.2-3.9-16.9-5.6-26.6c-3.6-19.5-7.1-39-7.1-39l-5.2,22.4
							c0,0-1.7-16.7-3.5-33.4c-1-8.4-1.5-16.7-1.8-23c-0.4-6.3-0.6-10.5-0.6-10.5l5.7,15.6c-9.4-107.4,17.9-31.7,8.2-139.4
							c-9.8-34.2-9.9-71.3,2.3-136.8c-3.4,48,7.9,6,12.7,24.8c10.7-47.5,4.6-64.9,4.2-90.9c8.6-11,15.3-18.6,6.8,23.8
							c12.5,7.7,7.3-56.7,22.8-57.5c15-69.6,13.7-99.6,13.6-133.2c1.7-32.8,5.2-69.8,46.2-144.9l2.6,8
							c36.7-101.5,73.1-153.1,123.4-238.9c0,0,3.4-3.6,8.5-9.1c5.3-5.2,12.4-12.2,19.5-19.2c14.2-13.8,28.4-27.6,28.4-27.6
							c-8.4,15.6-26.5,59.5-8.3,45.8c-17,10.9-29.3,26-41.2,41.8c-12.1,15.7-23.4,32.4-36.6,48.2c1.2,5.5,11.8-7.5,17.4-12.5
							c-12.2,21.1-24.3,28.4-37.7,57.9c3-0.2,23.9-28.8,12.2-5c0,0-7.2,8.5-14.1,17.3c-7,8.7-14,17.5-14,17.5
							c-11.7,27.1-9.9,36-9.4,45.5c0.4,9.6-0.7,19.7-16.6,50c-2.1-14.7-1.9-43.3,7.6-68.6c-7.2,14.1-4.2,3.8-0.8-6.6
							c3.5-10.4,6.9-21.4-1.8-9.5c-5.2,23-10.9,39-18.8,56.1c-8,17-16.2,36.2-23.8,65.8c1.1-7.2-0.4-9.8,4.4-24
							c0,0-9.3,20.1-18.5,40.2c-8.9,20.3-16.9,41-16.9,41c6.8-9.3,2.7,8.7-1.5,28.3c-3.9,19.7-6.7,41.3-0.8,38.7
							c7.2-22.2,12.3-37.1,16.5-48.6c3.8-11.6,6.5-19.8,9.4-28.4c5.2-17.4,12.6-35.7,34.8-84c-8.7,29-14,68.3-10.1,88.6
							c-0.7,0.7-1.5,2-2.7,5c4.5,18.4,12.3,3.9,28.9,10.1c1.1-24.4,8.5-42.6,16-61.8c7.3-19.3,16.9-38.7,25.1-65.4
							c-4.2-13.5-25.3,24.1-33,51c0,0,0.8-3,1.9-7.5c1.1-4.6,2.7-10.5,4.6-16.4c3.6-11.9,7.2-23.8,7.2-23.8l0.1,10.7
							c0,0,3.4-7,8.5-17.6c5.1-10.5,11.7-24.7,19.4-38.3c7.5-13.7,15-27.4,20.6-37.7c5.4-10.3,9.8-16.9,9.8-16.9
							c-11.2,20.8-9.3,30.9-11.3,43.6c7.8-14,16.8-27.1,27.8-40.1c-9.9-1.5-14.5-6.5-6.5-20.1c41.7-68.6,75.3-99.7,100.7-117.2
							c1.6-2.6,3.4-5.5,4.8-7.9c-16.1,4.8,20.4-55.1,28.8-80.7c6.8,7.2,31.6-27.5,50.4-41.6c-0.1-16.7-22.6-15.2-48.3,0.7
							c-28.3,48.5-12.3,30.2-17.1,59.5c0,0-11.5,18.6-23.1,37.3C682.7,916,672,935.1,672,935.1l4-21.1c-29.2,32.9-41.4,75-49.5,65.9
							c3.1-11.7,10.4-25.4,18.6-38.3c8.2-12.9,16.5-25.9,20-37.6l-20.4,22c20.9-48.5,23.3-15.7,55.4-69.3
							c-21.9,11.9,2.8-4.9,14.4-30c-9.5,6.1-25.9,28.3-40.3,45.7c-14.4,17.4-25.4,31.1-26.9,18.3c6.2-15.9,27.6-34.5,48.3-54.8
							c20.7-20.4,43-40.7,50.8-62.8v2.9c44.9-45.4,54.1-67.8,67.6-88.7c23.2-15.4,46.5-45.8,68.9-65.7l2.6,4.2
							c0,0,7.4-7.5,15.4-14.2c7.9-6.9,15.8-13.8,15.8-13.8c-10.4,19-38.3,30.7-64.6,55.5l9.4,3.9c-19.4,9.2-30.7,22.7-39.8,36.3
							c-8.9,13.9-15.8,28-23.7,42.5c13.1-19.5,37.6-41.2,57.6-61.2c20.8-19,37.6-36.1,36.1-46.5c0,0,6.8-3.1,14-5.7
							c7.1-2.7,14.2-5.3,14.2-5.3l8.7-11.1c21.2-7.6,10.2,14-20,41.5c-6.9,2.9-10.3,4.4-9.9,1.5c-11.5,16-21.1,31.4-55.3,61.9
							l14.5-20.4c-42.7,38.4-75.7,79.2-82.4,99.3c58.1-58.1,118.2-111.7,178.4-159.4c4.9-30.6,20.3-56,19-78.4
							c40.7-34.9,102.1-74.8,146-91.3l-1.9,5.4c20.4-9.7,38.8-19.3,53.2-29.4c23.4-6.3-10,16.5,6,11.3c0,0,4-2.5,10.1-6.3
							c6-3.9,14.2-8.7,22.5-13.2c16.6-9.3,33.3-18.6,33.3-18.6c-0.4,4.9-15.1,14-33.1,23.4c-18.1,9.2-38.5,20.8-51.9,27.7
							c4.7-3.3,14.3-9.8,10.5-9.1c-33.7,12.1-82.5,58.2-102.1,55.5c-13.4,11.2,24.7-26.8-24.9,4.2c-35.8,17-39.7,33.9-40.8,39.4
							c1.9,3.7,54.4-28.1,39.8-11.5c24.9-16.6,31.4-29.1,67.4-43.9c-26,14.8-54.2,45.5-71.7,47.6c-43.7,40.4-22.5,54.9,0,40.2
							c-10-2.8,83.8-64.5,14.6-31.5c23.5-26.7,77.6-59.4,115.4-84.8l-1,2.6c0,0,12.2-6.9,24.5-13.8c12.1-7.1,24.8-13.3,24.8-13.3
							c-6.2,5.4-20.4,15-18.7,19.7c0,0,4-2.9,9.9-7.3c6.1-4.1,14.2-9.6,22.4-15.1c16.4-11,32.9-22.1,32.9-22.1
							c-18.3,13.1-11.4,11.7,2.4,6.5c13.9-5,35.2-12.8,45.2-14.7c4.9-10,31.6-26.4,2.7-19.7c-32.8,7-16.5,10.8-44.1,22.4l35.2-26.7
							l3.8-0.3c0,0,5.2-4.6,10.3-9.3c5.1-4.7,10.4-9.1,10.4-9.1c55.7-18.2-16.6,29.4,51-3.5l-13.4-9.4c20.7-6.9,43.4-12.1,66.6-16.9
							c11.6-2.4,23.2-5,34.9-7.1c11.7-1.8,23.4-3.7,34.9-5.5c11.4-1.9,22.6-3.7,33.5-5.5c10.9-1.5,21.5-2.9,31.6-4.3
							c20.1-2.8,38.1-7,53-10c-15.6,9.7-20.8,22.6,2.7,26.7c-13,0.1-32.2,3.8-52.7,7.2c-10.3,1.9-20.9,3.7-31.1,6
							c-10.2,2.6-20,5.2-29.1,7.5c-3.7-0.3,6.7-6.8,23.2-13.9c16.5-6.9,39.5-13.2,59.7-15.5c-11.4-8.9-36.4-1.4-59,6.4
							c-22.5,8.5-42.9,16.5-47.9,6.4c-103.1,19.3-68.9,39.9-156.1,55.9c2.3,9.5-21.6,13.5-22.7,23.2c29,4.1,109.3-39.7,165.6-48.7
							c-5.1,2.2-15.4,6.6-17,9c39.4-8.1,55.2-12.6,81.8-22.9l-3.7-0.3c46.4-18.9,31.3,1.6,60.2,0.6c10.6-4,50.6-6.2,43.3-12.4
							c0,0,13.2,0.7,26.4,1.3c13.2,0.6,26.3,1.6,26.3,1.6l-3.6-10.7c29.3-2.9,36.2,3.8,62.4-4.8l0.7-9.9c0,0-18.4,0.5-36.8,1.1
							c-9.2,0.3-18.5,0.6-25.4,0.8c-6.9,0.1-11.5,0.7-11.5,0.7c36.9-6.8,9.4-10.4,50.5-15.7c-45.2,14.3,33,2.6,37.8,12.1l30-6.3
							l-7.7,2.8c23.8,4.7,28.1-4.9,55.9-3.1c-32.5-5.7-54.5-11.8-96-3.1c30-7,90.7-14.8,105.7-14c32.3-3.3,54.6,4.4,84.4,8.2
							c-28.9-0.2-24.3,7.6-26.8,13.5c-2.5,5.7-11.9,10.1-68.7,5.2c2.1-1.8,11.3-1.2,14.9,0.1c-15-13.8-68.5,1.2-92.6,6.6
							c6.6,7-18.8,9.5,24.6,12.3c-14.5-3.7,36.2-18.3,77.7-10.3l-7.6,15.2c0,0,14.9,0.8,29.7,1.7c14.9,0.5,29.7,2.4,29.7,2.4
							l-5.6,0.3c21.6,11.7,63.5,2.2,103.5,14c30.3-3.4,141,24,96.2-1.7c34.1,17.7,68.7,12,108.4,21.8c0,0-11.8-5-23.6-10
							c-11.8-5.2-23.9-9.3-23.9-9.3c61.2,4.6,42.3,7.2,94.2,4c3.4,5.6,12.6,12.3,1.9,13.4c78,24.6,182.1,75.5,229.6,88.1
							c25.7,13.1,37.5,26.4,52.6,39.1c15.2,12.6,32.5,26.8,68.1,45.6c7.7,3.7,7-1.1,9.5-2.8c2.6-1.7,8.7-0.3,29.2,17.2
							c2.2,3-48.3-20.3,0.7,13c10.3,3.7,20.3,9.5,30.2,16.5c9.7,7.3,19.2,16,29,24.8c19.9,17.4,39.5,37.2,63.6,51.4
							c19.4,21.9,55.9,56.2,42.1,55.5c-30.8-33.8-81.7-73.9-91.9-76.8c8.6-0.5-22-24.3,7.2-6.9c-50.3-48.1-38.1-24.1-85.7-63.8
							c-5.7,0.7,20,26.6,32.4,32c-7,9.6-102.4-64.7-66.5-21.1c52.2,38,84,29.1,119.6,75.7c-22.1-8.9-46.3-35.7-77.1-42.4
							c0,0,2.1,2,5.4,4.9c3.1,3.1,7.3,7.1,11.4,11.2c8.3,8.1,16.5,16.3,16.5,16.3s8,3.4,16.1,6.7s15.9,7,15.9,7l-2.7,0.1
							c53.9,62.2,65.7,39.5,123,87.2c-23.5-37.4,22.9-8.4,4-35.7c36.5,35,60.4,63.6,50.6,72.6c-35.1-31.3-39.1-29.1-41.9-27.2
							c-3.1,2.4-5.4,4.9-39.8-20.8c6.4,13.1-26.9-1.2,6.8,35.8c45.6,34.5-4-19.7,38.1,18.4c1.5,3.2,3,6.5,0.2,6.3
							c22.1,15.2,18.1,24.5,44.3,43.5l-6.9-4c18.9,34.6,33.5,27.7,47.7,59.1c-0.4-16.5,19.7,13.3,36.5,27.2
							c-16.7-30-16.7-53.5-60.7-106c-11.1-1.4-11.1,5.1-32-13.6l29.5,32.7c-7.2-6.4-13.4-10.6-20.2-16.2l-24.7-34.4
							c39.1,36.9,29.1,13.1,50.1,25.4c29.4,40.2,27.3,30.7,45,56.6c-9.6,3.6,41.3,88.1,64.2,139.8c-4.2-7.6-10.6-16.9-13.7-22.2
							c-27.9-30.5,7.5,28.4,5.3,31.4l19.5,22.8c-3.4-4.5-9.5-9.8-4.6,1.9c21.9,33.5,30,26.5,50.3,61.5c-4.1,5.3-27.7-20.5-19.2,3.1
							c-0.4,5-0.7,15.1,2.7,29.4c3,14.5,9,33.5,22.2,56.2c3.9,2.4,10.2,14.5,16.9,28.8c-1.1-1.9-2.3-4.4-3.1-5.2l6.6,34.8
							c-20.3-23.7-17.2-57.6-39.5-80.3l-10,1.8c-9-21.1-27.3-46.7-38.2-56.9c14.4,31.5,20.1,36.8,37.7,71.4
							c-3.5,7.4-18.9-15.4-21.1-18.6l7.5,2.9c-5.4-22.9-16.1-37-27.2-52.2c-11-15.3-24.2-30.8-37.8-55.8c-3.9-7.7-0.7-3.5,1.9-2.8
							c-31.2-34.9-45.5-79.9-82.1-108.9l12.7,8.9c-5.3-5.5-11.9-12.4-19.5-20.3c-7.8-7.6-16.9-15.9-26.5-24.9
							c-18.9-18.3-42.1-37.3-64.8-56.3l-3.2,2.2c2.6,6.4-11.7-10.2-18.9-19.6h0.1c-11.7-9-23.2-17.8-34.1-26.1
							c-11.1-7.9-21.6-15.3-31-22c3.7,6.8,9,14.6,16.3,22.4c10,2.8,43.6,44.2,46.1,31.9c12.6,21.8,44.7,46.6,53.6,62.8
							c-8-14.8-2.4-12,6.1-5.2c8.4,6.9,19.7,17.8,23.7,18.4c0.9,6.4,8.6,16,14.9,24.3c6,8.5,10.5,15.7,5.7,16.4
							c1.9,6.8-4.6-16.9-17.8-24.7c-13.9-11.2-5.5,2.4,2.2,15c7.3,13,13.7,25.1-1.7,9.9c37.6,40.2,74,102.4,108.3,148.1l-12.7-29.3
							c12.4,22,40.6,74.7,39,80.5c-9.6-16.1-19-35.9-32.1-56c-8.4,3.3,26.4,50.9,22.4,56c0,0,2.9,3.4,7.2,8.5
							c4.1,5.3,9.5,12.3,14.9,19.3c10.9,14.2,21.8,28.5,21.8,28.5l-12.1-28.2c13.7,15,32.7,77,45.8,122.5
							c-10.7-10.7-16.2-27.6-23.2-47c-6.7-19.5-13.2-42.3-26.4-63.6c-19.4-30.6-2.7,25.5-19.6-4.1c0.7,9.3,10.3,29,17.6,37.7
							l2.6,13.3c-10.7-11.9-23.3-32.7-35.9-55.6c-12.6-22.8-27.9-46.2-42.3-63.5c2.9,2.8,5.7,5.2,7.5,5.6
							c-12.3-32-29.5-62.6-50.7-88.5c6.2,16.9,12.3,21.2,18.7,29.1c-1.7,2.5-19.9-23.2-29-31.3c13.6,27.8-3,8.7,5.8,26.1
							c-13.5-15-20.6-29.5-33.7-50c-3.5-12.9,11.3,4.9,14.8-0.6c-17.9-18.1-11.8-36.8-40.3-61.8c28.3,40.2-18.5-2.3-31.9-12.7
							l4.7,6.7c-14.9-7.8-23.3-17.5-25.5-29.6c15.6,12.9,25.3,29.8,27.6,20.7c-8.2-10.4-17.1-20.1-28.6-29.9l12.9,6.9
							c0,0-11-12.2-22.1-24.3c-10.8-12.4-22.6-23.8-22.6-23.8c-11.8-3.2-30.2-9.5-43-9.3c-6.6-15.3-26-26.4-37.9-35l6.7,2.8
							c-8.2-12.1-25.3-27.5-41.3-39.6c-15.7-12.5-30.7-21.2-34.7-20.5c-3.2-4.1,3.6-2.4,13.9,1.2c10.2,3.8,23.4,10.1,33.8,13.9
							c20.5,8,29.4,6-28.6-39c-43.9-34.2-37.9-7.6-67-20.7c0,0,2.5-0.5,0.7-3.2c-18.9-14.8-24.5-11.1-42.4-19.4
							c10.5,10,26.9,22.4,34,24.1c-5.1,1-15.1-6.3-26.1-14.6c-11.1-8.1-23.8-16.4-32.9-19c26.2,3-36.4-28.5-17.8-23.7
							c-18.8-14.8-40.1-27.5-60.6-35.2c-20.6-7.7-39.2-12.6-52.2-14.1c-23.2-26.4-51.7-21.9-97.7-46.6c7.3,3.3,21.6,6.7,31.5,12.2
							c31.2,2.4-48.7-24.4-2.8-15.3c-9.7-2.3-2.5,4.3,7.5,6.6c16.9,5.2,33.6,8.8,31.2,3c0,0-8.9-6.7-18.2-12.3
							c-9.3-5.9-18.6-11.7-18.6-11.7l14.9,3.5c0,0-14.3-8.7-28.7-17.4c-7.2-4.4-14.4-8.8-20-11.6c-5.6-3-9.3-5-9.3-5
							c-2.3,1.2,2.8,5.3,5.4,7.4c-70.9-30.9-158.3-46.3-224.5-57.6c-4.1,5.7-16.5,7.8-33.5,8.4c-17.1,0.6-38.6-2-61.7-2.4
							c-23-1-47.3-2.7-69.2-1.5c-21.9,0.8-41.4,2-54.7,6.7c14.2-7.9,22.3-21,13.2-26.4c12.1-1,37.2-10.7,64.9-7.9
							c4.3,4.1,37.8,11.7,15.8,14.7c76,2.8-9.4-12.1,13.6-20.1c-85.6-2.7-135.3,14-187.4,24.2l-1.6-3c0,0-9.9,2.2-19.7,4.4
							c-9.9,2-19.6,4.7-19.6,4.7c16.3-1.1,24.4,3,23.1,6.2c-1.3,3.5-11.8,6.1-32.7,6.5l4.9-1.4c-12.1-1.6-30.3,1-50,4.4
							c-19.5,4.4-40.5,9.8-58.8,12.5c0,0-5.7,3.3-11.4,6.8c-5.6,3.5-11.3,7-11.3,7c-36,7.4-41.6-8-55.8-13.6
							c-28.5,7.7-50.3,16.2-68.7,27.4c-18.6,10.8-34.9,21-52.5,32.6c-9.8,0.5-35.6,7.3-53.2,13.1c-17.7,5.5-28.3,7.5-8.7-6
							c-46.1,27.9-20,55-107.8,79.8l16.9-17.4c-37.2,21.7-80.1,51.6-115.9,80.9c-9.1,7.2-17.8,14.1-26.1,20.6
							c-8.1,6.8-15.8,13.2-22.8,19c-14.2,11.6-26.4,20.2-34.8,25.6c4.3-19.6-19.8-6.7-49,10.6c-28.3,18.1-61.2,41-74.6,38.9
							c6.8,0.6-14.8,25.9-16,31.3c-7.2,3.2-17.4,10.4-22,23.5c13-11.4,13.6-2.8,15.4,1.7c2,4.6,4.4,4.4,23.5-22.1
							c-5.7,17.2-12.7,36-24,57c-11.9,20.6-26.4,44.7-48.5,72.2l-7.2-6.7l37-42.3c-9.4-0.4,9.8-22.1,15.2-33.2
							c-18.4,18.8-27.8,27-32.8,29.9c-5.2,2.7-6.2-0.3-7.1-3c-1.8-5.5-3.3-10.5-36.3,33c-1,12.4,0.8,5.3-13.5,29.8
							c7.4-11,3.4-16.9-9.2,0.5l-5.5,21.2c-16.9,11.6-11.2-3.5-3-18c7.9-14.7,16.8-29.7,2.6-19.6c17.5-39.8,62.5-99.8,44-97.1
							c-48.3,52.6-21.7,63.8-68.4,120.2l-8.6,3.6c-10.9,23.8-5.9,31.9-9,46.4c-3.2-0.5-8.9,3.6-17.7,17.6
							c-11.2,43.5-21.8,70.1-27.1,111.1c9.4-24.3,17.4-41.2,24.4-54.3c7.4-13,14.3-22,21-31.2c13.3-18.5,27.4-36.6,53.5-83.7
							c-6.7,15.9-44.2,81.3-33.9,92.3l-8-5.8c-13.2,32.4-24.6,65-46,102.6c0,0,1.5-6.6,2.9-13.2c1.7-6.5,3.5-13,3.5-13
							c-9.8,27.2-22.3,47.6-34,67c-10.4,19.9-19.9,38.9-19.9,63c6-14.8,11-26.8,13.1-36.6c-7.4,28.9-19.7,63.6-31.3,93.6
							c0,0-0.6,17.1-1.2,34.1c-0.3,8.4-0.6,16.9-0.8,23.2c0.1,6.4,0.1,10.6,0.1,10.6c-4.6-1.8-14.2,38.9-17.3,17.5
							c-4.5,11.2-7.3,21.2-9.1,30.3c-1.3,9.2-1.5,17.4-1.3,25.1c0.4,15.3,2.1,28.2,1.3,41.9c-8.2,23.3-8,12.8-7.4-4.6
							c1.5-17.2,3.8-41.2-2.4-44.8c-3.9,16.5-8.1,33.3-10.4,50c-2.2,16.7-3.9,33.2-5.2,48.8c-1.3,31.3-0.2,59,3.3,78.1
							c2.3-13.7,5-20.1,7.2-19.3c-3.7,1.8-3.9,28.9-4.1,44l6.1,10.5c-5,24.9-8.6,21.6-12.9,0c-2.5,24.3,11.5,52.7,2.6,77.7
							c-4.1-20.4-5.7-44-5.1-65c0.7-21,1.6-39.5-0.5-50.4c2,43.3-3.6,64.9-7.1,89.8c-1.8,12.4-4.3,25.7-4.3,42.7
							c0.3,17,1.2,37.8,6.1,65.1c-2.8,1.7-11.1-16.4-8.5,4.9c8.6,48.9,14.7,11.2,23.6,25.6c-9.1-36.8-6.4-54.9,0.1-77.1l5.9,9.5
							c-2.5,1.7-1.2,25.1-2.8,32.3l11.2,4.8c-11.7-1.7-16.6,37.1-7.3,65.8c3.4-30.8,4.9-22.8,16.7-32.6c8.5,19.5,8.1,31.1,7.1,43.7
							c-0.5,12.4-2.1,25.9,9.8,46.9c-4.9-2.4-15-41.6-11.2-6.7c6,28.3,14,22.5,21.1,40.5c-14.3-18.9-20.1-11.7-36.8-32.6
							c-11.2-50.9-3.8-20.6-17.1-70l-0.5,44c-9.4-43.5-16.7-30.1-21-33.2c3.6,77.7,25,54.1,33.2,102.4c11.8,21.4-8.9-44.9,6.1-10.7
							c8.9,44.7,8.4,8.7,25.9,56.5l-6.6-6.9c-1.2,16.6,9.3,29.5,16.4,46.1c9.3,17.4,24.5-30.8,51.7,43.3c-4-2.6-6.1-3.4-7.2-3
							c0,0-6.7-2.6-16.3-6.9c-9.6-4.5-22.4-10.5-35.2-16.5c-12.9-6.4-25.9-12.8-35.6-17.6c-9.8-5-15.9-8.5-15.9-8.5
							c24.8,82.1,60.1,174.6,104.9,264.1c-0.9,14.1-13.1,0.4-24.6-16.4c-11.1-16.9-22.4-36.5-24.2-32.1c0,0-4.7-10.6-8.9-21.4
							c-4-10.9-8-21.7-8-21.7c6.1,0.1,44.5,85.6,36.4,43.2c-40.1-70.4-47.2-106.9-85.1-175c-8.1,28.4,36.8,94.7,47.5,144.9
							c-7.6-19.8-17.1-35.2-25.7-50.5c8.2,22.3,17.8,45,27.2,68.8c10.9,23,21,47.5,33.5,71.6l9.4,8.7c-17.2-32.3-26.1-56.1-27.5-59
							c20,44.2,49.8,74.2,60.8,71.1l-3.9-7.6l11.7,13C702.9,2441.4,708.3,2451.2,713.6,2461z M3115,2066c0.4,3.1,1.2,5.6,2.4,7.7
							C3116.2,2071.5,3114.7,2073.1,3115,2066z M478.6,1564.8c-11.3,64.4-17,130.4-18.8,193.4c5.5-28.5,12.3-54.5,17.5-74.5
							c6-20,11.7-34.1,15.6-38.9c8.6-9.6,8,17.3,7,109.4l2,12.1c0.8-12.1,1.9-28.4,2.7-46.6c0.8-18.2,0.4-38.4,1.5-57.8
							c-2.7-15.9-10.6-50.2-15-80.8c-2.7-15.4-5.2-29.8-7-40.3c-1.5-10.5-2.8-17.1-3.5-17c-8.7,10.3-4,28.1-8.4,48.6L478.6,1564.8z
							 M523.7,1525.4c8.9-34.9,2.4-27.8-1.2-34.2c-1.7,12.6-3.3,25.2-5,37.7C519.6,1524.3,521.6,1522.3,523.7,1525.4z M517.7,1492.4
							c-0.8,4-1.6,7.4-2.6,9.1L517.7,1492.4z M561.8,2190.2c-0.6-1.5-0.9-2-1.5-3.5c2.5,8.3,4.9,16.6,7.5,25.2
							C567.2,2208.5,565.8,2201.9,561.8,2190.2z M550.3,2116.6l-10.5-6c1.9,7.8,3.8,15.8,5.8,23.9
							C548.5,2130.8,550.9,2127,550.3,2116.6z M532.9,1882.7c-11.3-13.5-15.4-62.5-27.3-65c-3.2-3-3.6,7.5-3.7,19.3
							c0.7,13.1,1.4,27.1,2.2,41.9c1.8,0.3,3.4,3.1,5.6,7.9c0.1-14.7,2.4-24.7,10-19.4c-12.5,38.8,14.9,32,15.6,72.1
							C545,1950.7,537.8,1894.3,532.9,1882.7z M2667,713.8c0.3,1.5,1.7,6,4.1,12l-26.1-13.1c-9.6-8.3-18.1-17.1-26.4-25.6
							c-8.5-8.1-16.7-16.3-25-23.8c-16.4-15.5-34.6-27.9-57.9-34.1c-16-14.9-22-27.3-28.5-38.1c9,5.7,17.4,11.1,23.8,16.6
							c60.9,25.8,71.3,41.6,78.8,54.5c3.8,6.6,6.7,12.9,14.6,20.6C2631.8,690.8,2644.1,700.4,2667,713.8z M2147.8,434
							c5.4,0.5,7.7-0.9,7.7-0.9c-118.3-6.9-211.7-8.2-273.4-11.8c5.8,4.1,22.4,8.8,40.5,13.6s38.1,8.1,50.6,11.9
							c0,0-5.9,1.7-11.9,3.4c-5.9,2-11.8,4-11.8,4l-13.6-8.7l-40.1,5.8c10.7,7.4,42.4,8.4,63.1,15c1.8-1.2,70.9-5.3,90.8-6.6
							c0,0-13.2-4.3-26.6-7.9c-13.4-3.4-26.9-6.8-26.9-6.8c14.5,3.8,87,13.3,115.8,18c0.8-2.2-10.6-8.4-23.4-12
							c-12.9-3.5-27-5.2-31-0.6c-4.7-8.2,52.7,2,17.8-12.1c22.4-0.5,50.2,6.4,76.3,13.3c26,7.4,49.7,17.6,64.8,23.4l1.7,13.1
							c31.8,15.5,27.1-6.3,64.7,13.7c-49.6-14.3,3.7,15.3-35.2,3.1c10.7,8.6-3.7,11.9,34.5,24.6c37-2.2,36.1,24,70.3,24.3
							c17.3,13.3-24.6-0.5,12.4,18.6c23.5,5.7,35.2,7.7,42,6.7s8.9-4.9,12.9-9.5c-19.3-12.1-32.8-13.6-45-14.9
							c-12.3-1.3-23.4-2.1-39.6-10.9c0,0,18.6,2.9,37.5,5.9c9.5,1.5,19,3.1,26.1,4.2c7.1,1.2,11.8,2.3,11.8,2.3
							c-10.9-8.9-20.3-12.8-28.3-15.8c14.1,5,27,7.6,38.4,9.1c6.6,0.8,12.6,1.7,18.1,2.6c-9.4-4.9-18.6-9.7-27.2-14.1
							c-8.7-4.2-16.7-8.1-23.7-11.5c-13.9-7.1-23.6-12.9-25.6-16.5l7.6-2.8c-11.6-11.5-36.6-16.3-48.6-16.8
							c-35.7-14.3-75-17.4-80.4-27.6l15.4-0.3c-22.6-7.1-35.4-10.1-49.6-13.6C2192.1,445.8,2176.8,440.2,2147.8,434z M753.5,905.8
							c17.2-4.8,33.6-11,57.2-27.4c23.3-16.8,52.4-45,98.6-91.6l-6.5,8.2c14.3-9,26.2-20,37.9-31.6c11.9-11.3,23-23.7,34.5-36.5
							c23.7-24.6,49.6-50.6,87-67.6c-27.2,28.9-26.2,27.2-48.5,67.7l28.9-30.1c-2.5,15.6,27.4-12.8,52.4-29.9l-13.9,26.4
							c-8.4,3.7-22.6,11.7-33.7,19.8s-19.7,15.5-18.2,16.3c3.6-3.7-11.1,2.4-30.5,13.1c-18.5,11.5-42,27.4-55.1,42.2
							c8.9,3.5,69-52.9,50.8-17.5c20.2-26.2,29.9-20.5,54.1-44.2c-21.5,24.8,1.3,14.8-13.3,34.7c0,0,10.2-9,20.4-18
							c10.1-9.2,20.8-17.6,20.8-17.6c2.1,0.8-58.3,53.9-16.6,35.2c13.5-18,64.7-45.3,59.8-54.4l2.8,1.7c35.2-20,7.3-21.5,52.6-43.4
							c-2.1-4.6-12.1-2.6-26.7,8.1c-11.5,10.2-10.2,16.6-35.1,35.3c-7.8,0.9-0.1-4.4,6.6-9.5c6.9-4.9,12.6-9.9-0.1-9.4
							c-12.9,0.4-64.5,52.4-54.4,27.2l34.8-22.2c-5-9,20.5-25,15.5-31.1c19.6-16.9,45.5-20.6,63.9-40.5
							c6.3-10.9-16.2-11.8,24.3-28.8c9.3-0.7,21.7-4.2,35.6-9.3c13.8-5.3,29.2-11.9,44.9-18.2c30.9-13.6,62.2-27.3,79.3-34.9
							c0,0,7-4.5,14.1-8.9c7.2-4.1,14.5-8.2,14.5-8.2c-5-5.6-58.3,23-41.5,8c0,0,11.8-5.3,23.5-10.5c12-4.7,24-9.4,24-9.4l-2.5,4.8
							c16.4-4.5,31.5-14.4,45.9-20.8c-13.3,11.2-49.1,20.9-38.8,28c23.4-5.5,27.7-3.9,48.3-11.7c-4.4,2-8.1,4.1-7.1,5.3
							c47.5-8.9,41.8-23.8,52.7-30.3c22.2-12,9.4-12.7-8.5-10.6c-17.9,2.2-41,6.3-39.5,0.4c0,0,8.7-2.8,21.7-7.1
							c6.5-2.1,14.1-4.6,22.2-7.3c8.2-2.3,17.1-4.6,25.9-7c35.1-10.3,70.9-17.6,70.9-17.6c-11.7,5.5-23.4,10.9-18,14.2
							c35.9-1.6,2.3,7.7,51.1-1.6c-2.9-6.9,12.4-11.1,32.7-15.1c10.2-2,21.5-4.1,32.5-6.3c11-2,21.7-3.8,30.4-6.6
							c17,4.4,20.4,5.3-15.6,8.2c5,9,52.7,0.9,70,1.8c9.9-2.5,26.8-4.3,37.6-6.5c-14.5-4.1-8.6-10.2,23-14.4l1.9-1.9
							c-25.9-1-59.2-3.7-90.1-3.4c-30.9,0.8-59.4,2.3-75,9.6l8.7-5.6c-30.4-0.1-62.7,7.7-90.4,16.3c-27.9,7.5-51.3,14.8-66.8,9.7
							c1-7.2-12.2,1.2-13.4-8.6c0,0-10.5,4.4-20.9,8.8c-10.3,4.9-20.5,9.8-20.5,9.8l7.8-6.8c0,0-18.2,5.7-36.3,11.5
							c-18.3,5.4-36,12.4-36,12.4l1.3-2.4c-15.6,10-29.5,19-41.9,27c-11.9,8.7-22.5,16.4-31.8,23.2c1.5,4,4.1,4.4-5.7,11.6
							c-10.2,6.2-18.4,9.9-25.9,12.8v0.1l0,0c-17.1,6.4-30.7,5.8-52.4,12.9c0,0,15.8-7.4,31.5-14.8c7.9-3.7,15.8-7.4,21.7-10.2
							c5.9-2.9,10-4.4,10-4.4c2.5-8.7-6-14-39.6-4.2c12.8-6.1,16-13.7-0.4-7.3c-1,2.5-40.4,23.4-22.5,21.6
							c-29.6,15.7-70.6,31.8-113.6,54.2c-21.9,10.6-43.2,24.3-64.9,38.1c-21.1,14.6-41.5,30.9-60,48.7c27.1-24.9,14-18.2,1.6-11.7
							c-11.8,7.1-23.2,13.4,9.2-11.9c-27,11.7-34.4,22.6-41.8,33.2c-7.1,11.1-14.1,22.3-36.4,40.8c-6.5,0,24.1-20.3,29.8-34.6
							c-39.3,28.5-67,59.3-92.5,90.9c-13.2,15.4-25.1,31.7-38.2,47.8c-13.4,15.9-27,32.5-42.7,49.6l-9.5-2.9
							C776.1,872.8,764.9,888.9,753.5,905.8z M659.5,1063.5c-7.8,16-16.4,31.9-23.8,48.6c0.9-1.5,1.7-3,2.7-4.6l-17.7,50.6
							c18.1-27.5,36.4-41.5,20.1,0.6c-1.6-5.1-11.8,4.7-6.5-10.3c-9.7,12.1-22.3,33-30,49.7c-7.8,16.6-11,28.7-1.1,23.5
							c12.3-58.4,21.3-5.2,31.6-50.6c-2.2,25.9-15.8,46.1-21.3,68.7c2.4-24.9-17.9-1.6-34.3,31.1c-4.5,15.2-19.4,55.4-24.6,81.2
							c11-6.3,8.3,16.5,23.8-22.8c-1.4,7.7-3.7,17.3-7.1,28c-2.9,10.9-7,22.9-12.7,35.2c1.5-10.6,5.6-28.9,2.4-28.5
							c-12.1,14.5-17.4,34.4-23.7,44.5c-2.2,8.8-3.4,17.9-5.1,26.6c1.3-2.4,2.7-4.4,4.3-5.7l0.5,30.8c5.1-39.6,7.9-16.9,12.6-15.3
							c-9.3-3.3-7,24.5-9.7,37.7l16.7-26.3c0.9,7.4-3.7,19.1-7.1,28.3c-3,9.3-4.8,16.2,0.9,13.5c7.8-29.9,14-50.2,18-70.4
							c4.9-19.9,9.4-39.2,15.5-66.5l-13.9,19.5c5.5-31.4,13.1-39.3,20.1-48.2c7.8-8.6,14.5-18.6,27.7-51.1
							c2.8-30.4,41.2-97.3,28.7-105c0.2,9.8,31.4-33.5,37.3-57.8c0.9-14.8,10.8-40.5,19.2-59.7c8.7-19,14.8-32.2,5.5-23.3
							c-12.6,18.5-21,48.1-37.5,59.3l19.2-38.9l-20.6,20.9C679.1,1065.5,672.2,1063.1,659.5,1063.5z M418.7,2030.6
							c0,0.5,0.1,1.2,0.1,1.8l-0.3-2L418.7,2030.6z"/>
						<path fill="#FFFFFF" d="M3079,1207.5c8.8,10.1,19.1,40,23.8,31.5c-3.6,1.8-9-11.2-13.8-22.2
							C3083.8,1206.1,3079.3,1197.5,3079,1207.5z"/>
						<path fill="#FFFFFF" d="M3086.1,1245.2c2.6,1.4,4.8-1.2,10.3,11.8l-16.1-35.4L3086.1,1245.2z"/>
						<path fill="#FFFFFF" d="M3049.7,1300.4c11.8,16.1,18.8,26.7,28,55.5c-14.8,16.6-20.9-45.2-42.4-51.8
							c8.1,26,17.2,41.7,26.6,56.2c8.9,14.7,17.4,28.5,24.4,50.1c0.5-11.7-3.3-40.6-11.5-65.5
							C3066.8,1320.1,3056.9,1298.6,3049.7,1300.4z"/>
						<path fill="#FFFFFF" d="M3017.9,1286.5c0,0,3.8,6.6,7.6,13.2c3.9,6.6,7.3,13.4,7.3,13.4l0.1-3.2c0,0-3.7-6.7-7.5-13.3
							c-3.8-6.6-7.6-13.2-7.6-13.2L3017.9,1286.5z"/>
						<path fill="#FFFFFF" d="M2747.4,634.5c1.5-6.6-19-15.1-28.8-21C2725.7,619.5,2734.8,628.7,2747.4,634.5z"/>
						<path fill="#FFFFFF" d="M2867.6,2760c0,0,11-12.1,27.4-30.1c16.1-18.4,37-43.4,57-69c19.6-26,39.2-51.9,52.5-72.4
							c13.7-20.2,22.7-33.7,22.7-33.7C2985.8,2617,2945.5,2673.5,2867.6,2760z"/>
						<path fill="#FFFFFF" d="M1959,349.8c34,0.2,58.8,0.1,84-0.6c25,1,50.4,1.3,84.9,7.4c-21.8-8.3-40.8-11.1-57.6-13.4
							c-16.9-2.1-31.8-2.2-46.3-1.4c-29,1-55.5,2-93.4-6.5L1959,349.8z"/>
						<path fill="#FFFFFF" d="M1988,304.3c10.2,12-54.9,8.3-45.5,17.7c46.7,0.9,22.7-9.4,64.8-3.3L1988,304.3z"/>
						<polygon fill="#FFFFFF" points="2236.9,551.4 2217.6,551.1 2232.3,553.8 						"/>
						<polygon fill="#FFFFFF" points="1670.3,314.2 1677.7,310.7 1642.5,311.5 						"/>
						<path fill="#FFFFFF" d="M1685.1,307.3l-7.4,3.3L1685.1,307.3z"/>
						<polygon fill="#FFFFFF" points="2207,567 2231.7,578 2246.1,577.3 						"/>
						<path fill="#FFFFFF" d="M1981.7,456.2l25.6-0.4C2002.3,455.8,1968.3,446.8,1981.7,456.2z"/>
						<polygon fill="#FFFFFF" points="1459.4,348.1 1427.6,361.7 1431.3,361.8 1463,348.3 						"/>
						<path fill="#FFFFFF" d="M1784.8,479.3c17.3,8.2-49.1,3.8-13.7,10.4C1802,487.6,1789.4,483.4,1784.8,479.3z"/>
						<path fill="#FFFFFF" d="M1410.1,486.2c-4,1.4-8.2,3.1-11.9,5.4C1402.9,489.6,1406.9,487.8,1410.1,486.2z"/>
						<path fill="#FFFFFF" d="M1410.1,486.2c13-4.5,26.9-5.7,35.3-10.4C1427.8,476.5,1422.4,480.5,1410.1,486.2z"/>
						<path fill="#FFFFFF" d="M1265.1,546.1l11.6-4.6c-9.7,9.1-4.5,6.1,4.3-1.7c11.8-5.7,10.1-7.9,10.7-10.3c2-2.1,3.9-4.2,6-6.5
							c-3.2,2.8-6.1,5.2-8.6,7.4C1270.5,538.8,1259.3,544.3,1265.1,546.1z"/>
						<path fill="#FFFFFF" d="M694.3,804.9c35.8-36.4,45.5-45.1,48.8-38.5c34.4-33.4,20.9-35.9,39.1-59
							c-18.5,20.2-30.1,31.8-42.6,44.5C727.3,764.8,714.9,779.5,694.3,804.9z"/>
						<path fill="#FFFFFF" d="M782.2,707.4c4.1-4.5,8.4-8.5,13.3-13.7C789.7,699.2,785.5,703.3,782.2,707.4z"/>
						<path fill="#FFFFFF" d="M1457.8,550.8c0,0-5.7,4.5-11.2,9.1s-11,9.2-11,9.2l8.8-4.5c0,0,3.3-3.5,6.7-7
							C1454.3,554,1457.8,550.8,1457.8,550.8z"/>
						<path fill="#FFFFFF" d="M644.6,862.1c6.2-7.2,15.3-19.3,21.7-23.7C662.7,832,638.5,869.3,644.6,862.1z"/>
						<path fill="#FFFFFF" d="M868,806.3c5.9-0.8,25.6-23,35.5-30.2C890.6,787.5,871,788.1,868,806.3z"/>
						<path fill="#FFFFFF" d="M586.7,997.9c5.2-7.7,16.9-17.2,18.3-9.1C609.4,975.8,609,953.9,586.7,997.9z"/>
						<path fill="#FFFFFF" d="M809.7,868l6.1-3.5c0,0,4.4-6.7,8.8-13.5c4.3-6.8,9-13.3,9-13.3s-6.2,7.4-12,15.1
							C815.6,860.4,809.7,868,809.7,868z"/>
						<path fill="#FFFFFF" d="M957.4,857.1c18.6-29-52.2,22.8-15.1-22.1c-59.2,47.1,11.7,3.6-27.6,42.3
							C938.7,855.6,957.5,852.6,957.4,857.1z"/>
						<path fill="#FFFFFF" d="M914.7,877.4c-3.5,3.1-7.2,6.6-11,10.6C908.1,883.7,911.6,880.3,914.7,877.4z"/>
						<path fill="#FFFFFF" d="M611.6,1251.7c1.1-5,1.5-8.6,1.8-12C612.6,1243.7,611.9,1247.6,611.6,1251.7z"/>
						<path fill="#FFFFFF" d="M808,1016.3c0,0,4.8-12,9.7-24c5.4-11.8,10.8-23.5,10.8-23.5c-15.6,30.7-62.7,100.6-49.2,103
							c16.1-21.8,33.1-49.5,36.5-63.7L808,1016.3z"/>
						<path fill="#FFFFFF" d="M372.7,1505.6l-0.3-25.9l-7,31.1C368.8,1502.2,374.8,1519.8,372.7,1505.6z"/>
						<path fill="#FFFFFF" d="M364.1,1516.9l1.3-6C364.9,1512.1,364.5,1514.1,364.1,1516.9z"/>
						<path fill="#FFFFFF" d="M647.3,1159c8.5-14.7,14.3-27,19.6-41.7C661.9,1121.8,640.7,1158.7,647.3,1159z"/>
						<path fill="#FFFFFF" d="M371.7,1684.1c0,0-0.4-10.4,0-20.7c0.3-10.4,0.5-20.7,0.5-20.7s-0.6,11.3-1.2,22.6
							c-0.4,5.6-0.6,11.3-0.5,15.5c0,4.2,0,7.1,0,7.1L371.7,1684.1z"/>
						<path fill="#FFFFFF" d="M355.5,1878.7l-1.7,7.4c0,0,1.6,8.6,3.7,17.1c2.2,8.5,4.3,17,4.3,17l1.4-7.6c0,0-2.3-8.4-4.1-17
							C357.2,1887.3,355.5,1878.7,355.5,1878.7z"/>
						<path fill="#FFFFFF" d="M592.6,1643c2.6-23.7-5.1-43.4-8.3-37.5c0,0-0.3,2.9-0.9,7.3c-0.6,4.3-1.2,10.2-1.5,16
							c-0.8,11.7-1.5,23.3-1.5,23.3c10.6-11,0.3-13,5.6-39.7c0,0,1.1,7.6,3.1,15.3C590.9,1635.4,592.6,1643,592.6,1643z"/>
						<path fill="#FFFFFF" d="M1129.2,3031.5c-13.6-0.6-64-33.3-63.1-40.5c8,2.3,37.3,15.8,21.7,2.6c0,0-12.3-2.3-24.1-5.5
							c-12-3.1-24-6.1-24-6.1c-47.2-42.2,50.7,9.3,80.4,18.1c-26.9-16.4-45.5-25-64.2-34.7c-18.9-9.3-38.6-18.6-65.8-38.5
							c15.5,12.5,23.2,23.4,30.4,31.7c-2.2,5.4-15.7-1.9-33.1-14.1c-17.5-12-39.1-28.5-56.9-42.6c19.8,21.6,4.3,14.6-15.1,4.8
							c-3.2-2.1-5.6-3.2-7.5-3.7c-2.3-1.1-4.4-2.2-6.6-3.3l4.3,3.4c-1.1,0.7-1,2.6,0.8,6.7c31.9,21.7,50.6,46,71,60.6
							c-4.7-14.7,12.6-2.5,35.9,13c23.3,15.6,51.7,36.5,66.9,41.4l32.1,16.4l11.7,6.6c1.4,3-3.1,3.4-22.7-3.8
							c16.2,6.3,67,32.6,64.8,25.3c0,0,7.3,3.7,18.2,9.2c11,5.3,25.9,11.8,40.8,18.6c14.9,6.7,29.6,13.5,41.1,17.7
							c11.4,4.5,19,7.4,19,7.4c3.5,2.2,7,4.5,9.3,6.8c4.6,0.6,5.6,0,5.4-1c0,0,8.3,3.2,22.8,8.8c14.7,4.9,35.7,12,60.9,20.5
							c50.9,15.3,119.5,34.3,189.6,45.5c34.8,6.9,70.2,10,103.1,14.4c33.1,2.3,64,5.5,90.5,6s48.6,1,64.1,1.3
							c15.5-0.4,24.3-0.6,24.3-0.6c-28-0.2-52-5.5-80.6-8.1c43.3-10.6-46.8-3.4-33.5-14.8c19.3-2.4,47.2-1.2,63.9,2.2
							c6.3-5.5-17.3-11.1-14.4-17.8c-34.7-4-54.8-0.8-75.1,3c-20.3,4-40.8,8.2-74.7,1.4c3.6-6.4,25.2-9.6-19.2-14.4h11.5
							c-36.1-0.3-49.1-8-59.1-11.8c-10-4.4-16.9-6.4-40.9-1.7l3.1-9.3c-16.5,0-40.2-3.5-64.1-8c-23.8-5.2-47.5-11.8-64.9-16l2.6-1.2
							c-98.4-20.8-54.7-13.5-160.5-51.6c0,0,3.2,0.7,8.1,1.7c4.8,1.1,11.3,2.3,17.9,3.3c13.1,2.1,26.1,4.2,26.1,4.2
							c-34.1-18.2-46.7-10.8-71.6-23.4c2.6-0.9-0.2-10.1,24.2-1c0,0-8.1-2.5-20.4-6.2c-12.2-3.8-28.8-8.4-44.7-14.5
							c-16.2-5.8-32.3-11.7-44.4-16c-12.2-4.4-20-7.9-20-7.9C1092.5,3005.9,1126.7,3025.3,1129.2,3031.5z"/>
						<path fill="#FFFFFF" d="M990.1,2926.9c-5.6-4.6-12.1-9.5-20.2-14.9C977.3,2917.7,983.8,2922.4,990.1,2926.9z"/>
						<path fill="#FFFFFF" d="M1894.9,3222.9l-39.7,1.1C1867.5,3224.3,1880.3,3224.1,1894.9,3222.9z"/>
						<path fill="#FFFFFF" d="M824.3,2818.8c13.9,20.3-17.9-7.2-23.6-7.5c0,0,15.7,14.9,31.4,29.8c16.3,14.2,32.7,28.4,32.7,28.4
							c2.2-3.1,11.4-0.7,12.3-4.5c0,0-13.4-11.3-26.8-22.7c-6.8-5.6-13.3-11.5-18-16C827.5,2821.8,824.3,2818.8,824.3,2818.8z"/>
						<path fill="#FFFFFF" d="M879.2,2891.3c3.8,0,12.6,3.9,22,8.5c0,0-9.5-7.1-18.5-14.9c-9-7.7-18-15.5-18-15.5
							C863.2,2871.8,865.5,2877.3,879.2,2891.3z"/>
						<path fill="#FFFFFF" d="M1002.1,2731.1l10.3,8.4l17.7,10.2c0,0-7.1-4.5-14.2-9C1008.8,2736.1,1002.1,2731.1,1002.1,2731.1z"/>
						<path fill="#FFFFFF" d="M1163,2866c-11.1-12.7-38.6-26.1-48.2-30.2C1144.7,2854.4,1130.3,2848.7,1163,2866z"/>
						<polygon fill="#FFFFFF" points="1159.3,2791.3 1188.2,2806 1186.3,2803.4 						"/>
						<path fill="#FFFFFF" d="M2176.3,3143.2c6-1.6,11.7-3.1,17.6-5.1C2185.9,3140.5,2180.6,3141.7,2176.3,3143.2z"/>
						<path fill="#FFFFFF" d="M1858,3194.6c90.7,8.7-59,10.7-30.7,24l49.6-5.9l-4.1,3.9c0,0,15.1-0.7,30.3-1.4
							c15.1-1.4,30.2-2.9,30.2-2.9c-12.9-5.5-22.1-5.2-19.8-12.2c80.2-3.9,25.8,7.1,85.7,9.1c0,0,22.4-3.2,44.9-6.3
							c22.4-3.5,44.6-8.2,44.6-8.2l-6.9,3.3c7.5-1.5,10.7-2.9,13.1-4.5c0,0,75.3-14,148-37.4c18.4-5.2,36.3-11.6,53.2-17.6
							c16.8-6.2,32.7-11.1,45.9-16.8c26.4-10.8,44.1-18.1,44.1-18.1c49-25.9-32.8,0.2,0.9-24.3c-58.5,24.9-149.9,46.8-151.6,60.2
							c1.5-2.4,4.5-7.1-8.3-5.2l-32.4,20.8l34.8-6.2c-8.2,5.2-21.6,11.1-37.6,16.7c-16.1,5-34.8,9.9-53.1,14
							c-36.7,8.1-72.4,10.9-83.5,9.7c66.5-16.3,30.6-21,124.2-35.3c-5-2.4-23.1-4.4-3-11C2070.1,3173,1971.6,3180.2,1858,3194.6z"/>
						<path fill="#FFFFFF" d="M2848.2,2765l0.3,1.5C2849.4,2764.6,2849.5,2763.8,2848.2,2765z"/>
						<path fill="#FFFFFF" d="M2820.4,2789.4c0,0-7.4,11.7-14.9,23.4c-7.4,11.8-15.7,22.9-15.7,22.9s15.9-13.8,30.7-28.8
							c15-14.7,30.1-29.5,30.1-29.5l-2.2-10.9c-3.5,6.9-21.6,30.5-32.4,35.8L2820.4,2789.4z"/>
						<path fill="#FFFFFF" d="M2747.1,2882.5c31.3-30.9,21.7-38.1,0.9-26.4c26.6-29.8,23.6-4.8,36.6-31.4
							c-6-5.4-39.4,30.3-47.5,38.2L2747.1,2882.5z"/>
						<polygon fill="#FFFFFF" points="2473.4,3051.6 2482.2,3041.9 2454.9,3054.5 						"/>
						<path fill="#FFFFFF" d="M2482.2,3041.9l27.2-12.6c-3.4-2-6.8-4-12.2-3.8L2482.2,3041.9z"/>
						<path fill="#FFFFFF" d="M2579.4,2993.4c11.3-5.9,23.3-13.1,37.9-22.1c0,0-9.5,5.5-18.9,11.1
							C2588.9,2988,2579.4,2993.4,2579.4,2993.4z"/>
						<path fill="#FFFFFF" d="M2548.3,3008.1l1.6,0.7l29.5-15.4C2568.3,2998.6,2558.3,3003.3,2548.3,3008.1z"/>
						<path fill="#FFFFFF" d="M2509.4,3029.3c8,4.6,17,9.3,53.8-14.6l-13.3-6c0,0-10.1,5.2-20.1,10.5
							C2519.8,3024.8,2509.4,3029.3,2509.4,3029.3z"/>
						<polygon fill="#FFFFFF" points="1363.7,2909.7 1392.7,2916.5 1390.2,2914.2 1361.3,2907.5 						"/>
						<path fill="#FFFFFF" d="M1523.7,2968.8c7.5,0.3,13.2,0.2,18.4-0.1C1534.5,2967.8,1528.2,2967.7,1523.7,2968.8z"/>
						<path fill="#FFFFFF" d="M1655.9,2941.2c32.3,11.8-47.6,4.3,13.9,15.5c4.7,7.5-26.2,14.2-54.9,4.7c3.5-6.3,29.1,0.8,12.4-9.2
							c-20.6,4.3-27.1-2.3-22.2,8.9c-34.1,0.7-39.1,6.1-63,7.6c40.2,6.4,124.1,30,177.1,21c29.3-10.1,13.3-28.1,14.9-45.8
							c-1.9-2.5-20.6-4.6-39-6.7C1676.7,2935.4,1658.1,2935.5,1655.9,2941.2z"/>
						<path fill="#FFFFFF" d="M1607.3,2915.1c-14.8-3.5-19.6-3.5-29-4.4C1579.5,2917.5,1595.1,2913.4,1607.3,2915.1z"/>
						<path fill="#FFFFFF" d="M1970.7,3061.6c3-2.9,32.9-9.9,25.8-13.4c0,0-11.4,2.3-22.7,4.5c-11.3,2.5-22.8,3.9-22.8,3.9
							C1961.9,3056.4,1966,3058.9,1970.7,3061.6z"/>
						<path fill="#FFFFFF" d="M1930.8,3059.5l20.1-2.9C1945.9,3056.8,1939.7,3057.6,1930.8,3059.5z"/>
						<path fill="#FFFFFF" d="M1973.1,3062.9c-0.8-0.4-1.5-0.8-2.4-1.3C1970.1,3062.2,1970.3,3062.7,1973.1,3062.9z"/>
						<path fill="#FFFFFF" d="M2685.3,2928c2.3,4.4,19.4-11.1,27.3-19.7C2705.1,2913.9,2693.6,2920.4,2685.3,2928z"/>
						<path fill="#FFFFFF" d="M3179.4,2244.3l10.1-17.6C3185.1,2232.7,3182.9,2235.7,3179.4,2244.3z"/>
						<path fill="#FFFFFF" d="M3121.6,1928.2c-0.9-0.7-1.5-2.1-2-4C3120,1926.1,3120.6,1927.5,3121.6,1928.2z"/>
						<path fill="#FFFFFF" d="M3119.6,1924.3c-2.5-12.7,8.9-49.8,3.1-64.1l1.7,1.9l-1.7-25.6c-0.7,11.9-1.8,30.3-2.9,47.5
							C3118.3,1901,3117.6,1917,3119.6,1924.3z"/>
					</g>
				</g>
			</g>
		</g>
	</g>
</g>
<g>
	<path fill="#CCCC66" d="M758.2,2896.5"/>
	<g id="wNvGUP.tif">
		
			<image overflow="visible" opacity="0.75" enable-background="new    " width="504" height="513" xlink:href="A86FEF4A6C99260.png"  transform="matrix(5.4466 0 0 5.4151 699.7659 446.4545)">
		</image>
		<g>
			<g>
				<g>
					<path fill="#CCCC66" d="M2607.7,1308.2c38.6,16.2,76,34.5,109.6,59.8c82.6,62.2,135.1,145.4,168.8,241.6
						c7.8,22.3,15.4,44.7,19.2,68.2c1.4,12.4-8.5,13.4-16.4,15.8c-45.4,13.7-91.3,25.1-137.4,35.8c-85.3,19.9-171.2,37.5-257.8,51.2
						c-10,1.6-20,2.7-30,1.7c-8.2-3.8-12.9-10.9-16.7-18.7c-30.9-62.8-80-99.1-150.7-106.2c-88.2-8.9-156,25.2-207.4,95.4
						c-11.9,16.3-22.1,33.7-30.6,52.1c-3.3,7.1-6.1,15.2-15.3,17.4c-14.6,4.8-29.6,5.9-44.8,5.9c-68.7-0.2-137.4,1-206-0.4
						c-60-1.3-119.9-4.9-179.8-9.3c-16.8-1.2-21.7-6.8-21.7-24.3c-0.1-86.9,0-173.7-0.1-260.6c0-47.4,2-94.9-5.5-142
						c-0.5-10,0.1-20,1.7-29.8c1-13.6,0.1-27.2,0.7-40.8c0.4-9.3,4.5-14,13.9-13.9c3,0,6-0.1,9.1-0.1c134.6,0,269.2-0.1,403.7,0.1
						c8,0,17.9-2.9,21.6,8.6c2,7.9,3.1,15.8,3,24c-0.5,47.4,1.4,94.9-1,142c0.1-0.4,0.1,1,0.2,0.8c6.2-10.7,12.3-21.2,22.1-28.8
						c6-2.2,7.5-7.4,8.6-12.9c4.2-7.5,9-14.5,15.7-20c8.1-4.5,14.3-10.6,17.3-19.5c4.8-6.4,10.2-12.1,16.8-16.6
						c8.1-1.9,13.2-7.3,16.5-14.7c8.7-8.8,18.1-16.6,29.4-21.9c9.5-1.3,16.7-6.3,22.2-14c8.8-12.5,25.9-10.2,36-20.4
						c8.1-0.6,14-5.7,20.4-9.7c28-11.9,58.1-16,87.1-24.3c56.6-10.3,113.4-11.3,170.3-3.5c4,0.5,8,0.7,12.1,0.9
						c14.9,6.5,30.8,8,46.7,10.7C2576.7,1290.6,2595.6,1291.9,2607.7,1308.2z"/>
					<path fill="#CCCC66" d="M2907.9,1681.4c9.8,50.2,17.6,100.6,21.6,151.6c8.2,23.7,12.3,47.9,8.9,73c1.4,23.2,1.3,46.3,0,69.5
						c1.3,30.2,1.4,60.3,0,90.5c1.2,21.3,1.3,42.6,0,63.9c1.2,22.2,1.3,44.4,0,66.7c0.5,30,3.3,60-1.7,89.9c-0.6,2.9-1.6,5.7-4,7.7
						c-2,0.7-3.9,0.5-5.6-0.7c-6.5-6.5-4.9-15-5.2-22.8c-0.5-14.6-0.3-29.2,0.7-43.7c-1.4-33.3-1.4-66.5,0-99.8
						c-1.3-35.3-1.4-70.6,0-106c-1.3-30.3-1.4-60.6,0-90.9c-2-34.8-2.5-35.3-37-35.3c-121.5,0-243.1,0-364.6,0
						c-10.1,0-20.2,0.6-30-2.7c-8.5-1.6-10.4-8.1-11.5-15.4c-1.9-13.4-4.1-26.7-7.1-39.8c-5.2-18.1-12-35.9-12.7-55.1
						c0.6-1.5,1.7-2.7,3.2-3.4c50.6-9,101.3-17.4,151.7-27.1c94.1-18.1,187.3-40.3,279.5-66.4c4.5-1.3,8.6-2.9,11.3-6.9
						C2906.2,1679,2907,1680.2,2907.9,1681.4z"/>
					<path fill="#CCCC66" d="M2046.1,1817.7c0.1,1,0.3,2,0.4,2.9c4.5,7.3-1.1,14.2-1,21.3c-4.1,21.8-7.3,43.7-7.6,66
						c1.7,22.6,1.3,45.2,0.1,67.9c1.4,30.1,1.4,60.2,0,90.3c1.2,21.3,1.3,42.6,0,63.9c1.3,22.3,1.3,44.6,0,66.8
						c1.3,30.2,1.4,60.4,0,90.6c1.2,21.3,1.3,42.7,0,64.1c1.3,29.3,1.3,58.5,0,87.8c1.3,31.3,1.3,62.7,0,94
						c1,14.9,1.1,29.8,0.6,44.8c-0.2,7-0.7,14-7,18.8c-0.2,36-0.4,71.9-0.8,107.8c-0.1,5.3,2.1,11-2.3,15.7c-7.6-5-7-13-7.1-20.5
						c-0.3-28.3-0.9-56.5,0.6-84.8c-1.3-41.4-1.4-82.9,0-124.3c-1.3-44.4-1.4-88.8,0-133.2c-1.3-31.4-1.4-62.8,0-94.2
						c-1.3-36.3-1.4-72.7,0-109c-1.3-30.4-1.4-60.8,0-91.1c-1.3-37.2-1.5-74.3,0-111.5c-0.5-10.1-0.9-20.1-1-30.2
						c-0.2-22.9-3.8-26.6-26.2-26.8c-27.2-0.2-54.5-0.1-81.7-0.1c-93.8,0-187.6-0.1-281.4,0c-26.5,0-29.3,2.9-29.5,29.6
						c0,9.1-0.5,18.1-0.9,27.2c1.4,37.2,1.4,74.3,0,111.5c1.3,30.4,1.4,60.8,0,91.1c1.3,36.4,1.3,72.9,0,109.3
						c1.3,24.7,1.2,49.4,0.4,74c-0.2,7.1,0.9,16-9.9,17.5c-7.1-3.8-6.6-10.8-6.8-17.2c-0.7-16.6-0.6-33.2,0.5-49.8
						c-1.3-29.4-1.4-58.7,0-88.1c-1.2-23.3-1.3-46.7,0-70c-1.3-29.2-1.4-58.4,0-87.7c-1.2-22.4-1.3-44.7,0-67.1
						c-1.3-36.3-1.4-72.6,0-108.9c-0.8-13.4-1.1-26.9-0.5-40.3c0.3-6.6,1-13,7.1-17.1c0.1-79.6,0.3-159.1,0.4-238.7
						c0.1-59.9,0-119.8,0-179.7c3.6,7.1,2.3,14.9,2.3,22.3c0.2,125.6,0.3,251.2,0.5,376.8c0,19.1,1.9,20.6,20.2,22
						c127.3,9.4,254.7,10.4,382.2,8.9C2014,1820.4,2030.1,1818.7,2046.1,1817.7z"/>
					<path fill="#CCCC66" d="M2928.9,2020.9c0,35.4,0,70.7,0,106.1c-6.6,8.4-16.2,7.1-25.1,7.1c-57.5,0.3-115,0.1-172.5,0.1
						c-64.5,0-129.1,0-193.6,0c-32.9,0-33.7,1.1-35.2,33.7c-0.4,8.6,3.7,20.3-10.3,23.3c-6.4-3.5-6.3-9.8-6.6-15.8
						c-0.8-15-0.6-30,0.5-45c-0.9-20.7-1.9-41.4,0.6-62.1c-1.6-14.3,2.2-28,4.5-41.9c1.3-7.7,5.8-11.2,13.2-12.1
						c6.5-0.7,13.1-0.8,19.6-0.8c125.1-0.1,250.1-0.1,375.2,0.1C2909.5,2013.8,2920.8,2011.2,2928.9,2020.9z"/>
					<path fill="#CCCC66" d="M2492.9,2190.7c5.2-14.7,2.6-30,2.2-45c-0.4-14.7,4.9-19,19.3-18.9c138.2,0.4,276.3,0.3,414.5,0.3
						c0,33.3,0,66.7,0,100c-6.6,8.4-16.2,7.1-25.1,7.1c-56.4,0.3-112.9,0.1-169.3,0.1c-67.5,0-135-0.1-202.5,0
						c-25.4,0-28.9,3.6-29.2,28.7c-0.1,11.1,0.4,22.2-0.7,33.2c-0.6,6.1-1.4,12.4-9.4,13.3c-9-5.2-5.9-14-6.5-21.7
						c-0.6-30.2-3.6-60.4,1.8-90.5C2488.6,2194.5,2490,2192.1,2492.9,2190.7z"/>
					<path fill="#CCCC66" d="M2492.9,2308.9c5.3-20.9,2.3-42.1,2.2-63.1c-0.1-14.6,4.8-19,19.2-19c138.2,0.4,276.4,0.3,414.6,0.3
						c0,22.2,0,44.4,0.1,66.6c2.6,10.4,2.2,20.9,0.2,31.3c-8.2,8.4-18.8,6.2-28.6,6.2c-108.5,0.3-217,0.1-325.6,0.1
						c-16.2,0-32.3-0.3-48.4,0.1c-18.7,0.5-22.9,4.7-23.7,23.5c-0.3,6.6-0.6,13.1-1.1,19.7c-0.8,8.6,3.1,18-5,25.1
						c-1.8,1.1-3.7,1.1-5.6,0.1c-8.9-9-5-20.5-5.9-31c-0.5-5.9,0.6-11.8,0.7-17.8c-0.5-9.5-1.2-19-0.3-28.5
						C2486.3,2317.1,2486.7,2311.4,2492.9,2308.9z"/>
					<path fill="#CCCC66" d="M2928.9,2020.9c-137.7,0-275.3,0-413,0c-20.1,0-20.1,0.3-20.5,20.2c-0.2,9.5,2,19.2-2.4,28.3
						c-1.8-0.9-3.2-2.2-4.1-4c-6.7-18.1-2.7-37-3.6-55.5c-0.6-11.6,0.1-23.2,0.8-34.8c0.6-15.9-4.9-32.3,4.6-47.3
						c7.6-4.8,16.3-5,24.8-5c129.5-0.2,258.9-0.2,388.4,0.1c8.9,0,18.5-1.3,25.1,7.2C2928.9,1960.3,2928.9,1990.6,2928.9,2020.9z"/>
					<path fill="#CCCC66" d="M2489.1,1905.7c0-6,0-12-0.1-18c141.2-0.1,282.4,0,423.6-0.4c12.7,0,17.3,4.7,16.4,16.9
						c-0.6,8.5-0.2,17.1-0.2,25.7c-145.4,0-290.9,0-436.3,0C2481,1923.3,2480.9,1915.1,2489.1,1905.7z"/>
					<path fill="#CCCC66" d="M2928.9,2324.1c0-10.1,0.1-20.3,0.1-30.4c0.8,0,1.6,0.1,2.4,0.1c0.3,40.4,0.7,80.8,1,121.3
						c0,38.4,0,76.8,0,115.2c0,22.2,0,44.5,0,66.7c-0.2,36.3-0.2,72.6-0.7,108.9c-0.1,5,3.2,11.1-2.9,15c-7.2-5.1-7-12.9-7-20.3
						c-0.2-32.4-1-64.9,0.6-97.3c-1.3-38.4-1.4-76.9,0-115.3c-1.3-37.4-1.4-74.7,0-112.1c-0.6-11.4-1.1-22.9-0.5-34.3
						C2922.3,2334.8,2923.1,2328.5,2928.9,2324.1z"/>
					<path fill="#CCCC66" d="M900.8,975c-2.9-8.1-5.7-16.3-8.6-24.4c-2.2-10.1-4.5-20.1-6.7-30.2c-1.1-10.1-2.1-20.2-3.2-30.3
						c0-11.1,0.1-22.2,0.1-33.4c1.1-9.9,2.3-19.9,3.4-29.8c3.1-12.1,6.1-24.2,9.2-36.2c5.9-13.4,11.9-26.8,17.8-40.2
						c9.1-13,18.3-26,27.4-39c15-11.3,25.2-28.2,42.3-37.1c15.2-8.1,30.3-16.2,45.5-24.2c28.6-10.2,57.8-17.1,88.2-18.3
						c9.9-1.6,19.8-1.6,29.8,0c34.8,2.3,68.4,10,100.4,24.1c11,6.5,22.1,12.9,33.1,19.4c10.2,8.9,20.3,17.8,30.5,26.7
						c9.9,12.5,19.9,25,29.8,37.4c4.2,7.8,8.4,15.6,12.6,23.4c4,10.1,8.1,20.3,12.1,30.4c2.1,8,4.2,16,6.4,24.1
						c1.9,11.3,3.7,22.6,5.6,33.8c0.2,3.9,0.4,7.8,0.6,11.6c0,9.1,0,18.2,0.1,27.3c-1,9.1-2,18.2-2.9,27.3
						c-1.9,9.1-3.9,18.2-5.8,27.3c-3.2,10.1-6.5,20.2-9.7,30.3c-4.4,9-8.7,18-13.1,27c-5.5,8.2-11,16.4-16.5,24.6
						c-5,6.1-10.1,12.1-15.2,18.2c-8.7,8-17.3,15.9-25.9,23.9c-15,9.2-29.9,18.3-44.9,27.5c-10.3,3.9-20.6,7.9-30.9,11.8
						c-17.9,3.5-35.1,10.8-53.9,10.1c-6.3,2.3-13.3-0.5-19.6,2.2c-30.1-2.2-60.5-2.2-89.5-12c-11.9-4-23.7-8.3-35.6-12.4
						c-15.7-10-31.4-20-47.1-29.9c-12.2-13.1-24.3-26.3-36.5-39.4c-5.4-8.2-10.9-16.4-16.3-24.6C909.5,993,905.2,984,900.8,975z"/>
					<path fill="#CCCC66" d="M1146.2,631.9c-9.9,0-19.8,0-29.8,0C1126.3,628.1,1136.2,628.1,1146.2,631.9z"/>
					<path fill="#CCCC66" d="M910.7,1690c-0.3-21.2-0.8-42.3-0.7-63.5c0-104.9,0.2-209.8,0.3-314.6c145.4,0,290.8,0,436.2,0
						c2.9,4.7,1.5,9.8,1.5,14.7c0,150.6,0.1,301.2,0,451.8c-2.1,10-9.5,8.5-16.7,7.5c-39.9-5.5-79.6-12.7-119.2-19.9
						c-92.8-16.7-184.5-38.2-275.6-62.1C926.8,1701.4,916.7,1699.5,910.7,1690z"/>
					<path fill="#CCCC66" d="M1346.2,2375.6c0,49.5,0,99,0.1,148.6c-6.6,8.6-16.2,7.1-25.1,7.1c-52.9,0.4-105.9,0.2-158.8,0.2
						c-75.1,0-150.2,0.2-225.3-0.2c-9.2,0-19.5,2.1-26.6-7.1c0-49.5,0-99,0-148.5c6.5-8.9,16.2-7.1,25-7.2
						c56.5-0.4,112.9-0.2,169.4-0.2c71.6,0,143.1-0.2,214.7,0.2C1328.9,2368.5,1339.1,2366.5,1346.2,2375.6z"/>
					<path fill="#CCCC66" d="M1346.1,1781.2c0,35.4-0.1,70.9-0.1,106.3c-6.5,8.8-16.2,7.1-25,7.1c-58.9,0.4-117.8,0.2-176.8,0.2
						c-69,0-138,0.2-207-0.2c-9.2,0-19.5,2.2-26.5-7.1c0-65.9,0-131.7,0-197.6c35.2,8.8,70.5,17.5,105.7,26.4
						C1125.2,1743.7,1235.4,1763.7,1346.1,1781.2z"/>
					<path fill="#CCCC66" d="M1346.1,2172.5c0,36.4,0,72.7,0.1,109.1c-6.5,8.7-16.2,7.1-25,7.1c-55.9,0.4-111.9,0.2-167.8,0.2
						c-72.1,0-144.1,0.2-216.2-0.2c-9.2,0-19.5,2.1-26.5-7.1c0-36.4,0-72.7,0-109.1c6.4-8.9,16.2-7.1,25-7.2
						c55.4-0.4,110.9-0.2,166.3-0.2c72.6,0,145.1-0.2,217.7,0.2C1328.8,2165.4,1339.1,2163.3,1346.1,2172.5z"/>
					<path fill="#CCCC66" d="M1346,1960.3c0,35.4,0,70.7,0,106.1c-6.5,8.8-16.2,7.1-25,7.1c-57.9,0.4-115.9,0.2-173.8,0.2
						c-70,0-140,0.2-210-0.2c-9.2,0-19.5,2.2-26.5-7.1c0-35.4,0-70.7,0-106.1c6.4-8.9,16.2-7.1,25-7.2c56.4-0.4,112.8-0.2,169.3-0.2
						c71.5,0,143.1-0.2,214.6,0.2C1328.7,1953.2,1339,1951,1346,1960.3z"/>
					<path fill="#CCCC66" d="M910.6,2066.4c145.1,0,290.2,0,435.4,0c0,35.4,0,70.7,0,106.1c-145.2,0-290.3,0-435.4,0
						C910.6,2137.2,910.6,2101.8,910.6,2066.4z"/>
					<path fill="#CCCC66" d="M1346.3,2618.1c0,34.3,0.1,68.6,0.2,102.8c-145.4,0-290.8,0-436.1,0c0.1-34.3,0.1-68.5,0.2-102.8
						c6.5-8.8,16.2-7.1,25-7.1c55.5-0.4,110.9-0.2,166.4-0.2c72.6,0,145.2-0.2,217.8,0.2C1329,2611,1339.2,2609,1346.3,2618.1z"/>
					<path fill="#CCCC66" d="M910.6,2281.6c145.2,0,290.4,0,435.5,0c0,31.3,0,62.6,0,94c-145.2,0-290.4,0-435.6,0
						C910.6,2344.3,910.6,2313,910.6,2281.6z"/>
					<path fill="#CCCC66" d="M1346.3,2618.1c-145.3,0-290.5,0-435.8,0c0-31.3,0-62.6,0-94c145.2,0,290.5,0,435.7,0
						C1346.2,2555.4,1346.3,2586.8,1346.3,2618.1z"/>
					<path fill="#CCCC66" d="M1346,1960.3c-145.1,0-290.2,0-435.3,0c0-24.2,0-48.5,0-72.8c145.1,0,290.1,0,435.2,0
						C1345.9,1911.8,1346,1936,1346,1960.3z"/>
					<path fill="#CCCC66" d="M2027.8,2357.5c0,44.5,0,88.9,0,133.4c-5,7.5-13,6.8-20.5,7c-28.7,0.5-57.4,0.2-86.1,0.2
						c-100.2,0-200.4,0.2-300.6-0.2c-9.7,0-20.5,2.4-28-7.1c-0.3-3-0.7-6-1-9c-8.2-6.3-6.2-15.4-6.6-23.8
						c-0.4-8.6-0.2-17.2,0.3-25.8c2.6-20.4,5.6-40.8,5.5-61.5c0-14,4.9-18.6,19-20.1c5-0.5,10.1-0.5,15.1-0.5
						c124.5,0,249-0.1,373.5,0.2C2008.5,2350.3,2019.9,2347.2,2027.8,2357.5z"/>
					<path fill="#CCCC66" d="M1592.6,2490.8c145.1,0,290.1,0.1,435.2,0.1c0,41.4,0,82.8,0,124.2c-5,7.5-13,6.8-20.5,7
						c-25.7,0.5-51.4,0.2-77.1,0.2c-102.8,0-205.6,0.1-308.3-0.2c-10.2,0-21.6,2.7-29.6-7.1
						C1592.4,2573.6,1592.5,2532.2,1592.6,2490.8z"/>
					<path fill="#CCCC66" d="M2928.9,2602.9c0,39.3,0,78.5,0,117.8c-99,0.2-198,0.4-297,0.5c-45.5,0-90.9-0.3-136.4-0.5
						c-3.5-30.1-1-60.3-1.4-90.5c-0.5-34.5-0.1-34.6,34.6-34.6c123.6-0.1,247.1-0.1,370.6,0.1
						C2909.5,2595.8,2920.8,2593.2,2928.9,2602.9z"/>
					<path fill="#CCCC66" d="M2928.9,2602.9c-137.4,0-274.7,0-412.1,0c-21.3,0-21.3,0.1-21.3,20.8c0,32.3,0,64.6,0,97
						c-5.8-3.4-2.9-9-2.9-13.5c-0.4-36.8-0.5-73.6-0.6-110.4c-7-6.2-6.2-14.5-6.3-22.6c0.8-25.1,7.4-49.7,5.6-75.2
						c-0.8-10.8,6.2-16.4,16.6-17.8c5.5-0.7,11-0.8,16.6-0.8c125.5-0.1,250.9-0.1,376.4,0.1c9.8,0,20.5-2.2,28.1,7.2
						C2928.9,2526.2,2928.9,2564.6,2928.9,2602.9z"/>
					<path fill="#CCCC66" d="M1592.3,2615c145.2,0,290.3,0,435.5,0c0.3,35.1,0.5,70.2,0.8,105.3c-4.5,0.3-9,0.8-13.5,0.8
						c-136.1,0-272.2-0.1-408.3,0.3c-12.6,0-16.3-3.2-15.8-15.8C1592.3,2675.5,1592,2645.3,1592.3,2615z"/>
					<path fill="#CCCC66" d="M1595.8,2063.5c0-37.4,0-74.8,0-112.2c6.4-9,16.1-7.2,24.9-7.2c53.9-0.4,107.8-0.2,161.7-0.2
						c73,0,146.1-0.2,219.1,0.2c9.2,0,19.6-2.2,26.4,7.3c0,37.4,0,74.8-0.1,112.2c-5.6,7.9-14.2,6.8-22.1,6.9
						c-31.3,0.5-62.6,0.2-93.9,0.2c-96,0-191.9,0.2-287.9-0.2C1614.2,2070.4,1603.3,2073,1595.8,2063.5z"/>
					<path fill="#CCCC66" d="M2027.8,2154.4c0,36.4,0,72.8,0,109.1c-5.5,7.9-14.1,6.8-22,7c-29.2,0.5-58.4,0.2-87.6,0.2
						c-98.2,0-196.5,0.1-294.7-0.2c-9.7,0-20.5,2.3-28.1-7.1c0.1-36.3,0.2-72.7,0.3-109.1c6.4-8.9,16.1-7.2,25-7.3
						c50.9-0.4,101.8-0.2,152.7-0.2c76.1,0,152.2-0.2,228.2,0.2C2010.7,2147.2,2021,2144.9,2027.8,2154.4z"/>
					<path fill="#CCCC66" d="M1595.3,2263.4c144.1,0,288.3,0.1,432.5,0.1c0,31.3,0,62.6,0,93.9c-137.8,0-275.7,0.2-413.5-0.4
						c-15.9-0.1-19.7,5.7-19.5,20.4c0.3,18.5,3.1,37.3-2.2,55.6c-0.3-5-0.7-10-1-15.1c-10.2-15.2-9.6-52.1,1.1-63.7
						c5.3-21.6,1.2-43.7,2.4-65.5C1595.5,2280.4,1595.3,2271.9,1595.3,2263.4z"/>
					<path fill="#CCCC66" d="M2027.8,2154.4c-144.1,0-288.2,0-432.2,0c0.1-30.3,0.1-60.6,0.2-90.9c144,0,288.1,0,432.1,0
						C2027.8,2093.8,2027.8,2124.1,2027.8,2154.4z"/>
					<path fill="#CCCC66" d="M2027.9,1951.3c-144,0-288.1,0-432.1,0c-0.2-16.1,0.1-32.3-0.7-48.4c-0.6-12.2,4.9-15.6,16.3-15.5
						c40.9,0.4,81.7,0.2,122.6,0.2c89.8,0,179.6,0,269.4,0c25.2,0,25.3,0,25.2,26C2028.5,1926.1,2028.1,1938.7,2027.9,1951.3z"/>
					<path fill="#CCCC66" d="M2491.9,2533.2c0.3-30.3,0.7-60.7,1.1-91c3.1-14-1.5-28.4,2.5-42.3c0-8.1,0-16.2,0-24.2
						c6.6-8.4,16.3-7.1,25.2-7.2c50-0.4,99.9-0.2,149.9-0.2c76.7,0,153.5-0.2,230.2,0.2c9.8,0,20.6-2.2,28.1,7.2
						c0,37.4,0,74.8,0,112.2c-136.2,0-272.3,0-408.5,0c-23.7,0-24.4,1.3-25.1,24.7c-0.6,21,3,42.3-2.4,63.1
						C2492.6,2561.4,2492.2,2547.3,2491.9,2533.2z"/>
					<path fill="#CCCC66" d="M2928.8,2375.6c-144.5,0-288.9,0-433.4,0c0-10.6,0.8-21.2-0.2-31.7c-1.4-15,3.9-20.6,19.5-20.1
						c35.8,1,71.5,0.3,107.3,0.3c102.3,0,204.6,0,306.8,0C2928.9,2341.3,2928.9,2358.4,2928.8,2375.6z"/>
					<path fill="#CCCC66" d="M2495.4,2399.8c-1.1,14.1,2.6,28.5-2.5,42.3c-0.3-1-0.7-2-1-2.9c0.3-13.1,0.7-26.3,1-39.4
						C2493.8,2399.8,2494.6,2399.8,2495.4,2399.8z"/>
				</g>
			</g>
		</g>
	</g>
</g>
</svg>
